solid com.sketchup.SketchUp.2019
facet normal -6.954644278444067e-42 -3.024107385948133e-13 -1
  outer loop
    vertex 20769.134765625 15519.6044921875 28818.693359375
    vertex 20518.044921875 14234.423828125 28818.693359375
    vertex 20518.044921875 15519.6044921875 28818.693359375
  endloop
endfacet
facet normal -6.954644278444067e-42 -3.024107385948133e-13 -1
  outer loop
    vertex 20518.044921875 14234.423828125 28818.693359375
    vertex 20769.134765625 15519.6044921875 28818.693359375
    vertex 20769.134765625 14234.423828125 28818.693359375
  endloop
endfacet
facet normal 1 -0 -1.595378301633804e-41
  outer loop
    vertex 20769.134765625 15519.6044921875 28818.693359375
    vertex 20769.134765625 14234.423828125 28999.97265625
    vertex 20769.134765625 14234.423828125 28818.693359375
  endloop
endfacet
facet normal 1 -0 -1.595378301633804e-41
  outer loop
    vertex 20769.134765625 14234.423828125 28999.97265625
    vertex 20769.134765625 15519.6044921875 28818.693359375
    vertex 20769.134765625 15519.6044921875 28999.97265625
  endloop
endfacet
facet normal 0 -1 4.745198916959736e-13
  outer loop
    vertex 20769.134765625 14234.423828125 28999.97265625
    vertex 20518.044921875 14234.423828125 28818.693359375
    vertex 20769.134765625 14234.423828125 28818.693359375
  endloop
endfacet
facet normal 0 -1 4.745198916959736e-13
  outer loop
    vertex 20518.044921875 14234.423828125 28818.693359375
    vertex 20769.134765625 14234.423828125 28999.97265625
    vertex 20518.044921875 14234.423828125 28999.97265625
  endloop
endfacet
facet normal 2.643346070908773e-28 3.086962651645264e-13 1
  outer loop
    vertex 20769.134765625 14234.423828125 28999.97265625
    vertex 20518.044921875 15519.6044921875 28999.97265625
    vertex 20518.044921875 14234.423828125 28999.97265625
  endloop
endfacet
facet normal 2.643346070908773e-28 3.086962651645264e-13 1
  outer loop
    vertex 20518.044921875 15519.6044921875 28999.97265625
    vertex 20769.134765625 14234.423828125 28999.97265625
    vertex 20614.294921875 15484.1845703125 28999.97265625
  endloop
endfacet
facet normal 2.643346070908773e-28 3.086962651645264e-13 1
  outer loop
    vertex 20614.294921875 15484.1845703125 28999.97265625
    vertex 20769.134765625 14234.423828125 28999.97265625
    vertex 20646.439453125 15484.1845703125 28999.97265625
  endloop
endfacet
facet normal 2.643346070908773e-28 3.086962651645264e-13 1
  outer loop
    vertex 20646.439453125 15484.1845703125 28999.97265625
    vertex 20769.134765625 14234.423828125 28999.97265625
    vertex 20646.439453125 15519.6044921875 28999.97265625
  endloop
endfacet
facet normal 2.643346070908773e-28 3.086962651645264e-13 1
  outer loop
    vertex 20646.439453125 15519.6044921875 28999.97265625
    vertex 20769.134765625 14234.423828125 28999.97265625
    vertex 20769.134765625 15519.6044921875 28999.97265625
  endloop
endfacet
facet normal 2.643346070908773e-28 3.086962651645264e-13 1
  outer loop
    vertex 20614.294921875 15519.6044921875 28999.97265625
    vertex 20518.044921875 15519.6044921875 28999.97265625
    vertex 20614.294921875 15484.1845703125 28999.97265625
  endloop
endfacet
facet normal 0 1 -4.745198916959736e-13
  outer loop
    vertex 20518.044921875 15519.6044921875 28999.97265625
    vertex 20769.134765625 15519.6044921875 28818.693359375
    vertex 20518.044921875 15519.6044921875 28818.693359375
  endloop
endfacet
facet normal 0 1 -4.745198916959736e-13
  outer loop
    vertex 20769.134765625 15519.6044921875 28818.693359375
    vertex 20518.044921875 15519.6044921875 28999.97265625
    vertex 20769.134765625 15519.6044921875 28999.97265625
  endloop
endfacet
facet normal -1 0 1.595378301633804e-41
  outer loop
    vertex 20518.044921875 14234.423828125 28999.97265625
    vertex 20518.044921875 15519.6044921875 28818.693359375
    vertex 20518.044921875 14234.423828125 28818.693359375
  endloop
endfacet
facet normal -1 0 1.595378301633804e-41
  outer loop
    vertex 20518.044921875 15519.6044921875 28818.693359375
    vertex 20518.044921875 14234.423828125 28999.97265625
    vertex 20518.044921875 15519.6044921875 28999.97265625
  endloop
endfacet
facet normal -2.361858809658141e-13 3.041058344813857e-13 -1
  outer loop
    vertex 20646.439453125 15519.6044921875 28999.97265625
    vertex 20614.294921875 15484.1845703125 28999.97265625
    vertex 20614.294921875 15519.6044921875 28999.97265625
  endloop
endfacet
facet normal -2.361858809658141e-13 3.041058344813857e-13 -1
  outer loop
    vertex 20614.294921875 15484.1845703125 28999.97265625
    vertex 20646.439453125 15519.6044921875 28999.97265625
    vertex 20646.439453125 15484.1845703125 28999.97265625
  endloop
endfacet
facet normal -7.800413655658419e-15 1 -1.603308516495965e-14
  outer loop
    vertex 20614.294921875 15519.6044921875 28999.97265625
    vertex 20646.439453125 15519.6044921875 29929.498046875
    vertex 20646.439453125 15519.6044921875 28999.97265625
  endloop
endfacet
facet normal -7.800413655658419e-15 1 -1.603308516495965e-14
  outer loop
    vertex 20646.439453125 15519.6044921875 29929.498046875
    vertex 20614.294921875 15519.6044921875 28999.97265625
    vertex 20614.294921875 15519.6044921875 29955.44140625
  endloop
endfacet
facet normal -7.800413655658419e-15 1 -1.603308516495965e-14
  outer loop
    vertex 20646.439453125 15519.6044921875 29929.498046875
    vertex 20614.294921875 15519.6044921875 29955.44140625
    vertex 20672.8828125 15519.6044921875 29948.587890625
  endloop
endfacet
facet normal -7.800413655658419e-15 1 -1.603308516495965e-14
  outer loop
    vertex 20672.8828125 15519.6044921875 29948.587890625
    vertex 20614.294921875 15519.6044921875 29955.44140625
    vertex 23078.076171875 15519.6044921875 31685.052734375
  endloop
endfacet
facet normal -7.800413655658419e-15 1 -1.603308516495965e-14
  outer loop
    vertex 23078.076171875 15519.6044921875 31685.052734375
    vertex 20614.294921875 15519.6044921875 29955.44140625
    vertex 23078.076171875 15519.6044921875 31734.205078125
  endloop
endfacet
facet normal -0.3001967370510101 -6.157609242205583e-16 0.953877329826355
  outer loop
    vertex 23091.9140625 15484.1845703125 31744.1953125
    vertex 20614.294921875 15519.6044921875 29955.44140625
    vertex 20614.294921875 15484.1845703125 29955.44140625
  endloop
endfacet
facet normal -0.3001967370510101 -6.157609242205583e-16 0.953877329826355
  outer loop
    vertex 20614.294921875 15519.6044921875 29955.44140625
    vertex 23091.9140625 15484.1845703125 31744.1953125
    vertex 23078.076171875 15519.6044921875 31734.205078125
  endloop
endfacet
facet normal -0.3001967370510101 -6.157609242205583e-16 0.953877329826355
  outer loop
    vertex 23078.076171875 15519.6044921875 31734.205078125
    vertex 23091.9140625 15484.1845703125 31744.1953125
    vertex 23078.076171875 15823.205078125 31734.205078125
  endloop
endfacet
facet normal -0.3001967370510101 -6.157609242205583e-16 0.953877329826355
  outer loop
    vertex 23078.076171875 15823.205078125 31734.205078125
    vertex 23091.9140625 15484.1845703125 31744.1953125
    vertex 23091.9140625 15823.205078125 31744.1953125
  endloop
endfacet
facet normal -1 0 0
  outer loop
    vertex 20614.294921875 15484.1845703125 29955.44140625
    vertex 20614.294921875 15519.6044921875 28999.97265625
    vertex 20614.294921875 15484.1845703125 28999.97265625
  endloop
endfacet
facet normal -1 0 0
  outer loop
    vertex 20614.294921875 15519.6044921875 28999.97265625
    vertex 20614.294921875 15484.1845703125 29955.44140625
    vertex 20614.294921875 15519.6044921875 29955.44140625
  endloop
endfacet
facet normal 0.3001967370510101 -5.884074033812555e-15 -0.953877329826355
  outer loop
    vertex 20672.8828125 15519.6044921875 29948.587890625
    vertex 20646.439453125 15484.1845703125 29929.498046875
    vertex 20646.439453125 15519.6044921875 29929.498046875
  endloop
endfacet
facet normal 0.3001967370510101 -5.884074033812555e-15 -0.953877329826355
  outer loop
    vertex 20646.439453125 15484.1845703125 29929.498046875
    vertex 20672.8828125 15519.6044921875 29948.587890625
    vertex 20672.8828125 15484.1845703125 29948.587890625
  endloop
endfacet
facet normal 1 0 0
  outer loop
    vertex 20646.439453125 15519.6044921875 28999.97265625
    vertex 20646.439453125 15484.1845703125 29929.498046875
    vertex 20646.439453125 15484.1845703125 28999.97265625
  endloop
endfacet
facet normal 1 0 0
  outer loop
    vertex 20646.439453125 15484.1845703125 29929.498046875
    vertex 20646.439453125 15519.6044921875 28999.97265625
    vertex 20646.439453125 15519.6044921875 29929.498046875
  endloop
endfacet
facet normal 7.985522541885479e-15 -1 1.421282660790321e-14
  outer loop
    vertex 20646.439453125 15484.1845703125 29929.498046875
    vertex 20614.294921875 15484.1845703125 28999.97265625
    vertex 20646.439453125 15484.1845703125 28999.97265625
  endloop
endfacet
facet normal 7.985522541885479e-15 -1 1.421282660790321e-14
  outer loop
    vertex 20614.294921875 15484.1845703125 28999.97265625
    vertex 20646.439453125 15484.1845703125 29929.498046875
    vertex 20614.294921875 15484.1845703125 29955.44140625
  endloop
endfacet
facet normal 7.985522541885479e-15 -1 1.421282660790321e-14
  outer loop
    vertex 20614.294921875 15484.1845703125 29955.44140625
    vertex 20646.439453125 15484.1845703125 29929.498046875
    vertex 20672.8828125 15484.1845703125 29948.587890625
  endloop
endfacet
facet normal 7.985522541885479e-15 -1 1.421282660790321e-14
  outer loop
    vertex 20614.294921875 15484.1845703125 29955.44140625
    vertex 20672.8828125 15484.1845703125 29948.587890625
    vertex 23104.51953125 15484.1845703125 31704.14453125
  endloop
endfacet
facet normal 7.985522541885479e-15 -1 1.421282660790321e-14
  outer loop
    vertex 20614.294921875 15484.1845703125 29955.44140625
    vertex 23104.51953125 15484.1845703125 31704.14453125
    vertex 23091.9140625 15484.1845703125 31744.1953125
  endloop
endfacet
facet normal 7.985522541885479e-15 -1 1.421282660790321e-14
  outer loop
    vertex 23091.9140625 15484.1845703125 31744.1953125
    vertex 23104.51953125 15484.1845703125 31704.14453125
    vertex 23104.51953125 15484.1845703125 31753.294921875
  endloop
endfacet
facet normal -0.3001967370510101 7.23533806465337e-18 0.953877329826355
  outer loop
    vertex 23104.51953125 15484.1845703125 31753.294921875
    vertex 23091.9140625 15823.205078125 31744.1953125
    vertex 23091.9140625 15484.1845703125 31744.1953125
  endloop
endfacet
facet normal -0.3001967370510101 7.23533806465337e-18 0.953877329826355
  outer loop
    vertex 23091.9140625 15823.205078125 31744.1953125
    vertex 23104.51953125 15484.1845703125 31753.294921875
    vertex 23104.51953125 15823.205078125 31753.294921875
  endloop
endfacet
facet normal 1 0 0
  outer loop
    vertex 23104.51953125 15823.205078125 31704.14453125
    vertex 23104.51953125 15484.1845703125 31753.294921875
    vertex 23104.51953125 15484.1845703125 31704.14453125
  endloop
endfacet
facet normal 1 0 0
  outer loop
    vertex 23104.51953125 15484.1845703125 31753.294921875
    vertex 23104.51953125 15823.205078125 31704.14453125
    vertex 23104.51953125 15823.205078125 31753.294921875
  endloop
endfacet
facet normal 0.3001967370510101 4.179427056666413e-16 -0.953877329826355
  outer loop
    vertex 23104.51953125 15823.205078125 31704.14453125
    vertex 23078.076171875 15519.6044921875 31685.052734375
    vertex 23078.076171875 15823.205078125 31685.052734375
  endloop
endfacet
facet normal 0.3001967370510101 4.179427056666413e-16 -0.953877329826355
  outer loop
    vertex 23078.076171875 15519.6044921875 31685.052734375
    vertex 20672.8828125 15484.1845703125 29948.587890625
    vertex 20672.8828125 15519.6044921875 29948.587890625
  endloop
endfacet
facet normal 0.3001967370510101 4.179427056666413e-16 -0.953877329826355
  outer loop
    vertex 20672.8828125 15484.1845703125 29948.587890625
    vertex 23078.076171875 15519.6044921875 31685.052734375
    vertex 23104.51953125 15484.1845703125 31704.14453125
  endloop
endfacet
facet normal 0.3001967370510101 4.179427056666413e-16 -0.953877329826355
  outer loop
    vertex 23104.51953125 15484.1845703125 31704.14453125
    vertex 23078.076171875 15519.6044921875 31685.052734375
    vertex 23104.51953125 15823.205078125 31704.14453125
  endloop
endfacet
facet normal 0 1 0
  outer loop
    vertex 23078.076171875 15823.205078125 31734.205078125
    vertex 23104.51953125 15823.205078125 31704.14453125
    vertex 23078.076171875 15823.205078125 31685.052734375
  endloop
endfacet
facet normal 0 1 0
  outer loop
    vertex 23104.51953125 15823.205078125 31704.14453125
    vertex 23078.076171875 15823.205078125 31734.205078125
    vertex 23104.51953125 15823.205078125 31753.294921875
  endloop
endfacet
facet normal 0 1 0
  outer loop
    vertex 23104.51953125 15823.205078125 31753.294921875
    vertex 23078.076171875 15823.205078125 31734.205078125
    vertex 23091.9140625 15823.205078125 31744.1953125
  endloop
endfacet
facet normal -1 0 0
  outer loop
    vertex 23078.076171875 15823.205078125 31734.205078125
    vertex 23078.076171875 15519.6044921875 31685.052734375
    vertex 23078.076171875 15519.6044921875 31734.205078125
  endloop
endfacet
facet normal -1 0 0
  outer loop
    vertex 23078.076171875 15519.6044921875 31685.052734375
    vertex 23078.076171875 15823.205078125 31734.205078125
    vertex 23078.076171875 15823.205078125 31685.052734375
  endloop
endfacet
facet normal 2.361858809658141e-13 -3.041058344813857e-13 -1
  outer loop
    vertex 23072.375 15787.78515625 30819.08984375
    vertex 23104.51953125 15823.205078125 30819.08984375
    vertex 23104.51953125 15787.78515625 30819.08984375
  endloop
endfacet
facet normal 2.361858809658141e-13 -3.041058344813857e-13 -1
  outer loop
    vertex 23104.51953125 15823.205078125 30819.08984375
    vertex 23072.375 15787.78515625 30819.08984375
    vertex 23072.375 15823.205078125 30819.08984375
  endloop
endfacet
facet normal -2.919863244417453e-13 -1 -1.603308516495965e-14
  outer loop
    vertex 23104.51953125 15787.78515625 30819.08984375
    vertex 23072.375 15787.78515625 31727.3515625
    vertex 23072.375 15787.78515625 30819.08984375
  endloop
endfacet
facet normal -2.919863244417453e-13 -1 -1.603308516495965e-14
  outer loop
    vertex 23072.375 15787.78515625 31727.3515625
    vertex 23104.51953125 15787.78515625 30819.08984375
    vertex 23104.51953125 15787.78515625 31753.294921875
  endloop
endfacet
facet normal -2.919863244417453e-13 -1 -1.603308516495965e-14
  outer loop
    vertex 23072.375 15787.78515625 31727.3515625
    vertex 23104.51953125 15787.78515625 31753.294921875
    vertex 23045.931640625 15787.78515625 31746.44140625
  endloop
endfacet
facet normal -2.919863244417453e-13 -1 -1.603308516495965e-14
  outer loop
    vertex 23045.931640625 15787.78515625 31746.44140625
    vertex 23104.51953125 15787.78515625 31753.294921875
    vertex 20640.73828125 15787.78515625 33482.90625
  endloop
endfacet
facet normal -2.919863244417453e-13 -1 -1.603308516495965e-14
  outer loop
    vertex 20640.73828125 15787.78515625 33482.90625
    vertex 23104.51953125 15787.78515625 31753.294921875
    vertex 20640.73828125 15787.78515625 33532.05859375
  endloop
endfacet
facet normal 0.3001967370510101 -1.309563351856169e-13 0.953877329826355
  outer loop
    vertex 20626.900390625 15823.205078125 33542.05078125
    vertex 23104.51953125 15787.78515625 31753.294921875
    vertex 23104.51953125 15823.205078125 31753.294921875
  endloop
endfacet
facet normal 0.3001967370510101 -1.309563351856169e-13 0.953877329826355
  outer loop
    vertex 23104.51953125 15787.78515625 31753.294921875
    vertex 20626.900390625 15823.205078125 33542.05078125
    vertex 20640.73828125 15787.78515625 33532.05859375
  endloop
endfacet
facet normal 0.3001967370510101 -1.309563351856169e-13 0.953877329826355
  outer loop
    vertex 20640.73828125 15787.78515625 33532.05859375
    vertex 20626.900390625 15823.205078125 33542.05078125
    vertex 20640.73828125 15484.1845703125 33532.05859375
  endloop
endfacet
facet normal 0.3001967370510101 -1.309563351856169e-13 0.953877329826355
  outer loop
    vertex 20640.73828125 15484.1845703125 33532.05859375
    vertex 20626.900390625 15823.205078125 33542.05078125
    vertex 20626.900390625 15484.1845703125 33542.05078125
  endloop
endfacet
facet normal 1 -4.382862074572141e-13 0
  outer loop
    vertex 23104.51953125 15823.205078125 31753.294921875
    vertex 23104.51953125 15787.78515625 30819.08984375
    vertex 23104.51953125 15823.205078125 30819.08984375
  endloop
endfacet
facet normal 1 -4.382862074572141e-13 0
  outer loop
    vertex 23104.51953125 15787.78515625 30819.08984375
    vertex 23104.51953125 15823.205078125 31753.294921875
    vertex 23104.51953125 15787.78515625 31753.294921875
  endloop
endfacet
facet normal -0.3001967370510101 1.37456167867249e-13 -0.953877329826355
  outer loop
    vertex 23045.931640625 15787.78515625 31746.44140625
    vertex 23072.375 15823.205078125 31727.3515625
    vertex 23072.375 15787.78515625 31727.3515625
  endloop
endfacet
facet normal -0.3001967370510101 1.37456167867249e-13 -0.953877329826355
  outer loop
    vertex 23072.375 15823.205078125 31727.3515625
    vertex 23045.931640625 15787.78515625 31746.44140625
    vertex 23045.931640625 15823.205078125 31746.44140625
  endloop
endfacet
facet normal -1 4.382862074572141e-13 0
  outer loop
    vertex 23072.375 15787.78515625 30819.08984375
    vertex 23072.375 15823.205078125 31727.3515625
    vertex 23072.375 15823.205078125 30819.08984375
  endloop
endfacet
facet normal -1 4.382862074572141e-13 0
  outer loop
    vertex 23072.375 15823.205078125 31727.3515625
    vertex 23072.375 15787.78515625 30819.08984375
    vertex 23072.375 15787.78515625 31727.3515625
  endloop
endfacet
facet normal 2.918011969207934e-13 1 1.421282660790321e-14
  outer loop
    vertex 23072.375 15823.205078125 31727.3515625
    vertex 23104.51953125 15823.205078125 30819.08984375
    vertex 23072.375 15823.205078125 30819.08984375
  endloop
endfacet
facet normal 2.918011969207934e-13 1 1.421282660790321e-14
  outer loop
    vertex 23104.51953125 15823.205078125 30819.08984375
    vertex 23072.375 15823.205078125 31727.3515625
    vertex 23104.51953125 15823.205078125 31753.294921875
  endloop
endfacet
facet normal 2.918011969207934e-13 1 1.421282660790321e-14
  outer loop
    vertex 23104.51953125 15823.205078125 31753.294921875
    vertex 23072.375 15823.205078125 31727.3515625
    vertex 23045.931640625 15823.205078125 31746.44140625
  endloop
endfacet
facet normal 2.918011969207934e-13 1 1.421282660790321e-14
  outer loop
    vertex 23104.51953125 15823.205078125 31753.294921875
    vertex 23045.931640625 15823.205078125 31746.44140625
    vertex 20614.294921875 15823.205078125 33501.99609375
  endloop
endfacet
facet normal 2.918011969207934e-13 1 1.421282660790321e-14
  outer loop
    vertex 23104.51953125 15823.205078125 31753.294921875
    vertex 20614.294921875 15823.205078125 33501.99609375
    vertex 20626.900390625 15823.205078125 33542.05078125
  endloop
endfacet
facet normal 2.918011969207934e-13 1 1.421282660790321e-14
  outer loop
    vertex 20626.900390625 15823.205078125 33542.05078125
    vertex 20614.294921875 15823.205078125 33501.99609375
    vertex 20614.294921875 15823.205078125 33551.1484375
  endloop
endfacet
facet normal 0.3001967370510101 -1.315793313064542e-13 0.953877329826355
  outer loop
    vertex 20614.294921875 15823.205078125 33551.1484375
    vertex 20626.900390625 15484.1845703125 33542.05078125
    vertex 20626.900390625 15823.205078125 33542.05078125
  endloop
endfacet
facet normal 0.3001967370510101 -1.315793313064542e-13 0.953877329826355
  outer loop
    vertex 20626.900390625 15484.1845703125 33542.05078125
    vertex 20614.294921875 15823.205078125 33551.1484375
    vertex 20614.294921875 15484.1845703125 33551.1484375
  endloop
endfacet
facet normal -1 4.382862074572141e-13 0
  outer loop
    vertex 20614.294921875 15484.1845703125 33501.99609375
    vertex 20614.294921875 15823.205078125 33551.1484375
    vertex 20614.294921875 15823.205078125 33501.99609375
  endloop
endfacet
facet normal -1 4.382862074572141e-13 0
  outer loop
    vertex 20614.294921875 15823.205078125 33551.1484375
    vertex 20614.294921875 15484.1845703125 33501.99609375
    vertex 20614.294921875 15484.1845703125 33551.1484375
  endloop
endfacet
facet normal -0.3001967370510101 1.311541478719869e-13 -0.953877329826355
  outer loop
    vertex 20614.294921875 15484.1845703125 33501.99609375
    vertex 20640.73828125 15787.78515625 33482.90625
    vertex 20640.73828125 15484.1845703125 33482.90625
  endloop
endfacet
facet normal -0.3001967370510101 1.311541478719869e-13 -0.953877329826355
  outer loop
    vertex 20640.73828125 15787.78515625 33482.90625
    vertex 20614.294921875 15484.1845703125 33501.99609375
    vertex 20614.294921875 15823.205078125 33501.99609375
  endloop
endfacet
facet normal -0.3001967370510101 1.311541478719869e-13 -0.953877329826355
  outer loop
    vertex 20640.73828125 15787.78515625 33482.90625
    vertex 23045.931640625 15823.205078125 31746.44140625
    vertex 23045.931640625 15787.78515625 31746.44140625
  endloop
endfacet
facet normal -0.3001967370510101 1.311541478719869e-13 -0.953877329826355
  outer loop
    vertex 23045.931640625 15823.205078125 31746.44140625
    vertex 20640.73828125 15787.78515625 33482.90625
    vertex 20614.294921875 15823.205078125 33501.99609375
  endloop
endfacet
facet normal -2.997867253919095e-13 -1 0
  outer loop
    vertex 20640.73828125 15484.1845703125 33532.05859375
    vertex 20614.294921875 15484.1845703125 33501.99609375
    vertex 20640.73828125 15484.1845703125 33482.90625
  endloop
endfacet
facet normal -2.997867253919095e-13 -1 0
  outer loop
    vertex 20614.294921875 15484.1845703125 33501.99609375
    vertex 20640.73828125 15484.1845703125 33532.05859375
    vertex 20626.900390625 15484.1845703125 33542.05078125
  endloop
endfacet
facet normal -2.997867253919095e-13 -1 0
  outer loop
    vertex 20614.294921875 15484.1845703125 33501.99609375
    vertex 20626.900390625 15484.1845703125 33542.05078125
    vertex 20614.294921875 15484.1845703125 33551.1484375
  endloop
endfacet
facet normal 1 -4.382862074572141e-13 0
  outer loop
    vertex 20640.73828125 15484.1845703125 33532.05859375
    vertex 20640.73828125 15787.78515625 33482.90625
    vertex 20640.73828125 15787.78515625 33532.05859375
  endloop
endfacet
facet normal 1 -4.382862074572141e-13 0
  outer loop
    vertex 20640.73828125 15787.78515625 33482.90625
    vertex 20640.73828125 15484.1845703125 33532.05859375
    vertex 20640.73828125 15484.1845703125 33482.90625
  endloop
endfacet
facet normal 1 -3.990327491175394e-13 1.780465118601023e-14
  outer loop
    vertex 23104.51953125 15519.6044921875 31753.294921875
    vertex 23104.51953125 15484.1845703125 30819.08984375
    vertex 23104.51953125 15519.6044921875 30819.08984375
  endloop
endfacet
facet normal 1 -3.990327491175394e-13 1.780465118601023e-14
  outer loop
    vertex 23104.51953125 15484.1845703125 30819.08984375
    vertex 23104.51953125 15519.6044921875 31753.294921875
    vertex 23104.51953125 15484.1845703125 31753.294921875
  endloop
endfacet
facet normal -1 2.992745753906817e-13 -2.450350272892917e-14
  outer loop
    vertex 23064.17578125 15484.1845703125 30819.08984375
    vertex 23064.17578125 15519.6044921875 31724.169921875
    vertex 23064.17578125 15519.6044921875 30819.08984375
  endloop
endfacet
facet normal -1 2.992745753906817e-13 -2.450350272892917e-14
  outer loop
    vertex 23064.17578125 15519.6044921875 31724.169921875
    vertex 23064.17578125 15484.1845703125 30819.08984375
    vertex 23064.17578125 15484.1845703125 31724.169921875
  endloop
endfacet
facet normal -1.919327733855211e-13 -1 -3.972110861798564e-14
  outer loop
    vertex 23104.51953125 15484.1845703125 30819.08984375
    vertex 23064.17578125 15484.1845703125 31724.169921875
    vertex 23064.17578125 15484.1845703125 30819.08984375
  endloop
endfacet
facet normal -1.919327733855211e-13 -1 -3.972110861798564e-14
  outer loop
    vertex 23064.17578125 15484.1845703125 31724.169921875
    vertex 23104.51953125 15484.1845703125 30819.08984375
    vertex 23104.51953125 15484.1845703125 31753.294921875
  endloop
endfacet
facet normal 7.761234993716119e-15 -6.257067346887579e-13 -1
  outer loop
    vertex 23064.17578125 15484.1845703125 30819.08984375
    vertex 23104.51953125 15519.6044921875 30819.08984375
    vertex 23104.51953125 15484.1845703125 30819.08984375
  endloop
endfacet
facet normal 7.761234993716119e-15 -6.257067346887579e-13 -1
  outer loop
    vertex 23104.51953125 15519.6044921875 30819.08984375
    vertex 23064.17578125 15484.1845703125 30819.08984375
    vertex 23064.17578125 15519.6044921875 30819.08984375
  endloop
endfacet
facet normal 2.225572428172368e-13 1 3.639090710629705e-14
  outer loop
    vertex 23064.17578125 15519.6044921875 31724.169921875
    vertex 23104.51953125 15519.6044921875 30819.08984375
    vertex 23064.17578125 15519.6044921875 30819.08984375
  endloop
endfacet
facet normal 2.225572428172368e-13 1 3.639090710629705e-14
  outer loop
    vertex 23104.51953125 15519.6044921875 30819.08984375
    vertex 23064.17578125 15519.6044921875 31724.169921875
    vertex 23104.51953125 15519.6044921875 31753.294921875
  endloop
endfacet
facet normal -0.3001967370510101 2.822771855669204e-13 0.953877329826355
  outer loop
    vertex 23064.17578125 15519.6044921875 31724.169921875
    vertex 23104.51953125 15484.1845703125 31753.294921875
    vertex 23104.51953125 15519.6044921875 31753.294921875
  endloop
endfacet
facet normal -0.3001967370510101 2.822771855669204e-13 0.953877329826355
  outer loop
    vertex 23104.51953125 15484.1845703125 31753.294921875
    vertex 23064.17578125 15519.6044921875 31724.169921875
    vertex 23064.17578125 15484.1845703125 31724.169921875
  endloop
endfacet
facet normal -5.034247758245458e-13 3.548367979652745e-12 -1
  outer loop
    vertex 23041.376953125 17385.5234375 30631.474609375
    vertex 23104.521484375 15764.4228515625 30631.474609375
    vertex 23041.376953125 15764.4228515625 30631.474609375
  endloop
endfacet
facet normal -5.034247758245458e-13 3.548367979652745e-12 -1
  outer loop
    vertex 23104.521484375 15764.4228515625 30631.474609375
    vertex 23041.376953125 17385.5234375 30631.474609375
    vertex 23798.296875 17385.5234375 30631.474609375
  endloop
endfacet
facet normal -5.034247758245458e-13 3.548367979652745e-12 -1
  outer loop
    vertex 23104.51953125 15504.369140625 30631.474609375
    vertex 23041.376953125 14234.56640625 30631.474609375
    vertex 23041.375 15504.365234375 30631.474609375
  endloop
endfacet
facet normal -5.034247758245458e-13 3.548367979652745e-12 -1
  outer loop
    vertex 23041.376953125 14234.56640625 30631.474609375
    vertex 23104.51953125 15504.369140625 30631.474609375
    vertex 24705.78515625 14234.56640625 30631.474609375
  endloop
endfacet
facet normal -5.034247758245458e-13 3.548367979652745e-12 -1
  outer loop
    vertex 24705.78515625 14234.56640625 30631.474609375
    vertex 23104.51953125 15504.369140625 30631.474609375
    vertex 23104.521484375 15764.4228515625 30631.474609375
  endloop
endfacet
facet normal -5.034247758245458e-13 3.548367979652745e-12 -1
  outer loop
    vertex 24705.78515625 14234.56640625 30631.474609375
    vertex 23104.521484375 15764.4228515625 30631.474609375
    vertex 23798.296875 17385.5234375 30631.474609375
  endloop
endfacet
facet normal -5.034247758245458e-13 3.548367979652745e-12 -1
  outer loop
    vertex 24705.78515625 14234.56640625 30631.474609375
    vertex 23798.296875 17385.5234375 30631.474609375
    vertex 24705.78515625 17385.5234375 30631.474609375
  endloop
endfacet
facet normal 5.034247758245458e-13 -3.548367979652745e-12 1
  outer loop
    vertex 23041.376953125 14234.56640625 30819.08984375
    vertex 23104.51953125 15504.369140625 30819.08984375
    vertex 23041.375 15504.365234375 30819.08984375
  endloop
endfacet
facet normal 5.034247758245458e-13 -3.548367979652745e-12 1
  outer loop
    vertex 23104.51953125 15504.369140625 30819.08984375
    vertex 23041.376953125 14234.56640625 30819.08984375
    vertex 24705.78515625 14234.56640625 30819.08984375
  endloop
endfacet
facet normal 5.034247758245458e-13 -3.548367979652745e-12 1
  outer loop
    vertex 23104.51953125 15504.369140625 30819.08984375
    vertex 24705.78515625 14234.56640625 30819.08984375
    vertex 23104.521484375 15764.4228515625 30819.08984375
  endloop
endfacet
facet normal 5.034247758245458e-13 -3.548367979652745e-12 1
  outer loop
    vertex 23104.521484375 15764.4228515625 30819.08984375
    vertex 24705.78515625 14234.56640625 30819.08984375
    vertex 23798.296875 17385.5234375 30819.08984375
  endloop
endfacet
facet normal 5.034247758245458e-13 -3.548367979652745e-12 1
  outer loop
    vertex 23798.296875 17385.5234375 30819.08984375
    vertex 24705.78515625 14234.56640625 30819.08984375
    vertex 24705.78515625 17385.5234375 30819.08984375
  endloop
endfacet
facet normal 5.034247758245458e-13 -3.548367979652745e-12 1
  outer loop
    vertex 23104.521484375 15764.4228515625 30819.08984375
    vertex 23041.376953125 17385.5234375 30819.08984375
    vertex 23041.376953125 15764.4228515625 30819.08984375
  endloop
endfacet
facet normal 5.034247758245458e-13 -3.548367979652745e-12 1
  outer loop
    vertex 23041.376953125 17385.5234375 30819.08984375
    vertex 23104.521484375 15764.4228515625 30819.08984375
    vertex 23798.296875 17385.5234375 30819.08984375
  endloop
endfacet
facet normal 0 -1 -5.702258543821559e-12
  outer loop
    vertex 24705.78515625 14234.56640625 30819.08984375
    vertex 23041.376953125 14234.56640625 30631.474609375
    vertex 24705.78515625 14234.56640625 30631.474609375
  endloop
endfacet
facet normal 0 -1 -5.702258543821559e-12
  outer loop
    vertex 23041.376953125 14234.56640625 30631.474609375
    vertex 24705.78515625 14234.56640625 30819.08984375
    vertex 23041.376953125 14234.56640625 30819.08984375
  endloop
endfacet
facet normal -1 7.726591813419695e-25 2.032940656093718e-12
  outer loop
    vertex 23041.375 15504.365234375 30819.08984375
    vertex 23041.376953125 14234.56640625 30631.474609375
    vertex 23041.376953125 14234.56640625 30819.08984375
  endloop
endfacet
facet normal -1 7.726591813419695e-25 2.032940656093718e-12
  outer loop
    vertex 23041.376953125 14234.56640625 30631.474609375
    vertex 23041.375 15504.365234375 30819.08984375
    vertex 23041.375 15504.365234375 30631.474609375
  endloop
endfacet
facet normal -2.330918505322188e-05 1 5.702306248717148e-12
  outer loop
    vertex 23041.375 15504.365234375 30819.08984375
    vertex 23104.51953125 15504.369140625 30631.474609375
    vertex 23041.375 15504.365234375 30631.474609375
  endloop
endfacet
facet normal -2.330918505322188e-05 1 5.702306248717148e-12
  outer loop
    vertex 23104.51953125 15504.369140625 30631.474609375
    vertex 23041.375 15504.365234375 30819.08984375
    vertex 23104.51953125 15504.369140625 30819.08984375
  endloop
endfacet
facet normal -1 2.513080517019262e-06 2.032954967562395e-12
  outer loop
    vertex 23104.521484375 15764.4228515625 30819.08984375
    vertex 23104.51953125 15504.369140625 30631.474609375
    vertex 23104.51953125 15504.369140625 30819.08984375
  endloop
endfacet
facet normal -1 2.513080517019262e-06 2.032954967562395e-12
  outer loop
    vertex 23104.51953125 15504.369140625 30631.474609375
    vertex 23104.521484375 15764.4228515625 30819.08984375
    vertex 23104.521484375 15764.4228515625 30631.474609375
  endloop
endfacet
facet normal -1.41778571105533e-06 -1 -5.702255941736345e-12
  outer loop
    vertex 23104.521484375 15764.4228515625 30819.08984375
    vertex 23041.376953125 15764.4228515625 30631.474609375
    vertex 23104.521484375 15764.4228515625 30631.474609375
  endloop
endfacet
facet normal -1.41778571105533e-06 -1 -5.702255941736345e-12
  outer loop
    vertex 23041.376953125 15764.4228515625 30631.474609375
    vertex 23104.521484375 15764.4228515625 30819.08984375
    vertex 23041.376953125 15764.4228515625 30819.08984375
  endloop
endfacet
facet normal -1 -2.673679324089609e-23 2.032940656093718e-12
  outer loop
    vertex 23041.376953125 17385.5234375 30819.08984375
    vertex 23041.376953125 15764.4228515625 30631.474609375
    vertex 23041.376953125 15764.4228515625 30819.08984375
  endloop
endfacet
facet normal -1 -2.673679324089609e-23 2.032940656093718e-12
  outer loop
    vertex 23041.376953125 15764.4228515625 30631.474609375
    vertex 23041.376953125 17385.5234375 30819.08984375
    vertex 23041.376953125 17385.5234375 30631.474609375
  endloop
endfacet
facet normal 1.435803761440501e-24 1 5.702258543821559e-12
  outer loop
    vertex 23041.376953125 17385.5234375 30631.474609375
    vertex 23798.296875 17385.5234375 30819.08984375
    vertex 23798.296875 17385.5234375 30631.474609375
  endloop
endfacet
facet normal 1.435803761440501e-24 1 5.702258543821559e-12
  outer loop
    vertex 23798.296875 17385.5234375 30819.08984375
    vertex 23041.376953125 17385.5234375 30631.474609375
    vertex 23041.376953125 17385.5234375 30819.08984375
  endloop
endfacet
facet normal 1.821620789323533e-13 1 5.702258543821559e-12
  outer loop
    vertex 23798.296875 17385.5234375 30631.474609375
    vertex 24705.78515625 17385.5234375 30819.08984375
    vertex 24705.78515625 17385.5234375 30631.474609375
  endloop
endfacet
facet normal 1.821620789323533e-13 1 5.702258543821559e-12
  outer loop
    vertex 24705.78515625 17385.5234375 30819.08984375
    vertex 23798.296875 17385.5234375 30631.474609375
    vertex 23798.296875 17385.5234375 30819.08984375
  endloop
endfacet
facet normal 1 -1.778188734495936e-13 -2.032940656093718e-12
  outer loop
    vertex 24705.78515625 14234.56640625 30631.474609375
    vertex 24705.78515625 17385.5234375 30819.08984375
    vertex 24705.78515625 14234.56640625 30819.08984375
  endloop
endfacet
facet normal 1 -1.778188734495936e-13 -2.032940656093718e-12
  outer loop
    vertex 24705.78515625 17385.5234375 30819.08984375
    vertex 24705.78515625 14234.56640625 30631.474609375
    vertex 24705.78515625 17385.5234375 30631.474609375
  endloop
endfacet
facet normal -6.988275441587863e-42 -2.988248212244804e-13 -1
  outer loop
    vertex 21022.712890625 17385.5234375 32269.314453125
    vertex 20770.37890625 16115.5810546875 32269.314453125
    vertex 20770.37890625 17385.5234375 32269.314453125
  endloop
endfacet
facet normal -6.988275441587863e-42 -2.988248212244804e-13 -1
  outer loop
    vertex 20770.37890625 16115.5810546875 32269.314453125
    vertex 21022.712890625 17385.5234375 32269.314453125
    vertex 21022.712890625 16115.5810546875 32269.314453125
  endloop
endfacet
facet normal 6.988275441587863e-42 2.988248212244804e-13 1
  outer loop
    vertex 21022.712890625 16115.5810546875 32450.59375
    vertex 20770.37890625 17385.5234375 32450.59375
    vertex 20770.37890625 16115.5810546875 32450.59375
  endloop
endfacet
facet normal 6.988275441587863e-42 2.988248212244804e-13 1
  outer loop
    vertex 20770.37890625 17385.5234375 32450.59375
    vertex 21022.712890625 16115.5810546875 32450.59375
    vertex 21022.712890625 17385.5234375 32450.59375
  endloop
endfacet
facet normal 1 -0 -1.587531030233585e-41
  outer loop
    vertex 21022.712890625 17385.5234375 32269.314453125
    vertex 21022.712890625 16115.5810546875 32450.59375
    vertex 21022.712890625 16115.5810546875 32269.314453125
  endloop
endfacet
facet normal 1 -0 -1.587531030233585e-41
  outer loop
    vertex 21022.712890625 16115.5810546875 32450.59375
    vertex 21022.712890625 17385.5234375 32269.314453125
    vertex 21022.712890625 17385.5234375 32450.59375
  endloop
endfacet
facet normal 0 -1 4.802141215058675e-13
  outer loop
    vertex 21022.712890625 16115.5810546875 32450.59375
    vertex 20770.37890625 16115.5810546875 32269.314453125
    vertex 21022.712890625 16115.5810546875 32269.314453125
  endloop
endfacet
facet normal 0 -1 4.802141215058675e-13
  outer loop
    vertex 20770.37890625 16115.5810546875 32269.314453125
    vertex 21022.712890625 16115.5810546875 32450.59375
    vertex 20770.37890625 16115.5810546875 32450.59375
  endloop
endfacet
facet normal -1 0 1.587531030233585e-41
  outer loop
    vertex 20770.37890625 16115.5810546875 32450.59375
    vertex 20770.37890625 17385.5234375 32269.314453125
    vertex 20770.37890625 16115.5810546875 32269.314453125
  endloop
endfacet
facet normal -1 0 1.587531030233585e-41
  outer loop
    vertex 20770.37890625 17385.5234375 32269.314453125
    vertex 20770.37890625 16115.5810546875 32450.59375
    vertex 20770.37890625 17385.5234375 32450.59375
  endloop
endfacet
facet normal 0 1 -4.802141215058675e-13
  outer loop
    vertex 20770.37890625 17385.5234375 32450.59375
    vertex 21022.712890625 17385.5234375 32269.314453125
    vertex 20770.37890625 17385.5234375 32269.314453125
  endloop
endfacet
facet normal 0 1 -4.802141215058675e-13
  outer loop
    vertex 21022.712890625 17385.5234375 32269.314453125
    vertex 20770.37890625 17385.5234375 32450.59375
    vertex 21022.712890625 17385.5234375 32450.59375
  endloop
endfacet
facet normal -6.988275441587863e-42 -2.988248212244804e-13 -1
  outer loop
    vertex 22032.044921875 17385.5234375 31544.203125
    vertex 21779.7109375 16115.5810546875 31544.203125
    vertex 21779.7109375 17385.5234375 31544.203125
  endloop
endfacet
facet normal -6.988275441587863e-42 -2.988248212244804e-13 -1
  outer loop
    vertex 21779.7109375 16115.5810546875 31544.203125
    vertex 22032.044921875 17385.5234375 31544.203125
    vertex 22032.044921875 16115.5810546875 31544.203125
  endloop
endfacet
facet normal 6.988275441587863e-42 2.988248212244804e-13 1
  outer loop
    vertex 22032.044921875 16115.5810546875 31725.48046875
    vertex 21779.7109375 17385.5234375 31725.48046875
    vertex 21779.7109375 16115.5810546875 31725.48046875
  endloop
endfacet
facet normal 6.988275441587863e-42 2.988248212244804e-13 1
  outer loop
    vertex 21779.7109375 17385.5234375 31725.48046875
    vertex 22032.044921875 16115.5810546875 31725.48046875
    vertex 22032.044921875 17385.5234375 31725.48046875
  endloop
endfacet
facet normal 1 -0 -1.587531030233585e-41
  outer loop
    vertex 22032.044921875 17385.5234375 31544.203125
    vertex 22032.044921875 16115.5810546875 31725.48046875
    vertex 22032.044921875 16115.5810546875 31544.203125
  endloop
endfacet
facet normal 1 -0 -1.587531030233585e-41
  outer loop
    vertex 22032.044921875 16115.5810546875 31725.48046875
    vertex 22032.044921875 17385.5234375 31544.203125
    vertex 22032.044921875 17385.5234375 31725.48046875
  endloop
endfacet
facet normal 0 -1 4.802141215058675e-13
  outer loop
    vertex 22032.044921875 16115.5810546875 31725.48046875
    vertex 21779.7109375 16115.5810546875 31544.203125
    vertex 22032.044921875 16115.5810546875 31544.203125
  endloop
endfacet
facet normal 0 -1 4.802141215058675e-13
  outer loop
    vertex 21779.7109375 16115.5810546875 31544.203125
    vertex 22032.044921875 16115.5810546875 31725.48046875
    vertex 21779.7109375 16115.5810546875 31725.48046875
  endloop
endfacet
facet normal -1 0 1.587531030233585e-41
  outer loop
    vertex 21779.7109375 16115.5810546875 31725.48046875
    vertex 21779.7109375 17385.5234375 31544.203125
    vertex 21779.7109375 16115.5810546875 31544.203125
  endloop
endfacet
facet normal -1 0 1.587531030233585e-41
  outer loop
    vertex 21779.7109375 17385.5234375 31544.203125
    vertex 21779.7109375 16115.5810546875 31725.48046875
    vertex 21779.7109375 17385.5234375 31725.48046875
  endloop
endfacet
facet normal 0 1 -4.802141215058675e-13
  outer loop
    vertex 21779.7109375 17385.5234375 31725.48046875
    vertex 22032.044921875 17385.5234375 31544.203125
    vertex 21779.7109375 17385.5234375 31544.203125
  endloop
endfacet
facet normal 0 1 -4.802141215058675e-13
  outer loop
    vertex 22032.044921875 17385.5234375 31544.203125
    vertex 21779.7109375 17385.5234375 31725.48046875
    vertex 22032.044921875 17385.5234375 31725.48046875
  endloop
endfacet
facet normal -6.988275441587863e-42 -2.988248212244804e-13 -1
  outer loop
    vertex 21527.37890625 17385.5234375 31906.759765625
    vertex 21275.044921875 16115.5810546875 31906.759765625
    vertex 21275.044921875 17385.5234375 31906.759765625
  endloop
endfacet
facet normal -6.988275441587863e-42 -2.988248212244804e-13 -1
  outer loop
    vertex 21275.044921875 16115.5810546875 31906.759765625
    vertex 21527.37890625 17385.5234375 31906.759765625
    vertex 21527.37890625 16115.5810546875 31906.759765625
  endloop
endfacet
facet normal 6.988275441587863e-42 2.988248212244804e-13 1
  outer loop
    vertex 21527.37890625 16115.5810546875 32088.037109375
    vertex 21275.044921875 17385.5234375 32088.037109375
    vertex 21275.044921875 16115.5810546875 32088.037109375
  endloop
endfacet
facet normal 6.988275441587863e-42 2.988248212244804e-13 1
  outer loop
    vertex 21275.044921875 17385.5234375 32088.037109375
    vertex 21527.37890625 16115.5810546875 32088.037109375
    vertex 21527.37890625 17385.5234375 32088.037109375
  endloop
endfacet
facet normal 1 -0 -1.587531030233585e-41
  outer loop
    vertex 21527.37890625 17385.5234375 31906.759765625
    vertex 21527.37890625 16115.5810546875 32088.037109375
    vertex 21527.37890625 16115.5810546875 31906.759765625
  endloop
endfacet
facet normal 1 -0 -1.587531030233585e-41
  outer loop
    vertex 21527.37890625 16115.5810546875 32088.037109375
    vertex 21527.37890625 17385.5234375 31906.759765625
    vertex 21527.37890625 17385.5234375 32088.037109375
  endloop
endfacet
facet normal 0 -1 4.802141215058675e-13
  outer loop
    vertex 21527.37890625 16115.5810546875 32088.037109375
    vertex 21275.044921875 16115.5810546875 31906.759765625
    vertex 21527.37890625 16115.5810546875 31906.759765625
  endloop
endfacet
facet normal 0 -1 4.802141215058675e-13
  outer loop
    vertex 21275.044921875 16115.5810546875 31906.759765625
    vertex 21527.37890625 16115.5810546875 32088.037109375
    vertex 21275.044921875 16115.5810546875 32088.037109375
  endloop
endfacet
facet normal -1 0 1.587531030233585e-41
  outer loop
    vertex 21275.044921875 16115.5810546875 32088.037109375
    vertex 21275.044921875 17385.5234375 31906.759765625
    vertex 21275.044921875 16115.5810546875 31906.759765625
  endloop
endfacet
facet normal -1 0 1.587531030233585e-41
  outer loop
    vertex 21275.044921875 17385.5234375 31906.759765625
    vertex 21275.044921875 16115.5810546875 32088.037109375
    vertex 21275.044921875 17385.5234375 32088.037109375
  endloop
endfacet
facet normal 0 1 -4.802141215058675e-13
  outer loop
    vertex 21275.044921875 17385.5234375 32088.037109375
    vertex 21527.37890625 17385.5234375 31906.759765625
    vertex 21275.044921875 17385.5234375 31906.759765625
  endloop
endfacet
facet normal 0 1 -4.802141215058675e-13
  outer loop
    vertex 21527.37890625 17385.5234375 31906.759765625
    vertex 21275.044921875 17385.5234375 32088.037109375
    vertex 21527.37890625 17385.5234375 32088.037109375
  endloop
endfacet
facet normal -6.988275441587863e-42 -2.988248212244804e-13 -1
  outer loop
    vertex 21275.044921875 17385.5234375 32088.037109375
    vertex 21022.712890625 16115.5810546875 32088.037109375
    vertex 21022.712890625 17385.5234375 32088.037109375
  endloop
endfacet
facet normal -6.988275441587863e-42 -2.988248212244804e-13 -1
  outer loop
    vertex 21022.712890625 16115.5810546875 32088.037109375
    vertex 21275.044921875 17385.5234375 32088.037109375
    vertex 21275.044921875 16115.5810546875 32088.037109375
  endloop
endfacet
facet normal 6.988275441587863e-42 2.988248212244804e-13 1
  outer loop
    vertex 21275.044921875 16115.5810546875 32269.314453125
    vertex 21022.712890625 17385.5234375 32269.314453125
    vertex 21022.712890625 16115.5810546875 32269.314453125
  endloop
endfacet
facet normal 6.988275441587863e-42 2.988248212244804e-13 1
  outer loop
    vertex 21022.712890625 17385.5234375 32269.314453125
    vertex 21275.044921875 16115.5810546875 32269.314453125
    vertex 21275.044921875 17385.5234375 32269.314453125
  endloop
endfacet
facet normal 1 -0 -1.587531030233585e-41
  outer loop
    vertex 21275.044921875 17385.5234375 32088.037109375
    vertex 21275.044921875 16115.5810546875 32269.314453125
    vertex 21275.044921875 16115.5810546875 32088.037109375
  endloop
endfacet
facet normal 1 -0 -1.587531030233585e-41
  outer loop
    vertex 21275.044921875 16115.5810546875 32269.314453125
    vertex 21275.044921875 17385.5234375 32088.037109375
    vertex 21275.044921875 17385.5234375 32269.314453125
  endloop
endfacet
facet normal 0 -1 4.802141215058675e-13
  outer loop
    vertex 21275.044921875 16115.5810546875 32269.314453125
    vertex 21022.712890625 16115.5810546875 32088.037109375
    vertex 21275.044921875 16115.5810546875 32088.037109375
  endloop
endfacet
facet normal 0 -1 4.802141215058675e-13
  outer loop
    vertex 21022.712890625 16115.5810546875 32088.037109375
    vertex 21275.044921875 16115.5810546875 32269.314453125
    vertex 21022.712890625 16115.5810546875 32269.314453125
  endloop
endfacet
facet normal -1 0 1.587531030233585e-41
  outer loop
    vertex 21022.712890625 16115.5810546875 32269.314453125
    vertex 21022.712890625 17385.5234375 32088.037109375
    vertex 21022.712890625 16115.5810546875 32088.037109375
  endloop
endfacet
facet normal -1 0 1.587531030233585e-41
  outer loop
    vertex 21022.712890625 17385.5234375 32088.037109375
    vertex 21022.712890625 16115.5810546875 32269.314453125
    vertex 21022.712890625 17385.5234375 32269.314453125
  endloop
endfacet
facet normal 0 1 -4.802141215058675e-13
  outer loop
    vertex 21022.712890625 17385.5234375 32269.314453125
    vertex 21275.044921875 17385.5234375 32088.037109375
    vertex 21022.712890625 17385.5234375 32088.037109375
  endloop
endfacet
facet normal 0 1 -4.802141215058675e-13
  outer loop
    vertex 21275.044921875 17385.5234375 32088.037109375
    vertex 21022.712890625 17385.5234375 32269.314453125
    vertex 21275.044921875 17385.5234375 32269.314453125
  endloop
endfacet
facet normal -6.988275441587863e-42 -2.988248212244804e-13 -1
  outer loop
    vertex 22284.376953125 17385.5234375 31362.923828125
    vertex 22032.044921875 16115.5810546875 31362.923828125
    vertex 22032.044921875 17385.5234375 31362.923828125
  endloop
endfacet
facet normal -6.988275441587863e-42 -2.988248212244804e-13 -1
  outer loop
    vertex 22032.044921875 16115.5810546875 31362.923828125
    vertex 22284.376953125 17385.5234375 31362.923828125
    vertex 22284.376953125 16115.5810546875 31362.923828125
  endloop
endfacet
facet normal 6.988275441587863e-42 2.988248212244804e-13 1
  outer loop
    vertex 22284.376953125 16115.5810546875 31544.203125
    vertex 22032.044921875 17385.5234375 31544.203125
    vertex 22032.044921875 16115.5810546875 31544.203125
  endloop
endfacet
facet normal 6.988275441587863e-42 2.988248212244804e-13 1
  outer loop
    vertex 22032.044921875 17385.5234375 31544.203125
    vertex 22284.376953125 16115.5810546875 31544.203125
    vertex 22284.376953125 17385.5234375 31544.203125
  endloop
endfacet
facet normal 1 -0 -1.587531030233585e-41
  outer loop
    vertex 22284.376953125 17385.5234375 31362.923828125
    vertex 22284.376953125 16115.5810546875 31544.203125
    vertex 22284.376953125 16115.5810546875 31362.923828125
  endloop
endfacet
facet normal 1 -0 -1.587531030233585e-41
  outer loop
    vertex 22284.376953125 16115.5810546875 31544.203125
    vertex 22284.376953125 17385.5234375 31362.923828125
    vertex 22284.376953125 17385.5234375 31544.203125
  endloop
endfacet
facet normal 0 -1 4.802141215058675e-13
  outer loop
    vertex 22284.376953125 16115.5810546875 31544.203125
    vertex 22032.044921875 16115.5810546875 31362.923828125
    vertex 22284.376953125 16115.5810546875 31362.923828125
  endloop
endfacet
facet normal 0 -1 4.802141215058675e-13
  outer loop
    vertex 22032.044921875 16115.5810546875 31362.923828125
    vertex 22284.376953125 16115.5810546875 31544.203125
    vertex 22032.044921875 16115.5810546875 31544.203125
  endloop
endfacet
facet normal -1 0 1.587531030233585e-41
  outer loop
    vertex 22032.044921875 16115.5810546875 31544.203125
    vertex 22032.044921875 17385.5234375 31362.923828125
    vertex 22032.044921875 16115.5810546875 31362.923828125
  endloop
endfacet
facet normal -1 0 1.587531030233585e-41
  outer loop
    vertex 22032.044921875 17385.5234375 31362.923828125
    vertex 22032.044921875 16115.5810546875 31544.203125
    vertex 22032.044921875 17385.5234375 31544.203125
  endloop
endfacet
facet normal 0 1 -4.802141215058675e-13
  outer loop
    vertex 22032.044921875 17385.5234375 31544.203125
    vertex 22284.376953125 17385.5234375 31362.923828125
    vertex 22032.044921875 17385.5234375 31362.923828125
  endloop
endfacet
facet normal 0 1 -4.802141215058675e-13
  outer loop
    vertex 22284.376953125 17385.5234375 31362.923828125
    vertex 22032.044921875 17385.5234375 31544.203125
    vertex 22284.376953125 17385.5234375 31544.203125
  endloop
endfacet
facet normal -6.988275441587863e-42 -2.988248212244804e-13 -1
  outer loop
    vertex 20770.37890625 17385.5234375 32450.59375
    vertex 20518.046875 16115.5810546875 32450.59375
    vertex 20518.046875 17385.5234375 32450.59375
  endloop
endfacet
facet normal -6.988275441587863e-42 -2.988248212244804e-13 -1
  outer loop
    vertex 20518.046875 16115.5810546875 32450.59375
    vertex 20770.37890625 17385.5234375 32450.59375
    vertex 20770.37890625 16115.5810546875 32450.59375
  endloop
endfacet
facet normal 6.988275441587863e-42 2.988248212244804e-13 1
  outer loop
    vertex 20770.37890625 16115.5810546875 32631.87109375
    vertex 20518.046875 17385.5234375 32631.87109375
    vertex 20518.046875 16115.5810546875 32631.87109375
  endloop
endfacet
facet normal 6.988275441587863e-42 2.988248212244804e-13 1
  outer loop
    vertex 20518.046875 17385.5234375 32631.87109375
    vertex 20770.37890625 16115.5810546875 32631.87109375
    vertex 20770.37890625 17385.5234375 32631.87109375
  endloop
endfacet
facet normal 1 -0 -1.587531030233585e-41
  outer loop
    vertex 20770.37890625 17385.5234375 32450.59375
    vertex 20770.37890625 16115.5810546875 32631.87109375
    vertex 20770.37890625 16115.5810546875 32450.59375
  endloop
endfacet
facet normal 1 -0 -1.587531030233585e-41
  outer loop
    vertex 20770.37890625 16115.5810546875 32631.87109375
    vertex 20770.37890625 17385.5234375 32450.59375
    vertex 20770.37890625 17385.5234375 32631.87109375
  endloop
endfacet
facet normal 0 -1 4.802141215058675e-13
  outer loop
    vertex 20770.37890625 16115.5810546875 32631.87109375
    vertex 20518.046875 16115.5810546875 32450.59375
    vertex 20770.37890625 16115.5810546875 32450.59375
  endloop
endfacet
facet normal 0 -1 4.802141215058675e-13
  outer loop
    vertex 20518.046875 16115.5810546875 32450.59375
    vertex 20770.37890625 16115.5810546875 32631.87109375
    vertex 20518.046875 16115.5810546875 32631.87109375
  endloop
endfacet
facet normal -1 0 1.587531030233585e-41
  outer loop
    vertex 20518.046875 16115.5810546875 32631.87109375
    vertex 20518.046875 17385.5234375 32450.59375
    vertex 20518.046875 16115.5810546875 32450.59375
  endloop
endfacet
facet normal -1 0 1.587531030233585e-41
  outer loop
    vertex 20518.046875 17385.5234375 32450.59375
    vertex 20518.046875 16115.5810546875 32631.87109375
    vertex 20518.046875 17385.5234375 32631.87109375
  endloop
endfacet
facet normal 0 1 -4.802141215058675e-13
  outer loop
    vertex 20518.046875 17385.5234375 32631.87109375
    vertex 20770.37890625 17385.5234375 32450.59375
    vertex 20518.046875 17385.5234375 32450.59375
  endloop
endfacet
facet normal 0 1 -4.802141215058675e-13
  outer loop
    vertex 20770.37890625 17385.5234375 32450.59375
    vertex 20518.046875 17385.5234375 32631.87109375
    vertex 20770.37890625 17385.5234375 32631.87109375
  endloop
endfacet
facet normal -6.988275441587863e-42 -2.988248212244804e-13 -1
  outer loop
    vertex 21779.7109375 17385.5234375 31725.48046875
    vertex 21527.37890625 16115.5810546875 31725.48046875
    vertex 21527.37890625 17385.5234375 31725.48046875
  endloop
endfacet
facet normal -6.988275441587863e-42 -2.988248212244804e-13 -1
  outer loop
    vertex 21527.37890625 16115.5810546875 31725.48046875
    vertex 21779.7109375 17385.5234375 31725.48046875
    vertex 21779.7109375 16115.5810546875 31725.48046875
  endloop
endfacet
facet normal 6.988275441587863e-42 2.988248212244804e-13 1
  outer loop
    vertex 21779.7109375 16115.5810546875 31906.759765625
    vertex 21527.37890625 17385.5234375 31906.759765625
    vertex 21527.37890625 16115.5810546875 31906.759765625
  endloop
endfacet
facet normal 6.988275441587863e-42 2.988248212244804e-13 1
  outer loop
    vertex 21527.37890625 17385.5234375 31906.759765625
    vertex 21779.7109375 16115.5810546875 31906.759765625
    vertex 21779.7109375 17385.5234375 31906.759765625
  endloop
endfacet
facet normal 1 -0 -1.587531030233585e-41
  outer loop
    vertex 21779.7109375 17385.5234375 31725.48046875
    vertex 21779.7109375 16115.5810546875 31906.759765625
    vertex 21779.7109375 16115.5810546875 31725.48046875
  endloop
endfacet
facet normal 1 -0 -1.587531030233585e-41
  outer loop
    vertex 21779.7109375 16115.5810546875 31906.759765625
    vertex 21779.7109375 17385.5234375 31725.48046875
    vertex 21779.7109375 17385.5234375 31906.759765625
  endloop
endfacet
facet normal 0 -1 4.802141215058675e-13
  outer loop
    vertex 21779.7109375 16115.5810546875 31906.759765625
    vertex 21527.37890625 16115.5810546875 31725.48046875
    vertex 21779.7109375 16115.5810546875 31725.48046875
  endloop
endfacet
facet normal 0 -1 4.802141215058675e-13
  outer loop
    vertex 21527.37890625 16115.5810546875 31725.48046875
    vertex 21779.7109375 16115.5810546875 31906.759765625
    vertex 21527.37890625 16115.5810546875 31906.759765625
  endloop
endfacet
facet normal -1 0 1.587531030233585e-41
  outer loop
    vertex 21527.37890625 16115.5810546875 31906.759765625
    vertex 21527.37890625 17385.5234375 31725.48046875
    vertex 21527.37890625 16115.5810546875 31725.48046875
  endloop
endfacet
facet normal -1 0 1.587531030233585e-41
  outer loop
    vertex 21527.37890625 17385.5234375 31725.48046875
    vertex 21527.37890625 16115.5810546875 31906.759765625
    vertex 21527.37890625 17385.5234375 31906.759765625
  endloop
endfacet
facet normal 0 1 -4.802141215058675e-13
  outer loop
    vertex 21527.37890625 17385.5234375 31906.759765625
    vertex 21779.7109375 17385.5234375 31725.48046875
    vertex 21527.37890625 17385.5234375 31725.48046875
  endloop
endfacet
facet normal 0 1 -4.802141215058675e-13
  outer loop
    vertex 21779.7109375 17385.5234375 31725.48046875
    vertex 21527.37890625 17385.5234375 31906.759765625
    vertex 21779.7109375 17385.5234375 31906.759765625
  endloop
endfacet
facet normal -6.988275441587863e-42 -2.988248212244804e-13 -1
  outer loop
    vertex 23041.376953125 17385.5234375 30819.08984375
    vertex 22789.04296875 16115.5810546875 30819.08984375
    vertex 22789.04296875 17385.5234375 30819.08984375
  endloop
endfacet
facet normal -6.988275441587863e-42 -2.988248212244804e-13 -1
  outer loop
    vertex 22789.04296875 16115.5810546875 30819.08984375
    vertex 23041.376953125 17385.5234375 30819.08984375
    vertex 23041.376953125 16115.5810546875 30819.08984375
  endloop
endfacet
facet normal 6.988275441587863e-42 2.988248212244804e-13 1
  outer loop
    vertex 23041.376953125 16115.5810546875 31000.369140625
    vertex 22789.04296875 17385.5234375 31000.369140625
    vertex 22789.04296875 16115.5810546875 31000.369140625
  endloop
endfacet
facet normal 6.988275441587863e-42 2.988248212244804e-13 1
  outer loop
    vertex 22789.04296875 17385.5234375 31000.369140625
    vertex 23041.376953125 16115.5810546875 31000.369140625
    vertex 23041.376953125 17385.5234375 31000.369140625
  endloop
endfacet
facet normal 1 -0 -1.587531030233585e-41
  outer loop
    vertex 23041.376953125 17385.5234375 30819.08984375
    vertex 23041.376953125 16115.5810546875 31000.369140625
    vertex 23041.376953125 16115.5810546875 30819.08984375
  endloop
endfacet
facet normal 1 -0 -1.587531030233585e-41
  outer loop
    vertex 23041.376953125 16115.5810546875 31000.369140625
    vertex 23041.376953125 17385.5234375 30819.08984375
    vertex 23041.376953125 17385.5234375 31000.369140625
  endloop
endfacet
facet normal 0 -1 4.802141215058675e-13
  outer loop
    vertex 23041.376953125 16115.5810546875 31000.369140625
    vertex 22789.04296875 16115.5810546875 30819.08984375
    vertex 23041.376953125 16115.5810546875 30819.08984375
  endloop
endfacet
facet normal 0 -1 4.802141215058675e-13
  outer loop
    vertex 22789.04296875 16115.5810546875 30819.08984375
    vertex 23041.376953125 16115.5810546875 31000.369140625
    vertex 22789.04296875 16115.5810546875 31000.369140625
  endloop
endfacet
facet normal -1 0 1.587531030233585e-41
  outer loop
    vertex 22789.04296875 16115.5810546875 31000.369140625
    vertex 22789.04296875 17385.5234375 30819.08984375
    vertex 22789.04296875 16115.5810546875 30819.08984375
  endloop
endfacet
facet normal -1 0 1.587531030233585e-41
  outer loop
    vertex 22789.04296875 17385.5234375 30819.08984375
    vertex 22789.04296875 16115.5810546875 31000.369140625
    vertex 22789.04296875 17385.5234375 31000.369140625
  endloop
endfacet
facet normal 0 1 -4.802141215058675e-13
  outer loop
    vertex 22789.04296875 17385.5234375 31000.369140625
    vertex 23041.376953125 17385.5234375 30819.08984375
    vertex 22789.04296875 17385.5234375 30819.08984375
  endloop
endfacet
facet normal 0 1 -4.802141215058675e-13
  outer loop
    vertex 23041.376953125 17385.5234375 30819.08984375
    vertex 22789.04296875 17385.5234375 31000.369140625
    vertex 23041.376953125 17385.5234375 31000.369140625
  endloop
endfacet
facet normal -6.988275441587863e-42 -2.988248212244804e-13 -1
  outer loop
    vertex 22789.04296875 17385.5234375 31000.369140625
    vertex 22536.7109375 16115.5810546875 31000.369140625
    vertex 22536.7109375 17385.5234375 31000.369140625
  endloop
endfacet
facet normal -6.988275441587863e-42 -2.988248212244804e-13 -1
  outer loop
    vertex 22536.7109375 16115.5810546875 31000.369140625
    vertex 22789.04296875 17385.5234375 31000.369140625
    vertex 22789.04296875 16115.5810546875 31000.369140625
  endloop
endfacet
facet normal 6.988275441587863e-42 2.988248212244804e-13 1
  outer loop
    vertex 22789.04296875 16115.5810546875 31181.646484375
    vertex 22536.7109375 17385.5234375 31181.646484375
    vertex 22536.7109375 16115.5810546875 31181.646484375
  endloop
endfacet
facet normal 6.988275441587863e-42 2.988248212244804e-13 1
  outer loop
    vertex 22536.7109375 17385.5234375 31181.646484375
    vertex 22789.04296875 16115.5810546875 31181.646484375
    vertex 22789.04296875 17385.5234375 31181.646484375
  endloop
endfacet
facet normal 1 -0 -1.587531030233585e-41
  outer loop
    vertex 22789.04296875 17385.5234375 31000.369140625
    vertex 22789.04296875 16115.5810546875 31181.646484375
    vertex 22789.04296875 16115.5810546875 31000.369140625
  endloop
endfacet
facet normal 1 -0 -1.587531030233585e-41
  outer loop
    vertex 22789.04296875 16115.5810546875 31181.646484375
    vertex 22789.04296875 17385.5234375 31000.369140625
    vertex 22789.04296875 17385.5234375 31181.646484375
  endloop
endfacet
facet normal 0 -1 4.802141215058675e-13
  outer loop
    vertex 22789.04296875 16115.5810546875 31181.646484375
    vertex 22536.7109375 16115.5810546875 31000.369140625
    vertex 22789.04296875 16115.5810546875 31000.369140625
  endloop
endfacet
facet normal 0 -1 4.802141215058675e-13
  outer loop
    vertex 22536.7109375 16115.5810546875 31000.369140625
    vertex 22789.04296875 16115.5810546875 31181.646484375
    vertex 22536.7109375 16115.5810546875 31181.646484375
  endloop
endfacet
facet normal -1 0 1.587531030233585e-41
  outer loop
    vertex 22536.7109375 16115.5810546875 31181.646484375
    vertex 22536.7109375 17385.5234375 31000.369140625
    vertex 22536.7109375 16115.5810546875 31000.369140625
  endloop
endfacet
facet normal -1 0 1.587531030233585e-41
  outer loop
    vertex 22536.7109375 17385.5234375 31000.369140625
    vertex 22536.7109375 16115.5810546875 31181.646484375
    vertex 22536.7109375 17385.5234375 31181.646484375
  endloop
endfacet
facet normal 0 1 -4.802141215058675e-13
  outer loop
    vertex 22536.7109375 17385.5234375 31181.646484375
    vertex 22789.04296875 17385.5234375 31000.369140625
    vertex 22536.7109375 17385.5234375 31000.369140625
  endloop
endfacet
facet normal 0 1 -4.802141215058675e-13
  outer loop
    vertex 22789.04296875 17385.5234375 31000.369140625
    vertex 22536.7109375 17385.5234375 31181.646484375
    vertex 22789.04296875 17385.5234375 31181.646484375
  endloop
endfacet
facet normal -6.988275441587863e-42 -2.988248212244804e-13 -1
  outer loop
    vertex 22536.7109375 17385.5234375 31181.646484375
    vertex 22284.376953125 16115.5810546875 31181.646484375
    vertex 22284.376953125 17385.5234375 31181.646484375
  endloop
endfacet
facet normal -6.988275441587863e-42 -2.988248212244804e-13 -1
  outer loop
    vertex 22284.376953125 16115.5810546875 31181.646484375
    vertex 22536.7109375 17385.5234375 31181.646484375
    vertex 22536.7109375 16115.5810546875 31181.646484375
  endloop
endfacet
facet normal 6.988275441587863e-42 2.988248212244804e-13 1
  outer loop
    vertex 22536.7109375 16115.5810546875 31362.923828125
    vertex 22284.376953125 17385.5234375 31362.923828125
    vertex 22284.376953125 16115.5810546875 31362.923828125
  endloop
endfacet
facet normal 6.988275441587863e-42 2.988248212244804e-13 1
  outer loop
    vertex 22284.376953125 17385.5234375 31362.923828125
    vertex 22536.7109375 16115.5810546875 31362.923828125
    vertex 22536.7109375 17385.5234375 31362.923828125
  endloop
endfacet
facet normal 1 -0 -1.587531030233585e-41
  outer loop
    vertex 22536.7109375 17385.5234375 31181.646484375
    vertex 22536.7109375 16115.5810546875 31362.923828125
    vertex 22536.7109375 16115.5810546875 31181.646484375
  endloop
endfacet
facet normal 1 -0 -1.587531030233585e-41
  outer loop
    vertex 22536.7109375 16115.5810546875 31362.923828125
    vertex 22536.7109375 17385.5234375 31181.646484375
    vertex 22536.7109375 17385.5234375 31362.923828125
  endloop
endfacet
facet normal 0 -1 4.802141215058675e-13
  outer loop
    vertex 22536.7109375 16115.5810546875 31362.923828125
    vertex 22284.376953125 16115.5810546875 31181.646484375
    vertex 22536.7109375 16115.5810546875 31181.646484375
  endloop
endfacet
facet normal 0 -1 4.802141215058675e-13
  outer loop
    vertex 22284.376953125 16115.5810546875 31181.646484375
    vertex 22536.7109375 16115.5810546875 31362.923828125
    vertex 22284.376953125 16115.5810546875 31362.923828125
  endloop
endfacet
facet normal -1 0 1.587531030233585e-41
  outer loop
    vertex 22284.376953125 16115.5810546875 31362.923828125
    vertex 22284.376953125 17385.5234375 31181.646484375
    vertex 22284.376953125 16115.5810546875 31181.646484375
  endloop
endfacet
facet normal -1 0 1.587531030233585e-41
  outer loop
    vertex 22284.376953125 17385.5234375 31181.646484375
    vertex 22284.376953125 16115.5810546875 31362.923828125
    vertex 22284.376953125 17385.5234375 31362.923828125
  endloop
endfacet
facet normal 0 1 -4.802141215058675e-13
  outer loop
    vertex 22284.376953125 17385.5234375 31362.923828125
    vertex 22536.7109375 17385.5234375 31181.646484375
    vertex 22284.376953125 17385.5234375 31181.646484375
  endloop
endfacet
facet normal 0 1 -4.802141215058675e-13
  outer loop
    vertex 22536.7109375 17385.5234375 31181.646484375
    vertex 22284.376953125 17385.5234375 31362.923828125
    vertex 22536.7109375 17385.5234375 31362.923828125
  endloop
endfacet
facet normal -6.988275441587863e-42 -2.988248212244804e-13 -1
  outer loop
    vertex 21275.04296875 15504.365234375 29368.8671875
    vertex 21022.7109375 14234.423828125 29368.8671875
    vertex 21022.7109375 15504.365234375 29368.8671875
  endloop
endfacet
facet normal -6.988275441587863e-42 -2.988248212244804e-13 -1
  outer loop
    vertex 21022.7109375 14234.423828125 29368.8671875
    vertex 21275.04296875 15504.365234375 29368.8671875
    vertex 21275.04296875 14234.423828125 29368.8671875
  endloop
endfacet
facet normal 1 -0 -1.587531030233585e-41
  outer loop
    vertex 21275.04296875 15504.365234375 29368.8671875
    vertex 21275.04296875 14234.423828125 29550.14453125
    vertex 21275.04296875 14234.423828125 29368.8671875
  endloop
endfacet
facet normal 1 -0 -1.587531030233585e-41
  outer loop
    vertex 21275.04296875 14234.423828125 29550.14453125
    vertex 21275.04296875 15504.365234375 29368.8671875
    vertex 21275.04296875 15504.365234375 29550.14453125
  endloop
endfacet
facet normal 0 -1 4.802141215058675e-13
  outer loop
    vertex 21275.04296875 14234.423828125 29550.14453125
    vertex 21022.7109375 14234.423828125 29368.8671875
    vertex 21275.04296875 14234.423828125 29368.8671875
  endloop
endfacet
facet normal 0 -1 4.802141215058675e-13
  outer loop
    vertex 21022.7109375 14234.423828125 29368.8671875
    vertex 21275.04296875 14234.423828125 29550.14453125
    vertex 21022.7109375 14234.423828125 29550.14453125
  endloop
endfacet
facet normal 2.656433968587099e-28 3.050358359998895e-13 1
  outer loop
    vertex 21275.04296875 14234.423828125 29550.14453125
    vertex 21022.7109375 15504.365234375 29550.14453125
    vertex 21022.7109375 14234.423828125 29550.14453125
  endloop
endfacet
facet normal 2.656433968587099e-28 3.050358359998895e-13 1
  outer loop
    vertex 21022.7109375 15504.365234375 29550.14453125
    vertex 21275.04296875 14234.423828125 29550.14453125
    vertex 21275.04296875 15504.365234375 29550.14453125
  endloop
endfacet
facet normal 0 1 -4.802141215058675e-13
  outer loop
    vertex 21022.7109375 15504.365234375 29550.14453125
    vertex 21275.04296875 15504.365234375 29368.8671875
    vertex 21022.7109375 15504.365234375 29368.8671875
  endloop
endfacet
facet normal 0 1 -4.802141215058675e-13
  outer loop
    vertex 21275.04296875 15504.365234375 29368.8671875
    vertex 21022.7109375 15504.365234375 29550.14453125
    vertex 21275.04296875 15504.365234375 29550.14453125
  endloop
endfacet
facet normal -1 0 1.587531030233585e-41
  outer loop
    vertex 21022.7109375 14234.423828125 29550.14453125
    vertex 21022.7109375 15504.365234375 29368.8671875
    vertex 21022.7109375 14234.423828125 29368.8671875
  endloop
endfacet
facet normal -1 0 1.587531030233585e-41
  outer loop
    vertex 21022.7109375 15504.365234375 29368.8671875
    vertex 21022.7109375 14234.423828125 29550.14453125
    vertex 21022.7109375 15504.365234375 29550.14453125
  endloop
endfacet
facet normal -6.988275441587863e-42 -2.988248212244804e-13 -1
  outer loop
    vertex 21022.7109375 15504.365234375 29187.587890625
    vertex 20770.376953125 14234.423828125 29187.587890625
    vertex 20770.376953125 15504.365234375 29187.587890625
  endloop
endfacet
facet normal -6.988275441587863e-42 -2.988248212244804e-13 -1
  outer loop
    vertex 20770.376953125 14234.423828125 29187.587890625
    vertex 21022.7109375 15504.365234375 29187.587890625
    vertex 21022.7109375 14234.423828125 29187.587890625
  endloop
endfacet
facet normal 1 -0 -1.587531030233585e-41
  outer loop
    vertex 21022.7109375 15504.365234375 29187.587890625
    vertex 21022.7109375 14234.423828125 29368.8671875
    vertex 21022.7109375 14234.423828125 29187.587890625
  endloop
endfacet
facet normal 1 -0 -1.587531030233585e-41
  outer loop
    vertex 21022.7109375 14234.423828125 29368.8671875
    vertex 21022.7109375 15504.365234375 29187.587890625
    vertex 21022.7109375 15504.365234375 29368.8671875
  endloop
endfacet
facet normal 0 -1 4.802141215058675e-13
  outer loop
    vertex 21022.7109375 14234.423828125 29368.8671875
    vertex 20770.376953125 14234.423828125 29187.587890625
    vertex 21022.7109375 14234.423828125 29187.587890625
  endloop
endfacet
facet normal 0 -1 4.802141215058675e-13
  outer loop
    vertex 20770.376953125 14234.423828125 29187.587890625
    vertex 21022.7109375 14234.423828125 29368.8671875
    vertex 20770.376953125 14234.423828125 29368.8671875
  endloop
endfacet
facet normal 2.656433968587099e-28 3.050358359998895e-13 1
  outer loop
    vertex 21022.7109375 14234.423828125 29368.8671875
    vertex 20770.376953125 15504.365234375 29368.8671875
    vertex 20770.376953125 14234.423828125 29368.8671875
  endloop
endfacet
facet normal 2.656433968587099e-28 3.050358359998895e-13 1
  outer loop
    vertex 20770.376953125 15504.365234375 29368.8671875
    vertex 21022.7109375 14234.423828125 29368.8671875
    vertex 21022.7109375 15504.365234375 29368.8671875
  endloop
endfacet
facet normal 0 1 -4.802141215058675e-13
  outer loop
    vertex 20770.376953125 15504.365234375 29368.8671875
    vertex 21022.7109375 15504.365234375 29187.587890625
    vertex 20770.376953125 15504.365234375 29187.587890625
  endloop
endfacet
facet normal 0 1 -4.802141215058675e-13
  outer loop
    vertex 21022.7109375 15504.365234375 29187.587890625
    vertex 20770.376953125 15504.365234375 29368.8671875
    vertex 21022.7109375 15504.365234375 29368.8671875
  endloop
endfacet
facet normal -1 0 1.587531030233585e-41
  outer loop
    vertex 20770.376953125 14234.423828125 29368.8671875
    vertex 20770.376953125 15504.365234375 29187.587890625
    vertex 20770.376953125 14234.423828125 29187.587890625
  endloop
endfacet
facet normal -1 0 1.587531030233585e-41
  outer loop
    vertex 20770.376953125 15504.365234375 29187.587890625
    vertex 20770.376953125 14234.423828125 29368.8671875
    vertex 20770.376953125 15504.365234375 29368.8671875
  endloop
endfacet
facet normal -6.988275441587863e-42 -2.988248212244804e-13 -1
  outer loop
    vertex 22032.04296875 15504.365234375 29912.701171875
    vertex 21779.708984375 14234.423828125 29912.701171875
    vertex 21779.708984375 15504.365234375 29912.701171875
  endloop
endfacet
facet normal -6.988275441587863e-42 -2.988248212244804e-13 -1
  outer loop
    vertex 21779.708984375 14234.423828125 29912.701171875
    vertex 22032.04296875 15504.365234375 29912.701171875
    vertex 22032.04296875 14234.423828125 29912.701171875
  endloop
endfacet
facet normal 1 -0 -1.587531030233585e-41
  outer loop
    vertex 22032.04296875 15504.365234375 29912.701171875
    vertex 22032.04296875 14234.423828125 30093.978515625
    vertex 22032.04296875 14234.423828125 29912.701171875
  endloop
endfacet
facet normal 1 -0 -1.587531030233585e-41
  outer loop
    vertex 22032.04296875 14234.423828125 30093.978515625
    vertex 22032.04296875 15504.365234375 29912.701171875
    vertex 22032.04296875 15504.365234375 30093.978515625
  endloop
endfacet
facet normal 0 -1 4.802141215058675e-13
  outer loop
    vertex 22032.04296875 14234.423828125 30093.978515625
    vertex 21779.708984375 14234.423828125 29912.701171875
    vertex 22032.04296875 14234.423828125 29912.701171875
  endloop
endfacet
facet normal 0 -1 4.802141215058675e-13
  outer loop
    vertex 21779.708984375 14234.423828125 29912.701171875
    vertex 22032.04296875 14234.423828125 30093.978515625
    vertex 21779.708984375 14234.423828125 30093.978515625
  endloop
endfacet
facet normal 2.656433968587099e-28 3.050358359998895e-13 1
  outer loop
    vertex 22032.04296875 14234.423828125 30093.978515625
    vertex 21779.708984375 15504.365234375 30093.978515625
    vertex 21779.708984375 14234.423828125 30093.978515625
  endloop
endfacet
facet normal 2.656433968587099e-28 3.050358359998895e-13 1
  outer loop
    vertex 21779.708984375 15504.365234375 30093.978515625
    vertex 22032.04296875 14234.423828125 30093.978515625
    vertex 22032.04296875 15504.365234375 30093.978515625
  endloop
endfacet
facet normal 0 1 -4.802141215058675e-13
  outer loop
    vertex 21779.708984375 15504.365234375 30093.978515625
    vertex 22032.04296875 15504.365234375 29912.701171875
    vertex 21779.708984375 15504.365234375 29912.701171875
  endloop
endfacet
facet normal 0 1 -4.802141215058675e-13
  outer loop
    vertex 22032.04296875 15504.365234375 29912.701171875
    vertex 21779.708984375 15504.365234375 30093.978515625
    vertex 22032.04296875 15504.365234375 30093.978515625
  endloop
endfacet
facet normal -1 0 1.587531030233585e-41
  outer loop
    vertex 21779.708984375 14234.423828125 30093.978515625
    vertex 21779.708984375 15504.365234375 29912.701171875
    vertex 21779.708984375 14234.423828125 29912.701171875
  endloop
endfacet
facet normal -1 0 1.587531030233585e-41
  outer loop
    vertex 21779.708984375 15504.365234375 29912.701171875
    vertex 21779.708984375 14234.423828125 30093.978515625
    vertex 21779.708984375 15504.365234375 30093.978515625
  endloop
endfacet
facet normal -6.988275441587863e-42 -2.988248212244804e-13 -1
  outer loop
    vertex 22284.375 15504.365234375 30093.978515625
    vertex 22032.04296875 14234.423828125 30093.978515625
    vertex 22032.04296875 15504.365234375 30093.978515625
  endloop
endfacet
facet normal -6.988275441587863e-42 -2.988248212244804e-13 -1
  outer loop
    vertex 22032.04296875 14234.423828125 30093.978515625
    vertex 22284.375 15504.365234375 30093.978515625
    vertex 22284.375 14234.423828125 30093.978515625
  endloop
endfacet
facet normal 1 -0 -1.587531030233585e-41
  outer loop
    vertex 22284.375 15504.365234375 30093.978515625
    vertex 22284.375 14234.423828125 30275.255859375
    vertex 22284.375 14234.423828125 30093.978515625
  endloop
endfacet
facet normal 1 -0 -1.587531030233585e-41
  outer loop
    vertex 22284.375 14234.423828125 30275.255859375
    vertex 22284.375 15504.365234375 30093.978515625
    vertex 22284.375 15504.365234375 30275.255859375
  endloop
endfacet
facet normal 0 -1 4.802141215058675e-13
  outer loop
    vertex 22284.375 14234.423828125 30275.255859375
    vertex 22032.04296875 14234.423828125 30093.978515625
    vertex 22284.375 14234.423828125 30093.978515625
  endloop
endfacet
facet normal 0 -1 4.802141215058675e-13
  outer loop
    vertex 22032.04296875 14234.423828125 30093.978515625
    vertex 22284.375 14234.423828125 30275.255859375
    vertex 22032.04296875 14234.423828125 30275.255859375
  endloop
endfacet
facet normal 2.656433968587099e-28 3.050358359998895e-13 1
  outer loop
    vertex 22284.375 14234.423828125 30275.255859375
    vertex 22032.04296875 15504.365234375 30275.255859375
    vertex 22032.04296875 14234.423828125 30275.255859375
  endloop
endfacet
facet normal 2.656433968587099e-28 3.050358359998895e-13 1
  outer loop
    vertex 22032.04296875 15504.365234375 30275.255859375
    vertex 22284.375 14234.423828125 30275.255859375
    vertex 22284.375 15504.365234375 30275.255859375
  endloop
endfacet
facet normal 0 1 -4.802141215058675e-13
  outer loop
    vertex 22032.04296875 15504.365234375 30275.255859375
    vertex 22284.375 15504.365234375 30093.978515625
    vertex 22032.04296875 15504.365234375 30093.978515625
  endloop
endfacet
facet normal 0 1 -4.802141215058675e-13
  outer loop
    vertex 22284.375 15504.365234375 30093.978515625
    vertex 22032.04296875 15504.365234375 30275.255859375
    vertex 22284.375 15504.365234375 30275.255859375
  endloop
endfacet
facet normal -1 0 1.587531030233585e-41
  outer loop
    vertex 22032.04296875 14234.423828125 30275.255859375
    vertex 22032.04296875 15504.365234375 30093.978515625
    vertex 22032.04296875 14234.423828125 30093.978515625
  endloop
endfacet
facet normal -1 0 1.587531030233585e-41
  outer loop
    vertex 22032.04296875 15504.365234375 30093.978515625
    vertex 22032.04296875 14234.423828125 30275.255859375
    vertex 22032.04296875 15504.365234375 30275.255859375
  endloop
endfacet
facet normal -6.988275441587863e-42 -2.988248212244804e-13 -1
  outer loop
    vertex 22536.708984375 15504.365234375 30275.255859375
    vertex 22284.375 14234.423828125 30275.255859375
    vertex 22284.375 15504.365234375 30275.255859375
  endloop
endfacet
facet normal -6.988275441587863e-42 -2.988248212244804e-13 -1
  outer loop
    vertex 22284.375 14234.423828125 30275.255859375
    vertex 22536.708984375 15504.365234375 30275.255859375
    vertex 22536.708984375 14234.423828125 30275.255859375
  endloop
endfacet
facet normal 1 -0 -1.587531030233585e-41
  outer loop
    vertex 22536.708984375 15504.365234375 30275.255859375
    vertex 22536.708984375 14234.423828125 30456.53515625
    vertex 22536.708984375 14234.423828125 30275.255859375
  endloop
endfacet
facet normal 1 -0 -1.587531030233585e-41
  outer loop
    vertex 22536.708984375 14234.423828125 30456.53515625
    vertex 22536.708984375 15504.365234375 30275.255859375
    vertex 22536.708984375 15504.365234375 30456.53515625
  endloop
endfacet
facet normal 0 -1 4.802141215058675e-13
  outer loop
    vertex 22536.708984375 14234.423828125 30456.53515625
    vertex 22284.375 14234.423828125 30275.255859375
    vertex 22536.708984375 14234.423828125 30275.255859375
  endloop
endfacet
facet normal 0 -1 4.802141215058675e-13
  outer loop
    vertex 22284.375 14234.423828125 30275.255859375
    vertex 22536.708984375 14234.423828125 30456.53515625
    vertex 22284.375 14234.423828125 30456.53515625
  endloop
endfacet
facet normal 2.656433968587099e-28 3.050358359998895e-13 1
  outer loop
    vertex 22536.708984375 14234.423828125 30456.53515625
    vertex 22284.375 15504.365234375 30456.53515625
    vertex 22284.375 14234.423828125 30456.53515625
  endloop
endfacet
facet normal 2.656433968587099e-28 3.050358359998895e-13 1
  outer loop
    vertex 22284.375 15504.365234375 30456.53515625
    vertex 22536.708984375 14234.423828125 30456.53515625
    vertex 22536.708984375 15504.365234375 30456.53515625
  endloop
endfacet
facet normal 0 1 -4.802141215058675e-13
  outer loop
    vertex 22284.375 15504.365234375 30456.53515625
    vertex 22536.708984375 15504.365234375 30275.255859375
    vertex 22284.375 15504.365234375 30275.255859375
  endloop
endfacet
facet normal 0 1 -4.802141215058675e-13
  outer loop
    vertex 22536.708984375 15504.365234375 30275.255859375
    vertex 22284.375 15504.365234375 30456.53515625
    vertex 22536.708984375 15504.365234375 30456.53515625
  endloop
endfacet
facet normal -1 0 1.587531030233585e-41
  outer loop
    vertex 22284.375 14234.423828125 30456.53515625
    vertex 22284.375 15504.365234375 30275.255859375
    vertex 22284.375 14234.423828125 30275.255859375
  endloop
endfacet
facet normal -1 0 1.587531030233585e-41
  outer loop
    vertex 22284.375 15504.365234375 30275.255859375
    vertex 22284.375 14234.423828125 30456.53515625
    vertex 22284.375 15504.365234375 30456.53515625
  endloop
endfacet
facet normal -6.988275441587863e-42 -2.988248212244804e-13 -1
  outer loop
    vertex 21527.376953125 15504.365234375 29550.14453125
    vertex 21275.04296875 14234.423828125 29550.14453125
    vertex 21275.04296875 15504.365234375 29550.14453125
  endloop
endfacet
facet normal -6.988275441587863e-42 -2.988248212244804e-13 -1
  outer loop
    vertex 21275.04296875 14234.423828125 29550.14453125
    vertex 21527.376953125 15504.365234375 29550.14453125
    vertex 21527.376953125 14234.423828125 29550.14453125
  endloop
endfacet
facet normal 1 -0 -1.587531030233585e-41
  outer loop
    vertex 21527.376953125 15504.365234375 29550.14453125
    vertex 21527.376953125 14234.423828125 29731.421875
    vertex 21527.376953125 14234.423828125 29550.14453125
  endloop
endfacet
facet normal 1 -0 -1.587531030233585e-41
  outer loop
    vertex 21527.376953125 14234.423828125 29731.421875
    vertex 21527.376953125 15504.365234375 29550.14453125
    vertex 21527.376953125 15504.365234375 29731.421875
  endloop
endfacet
facet normal 0 -1 4.802141215058675e-13
  outer loop
    vertex 21527.376953125 14234.423828125 29731.421875
    vertex 21275.04296875 14234.423828125 29550.14453125
    vertex 21527.376953125 14234.423828125 29550.14453125
  endloop
endfacet
facet normal 0 -1 4.802141215058675e-13
  outer loop
    vertex 21275.04296875 14234.423828125 29550.14453125
    vertex 21527.376953125 14234.423828125 29731.421875
    vertex 21275.04296875 14234.423828125 29731.421875
  endloop
endfacet
facet normal 2.656433968587099e-28 3.050358359998895e-13 1
  outer loop
    vertex 21527.376953125 14234.423828125 29731.421875
    vertex 21275.04296875 15504.365234375 29731.421875
    vertex 21275.04296875 14234.423828125 29731.421875
  endloop
endfacet
facet normal 2.656433968587099e-28 3.050358359998895e-13 1
  outer loop
    vertex 21275.04296875 15504.365234375 29731.421875
    vertex 21527.376953125 14234.423828125 29731.421875
    vertex 21527.376953125 15504.365234375 29731.421875
  endloop
endfacet
facet normal 0 1 -4.802141215058675e-13
  outer loop
    vertex 21275.04296875 15504.365234375 29731.421875
    vertex 21527.376953125 15504.365234375 29550.14453125
    vertex 21275.04296875 15504.365234375 29550.14453125
  endloop
endfacet
facet normal 0 1 -4.802141215058675e-13
  outer loop
    vertex 21527.376953125 15504.365234375 29550.14453125
    vertex 21275.04296875 15504.365234375 29731.421875
    vertex 21527.376953125 15504.365234375 29731.421875
  endloop
endfacet
facet normal -1 0 1.587531030233585e-41
  outer loop
    vertex 21275.04296875 14234.423828125 29731.421875
    vertex 21275.04296875 15504.365234375 29550.14453125
    vertex 21275.04296875 14234.423828125 29550.14453125
  endloop
endfacet
facet normal -1 0 1.587531030233585e-41
  outer loop
    vertex 21275.04296875 15504.365234375 29550.14453125
    vertex 21275.04296875 14234.423828125 29731.421875
    vertex 21275.04296875 15504.365234375 29731.421875
  endloop
endfacet
facet normal -6.988275441587863e-42 -2.988248212244804e-13 -1
  outer loop
    vertex 22789.041015625 15504.365234375 30456.53515625
    vertex 22536.708984375 14234.423828125 30456.53515625
    vertex 22536.708984375 15504.365234375 30456.53515625
  endloop
endfacet
facet normal -6.988275441587863e-42 -2.988248212244804e-13 -1
  outer loop
    vertex 22536.708984375 14234.423828125 30456.53515625
    vertex 22789.041015625 15504.365234375 30456.53515625
    vertex 22789.041015625 14234.423828125 30456.53515625
  endloop
endfacet
facet normal 1 -0 -1.587531030233585e-41
  outer loop
    vertex 22789.041015625 15504.365234375 30456.53515625
    vertex 22789.041015625 14234.423828125 30637.8125
    vertex 22789.041015625 14234.423828125 30456.53515625
  endloop
endfacet
facet normal 1 -0 -1.587531030233585e-41
  outer loop
    vertex 22789.041015625 14234.423828125 30637.8125
    vertex 22789.041015625 15504.365234375 30456.53515625
    vertex 22789.041015625 15504.365234375 30637.8125
  endloop
endfacet
facet normal 0 -1 4.802141215058675e-13
  outer loop
    vertex 22789.041015625 14234.423828125 30637.8125
    vertex 22536.708984375 14234.423828125 30456.53515625
    vertex 22789.041015625 14234.423828125 30456.53515625
  endloop
endfacet
facet normal 0 -1 4.802141215058675e-13
  outer loop
    vertex 22536.708984375 14234.423828125 30456.53515625
    vertex 22789.041015625 14234.423828125 30637.8125
    vertex 22536.708984375 14234.423828125 30637.8125
  endloop
endfacet
facet normal 2.656433968587099e-28 3.050358359998895e-13 1
  outer loop
    vertex 22789.041015625 14234.423828125 30637.8125
    vertex 22536.708984375 15504.365234375 30637.8125
    vertex 22536.708984375 14234.423828125 30637.8125
  endloop
endfacet
facet normal 2.656433968587099e-28 3.050358359998895e-13 1
  outer loop
    vertex 22536.708984375 15504.365234375 30637.8125
    vertex 22789.041015625 14234.423828125 30637.8125
    vertex 22789.041015625 15504.365234375 30637.8125
  endloop
endfacet
facet normal 0 1 -4.802141215058675e-13
  outer loop
    vertex 22536.708984375 15504.365234375 30637.8125
    vertex 22789.041015625 15504.365234375 30456.53515625
    vertex 22536.708984375 15504.365234375 30456.53515625
  endloop
endfacet
facet normal 0 1 -4.802141215058675e-13
  outer loop
    vertex 22789.041015625 15504.365234375 30456.53515625
    vertex 22536.708984375 15504.365234375 30637.8125
    vertex 22789.041015625 15504.365234375 30637.8125
  endloop
endfacet
facet normal -1 0 1.587531030233585e-41
  outer loop
    vertex 22536.708984375 14234.423828125 30637.8125
    vertex 22536.708984375 15504.365234375 30456.53515625
    vertex 22536.708984375 14234.423828125 30456.53515625
  endloop
endfacet
facet normal -1 0 1.587531030233585e-41
  outer loop
    vertex 22536.708984375 15504.365234375 30456.53515625
    vertex 22536.708984375 14234.423828125 30637.8125
    vertex 22536.708984375 15504.365234375 30637.8125
  endloop
endfacet
facet normal -6.988275441587863e-42 -2.988248212244804e-13 -1
  outer loop
    vertex 21779.708984375 15504.365234375 29731.421875
    vertex 21527.376953125 14234.423828125 29731.421875
    vertex 21527.376953125 15504.365234375 29731.421875
  endloop
endfacet
facet normal -6.988275441587863e-42 -2.988248212244804e-13 -1
  outer loop
    vertex 21527.376953125 14234.423828125 29731.421875
    vertex 21779.708984375 15504.365234375 29731.421875
    vertex 21779.708984375 14234.423828125 29731.421875
  endloop
endfacet
facet normal 1 -0 -1.587531030233585e-41
  outer loop
    vertex 21779.708984375 15504.365234375 29731.421875
    vertex 21779.708984375 14234.423828125 29912.701171875
    vertex 21779.708984375 14234.423828125 29731.421875
  endloop
endfacet
facet normal 1 -0 -1.587531030233585e-41
  outer loop
    vertex 21779.708984375 14234.423828125 29912.701171875
    vertex 21779.708984375 15504.365234375 29731.421875
    vertex 21779.708984375 15504.365234375 29912.701171875
  endloop
endfacet
facet normal 0 -1 4.802141215058675e-13
  outer loop
    vertex 21779.708984375 14234.423828125 29912.701171875
    vertex 21527.376953125 14234.423828125 29731.421875
    vertex 21779.708984375 14234.423828125 29731.421875
  endloop
endfacet
facet normal 0 -1 4.802141215058675e-13
  outer loop
    vertex 21527.376953125 14234.423828125 29731.421875
    vertex 21779.708984375 14234.423828125 29912.701171875
    vertex 21527.376953125 14234.423828125 29912.701171875
  endloop
endfacet
facet normal 2.656433968587099e-28 3.050358359998895e-13 1
  outer loop
    vertex 21779.708984375 14234.423828125 29912.701171875
    vertex 21527.376953125 15504.365234375 29912.701171875
    vertex 21527.376953125 14234.423828125 29912.701171875
  endloop
endfacet
facet normal 2.656433968587099e-28 3.050358359998895e-13 1
  outer loop
    vertex 21527.376953125 15504.365234375 29912.701171875
    vertex 21779.708984375 14234.423828125 29912.701171875
    vertex 21779.708984375 15504.365234375 29912.701171875
  endloop
endfacet
facet normal 0 1 -4.802141215058675e-13
  outer loop
    vertex 21527.376953125 15504.365234375 29912.701171875
    vertex 21779.708984375 15504.365234375 29731.421875
    vertex 21527.376953125 15504.365234375 29731.421875
  endloop
endfacet
facet normal 0 1 -4.802141215058675e-13
  outer loop
    vertex 21779.708984375 15504.365234375 29731.421875
    vertex 21527.376953125 15504.365234375 29912.701171875
    vertex 21779.708984375 15504.365234375 29912.701171875
  endloop
endfacet
facet normal -1 0 1.587531030233585e-41
  outer loop
    vertex 21527.376953125 14234.423828125 29912.701171875
    vertex 21527.376953125 15504.365234375 29731.421875
    vertex 21527.376953125 14234.423828125 29731.421875
  endloop
endfacet
facet normal -1 0 1.587531030233585e-41
  outer loop
    vertex 21527.376953125 15504.365234375 29731.421875
    vertex 21527.376953125 14234.423828125 29912.701171875
    vertex 21527.376953125 15504.365234375 29912.701171875
  endloop
endfacet
facet normal -6.988275441587863e-42 -2.988248212244804e-13 -1
  outer loop
    vertex 23041.375 15504.365234375 30637.8125
    vertex 22789.041015625 14234.423828125 30637.8125
    vertex 22789.041015625 15504.365234375 30637.8125
  endloop
endfacet
facet normal -6.988275441587863e-42 -2.988248212244804e-13 -1
  outer loop
    vertex 22789.041015625 14234.423828125 30637.8125
    vertex 23041.375 15504.365234375 30637.8125
    vertex 23041.375 14234.423828125 30637.8125
  endloop
endfacet
facet normal 1 -0 -1.587531030233585e-41
  outer loop
    vertex 23041.375 15504.365234375 30637.8125
    vertex 23041.375 14234.423828125 30819.08984375
    vertex 23041.375 14234.423828125 30637.8125
  endloop
endfacet
facet normal 1 -0 -1.587531030233585e-41
  outer loop
    vertex 23041.375 14234.423828125 30819.08984375
    vertex 23041.375 15504.365234375 30637.8125
    vertex 23041.375 15504.365234375 30819.08984375
  endloop
endfacet
facet normal 0 -1 4.802141215058675e-13
  outer loop
    vertex 23041.375 14234.423828125 30819.08984375
    vertex 22789.041015625 14234.423828125 30637.8125
    vertex 23041.375 14234.423828125 30637.8125
  endloop
endfacet
facet normal 0 -1 4.802141215058675e-13
  outer loop
    vertex 22789.041015625 14234.423828125 30637.8125
    vertex 23041.375 14234.423828125 30819.08984375
    vertex 22789.041015625 14234.423828125 30819.08984375
  endloop
endfacet
facet normal 2.656433968587099e-28 3.050358359998895e-13 1
  outer loop
    vertex 23041.375 14234.423828125 30819.08984375
    vertex 22789.041015625 15504.365234375 30819.08984375
    vertex 22789.041015625 14234.423828125 30819.08984375
  endloop
endfacet
facet normal 2.656433968587099e-28 3.050358359998895e-13 1
  outer loop
    vertex 22789.041015625 15504.365234375 30819.08984375
    vertex 23041.375 14234.423828125 30819.08984375
    vertex 23041.375 15504.365234375 30819.08984375
  endloop
endfacet
facet normal 0 1 -4.802141215058675e-13
  outer loop
    vertex 22789.041015625 15504.365234375 30819.08984375
    vertex 23041.375 15504.365234375 30637.8125
    vertex 22789.041015625 15504.365234375 30637.8125
  endloop
endfacet
facet normal 0 1 -4.802141215058675e-13
  outer loop
    vertex 23041.375 15504.365234375 30637.8125
    vertex 22789.041015625 15504.365234375 30819.08984375
    vertex 23041.375 15504.365234375 30819.08984375
  endloop
endfacet
facet normal -1 0 1.587531030233585e-41
  outer loop
    vertex 22789.041015625 14234.423828125 30819.08984375
    vertex 22789.041015625 15504.365234375 30637.8125
    vertex 22789.041015625 14234.423828125 30637.8125
  endloop
endfacet
facet normal -1 0 1.587531030233585e-41
  outer loop
    vertex 22789.041015625 15504.365234375 30637.8125
    vertex 22789.041015625 14234.423828125 30819.08984375
    vertex 22789.041015625 15504.365234375 30819.08984375
  endloop
endfacet
endsolid com.sketchup.SketchUp.2019
