solid com.sketchup.SketchUp.2019
facet normal -6.954644278444067e-42 -3.024107385948133e-13 -1
  outer loop
    vertex 20769.134765625 15700.1083984375 39318.6953125
    vertex 20518.044921875 14414.9267578125 39318.6953125
    vertex 20518.044921875 15700.1083984375 39318.6953125
  endloop
endfacet
facet normal -6.954644278444067e-42 -3.024107385948133e-13 -1
  outer loop
    vertex 20518.044921875 14414.9267578125 39318.6953125
    vertex 20769.134765625 15700.1083984375 39318.6953125
    vertex 20769.134765625 14414.9267578125 39318.6953125
  endloop
endfacet
facet normal 1 -0 -1.595378301633804e-41
  outer loop
    vertex 20769.134765625 15700.1083984375 39318.6953125
    vertex 20769.134765625 14414.9267578125 39499.97265625
    vertex 20769.134765625 14414.9267578125 39318.6953125
  endloop
endfacet
facet normal 1 -0 -1.595378301633804e-41
  outer loop
    vertex 20769.134765625 14414.9267578125 39499.97265625
    vertex 20769.134765625 15700.1083984375 39318.6953125
    vertex 20769.134765625 15700.1083984375 39499.97265625
  endloop
endfacet
facet normal 0 -1 4.745198916959736e-13
  outer loop
    vertex 20769.134765625 14414.9267578125 39499.97265625
    vertex 20518.044921875 14414.9267578125 39318.6953125
    vertex 20769.134765625 14414.9267578125 39318.6953125
  endloop
endfacet
facet normal 0 -1 4.745198916959736e-13
  outer loop
    vertex 20518.044921875 14414.9267578125 39318.6953125
    vertex 20769.134765625 14414.9267578125 39499.97265625
    vertex 20518.044921875 14414.9267578125 39499.97265625
  endloop
endfacet
facet normal 2.643346070908773e-28 3.086962651645264e-13 1
  outer loop
    vertex 20769.134765625 14414.9267578125 39499.97265625
    vertex 20518.044921875 15700.1083984375 39499.97265625
    vertex 20518.044921875 14414.9267578125 39499.97265625
  endloop
endfacet
facet normal 2.643346070908773e-28 3.086962651645264e-13 1
  outer loop
    vertex 20518.044921875 15700.1083984375 39499.97265625
    vertex 20769.134765625 14414.9267578125 39499.97265625
    vertex 20614.294921875 15664.6884765625 39499.97265625
  endloop
endfacet
facet normal 2.643346070908773e-28 3.086962651645264e-13 1
  outer loop
    vertex 20614.294921875 15664.6884765625 39499.97265625
    vertex 20769.134765625 14414.9267578125 39499.97265625
    vertex 20646.439453125 15664.6884765625 39499.97265625
  endloop
endfacet
facet normal 2.643346070908773e-28 3.086962651645264e-13 1
  outer loop
    vertex 20646.439453125 15664.6884765625 39499.97265625
    vertex 20769.134765625 14414.9267578125 39499.97265625
    vertex 20646.439453125 15700.1083984375 39499.97265625
  endloop
endfacet
facet normal 2.643346070908773e-28 3.086962651645264e-13 1
  outer loop
    vertex 20646.439453125 15700.1083984375 39499.97265625
    vertex 20769.134765625 14414.9267578125 39499.97265625
    vertex 20769.134765625 15700.1083984375 39499.97265625
  endloop
endfacet
facet normal 2.643346070908773e-28 3.086962651645264e-13 1
  outer loop
    vertex 20614.294921875 15700.1083984375 39499.97265625
    vertex 20518.044921875 15700.1083984375 39499.97265625
    vertex 20614.294921875 15664.6884765625 39499.97265625
  endloop
endfacet
facet normal 0 1 -4.745198916959736e-13
  outer loop
    vertex 20518.044921875 15700.1083984375 39499.97265625
    vertex 20769.134765625 15700.1083984375 39318.6953125
    vertex 20518.044921875 15700.1083984375 39318.6953125
  endloop
endfacet
facet normal 0 1 -4.745198916959736e-13
  outer loop
    vertex 20769.134765625 15700.1083984375 39318.6953125
    vertex 20518.044921875 15700.1083984375 39499.97265625
    vertex 20769.134765625 15700.1083984375 39499.97265625
  endloop
endfacet
facet normal -1 0 1.595378301633804e-41
  outer loop
    vertex 20518.044921875 14414.9267578125 39499.97265625
    vertex 20518.044921875 15700.1083984375 39318.6953125
    vertex 20518.044921875 14414.9267578125 39318.6953125
  endloop
endfacet
facet normal -1 0 1.595378301633804e-41
  outer loop
    vertex 20518.044921875 15700.1083984375 39318.6953125
    vertex 20518.044921875 14414.9267578125 39499.97265625
    vertex 20518.044921875 15700.1083984375 39499.97265625
  endloop
endfacet
facet normal -2.361858809658141e-13 3.041058344813857e-13 -1
  outer loop
    vertex 20646.439453125 15700.1083984375 39499.97265625
    vertex 20614.294921875 15664.6884765625 39499.97265625
    vertex 20614.294921875 15700.1083984375 39499.97265625
  endloop
endfacet
facet normal -2.361858809658141e-13 3.041058344813857e-13 -1
  outer loop
    vertex 20614.294921875 15664.6884765625 39499.97265625
    vertex 20646.439453125 15700.1083984375 39499.97265625
    vertex 20646.439453125 15664.6884765625 39499.97265625
  endloop
endfacet
facet normal -7.800413655658419e-15 1 -1.603308516495965e-14
  outer loop
    vertex 20614.294921875 15700.1083984375 39499.97265625
    vertex 20646.439453125 15700.1083984375 40429.49609375
    vertex 20646.439453125 15700.1083984375 39499.97265625
  endloop
endfacet
facet normal -7.800413655658419e-15 1 -1.603308516495965e-14
  outer loop
    vertex 20646.439453125 15700.1083984375 40429.49609375
    vertex 20614.294921875 15700.1083984375 39499.97265625
    vertex 20614.294921875 15700.1083984375 40455.44140625
  endloop
endfacet
facet normal -7.800413655658419e-15 1 -1.603308516495965e-14
  outer loop
    vertex 20646.439453125 15700.1083984375 40429.49609375
    vertex 20614.294921875 15700.1083984375 40455.44140625
    vertex 20672.8828125 15700.1083984375 40448.58984375
  endloop
endfacet
facet normal -7.800413655658419e-15 1 -1.603308516495965e-14
  outer loop
    vertex 20672.8828125 15700.1083984375 40448.58984375
    vertex 20614.294921875 15700.1083984375 40455.44140625
    vertex 23078.076171875 15700.1083984375 42185.0546875
  endloop
endfacet
facet normal -7.800413655658419e-15 1 -1.603308516495965e-14
  outer loop
    vertex 23078.076171875 15700.1083984375 42185.0546875
    vertex 20614.294921875 15700.1083984375 40455.44140625
    vertex 23078.076171875 15700.1083984375 42234.203125
  endloop
endfacet
facet normal -0.3001967370510101 -6.157609242205583e-16 0.953877329826355
  outer loop
    vertex 23091.9140625 15664.6884765625 42244.1953125
    vertex 20614.294921875 15700.1083984375 40455.44140625
    vertex 20614.294921875 15664.6884765625 40455.44140625
  endloop
endfacet
facet normal -0.3001967370510101 -6.157609242205583e-16 0.953877329826355
  outer loop
    vertex 20614.294921875 15700.1083984375 40455.44140625
    vertex 23091.9140625 15664.6884765625 42244.1953125
    vertex 23078.076171875 15700.1083984375 42234.203125
  endloop
endfacet
facet normal -0.3001967370510101 -6.157609242205583e-16 0.953877329826355
  outer loop
    vertex 23078.076171875 15700.1083984375 42234.203125
    vertex 23091.9140625 15664.6884765625 42244.1953125
    vertex 23078.076171875 16003.7080078125 42234.203125
  endloop
endfacet
facet normal -0.3001967370510101 -6.157609242205583e-16 0.953877329826355
  outer loop
    vertex 23078.076171875 16003.7080078125 42234.203125
    vertex 23091.9140625 15664.6884765625 42244.1953125
    vertex 23091.9140625 16003.7080078125 42244.1953125
  endloop
endfacet
facet normal -1 0 0
  outer loop
    vertex 20614.294921875 15664.6884765625 40455.44140625
    vertex 20614.294921875 15700.1083984375 39499.97265625
    vertex 20614.294921875 15664.6884765625 39499.97265625
  endloop
endfacet
facet normal -1 0 0
  outer loop
    vertex 20614.294921875 15700.1083984375 39499.97265625
    vertex 20614.294921875 15664.6884765625 40455.44140625
    vertex 20614.294921875 15700.1083984375 40455.44140625
  endloop
endfacet
facet normal 0.3001967370510101 -5.884074033812555e-15 -0.953877329826355
  outer loop
    vertex 20672.8828125 15700.1083984375 40448.58984375
    vertex 20646.439453125 15664.6884765625 40429.49609375
    vertex 20646.439453125 15700.1083984375 40429.49609375
  endloop
endfacet
facet normal 0.3001967370510101 -5.884074033812555e-15 -0.953877329826355
  outer loop
    vertex 20646.439453125 15664.6884765625 40429.49609375
    vertex 20672.8828125 15700.1083984375 40448.58984375
    vertex 20672.8828125 15664.6884765625 40448.58984375
  endloop
endfacet
facet normal 1 0 0
  outer loop
    vertex 20646.439453125 15700.1083984375 39499.97265625
    vertex 20646.439453125 15664.6884765625 40429.49609375
    vertex 20646.439453125 15664.6884765625 39499.97265625
  endloop
endfacet
facet normal 1 0 0
  outer loop
    vertex 20646.439453125 15664.6884765625 40429.49609375
    vertex 20646.439453125 15700.1083984375 39499.97265625
    vertex 20646.439453125 15700.1083984375 40429.49609375
  endloop
endfacet
facet normal 7.985522541885479e-15 -1 1.421282660790321e-14
  outer loop
    vertex 20646.439453125 15664.6884765625 40429.49609375
    vertex 20614.294921875 15664.6884765625 39499.97265625
    vertex 20646.439453125 15664.6884765625 39499.97265625
  endloop
endfacet
facet normal 7.985522541885479e-15 -1 1.421282660790321e-14
  outer loop
    vertex 20614.294921875 15664.6884765625 39499.97265625
    vertex 20646.439453125 15664.6884765625 40429.49609375
    vertex 20614.294921875 15664.6884765625 40455.44140625
  endloop
endfacet
facet normal 7.985522541885479e-15 -1 1.421282660790321e-14
  outer loop
    vertex 20614.294921875 15664.6884765625 40455.44140625
    vertex 20646.439453125 15664.6884765625 40429.49609375
    vertex 20672.8828125 15664.6884765625 40448.58984375
  endloop
endfacet
facet normal 7.985522541885479e-15 -1 1.421282660790321e-14
  outer loop
    vertex 20614.294921875 15664.6884765625 40455.44140625
    vertex 20672.8828125 15664.6884765625 40448.58984375
    vertex 23104.51953125 15664.6884765625 42204.14453125
  endloop
endfacet
facet normal 7.985522541885479e-15 -1 1.421282660790321e-14
  outer loop
    vertex 20614.294921875 15664.6884765625 40455.44140625
    vertex 23104.51953125 15664.6884765625 42204.14453125
    vertex 23091.9140625 15664.6884765625 42244.1953125
  endloop
endfacet
facet normal 7.985522541885479e-15 -1 1.421282660790321e-14
  outer loop
    vertex 23091.9140625 15664.6884765625 42244.1953125
    vertex 23104.51953125 15664.6884765625 42204.14453125
    vertex 23104.51953125 15664.6884765625 42253.296875
  endloop
endfacet
facet normal -0.3001967370510101 7.23533806465337e-18 0.953877329826355
  outer loop
    vertex 23104.51953125 15664.6884765625 42253.296875
    vertex 23091.9140625 16003.7080078125 42244.1953125
    vertex 23091.9140625 15664.6884765625 42244.1953125
  endloop
endfacet
facet normal -0.3001967370510101 7.23533806465337e-18 0.953877329826355
  outer loop
    vertex 23091.9140625 16003.7080078125 42244.1953125
    vertex 23104.51953125 15664.6884765625 42253.296875
    vertex 23104.51953125 16003.7080078125 42253.296875
  endloop
endfacet
facet normal 1 0 0
  outer loop
    vertex 23104.51953125 16003.7080078125 42204.14453125
    vertex 23104.51953125 15664.6884765625 42253.296875
    vertex 23104.51953125 15664.6884765625 42204.14453125
  endloop
endfacet
facet normal 1 0 0
  outer loop
    vertex 23104.51953125 15664.6884765625 42253.296875
    vertex 23104.51953125 16003.7080078125 42204.14453125
    vertex 23104.51953125 16003.7080078125 42253.296875
  endloop
endfacet
facet normal 0.3001967370510101 4.179427056666413e-16 -0.953877329826355
  outer loop
    vertex 23104.51953125 16003.7080078125 42204.14453125
    vertex 23078.076171875 15700.1083984375 42185.0546875
    vertex 23078.076171875 16003.7080078125 42185.0546875
  endloop
endfacet
facet normal 0.3001967370510101 4.179427056666413e-16 -0.953877329826355
  outer loop
    vertex 23078.076171875 15700.1083984375 42185.0546875
    vertex 20672.8828125 15664.6884765625 40448.58984375
    vertex 20672.8828125 15700.1083984375 40448.58984375
  endloop
endfacet
facet normal 0.3001967370510101 4.179427056666413e-16 -0.953877329826355
  outer loop
    vertex 20672.8828125 15664.6884765625 40448.58984375
    vertex 23078.076171875 15700.1083984375 42185.0546875
    vertex 23104.51953125 15664.6884765625 42204.14453125
  endloop
endfacet
facet normal 0.3001967370510101 4.179427056666413e-16 -0.953877329826355
  outer loop
    vertex 23104.51953125 15664.6884765625 42204.14453125
    vertex 23078.076171875 15700.1083984375 42185.0546875
    vertex 23104.51953125 16003.7080078125 42204.14453125
  endloop
endfacet
facet normal 0 1 0
  outer loop
    vertex 23078.076171875 16003.7080078125 42234.203125
    vertex 23104.51953125 16003.7080078125 42204.14453125
    vertex 23078.076171875 16003.7080078125 42185.0546875
  endloop
endfacet
facet normal 0 1 0
  outer loop
    vertex 23104.51953125 16003.7080078125 42204.14453125
    vertex 23078.076171875 16003.7080078125 42234.203125
    vertex 23104.51953125 16003.7080078125 42253.296875
  endloop
endfacet
facet normal 0 1 0
  outer loop
    vertex 23104.51953125 16003.7080078125 42253.296875
    vertex 23078.076171875 16003.7080078125 42234.203125
    vertex 23091.9140625 16003.7080078125 42244.1953125
  endloop
endfacet
facet normal -1 0 0
  outer loop
    vertex 23078.076171875 16003.7080078125 42234.203125
    vertex 23078.076171875 15700.1083984375 42185.0546875
    vertex 23078.076171875 15700.1083984375 42234.203125
  endloop
endfacet
facet normal -1 0 0
  outer loop
    vertex 23078.076171875 15700.1083984375 42185.0546875
    vertex 23078.076171875 16003.7080078125 42234.203125
    vertex 23078.076171875 16003.7080078125 42185.0546875
  endloop
endfacet
facet normal 2.361858809658141e-13 -3.041058344813857e-13 -1
  outer loop
    vertex 23072.375 15968.2880859375 41319.08984375
    vertex 23104.51953125 16003.7080078125 41319.08984375
    vertex 23104.51953125 15968.2880859375 41319.08984375
  endloop
endfacet
facet normal 2.361858809658141e-13 -3.041058344813857e-13 -1
  outer loop
    vertex 23104.51953125 16003.7080078125 41319.08984375
    vertex 23072.375 15968.2880859375 41319.08984375
    vertex 23072.375 16003.7080078125 41319.08984375
  endloop
endfacet
facet normal -2.919863244417453e-13 -1 -1.603308516495965e-14
  outer loop
    vertex 23104.51953125 15968.2880859375 41319.08984375
    vertex 23072.375 15968.2880859375 42227.3515625
    vertex 23072.375 15968.2880859375 41319.08984375
  endloop
endfacet
facet normal -2.919863244417453e-13 -1 -1.603308516495965e-14
  outer loop
    vertex 23072.375 15968.2880859375 42227.3515625
    vertex 23104.51953125 15968.2880859375 41319.08984375
    vertex 23104.51953125 15968.2880859375 42253.296875
  endloop
endfacet
facet normal -2.919863244417453e-13 -1 -1.603308516495965e-14
  outer loop
    vertex 23072.375 15968.2880859375 42227.3515625
    vertex 23104.51953125 15968.2880859375 42253.296875
    vertex 23045.931640625 15968.2880859375 42246.44140625
  endloop
endfacet
facet normal -2.919863244417453e-13 -1 -1.603308516495965e-14
  outer loop
    vertex 23045.931640625 15968.2880859375 42246.44140625
    vertex 23104.51953125 15968.2880859375 42253.296875
    vertex 20640.73828125 15968.2880859375 43982.90625
  endloop
endfacet
facet normal -2.919863244417453e-13 -1 -1.603308516495965e-14
  outer loop
    vertex 20640.73828125 15968.2880859375 43982.90625
    vertex 23104.51953125 15968.2880859375 42253.296875
    vertex 20640.73828125 15968.2880859375 44032.05859375
  endloop
endfacet
facet normal 0.3001967370510101 -1.309563351856169e-13 0.953877329826355
  outer loop
    vertex 20626.900390625 16003.7080078125 44042.05078125
    vertex 23104.51953125 15968.2880859375 42253.296875
    vertex 23104.51953125 16003.7080078125 42253.296875
  endloop
endfacet
facet normal 0.3001967370510101 -1.309563351856169e-13 0.953877329826355
  outer loop
    vertex 23104.51953125 15968.2880859375 42253.296875
    vertex 20626.900390625 16003.7080078125 44042.05078125
    vertex 20640.73828125 15968.2880859375 44032.05859375
  endloop
endfacet
facet normal 0.3001967370510101 -1.309563351856169e-13 0.953877329826355
  outer loop
    vertex 20640.73828125 15968.2880859375 44032.05859375
    vertex 20626.900390625 16003.7080078125 44042.05078125
    vertex 20640.73828125 15664.6884765625 44032.05859375
  endloop
endfacet
facet normal 0.3001967370510101 -1.309563351856169e-13 0.953877329826355
  outer loop
    vertex 20640.73828125 15664.6884765625 44032.05859375
    vertex 20626.900390625 16003.7080078125 44042.05078125
    vertex 20626.900390625 15664.6884765625 44042.05078125
  endloop
endfacet
facet normal 1 -4.382862074572141e-13 0
  outer loop
    vertex 23104.51953125 16003.7080078125 42253.296875
    vertex 23104.51953125 15968.2880859375 41319.08984375
    vertex 23104.51953125 16003.7080078125 41319.08984375
  endloop
endfacet
facet normal 1 -4.382862074572141e-13 0
  outer loop
    vertex 23104.51953125 15968.2880859375 41319.08984375
    vertex 23104.51953125 16003.7080078125 42253.296875
    vertex 23104.51953125 15968.2880859375 42253.296875
  endloop
endfacet
facet normal -0.3001967370510101 1.37456167867249e-13 -0.953877329826355
  outer loop
    vertex 23045.931640625 15968.2880859375 42246.44140625
    vertex 23072.375 16003.7080078125 42227.3515625
    vertex 23072.375 15968.2880859375 42227.3515625
  endloop
endfacet
facet normal -0.3001967370510101 1.37456167867249e-13 -0.953877329826355
  outer loop
    vertex 23072.375 16003.7080078125 42227.3515625
    vertex 23045.931640625 15968.2880859375 42246.44140625
    vertex 23045.931640625 16003.7080078125 42246.44140625
  endloop
endfacet
facet normal -1 4.382862074572141e-13 0
  outer loop
    vertex 23072.375 15968.2880859375 41319.08984375
    vertex 23072.375 16003.7080078125 42227.3515625
    vertex 23072.375 16003.7080078125 41319.08984375
  endloop
endfacet
facet normal -1 4.382862074572141e-13 0
  outer loop
    vertex 23072.375 16003.7080078125 42227.3515625
    vertex 23072.375 15968.2880859375 41319.08984375
    vertex 23072.375 15968.2880859375 42227.3515625
  endloop
endfacet
facet normal 2.918011969207934e-13 1 1.421282660790321e-14
  outer loop
    vertex 23072.375 16003.7080078125 42227.3515625
    vertex 23104.51953125 16003.7080078125 41319.08984375
    vertex 23072.375 16003.7080078125 41319.08984375
  endloop
endfacet
facet normal 2.918011969207934e-13 1 1.421282660790321e-14
  outer loop
    vertex 23104.51953125 16003.7080078125 41319.08984375
    vertex 23072.375 16003.7080078125 42227.3515625
    vertex 23104.51953125 16003.7080078125 42253.296875
  endloop
endfacet
facet normal 2.918011969207934e-13 1 1.421282660790321e-14
  outer loop
    vertex 23104.51953125 16003.7080078125 42253.296875
    vertex 23072.375 16003.7080078125 42227.3515625
    vertex 23045.931640625 16003.7080078125 42246.44140625
  endloop
endfacet
facet normal 2.918011969207934e-13 1 1.421282660790321e-14
  outer loop
    vertex 23104.51953125 16003.7080078125 42253.296875
    vertex 23045.931640625 16003.7080078125 42246.44140625
    vertex 20614.294921875 16003.7080078125 44001.99609375
  endloop
endfacet
facet normal 2.918011969207934e-13 1 1.421282660790321e-14
  outer loop
    vertex 23104.51953125 16003.7080078125 42253.296875
    vertex 20614.294921875 16003.7080078125 44001.99609375
    vertex 20626.900390625 16003.7080078125 44042.05078125
  endloop
endfacet
facet normal 2.918011969207934e-13 1 1.421282660790321e-14
  outer loop
    vertex 20626.900390625 16003.7080078125 44042.05078125
    vertex 20614.294921875 16003.7080078125 44001.99609375
    vertex 20614.294921875 16003.7080078125 44051.1484375
  endloop
endfacet
facet normal 0.3001967370510101 -1.315793313064542e-13 0.953877329826355
  outer loop
    vertex 20614.294921875 16003.7080078125 44051.1484375
    vertex 20626.900390625 15664.6884765625 44042.05078125
    vertex 20626.900390625 16003.7080078125 44042.05078125
  endloop
endfacet
facet normal 0.3001967370510101 -1.315793313064542e-13 0.953877329826355
  outer loop
    vertex 20626.900390625 15664.6884765625 44042.05078125
    vertex 20614.294921875 16003.7080078125 44051.1484375
    vertex 20614.294921875 15664.6884765625 44051.1484375
  endloop
endfacet
facet normal -1 4.382862074572141e-13 0
  outer loop
    vertex 20614.294921875 15664.6884765625 44001.99609375
    vertex 20614.294921875 16003.7080078125 44051.1484375
    vertex 20614.294921875 16003.7080078125 44001.99609375
  endloop
endfacet
facet normal -1 4.382862074572141e-13 0
  outer loop
    vertex 20614.294921875 16003.7080078125 44051.1484375
    vertex 20614.294921875 15664.6884765625 44001.99609375
    vertex 20614.294921875 15664.6884765625 44051.1484375
  endloop
endfacet
facet normal -0.3001967370510101 1.311541478719869e-13 -0.953877329826355
  outer loop
    vertex 20614.294921875 15664.6884765625 44001.99609375
    vertex 20640.73828125 15968.2880859375 43982.90625
    vertex 20640.73828125 15664.6884765625 43982.90625
  endloop
endfacet
facet normal -0.3001967370510101 1.311541478719869e-13 -0.953877329826355
  outer loop
    vertex 20640.73828125 15968.2880859375 43982.90625
    vertex 20614.294921875 15664.6884765625 44001.99609375
    vertex 20614.294921875 16003.7080078125 44001.99609375
  endloop
endfacet
facet normal -0.3001967370510101 1.311541478719869e-13 -0.953877329826355
  outer loop
    vertex 20640.73828125 15968.2880859375 43982.90625
    vertex 23045.931640625 16003.7080078125 42246.44140625
    vertex 23045.931640625 15968.2880859375 42246.44140625
  endloop
endfacet
facet normal -0.3001967370510101 1.311541478719869e-13 -0.953877329826355
  outer loop
    vertex 23045.931640625 16003.7080078125 42246.44140625
    vertex 20640.73828125 15968.2880859375 43982.90625
    vertex 20614.294921875 16003.7080078125 44001.99609375
  endloop
endfacet
facet normal -2.997867253919095e-13 -1 0
  outer loop
    vertex 20640.73828125 15664.6884765625 44032.05859375
    vertex 20614.294921875 15664.6884765625 44001.99609375
    vertex 20640.73828125 15664.6884765625 43982.90625
  endloop
endfacet
facet normal -2.997867253919095e-13 -1 0
  outer loop
    vertex 20614.294921875 15664.6884765625 44001.99609375
    vertex 20640.73828125 15664.6884765625 44032.05859375
    vertex 20626.900390625 15664.6884765625 44042.05078125
  endloop
endfacet
facet normal -2.997867253919095e-13 -1 0
  outer loop
    vertex 20614.294921875 15664.6884765625 44001.99609375
    vertex 20626.900390625 15664.6884765625 44042.05078125
    vertex 20614.294921875 15664.6884765625 44051.1484375
  endloop
endfacet
facet normal 1 -4.382862074572141e-13 0
  outer loop
    vertex 20640.73828125 15664.6884765625 44032.05859375
    vertex 20640.73828125 15968.2880859375 43982.90625
    vertex 20640.73828125 15968.2880859375 44032.05859375
  endloop
endfacet
facet normal 1 -4.382862074572141e-13 0
  outer loop
    vertex 20640.73828125 15968.2880859375 43982.90625
    vertex 20640.73828125 15664.6884765625 44032.05859375
    vertex 20640.73828125 15664.6884765625 43982.90625
  endloop
endfacet
facet normal 1 -3.990327491175394e-13 1.780465118601023e-14
  outer loop
    vertex 23104.51953125 15700.1083984375 42253.296875
    vertex 23104.51953125 15664.6884765625 41319.08984375
    vertex 23104.51953125 15700.1083984375 41319.08984375
  endloop
endfacet
facet normal 1 -3.990327491175394e-13 1.780465118601023e-14
  outer loop
    vertex 23104.51953125 15664.6884765625 41319.08984375
    vertex 23104.51953125 15700.1083984375 42253.296875
    vertex 23104.51953125 15664.6884765625 42253.296875
  endloop
endfacet
facet normal -1 2.992745753906817e-13 -2.450350272892917e-14
  outer loop
    vertex 23064.17578125 15664.6884765625 41319.08984375
    vertex 23064.17578125 15700.1083984375 42224.16796875
    vertex 23064.17578125 15700.1083984375 41319.08984375
  endloop
endfacet
facet normal -1 2.992745753906817e-13 -2.450350272892917e-14
  outer loop
    vertex 23064.17578125 15700.1083984375 42224.16796875
    vertex 23064.17578125 15664.6884765625 41319.08984375
    vertex 23064.17578125 15664.6884765625 42224.16796875
  endloop
endfacet
facet normal -1.919327733855211e-13 -1 -3.972110861798564e-14
  outer loop
    vertex 23104.51953125 15664.6884765625 41319.08984375
    vertex 23064.17578125 15664.6884765625 42224.16796875
    vertex 23064.17578125 15664.6884765625 41319.08984375
  endloop
endfacet
facet normal -1.919327733855211e-13 -1 -3.972110861798564e-14
  outer loop
    vertex 23064.17578125 15664.6884765625 42224.16796875
    vertex 23104.51953125 15664.6884765625 41319.08984375
    vertex 23104.51953125 15664.6884765625 42253.296875
  endloop
endfacet
facet normal 7.761234993716119e-15 -6.257067346887579e-13 -1
  outer loop
    vertex 23064.17578125 15664.6884765625 41319.08984375
    vertex 23104.51953125 15700.1083984375 41319.08984375
    vertex 23104.51953125 15664.6884765625 41319.08984375
  endloop
endfacet
facet normal 7.761234993716119e-15 -6.257067346887579e-13 -1
  outer loop
    vertex 23104.51953125 15700.1083984375 41319.08984375
    vertex 23064.17578125 15664.6884765625 41319.08984375
    vertex 23064.17578125 15700.1083984375 41319.08984375
  endloop
endfacet
facet normal 2.225572428172368e-13 1 3.639090710629705e-14
  outer loop
    vertex 23064.17578125 15700.1083984375 42224.16796875
    vertex 23104.51953125 15700.1083984375 41319.08984375
    vertex 23064.17578125 15700.1083984375 41319.08984375
  endloop
endfacet
facet normal 2.225572428172368e-13 1 3.639090710629705e-14
  outer loop
    vertex 23104.51953125 15700.1083984375 41319.08984375
    vertex 23064.17578125 15700.1083984375 42224.16796875
    vertex 23104.51953125 15700.1083984375 42253.296875
  endloop
endfacet
facet normal -0.3001967370510101 2.822771855669204e-13 0.953877329826355
  outer loop
    vertex 23064.17578125 15700.1083984375 42224.16796875
    vertex 23104.51953125 15664.6884765625 42253.296875
    vertex 23104.51953125 15700.1083984375 42253.296875
  endloop
endfacet
facet normal -0.3001967370510101 2.822771855669204e-13 0.953877329826355
  outer loop
    vertex 23104.51953125 15664.6884765625 42253.296875
    vertex 23064.17578125 15700.1083984375 42224.16796875
    vertex 23064.17578125 15664.6884765625 42224.16796875
  endloop
endfacet
facet normal -5.034247758245458e-13 3.548367979652745e-12 -1
  outer loop
    vertex 23041.376953125 17566.02734375 41131.47265625
    vertex 23104.521484375 15944.92578125 41131.47265625
    vertex 23041.376953125 15944.9267578125 41131.47265625
  endloop
endfacet
facet normal -5.034247758245458e-13 3.548367979652745e-12 -1
  outer loop
    vertex 23104.521484375 15944.92578125 41131.47265625
    vertex 23041.376953125 17566.02734375 41131.47265625
    vertex 23798.296875 17566.02734375 41131.47265625
  endloop
endfacet
facet normal -5.034247758245458e-13 3.548367979652745e-12 -1
  outer loop
    vertex 23104.51953125 15684.873046875 41131.47265625
    vertex 23041.376953125 14415.0703125 41131.47265625
    vertex 23041.375 15684.869140625 41131.47265625
  endloop
endfacet
facet normal -5.034247758245458e-13 3.548367979652745e-12 -1
  outer loop
    vertex 23041.376953125 14415.0703125 41131.47265625
    vertex 23104.51953125 15684.873046875 41131.47265625
    vertex 24705.78515625 14415.0703125 41131.47265625
  endloop
endfacet
facet normal -5.034247758245458e-13 3.548367979652745e-12 -1
  outer loop
    vertex 24705.78515625 14415.0703125 41131.47265625
    vertex 23104.51953125 15684.873046875 41131.47265625
    vertex 23104.521484375 15944.92578125 41131.47265625
  endloop
endfacet
facet normal -5.034247758245458e-13 3.548367979652745e-12 -1
  outer loop
    vertex 24705.78515625 14415.0703125 41131.47265625
    vertex 23104.521484375 15944.92578125 41131.47265625
    vertex 23798.296875 17566.02734375 41131.47265625
  endloop
endfacet
facet normal -5.034247758245458e-13 3.548367979652745e-12 -1
  outer loop
    vertex 24705.78515625 14415.0703125 41131.47265625
    vertex 23798.296875 17566.02734375 41131.47265625
    vertex 24705.78515625 17566.02734375 41131.47265625
  endloop
endfacet
facet normal 5.034247758245458e-13 -3.548367979652745e-12 1
  outer loop
    vertex 23041.376953125 14415.0703125 41319.08984375
    vertex 23104.51953125 15684.873046875 41319.08984375
    vertex 23041.375 15684.869140625 41319.08984375
  endloop
endfacet
facet normal 5.034247758245458e-13 -3.548367979652745e-12 1
  outer loop
    vertex 23104.51953125 15684.873046875 41319.08984375
    vertex 23041.376953125 14415.0703125 41319.08984375
    vertex 24705.78515625 14415.0703125 41319.08984375
  endloop
endfacet
facet normal 5.034247758245458e-13 -3.548367979652745e-12 1
  outer loop
    vertex 23104.51953125 15684.873046875 41319.08984375
    vertex 24705.78515625 14415.0703125 41319.08984375
    vertex 23104.521484375 15944.92578125 41319.08984375
  endloop
endfacet
facet normal 5.034247758245458e-13 -3.548367979652745e-12 1
  outer loop
    vertex 23104.521484375 15944.92578125 41319.08984375
    vertex 24705.78515625 14415.0703125 41319.08984375
    vertex 23798.296875 17566.02734375 41319.08984375
  endloop
endfacet
facet normal 5.034247758245458e-13 -3.548367979652745e-12 1
  outer loop
    vertex 23798.296875 17566.02734375 41319.08984375
    vertex 24705.78515625 14415.0703125 41319.08984375
    vertex 24705.78515625 17566.02734375 41319.08984375
  endloop
endfacet
facet normal 5.034247758245458e-13 -3.548367979652745e-12 1
  outer loop
    vertex 23104.521484375 15944.92578125 41319.08984375
    vertex 23041.376953125 17566.02734375 41319.08984375
    vertex 23041.376953125 15944.9267578125 41319.08984375
  endloop
endfacet
facet normal 5.034247758245458e-13 -3.548367979652745e-12 1
  outer loop
    vertex 23041.376953125 17566.02734375 41319.08984375
    vertex 23104.521484375 15944.92578125 41319.08984375
    vertex 23798.296875 17566.02734375 41319.08984375
  endloop
endfacet
facet normal 0 -1 -5.702258543821559e-12
  outer loop
    vertex 24705.78515625 14415.0703125 41319.08984375
    vertex 23041.376953125 14415.0703125 41131.47265625
    vertex 24705.78515625 14415.0703125 41131.47265625
  endloop
endfacet
facet normal 0 -1 -5.702258543821559e-12
  outer loop
    vertex 23041.376953125 14415.0703125 41131.47265625
    vertex 24705.78515625 14415.0703125 41319.08984375
    vertex 23041.376953125 14415.0703125 41319.08984375
  endloop
endfacet
facet normal -1 7.726591813419695e-25 2.032940656093718e-12
  outer loop
    vertex 23041.375 15684.869140625 41319.08984375
    vertex 23041.376953125 14415.0703125 41131.47265625
    vertex 23041.376953125 14415.0703125 41319.08984375
  endloop
endfacet
facet normal -1 7.726591813419695e-25 2.032940656093718e-12
  outer loop
    vertex 23041.376953125 14415.0703125 41131.47265625
    vertex 23041.375 15684.869140625 41319.08984375
    vertex 23041.375 15684.869140625 41131.47265625
  endloop
endfacet
facet normal -2.330918505322188e-05 1 5.702306248717148e-12
  outer loop
    vertex 23041.375 15684.869140625 41319.08984375
    vertex 23104.51953125 15684.873046875 41131.47265625
    vertex 23041.375 15684.869140625 41131.47265625
  endloop
endfacet
facet normal -2.330918505322188e-05 1 5.702306248717148e-12
  outer loop
    vertex 23104.51953125 15684.873046875 41131.47265625
    vertex 23041.375 15684.869140625 41319.08984375
    vertex 23104.51953125 15684.873046875 41319.08984375
  endloop
endfacet
facet normal -1 2.513080517019262e-06 2.032954967562395e-12
  outer loop
    vertex 23104.521484375 15944.92578125 41319.08984375
    vertex 23104.51953125 15684.873046875 41131.47265625
    vertex 23104.51953125 15684.873046875 41319.08984375
  endloop
endfacet
facet normal -1 2.513080517019262e-06 2.032954967562395e-12
  outer loop
    vertex 23104.51953125 15684.873046875 41131.47265625
    vertex 23104.521484375 15944.92578125 41319.08984375
    vertex 23104.521484375 15944.92578125 41131.47265625
  endloop
endfacet
facet normal -1.41778571105533e-06 -1 -5.702255941736345e-12
  outer loop
    vertex 23104.521484375 15944.92578125 41319.08984375
    vertex 23041.376953125 15944.9267578125 41131.47265625
    vertex 23104.521484375 15944.92578125 41131.47265625
  endloop
endfacet
facet normal -1.41778571105533e-06 -1 -5.702255941736345e-12
  outer loop
    vertex 23041.376953125 15944.9267578125 41131.47265625
    vertex 23104.521484375 15944.92578125 41319.08984375
    vertex 23041.376953125 15944.9267578125 41319.08984375
  endloop
endfacet
facet normal -1 -2.673679324089609e-23 2.032940656093718e-12
  outer loop
    vertex 23041.376953125 17566.02734375 41319.08984375
    vertex 23041.376953125 15944.9267578125 41131.47265625
    vertex 23041.376953125 15944.9267578125 41319.08984375
  endloop
endfacet
facet normal -1 -2.673679324089609e-23 2.032940656093718e-12
  outer loop
    vertex 23041.376953125 15944.9267578125 41131.47265625
    vertex 23041.376953125 17566.02734375 41319.08984375
    vertex 23041.376953125 17566.02734375 41131.47265625
  endloop
endfacet
facet normal 1.435803761440501e-24 1 5.702258543821559e-12
  outer loop
    vertex 23041.376953125 17566.02734375 41131.47265625
    vertex 23798.296875 17566.02734375 41319.08984375
    vertex 23798.296875 17566.02734375 41131.47265625
  endloop
endfacet
facet normal 1.435803761440501e-24 1 5.702258543821559e-12
  outer loop
    vertex 23798.296875 17566.02734375 41319.08984375
    vertex 23041.376953125 17566.02734375 41131.47265625
    vertex 23041.376953125 17566.02734375 41319.08984375
  endloop
endfacet
facet normal 1.821620789323533e-13 1 5.702258543821559e-12
  outer loop
    vertex 23798.296875 17566.02734375 41131.47265625
    vertex 24705.78515625 17566.02734375 41319.08984375
    vertex 24705.78515625 17566.02734375 41131.47265625
  endloop
endfacet
facet normal 1.821620789323533e-13 1 5.702258543821559e-12
  outer loop
    vertex 24705.78515625 17566.02734375 41319.08984375
    vertex 23798.296875 17566.02734375 41131.47265625
    vertex 23798.296875 17566.02734375 41319.08984375
  endloop
endfacet
facet normal 1 -1.778188734495936e-13 -2.032940656093718e-12
  outer loop
    vertex 24705.78515625 14415.0703125 41131.47265625
    vertex 24705.78515625 17566.02734375 41319.08984375
    vertex 24705.78515625 14415.0703125 41319.08984375
  endloop
endfacet
facet normal 1 -1.778188734495936e-13 -2.032940656093718e-12
  outer loop
    vertex 24705.78515625 17566.02734375 41319.08984375
    vertex 24705.78515625 14415.0703125 41131.47265625
    vertex 24705.78515625 17566.02734375 41131.47265625
  endloop
endfacet
facet normal -6.988275441587863e-42 -2.988248212244804e-13 -1
  outer loop
    vertex 21022.712890625 17566.02734375 42769.31640625
    vertex 20770.37890625 16296.0849609375 42769.31640625
    vertex 20770.37890625 17566.02734375 42769.31640625
  endloop
endfacet
facet normal -6.988275441587863e-42 -2.988248212244804e-13 -1
  outer loop
    vertex 20770.37890625 16296.0849609375 42769.31640625
    vertex 21022.712890625 17566.02734375 42769.31640625
    vertex 21022.712890625 16296.0849609375 42769.31640625
  endloop
endfacet
facet normal 6.988275441587863e-42 2.988248212244804e-13 1
  outer loop
    vertex 21022.712890625 16296.0849609375 42950.59375
    vertex 20770.37890625 17566.02734375 42950.59375
    vertex 20770.37890625 16296.0849609375 42950.59375
  endloop
endfacet
facet normal 6.988275441587863e-42 2.988248212244804e-13 1
  outer loop
    vertex 20770.37890625 17566.02734375 42950.59375
    vertex 21022.712890625 16296.0849609375 42950.59375
    vertex 21022.712890625 17566.02734375 42950.59375
  endloop
endfacet
facet normal 1 -0 -1.587531030233585e-41
  outer loop
    vertex 21022.712890625 17566.02734375 42769.31640625
    vertex 21022.712890625 16296.0849609375 42950.59375
    vertex 21022.712890625 16296.0849609375 42769.31640625
  endloop
endfacet
facet normal 1 -0 -1.587531030233585e-41
  outer loop
    vertex 21022.712890625 16296.0849609375 42950.59375
    vertex 21022.712890625 17566.02734375 42769.31640625
    vertex 21022.712890625 17566.02734375 42950.59375
  endloop
endfacet
facet normal 0 -1 4.802141215058675e-13
  outer loop
    vertex 21022.712890625 16296.0849609375 42950.59375
    vertex 20770.37890625 16296.0849609375 42769.31640625
    vertex 21022.712890625 16296.0849609375 42769.31640625
  endloop
endfacet
facet normal 0 -1 4.802141215058675e-13
  outer loop
    vertex 20770.37890625 16296.0849609375 42769.31640625
    vertex 21022.712890625 16296.0849609375 42950.59375
    vertex 20770.37890625 16296.0849609375 42950.59375
  endloop
endfacet
facet normal -1 0 1.587531030233585e-41
  outer loop
    vertex 20770.37890625 16296.0849609375 42950.59375
    vertex 20770.37890625 17566.02734375 42769.31640625
    vertex 20770.37890625 16296.0849609375 42769.31640625
  endloop
endfacet
facet normal -1 0 1.587531030233585e-41
  outer loop
    vertex 20770.37890625 17566.02734375 42769.31640625
    vertex 20770.37890625 16296.0849609375 42950.59375
    vertex 20770.37890625 17566.02734375 42950.59375
  endloop
endfacet
facet normal 0 1 -4.802141215058675e-13
  outer loop
    vertex 20770.37890625 17566.02734375 42950.59375
    vertex 21022.712890625 17566.02734375 42769.31640625
    vertex 20770.37890625 17566.02734375 42769.31640625
  endloop
endfacet
facet normal 0 1 -4.802141215058675e-13
  outer loop
    vertex 21022.712890625 17566.02734375 42769.31640625
    vertex 20770.37890625 17566.02734375 42950.59375
    vertex 21022.712890625 17566.02734375 42950.59375
  endloop
endfacet
facet normal -6.988275441587863e-42 -2.988248212244804e-13 -1
  outer loop
    vertex 22032.044921875 17566.02734375 42044.203125
    vertex 21779.7109375 16296.0849609375 42044.203125
    vertex 21779.7109375 17566.02734375 42044.203125
  endloop
endfacet
facet normal -6.988275441587863e-42 -2.988248212244804e-13 -1
  outer loop
    vertex 21779.7109375 16296.0849609375 42044.203125
    vertex 22032.044921875 17566.02734375 42044.203125
    vertex 22032.044921875 16296.0849609375 42044.203125
  endloop
endfacet
facet normal 6.988275441587863e-42 2.988248212244804e-13 1
  outer loop
    vertex 22032.044921875 16296.0849609375 42225.48046875
    vertex 21779.7109375 17566.02734375 42225.48046875
    vertex 21779.7109375 16296.0849609375 42225.48046875
  endloop
endfacet
facet normal 6.988275441587863e-42 2.988248212244804e-13 1
  outer loop
    vertex 21779.7109375 17566.02734375 42225.48046875
    vertex 22032.044921875 16296.0849609375 42225.48046875
    vertex 22032.044921875 17566.02734375 42225.48046875
  endloop
endfacet
facet normal 1 -0 -1.587531030233585e-41
  outer loop
    vertex 22032.044921875 17566.02734375 42044.203125
    vertex 22032.044921875 16296.0849609375 42225.48046875
    vertex 22032.044921875 16296.0849609375 42044.203125
  endloop
endfacet
facet normal 1 -0 -1.587531030233585e-41
  outer loop
    vertex 22032.044921875 16296.0849609375 42225.48046875
    vertex 22032.044921875 17566.02734375 42044.203125
    vertex 22032.044921875 17566.02734375 42225.48046875
  endloop
endfacet
facet normal 0 -1 4.802141215058675e-13
  outer loop
    vertex 22032.044921875 16296.0849609375 42225.48046875
    vertex 21779.7109375 16296.0849609375 42044.203125
    vertex 22032.044921875 16296.0849609375 42044.203125
  endloop
endfacet
facet normal 0 -1 4.802141215058675e-13
  outer loop
    vertex 21779.7109375 16296.0849609375 42044.203125
    vertex 22032.044921875 16296.0849609375 42225.48046875
    vertex 21779.7109375 16296.0849609375 42225.48046875
  endloop
endfacet
facet normal -1 0 1.587531030233585e-41
  outer loop
    vertex 21779.7109375 16296.0849609375 42225.48046875
    vertex 21779.7109375 17566.02734375 42044.203125
    vertex 21779.7109375 16296.0849609375 42044.203125
  endloop
endfacet
facet normal -1 0 1.587531030233585e-41
  outer loop
    vertex 21779.7109375 17566.02734375 42044.203125
    vertex 21779.7109375 16296.0849609375 42225.48046875
    vertex 21779.7109375 17566.02734375 42225.48046875
  endloop
endfacet
facet normal 0 1 -4.802141215058675e-13
  outer loop
    vertex 21779.7109375 17566.02734375 42225.48046875
    vertex 22032.044921875 17566.02734375 42044.203125
    vertex 21779.7109375 17566.02734375 42044.203125
  endloop
endfacet
facet normal 0 1 -4.802141215058675e-13
  outer loop
    vertex 22032.044921875 17566.02734375 42044.203125
    vertex 21779.7109375 17566.02734375 42225.48046875
    vertex 22032.044921875 17566.02734375 42225.48046875
  endloop
endfacet
facet normal -6.988275441587863e-42 -2.988248212244804e-13 -1
  outer loop
    vertex 21527.37890625 17566.02734375 42406.7578125
    vertex 21275.044921875 16296.0849609375 42406.7578125
    vertex 21275.044921875 17566.02734375 42406.7578125
  endloop
endfacet
facet normal -6.988275441587863e-42 -2.988248212244804e-13 -1
  outer loop
    vertex 21275.044921875 16296.0849609375 42406.7578125
    vertex 21527.37890625 17566.02734375 42406.7578125
    vertex 21527.37890625 16296.0849609375 42406.7578125
  endloop
endfacet
facet normal 6.988275441587863e-42 2.988248212244804e-13 1
  outer loop
    vertex 21527.37890625 16296.0849609375 42588.03515625
    vertex 21275.044921875 17566.02734375 42588.03515625
    vertex 21275.044921875 16296.0849609375 42588.03515625
  endloop
endfacet
facet normal 6.988275441587863e-42 2.988248212244804e-13 1
  outer loop
    vertex 21275.044921875 17566.02734375 42588.03515625
    vertex 21527.37890625 16296.0849609375 42588.03515625
    vertex 21527.37890625 17566.02734375 42588.03515625
  endloop
endfacet
facet normal 1 -0 -1.587531030233585e-41
  outer loop
    vertex 21527.37890625 17566.02734375 42406.7578125
    vertex 21527.37890625 16296.0849609375 42588.03515625
    vertex 21527.37890625 16296.0849609375 42406.7578125
  endloop
endfacet
facet normal 1 -0 -1.587531030233585e-41
  outer loop
    vertex 21527.37890625 16296.0849609375 42588.03515625
    vertex 21527.37890625 17566.02734375 42406.7578125
    vertex 21527.37890625 17566.02734375 42588.03515625
  endloop
endfacet
facet normal 0 -1 4.802141215058675e-13
  outer loop
    vertex 21527.37890625 16296.0849609375 42588.03515625
    vertex 21275.044921875 16296.0849609375 42406.7578125
    vertex 21527.37890625 16296.0849609375 42406.7578125
  endloop
endfacet
facet normal 0 -1 4.802141215058675e-13
  outer loop
    vertex 21275.044921875 16296.0849609375 42406.7578125
    vertex 21527.37890625 16296.0849609375 42588.03515625
    vertex 21275.044921875 16296.0849609375 42588.03515625
  endloop
endfacet
facet normal -1 0 1.587531030233585e-41
  outer loop
    vertex 21275.044921875 16296.0849609375 42588.03515625
    vertex 21275.044921875 17566.02734375 42406.7578125
    vertex 21275.044921875 16296.0849609375 42406.7578125
  endloop
endfacet
facet normal -1 0 1.587531030233585e-41
  outer loop
    vertex 21275.044921875 17566.02734375 42406.7578125
    vertex 21275.044921875 16296.0849609375 42588.03515625
    vertex 21275.044921875 17566.02734375 42588.03515625
  endloop
endfacet
facet normal 0 1 -4.802141215058675e-13
  outer loop
    vertex 21275.044921875 17566.02734375 42588.03515625
    vertex 21527.37890625 17566.02734375 42406.7578125
    vertex 21275.044921875 17566.02734375 42406.7578125
  endloop
endfacet
facet normal 0 1 -4.802141215058675e-13
  outer loop
    vertex 21527.37890625 17566.02734375 42406.7578125
    vertex 21275.044921875 17566.02734375 42588.03515625
    vertex 21527.37890625 17566.02734375 42588.03515625
  endloop
endfacet
facet normal -6.988275441587863e-42 -2.988248212244804e-13 -1
  outer loop
    vertex 21275.044921875 17566.02734375 42588.03515625
    vertex 21022.712890625 16296.0849609375 42588.03515625
    vertex 21022.712890625 17566.02734375 42588.03515625
  endloop
endfacet
facet normal -6.988275441587863e-42 -2.988248212244804e-13 -1
  outer loop
    vertex 21022.712890625 16296.0849609375 42588.03515625
    vertex 21275.044921875 17566.02734375 42588.03515625
    vertex 21275.044921875 16296.0849609375 42588.03515625
  endloop
endfacet
facet normal 6.988275441587863e-42 2.988248212244804e-13 1
  outer loop
    vertex 21275.044921875 16296.0849609375 42769.31640625
    vertex 21022.712890625 17566.02734375 42769.31640625
    vertex 21022.712890625 16296.0849609375 42769.31640625
  endloop
endfacet
facet normal 6.988275441587863e-42 2.988248212244804e-13 1
  outer loop
    vertex 21022.712890625 17566.02734375 42769.31640625
    vertex 21275.044921875 16296.0849609375 42769.31640625
    vertex 21275.044921875 17566.02734375 42769.31640625
  endloop
endfacet
facet normal 1 -0 -1.587531030233585e-41
  outer loop
    vertex 21275.044921875 17566.02734375 42588.03515625
    vertex 21275.044921875 16296.0849609375 42769.31640625
    vertex 21275.044921875 16296.0849609375 42588.03515625
  endloop
endfacet
facet normal 1 -0 -1.587531030233585e-41
  outer loop
    vertex 21275.044921875 16296.0849609375 42769.31640625
    vertex 21275.044921875 17566.02734375 42588.03515625
    vertex 21275.044921875 17566.02734375 42769.31640625
  endloop
endfacet
facet normal 0 -1 4.802141215058675e-13
  outer loop
    vertex 21275.044921875 16296.0849609375 42769.31640625
    vertex 21022.712890625 16296.0849609375 42588.03515625
    vertex 21275.044921875 16296.0849609375 42588.03515625
  endloop
endfacet
facet normal 0 -1 4.802141215058675e-13
  outer loop
    vertex 21022.712890625 16296.0849609375 42588.03515625
    vertex 21275.044921875 16296.0849609375 42769.31640625
    vertex 21022.712890625 16296.0849609375 42769.31640625
  endloop
endfacet
facet normal -1 0 1.587531030233585e-41
  outer loop
    vertex 21022.712890625 16296.0849609375 42769.31640625
    vertex 21022.712890625 17566.02734375 42588.03515625
    vertex 21022.712890625 16296.0849609375 42588.03515625
  endloop
endfacet
facet normal -1 0 1.587531030233585e-41
  outer loop
    vertex 21022.712890625 17566.02734375 42588.03515625
    vertex 21022.712890625 16296.0849609375 42769.31640625
    vertex 21022.712890625 17566.02734375 42769.31640625
  endloop
endfacet
facet normal 0 1 -4.802141215058675e-13
  outer loop
    vertex 21022.712890625 17566.02734375 42769.31640625
    vertex 21275.044921875 17566.02734375 42588.03515625
    vertex 21022.712890625 17566.02734375 42588.03515625
  endloop
endfacet
facet normal 0 1 -4.802141215058675e-13
  outer loop
    vertex 21275.044921875 17566.02734375 42588.03515625
    vertex 21022.712890625 17566.02734375 42769.31640625
    vertex 21275.044921875 17566.02734375 42769.31640625
  endloop
endfacet
facet normal -6.988275441587863e-42 -2.988248212244804e-13 -1
  outer loop
    vertex 22284.376953125 17566.02734375 41862.92578125
    vertex 22032.044921875 16296.0849609375 41862.92578125
    vertex 22032.044921875 17566.02734375 41862.92578125
  endloop
endfacet
facet normal -6.988275441587863e-42 -2.988248212244804e-13 -1
  outer loop
    vertex 22032.044921875 16296.0849609375 41862.92578125
    vertex 22284.376953125 17566.02734375 41862.92578125
    vertex 22284.376953125 16296.0849609375 41862.92578125
  endloop
endfacet
facet normal 6.988275441587863e-42 2.988248212244804e-13 1
  outer loop
    vertex 22284.376953125 16296.0849609375 42044.203125
    vertex 22032.044921875 17566.02734375 42044.203125
    vertex 22032.044921875 16296.0849609375 42044.203125
  endloop
endfacet
facet normal 6.988275441587863e-42 2.988248212244804e-13 1
  outer loop
    vertex 22032.044921875 17566.02734375 42044.203125
    vertex 22284.376953125 16296.0849609375 42044.203125
    vertex 22284.376953125 17566.02734375 42044.203125
  endloop
endfacet
facet normal 1 -0 -1.587531030233585e-41
  outer loop
    vertex 22284.376953125 17566.02734375 41862.92578125
    vertex 22284.376953125 16296.0849609375 42044.203125
    vertex 22284.376953125 16296.0849609375 41862.92578125
  endloop
endfacet
facet normal 1 -0 -1.587531030233585e-41
  outer loop
    vertex 22284.376953125 16296.0849609375 42044.203125
    vertex 22284.376953125 17566.02734375 41862.92578125
    vertex 22284.376953125 17566.02734375 42044.203125
  endloop
endfacet
facet normal 0 -1 4.802141215058675e-13
  outer loop
    vertex 22284.376953125 16296.0849609375 42044.203125
    vertex 22032.044921875 16296.0849609375 41862.92578125
    vertex 22284.376953125 16296.0849609375 41862.92578125
  endloop
endfacet
facet normal 0 -1 4.802141215058675e-13
  outer loop
    vertex 22032.044921875 16296.0849609375 41862.92578125
    vertex 22284.376953125 16296.0849609375 42044.203125
    vertex 22032.044921875 16296.0849609375 42044.203125
  endloop
endfacet
facet normal -1 0 1.587531030233585e-41
  outer loop
    vertex 22032.044921875 16296.0849609375 42044.203125
    vertex 22032.044921875 17566.02734375 41862.92578125
    vertex 22032.044921875 16296.0849609375 41862.92578125
  endloop
endfacet
facet normal -1 0 1.587531030233585e-41
  outer loop
    vertex 22032.044921875 17566.02734375 41862.92578125
    vertex 22032.044921875 16296.0849609375 42044.203125
    vertex 22032.044921875 17566.02734375 42044.203125
  endloop
endfacet
facet normal 0 1 -4.802141215058675e-13
  outer loop
    vertex 22032.044921875 17566.02734375 42044.203125
    vertex 22284.376953125 17566.02734375 41862.92578125
    vertex 22032.044921875 17566.02734375 41862.92578125
  endloop
endfacet
facet normal 0 1 -4.802141215058675e-13
  outer loop
    vertex 22284.376953125 17566.02734375 41862.92578125
    vertex 22032.044921875 17566.02734375 42044.203125
    vertex 22284.376953125 17566.02734375 42044.203125
  endloop
endfacet
facet normal -6.988275441587863e-42 -2.988248212244804e-13 -1
  outer loop
    vertex 20770.37890625 17566.02734375 42950.59375
    vertex 20518.046875 16296.0849609375 42950.59375
    vertex 20518.046875 17566.02734375 42950.59375
  endloop
endfacet
facet normal -6.988275441587863e-42 -2.988248212244804e-13 -1
  outer loop
    vertex 20518.046875 16296.0849609375 42950.59375
    vertex 20770.37890625 17566.02734375 42950.59375
    vertex 20770.37890625 16296.0849609375 42950.59375
  endloop
endfacet
facet normal 6.988275441587863e-42 2.988248212244804e-13 1
  outer loop
    vertex 20770.37890625 16296.0849609375 43131.87109375
    vertex 20518.046875 17566.02734375 43131.87109375
    vertex 20518.046875 16296.0849609375 43131.87109375
  endloop
endfacet
facet normal 6.988275441587863e-42 2.988248212244804e-13 1
  outer loop
    vertex 20518.046875 17566.02734375 43131.87109375
    vertex 20770.37890625 16296.0849609375 43131.87109375
    vertex 20770.37890625 17566.02734375 43131.87109375
  endloop
endfacet
facet normal 1 -0 -1.587531030233585e-41
  outer loop
    vertex 20770.37890625 17566.02734375 42950.59375
    vertex 20770.37890625 16296.0849609375 43131.87109375
    vertex 20770.37890625 16296.0849609375 42950.59375
  endloop
endfacet
facet normal 1 -0 -1.587531030233585e-41
  outer loop
    vertex 20770.37890625 16296.0849609375 43131.87109375
    vertex 20770.37890625 17566.02734375 42950.59375
    vertex 20770.37890625 17566.02734375 43131.87109375
  endloop
endfacet
facet normal 0 -1 4.802141215058675e-13
  outer loop
    vertex 20770.37890625 16296.0849609375 43131.87109375
    vertex 20518.046875 16296.0849609375 42950.59375
    vertex 20770.37890625 16296.0849609375 42950.59375
  endloop
endfacet
facet normal 0 -1 4.802141215058675e-13
  outer loop
    vertex 20518.046875 16296.0849609375 42950.59375
    vertex 20770.37890625 16296.0849609375 43131.87109375
    vertex 20518.046875 16296.0849609375 43131.87109375
  endloop
endfacet
facet normal -1 0 1.587531030233585e-41
  outer loop
    vertex 20518.046875 16296.0849609375 43131.87109375
    vertex 20518.046875 17566.02734375 42950.59375
    vertex 20518.046875 16296.0849609375 42950.59375
  endloop
endfacet
facet normal -1 0 1.587531030233585e-41
  outer loop
    vertex 20518.046875 17566.02734375 42950.59375
    vertex 20518.046875 16296.0849609375 43131.87109375
    vertex 20518.046875 17566.02734375 43131.87109375
  endloop
endfacet
facet normal 0 1 -4.802141215058675e-13
  outer loop
    vertex 20518.046875 17566.02734375 43131.87109375
    vertex 20770.37890625 17566.02734375 42950.59375
    vertex 20518.046875 17566.02734375 42950.59375
  endloop
endfacet
facet normal 0 1 -4.802141215058675e-13
  outer loop
    vertex 20770.37890625 17566.02734375 42950.59375
    vertex 20518.046875 17566.02734375 43131.87109375
    vertex 20770.37890625 17566.02734375 43131.87109375
  endloop
endfacet
facet normal -6.988275441587863e-42 -2.988248212244804e-13 -1
  outer loop
    vertex 21779.7109375 17566.02734375 42225.48046875
    vertex 21527.37890625 16296.0849609375 42225.48046875
    vertex 21527.37890625 17566.02734375 42225.48046875
  endloop
endfacet
facet normal -6.988275441587863e-42 -2.988248212244804e-13 -1
  outer loop
    vertex 21527.37890625 16296.0849609375 42225.48046875
    vertex 21779.7109375 17566.02734375 42225.48046875
    vertex 21779.7109375 16296.0849609375 42225.48046875
  endloop
endfacet
facet normal 6.988275441587863e-42 2.988248212244804e-13 1
  outer loop
    vertex 21779.7109375 16296.0849609375 42406.7578125
    vertex 21527.37890625 17566.02734375 42406.7578125
    vertex 21527.37890625 16296.0849609375 42406.7578125
  endloop
endfacet
facet normal 6.988275441587863e-42 2.988248212244804e-13 1
  outer loop
    vertex 21527.37890625 17566.02734375 42406.7578125
    vertex 21779.7109375 16296.0849609375 42406.7578125
    vertex 21779.7109375 17566.02734375 42406.7578125
  endloop
endfacet
facet normal 1 -0 -1.587531030233585e-41
  outer loop
    vertex 21779.7109375 17566.02734375 42225.48046875
    vertex 21779.7109375 16296.0849609375 42406.7578125
    vertex 21779.7109375 16296.0849609375 42225.48046875
  endloop
endfacet
facet normal 1 -0 -1.587531030233585e-41
  outer loop
    vertex 21779.7109375 16296.0849609375 42406.7578125
    vertex 21779.7109375 17566.02734375 42225.48046875
    vertex 21779.7109375 17566.02734375 42406.7578125
  endloop
endfacet
facet normal 0 -1 4.802141215058675e-13
  outer loop
    vertex 21779.7109375 16296.0849609375 42406.7578125
    vertex 21527.37890625 16296.0849609375 42225.48046875
    vertex 21779.7109375 16296.0849609375 42225.48046875
  endloop
endfacet
facet normal 0 -1 4.802141215058675e-13
  outer loop
    vertex 21527.37890625 16296.0849609375 42225.48046875
    vertex 21779.7109375 16296.0849609375 42406.7578125
    vertex 21527.37890625 16296.0849609375 42406.7578125
  endloop
endfacet
facet normal -1 0 1.587531030233585e-41
  outer loop
    vertex 21527.37890625 16296.0849609375 42406.7578125
    vertex 21527.37890625 17566.02734375 42225.48046875
    vertex 21527.37890625 16296.0849609375 42225.48046875
  endloop
endfacet
facet normal -1 0 1.587531030233585e-41
  outer loop
    vertex 21527.37890625 17566.02734375 42225.48046875
    vertex 21527.37890625 16296.0849609375 42406.7578125
    vertex 21527.37890625 17566.02734375 42406.7578125
  endloop
endfacet
facet normal 0 1 -4.802141215058675e-13
  outer loop
    vertex 21527.37890625 17566.02734375 42406.7578125
    vertex 21779.7109375 17566.02734375 42225.48046875
    vertex 21527.37890625 17566.02734375 42225.48046875
  endloop
endfacet
facet normal 0 1 -4.802141215058675e-13
  outer loop
    vertex 21779.7109375 17566.02734375 42225.48046875
    vertex 21527.37890625 17566.02734375 42406.7578125
    vertex 21779.7109375 17566.02734375 42406.7578125
  endloop
endfacet
facet normal -6.988275441587863e-42 -2.988248212244804e-13 -1
  outer loop
    vertex 23041.376953125 17566.02734375 41319.08984375
    vertex 22789.04296875 16296.0849609375 41319.08984375
    vertex 22789.04296875 17566.02734375 41319.08984375
  endloop
endfacet
facet normal -6.988275441587863e-42 -2.988248212244804e-13 -1
  outer loop
    vertex 22789.04296875 16296.0849609375 41319.08984375
    vertex 23041.376953125 17566.02734375 41319.08984375
    vertex 23041.376953125 16296.0849609375 41319.08984375
  endloop
endfacet
facet normal 6.988275441587863e-42 2.988248212244804e-13 1
  outer loop
    vertex 23041.376953125 16296.0849609375 41500.3671875
    vertex 22789.04296875 17566.02734375 41500.3671875
    vertex 22789.04296875 16296.0849609375 41500.3671875
  endloop
endfacet
facet normal 6.988275441587863e-42 2.988248212244804e-13 1
  outer loop
    vertex 22789.04296875 17566.02734375 41500.3671875
    vertex 23041.376953125 16296.0849609375 41500.3671875
    vertex 23041.376953125 17566.02734375 41500.3671875
  endloop
endfacet
facet normal 1 -0 -1.587531030233585e-41
  outer loop
    vertex 23041.376953125 17566.02734375 41319.08984375
    vertex 23041.376953125 16296.0849609375 41500.3671875
    vertex 23041.376953125 16296.0849609375 41319.08984375
  endloop
endfacet
facet normal 1 -0 -1.587531030233585e-41
  outer loop
    vertex 23041.376953125 16296.0849609375 41500.3671875
    vertex 23041.376953125 17566.02734375 41319.08984375
    vertex 23041.376953125 17566.02734375 41500.3671875
  endloop
endfacet
facet normal 0 -1 4.802141215058675e-13
  outer loop
    vertex 23041.376953125 16296.0849609375 41500.3671875
    vertex 22789.04296875 16296.0849609375 41319.08984375
    vertex 23041.376953125 16296.0849609375 41319.08984375
  endloop
endfacet
facet normal 0 -1 4.802141215058675e-13
  outer loop
    vertex 22789.04296875 16296.0849609375 41319.08984375
    vertex 23041.376953125 16296.0849609375 41500.3671875
    vertex 22789.04296875 16296.0849609375 41500.3671875
  endloop
endfacet
facet normal -1 0 1.587531030233585e-41
  outer loop
    vertex 22789.04296875 16296.0849609375 41500.3671875
    vertex 22789.04296875 17566.02734375 41319.08984375
    vertex 22789.04296875 16296.0849609375 41319.08984375
  endloop
endfacet
facet normal -1 0 1.587531030233585e-41
  outer loop
    vertex 22789.04296875 17566.02734375 41319.08984375
    vertex 22789.04296875 16296.0849609375 41500.3671875
    vertex 22789.04296875 17566.02734375 41500.3671875
  endloop
endfacet
facet normal 0 1 -4.802141215058675e-13
  outer loop
    vertex 22789.04296875 17566.02734375 41500.3671875
    vertex 23041.376953125 17566.02734375 41319.08984375
    vertex 22789.04296875 17566.02734375 41319.08984375
  endloop
endfacet
facet normal 0 1 -4.802141215058675e-13
  outer loop
    vertex 23041.376953125 17566.02734375 41319.08984375
    vertex 22789.04296875 17566.02734375 41500.3671875
    vertex 23041.376953125 17566.02734375 41500.3671875
  endloop
endfacet
facet normal -6.988275441587863e-42 -2.988248212244804e-13 -1
  outer loop
    vertex 22789.04296875 17566.02734375 41500.3671875
    vertex 22536.7109375 16296.0849609375 41500.3671875
    vertex 22536.7109375 17566.02734375 41500.3671875
  endloop
endfacet
facet normal -6.988275441587863e-42 -2.988248212244804e-13 -1
  outer loop
    vertex 22536.7109375 16296.0849609375 41500.3671875
    vertex 22789.04296875 17566.02734375 41500.3671875
    vertex 22789.04296875 16296.0849609375 41500.3671875
  endloop
endfacet
facet normal 6.988275441587863e-42 2.988248212244804e-13 1
  outer loop
    vertex 22789.04296875 16296.0849609375 41681.6484375
    vertex 22536.7109375 17566.02734375 41681.6484375
    vertex 22536.7109375 16296.0849609375 41681.6484375
  endloop
endfacet
facet normal 6.988275441587863e-42 2.988248212244804e-13 1
  outer loop
    vertex 22536.7109375 17566.02734375 41681.6484375
    vertex 22789.04296875 16296.0849609375 41681.6484375
    vertex 22789.04296875 17566.02734375 41681.6484375
  endloop
endfacet
facet normal 1 -0 -1.587531030233585e-41
  outer loop
    vertex 22789.04296875 17566.02734375 41500.3671875
    vertex 22789.04296875 16296.0849609375 41681.6484375
    vertex 22789.04296875 16296.0849609375 41500.3671875
  endloop
endfacet
facet normal 1 -0 -1.587531030233585e-41
  outer loop
    vertex 22789.04296875 16296.0849609375 41681.6484375
    vertex 22789.04296875 17566.02734375 41500.3671875
    vertex 22789.04296875 17566.02734375 41681.6484375
  endloop
endfacet
facet normal 0 -1 4.802141215058675e-13
  outer loop
    vertex 22789.04296875 16296.0849609375 41681.6484375
    vertex 22536.7109375 16296.0849609375 41500.3671875
    vertex 22789.04296875 16296.0849609375 41500.3671875
  endloop
endfacet
facet normal 0 -1 4.802141215058675e-13
  outer loop
    vertex 22536.7109375 16296.0849609375 41500.3671875
    vertex 22789.04296875 16296.0849609375 41681.6484375
    vertex 22536.7109375 16296.0849609375 41681.6484375
  endloop
endfacet
facet normal -1 0 1.587531030233585e-41
  outer loop
    vertex 22536.7109375 16296.0849609375 41681.6484375
    vertex 22536.7109375 17566.02734375 41500.3671875
    vertex 22536.7109375 16296.0849609375 41500.3671875
  endloop
endfacet
facet normal -1 0 1.587531030233585e-41
  outer loop
    vertex 22536.7109375 17566.02734375 41500.3671875
    vertex 22536.7109375 16296.0849609375 41681.6484375
    vertex 22536.7109375 17566.02734375 41681.6484375
  endloop
endfacet
facet normal 0 1 -4.802141215058675e-13
  outer loop
    vertex 22536.7109375 17566.02734375 41681.6484375
    vertex 22789.04296875 17566.02734375 41500.3671875
    vertex 22536.7109375 17566.02734375 41500.3671875
  endloop
endfacet
facet normal 0 1 -4.802141215058675e-13
  outer loop
    vertex 22789.04296875 17566.02734375 41500.3671875
    vertex 22536.7109375 17566.02734375 41681.6484375
    vertex 22789.04296875 17566.02734375 41681.6484375
  endloop
endfacet
facet normal -6.988275441587863e-42 -2.988248212244804e-13 -1
  outer loop
    vertex 22536.7109375 17566.02734375 41681.6484375
    vertex 22284.376953125 16296.0849609375 41681.6484375
    vertex 22284.376953125 17566.02734375 41681.6484375
  endloop
endfacet
facet normal -6.988275441587863e-42 -2.988248212244804e-13 -1
  outer loop
    vertex 22284.376953125 16296.0849609375 41681.6484375
    vertex 22536.7109375 17566.02734375 41681.6484375
    vertex 22536.7109375 16296.0849609375 41681.6484375
  endloop
endfacet
facet normal 6.988275441587863e-42 2.988248212244804e-13 1
  outer loop
    vertex 22536.7109375 16296.0849609375 41862.92578125
    vertex 22284.376953125 17566.02734375 41862.92578125
    vertex 22284.376953125 16296.0849609375 41862.92578125
  endloop
endfacet
facet normal 6.988275441587863e-42 2.988248212244804e-13 1
  outer loop
    vertex 22284.376953125 17566.02734375 41862.92578125
    vertex 22536.7109375 16296.0849609375 41862.92578125
    vertex 22536.7109375 17566.02734375 41862.92578125
  endloop
endfacet
facet normal 1 -0 -1.587531030233585e-41
  outer loop
    vertex 22536.7109375 17566.02734375 41681.6484375
    vertex 22536.7109375 16296.0849609375 41862.92578125
    vertex 22536.7109375 16296.0849609375 41681.6484375
  endloop
endfacet
facet normal 1 -0 -1.587531030233585e-41
  outer loop
    vertex 22536.7109375 16296.0849609375 41862.92578125
    vertex 22536.7109375 17566.02734375 41681.6484375
    vertex 22536.7109375 17566.02734375 41862.92578125
  endloop
endfacet
facet normal 0 -1 4.802141215058675e-13
  outer loop
    vertex 22536.7109375 16296.0849609375 41862.92578125
    vertex 22284.376953125 16296.0849609375 41681.6484375
    vertex 22536.7109375 16296.0849609375 41681.6484375
  endloop
endfacet
facet normal 0 -1 4.802141215058675e-13
  outer loop
    vertex 22284.376953125 16296.0849609375 41681.6484375
    vertex 22536.7109375 16296.0849609375 41862.92578125
    vertex 22284.376953125 16296.0849609375 41862.92578125
  endloop
endfacet
facet normal -1 0 1.587531030233585e-41
  outer loop
    vertex 22284.376953125 16296.0849609375 41862.92578125
    vertex 22284.376953125 17566.02734375 41681.6484375
    vertex 22284.376953125 16296.0849609375 41681.6484375
  endloop
endfacet
facet normal -1 0 1.587531030233585e-41
  outer loop
    vertex 22284.376953125 17566.02734375 41681.6484375
    vertex 22284.376953125 16296.0849609375 41862.92578125
    vertex 22284.376953125 17566.02734375 41862.92578125
  endloop
endfacet
facet normal 0 1 -4.802141215058675e-13
  outer loop
    vertex 22284.376953125 17566.02734375 41862.92578125
    vertex 22536.7109375 17566.02734375 41681.6484375
    vertex 22284.376953125 17566.02734375 41681.6484375
  endloop
endfacet
facet normal 0 1 -4.802141215058675e-13
  outer loop
    vertex 22536.7109375 17566.02734375 41681.6484375
    vertex 22284.376953125 17566.02734375 41862.92578125
    vertex 22536.7109375 17566.02734375 41862.92578125
  endloop
endfacet
facet normal -6.988275441587863e-42 -2.988248212244804e-13 -1
  outer loop
    vertex 21275.04296875 15684.869140625 39868.8671875
    vertex 21022.7109375 14414.9267578125 39868.8671875
    vertex 21022.7109375 15684.869140625 39868.8671875
  endloop
endfacet
facet normal -6.988275441587863e-42 -2.988248212244804e-13 -1
  outer loop
    vertex 21022.7109375 14414.9267578125 39868.8671875
    vertex 21275.04296875 15684.869140625 39868.8671875
    vertex 21275.04296875 14414.9267578125 39868.8671875
  endloop
endfacet
facet normal 1 -0 -1.587531030233585e-41
  outer loop
    vertex 21275.04296875 15684.869140625 39868.8671875
    vertex 21275.04296875 14414.9267578125 40050.14453125
    vertex 21275.04296875 14414.9267578125 39868.8671875
  endloop
endfacet
facet normal 1 -0 -1.587531030233585e-41
  outer loop
    vertex 21275.04296875 14414.9267578125 40050.14453125
    vertex 21275.04296875 15684.869140625 39868.8671875
    vertex 21275.04296875 15684.869140625 40050.14453125
  endloop
endfacet
facet normal 0 -1 4.802141215058675e-13
  outer loop
    vertex 21275.04296875 14414.9267578125 40050.14453125
    vertex 21022.7109375 14414.9267578125 39868.8671875
    vertex 21275.04296875 14414.9267578125 39868.8671875
  endloop
endfacet
facet normal 0 -1 4.802141215058675e-13
  outer loop
    vertex 21022.7109375 14414.9267578125 39868.8671875
    vertex 21275.04296875 14414.9267578125 40050.14453125
    vertex 21022.7109375 14414.9267578125 40050.14453125
  endloop
endfacet
facet normal 2.656433968587099e-28 3.050358359998895e-13 1
  outer loop
    vertex 21275.04296875 14414.9267578125 40050.14453125
    vertex 21022.7109375 15684.869140625 40050.14453125
    vertex 21022.7109375 14414.9267578125 40050.14453125
  endloop
endfacet
facet normal 2.656433968587099e-28 3.050358359998895e-13 1
  outer loop
    vertex 21022.7109375 15684.869140625 40050.14453125
    vertex 21275.04296875 14414.9267578125 40050.14453125
    vertex 21275.04296875 15684.869140625 40050.14453125
  endloop
endfacet
facet normal 0 1 -4.802141215058675e-13
  outer loop
    vertex 21022.7109375 15684.869140625 40050.14453125
    vertex 21275.04296875 15684.869140625 39868.8671875
    vertex 21022.7109375 15684.869140625 39868.8671875
  endloop
endfacet
facet normal 0 1 -4.802141215058675e-13
  outer loop
    vertex 21275.04296875 15684.869140625 39868.8671875
    vertex 21022.7109375 15684.869140625 40050.14453125
    vertex 21275.04296875 15684.869140625 40050.14453125
  endloop
endfacet
facet normal -1 0 1.587531030233585e-41
  outer loop
    vertex 21022.7109375 14414.9267578125 40050.14453125
    vertex 21022.7109375 15684.869140625 39868.8671875
    vertex 21022.7109375 14414.9267578125 39868.8671875
  endloop
endfacet
facet normal -1 0 1.587531030233585e-41
  outer loop
    vertex 21022.7109375 15684.869140625 39868.8671875
    vertex 21022.7109375 14414.9267578125 40050.14453125
    vertex 21022.7109375 15684.869140625 40050.14453125
  endloop
endfacet
facet normal -6.988275441587863e-42 -2.988248212244804e-13 -1
  outer loop
    vertex 21022.7109375 15684.869140625 39687.58984375
    vertex 20770.376953125 14414.9267578125 39687.58984375
    vertex 20770.376953125 15684.869140625 39687.58984375
  endloop
endfacet
facet normal -6.988275441587863e-42 -2.988248212244804e-13 -1
  outer loop
    vertex 20770.376953125 14414.9267578125 39687.58984375
    vertex 21022.7109375 15684.869140625 39687.58984375
    vertex 21022.7109375 14414.9267578125 39687.58984375
  endloop
endfacet
facet normal 1 -0 -1.587531030233585e-41
  outer loop
    vertex 21022.7109375 15684.869140625 39687.58984375
    vertex 21022.7109375 14414.9267578125 39868.8671875
    vertex 21022.7109375 14414.9267578125 39687.58984375
  endloop
endfacet
facet normal 1 -0 -1.587531030233585e-41
  outer loop
    vertex 21022.7109375 14414.9267578125 39868.8671875
    vertex 21022.7109375 15684.869140625 39687.58984375
    vertex 21022.7109375 15684.869140625 39868.8671875
  endloop
endfacet
facet normal 0 -1 4.802141215058675e-13
  outer loop
    vertex 21022.7109375 14414.9267578125 39868.8671875
    vertex 20770.376953125 14414.9267578125 39687.58984375
    vertex 21022.7109375 14414.9267578125 39687.58984375
  endloop
endfacet
facet normal 0 -1 4.802141215058675e-13
  outer loop
    vertex 20770.376953125 14414.9267578125 39687.58984375
    vertex 21022.7109375 14414.9267578125 39868.8671875
    vertex 20770.376953125 14414.9267578125 39868.8671875
  endloop
endfacet
facet normal 2.656433968587099e-28 3.050358359998895e-13 1
  outer loop
    vertex 21022.7109375 14414.9267578125 39868.8671875
    vertex 20770.376953125 15684.869140625 39868.8671875
    vertex 20770.376953125 14414.9267578125 39868.8671875
  endloop
endfacet
facet normal 2.656433968587099e-28 3.050358359998895e-13 1
  outer loop
    vertex 20770.376953125 15684.869140625 39868.8671875
    vertex 21022.7109375 14414.9267578125 39868.8671875
    vertex 21022.7109375 15684.869140625 39868.8671875
  endloop
endfacet
facet normal 0 1 -4.802141215058675e-13
  outer loop
    vertex 20770.376953125 15684.869140625 39868.8671875
    vertex 21022.7109375 15684.869140625 39687.58984375
    vertex 20770.376953125 15684.869140625 39687.58984375
  endloop
endfacet
facet normal 0 1 -4.802141215058675e-13
  outer loop
    vertex 21022.7109375 15684.869140625 39687.58984375
    vertex 20770.376953125 15684.869140625 39868.8671875
    vertex 21022.7109375 15684.869140625 39868.8671875
  endloop
endfacet
facet normal -1 0 1.587531030233585e-41
  outer loop
    vertex 20770.376953125 14414.9267578125 39868.8671875
    vertex 20770.376953125 15684.869140625 39687.58984375
    vertex 20770.376953125 14414.9267578125 39687.58984375
  endloop
endfacet
facet normal -1 0 1.587531030233585e-41
  outer loop
    vertex 20770.376953125 15684.869140625 39687.58984375
    vertex 20770.376953125 14414.9267578125 39868.8671875
    vertex 20770.376953125 15684.869140625 39868.8671875
  endloop
endfacet
facet normal -6.988275441587863e-42 -2.988248212244804e-13 -1
  outer loop
    vertex 22032.04296875 15684.869140625 40412.69921875
    vertex 21779.708984375 14414.9267578125 40412.69921875
    vertex 21779.708984375 15684.869140625 40412.69921875
  endloop
endfacet
facet normal -6.988275441587863e-42 -2.988248212244804e-13 -1
  outer loop
    vertex 21779.708984375 14414.9267578125 40412.69921875
    vertex 22032.04296875 15684.869140625 40412.69921875
    vertex 22032.04296875 14414.9267578125 40412.69921875
  endloop
endfacet
facet normal 1 -0 -1.587531030233585e-41
  outer loop
    vertex 22032.04296875 15684.869140625 40412.69921875
    vertex 22032.04296875 14414.9267578125 40593.98046875
    vertex 22032.04296875 14414.9267578125 40412.69921875
  endloop
endfacet
facet normal 1 -0 -1.587531030233585e-41
  outer loop
    vertex 22032.04296875 14414.9267578125 40593.98046875
    vertex 22032.04296875 15684.869140625 40412.69921875
    vertex 22032.04296875 15684.869140625 40593.98046875
  endloop
endfacet
facet normal 0 -1 4.802141215058675e-13
  outer loop
    vertex 22032.04296875 14414.9267578125 40593.98046875
    vertex 21779.708984375 14414.9267578125 40412.69921875
    vertex 22032.04296875 14414.9267578125 40412.69921875
  endloop
endfacet
facet normal 0 -1 4.802141215058675e-13
  outer loop
    vertex 21779.708984375 14414.9267578125 40412.69921875
    vertex 22032.04296875 14414.9267578125 40593.98046875
    vertex 21779.708984375 14414.9267578125 40593.98046875
  endloop
endfacet
facet normal 2.656433968587099e-28 3.050358359998895e-13 1
  outer loop
    vertex 22032.04296875 14414.9267578125 40593.98046875
    vertex 21779.708984375 15684.869140625 40593.98046875
    vertex 21779.708984375 14414.9267578125 40593.98046875
  endloop
endfacet
facet normal 2.656433968587099e-28 3.050358359998895e-13 1
  outer loop
    vertex 21779.708984375 15684.869140625 40593.98046875
    vertex 22032.04296875 14414.9267578125 40593.98046875
    vertex 22032.04296875 15684.869140625 40593.98046875
  endloop
endfacet
facet normal 0 1 -4.802141215058675e-13
  outer loop
    vertex 21779.708984375 15684.869140625 40593.98046875
    vertex 22032.04296875 15684.869140625 40412.69921875
    vertex 21779.708984375 15684.869140625 40412.69921875
  endloop
endfacet
facet normal 0 1 -4.802141215058675e-13
  outer loop
    vertex 22032.04296875 15684.869140625 40412.69921875
    vertex 21779.708984375 15684.869140625 40593.98046875
    vertex 22032.04296875 15684.869140625 40593.98046875
  endloop
endfacet
facet normal -1 0 1.587531030233585e-41
  outer loop
    vertex 21779.708984375 14414.9267578125 40593.98046875
    vertex 21779.708984375 15684.869140625 40412.69921875
    vertex 21779.708984375 14414.9267578125 40412.69921875
  endloop
endfacet
facet normal -1 0 1.587531030233585e-41
  outer loop
    vertex 21779.708984375 15684.869140625 40412.69921875
    vertex 21779.708984375 14414.9267578125 40593.98046875
    vertex 21779.708984375 15684.869140625 40593.98046875
  endloop
endfacet
facet normal -6.988275441587863e-42 -2.988248212244804e-13 -1
  outer loop
    vertex 22284.375 15684.869140625 40593.98046875
    vertex 22032.04296875 14414.9267578125 40593.98046875
    vertex 22032.04296875 15684.869140625 40593.98046875
  endloop
endfacet
facet normal -6.988275441587863e-42 -2.988248212244804e-13 -1
  outer loop
    vertex 22032.04296875 14414.9267578125 40593.98046875
    vertex 22284.375 15684.869140625 40593.98046875
    vertex 22284.375 14414.9267578125 40593.98046875
  endloop
endfacet
facet normal 1 -0 -1.587531030233585e-41
  outer loop
    vertex 22284.375 15684.869140625 40593.98046875
    vertex 22284.375 14414.9267578125 40775.2578125
    vertex 22284.375 14414.9267578125 40593.98046875
  endloop
endfacet
facet normal 1 -0 -1.587531030233585e-41
  outer loop
    vertex 22284.375 14414.9267578125 40775.2578125
    vertex 22284.375 15684.869140625 40593.98046875
    vertex 22284.375 15684.869140625 40775.2578125
  endloop
endfacet
facet normal 0 -1 4.802141215058675e-13
  outer loop
    vertex 22284.375 14414.9267578125 40775.2578125
    vertex 22032.04296875 14414.9267578125 40593.98046875
    vertex 22284.375 14414.9267578125 40593.98046875
  endloop
endfacet
facet normal 0 -1 4.802141215058675e-13
  outer loop
    vertex 22032.04296875 14414.9267578125 40593.98046875
    vertex 22284.375 14414.9267578125 40775.2578125
    vertex 22032.04296875 14414.9267578125 40775.2578125
  endloop
endfacet
facet normal 2.656433968587099e-28 3.050358359998895e-13 1
  outer loop
    vertex 22284.375 14414.9267578125 40775.2578125
    vertex 22032.04296875 15684.869140625 40775.2578125
    vertex 22032.04296875 14414.9267578125 40775.2578125
  endloop
endfacet
facet normal 2.656433968587099e-28 3.050358359998895e-13 1
  outer loop
    vertex 22032.04296875 15684.869140625 40775.2578125
    vertex 22284.375 14414.9267578125 40775.2578125
    vertex 22284.375 15684.869140625 40775.2578125
  endloop
endfacet
facet normal 0 1 -4.802141215058675e-13
  outer loop
    vertex 22032.04296875 15684.869140625 40775.2578125
    vertex 22284.375 15684.869140625 40593.98046875
    vertex 22032.04296875 15684.869140625 40593.98046875
  endloop
endfacet
facet normal 0 1 -4.802141215058675e-13
  outer loop
    vertex 22284.375 15684.869140625 40593.98046875
    vertex 22032.04296875 15684.869140625 40775.2578125
    vertex 22284.375 15684.869140625 40775.2578125
  endloop
endfacet
facet normal -1 0 1.587531030233585e-41
  outer loop
    vertex 22032.04296875 14414.9267578125 40775.2578125
    vertex 22032.04296875 15684.869140625 40593.98046875
    vertex 22032.04296875 14414.9267578125 40593.98046875
  endloop
endfacet
facet normal -1 0 1.587531030233585e-41
  outer loop
    vertex 22032.04296875 15684.869140625 40593.98046875
    vertex 22032.04296875 14414.9267578125 40775.2578125
    vertex 22032.04296875 15684.869140625 40775.2578125
  endloop
endfacet
facet normal -6.988275441587863e-42 -2.988248212244804e-13 -1
  outer loop
    vertex 22536.708984375 15684.869140625 40775.2578125
    vertex 22284.375 14414.9267578125 40775.2578125
    vertex 22284.375 15684.869140625 40775.2578125
  endloop
endfacet
facet normal -6.988275441587863e-42 -2.988248212244804e-13 -1
  outer loop
    vertex 22284.375 14414.9267578125 40775.2578125
    vertex 22536.708984375 15684.869140625 40775.2578125
    vertex 22536.708984375 14414.9267578125 40775.2578125
  endloop
endfacet
facet normal 1 -0 -1.587531030233585e-41
  outer loop
    vertex 22536.708984375 15684.869140625 40775.2578125
    vertex 22536.708984375 14414.9267578125 40956.53515625
    vertex 22536.708984375 14414.9267578125 40775.2578125
  endloop
endfacet
facet normal 1 -0 -1.587531030233585e-41
  outer loop
    vertex 22536.708984375 14414.9267578125 40956.53515625
    vertex 22536.708984375 15684.869140625 40775.2578125
    vertex 22536.708984375 15684.869140625 40956.53515625
  endloop
endfacet
facet normal 0 -1 4.802141215058675e-13
  outer loop
    vertex 22536.708984375 14414.9267578125 40956.53515625
    vertex 22284.375 14414.9267578125 40775.2578125
    vertex 22536.708984375 14414.9267578125 40775.2578125
  endloop
endfacet
facet normal 0 -1 4.802141215058675e-13
  outer loop
    vertex 22284.375 14414.9267578125 40775.2578125
    vertex 22536.708984375 14414.9267578125 40956.53515625
    vertex 22284.375 14414.9267578125 40956.53515625
  endloop
endfacet
facet normal 2.656433968587099e-28 3.050358359998895e-13 1
  outer loop
    vertex 22536.708984375 14414.9267578125 40956.53515625
    vertex 22284.375 15684.869140625 40956.53515625
    vertex 22284.375 14414.9267578125 40956.53515625
  endloop
endfacet
facet normal 2.656433968587099e-28 3.050358359998895e-13 1
  outer loop
    vertex 22284.375 15684.869140625 40956.53515625
    vertex 22536.708984375 14414.9267578125 40956.53515625
    vertex 22536.708984375 15684.869140625 40956.53515625
  endloop
endfacet
facet normal 0 1 -4.802141215058675e-13
  outer loop
    vertex 22284.375 15684.869140625 40956.53515625
    vertex 22536.708984375 15684.869140625 40775.2578125
    vertex 22284.375 15684.869140625 40775.2578125
  endloop
endfacet
facet normal 0 1 -4.802141215058675e-13
  outer loop
    vertex 22536.708984375 15684.869140625 40775.2578125
    vertex 22284.375 15684.869140625 40956.53515625
    vertex 22536.708984375 15684.869140625 40956.53515625
  endloop
endfacet
facet normal -1 0 1.587531030233585e-41
  outer loop
    vertex 22284.375 14414.9267578125 40956.53515625
    vertex 22284.375 15684.869140625 40775.2578125
    vertex 22284.375 14414.9267578125 40775.2578125
  endloop
endfacet
facet normal -1 0 1.587531030233585e-41
  outer loop
    vertex 22284.375 15684.869140625 40775.2578125
    vertex 22284.375 14414.9267578125 40956.53515625
    vertex 22284.375 15684.869140625 40956.53515625
  endloop
endfacet
facet normal -6.988275441587863e-42 -2.988248212244804e-13 -1
  outer loop
    vertex 21527.376953125 15684.869140625 40050.14453125
    vertex 21275.04296875 14414.9267578125 40050.14453125
    vertex 21275.04296875 15684.869140625 40050.14453125
  endloop
endfacet
facet normal -6.988275441587863e-42 -2.988248212244804e-13 -1
  outer loop
    vertex 21275.04296875 14414.9267578125 40050.14453125
    vertex 21527.376953125 15684.869140625 40050.14453125
    vertex 21527.376953125 14414.9267578125 40050.14453125
  endloop
endfacet
facet normal 1 -0 -1.587531030233585e-41
  outer loop
    vertex 21527.376953125 15684.869140625 40050.14453125
    vertex 21527.376953125 14414.9267578125 40231.421875
    vertex 21527.376953125 14414.9267578125 40050.14453125
  endloop
endfacet
facet normal 1 -0 -1.587531030233585e-41
  outer loop
    vertex 21527.376953125 14414.9267578125 40231.421875
    vertex 21527.376953125 15684.869140625 40050.14453125
    vertex 21527.376953125 15684.869140625 40231.421875
  endloop
endfacet
facet normal 0 -1 4.802141215058675e-13
  outer loop
    vertex 21527.376953125 14414.9267578125 40231.421875
    vertex 21275.04296875 14414.9267578125 40050.14453125
    vertex 21527.376953125 14414.9267578125 40050.14453125
  endloop
endfacet
facet normal 0 -1 4.802141215058675e-13
  outer loop
    vertex 21275.04296875 14414.9267578125 40050.14453125
    vertex 21527.376953125 14414.9267578125 40231.421875
    vertex 21275.04296875 14414.9267578125 40231.421875
  endloop
endfacet
facet normal 2.656433968587099e-28 3.050358359998895e-13 1
  outer loop
    vertex 21527.376953125 14414.9267578125 40231.421875
    vertex 21275.04296875 15684.869140625 40231.421875
    vertex 21275.04296875 14414.9267578125 40231.421875
  endloop
endfacet
facet normal 2.656433968587099e-28 3.050358359998895e-13 1
  outer loop
    vertex 21275.04296875 15684.869140625 40231.421875
    vertex 21527.376953125 14414.9267578125 40231.421875
    vertex 21527.376953125 15684.869140625 40231.421875
  endloop
endfacet
facet normal 0 1 -4.802141215058675e-13
  outer loop
    vertex 21275.04296875 15684.869140625 40231.421875
    vertex 21527.376953125 15684.869140625 40050.14453125
    vertex 21275.04296875 15684.869140625 40050.14453125
  endloop
endfacet
facet normal 0 1 -4.802141215058675e-13
  outer loop
    vertex 21527.376953125 15684.869140625 40050.14453125
    vertex 21275.04296875 15684.869140625 40231.421875
    vertex 21527.376953125 15684.869140625 40231.421875
  endloop
endfacet
facet normal -1 0 1.587531030233585e-41
  outer loop
    vertex 21275.04296875 14414.9267578125 40231.421875
    vertex 21275.04296875 15684.869140625 40050.14453125
    vertex 21275.04296875 14414.9267578125 40050.14453125
  endloop
endfacet
facet normal -1 0 1.587531030233585e-41
  outer loop
    vertex 21275.04296875 15684.869140625 40050.14453125
    vertex 21275.04296875 14414.9267578125 40231.421875
    vertex 21275.04296875 15684.869140625 40231.421875
  endloop
endfacet
facet normal -6.988275441587863e-42 -2.988248212244804e-13 -1
  outer loop
    vertex 22789.041015625 15684.869140625 40956.53515625
    vertex 22536.708984375 14414.9267578125 40956.53515625
    vertex 22536.708984375 15684.869140625 40956.53515625
  endloop
endfacet
facet normal -6.988275441587863e-42 -2.988248212244804e-13 -1
  outer loop
    vertex 22536.708984375 14414.9267578125 40956.53515625
    vertex 22789.041015625 15684.869140625 40956.53515625
    vertex 22789.041015625 14414.9267578125 40956.53515625
  endloop
endfacet
facet normal 1 -0 -1.587531030233585e-41
  outer loop
    vertex 22789.041015625 15684.869140625 40956.53515625
    vertex 22789.041015625 14414.9267578125 41137.8125
    vertex 22789.041015625 14414.9267578125 40956.53515625
  endloop
endfacet
facet normal 1 -0 -1.587531030233585e-41
  outer loop
    vertex 22789.041015625 14414.9267578125 41137.8125
    vertex 22789.041015625 15684.869140625 40956.53515625
    vertex 22789.041015625 15684.869140625 41137.8125
  endloop
endfacet
facet normal 0 -1 4.802141215058675e-13
  outer loop
    vertex 22789.041015625 14414.9267578125 41137.8125
    vertex 22536.708984375 14414.9267578125 40956.53515625
    vertex 22789.041015625 14414.9267578125 40956.53515625
  endloop
endfacet
facet normal 0 -1 4.802141215058675e-13
  outer loop
    vertex 22536.708984375 14414.9267578125 40956.53515625
    vertex 22789.041015625 14414.9267578125 41137.8125
    vertex 22536.708984375 14414.9267578125 41137.8125
  endloop
endfacet
facet normal 2.656433968587099e-28 3.050358359998895e-13 1
  outer loop
    vertex 22789.041015625 14414.9267578125 41137.8125
    vertex 22536.708984375 15684.869140625 41137.8125
    vertex 22536.708984375 14414.9267578125 41137.8125
  endloop
endfacet
facet normal 2.656433968587099e-28 3.050358359998895e-13 1
  outer loop
    vertex 22536.708984375 15684.869140625 41137.8125
    vertex 22789.041015625 14414.9267578125 41137.8125
    vertex 22789.041015625 15684.869140625 41137.8125
  endloop
endfacet
facet normal 0 1 -4.802141215058675e-13
  outer loop
    vertex 22536.708984375 15684.869140625 41137.8125
    vertex 22789.041015625 15684.869140625 40956.53515625
    vertex 22536.708984375 15684.869140625 40956.53515625
  endloop
endfacet
facet normal 0 1 -4.802141215058675e-13
  outer loop
    vertex 22789.041015625 15684.869140625 40956.53515625
    vertex 22536.708984375 15684.869140625 41137.8125
    vertex 22789.041015625 15684.869140625 41137.8125
  endloop
endfacet
facet normal -1 0 1.587531030233585e-41
  outer loop
    vertex 22536.708984375 14414.9267578125 41137.8125
    vertex 22536.708984375 15684.869140625 40956.53515625
    vertex 22536.708984375 14414.9267578125 40956.53515625
  endloop
endfacet
facet normal -1 0 1.587531030233585e-41
  outer loop
    vertex 22536.708984375 15684.869140625 40956.53515625
    vertex 22536.708984375 14414.9267578125 41137.8125
    vertex 22536.708984375 15684.869140625 41137.8125
  endloop
endfacet
facet normal -6.988275441587863e-42 -2.988248212244804e-13 -1
  outer loop
    vertex 21779.708984375 15684.869140625 40231.421875
    vertex 21527.376953125 14414.9267578125 40231.421875
    vertex 21527.376953125 15684.869140625 40231.421875
  endloop
endfacet
facet normal -6.988275441587863e-42 -2.988248212244804e-13 -1
  outer loop
    vertex 21527.376953125 14414.9267578125 40231.421875
    vertex 21779.708984375 15684.869140625 40231.421875
    vertex 21779.708984375 14414.9267578125 40231.421875
  endloop
endfacet
facet normal 1 -0 -1.587531030233585e-41
  outer loop
    vertex 21779.708984375 15684.869140625 40231.421875
    vertex 21779.708984375 14414.9267578125 40412.69921875
    vertex 21779.708984375 14414.9267578125 40231.421875
  endloop
endfacet
facet normal 1 -0 -1.587531030233585e-41
  outer loop
    vertex 21779.708984375 14414.9267578125 40412.69921875
    vertex 21779.708984375 15684.869140625 40231.421875
    vertex 21779.708984375 15684.869140625 40412.69921875
  endloop
endfacet
facet normal 0 -1 4.802141215058675e-13
  outer loop
    vertex 21779.708984375 14414.9267578125 40412.69921875
    vertex 21527.376953125 14414.9267578125 40231.421875
    vertex 21779.708984375 14414.9267578125 40231.421875
  endloop
endfacet
facet normal 0 -1 4.802141215058675e-13
  outer loop
    vertex 21527.376953125 14414.9267578125 40231.421875
    vertex 21779.708984375 14414.9267578125 40412.69921875
    vertex 21527.376953125 14414.9267578125 40412.69921875
  endloop
endfacet
facet normal 2.656433968587099e-28 3.050358359998895e-13 1
  outer loop
    vertex 21779.708984375 14414.9267578125 40412.69921875
    vertex 21527.376953125 15684.869140625 40412.69921875
    vertex 21527.376953125 14414.9267578125 40412.69921875
  endloop
endfacet
facet normal 2.656433968587099e-28 3.050358359998895e-13 1
  outer loop
    vertex 21527.376953125 15684.869140625 40412.69921875
    vertex 21779.708984375 14414.9267578125 40412.69921875
    vertex 21779.708984375 15684.869140625 40412.69921875
  endloop
endfacet
facet normal 0 1 -4.802141215058675e-13
  outer loop
    vertex 21527.376953125 15684.869140625 40412.69921875
    vertex 21779.708984375 15684.869140625 40231.421875
    vertex 21527.376953125 15684.869140625 40231.421875
  endloop
endfacet
facet normal 0 1 -4.802141215058675e-13
  outer loop
    vertex 21779.708984375 15684.869140625 40231.421875
    vertex 21527.376953125 15684.869140625 40412.69921875
    vertex 21779.708984375 15684.869140625 40412.69921875
  endloop
endfacet
facet normal -1 0 1.587531030233585e-41
  outer loop
    vertex 21527.376953125 14414.9267578125 40412.69921875
    vertex 21527.376953125 15684.869140625 40231.421875
    vertex 21527.376953125 14414.9267578125 40231.421875
  endloop
endfacet
facet normal -1 0 1.587531030233585e-41
  outer loop
    vertex 21527.376953125 15684.869140625 40231.421875
    vertex 21527.376953125 14414.9267578125 40412.69921875
    vertex 21527.376953125 15684.869140625 40412.69921875
  endloop
endfacet
facet normal -6.988275441587863e-42 -2.988248212244804e-13 -1
  outer loop
    vertex 23041.375 15684.869140625 41137.8125
    vertex 22789.041015625 14414.9267578125 41137.8125
    vertex 22789.041015625 15684.869140625 41137.8125
  endloop
endfacet
facet normal -6.988275441587863e-42 -2.988248212244804e-13 -1
  outer loop
    vertex 22789.041015625 14414.9267578125 41137.8125
    vertex 23041.375 15684.869140625 41137.8125
    vertex 23041.375 14414.9267578125 41137.8125
  endloop
endfacet
facet normal 1 -0 -1.587531030233585e-41
  outer loop
    vertex 23041.375 15684.869140625 41137.8125
    vertex 23041.375 14414.9267578125 41319.08984375
    vertex 23041.375 14414.9267578125 41137.8125
  endloop
endfacet
facet normal 1 -0 -1.587531030233585e-41
  outer loop
    vertex 23041.375 14414.9267578125 41319.08984375
    vertex 23041.375 15684.869140625 41137.8125
    vertex 23041.375 15684.869140625 41319.08984375
  endloop
endfacet
facet normal 0 -1 4.802141215058675e-13
  outer loop
    vertex 23041.375 14414.9267578125 41319.08984375
    vertex 22789.041015625 14414.9267578125 41137.8125
    vertex 23041.375 14414.9267578125 41137.8125
  endloop
endfacet
facet normal 0 -1 4.802141215058675e-13
  outer loop
    vertex 22789.041015625 14414.9267578125 41137.8125
    vertex 23041.375 14414.9267578125 41319.08984375
    vertex 22789.041015625 14414.9267578125 41319.08984375
  endloop
endfacet
facet normal 2.656433968587099e-28 3.050358359998895e-13 1
  outer loop
    vertex 23041.375 14414.9267578125 41319.08984375
    vertex 22789.041015625 15684.869140625 41319.08984375
    vertex 22789.041015625 14414.9267578125 41319.08984375
  endloop
endfacet
facet normal 2.656433968587099e-28 3.050358359998895e-13 1
  outer loop
    vertex 22789.041015625 15684.869140625 41319.08984375
    vertex 23041.375 14414.9267578125 41319.08984375
    vertex 23041.375 15684.869140625 41319.08984375
  endloop
endfacet
facet normal 0 1 -4.802141215058675e-13
  outer loop
    vertex 22789.041015625 15684.869140625 41319.08984375
    vertex 23041.375 15684.869140625 41137.8125
    vertex 22789.041015625 15684.869140625 41137.8125
  endloop
endfacet
facet normal 0 1 -4.802141215058675e-13
  outer loop
    vertex 23041.375 15684.869140625 41137.8125
    vertex 22789.041015625 15684.869140625 41319.08984375
    vertex 23041.375 15684.869140625 41319.08984375
  endloop
endfacet
facet normal -1 0 1.587531030233585e-41
  outer loop
    vertex 22789.041015625 14414.9267578125 41319.08984375
    vertex 22789.041015625 15684.869140625 41137.8125
    vertex 22789.041015625 14414.9267578125 41137.8125
  endloop
endfacet
facet normal -1 0 1.587531030233585e-41
  outer loop
    vertex 22789.041015625 15684.869140625 41137.8125
    vertex 22789.041015625 14414.9267578125 41319.08984375
    vertex 22789.041015625 15684.869140625 41319.08984375
  endloop
endfacet
endsolid com.sketchup.SketchUp.2019
