solid com.sketchup.SketchUp.2019
facet normal -6.954644278444067e-42 -3.024107385948133e-13 -1
  outer loop
    vertex 20778.40625 15400.291015625 21818.693359375
    vertex 20527.31640625 14115.1103515625 21818.693359375
    vertex 20527.31640625 15400.291015625 21818.693359375
  endloop
endfacet
facet normal -6.954644278444067e-42 -3.024107385948133e-13 -1
  outer loop
    vertex 20527.31640625 14115.1103515625 21818.693359375
    vertex 20778.40625 15400.291015625 21818.693359375
    vertex 20778.40625 14115.1103515625 21818.693359375
  endloop
endfacet
facet normal 1 -0 -1.595378301633804e-41
  outer loop
    vertex 20778.40625 15400.291015625 21818.693359375
    vertex 20778.40625 14115.1103515625 21999.97265625
    vertex 20778.40625 14115.1103515625 21818.693359375
  endloop
endfacet
facet normal 1 -0 -1.595378301633804e-41
  outer loop
    vertex 20778.40625 14115.1103515625 21999.97265625
    vertex 20778.40625 15400.291015625 21818.693359375
    vertex 20778.40625 15400.291015625 21999.97265625
  endloop
endfacet
facet normal 0 -1 4.745198916959736e-13
  outer loop
    vertex 20778.40625 14115.1103515625 21999.97265625
    vertex 20527.31640625 14115.1103515625 21818.693359375
    vertex 20778.40625 14115.1103515625 21818.693359375
  endloop
endfacet
facet normal 0 -1 4.745198916959736e-13
  outer loop
    vertex 20527.31640625 14115.1103515625 21818.693359375
    vertex 20778.40625 14115.1103515625 21999.97265625
    vertex 20527.31640625 14115.1103515625 21999.97265625
  endloop
endfacet
facet normal 2.643346070908773e-28 3.086962651645264e-13 1
  outer loop
    vertex 20778.40625 14115.1103515625 21999.97265625
    vertex 20527.31640625 15400.291015625 21999.97265625
    vertex 20527.31640625 14115.1103515625 21999.97265625
  endloop
endfacet
facet normal 2.643346070908773e-28 3.086962651645264e-13 1
  outer loop
    vertex 20527.31640625 15400.291015625 21999.97265625
    vertex 20778.40625 14115.1103515625 21999.97265625
    vertex 20623.568359375 15364.87109375 21999.97265625
  endloop
endfacet
facet normal 2.643346070908773e-28 3.086962651645264e-13 1
  outer loop
    vertex 20623.568359375 15364.87109375 21999.97265625
    vertex 20778.40625 14115.1103515625 21999.97265625
    vertex 20655.712890625 15364.87109375 21999.97265625
  endloop
endfacet
facet normal 2.643346070908773e-28 3.086962651645264e-13 1
  outer loop
    vertex 20655.712890625 15364.87109375 21999.97265625
    vertex 20778.40625 14115.1103515625 21999.97265625
    vertex 20655.712890625 15400.291015625 21999.97265625
  endloop
endfacet
facet normal 2.643346070908773e-28 3.086962651645264e-13 1
  outer loop
    vertex 20655.712890625 15400.291015625 21999.97265625
    vertex 20778.40625 14115.1103515625 21999.97265625
    vertex 20778.40625 15400.291015625 21999.97265625
  endloop
endfacet
facet normal 2.643346070908773e-28 3.086962651645264e-13 1
  outer loop
    vertex 20623.568359375 15400.291015625 21999.97265625
    vertex 20527.31640625 15400.291015625 21999.97265625
    vertex 20623.568359375 15364.87109375 21999.97265625
  endloop
endfacet
facet normal 0 1 -4.745198916959736e-13
  outer loop
    vertex 20527.31640625 15400.291015625 21999.97265625
    vertex 20778.40625 15400.291015625 21818.693359375
    vertex 20527.31640625 15400.291015625 21818.693359375
  endloop
endfacet
facet normal 0 1 -4.745198916959736e-13
  outer loop
    vertex 20778.40625 15400.291015625 21818.693359375
    vertex 20527.31640625 15400.291015625 21999.97265625
    vertex 20778.40625 15400.291015625 21999.97265625
  endloop
endfacet
facet normal -1 0 1.595378301633804e-41
  outer loop
    vertex 20527.31640625 14115.1103515625 21999.97265625
    vertex 20527.31640625 15400.291015625 21818.693359375
    vertex 20527.31640625 14115.1103515625 21818.693359375
  endloop
endfacet
facet normal -1 0 1.595378301633804e-41
  outer loop
    vertex 20527.31640625 15400.291015625 21818.693359375
    vertex 20527.31640625 14115.1103515625 21999.97265625
    vertex 20527.31640625 15400.291015625 21999.97265625
  endloop
endfacet
facet normal -2.361858809658141e-13 3.041058344813857e-13 -1
  outer loop
    vertex 20655.712890625 15400.291015625 21999.97265625
    vertex 20623.568359375 15364.87109375 21999.97265625
    vertex 20623.568359375 15400.291015625 21999.97265625
  endloop
endfacet
facet normal -2.361858809658141e-13 3.041058344813857e-13 -1
  outer loop
    vertex 20623.568359375 15364.87109375 21999.97265625
    vertex 20655.712890625 15400.291015625 21999.97265625
    vertex 20655.712890625 15364.87109375 21999.97265625
  endloop
endfacet
facet normal -7.800413655658419e-15 1 -1.603308516495965e-14
  outer loop
    vertex 20623.568359375 15400.291015625 21999.97265625
    vertex 20655.712890625 15400.291015625 22929.498046875
    vertex 20655.712890625 15400.291015625 21999.97265625
  endloop
endfacet
facet normal -7.800413655658419e-15 1 -1.603308516495965e-14
  outer loop
    vertex 20655.712890625 15400.291015625 22929.498046875
    vertex 20623.568359375 15400.291015625 21999.97265625
    vertex 20623.568359375 15400.291015625 22955.44140625
  endloop
endfacet
facet normal -7.800413655658419e-15 1 -1.603308516495965e-14
  outer loop
    vertex 20655.712890625 15400.291015625 22929.498046875
    vertex 20623.568359375 15400.291015625 22955.44140625
    vertex 20682.15625 15400.291015625 22948.587890625
  endloop
endfacet
facet normal -7.800413655658419e-15 1 -1.603308516495965e-14
  outer loop
    vertex 20682.15625 15400.291015625 22948.587890625
    vertex 20623.568359375 15400.291015625 22955.44140625
    vertex 23087.34765625 15400.291015625 24685.052734375
  endloop
endfacet
facet normal -7.800413655658419e-15 1 -1.603308516495965e-14
  outer loop
    vertex 23087.34765625 15400.291015625 24685.052734375
    vertex 20623.568359375 15400.291015625 22955.44140625
    vertex 23087.34765625 15400.291015625 24734.205078125
  endloop
endfacet
facet normal -0.3001967370510101 -6.157609242205583e-16 0.953877329826355
  outer loop
    vertex 23101.1875 15364.87109375 24744.1953125
    vertex 20623.568359375 15400.291015625 22955.44140625
    vertex 20623.568359375 15364.87109375 22955.44140625
  endloop
endfacet
facet normal -0.3001967370510101 -6.157609242205583e-16 0.953877329826355
  outer loop
    vertex 20623.568359375 15400.291015625 22955.44140625
    vertex 23101.1875 15364.87109375 24744.1953125
    vertex 23087.34765625 15400.291015625 24734.205078125
  endloop
endfacet
facet normal -0.3001967370510101 -6.157609242205583e-16 0.953877329826355
  outer loop
    vertex 23087.34765625 15400.291015625 24734.205078125
    vertex 23101.1875 15364.87109375 24744.1953125
    vertex 23087.34765625 15703.8916015625 24734.205078125
  endloop
endfacet
facet normal -0.3001967370510101 -6.157609242205583e-16 0.953877329826355
  outer loop
    vertex 23087.34765625 15703.8916015625 24734.205078125
    vertex 23101.1875 15364.87109375 24744.1953125
    vertex 23101.1875 15703.8916015625 24744.1953125
  endloop
endfacet
facet normal -1 0 0
  outer loop
    vertex 20623.568359375 15364.87109375 22955.44140625
    vertex 20623.568359375 15400.291015625 21999.97265625
    vertex 20623.568359375 15364.87109375 21999.97265625
  endloop
endfacet
facet normal -1 0 0
  outer loop
    vertex 20623.568359375 15400.291015625 21999.97265625
    vertex 20623.568359375 15364.87109375 22955.44140625
    vertex 20623.568359375 15400.291015625 22955.44140625
  endloop
endfacet
facet normal 0.3001967370510101 -5.884074033812555e-15 -0.953877329826355
  outer loop
    vertex 20682.15625 15400.291015625 22948.587890625
    vertex 20655.712890625 15364.87109375 22929.498046875
    vertex 20655.712890625 15400.291015625 22929.498046875
  endloop
endfacet
facet normal 0.3001967370510101 -5.884074033812555e-15 -0.953877329826355
  outer loop
    vertex 20655.712890625 15364.87109375 22929.498046875
    vertex 20682.15625 15400.291015625 22948.587890625
    vertex 20682.15625 15364.87109375 22948.587890625
  endloop
endfacet
facet normal 1 0 0
  outer loop
    vertex 20655.712890625 15400.291015625 21999.97265625
    vertex 20655.712890625 15364.87109375 22929.498046875
    vertex 20655.712890625 15364.87109375 21999.97265625
  endloop
endfacet
facet normal 1 0 0
  outer loop
    vertex 20655.712890625 15364.87109375 22929.498046875
    vertex 20655.712890625 15400.291015625 21999.97265625
    vertex 20655.712890625 15400.291015625 22929.498046875
  endloop
endfacet
facet normal 7.985522541885479e-15 -1 1.421282660790321e-14
  outer loop
    vertex 20655.712890625 15364.87109375 22929.498046875
    vertex 20623.568359375 15364.87109375 21999.97265625
    vertex 20655.712890625 15364.87109375 21999.97265625
  endloop
endfacet
facet normal 7.985522541885479e-15 -1 1.421282660790321e-14
  outer loop
    vertex 20623.568359375 15364.87109375 21999.97265625
    vertex 20655.712890625 15364.87109375 22929.498046875
    vertex 20623.568359375 15364.87109375 22955.44140625
  endloop
endfacet
facet normal 7.985522541885479e-15 -1 1.421282660790321e-14
  outer loop
    vertex 20623.568359375 15364.87109375 22955.44140625
    vertex 20655.712890625 15364.87109375 22929.498046875
    vertex 20682.15625 15364.87109375 22948.587890625
  endloop
endfacet
facet normal 7.985522541885479e-15 -1 1.421282660790321e-14
  outer loop
    vertex 20623.568359375 15364.87109375 22955.44140625
    vertex 20682.15625 15364.87109375 22948.587890625
    vertex 23113.791015625 15364.87109375 24704.14453125
  endloop
endfacet
facet normal 7.985522541885479e-15 -1 1.421282660790321e-14
  outer loop
    vertex 20623.568359375 15364.87109375 22955.44140625
    vertex 23113.791015625 15364.87109375 24704.14453125
    vertex 23101.1875 15364.87109375 24744.1953125
  endloop
endfacet
facet normal 7.985522541885479e-15 -1 1.421282660790321e-14
  outer loop
    vertex 23101.1875 15364.87109375 24744.1953125
    vertex 23113.791015625 15364.87109375 24704.14453125
    vertex 23113.791015625 15364.87109375 24753.294921875
  endloop
endfacet
facet normal -0.3001967370510101 7.23533806465337e-18 0.953877329826355
  outer loop
    vertex 23113.791015625 15364.87109375 24753.294921875
    vertex 23101.1875 15703.8916015625 24744.1953125
    vertex 23101.1875 15364.87109375 24744.1953125
  endloop
endfacet
facet normal -0.3001967370510101 7.23533806465337e-18 0.953877329826355
  outer loop
    vertex 23101.1875 15703.8916015625 24744.1953125
    vertex 23113.791015625 15364.87109375 24753.294921875
    vertex 23113.791015625 15703.8916015625 24753.294921875
  endloop
endfacet
facet normal 1 0 0
  outer loop
    vertex 23113.791015625 15703.8916015625 24704.14453125
    vertex 23113.791015625 15364.87109375 24753.294921875
    vertex 23113.791015625 15364.87109375 24704.14453125
  endloop
endfacet
facet normal 1 0 0
  outer loop
    vertex 23113.791015625 15364.87109375 24753.294921875
    vertex 23113.791015625 15703.8916015625 24704.14453125
    vertex 23113.791015625 15703.8916015625 24753.294921875
  endloop
endfacet
facet normal 0.3001967370510101 4.179427056666413e-16 -0.953877329826355
  outer loop
    vertex 23113.791015625 15703.8916015625 24704.14453125
    vertex 23087.34765625 15400.291015625 24685.052734375
    vertex 23087.34765625 15703.8916015625 24685.052734375
  endloop
endfacet
facet normal 0.3001967370510101 4.179427056666413e-16 -0.953877329826355
  outer loop
    vertex 23087.34765625 15400.291015625 24685.052734375
    vertex 20682.15625 15364.87109375 22948.587890625
    vertex 20682.15625 15400.291015625 22948.587890625
  endloop
endfacet
facet normal 0.3001967370510101 4.179427056666413e-16 -0.953877329826355
  outer loop
    vertex 20682.15625 15364.87109375 22948.587890625
    vertex 23087.34765625 15400.291015625 24685.052734375
    vertex 23113.791015625 15364.87109375 24704.14453125
  endloop
endfacet
facet normal 0.3001967370510101 4.179427056666413e-16 -0.953877329826355
  outer loop
    vertex 23113.791015625 15364.87109375 24704.14453125
    vertex 23087.34765625 15400.291015625 24685.052734375
    vertex 23113.791015625 15703.8916015625 24704.14453125
  endloop
endfacet
facet normal 0 1 0
  outer loop
    vertex 23087.34765625 15703.8916015625 24734.205078125
    vertex 23113.791015625 15703.8916015625 24704.14453125
    vertex 23087.34765625 15703.8916015625 24685.052734375
  endloop
endfacet
facet normal 0 1 0
  outer loop
    vertex 23113.791015625 15703.8916015625 24704.14453125
    vertex 23087.34765625 15703.8916015625 24734.205078125
    vertex 23113.791015625 15703.8916015625 24753.294921875
  endloop
endfacet
facet normal 0 1 0
  outer loop
    vertex 23113.791015625 15703.8916015625 24753.294921875
    vertex 23087.34765625 15703.8916015625 24734.205078125
    vertex 23101.1875 15703.8916015625 24744.1953125
  endloop
endfacet
facet normal -1 0 0
  outer loop
    vertex 23087.34765625 15703.8916015625 24734.205078125
    vertex 23087.34765625 15400.291015625 24685.052734375
    vertex 23087.34765625 15400.291015625 24734.205078125
  endloop
endfacet
facet normal -1 0 0
  outer loop
    vertex 23087.34765625 15400.291015625 24685.052734375
    vertex 23087.34765625 15703.8916015625 24734.205078125
    vertex 23087.34765625 15703.8916015625 24685.052734375
  endloop
endfacet
facet normal 2.361858809658141e-13 -3.041058344813857e-13 -1
  outer loop
    vertex 23081.646484375 15668.4716796875 23819.08984375
    vertex 23113.791015625 15703.8916015625 23819.08984375
    vertex 23113.791015625 15668.4716796875 23819.08984375
  endloop
endfacet
facet normal 2.361858809658141e-13 -3.041058344813857e-13 -1
  outer loop
    vertex 23113.791015625 15703.8916015625 23819.08984375
    vertex 23081.646484375 15668.4716796875 23819.08984375
    vertex 23081.646484375 15703.8916015625 23819.08984375
  endloop
endfacet
facet normal -2.919863244417453e-13 -1 -1.603308516495965e-14
  outer loop
    vertex 23113.791015625 15668.4716796875 23819.08984375
    vertex 23081.646484375 15668.4716796875 24727.3515625
    vertex 23081.646484375 15668.4716796875 23819.08984375
  endloop
endfacet
facet normal -2.919863244417453e-13 -1 -1.603308516495965e-14
  outer loop
    vertex 23081.646484375 15668.4716796875 24727.3515625
    vertex 23113.791015625 15668.4716796875 23819.08984375
    vertex 23113.791015625 15668.4716796875 24753.294921875
  endloop
endfacet
facet normal -2.919863244417453e-13 -1 -1.603308516495965e-14
  outer loop
    vertex 23081.646484375 15668.4716796875 24727.3515625
    vertex 23113.791015625 15668.4716796875 24753.294921875
    vertex 23055.203125 15668.4716796875 24746.44140625
  endloop
endfacet
facet normal -2.919863244417453e-13 -1 -1.603308516495965e-14
  outer loop
    vertex 23055.203125 15668.4716796875 24746.44140625
    vertex 23113.791015625 15668.4716796875 24753.294921875
    vertex 20650.01171875 15668.4716796875 26482.90625
  endloop
endfacet
facet normal -2.919863244417453e-13 -1 -1.603308516495965e-14
  outer loop
    vertex 20650.01171875 15668.4716796875 26482.90625
    vertex 23113.791015625 15668.4716796875 24753.294921875
    vertex 20650.01171875 15668.4716796875 26532.05859375
  endloop
endfacet
facet normal 0.3001967370510101 -1.309563351856169e-13 0.953877329826355
  outer loop
    vertex 20636.173828125 15703.8916015625 26542.048828125
    vertex 23113.791015625 15668.4716796875 24753.294921875
    vertex 23113.791015625 15703.8916015625 24753.294921875
  endloop
endfacet
facet normal 0.3001967370510101 -1.309563351856169e-13 0.953877329826355
  outer loop
    vertex 23113.791015625 15668.4716796875 24753.294921875
    vertex 20636.173828125 15703.8916015625 26542.048828125
    vertex 20650.01171875 15668.4716796875 26532.05859375
  endloop
endfacet
facet normal 0.3001967370510101 -1.309563351856169e-13 0.953877329826355
  outer loop
    vertex 20650.01171875 15668.4716796875 26532.05859375
    vertex 20636.173828125 15703.8916015625 26542.048828125
    vertex 20650.01171875 15364.87109375 26532.05859375
  endloop
endfacet
facet normal 0.3001967370510101 -1.309563351856169e-13 0.953877329826355
  outer loop
    vertex 20650.01171875 15364.87109375 26532.05859375
    vertex 20636.173828125 15703.8916015625 26542.048828125
    vertex 20636.173828125 15364.87109375 26542.048828125
  endloop
endfacet
facet normal 1 -4.382862074572141e-13 0
  outer loop
    vertex 23113.791015625 15703.8916015625 24753.294921875
    vertex 23113.791015625 15668.4716796875 23819.08984375
    vertex 23113.791015625 15703.8916015625 23819.08984375
  endloop
endfacet
facet normal 1 -4.382862074572141e-13 0
  outer loop
    vertex 23113.791015625 15668.4716796875 23819.08984375
    vertex 23113.791015625 15703.8916015625 24753.294921875
    vertex 23113.791015625 15668.4716796875 24753.294921875
  endloop
endfacet
facet normal -0.3001967370510101 1.37456167867249e-13 -0.953877329826355
  outer loop
    vertex 23055.203125 15668.4716796875 24746.44140625
    vertex 23081.646484375 15703.8916015625 24727.3515625
    vertex 23081.646484375 15668.4716796875 24727.3515625
  endloop
endfacet
facet normal -0.3001967370510101 1.37456167867249e-13 -0.953877329826355
  outer loop
    vertex 23081.646484375 15703.8916015625 24727.3515625
    vertex 23055.203125 15668.4716796875 24746.44140625
    vertex 23055.203125 15703.8916015625 24746.44140625
  endloop
endfacet
facet normal -1 4.382862074572141e-13 0
  outer loop
    vertex 23081.646484375 15668.4716796875 23819.08984375
    vertex 23081.646484375 15703.8916015625 24727.3515625
    vertex 23081.646484375 15703.8916015625 23819.08984375
  endloop
endfacet
facet normal -1 4.382862074572141e-13 0
  outer loop
    vertex 23081.646484375 15703.8916015625 24727.3515625
    vertex 23081.646484375 15668.4716796875 23819.08984375
    vertex 23081.646484375 15668.4716796875 24727.3515625
  endloop
endfacet
facet normal 2.918011969207934e-13 1 1.421282660790321e-14
  outer loop
    vertex 23081.646484375 15703.8916015625 24727.3515625
    vertex 23113.791015625 15703.8916015625 23819.08984375
    vertex 23081.646484375 15703.8916015625 23819.08984375
  endloop
endfacet
facet normal 2.918011969207934e-13 1 1.421282660790321e-14
  outer loop
    vertex 23113.791015625 15703.8916015625 23819.08984375
    vertex 23081.646484375 15703.8916015625 24727.3515625
    vertex 23113.791015625 15703.8916015625 24753.294921875
  endloop
endfacet
facet normal 2.918011969207934e-13 1 1.421282660790321e-14
  outer loop
    vertex 23113.791015625 15703.8916015625 24753.294921875
    vertex 23081.646484375 15703.8916015625 24727.3515625
    vertex 23055.203125 15703.8916015625 24746.44140625
  endloop
endfacet
facet normal 2.918011969207934e-13 1 1.421282660790321e-14
  outer loop
    vertex 23113.791015625 15703.8916015625 24753.294921875
    vertex 23055.203125 15703.8916015625 24746.44140625
    vertex 20623.568359375 15703.8916015625 26501.998046875
  endloop
endfacet
facet normal 2.918011969207934e-13 1 1.421282660790321e-14
  outer loop
    vertex 23113.791015625 15703.8916015625 24753.294921875
    vertex 20623.568359375 15703.8916015625 26501.998046875
    vertex 20636.173828125 15703.8916015625 26542.048828125
  endloop
endfacet
facet normal 2.918011969207934e-13 1 1.421282660790321e-14
  outer loop
    vertex 20636.173828125 15703.8916015625 26542.048828125
    vertex 20623.568359375 15703.8916015625 26501.998046875
    vertex 20623.568359375 15703.8916015625 26551.1484375
  endloop
endfacet
facet normal 0.3001967370510101 -1.315793313064542e-13 0.953877329826355
  outer loop
    vertex 20623.568359375 15703.8916015625 26551.1484375
    vertex 20636.173828125 15364.87109375 26542.048828125
    vertex 20636.173828125 15703.8916015625 26542.048828125
  endloop
endfacet
facet normal 0.3001967370510101 -1.315793313064542e-13 0.953877329826355
  outer loop
    vertex 20636.173828125 15364.87109375 26542.048828125
    vertex 20623.568359375 15703.8916015625 26551.1484375
    vertex 20623.568359375 15364.87109375 26551.1484375
  endloop
endfacet
facet normal -1 4.382862074572141e-13 0
  outer loop
    vertex 20623.568359375 15364.87109375 26501.998046875
    vertex 20623.568359375 15703.8916015625 26551.1484375
    vertex 20623.568359375 15703.8916015625 26501.998046875
  endloop
endfacet
facet normal -1 4.382862074572141e-13 0
  outer loop
    vertex 20623.568359375 15703.8916015625 26551.1484375
    vertex 20623.568359375 15364.87109375 26501.998046875
    vertex 20623.568359375 15364.87109375 26551.1484375
  endloop
endfacet
facet normal -0.3001967370510101 1.311541478719869e-13 -0.953877329826355
  outer loop
    vertex 20623.568359375 15364.87109375 26501.998046875
    vertex 20650.01171875 15668.4716796875 26482.90625
    vertex 20650.01171875 15364.87109375 26482.90625
  endloop
endfacet
facet normal -0.3001967370510101 1.311541478719869e-13 -0.953877329826355
  outer loop
    vertex 20650.01171875 15668.4716796875 26482.90625
    vertex 20623.568359375 15364.87109375 26501.998046875
    vertex 20623.568359375 15703.8916015625 26501.998046875
  endloop
endfacet
facet normal -0.3001967370510101 1.311541478719869e-13 -0.953877329826355
  outer loop
    vertex 20650.01171875 15668.4716796875 26482.90625
    vertex 23055.203125 15703.8916015625 24746.44140625
    vertex 23055.203125 15668.4716796875 24746.44140625
  endloop
endfacet
facet normal -0.3001967370510101 1.311541478719869e-13 -0.953877329826355
  outer loop
    vertex 23055.203125 15703.8916015625 24746.44140625
    vertex 20650.01171875 15668.4716796875 26482.90625
    vertex 20623.568359375 15703.8916015625 26501.998046875
  endloop
endfacet
facet normal -2.997867253919095e-13 -1 0
  outer loop
    vertex 20650.01171875 15364.87109375 26532.05859375
    vertex 20623.568359375 15364.87109375 26501.998046875
    vertex 20650.01171875 15364.87109375 26482.90625
  endloop
endfacet
facet normal -2.997867253919095e-13 -1 0
  outer loop
    vertex 20623.568359375 15364.87109375 26501.998046875
    vertex 20650.01171875 15364.87109375 26532.05859375
    vertex 20636.173828125 15364.87109375 26542.048828125
  endloop
endfacet
facet normal -2.997867253919095e-13 -1 0
  outer loop
    vertex 20623.568359375 15364.87109375 26501.998046875
    vertex 20636.173828125 15364.87109375 26542.048828125
    vertex 20623.568359375 15364.87109375 26551.1484375
  endloop
endfacet
facet normal 1 -4.382862074572141e-13 0
  outer loop
    vertex 20650.01171875 15364.87109375 26532.05859375
    vertex 20650.01171875 15668.4716796875 26482.90625
    vertex 20650.01171875 15668.4716796875 26532.05859375
  endloop
endfacet
facet normal 1 -4.382862074572141e-13 0
  outer loop
    vertex 20650.01171875 15668.4716796875 26482.90625
    vertex 20650.01171875 15364.87109375 26532.05859375
    vertex 20650.01171875 15364.87109375 26482.90625
  endloop
endfacet
facet normal 1 -3.990327491175394e-13 1.780465118601023e-14
  outer loop
    vertex 23113.791015625 15400.291015625 24753.294921875
    vertex 23113.791015625 15364.87109375 23819.08984375
    vertex 23113.791015625 15400.291015625 23819.08984375
  endloop
endfacet
facet normal 1 -3.990327491175394e-13 1.780465118601023e-14
  outer loop
    vertex 23113.791015625 15364.87109375 23819.08984375
    vertex 23113.791015625 15400.291015625 24753.294921875
    vertex 23113.791015625 15364.87109375 24753.294921875
  endloop
endfacet
facet normal -1 2.992745753906817e-13 -2.450350272892917e-14
  outer loop
    vertex 23073.44921875 15364.87109375 23819.08984375
    vertex 23073.44921875 15400.291015625 24724.169921875
    vertex 23073.44921875 15400.291015625 23819.08984375
  endloop
endfacet
facet normal -1 2.992745753906817e-13 -2.450350272892917e-14
  outer loop
    vertex 23073.44921875 15400.291015625 24724.169921875
    vertex 23073.44921875 15364.87109375 23819.08984375
    vertex 23073.44921875 15364.87109375 24724.169921875
  endloop
endfacet
facet normal -1.919327733855211e-13 -1 -3.972110861798564e-14
  outer loop
    vertex 23113.791015625 15364.87109375 23819.08984375
    vertex 23073.44921875 15364.87109375 24724.169921875
    vertex 23073.44921875 15364.87109375 23819.08984375
  endloop
endfacet
facet normal -1.919327733855211e-13 -1 -3.972110861798564e-14
  outer loop
    vertex 23073.44921875 15364.87109375 24724.169921875
    vertex 23113.791015625 15364.87109375 23819.08984375
    vertex 23113.791015625 15364.87109375 24753.294921875
  endloop
endfacet
facet normal 7.761234993716119e-15 -6.257067346887579e-13 -1
  outer loop
    vertex 23073.44921875 15364.87109375 23819.08984375
    vertex 23113.791015625 15400.291015625 23819.08984375
    vertex 23113.791015625 15364.87109375 23819.08984375
  endloop
endfacet
facet normal 7.761234993716119e-15 -6.257067346887579e-13 -1
  outer loop
    vertex 23113.791015625 15400.291015625 23819.08984375
    vertex 23073.44921875 15364.87109375 23819.08984375
    vertex 23073.44921875 15400.291015625 23819.08984375
  endloop
endfacet
facet normal 2.225572428172368e-13 1 3.639090710629705e-14
  outer loop
    vertex 23073.44921875 15400.291015625 24724.169921875
    vertex 23113.791015625 15400.291015625 23819.08984375
    vertex 23073.44921875 15400.291015625 23819.08984375
  endloop
endfacet
facet normal 2.225572428172368e-13 1 3.639090710629705e-14
  outer loop
    vertex 23113.791015625 15400.291015625 23819.08984375
    vertex 23073.44921875 15400.291015625 24724.169921875
    vertex 23113.791015625 15400.291015625 24753.294921875
  endloop
endfacet
facet normal -0.3001967370510101 2.822771855669204e-13 0.953877329826355
  outer loop
    vertex 23073.44921875 15400.291015625 24724.169921875
    vertex 23113.791015625 15364.87109375 24753.294921875
    vertex 23113.791015625 15400.291015625 24753.294921875
  endloop
endfacet
facet normal -0.3001967370510101 2.822771855669204e-13 0.953877329826355
  outer loop
    vertex 23113.791015625 15364.87109375 24753.294921875
    vertex 23073.44921875 15400.291015625 24724.169921875
    vertex 23073.44921875 15364.87109375 24724.169921875
  endloop
endfacet
facet normal -5.034247758245458e-13 3.548367979652745e-12 -1
  outer loop
    vertex 23050.6484375 17266.208984375 23631.474609375
    vertex 23113.79296875 15645.109375 23631.474609375
    vertex 23050.6484375 15645.109375 23631.474609375
  endloop
endfacet
facet normal -5.034247758245458e-13 3.548367979652745e-12 -1
  outer loop
    vertex 23113.79296875 15645.109375 23631.474609375
    vertex 23050.6484375 17266.208984375 23631.474609375
    vertex 23807.5703125 17266.208984375 23631.474609375
  endloop
endfacet
facet normal -5.034247758245458e-13 3.548367979652745e-12 -1
  outer loop
    vertex 23113.791015625 15385.0556640625 23631.474609375
    vertex 23050.6484375 14115.2529296875 23631.474609375
    vertex 23050.646484375 15385.0517578125 23631.474609375
  endloop
endfacet
facet normal -5.034247758245458e-13 3.548367979652745e-12 -1
  outer loop
    vertex 23050.6484375 14115.2529296875 23631.474609375
    vertex 23113.791015625 15385.0556640625 23631.474609375
    vertex 24715.05859375 14115.2529296875 23631.474609375
  endloop
endfacet
facet normal -5.034247758245458e-13 3.548367979652745e-12 -1
  outer loop
    vertex 24715.05859375 14115.2529296875 23631.474609375
    vertex 23113.791015625 15385.0556640625 23631.474609375
    vertex 23113.79296875 15645.109375 23631.474609375
  endloop
endfacet
facet normal -5.034247758245458e-13 3.548367979652745e-12 -1
  outer loop
    vertex 24715.05859375 14115.2529296875 23631.474609375
    vertex 23113.79296875 15645.109375 23631.474609375
    vertex 23807.5703125 17266.208984375 23631.474609375
  endloop
endfacet
facet normal -5.034247758245458e-13 3.548367979652745e-12 -1
  outer loop
    vertex 24715.05859375 14115.2529296875 23631.474609375
    vertex 23807.5703125 17266.208984375 23631.474609375
    vertex 24715.05859375 17266.208984375 23631.474609375
  endloop
endfacet
facet normal 5.034247758245458e-13 -3.548367979652745e-12 1
  outer loop
    vertex 23050.6484375 14115.2529296875 23819.08984375
    vertex 23113.791015625 15385.0556640625 23819.08984375
    vertex 23050.646484375 15385.0517578125 23819.08984375
  endloop
endfacet
facet normal 5.034247758245458e-13 -3.548367979652745e-12 1
  outer loop
    vertex 23113.791015625 15385.0556640625 23819.08984375
    vertex 23050.6484375 14115.2529296875 23819.08984375
    vertex 24715.05859375 14115.2529296875 23819.08984375
  endloop
endfacet
facet normal 5.034247758245458e-13 -3.548367979652745e-12 1
  outer loop
    vertex 23113.791015625 15385.0556640625 23819.08984375
    vertex 24715.05859375 14115.2529296875 23819.08984375
    vertex 23113.79296875 15645.109375 23819.08984375
  endloop
endfacet
facet normal 5.034247758245458e-13 -3.548367979652745e-12 1
  outer loop
    vertex 23113.79296875 15645.109375 23819.08984375
    vertex 24715.05859375 14115.2529296875 23819.08984375
    vertex 23807.5703125 17266.208984375 23819.08984375
  endloop
endfacet
facet normal 5.034247758245458e-13 -3.548367979652745e-12 1
  outer loop
    vertex 23807.5703125 17266.208984375 23819.08984375
    vertex 24715.05859375 14115.2529296875 23819.08984375
    vertex 24715.05859375 17266.208984375 23819.08984375
  endloop
endfacet
facet normal 5.034247758245458e-13 -3.548367979652745e-12 1
  outer loop
    vertex 23113.79296875 15645.109375 23819.08984375
    vertex 23050.6484375 17266.208984375 23819.08984375
    vertex 23050.6484375 15645.109375 23819.08984375
  endloop
endfacet
facet normal 5.034247758245458e-13 -3.548367979652745e-12 1
  outer loop
    vertex 23050.6484375 17266.208984375 23819.08984375
    vertex 23113.79296875 15645.109375 23819.08984375
    vertex 23807.5703125 17266.208984375 23819.08984375
  endloop
endfacet
facet normal 0 -1 -5.702258543821559e-12
  outer loop
    vertex 24715.05859375 14115.2529296875 23819.08984375
    vertex 23050.6484375 14115.2529296875 23631.474609375
    vertex 24715.05859375 14115.2529296875 23631.474609375
  endloop
endfacet
facet normal 0 -1 -5.702258543821559e-12
  outer loop
    vertex 23050.6484375 14115.2529296875 23631.474609375
    vertex 24715.05859375 14115.2529296875 23819.08984375
    vertex 23050.6484375 14115.2529296875 23819.08984375
  endloop
endfacet
facet normal -1 7.726591813419695e-25 2.032940656093718e-12
  outer loop
    vertex 23050.646484375 15385.0517578125 23819.08984375
    vertex 23050.6484375 14115.2529296875 23631.474609375
    vertex 23050.6484375 14115.2529296875 23819.08984375
  endloop
endfacet
facet normal -1 7.726591813419695e-25 2.032940656093718e-12
  outer loop
    vertex 23050.6484375 14115.2529296875 23631.474609375
    vertex 23050.646484375 15385.0517578125 23819.08984375
    vertex 23050.646484375 15385.0517578125 23631.474609375
  endloop
endfacet
facet normal -2.330918505322188e-05 1 5.702306248717148e-12
  outer loop
    vertex 23050.646484375 15385.0517578125 23819.08984375
    vertex 23113.791015625 15385.0556640625 23631.474609375
    vertex 23050.646484375 15385.0517578125 23631.474609375
  endloop
endfacet
facet normal -2.330918505322188e-05 1 5.702306248717148e-12
  outer loop
    vertex 23113.791015625 15385.0556640625 23631.474609375
    vertex 23050.646484375 15385.0517578125 23819.08984375
    vertex 23113.791015625 15385.0556640625 23819.08984375
  endloop
endfacet
facet normal -1 2.513080517019262e-06 2.032954967562395e-12
  outer loop
    vertex 23113.79296875 15645.109375 23819.08984375
    vertex 23113.791015625 15385.0556640625 23631.474609375
    vertex 23113.791015625 15385.0556640625 23819.08984375
  endloop
endfacet
facet normal -1 2.513080517019262e-06 2.032954967562395e-12
  outer loop
    vertex 23113.791015625 15385.0556640625 23631.474609375
    vertex 23113.79296875 15645.109375 23819.08984375
    vertex 23113.79296875 15645.109375 23631.474609375
  endloop
endfacet
facet normal -1.41778571105533e-06 -1 -5.702255941736345e-12
  outer loop
    vertex 23113.79296875 15645.109375 23819.08984375
    vertex 23050.6484375 15645.109375 23631.474609375
    vertex 23113.79296875 15645.109375 23631.474609375
  endloop
endfacet
facet normal -1.41778571105533e-06 -1 -5.702255941736345e-12
  outer loop
    vertex 23050.6484375 15645.109375 23631.474609375
    vertex 23113.79296875 15645.109375 23819.08984375
    vertex 23050.6484375 15645.109375 23819.08984375
  endloop
endfacet
facet normal -1 -2.673679324089609e-23 2.032940656093718e-12
  outer loop
    vertex 23050.6484375 17266.208984375 23819.08984375
    vertex 23050.6484375 15645.109375 23631.474609375
    vertex 23050.6484375 15645.109375 23819.08984375
  endloop
endfacet
facet normal -1 -2.673679324089609e-23 2.032940656093718e-12
  outer loop
    vertex 23050.6484375 15645.109375 23631.474609375
    vertex 23050.6484375 17266.208984375 23819.08984375
    vertex 23050.6484375 17266.208984375 23631.474609375
  endloop
endfacet
facet normal 1.435803761440501e-24 1 5.702258543821559e-12
  outer loop
    vertex 23050.6484375 17266.208984375 23631.474609375
    vertex 23807.5703125 17266.208984375 23819.08984375
    vertex 23807.5703125 17266.208984375 23631.474609375
  endloop
endfacet
facet normal 1.435803761440501e-24 1 5.702258543821559e-12
  outer loop
    vertex 23807.5703125 17266.208984375 23819.08984375
    vertex 23050.6484375 17266.208984375 23631.474609375
    vertex 23050.6484375 17266.208984375 23819.08984375
  endloop
endfacet
facet normal 1.821620789323533e-13 1 5.702258543821559e-12
  outer loop
    vertex 23807.5703125 17266.208984375 23631.474609375
    vertex 24715.05859375 17266.208984375 23819.08984375
    vertex 24715.05859375 17266.208984375 23631.474609375
  endloop
endfacet
facet normal 1.821620789323533e-13 1 5.702258543821559e-12
  outer loop
    vertex 24715.05859375 17266.208984375 23819.08984375
    vertex 23807.5703125 17266.208984375 23631.474609375
    vertex 23807.5703125 17266.208984375 23819.08984375
  endloop
endfacet
facet normal 1 -1.778188734495936e-13 -2.032940656093718e-12
  outer loop
    vertex 24715.05859375 14115.2529296875 23631.474609375
    vertex 24715.05859375 17266.208984375 23819.08984375
    vertex 24715.05859375 14115.2529296875 23819.08984375
  endloop
endfacet
facet normal 1 -1.778188734495936e-13 -2.032940656093718e-12
  outer loop
    vertex 24715.05859375 17266.208984375 23819.08984375
    vertex 24715.05859375 14115.2529296875 23631.474609375
    vertex 24715.05859375 17266.208984375 23631.474609375
  endloop
endfacet
facet normal -6.988275441587863e-42 -2.988248212244804e-13 -1
  outer loop
    vertex 21031.984375 17266.208984375 25269.314453125
    vertex 20779.65234375 15996.267578125 25269.314453125
    vertex 20779.65234375 17266.208984375 25269.314453125
  endloop
endfacet
facet normal -6.988275441587863e-42 -2.988248212244804e-13 -1
  outer loop
    vertex 20779.65234375 15996.267578125 25269.314453125
    vertex 21031.984375 17266.208984375 25269.314453125
    vertex 21031.984375 15996.267578125 25269.314453125
  endloop
endfacet
facet normal 6.988275441587863e-42 2.988248212244804e-13 1
  outer loop
    vertex 21031.984375 15996.267578125 25450.59375
    vertex 20779.65234375 17266.208984375 25450.59375
    vertex 20779.65234375 15996.267578125 25450.59375
  endloop
endfacet
facet normal 6.988275441587863e-42 2.988248212244804e-13 1
  outer loop
    vertex 20779.65234375 17266.208984375 25450.59375
    vertex 21031.984375 15996.267578125 25450.59375
    vertex 21031.984375 17266.208984375 25450.59375
  endloop
endfacet
facet normal 1 -0 -1.587531030233585e-41
  outer loop
    vertex 21031.984375 17266.208984375 25269.314453125
    vertex 21031.984375 15996.267578125 25450.59375
    vertex 21031.984375 15996.267578125 25269.314453125
  endloop
endfacet
facet normal 1 -0 -1.587531030233585e-41
  outer loop
    vertex 21031.984375 15996.267578125 25450.59375
    vertex 21031.984375 17266.208984375 25269.314453125
    vertex 21031.984375 17266.208984375 25450.59375
  endloop
endfacet
facet normal 0 -1 4.802141215058675e-13
  outer loop
    vertex 21031.984375 15996.267578125 25450.59375
    vertex 20779.65234375 15996.267578125 25269.314453125
    vertex 21031.984375 15996.267578125 25269.314453125
  endloop
endfacet
facet normal 0 -1 4.802141215058675e-13
  outer loop
    vertex 20779.65234375 15996.267578125 25269.314453125
    vertex 21031.984375 15996.267578125 25450.59375
    vertex 20779.65234375 15996.267578125 25450.59375
  endloop
endfacet
facet normal -1 0 1.587531030233585e-41
  outer loop
    vertex 20779.65234375 15996.267578125 25450.59375
    vertex 20779.65234375 17266.208984375 25269.314453125
    vertex 20779.65234375 15996.267578125 25269.314453125
  endloop
endfacet
facet normal -1 0 1.587531030233585e-41
  outer loop
    vertex 20779.65234375 17266.208984375 25269.314453125
    vertex 20779.65234375 15996.267578125 25450.59375
    vertex 20779.65234375 17266.208984375 25450.59375
  endloop
endfacet
facet normal 0 1 -4.802141215058675e-13
  outer loop
    vertex 20779.65234375 17266.208984375 25450.59375
    vertex 21031.984375 17266.208984375 25269.314453125
    vertex 20779.65234375 17266.208984375 25269.314453125
  endloop
endfacet
facet normal 0 1 -4.802141215058675e-13
  outer loop
    vertex 21031.984375 17266.208984375 25269.314453125
    vertex 20779.65234375 17266.208984375 25450.59375
    vertex 21031.984375 17266.208984375 25450.59375
  endloop
endfacet
facet normal -6.988275441587863e-42 -2.988248212244804e-13 -1
  outer loop
    vertex 22041.31640625 17266.208984375 24544.203125
    vertex 21788.984375 15996.267578125 24544.203125
    vertex 21788.984375 17266.208984375 24544.203125
  endloop
endfacet
facet normal -6.988275441587863e-42 -2.988248212244804e-13 -1
  outer loop
    vertex 21788.984375 15996.267578125 24544.203125
    vertex 22041.31640625 17266.208984375 24544.203125
    vertex 22041.31640625 15996.267578125 24544.203125
  endloop
endfacet
facet normal 6.988275441587863e-42 2.988248212244804e-13 1
  outer loop
    vertex 22041.31640625 15996.267578125 24725.48046875
    vertex 21788.984375 17266.208984375 24725.48046875
    vertex 21788.984375 15996.267578125 24725.48046875
  endloop
endfacet
facet normal 6.988275441587863e-42 2.988248212244804e-13 1
  outer loop
    vertex 21788.984375 17266.208984375 24725.48046875
    vertex 22041.31640625 15996.267578125 24725.48046875
    vertex 22041.31640625 17266.208984375 24725.48046875
  endloop
endfacet
facet normal 1 -0 -1.587531030233585e-41
  outer loop
    vertex 22041.31640625 17266.208984375 24544.203125
    vertex 22041.31640625 15996.267578125 24725.48046875
    vertex 22041.31640625 15996.267578125 24544.203125
  endloop
endfacet
facet normal 1 -0 -1.587531030233585e-41
  outer loop
    vertex 22041.31640625 15996.267578125 24725.48046875
    vertex 22041.31640625 17266.208984375 24544.203125
    vertex 22041.31640625 17266.208984375 24725.48046875
  endloop
endfacet
facet normal 0 -1 4.802141215058675e-13
  outer loop
    vertex 22041.31640625 15996.267578125 24725.48046875
    vertex 21788.984375 15996.267578125 24544.203125
    vertex 22041.31640625 15996.267578125 24544.203125
  endloop
endfacet
facet normal 0 -1 4.802141215058675e-13
  outer loop
    vertex 21788.984375 15996.267578125 24544.203125
    vertex 22041.31640625 15996.267578125 24725.48046875
    vertex 21788.984375 15996.267578125 24725.48046875
  endloop
endfacet
facet normal -1 0 1.587531030233585e-41
  outer loop
    vertex 21788.984375 15996.267578125 24725.48046875
    vertex 21788.984375 17266.208984375 24544.203125
    vertex 21788.984375 15996.267578125 24544.203125
  endloop
endfacet
facet normal -1 0 1.587531030233585e-41
  outer loop
    vertex 21788.984375 17266.208984375 24544.203125
    vertex 21788.984375 15996.267578125 24725.48046875
    vertex 21788.984375 17266.208984375 24725.48046875
  endloop
endfacet
facet normal 0 1 -4.802141215058675e-13
  outer loop
    vertex 21788.984375 17266.208984375 24725.48046875
    vertex 22041.31640625 17266.208984375 24544.203125
    vertex 21788.984375 17266.208984375 24544.203125
  endloop
endfacet
facet normal 0 1 -4.802141215058675e-13
  outer loop
    vertex 22041.31640625 17266.208984375 24544.203125
    vertex 21788.984375 17266.208984375 24725.48046875
    vertex 22041.31640625 17266.208984375 24725.48046875
  endloop
endfacet
facet normal -6.988275441587863e-42 -2.988248212244804e-13 -1
  outer loop
    vertex 21536.650390625 17266.208984375 24906.759765625
    vertex 21284.318359375 15996.267578125 24906.759765625
    vertex 21284.318359375 17266.208984375 24906.759765625
  endloop
endfacet
facet normal -6.988275441587863e-42 -2.988248212244804e-13 -1
  outer loop
    vertex 21284.318359375 15996.267578125 24906.759765625
    vertex 21536.650390625 17266.208984375 24906.759765625
    vertex 21536.650390625 15996.267578125 24906.759765625
  endloop
endfacet
facet normal 6.988275441587863e-42 2.988248212244804e-13 1
  outer loop
    vertex 21536.650390625 15996.267578125 25088.037109375
    vertex 21284.318359375 17266.208984375 25088.037109375
    vertex 21284.318359375 15996.267578125 25088.037109375
  endloop
endfacet
facet normal 6.988275441587863e-42 2.988248212244804e-13 1
  outer loop
    vertex 21284.318359375 17266.208984375 25088.037109375
    vertex 21536.650390625 15996.267578125 25088.037109375
    vertex 21536.650390625 17266.208984375 25088.037109375
  endloop
endfacet
facet normal 1 -0 -1.587531030233585e-41
  outer loop
    vertex 21536.650390625 17266.208984375 24906.759765625
    vertex 21536.650390625 15996.267578125 25088.037109375
    vertex 21536.650390625 15996.267578125 24906.759765625
  endloop
endfacet
facet normal 1 -0 -1.587531030233585e-41
  outer loop
    vertex 21536.650390625 15996.267578125 25088.037109375
    vertex 21536.650390625 17266.208984375 24906.759765625
    vertex 21536.650390625 17266.208984375 25088.037109375
  endloop
endfacet
facet normal 0 -1 4.802141215058675e-13
  outer loop
    vertex 21536.650390625 15996.267578125 25088.037109375
    vertex 21284.318359375 15996.267578125 24906.759765625
    vertex 21536.650390625 15996.267578125 24906.759765625
  endloop
endfacet
facet normal 0 -1 4.802141215058675e-13
  outer loop
    vertex 21284.318359375 15996.267578125 24906.759765625
    vertex 21536.650390625 15996.267578125 25088.037109375
    vertex 21284.318359375 15996.267578125 25088.037109375
  endloop
endfacet
facet normal -1 0 1.587531030233585e-41
  outer loop
    vertex 21284.318359375 15996.267578125 25088.037109375
    vertex 21284.318359375 17266.208984375 24906.759765625
    vertex 21284.318359375 15996.267578125 24906.759765625
  endloop
endfacet
facet normal -1 0 1.587531030233585e-41
  outer loop
    vertex 21284.318359375 17266.208984375 24906.759765625
    vertex 21284.318359375 15996.267578125 25088.037109375
    vertex 21284.318359375 17266.208984375 25088.037109375
  endloop
endfacet
facet normal 0 1 -4.802141215058675e-13
  outer loop
    vertex 21284.318359375 17266.208984375 25088.037109375
    vertex 21536.650390625 17266.208984375 24906.759765625
    vertex 21284.318359375 17266.208984375 24906.759765625
  endloop
endfacet
facet normal 0 1 -4.802141215058675e-13
  outer loop
    vertex 21536.650390625 17266.208984375 24906.759765625
    vertex 21284.318359375 17266.208984375 25088.037109375
    vertex 21536.650390625 17266.208984375 25088.037109375
  endloop
endfacet
facet normal -6.988275441587863e-42 -2.988248212244804e-13 -1
  outer loop
    vertex 21284.318359375 17266.208984375 25088.037109375
    vertex 21031.984375 15996.267578125 25088.037109375
    vertex 21031.984375 17266.208984375 25088.037109375
  endloop
endfacet
facet normal -6.988275441587863e-42 -2.988248212244804e-13 -1
  outer loop
    vertex 21031.984375 15996.267578125 25088.037109375
    vertex 21284.318359375 17266.208984375 25088.037109375
    vertex 21284.318359375 15996.267578125 25088.037109375
  endloop
endfacet
facet normal 6.988275441587863e-42 2.988248212244804e-13 1
  outer loop
    vertex 21284.318359375 15996.267578125 25269.314453125
    vertex 21031.984375 17266.208984375 25269.314453125
    vertex 21031.984375 15996.267578125 25269.314453125
  endloop
endfacet
facet normal 6.988275441587863e-42 2.988248212244804e-13 1
  outer loop
    vertex 21031.984375 17266.208984375 25269.314453125
    vertex 21284.318359375 15996.267578125 25269.314453125
    vertex 21284.318359375 17266.208984375 25269.314453125
  endloop
endfacet
facet normal 1 -0 -1.587531030233585e-41
  outer loop
    vertex 21284.318359375 17266.208984375 25088.037109375
    vertex 21284.318359375 15996.267578125 25269.314453125
    vertex 21284.318359375 15996.267578125 25088.037109375
  endloop
endfacet
facet normal 1 -0 -1.587531030233585e-41
  outer loop
    vertex 21284.318359375 15996.267578125 25269.314453125
    vertex 21284.318359375 17266.208984375 25088.037109375
    vertex 21284.318359375 17266.208984375 25269.314453125
  endloop
endfacet
facet normal 0 -1 4.802141215058675e-13
  outer loop
    vertex 21284.318359375 15996.267578125 25269.314453125
    vertex 21031.984375 15996.267578125 25088.037109375
    vertex 21284.318359375 15996.267578125 25088.037109375
  endloop
endfacet
facet normal 0 -1 4.802141215058675e-13
  outer loop
    vertex 21031.984375 15996.267578125 25088.037109375
    vertex 21284.318359375 15996.267578125 25269.314453125
    vertex 21031.984375 15996.267578125 25269.314453125
  endloop
endfacet
facet normal -1 0 1.587531030233585e-41
  outer loop
    vertex 21031.984375 15996.267578125 25269.314453125
    vertex 21031.984375 17266.208984375 25088.037109375
    vertex 21031.984375 15996.267578125 25088.037109375
  endloop
endfacet
facet normal -1 0 1.587531030233585e-41
  outer loop
    vertex 21031.984375 17266.208984375 25088.037109375
    vertex 21031.984375 15996.267578125 25269.314453125
    vertex 21031.984375 17266.208984375 25269.314453125
  endloop
endfacet
facet normal 0 1 -4.802141215058675e-13
  outer loop
    vertex 21031.984375 17266.208984375 25269.314453125
    vertex 21284.318359375 17266.208984375 25088.037109375
    vertex 21031.984375 17266.208984375 25088.037109375
  endloop
endfacet
facet normal 0 1 -4.802141215058675e-13
  outer loop
    vertex 21284.318359375 17266.208984375 25088.037109375
    vertex 21031.984375 17266.208984375 25269.314453125
    vertex 21284.318359375 17266.208984375 25269.314453125
  endloop
endfacet
facet normal -6.988275441587863e-42 -2.988248212244804e-13 -1
  outer loop
    vertex 22293.650390625 17266.208984375 24362.923828125
    vertex 22041.31640625 15996.267578125 24362.923828125
    vertex 22041.31640625 17266.208984375 24362.923828125
  endloop
endfacet
facet normal -6.988275441587863e-42 -2.988248212244804e-13 -1
  outer loop
    vertex 22041.31640625 15996.267578125 24362.923828125
    vertex 22293.650390625 17266.208984375 24362.923828125
    vertex 22293.650390625 15996.267578125 24362.923828125
  endloop
endfacet
facet normal 6.988275441587863e-42 2.988248212244804e-13 1
  outer loop
    vertex 22293.650390625 15996.267578125 24544.203125
    vertex 22041.31640625 17266.208984375 24544.203125
    vertex 22041.31640625 15996.267578125 24544.203125
  endloop
endfacet
facet normal 6.988275441587863e-42 2.988248212244804e-13 1
  outer loop
    vertex 22041.31640625 17266.208984375 24544.203125
    vertex 22293.650390625 15996.267578125 24544.203125
    vertex 22293.650390625 17266.208984375 24544.203125
  endloop
endfacet
facet normal 1 -0 -1.587531030233585e-41
  outer loop
    vertex 22293.650390625 17266.208984375 24362.923828125
    vertex 22293.650390625 15996.267578125 24544.203125
    vertex 22293.650390625 15996.267578125 24362.923828125
  endloop
endfacet
facet normal 1 -0 -1.587531030233585e-41
  outer loop
    vertex 22293.650390625 15996.267578125 24544.203125
    vertex 22293.650390625 17266.208984375 24362.923828125
    vertex 22293.650390625 17266.208984375 24544.203125
  endloop
endfacet
facet normal 0 -1 4.802141215058675e-13
  outer loop
    vertex 22293.650390625 15996.267578125 24544.203125
    vertex 22041.31640625 15996.267578125 24362.923828125
    vertex 22293.650390625 15996.267578125 24362.923828125
  endloop
endfacet
facet normal 0 -1 4.802141215058675e-13
  outer loop
    vertex 22041.31640625 15996.267578125 24362.923828125
    vertex 22293.650390625 15996.267578125 24544.203125
    vertex 22041.31640625 15996.267578125 24544.203125
  endloop
endfacet
facet normal -1 0 1.587531030233585e-41
  outer loop
    vertex 22041.31640625 15996.267578125 24544.203125
    vertex 22041.31640625 17266.208984375 24362.923828125
    vertex 22041.31640625 15996.267578125 24362.923828125
  endloop
endfacet
facet normal -1 0 1.587531030233585e-41
  outer loop
    vertex 22041.31640625 17266.208984375 24362.923828125
    vertex 22041.31640625 15996.267578125 24544.203125
    vertex 22041.31640625 17266.208984375 24544.203125
  endloop
endfacet
facet normal 0 1 -4.802141215058675e-13
  outer loop
    vertex 22041.31640625 17266.208984375 24544.203125
    vertex 22293.650390625 17266.208984375 24362.923828125
    vertex 22041.31640625 17266.208984375 24362.923828125
  endloop
endfacet
facet normal 0 1 -4.802141215058675e-13
  outer loop
    vertex 22293.650390625 17266.208984375 24362.923828125
    vertex 22041.31640625 17266.208984375 24544.203125
    vertex 22293.650390625 17266.208984375 24544.203125
  endloop
endfacet
facet normal -6.988275441587863e-42 -2.988248212244804e-13 -1
  outer loop
    vertex 20779.65234375 17266.208984375 25450.59375
    vertex 20527.318359375 15996.267578125 25450.59375
    vertex 20527.318359375 17266.208984375 25450.59375
  endloop
endfacet
facet normal -6.988275441587863e-42 -2.988248212244804e-13 -1
  outer loop
    vertex 20527.318359375 15996.267578125 25450.59375
    vertex 20779.65234375 17266.208984375 25450.59375
    vertex 20779.65234375 15996.267578125 25450.59375
  endloop
endfacet
facet normal 6.988275441587863e-42 2.988248212244804e-13 1
  outer loop
    vertex 20779.65234375 15996.267578125 25631.87109375
    vertex 20527.318359375 17266.208984375 25631.87109375
    vertex 20527.318359375 15996.267578125 25631.87109375
  endloop
endfacet
facet normal 6.988275441587863e-42 2.988248212244804e-13 1
  outer loop
    vertex 20527.318359375 17266.208984375 25631.87109375
    vertex 20779.65234375 15996.267578125 25631.87109375
    vertex 20779.65234375 17266.208984375 25631.87109375
  endloop
endfacet
facet normal 1 -0 -1.587531030233585e-41
  outer loop
    vertex 20779.65234375 17266.208984375 25450.59375
    vertex 20779.65234375 15996.267578125 25631.87109375
    vertex 20779.65234375 15996.267578125 25450.59375
  endloop
endfacet
facet normal 1 -0 -1.587531030233585e-41
  outer loop
    vertex 20779.65234375 15996.267578125 25631.87109375
    vertex 20779.65234375 17266.208984375 25450.59375
    vertex 20779.65234375 17266.208984375 25631.87109375
  endloop
endfacet
facet normal 0 -1 4.802141215058675e-13
  outer loop
    vertex 20779.65234375 15996.267578125 25631.87109375
    vertex 20527.318359375 15996.267578125 25450.59375
    vertex 20779.65234375 15996.267578125 25450.59375
  endloop
endfacet
facet normal 0 -1 4.802141215058675e-13
  outer loop
    vertex 20527.318359375 15996.267578125 25450.59375
    vertex 20779.65234375 15996.267578125 25631.87109375
    vertex 20527.318359375 15996.267578125 25631.87109375
  endloop
endfacet
facet normal -1 0 1.587531030233585e-41
  outer loop
    vertex 20527.318359375 15996.267578125 25631.87109375
    vertex 20527.318359375 17266.208984375 25450.59375
    vertex 20527.318359375 15996.267578125 25450.59375
  endloop
endfacet
facet normal -1 0 1.587531030233585e-41
  outer loop
    vertex 20527.318359375 17266.208984375 25450.59375
    vertex 20527.318359375 15996.267578125 25631.87109375
    vertex 20527.318359375 17266.208984375 25631.87109375
  endloop
endfacet
facet normal 0 1 -4.802141215058675e-13
  outer loop
    vertex 20527.318359375 17266.208984375 25631.87109375
    vertex 20779.65234375 17266.208984375 25450.59375
    vertex 20527.318359375 17266.208984375 25450.59375
  endloop
endfacet
facet normal 0 1 -4.802141215058675e-13
  outer loop
    vertex 20779.65234375 17266.208984375 25450.59375
    vertex 20527.318359375 17266.208984375 25631.87109375
    vertex 20779.65234375 17266.208984375 25631.87109375
  endloop
endfacet
facet normal -6.988275441587863e-42 -2.988248212244804e-13 -1
  outer loop
    vertex 21788.984375 17266.208984375 24725.48046875
    vertex 21536.650390625 15996.267578125 24725.48046875
    vertex 21536.650390625 17266.208984375 24725.48046875
  endloop
endfacet
facet normal -6.988275441587863e-42 -2.988248212244804e-13 -1
  outer loop
    vertex 21536.650390625 15996.267578125 24725.48046875
    vertex 21788.984375 17266.208984375 24725.48046875
    vertex 21788.984375 15996.267578125 24725.48046875
  endloop
endfacet
facet normal 6.988275441587863e-42 2.988248212244804e-13 1
  outer loop
    vertex 21788.984375 15996.267578125 24906.759765625
    vertex 21536.650390625 17266.208984375 24906.759765625
    vertex 21536.650390625 15996.267578125 24906.759765625
  endloop
endfacet
facet normal 6.988275441587863e-42 2.988248212244804e-13 1
  outer loop
    vertex 21536.650390625 17266.208984375 24906.759765625
    vertex 21788.984375 15996.267578125 24906.759765625
    vertex 21788.984375 17266.208984375 24906.759765625
  endloop
endfacet
facet normal 1 -0 -1.587531030233585e-41
  outer loop
    vertex 21788.984375 17266.208984375 24725.48046875
    vertex 21788.984375 15996.267578125 24906.759765625
    vertex 21788.984375 15996.267578125 24725.48046875
  endloop
endfacet
facet normal 1 -0 -1.587531030233585e-41
  outer loop
    vertex 21788.984375 15996.267578125 24906.759765625
    vertex 21788.984375 17266.208984375 24725.48046875
    vertex 21788.984375 17266.208984375 24906.759765625
  endloop
endfacet
facet normal 0 -1 4.802141215058675e-13
  outer loop
    vertex 21788.984375 15996.267578125 24906.759765625
    vertex 21536.650390625 15996.267578125 24725.48046875
    vertex 21788.984375 15996.267578125 24725.48046875
  endloop
endfacet
facet normal 0 -1 4.802141215058675e-13
  outer loop
    vertex 21536.650390625 15996.267578125 24725.48046875
    vertex 21788.984375 15996.267578125 24906.759765625
    vertex 21536.650390625 15996.267578125 24906.759765625
  endloop
endfacet
facet normal -1 0 1.587531030233585e-41
  outer loop
    vertex 21536.650390625 15996.267578125 24906.759765625
    vertex 21536.650390625 17266.208984375 24725.48046875
    vertex 21536.650390625 15996.267578125 24725.48046875
  endloop
endfacet
facet normal -1 0 1.587531030233585e-41
  outer loop
    vertex 21536.650390625 17266.208984375 24725.48046875
    vertex 21536.650390625 15996.267578125 24906.759765625
    vertex 21536.650390625 17266.208984375 24906.759765625
  endloop
endfacet
facet normal 0 1 -4.802141215058675e-13
  outer loop
    vertex 21536.650390625 17266.208984375 24906.759765625
    vertex 21788.984375 17266.208984375 24725.48046875
    vertex 21536.650390625 17266.208984375 24725.48046875
  endloop
endfacet
facet normal 0 1 -4.802141215058675e-13
  outer loop
    vertex 21788.984375 17266.208984375 24725.48046875
    vertex 21536.650390625 17266.208984375 24906.759765625
    vertex 21788.984375 17266.208984375 24906.759765625
  endloop
endfacet
facet normal -6.988275441587863e-42 -2.988248212244804e-13 -1
  outer loop
    vertex 23050.6484375 17266.208984375 23819.08984375
    vertex 22798.31640625 15996.267578125 23819.08984375
    vertex 22798.31640625 17266.208984375 23819.08984375
  endloop
endfacet
facet normal -6.988275441587863e-42 -2.988248212244804e-13 -1
  outer loop
    vertex 22798.31640625 15996.267578125 23819.08984375
    vertex 23050.6484375 17266.208984375 23819.08984375
    vertex 23050.6484375 15996.267578125 23819.08984375
  endloop
endfacet
facet normal 6.988275441587863e-42 2.988248212244804e-13 1
  outer loop
    vertex 23050.6484375 15996.267578125 24000.369140625
    vertex 22798.31640625 17266.208984375 24000.369140625
    vertex 22798.31640625 15996.267578125 24000.369140625
  endloop
endfacet
facet normal 6.988275441587863e-42 2.988248212244804e-13 1
  outer loop
    vertex 22798.31640625 17266.208984375 24000.369140625
    vertex 23050.6484375 15996.267578125 24000.369140625
    vertex 23050.6484375 17266.208984375 24000.369140625
  endloop
endfacet
facet normal 1 -0 -1.587531030233585e-41
  outer loop
    vertex 23050.6484375 17266.208984375 23819.08984375
    vertex 23050.6484375 15996.267578125 24000.369140625
    vertex 23050.6484375 15996.267578125 23819.08984375
  endloop
endfacet
facet normal 1 -0 -1.587531030233585e-41
  outer loop
    vertex 23050.6484375 15996.267578125 24000.369140625
    vertex 23050.6484375 17266.208984375 23819.08984375
    vertex 23050.6484375 17266.208984375 24000.369140625
  endloop
endfacet
facet normal 0 -1 4.802141215058675e-13
  outer loop
    vertex 23050.6484375 15996.267578125 24000.369140625
    vertex 22798.31640625 15996.267578125 23819.08984375
    vertex 23050.6484375 15996.267578125 23819.08984375
  endloop
endfacet
facet normal 0 -1 4.802141215058675e-13
  outer loop
    vertex 22798.31640625 15996.267578125 23819.08984375
    vertex 23050.6484375 15996.267578125 24000.369140625
    vertex 22798.31640625 15996.267578125 24000.369140625
  endloop
endfacet
facet normal -1 0 1.587531030233585e-41
  outer loop
    vertex 22798.31640625 15996.267578125 24000.369140625
    vertex 22798.31640625 17266.208984375 23819.08984375
    vertex 22798.31640625 15996.267578125 23819.08984375
  endloop
endfacet
facet normal -1 0 1.587531030233585e-41
  outer loop
    vertex 22798.31640625 17266.208984375 23819.08984375
    vertex 22798.31640625 15996.267578125 24000.369140625
    vertex 22798.31640625 17266.208984375 24000.369140625
  endloop
endfacet
facet normal 0 1 -4.802141215058675e-13
  outer loop
    vertex 22798.31640625 17266.208984375 24000.369140625
    vertex 23050.6484375 17266.208984375 23819.08984375
    vertex 22798.31640625 17266.208984375 23819.08984375
  endloop
endfacet
facet normal 0 1 -4.802141215058675e-13
  outer loop
    vertex 23050.6484375 17266.208984375 23819.08984375
    vertex 22798.31640625 17266.208984375 24000.369140625
    vertex 23050.6484375 17266.208984375 24000.369140625
  endloop
endfacet
facet normal -6.988275441587863e-42 -2.988248212244804e-13 -1
  outer loop
    vertex 22798.31640625 17266.208984375 24000.369140625
    vertex 22545.982421875 15996.267578125 24000.369140625
    vertex 22545.982421875 17266.208984375 24000.369140625
  endloop
endfacet
facet normal -6.988275441587863e-42 -2.988248212244804e-13 -1
  outer loop
    vertex 22545.982421875 15996.267578125 24000.369140625
    vertex 22798.31640625 17266.208984375 24000.369140625
    vertex 22798.31640625 15996.267578125 24000.369140625
  endloop
endfacet
facet normal 6.988275441587863e-42 2.988248212244804e-13 1
  outer loop
    vertex 22798.31640625 15996.267578125 24181.646484375
    vertex 22545.982421875 17266.208984375 24181.646484375
    vertex 22545.982421875 15996.267578125 24181.646484375
  endloop
endfacet
facet normal 6.988275441587863e-42 2.988248212244804e-13 1
  outer loop
    vertex 22545.982421875 17266.208984375 24181.646484375
    vertex 22798.31640625 15996.267578125 24181.646484375
    vertex 22798.31640625 17266.208984375 24181.646484375
  endloop
endfacet
facet normal 1 -0 -1.587531030233585e-41
  outer loop
    vertex 22798.31640625 17266.208984375 24000.369140625
    vertex 22798.31640625 15996.267578125 24181.646484375
    vertex 22798.31640625 15996.267578125 24000.369140625
  endloop
endfacet
facet normal 1 -0 -1.587531030233585e-41
  outer loop
    vertex 22798.31640625 15996.267578125 24181.646484375
    vertex 22798.31640625 17266.208984375 24000.369140625
    vertex 22798.31640625 17266.208984375 24181.646484375
  endloop
endfacet
facet normal 0 -1 4.802141215058675e-13
  outer loop
    vertex 22798.31640625 15996.267578125 24181.646484375
    vertex 22545.982421875 15996.267578125 24000.369140625
    vertex 22798.31640625 15996.267578125 24000.369140625
  endloop
endfacet
facet normal 0 -1 4.802141215058675e-13
  outer loop
    vertex 22545.982421875 15996.267578125 24000.369140625
    vertex 22798.31640625 15996.267578125 24181.646484375
    vertex 22545.982421875 15996.267578125 24181.646484375
  endloop
endfacet
facet normal -1 0 1.587531030233585e-41
  outer loop
    vertex 22545.982421875 15996.267578125 24181.646484375
    vertex 22545.982421875 17266.208984375 24000.369140625
    vertex 22545.982421875 15996.267578125 24000.369140625
  endloop
endfacet
facet normal -1 0 1.587531030233585e-41
  outer loop
    vertex 22545.982421875 17266.208984375 24000.369140625
    vertex 22545.982421875 15996.267578125 24181.646484375
    vertex 22545.982421875 17266.208984375 24181.646484375
  endloop
endfacet
facet normal 0 1 -4.802141215058675e-13
  outer loop
    vertex 22545.982421875 17266.208984375 24181.646484375
    vertex 22798.31640625 17266.208984375 24000.369140625
    vertex 22545.982421875 17266.208984375 24000.369140625
  endloop
endfacet
facet normal 0 1 -4.802141215058675e-13
  outer loop
    vertex 22798.31640625 17266.208984375 24000.369140625
    vertex 22545.982421875 17266.208984375 24181.646484375
    vertex 22798.31640625 17266.208984375 24181.646484375
  endloop
endfacet
facet normal -6.988275441587863e-42 -2.988248212244804e-13 -1
  outer loop
    vertex 22545.982421875 17266.208984375 24181.646484375
    vertex 22293.650390625 15996.267578125 24181.646484375
    vertex 22293.650390625 17266.208984375 24181.646484375
  endloop
endfacet
facet normal -6.988275441587863e-42 -2.988248212244804e-13 -1
  outer loop
    vertex 22293.650390625 15996.267578125 24181.646484375
    vertex 22545.982421875 17266.208984375 24181.646484375
    vertex 22545.982421875 15996.267578125 24181.646484375
  endloop
endfacet
facet normal 6.988275441587863e-42 2.988248212244804e-13 1
  outer loop
    vertex 22545.982421875 15996.267578125 24362.923828125
    vertex 22293.650390625 17266.208984375 24362.923828125
    vertex 22293.650390625 15996.267578125 24362.923828125
  endloop
endfacet
facet normal 6.988275441587863e-42 2.988248212244804e-13 1
  outer loop
    vertex 22293.650390625 17266.208984375 24362.923828125
    vertex 22545.982421875 15996.267578125 24362.923828125
    vertex 22545.982421875 17266.208984375 24362.923828125
  endloop
endfacet
facet normal 1 -0 -1.587531030233585e-41
  outer loop
    vertex 22545.982421875 17266.208984375 24181.646484375
    vertex 22545.982421875 15996.267578125 24362.923828125
    vertex 22545.982421875 15996.267578125 24181.646484375
  endloop
endfacet
facet normal 1 -0 -1.587531030233585e-41
  outer loop
    vertex 22545.982421875 15996.267578125 24362.923828125
    vertex 22545.982421875 17266.208984375 24181.646484375
    vertex 22545.982421875 17266.208984375 24362.923828125
  endloop
endfacet
facet normal 0 -1 4.802141215058675e-13
  outer loop
    vertex 22545.982421875 15996.267578125 24362.923828125
    vertex 22293.650390625 15996.267578125 24181.646484375
    vertex 22545.982421875 15996.267578125 24181.646484375
  endloop
endfacet
facet normal 0 -1 4.802141215058675e-13
  outer loop
    vertex 22293.650390625 15996.267578125 24181.646484375
    vertex 22545.982421875 15996.267578125 24362.923828125
    vertex 22293.650390625 15996.267578125 24362.923828125
  endloop
endfacet
facet normal -1 0 1.587531030233585e-41
  outer loop
    vertex 22293.650390625 15996.267578125 24362.923828125
    vertex 22293.650390625 17266.208984375 24181.646484375
    vertex 22293.650390625 15996.267578125 24181.646484375
  endloop
endfacet
facet normal -1 0 1.587531030233585e-41
  outer loop
    vertex 22293.650390625 17266.208984375 24181.646484375
    vertex 22293.650390625 15996.267578125 24362.923828125
    vertex 22293.650390625 17266.208984375 24362.923828125
  endloop
endfacet
facet normal 0 1 -4.802141215058675e-13
  outer loop
    vertex 22293.650390625 17266.208984375 24362.923828125
    vertex 22545.982421875 17266.208984375 24181.646484375
    vertex 22293.650390625 17266.208984375 24181.646484375
  endloop
endfacet
facet normal 0 1 -4.802141215058675e-13
  outer loop
    vertex 22545.982421875 17266.208984375 24181.646484375
    vertex 22293.650390625 17266.208984375 24362.923828125
    vertex 22545.982421875 17266.208984375 24362.923828125
  endloop
endfacet
facet normal -6.988275441587863e-42 -2.988248212244804e-13 -1
  outer loop
    vertex 21284.31640625 15385.0517578125 22368.8671875
    vertex 21031.982421875 14115.1103515625 22368.8671875
    vertex 21031.982421875 15385.0517578125 22368.8671875
  endloop
endfacet
facet normal -6.988275441587863e-42 -2.988248212244804e-13 -1
  outer loop
    vertex 21031.982421875 14115.1103515625 22368.8671875
    vertex 21284.31640625 15385.0517578125 22368.8671875
    vertex 21284.31640625 14115.1103515625 22368.8671875
  endloop
endfacet
facet normal 1 -0 -1.587531030233585e-41
  outer loop
    vertex 21284.31640625 15385.0517578125 22368.8671875
    vertex 21284.31640625 14115.1103515625 22550.14453125
    vertex 21284.31640625 14115.1103515625 22368.8671875
  endloop
endfacet
facet normal 1 -0 -1.587531030233585e-41
  outer loop
    vertex 21284.31640625 14115.1103515625 22550.14453125
    vertex 21284.31640625 15385.0517578125 22368.8671875
    vertex 21284.31640625 15385.0517578125 22550.14453125
  endloop
endfacet
facet normal 0 -1 4.802141215058675e-13
  outer loop
    vertex 21284.31640625 14115.1103515625 22550.14453125
    vertex 21031.982421875 14115.1103515625 22368.8671875
    vertex 21284.31640625 14115.1103515625 22368.8671875
  endloop
endfacet
facet normal 0 -1 4.802141215058675e-13
  outer loop
    vertex 21031.982421875 14115.1103515625 22368.8671875
    vertex 21284.31640625 14115.1103515625 22550.14453125
    vertex 21031.982421875 14115.1103515625 22550.14453125
  endloop
endfacet
facet normal 2.656433968587099e-28 3.050358359998895e-13 1
  outer loop
    vertex 21284.31640625 14115.1103515625 22550.14453125
    vertex 21031.982421875 15385.0517578125 22550.14453125
    vertex 21031.982421875 14115.1103515625 22550.14453125
  endloop
endfacet
facet normal 2.656433968587099e-28 3.050358359998895e-13 1
  outer loop
    vertex 21031.982421875 15385.0517578125 22550.14453125
    vertex 21284.31640625 14115.1103515625 22550.14453125
    vertex 21284.31640625 15385.0517578125 22550.14453125
  endloop
endfacet
facet normal 0 1 -4.802141215058675e-13
  outer loop
    vertex 21031.982421875 15385.0517578125 22550.14453125
    vertex 21284.31640625 15385.0517578125 22368.8671875
    vertex 21031.982421875 15385.0517578125 22368.8671875
  endloop
endfacet
facet normal 0 1 -4.802141215058675e-13
  outer loop
    vertex 21284.31640625 15385.0517578125 22368.8671875
    vertex 21031.982421875 15385.0517578125 22550.14453125
    vertex 21284.31640625 15385.0517578125 22550.14453125
  endloop
endfacet
facet normal -1 0 1.587531030233585e-41
  outer loop
    vertex 21031.982421875 14115.1103515625 22550.14453125
    vertex 21031.982421875 15385.0517578125 22368.8671875
    vertex 21031.982421875 14115.1103515625 22368.8671875
  endloop
endfacet
facet normal -1 0 1.587531030233585e-41
  outer loop
    vertex 21031.982421875 15385.0517578125 22368.8671875
    vertex 21031.982421875 14115.1103515625 22550.14453125
    vertex 21031.982421875 15385.0517578125 22550.14453125
  endloop
endfacet
facet normal -6.988275441587863e-42 -2.988248212244804e-13 -1
  outer loop
    vertex 21031.982421875 15385.0517578125 22187.587890625
    vertex 20779.650390625 14115.1103515625 22187.587890625
    vertex 20779.650390625 15385.0517578125 22187.587890625
  endloop
endfacet
facet normal -6.988275441587863e-42 -2.988248212244804e-13 -1
  outer loop
    vertex 20779.650390625 14115.1103515625 22187.587890625
    vertex 21031.982421875 15385.0517578125 22187.587890625
    vertex 21031.982421875 14115.1103515625 22187.587890625
  endloop
endfacet
facet normal 1 -0 -1.587531030233585e-41
  outer loop
    vertex 21031.982421875 15385.0517578125 22187.587890625
    vertex 21031.982421875 14115.1103515625 22368.8671875
    vertex 21031.982421875 14115.1103515625 22187.587890625
  endloop
endfacet
facet normal 1 -0 -1.587531030233585e-41
  outer loop
    vertex 21031.982421875 14115.1103515625 22368.8671875
    vertex 21031.982421875 15385.0517578125 22187.587890625
    vertex 21031.982421875 15385.0517578125 22368.8671875
  endloop
endfacet
facet normal 0 -1 4.802141215058675e-13
  outer loop
    vertex 21031.982421875 14115.1103515625 22368.8671875
    vertex 20779.650390625 14115.1103515625 22187.587890625
    vertex 21031.982421875 14115.1103515625 22187.587890625
  endloop
endfacet
facet normal 0 -1 4.802141215058675e-13
  outer loop
    vertex 20779.650390625 14115.1103515625 22187.587890625
    vertex 21031.982421875 14115.1103515625 22368.8671875
    vertex 20779.650390625 14115.1103515625 22368.8671875
  endloop
endfacet
facet normal 2.656433968587099e-28 3.050358359998895e-13 1
  outer loop
    vertex 21031.982421875 14115.1103515625 22368.8671875
    vertex 20779.650390625 15385.0517578125 22368.8671875
    vertex 20779.650390625 14115.1103515625 22368.8671875
  endloop
endfacet
facet normal 2.656433968587099e-28 3.050358359998895e-13 1
  outer loop
    vertex 20779.650390625 15385.0517578125 22368.8671875
    vertex 21031.982421875 14115.1103515625 22368.8671875
    vertex 21031.982421875 15385.0517578125 22368.8671875
  endloop
endfacet
facet normal 0 1 -4.802141215058675e-13
  outer loop
    vertex 20779.650390625 15385.0517578125 22368.8671875
    vertex 21031.982421875 15385.0517578125 22187.587890625
    vertex 20779.650390625 15385.0517578125 22187.587890625
  endloop
endfacet
facet normal 0 1 -4.802141215058675e-13
  outer loop
    vertex 21031.982421875 15385.0517578125 22187.587890625
    vertex 20779.650390625 15385.0517578125 22368.8671875
    vertex 21031.982421875 15385.0517578125 22368.8671875
  endloop
endfacet
facet normal -1 0 1.587531030233585e-41
  outer loop
    vertex 20779.650390625 14115.1103515625 22368.8671875
    vertex 20779.650390625 15385.0517578125 22187.587890625
    vertex 20779.650390625 14115.1103515625 22187.587890625
  endloop
endfacet
facet normal -1 0 1.587531030233585e-41
  outer loop
    vertex 20779.650390625 15385.0517578125 22187.587890625
    vertex 20779.650390625 14115.1103515625 22368.8671875
    vertex 20779.650390625 15385.0517578125 22368.8671875
  endloop
endfacet
facet normal -6.988275441587863e-42 -2.988248212244804e-13 -1
  outer loop
    vertex 22041.314453125 15385.0517578125 22912.701171875
    vertex 21788.982421875 14115.1103515625 22912.701171875
    vertex 21788.982421875 15385.0517578125 22912.701171875
  endloop
endfacet
facet normal -6.988275441587863e-42 -2.988248212244804e-13 -1
  outer loop
    vertex 21788.982421875 14115.1103515625 22912.701171875
    vertex 22041.314453125 15385.0517578125 22912.701171875
    vertex 22041.314453125 14115.1103515625 22912.701171875
  endloop
endfacet
facet normal 1 -0 -1.587531030233585e-41
  outer loop
    vertex 22041.314453125 15385.0517578125 22912.701171875
    vertex 22041.314453125 14115.1103515625 23093.978515625
    vertex 22041.314453125 14115.1103515625 22912.701171875
  endloop
endfacet
facet normal 1 -0 -1.587531030233585e-41
  outer loop
    vertex 22041.314453125 14115.1103515625 23093.978515625
    vertex 22041.314453125 15385.0517578125 22912.701171875
    vertex 22041.314453125 15385.0517578125 23093.978515625
  endloop
endfacet
facet normal 0 -1 4.802141215058675e-13
  outer loop
    vertex 22041.314453125 14115.1103515625 23093.978515625
    vertex 21788.982421875 14115.1103515625 22912.701171875
    vertex 22041.314453125 14115.1103515625 22912.701171875
  endloop
endfacet
facet normal 0 -1 4.802141215058675e-13
  outer loop
    vertex 21788.982421875 14115.1103515625 22912.701171875
    vertex 22041.314453125 14115.1103515625 23093.978515625
    vertex 21788.982421875 14115.1103515625 23093.978515625
  endloop
endfacet
facet normal 2.656433968587099e-28 3.050358359998895e-13 1
  outer loop
    vertex 22041.314453125 14115.1103515625 23093.978515625
    vertex 21788.982421875 15385.0517578125 23093.978515625
    vertex 21788.982421875 14115.1103515625 23093.978515625
  endloop
endfacet
facet normal 2.656433968587099e-28 3.050358359998895e-13 1
  outer loop
    vertex 21788.982421875 15385.0517578125 23093.978515625
    vertex 22041.314453125 14115.1103515625 23093.978515625
    vertex 22041.314453125 15385.0517578125 23093.978515625
  endloop
endfacet
facet normal 0 1 -4.802141215058675e-13
  outer loop
    vertex 21788.982421875 15385.0517578125 23093.978515625
    vertex 22041.314453125 15385.0517578125 22912.701171875
    vertex 21788.982421875 15385.0517578125 22912.701171875
  endloop
endfacet
facet normal 0 1 -4.802141215058675e-13
  outer loop
    vertex 22041.314453125 15385.0517578125 22912.701171875
    vertex 21788.982421875 15385.0517578125 23093.978515625
    vertex 22041.314453125 15385.0517578125 23093.978515625
  endloop
endfacet
facet normal -1 0 1.587531030233585e-41
  outer loop
    vertex 21788.982421875 14115.1103515625 23093.978515625
    vertex 21788.982421875 15385.0517578125 22912.701171875
    vertex 21788.982421875 14115.1103515625 22912.701171875
  endloop
endfacet
facet normal -1 0 1.587531030233585e-41
  outer loop
    vertex 21788.982421875 15385.0517578125 22912.701171875
    vertex 21788.982421875 14115.1103515625 23093.978515625
    vertex 21788.982421875 15385.0517578125 23093.978515625
  endloop
endfacet
facet normal -6.988275441587863e-42 -2.988248212244804e-13 -1
  outer loop
    vertex 22293.6484375 15385.0517578125 23093.978515625
    vertex 22041.314453125 14115.1103515625 23093.978515625
    vertex 22041.314453125 15385.0517578125 23093.978515625
  endloop
endfacet
facet normal -6.988275441587863e-42 -2.988248212244804e-13 -1
  outer loop
    vertex 22041.314453125 14115.1103515625 23093.978515625
    vertex 22293.6484375 15385.0517578125 23093.978515625
    vertex 22293.6484375 14115.1103515625 23093.978515625
  endloop
endfacet
facet normal 1 -0 -1.587531030233585e-41
  outer loop
    vertex 22293.6484375 15385.0517578125 23093.978515625
    vertex 22293.6484375 14115.1103515625 23275.255859375
    vertex 22293.6484375 14115.1103515625 23093.978515625
  endloop
endfacet
facet normal 1 -0 -1.587531030233585e-41
  outer loop
    vertex 22293.6484375 14115.1103515625 23275.255859375
    vertex 22293.6484375 15385.0517578125 23093.978515625
    vertex 22293.6484375 15385.0517578125 23275.255859375
  endloop
endfacet
facet normal 0 -1 4.802141215058675e-13
  outer loop
    vertex 22293.6484375 14115.1103515625 23275.255859375
    vertex 22041.314453125 14115.1103515625 23093.978515625
    vertex 22293.6484375 14115.1103515625 23093.978515625
  endloop
endfacet
facet normal 0 -1 4.802141215058675e-13
  outer loop
    vertex 22041.314453125 14115.1103515625 23093.978515625
    vertex 22293.6484375 14115.1103515625 23275.255859375
    vertex 22041.314453125 14115.1103515625 23275.255859375
  endloop
endfacet
facet normal 2.656433968587099e-28 3.050358359998895e-13 1
  outer loop
    vertex 22293.6484375 14115.1103515625 23275.255859375
    vertex 22041.314453125 15385.0517578125 23275.255859375
    vertex 22041.314453125 14115.1103515625 23275.255859375
  endloop
endfacet
facet normal 2.656433968587099e-28 3.050358359998895e-13 1
  outer loop
    vertex 22041.314453125 15385.0517578125 23275.255859375
    vertex 22293.6484375 14115.1103515625 23275.255859375
    vertex 22293.6484375 15385.0517578125 23275.255859375
  endloop
endfacet
facet normal 0 1 -4.802141215058675e-13
  outer loop
    vertex 22041.314453125 15385.0517578125 23275.255859375
    vertex 22293.6484375 15385.0517578125 23093.978515625
    vertex 22041.314453125 15385.0517578125 23093.978515625
  endloop
endfacet
facet normal 0 1 -4.802141215058675e-13
  outer loop
    vertex 22293.6484375 15385.0517578125 23093.978515625
    vertex 22041.314453125 15385.0517578125 23275.255859375
    vertex 22293.6484375 15385.0517578125 23275.255859375
  endloop
endfacet
facet normal -1 0 1.587531030233585e-41
  outer loop
    vertex 22041.314453125 14115.1103515625 23275.255859375
    vertex 22041.314453125 15385.0517578125 23093.978515625
    vertex 22041.314453125 14115.1103515625 23093.978515625
  endloop
endfacet
facet normal -1 0 1.587531030233585e-41
  outer loop
    vertex 22041.314453125 15385.0517578125 23093.978515625
    vertex 22041.314453125 14115.1103515625 23275.255859375
    vertex 22041.314453125 15385.0517578125 23275.255859375
  endloop
endfacet
facet normal -6.988275441587863e-42 -2.988248212244804e-13 -1
  outer loop
    vertex 22545.98046875 15385.0517578125 23275.255859375
    vertex 22293.6484375 14115.1103515625 23275.255859375
    vertex 22293.6484375 15385.0517578125 23275.255859375
  endloop
endfacet
facet normal -6.988275441587863e-42 -2.988248212244804e-13 -1
  outer loop
    vertex 22293.6484375 14115.1103515625 23275.255859375
    vertex 22545.98046875 15385.0517578125 23275.255859375
    vertex 22545.98046875 14115.1103515625 23275.255859375
  endloop
endfacet
facet normal 1 -0 -1.587531030233585e-41
  outer loop
    vertex 22545.98046875 15385.0517578125 23275.255859375
    vertex 22545.98046875 14115.1103515625 23456.53515625
    vertex 22545.98046875 14115.1103515625 23275.255859375
  endloop
endfacet
facet normal 1 -0 -1.587531030233585e-41
  outer loop
    vertex 22545.98046875 14115.1103515625 23456.53515625
    vertex 22545.98046875 15385.0517578125 23275.255859375
    vertex 22545.98046875 15385.0517578125 23456.53515625
  endloop
endfacet
facet normal 0 -1 4.802141215058675e-13
  outer loop
    vertex 22545.98046875 14115.1103515625 23456.53515625
    vertex 22293.6484375 14115.1103515625 23275.255859375
    vertex 22545.98046875 14115.1103515625 23275.255859375
  endloop
endfacet
facet normal 0 -1 4.802141215058675e-13
  outer loop
    vertex 22293.6484375 14115.1103515625 23275.255859375
    vertex 22545.98046875 14115.1103515625 23456.53515625
    vertex 22293.6484375 14115.1103515625 23456.53515625
  endloop
endfacet
facet normal 2.656433968587099e-28 3.050358359998895e-13 1
  outer loop
    vertex 22545.98046875 14115.1103515625 23456.53515625
    vertex 22293.6484375 15385.0517578125 23456.53515625
    vertex 22293.6484375 14115.1103515625 23456.53515625
  endloop
endfacet
facet normal 2.656433968587099e-28 3.050358359998895e-13 1
  outer loop
    vertex 22293.6484375 15385.0517578125 23456.53515625
    vertex 22545.98046875 14115.1103515625 23456.53515625
    vertex 22545.98046875 15385.0517578125 23456.53515625
  endloop
endfacet
facet normal 0 1 -4.802141215058675e-13
  outer loop
    vertex 22293.6484375 15385.0517578125 23456.53515625
    vertex 22545.98046875 15385.0517578125 23275.255859375
    vertex 22293.6484375 15385.0517578125 23275.255859375
  endloop
endfacet
facet normal 0 1 -4.802141215058675e-13
  outer loop
    vertex 22545.98046875 15385.0517578125 23275.255859375
    vertex 22293.6484375 15385.0517578125 23456.53515625
    vertex 22545.98046875 15385.0517578125 23456.53515625
  endloop
endfacet
facet normal -1 0 1.587531030233585e-41
  outer loop
    vertex 22293.6484375 14115.1103515625 23456.53515625
    vertex 22293.6484375 15385.0517578125 23275.255859375
    vertex 22293.6484375 14115.1103515625 23275.255859375
  endloop
endfacet
facet normal -1 0 1.587531030233585e-41
  outer loop
    vertex 22293.6484375 15385.0517578125 23275.255859375
    vertex 22293.6484375 14115.1103515625 23456.53515625
    vertex 22293.6484375 15385.0517578125 23456.53515625
  endloop
endfacet
facet normal -6.988275441587863e-42 -2.988248212244804e-13 -1
  outer loop
    vertex 21536.6484375 15385.0517578125 22550.14453125
    vertex 21284.31640625 14115.1103515625 22550.14453125
    vertex 21284.31640625 15385.0517578125 22550.14453125
  endloop
endfacet
facet normal -6.988275441587863e-42 -2.988248212244804e-13 -1
  outer loop
    vertex 21284.31640625 14115.1103515625 22550.14453125
    vertex 21536.6484375 15385.0517578125 22550.14453125
    vertex 21536.6484375 14115.1103515625 22550.14453125
  endloop
endfacet
facet normal 1 -0 -1.587531030233585e-41
  outer loop
    vertex 21536.6484375 15385.0517578125 22550.14453125
    vertex 21536.6484375 14115.1103515625 22731.421875
    vertex 21536.6484375 14115.1103515625 22550.14453125
  endloop
endfacet
facet normal 1 -0 -1.587531030233585e-41
  outer loop
    vertex 21536.6484375 14115.1103515625 22731.421875
    vertex 21536.6484375 15385.0517578125 22550.14453125
    vertex 21536.6484375 15385.0517578125 22731.421875
  endloop
endfacet
facet normal 0 -1 4.802141215058675e-13
  outer loop
    vertex 21536.6484375 14115.1103515625 22731.421875
    vertex 21284.31640625 14115.1103515625 22550.14453125
    vertex 21536.6484375 14115.1103515625 22550.14453125
  endloop
endfacet
facet normal 0 -1 4.802141215058675e-13
  outer loop
    vertex 21284.31640625 14115.1103515625 22550.14453125
    vertex 21536.6484375 14115.1103515625 22731.421875
    vertex 21284.31640625 14115.1103515625 22731.421875
  endloop
endfacet
facet normal 2.656433968587099e-28 3.050358359998895e-13 1
  outer loop
    vertex 21536.6484375 14115.1103515625 22731.421875
    vertex 21284.31640625 15385.0517578125 22731.421875
    vertex 21284.31640625 14115.1103515625 22731.421875
  endloop
endfacet
facet normal 2.656433968587099e-28 3.050358359998895e-13 1
  outer loop
    vertex 21284.31640625 15385.0517578125 22731.421875
    vertex 21536.6484375 14115.1103515625 22731.421875
    vertex 21536.6484375 15385.0517578125 22731.421875
  endloop
endfacet
facet normal 0 1 -4.802141215058675e-13
  outer loop
    vertex 21284.31640625 15385.0517578125 22731.421875
    vertex 21536.6484375 15385.0517578125 22550.14453125
    vertex 21284.31640625 15385.0517578125 22550.14453125
  endloop
endfacet
facet normal 0 1 -4.802141215058675e-13
  outer loop
    vertex 21536.6484375 15385.0517578125 22550.14453125
    vertex 21284.31640625 15385.0517578125 22731.421875
    vertex 21536.6484375 15385.0517578125 22731.421875
  endloop
endfacet
facet normal -1 0 1.587531030233585e-41
  outer loop
    vertex 21284.31640625 14115.1103515625 22731.421875
    vertex 21284.31640625 15385.0517578125 22550.14453125
    vertex 21284.31640625 14115.1103515625 22550.14453125
  endloop
endfacet
facet normal -1 0 1.587531030233585e-41
  outer loop
    vertex 21284.31640625 15385.0517578125 22550.14453125
    vertex 21284.31640625 14115.1103515625 22731.421875
    vertex 21284.31640625 15385.0517578125 22731.421875
  endloop
endfacet
facet normal -6.988275441587863e-42 -2.988248212244804e-13 -1
  outer loop
    vertex 22798.314453125 15385.0517578125 23456.53515625
    vertex 22545.98046875 14115.1103515625 23456.53515625
    vertex 22545.98046875 15385.0517578125 23456.53515625
  endloop
endfacet
facet normal -6.988275441587863e-42 -2.988248212244804e-13 -1
  outer loop
    vertex 22545.98046875 14115.1103515625 23456.53515625
    vertex 22798.314453125 15385.0517578125 23456.53515625
    vertex 22798.314453125 14115.1103515625 23456.53515625
  endloop
endfacet
facet normal 1 -0 -1.587531030233585e-41
  outer loop
    vertex 22798.314453125 15385.0517578125 23456.53515625
    vertex 22798.314453125 14115.1103515625 23637.8125
    vertex 22798.314453125 14115.1103515625 23456.53515625
  endloop
endfacet
facet normal 1 -0 -1.587531030233585e-41
  outer loop
    vertex 22798.314453125 14115.1103515625 23637.8125
    vertex 22798.314453125 15385.0517578125 23456.53515625
    vertex 22798.314453125 15385.0517578125 23637.8125
  endloop
endfacet
facet normal 0 -1 4.802141215058675e-13
  outer loop
    vertex 22798.314453125 14115.1103515625 23637.8125
    vertex 22545.98046875 14115.1103515625 23456.53515625
    vertex 22798.314453125 14115.1103515625 23456.53515625
  endloop
endfacet
facet normal 0 -1 4.802141215058675e-13
  outer loop
    vertex 22545.98046875 14115.1103515625 23456.53515625
    vertex 22798.314453125 14115.1103515625 23637.8125
    vertex 22545.98046875 14115.1103515625 23637.8125
  endloop
endfacet
facet normal 2.656433968587099e-28 3.050358359998895e-13 1
  outer loop
    vertex 22798.314453125 14115.1103515625 23637.8125
    vertex 22545.98046875 15385.0517578125 23637.8125
    vertex 22545.98046875 14115.1103515625 23637.8125
  endloop
endfacet
facet normal 2.656433968587099e-28 3.050358359998895e-13 1
  outer loop
    vertex 22545.98046875 15385.0517578125 23637.8125
    vertex 22798.314453125 14115.1103515625 23637.8125
    vertex 22798.314453125 15385.0517578125 23637.8125
  endloop
endfacet
facet normal 0 1 -4.802141215058675e-13
  outer loop
    vertex 22545.98046875 15385.0517578125 23637.8125
    vertex 22798.314453125 15385.0517578125 23456.53515625
    vertex 22545.98046875 15385.0517578125 23456.53515625
  endloop
endfacet
facet normal 0 1 -4.802141215058675e-13
  outer loop
    vertex 22798.314453125 15385.0517578125 23456.53515625
    vertex 22545.98046875 15385.0517578125 23637.8125
    vertex 22798.314453125 15385.0517578125 23637.8125
  endloop
endfacet
facet normal -1 0 1.587531030233585e-41
  outer loop
    vertex 22545.98046875 14115.1103515625 23637.8125
    vertex 22545.98046875 15385.0517578125 23456.53515625
    vertex 22545.98046875 14115.1103515625 23456.53515625
  endloop
endfacet
facet normal -1 0 1.587531030233585e-41
  outer loop
    vertex 22545.98046875 15385.0517578125 23456.53515625
    vertex 22545.98046875 14115.1103515625 23637.8125
    vertex 22545.98046875 15385.0517578125 23637.8125
  endloop
endfacet
facet normal -6.988275441587863e-42 -2.988248212244804e-13 -1
  outer loop
    vertex 21788.982421875 15385.0517578125 22731.421875
    vertex 21536.6484375 14115.1103515625 22731.421875
    vertex 21536.6484375 15385.0517578125 22731.421875
  endloop
endfacet
facet normal -6.988275441587863e-42 -2.988248212244804e-13 -1
  outer loop
    vertex 21536.6484375 14115.1103515625 22731.421875
    vertex 21788.982421875 15385.0517578125 22731.421875
    vertex 21788.982421875 14115.1103515625 22731.421875
  endloop
endfacet
facet normal 1 -0 -1.587531030233585e-41
  outer loop
    vertex 21788.982421875 15385.0517578125 22731.421875
    vertex 21788.982421875 14115.1103515625 22912.701171875
    vertex 21788.982421875 14115.1103515625 22731.421875
  endloop
endfacet
facet normal 1 -0 -1.587531030233585e-41
  outer loop
    vertex 21788.982421875 14115.1103515625 22912.701171875
    vertex 21788.982421875 15385.0517578125 22731.421875
    vertex 21788.982421875 15385.0517578125 22912.701171875
  endloop
endfacet
facet normal 0 -1 4.802141215058675e-13
  outer loop
    vertex 21788.982421875 14115.1103515625 22912.701171875
    vertex 21536.6484375 14115.1103515625 22731.421875
    vertex 21788.982421875 14115.1103515625 22731.421875
  endloop
endfacet
facet normal 0 -1 4.802141215058675e-13
  outer loop
    vertex 21536.6484375 14115.1103515625 22731.421875
    vertex 21788.982421875 14115.1103515625 22912.701171875
    vertex 21536.6484375 14115.1103515625 22912.701171875
  endloop
endfacet
facet normal 2.656433968587099e-28 3.050358359998895e-13 1
  outer loop
    vertex 21788.982421875 14115.1103515625 22912.701171875
    vertex 21536.6484375 15385.0517578125 22912.701171875
    vertex 21536.6484375 14115.1103515625 22912.701171875
  endloop
endfacet
facet normal 2.656433968587099e-28 3.050358359998895e-13 1
  outer loop
    vertex 21536.6484375 15385.0517578125 22912.701171875
    vertex 21788.982421875 14115.1103515625 22912.701171875
    vertex 21788.982421875 15385.0517578125 22912.701171875
  endloop
endfacet
facet normal 0 1 -4.802141215058675e-13
  outer loop
    vertex 21536.6484375 15385.0517578125 22912.701171875
    vertex 21788.982421875 15385.0517578125 22731.421875
    vertex 21536.6484375 15385.0517578125 22731.421875
  endloop
endfacet
facet normal 0 1 -4.802141215058675e-13
  outer loop
    vertex 21788.982421875 15385.0517578125 22731.421875
    vertex 21536.6484375 15385.0517578125 22912.701171875
    vertex 21788.982421875 15385.0517578125 22912.701171875
  endloop
endfacet
facet normal -1 0 1.587531030233585e-41
  outer loop
    vertex 21536.6484375 14115.1103515625 22912.701171875
    vertex 21536.6484375 15385.0517578125 22731.421875
    vertex 21536.6484375 14115.1103515625 22731.421875
  endloop
endfacet
facet normal -1 0 1.587531030233585e-41
  outer loop
    vertex 21536.6484375 15385.0517578125 22731.421875
    vertex 21536.6484375 14115.1103515625 22912.701171875
    vertex 21536.6484375 15385.0517578125 22912.701171875
  endloop
endfacet
facet normal -6.988275441587863e-42 -2.988248212244804e-13 -1
  outer loop
    vertex 23050.646484375 15385.0517578125 23637.8125
    vertex 22798.314453125 14115.1103515625 23637.8125
    vertex 22798.314453125 15385.0517578125 23637.8125
  endloop
endfacet
facet normal -6.988275441587863e-42 -2.988248212244804e-13 -1
  outer loop
    vertex 22798.314453125 14115.1103515625 23637.8125
    vertex 23050.646484375 15385.0517578125 23637.8125
    vertex 23050.646484375 14115.1103515625 23637.8125
  endloop
endfacet
facet normal 1 -0 -1.587531030233585e-41
  outer loop
    vertex 23050.646484375 15385.0517578125 23637.8125
    vertex 23050.646484375 14115.1103515625 23819.08984375
    vertex 23050.646484375 14115.1103515625 23637.8125
  endloop
endfacet
facet normal 1 -0 -1.587531030233585e-41
  outer loop
    vertex 23050.646484375 14115.1103515625 23819.08984375
    vertex 23050.646484375 15385.0517578125 23637.8125
    vertex 23050.646484375 15385.0517578125 23819.08984375
  endloop
endfacet
facet normal 0 -1 4.802141215058675e-13
  outer loop
    vertex 23050.646484375 14115.1103515625 23819.08984375
    vertex 22798.314453125 14115.1103515625 23637.8125
    vertex 23050.646484375 14115.1103515625 23637.8125
  endloop
endfacet
facet normal 0 -1 4.802141215058675e-13
  outer loop
    vertex 22798.314453125 14115.1103515625 23637.8125
    vertex 23050.646484375 14115.1103515625 23819.08984375
    vertex 22798.314453125 14115.1103515625 23819.08984375
  endloop
endfacet
facet normal 2.656433968587099e-28 3.050358359998895e-13 1
  outer loop
    vertex 23050.646484375 14115.1103515625 23819.08984375
    vertex 22798.314453125 15385.0517578125 23819.08984375
    vertex 22798.314453125 14115.1103515625 23819.08984375
  endloop
endfacet
facet normal 2.656433968587099e-28 3.050358359998895e-13 1
  outer loop
    vertex 22798.314453125 15385.0517578125 23819.08984375
    vertex 23050.646484375 14115.1103515625 23819.08984375
    vertex 23050.646484375 15385.0517578125 23819.08984375
  endloop
endfacet
facet normal 0 1 -4.802141215058675e-13
  outer loop
    vertex 22798.314453125 15385.0517578125 23819.08984375
    vertex 23050.646484375 15385.0517578125 23637.8125
    vertex 22798.314453125 15385.0517578125 23637.8125
  endloop
endfacet
facet normal 0 1 -4.802141215058675e-13
  outer loop
    vertex 23050.646484375 15385.0517578125 23637.8125
    vertex 22798.314453125 15385.0517578125 23819.08984375
    vertex 23050.646484375 15385.0517578125 23819.08984375
  endloop
endfacet
facet normal -1 0 1.587531030233585e-41
  outer loop
    vertex 22798.314453125 14115.1103515625 23819.08984375
    vertex 22798.314453125 15385.0517578125 23637.8125
    vertex 22798.314453125 14115.1103515625 23637.8125
  endloop
endfacet
facet normal -1 0 1.587531030233585e-41
  outer loop
    vertex 22798.314453125 15385.0517578125 23637.8125
    vertex 22798.314453125 14115.1103515625 23819.08984375
    vertex 22798.314453125 15385.0517578125 23819.08984375
  endloop
endfacet
endsolid com.sketchup.SketchUp.2019
