solid com.sketchup.SketchUp.2019
facet normal -6.954644278444067e-42 -3.024107385948133e-13 -1
  outer loop
    vertex 20760.486328125 15400.337890625 18318.70703125
    vertex 20509.396484375 14115.1572265625 18318.70703125
    vertex 20509.396484375 15400.337890625 18318.70703125
  endloop
endfacet
facet normal -6.954644278444067e-42 -3.024107385948133e-13 -1
  outer loop
    vertex 20509.396484375 14115.1572265625 18318.70703125
    vertex 20760.486328125 15400.337890625 18318.70703125
    vertex 20760.486328125 14115.1572265625 18318.70703125
  endloop
endfacet
facet normal 1 -0 -1.595378301633804e-41
  outer loop
    vertex 20760.486328125 15400.337890625 18318.70703125
    vertex 20760.486328125 14115.1572265625 18499.986328125
    vertex 20760.486328125 14115.1572265625 18318.70703125
  endloop
endfacet
facet normal 1 -0 -1.595378301633804e-41
  outer loop
    vertex 20760.486328125 14115.1572265625 18499.986328125
    vertex 20760.486328125 15400.337890625 18318.70703125
    vertex 20760.486328125 15400.337890625 18499.986328125
  endloop
endfacet
facet normal 0 -1 4.745198916959736e-13
  outer loop
    vertex 20760.486328125 14115.1572265625 18499.986328125
    vertex 20509.396484375 14115.1572265625 18318.70703125
    vertex 20760.486328125 14115.1572265625 18318.70703125
  endloop
endfacet
facet normal 0 -1 4.745198916959736e-13
  outer loop
    vertex 20509.396484375 14115.1572265625 18318.70703125
    vertex 20760.486328125 14115.1572265625 18499.986328125
    vertex 20509.396484375 14115.1572265625 18499.986328125
  endloop
endfacet
facet normal 2.643346070908773e-28 3.086962651645264e-13 1
  outer loop
    vertex 20760.486328125 14115.1572265625 18499.986328125
    vertex 20509.396484375 15400.337890625 18499.986328125
    vertex 20509.396484375 14115.1572265625 18499.986328125
  endloop
endfacet
facet normal 2.643346070908773e-28 3.086962651645264e-13 1
  outer loop
    vertex 20509.396484375 15400.337890625 18499.986328125
    vertex 20760.486328125 14115.1572265625 18499.986328125
    vertex 20605.646484375 15364.91796875 18499.986328125
  endloop
endfacet
facet normal 2.643346070908773e-28 3.086962651645264e-13 1
  outer loop
    vertex 20605.646484375 15364.91796875 18499.986328125
    vertex 20760.486328125 14115.1572265625 18499.986328125
    vertex 20637.791015625 15364.91796875 18499.986328125
  endloop
endfacet
facet normal 2.643346070908773e-28 3.086962651645264e-13 1
  outer loop
    vertex 20637.791015625 15364.91796875 18499.986328125
    vertex 20760.486328125 14115.1572265625 18499.986328125
    vertex 20637.791015625 15400.337890625 18499.986328125
  endloop
endfacet
facet normal 2.643346070908773e-28 3.086962651645264e-13 1
  outer loop
    vertex 20637.791015625 15400.337890625 18499.986328125
    vertex 20760.486328125 14115.1572265625 18499.986328125
    vertex 20760.486328125 15400.337890625 18499.986328125
  endloop
endfacet
facet normal 2.643346070908773e-28 3.086962651645264e-13 1
  outer loop
    vertex 20605.646484375 15400.337890625 18499.986328125
    vertex 20509.396484375 15400.337890625 18499.986328125
    vertex 20605.646484375 15364.91796875 18499.986328125
  endloop
endfacet
facet normal 0 1 -4.745198916959736e-13
  outer loop
    vertex 20509.396484375 15400.337890625 18499.986328125
    vertex 20760.486328125 15400.337890625 18318.70703125
    vertex 20509.396484375 15400.337890625 18318.70703125
  endloop
endfacet
facet normal 0 1 -4.745198916959736e-13
  outer loop
    vertex 20760.486328125 15400.337890625 18318.70703125
    vertex 20509.396484375 15400.337890625 18499.986328125
    vertex 20760.486328125 15400.337890625 18499.986328125
  endloop
endfacet
facet normal -1 0 1.595378301633804e-41
  outer loop
    vertex 20509.396484375 14115.1572265625 18499.986328125
    vertex 20509.396484375 15400.337890625 18318.70703125
    vertex 20509.396484375 14115.1572265625 18318.70703125
  endloop
endfacet
facet normal -1 0 1.595378301633804e-41
  outer loop
    vertex 20509.396484375 15400.337890625 18318.70703125
    vertex 20509.396484375 14115.1572265625 18499.986328125
    vertex 20509.396484375 15400.337890625 18499.986328125
  endloop
endfacet
facet normal -2.361858809658141e-13 3.041058344813857e-13 -1
  outer loop
    vertex 20637.791015625 15400.337890625 18499.986328125
    vertex 20605.646484375 15364.91796875 18499.986328125
    vertex 20605.646484375 15400.337890625 18499.986328125
  endloop
endfacet
facet normal -2.361858809658141e-13 3.041058344813857e-13 -1
  outer loop
    vertex 20605.646484375 15364.91796875 18499.986328125
    vertex 20637.791015625 15400.337890625 18499.986328125
    vertex 20637.791015625 15364.91796875 18499.986328125
  endloop
endfacet
facet normal -7.800413655658419e-15 1 -1.603308516495965e-14
  outer loop
    vertex 20605.646484375 15400.337890625 18499.986328125
    vertex 20637.791015625 15400.337890625 19429.51171875
    vertex 20637.791015625 15400.337890625 18499.986328125
  endloop
endfacet
facet normal -7.800413655658419e-15 1 -1.603308516495965e-14
  outer loop
    vertex 20637.791015625 15400.337890625 19429.51171875
    vertex 20605.646484375 15400.337890625 18499.986328125
    vertex 20605.646484375 15400.337890625 19455.455078125
  endloop
endfacet
facet normal -7.800413655658419e-15 1 -1.603308516495965e-14
  outer loop
    vertex 20637.791015625 15400.337890625 19429.51171875
    vertex 20605.646484375 15400.337890625 19455.455078125
    vertex 20664.234375 15400.337890625 19448.6015625
  endloop
endfacet
facet normal -7.800413655658419e-15 1 -1.603308516495965e-14
  outer loop
    vertex 20664.234375 15400.337890625 19448.6015625
    vertex 20605.646484375 15400.337890625 19455.455078125
    vertex 23069.427734375 15400.337890625 21185.06640625
  endloop
endfacet
facet normal -7.800413655658419e-15 1 -1.603308516495965e-14
  outer loop
    vertex 23069.427734375 15400.337890625 21185.06640625
    vertex 20605.646484375 15400.337890625 19455.455078125
    vertex 23069.427734375 15400.337890625 21234.21875
  endloop
endfacet
facet normal -0.3001967370510101 -6.157609242205583e-16 0.953877329826355
  outer loop
    vertex 23083.265625 15364.91796875 21244.208984375
    vertex 20605.646484375 15400.337890625 19455.455078125
    vertex 20605.646484375 15364.91796875 19455.455078125
  endloop
endfacet
facet normal -0.3001967370510101 -6.157609242205583e-16 0.953877329826355
  outer loop
    vertex 20605.646484375 15400.337890625 19455.455078125
    vertex 23083.265625 15364.91796875 21244.208984375
    vertex 23069.427734375 15400.337890625 21234.21875
  endloop
endfacet
facet normal -0.3001967370510101 -6.157609242205583e-16 0.953877329826355
  outer loop
    vertex 23069.427734375 15400.337890625 21234.21875
    vertex 23083.265625 15364.91796875 21244.208984375
    vertex 23069.427734375 15703.9384765625 21234.21875
  endloop
endfacet
facet normal -0.3001967370510101 -6.157609242205583e-16 0.953877329826355
  outer loop
    vertex 23069.427734375 15703.9384765625 21234.21875
    vertex 23083.265625 15364.91796875 21244.208984375
    vertex 23083.265625 15703.9384765625 21244.208984375
  endloop
endfacet
facet normal -1 0 0
  outer loop
    vertex 20605.646484375 15364.91796875 19455.455078125
    vertex 20605.646484375 15400.337890625 18499.986328125
    vertex 20605.646484375 15364.91796875 18499.986328125
  endloop
endfacet
facet normal -1 0 0
  outer loop
    vertex 20605.646484375 15400.337890625 18499.986328125
    vertex 20605.646484375 15364.91796875 19455.455078125
    vertex 20605.646484375 15400.337890625 19455.455078125
  endloop
endfacet
facet normal 0.3001967370510101 -5.884074033812555e-15 -0.953877329826355
  outer loop
    vertex 20664.234375 15400.337890625 19448.6015625
    vertex 20637.791015625 15364.91796875 19429.51171875
    vertex 20637.791015625 15400.337890625 19429.51171875
  endloop
endfacet
facet normal 0.3001967370510101 -5.884074033812555e-15 -0.953877329826355
  outer loop
    vertex 20637.791015625 15364.91796875 19429.51171875
    vertex 20664.234375 15400.337890625 19448.6015625
    vertex 20664.234375 15364.91796875 19448.6015625
  endloop
endfacet
facet normal 1 0 0
  outer loop
    vertex 20637.791015625 15400.337890625 18499.986328125
    vertex 20637.791015625 15364.91796875 19429.51171875
    vertex 20637.791015625 15364.91796875 18499.986328125
  endloop
endfacet
facet normal 1 0 0
  outer loop
    vertex 20637.791015625 15364.91796875 19429.51171875
    vertex 20637.791015625 15400.337890625 18499.986328125
    vertex 20637.791015625 15400.337890625 19429.51171875
  endloop
endfacet
facet normal 7.985522541885479e-15 -1 1.421282660790321e-14
  outer loop
    vertex 20637.791015625 15364.91796875 19429.51171875
    vertex 20605.646484375 15364.91796875 18499.986328125
    vertex 20637.791015625 15364.91796875 18499.986328125
  endloop
endfacet
facet normal 7.985522541885479e-15 -1 1.421282660790321e-14
  outer loop
    vertex 20605.646484375 15364.91796875 18499.986328125
    vertex 20637.791015625 15364.91796875 19429.51171875
    vertex 20605.646484375 15364.91796875 19455.455078125
  endloop
endfacet
facet normal 7.985522541885479e-15 -1 1.421282660790321e-14
  outer loop
    vertex 20605.646484375 15364.91796875 19455.455078125
    vertex 20637.791015625 15364.91796875 19429.51171875
    vertex 20664.234375 15364.91796875 19448.6015625
  endloop
endfacet
facet normal 7.985522541885479e-15 -1 1.421282660790321e-14
  outer loop
    vertex 20605.646484375 15364.91796875 19455.455078125
    vertex 20664.234375 15364.91796875 19448.6015625
    vertex 23095.87109375 15364.91796875 21204.158203125
  endloop
endfacet
facet normal 7.985522541885479e-15 -1 1.421282660790321e-14
  outer loop
    vertex 20605.646484375 15364.91796875 19455.455078125
    vertex 23095.87109375 15364.91796875 21204.158203125
    vertex 23083.265625 15364.91796875 21244.208984375
  endloop
endfacet
facet normal 7.985522541885479e-15 -1 1.421282660790321e-14
  outer loop
    vertex 23083.265625 15364.91796875 21244.208984375
    vertex 23095.87109375 15364.91796875 21204.158203125
    vertex 23095.87109375 15364.91796875 21253.30859375
  endloop
endfacet
facet normal -0.3001967370510101 7.23533806465337e-18 0.953877329826355
  outer loop
    vertex 23095.87109375 15364.91796875 21253.30859375
    vertex 23083.265625 15703.9384765625 21244.208984375
    vertex 23083.265625 15364.91796875 21244.208984375
  endloop
endfacet
facet normal -0.3001967370510101 7.23533806465337e-18 0.953877329826355
  outer loop
    vertex 23083.265625 15703.9384765625 21244.208984375
    vertex 23095.87109375 15364.91796875 21253.30859375
    vertex 23095.87109375 15703.9384765625 21253.30859375
  endloop
endfacet
facet normal 1 0 0
  outer loop
    vertex 23095.87109375 15703.9384765625 21204.158203125
    vertex 23095.87109375 15364.91796875 21253.30859375
    vertex 23095.87109375 15364.91796875 21204.158203125
  endloop
endfacet
facet normal 1 0 0
  outer loop
    vertex 23095.87109375 15364.91796875 21253.30859375
    vertex 23095.87109375 15703.9384765625 21204.158203125
    vertex 23095.87109375 15703.9384765625 21253.30859375
  endloop
endfacet
facet normal 0.3001967370510101 4.179427056666413e-16 -0.953877329826355
  outer loop
    vertex 23095.87109375 15703.9384765625 21204.158203125
    vertex 23069.427734375 15400.337890625 21185.06640625
    vertex 23069.427734375 15703.9384765625 21185.06640625
  endloop
endfacet
facet normal 0.3001967370510101 4.179427056666413e-16 -0.953877329826355
  outer loop
    vertex 23069.427734375 15400.337890625 21185.06640625
    vertex 20664.234375 15364.91796875 19448.6015625
    vertex 20664.234375 15400.337890625 19448.6015625
  endloop
endfacet
facet normal 0.3001967370510101 4.179427056666413e-16 -0.953877329826355
  outer loop
    vertex 20664.234375 15364.91796875 19448.6015625
    vertex 23069.427734375 15400.337890625 21185.06640625
    vertex 23095.87109375 15364.91796875 21204.158203125
  endloop
endfacet
facet normal 0.3001967370510101 4.179427056666413e-16 -0.953877329826355
  outer loop
    vertex 23095.87109375 15364.91796875 21204.158203125
    vertex 23069.427734375 15400.337890625 21185.06640625
    vertex 23095.87109375 15703.9384765625 21204.158203125
  endloop
endfacet
facet normal 0 1 0
  outer loop
    vertex 23069.427734375 15703.9384765625 21234.21875
    vertex 23095.87109375 15703.9384765625 21204.158203125
    vertex 23069.427734375 15703.9384765625 21185.06640625
  endloop
endfacet
facet normal 0 1 0
  outer loop
    vertex 23095.87109375 15703.9384765625 21204.158203125
    vertex 23069.427734375 15703.9384765625 21234.21875
    vertex 23095.87109375 15703.9384765625 21253.30859375
  endloop
endfacet
facet normal 0 1 0
  outer loop
    vertex 23095.87109375 15703.9384765625 21253.30859375
    vertex 23069.427734375 15703.9384765625 21234.21875
    vertex 23083.265625 15703.9384765625 21244.208984375
  endloop
endfacet
facet normal -1 0 0
  outer loop
    vertex 23069.427734375 15703.9384765625 21234.21875
    vertex 23069.427734375 15400.337890625 21185.06640625
    vertex 23069.427734375 15400.337890625 21234.21875
  endloop
endfacet
facet normal -1 0 0
  outer loop
    vertex 23069.427734375 15400.337890625 21185.06640625
    vertex 23069.427734375 15703.9384765625 21234.21875
    vertex 23069.427734375 15703.9384765625 21185.06640625
  endloop
endfacet
facet normal 2.361858809658141e-13 -3.041058344813857e-13 -1
  outer loop
    vertex 23063.7265625 15668.5185546875 20319.10546875
    vertex 23095.87109375 15703.9384765625 20319.10546875
    vertex 23095.87109375 15668.5185546875 20319.10546875
  endloop
endfacet
facet normal 2.361858809658141e-13 -3.041058344813857e-13 -1
  outer loop
    vertex 23095.87109375 15703.9384765625 20319.10546875
    vertex 23063.7265625 15668.5185546875 20319.10546875
    vertex 23063.7265625 15703.9384765625 20319.10546875
  endloop
endfacet
facet normal -2.919863244417453e-13 -1 -1.603308516495965e-14
  outer loop
    vertex 23095.87109375 15668.5185546875 20319.10546875
    vertex 23063.7265625 15668.5185546875 21227.365234375
    vertex 23063.7265625 15668.5185546875 20319.10546875
  endloop
endfacet
facet normal -2.919863244417453e-13 -1 -1.603308516495965e-14
  outer loop
    vertex 23063.7265625 15668.5185546875 21227.365234375
    vertex 23095.87109375 15668.5185546875 20319.10546875
    vertex 23095.87109375 15668.5185546875 21253.30859375
  endloop
endfacet
facet normal -2.919863244417453e-13 -1 -1.603308516495965e-14
  outer loop
    vertex 23063.7265625 15668.5185546875 21227.365234375
    vertex 23095.87109375 15668.5185546875 21253.30859375
    vertex 23037.283203125 15668.5185546875 21246.45703125
  endloop
endfacet
facet normal -2.919863244417453e-13 -1 -1.603308516495965e-14
  outer loop
    vertex 23037.283203125 15668.5185546875 21246.45703125
    vertex 23095.87109375 15668.5185546875 21253.30859375
    vertex 20632.08984375 15668.5185546875 22982.919921875
  endloop
endfacet
facet normal -2.919863244417453e-13 -1 -1.603308516495965e-14
  outer loop
    vertex 20632.08984375 15668.5185546875 22982.919921875
    vertex 23095.87109375 15668.5185546875 21253.30859375
    vertex 20632.08984375 15668.5185546875 23032.072265625
  endloop
endfacet
facet normal 0.3001967370510101 -1.309563351856169e-13 0.953877329826355
  outer loop
    vertex 20618.251953125 15703.9384765625 23042.0625
    vertex 23095.87109375 15668.5185546875 21253.30859375
    vertex 23095.87109375 15703.9384765625 21253.30859375
  endloop
endfacet
facet normal 0.3001967370510101 -1.309563351856169e-13 0.953877329826355
  outer loop
    vertex 23095.87109375 15668.5185546875 21253.30859375
    vertex 20618.251953125 15703.9384765625 23042.0625
    vertex 20632.08984375 15668.5185546875 23032.072265625
  endloop
endfacet
facet normal 0.3001967370510101 -1.309563351856169e-13 0.953877329826355
  outer loop
    vertex 20632.08984375 15668.5185546875 23032.072265625
    vertex 20618.251953125 15703.9384765625 23042.0625
    vertex 20632.08984375 15364.91796875 23032.072265625
  endloop
endfacet
facet normal 0.3001967370510101 -1.309563351856169e-13 0.953877329826355
  outer loop
    vertex 20632.08984375 15364.91796875 23032.072265625
    vertex 20618.251953125 15703.9384765625 23042.0625
    vertex 20618.251953125 15364.91796875 23042.0625
  endloop
endfacet
facet normal 1 -4.382862074572141e-13 0
  outer loop
    vertex 23095.87109375 15703.9384765625 21253.30859375
    vertex 23095.87109375 15668.5185546875 20319.10546875
    vertex 23095.87109375 15703.9384765625 20319.10546875
  endloop
endfacet
facet normal 1 -4.382862074572141e-13 0
  outer loop
    vertex 23095.87109375 15668.5185546875 20319.10546875
    vertex 23095.87109375 15703.9384765625 21253.30859375
    vertex 23095.87109375 15668.5185546875 21253.30859375
  endloop
endfacet
facet normal -0.3001967370510101 1.37456167867249e-13 -0.953877329826355
  outer loop
    vertex 23037.283203125 15668.5185546875 21246.45703125
    vertex 23063.7265625 15703.9384765625 21227.365234375
    vertex 23063.7265625 15668.5185546875 21227.365234375
  endloop
endfacet
facet normal -0.3001967370510101 1.37456167867249e-13 -0.953877329826355
  outer loop
    vertex 23063.7265625 15703.9384765625 21227.365234375
    vertex 23037.283203125 15668.5185546875 21246.45703125
    vertex 23037.283203125 15703.9384765625 21246.45703125
  endloop
endfacet
facet normal -1 4.382862074572141e-13 0
  outer loop
    vertex 23063.7265625 15668.5185546875 20319.10546875
    vertex 23063.7265625 15703.9384765625 21227.365234375
    vertex 23063.7265625 15703.9384765625 20319.10546875
  endloop
endfacet
facet normal -1 4.382862074572141e-13 0
  outer loop
    vertex 23063.7265625 15703.9384765625 21227.365234375
    vertex 23063.7265625 15668.5185546875 20319.10546875
    vertex 23063.7265625 15668.5185546875 21227.365234375
  endloop
endfacet
facet normal 2.918011969207934e-13 1 1.421282660790321e-14
  outer loop
    vertex 23063.7265625 15703.9384765625 21227.365234375
    vertex 23095.87109375 15703.9384765625 20319.10546875
    vertex 23063.7265625 15703.9384765625 20319.10546875
  endloop
endfacet
facet normal 2.918011969207934e-13 1 1.421282660790321e-14
  outer loop
    vertex 23095.87109375 15703.9384765625 20319.10546875
    vertex 23063.7265625 15703.9384765625 21227.365234375
    vertex 23095.87109375 15703.9384765625 21253.30859375
  endloop
endfacet
facet normal 2.918011969207934e-13 1 1.421282660790321e-14
  outer loop
    vertex 23095.87109375 15703.9384765625 21253.30859375
    vertex 23063.7265625 15703.9384765625 21227.365234375
    vertex 23037.283203125 15703.9384765625 21246.45703125
  endloop
endfacet
facet normal 2.918011969207934e-13 1 1.421282660790321e-14
  outer loop
    vertex 23095.87109375 15703.9384765625 21253.30859375
    vertex 23037.283203125 15703.9384765625 21246.45703125
    vertex 20605.646484375 15703.9384765625 23002.01171875
  endloop
endfacet
facet normal 2.918011969207934e-13 1 1.421282660790321e-14
  outer loop
    vertex 23095.87109375 15703.9384765625 21253.30859375
    vertex 20605.646484375 15703.9384765625 23002.01171875
    vertex 20618.251953125 15703.9384765625 23042.0625
  endloop
endfacet
facet normal 2.918011969207934e-13 1 1.421282660790321e-14
  outer loop
    vertex 20618.251953125 15703.9384765625 23042.0625
    vertex 20605.646484375 15703.9384765625 23002.01171875
    vertex 20605.646484375 15703.9384765625 23051.1640625
  endloop
endfacet
facet normal 0.3001967370510101 -1.315793313064542e-13 0.953877329826355
  outer loop
    vertex 20605.646484375 15703.9384765625 23051.1640625
    vertex 20618.251953125 15364.91796875 23042.0625
    vertex 20618.251953125 15703.9384765625 23042.0625
  endloop
endfacet
facet normal 0.3001967370510101 -1.315793313064542e-13 0.953877329826355
  outer loop
    vertex 20618.251953125 15364.91796875 23042.0625
    vertex 20605.646484375 15703.9384765625 23051.1640625
    vertex 20605.646484375 15364.91796875 23051.1640625
  endloop
endfacet
facet normal -1 4.382862074572141e-13 0
  outer loop
    vertex 20605.646484375 15364.91796875 23002.01171875
    vertex 20605.646484375 15703.9384765625 23051.1640625
    vertex 20605.646484375 15703.9384765625 23002.01171875
  endloop
endfacet
facet normal -1 4.382862074572141e-13 0
  outer loop
    vertex 20605.646484375 15703.9384765625 23051.1640625
    vertex 20605.646484375 15364.91796875 23002.01171875
    vertex 20605.646484375 15364.91796875 23051.1640625
  endloop
endfacet
facet normal -0.3001967370510101 1.311541478719869e-13 -0.953877329826355
  outer loop
    vertex 20605.646484375 15364.91796875 23002.01171875
    vertex 20632.08984375 15668.5185546875 22982.919921875
    vertex 20632.08984375 15364.91796875 22982.919921875
  endloop
endfacet
facet normal -0.3001967370510101 1.311541478719869e-13 -0.953877329826355
  outer loop
    vertex 20632.08984375 15668.5185546875 22982.919921875
    vertex 20605.646484375 15364.91796875 23002.01171875
    vertex 20605.646484375 15703.9384765625 23002.01171875
  endloop
endfacet
facet normal -0.3001967370510101 1.311541478719869e-13 -0.953877329826355
  outer loop
    vertex 20632.08984375 15668.5185546875 22982.919921875
    vertex 23037.283203125 15703.9384765625 21246.45703125
    vertex 23037.283203125 15668.5185546875 21246.45703125
  endloop
endfacet
facet normal -0.3001967370510101 1.311541478719869e-13 -0.953877329826355
  outer loop
    vertex 23037.283203125 15703.9384765625 21246.45703125
    vertex 20632.08984375 15668.5185546875 22982.919921875
    vertex 20605.646484375 15703.9384765625 23002.01171875
  endloop
endfacet
facet normal -2.997867253919095e-13 -1 0
  outer loop
    vertex 20632.08984375 15364.91796875 23032.072265625
    vertex 20605.646484375 15364.91796875 23002.01171875
    vertex 20632.08984375 15364.91796875 22982.919921875
  endloop
endfacet
facet normal -2.997867253919095e-13 -1 0
  outer loop
    vertex 20605.646484375 15364.91796875 23002.01171875
    vertex 20632.08984375 15364.91796875 23032.072265625
    vertex 20618.251953125 15364.91796875 23042.0625
  endloop
endfacet
facet normal -2.997867253919095e-13 -1 0
  outer loop
    vertex 20605.646484375 15364.91796875 23002.01171875
    vertex 20618.251953125 15364.91796875 23042.0625
    vertex 20605.646484375 15364.91796875 23051.1640625
  endloop
endfacet
facet normal 1 -4.382862074572141e-13 0
  outer loop
    vertex 20632.08984375 15364.91796875 23032.072265625
    vertex 20632.08984375 15668.5185546875 22982.919921875
    vertex 20632.08984375 15668.5185546875 23032.072265625
  endloop
endfacet
facet normal 1 -4.382862074572141e-13 0
  outer loop
    vertex 20632.08984375 15668.5185546875 22982.919921875
    vertex 20632.08984375 15364.91796875 23032.072265625
    vertex 20632.08984375 15364.91796875 22982.919921875
  endloop
endfacet
facet normal 1 -3.990327491175394e-13 1.780465118601023e-14
  outer loop
    vertex 23095.87109375 15400.337890625 21253.30859375
    vertex 23095.87109375 15364.91796875 20319.10546875
    vertex 23095.87109375 15400.337890625 20319.10546875
  endloop
endfacet
facet normal 1 -3.990327491175394e-13 1.780465118601023e-14
  outer loop
    vertex 23095.87109375 15364.91796875 20319.10546875
    vertex 23095.87109375 15400.337890625 21253.30859375
    vertex 23095.87109375 15364.91796875 21253.30859375
  endloop
endfacet
facet normal -1 2.992745753906817e-13 -2.450350272892917e-14
  outer loop
    vertex 23055.52734375 15364.91796875 20319.10546875
    vertex 23055.52734375 15400.337890625 21224.18359375
    vertex 23055.52734375 15400.337890625 20319.10546875
  endloop
endfacet
facet normal -1 2.992745753906817e-13 -2.450350272892917e-14
  outer loop
    vertex 23055.52734375 15400.337890625 21224.18359375
    vertex 23055.52734375 15364.91796875 20319.10546875
    vertex 23055.52734375 15364.91796875 21224.18359375
  endloop
endfacet
facet normal -1.919327733855211e-13 -1 -3.972110861798564e-14
  outer loop
    vertex 23095.87109375 15364.91796875 20319.10546875
    vertex 23055.52734375 15364.91796875 21224.18359375
    vertex 23055.52734375 15364.91796875 20319.10546875
  endloop
endfacet
facet normal -1.919327733855211e-13 -1 -3.972110861798564e-14
  outer loop
    vertex 23055.52734375 15364.91796875 21224.18359375
    vertex 23095.87109375 15364.91796875 20319.10546875
    vertex 23095.87109375 15364.91796875 21253.30859375
  endloop
endfacet
facet normal 7.761234993716119e-15 -6.257067346887579e-13 -1
  outer loop
    vertex 23055.52734375 15364.91796875 20319.10546875
    vertex 23095.87109375 15400.337890625 20319.10546875
    vertex 23095.87109375 15364.91796875 20319.10546875
  endloop
endfacet
facet normal 7.761234993716119e-15 -6.257067346887579e-13 -1
  outer loop
    vertex 23095.87109375 15400.337890625 20319.10546875
    vertex 23055.52734375 15364.91796875 20319.10546875
    vertex 23055.52734375 15400.337890625 20319.10546875
  endloop
endfacet
facet normal 2.225572428172368e-13 1 3.639090710629705e-14
  outer loop
    vertex 23055.52734375 15400.337890625 21224.18359375
    vertex 23095.87109375 15400.337890625 20319.10546875
    vertex 23055.52734375 15400.337890625 20319.10546875
  endloop
endfacet
facet normal 2.225572428172368e-13 1 3.639090710629705e-14
  outer loop
    vertex 23095.87109375 15400.337890625 20319.10546875
    vertex 23055.52734375 15400.337890625 21224.18359375
    vertex 23095.87109375 15400.337890625 21253.30859375
  endloop
endfacet
facet normal -0.3001967370510101 2.822771855669204e-13 0.953877329826355
  outer loop
    vertex 23055.52734375 15400.337890625 21224.18359375
    vertex 23095.87109375 15364.91796875 21253.30859375
    vertex 23095.87109375 15400.337890625 21253.30859375
  endloop
endfacet
facet normal -0.3001967370510101 2.822771855669204e-13 0.953877329826355
  outer loop
    vertex 23095.87109375 15364.91796875 21253.30859375
    vertex 23055.52734375 15400.337890625 21224.18359375
    vertex 23055.52734375 15364.91796875 21224.18359375
  endloop
endfacet
facet normal -5.034247758245458e-13 3.548367979652745e-12 -1
  outer loop
    vertex 23032.728515625 17266.255859375 20131.48828125
    vertex 23095.873046875 15645.15625 20131.48828125
    vertex 23032.728515625 15645.15625 20131.48828125
  endloop
endfacet
facet normal -5.034247758245458e-13 3.548367979652745e-12 -1
  outer loop
    vertex 23095.873046875 15645.15625 20131.48828125
    vertex 23032.728515625 17266.255859375 20131.48828125
    vertex 23789.6484375 17266.255859375 20131.48828125
  endloop
endfacet
facet normal -5.034247758245458e-13 3.548367979652745e-12 -1
  outer loop
    vertex 23095.87109375 15385.1025390625 20131.48828125
    vertex 23032.728515625 14115.2998046875 20131.48828125
    vertex 23032.7265625 15385.0986328125 20131.48828125
  endloop
endfacet
facet normal -5.034247758245458e-13 3.548367979652745e-12 -1
  outer loop
    vertex 23032.728515625 14115.2998046875 20131.48828125
    vertex 23095.87109375 15385.1025390625 20131.48828125
    vertex 24697.13671875 14115.2998046875 20131.48828125
  endloop
endfacet
facet normal -5.034247758245458e-13 3.548367979652745e-12 -1
  outer loop
    vertex 24697.13671875 14115.2998046875 20131.48828125
    vertex 23095.87109375 15385.1025390625 20131.48828125
    vertex 23095.873046875 15645.15625 20131.48828125
  endloop
endfacet
facet normal -5.034247758245458e-13 3.548367979652745e-12 -1
  outer loop
    vertex 24697.13671875 14115.2998046875 20131.48828125
    vertex 23095.873046875 15645.15625 20131.48828125
    vertex 23789.6484375 17266.255859375 20131.48828125
  endloop
endfacet
facet normal -5.034247758245458e-13 3.548367979652745e-12 -1
  outer loop
    vertex 24697.13671875 14115.2998046875 20131.48828125
    vertex 23789.6484375 17266.255859375 20131.48828125
    vertex 24697.13671875 17266.255859375 20131.48828125
  endloop
endfacet
facet normal 5.034247758245458e-13 -3.548367979652745e-12 1
  outer loop
    vertex 23032.728515625 14115.2998046875 20319.10546875
    vertex 23095.87109375 15385.1025390625 20319.10546875
    vertex 23032.7265625 15385.0986328125 20319.10546875
  endloop
endfacet
facet normal 5.034247758245458e-13 -3.548367979652745e-12 1
  outer loop
    vertex 23095.87109375 15385.1025390625 20319.10546875
    vertex 23032.728515625 14115.2998046875 20319.10546875
    vertex 24697.13671875 14115.2998046875 20319.10546875
  endloop
endfacet
facet normal 5.034247758245458e-13 -3.548367979652745e-12 1
  outer loop
    vertex 23095.87109375 15385.1025390625 20319.10546875
    vertex 24697.13671875 14115.2998046875 20319.10546875
    vertex 23095.873046875 15645.15625 20319.10546875
  endloop
endfacet
facet normal 5.034247758245458e-13 -3.548367979652745e-12 1
  outer loop
    vertex 23095.873046875 15645.15625 20319.10546875
    vertex 24697.13671875 14115.2998046875 20319.10546875
    vertex 23789.6484375 17266.255859375 20319.10546875
  endloop
endfacet
facet normal 5.034247758245458e-13 -3.548367979652745e-12 1
  outer loop
    vertex 23789.6484375 17266.255859375 20319.10546875
    vertex 24697.13671875 14115.2998046875 20319.10546875
    vertex 24697.13671875 17266.255859375 20319.10546875
  endloop
endfacet
facet normal 5.034247758245458e-13 -3.548367979652745e-12 1
  outer loop
    vertex 23095.873046875 15645.15625 20319.10546875
    vertex 23032.728515625 17266.255859375 20319.10546875
    vertex 23032.728515625 15645.15625 20319.10546875
  endloop
endfacet
facet normal 5.034247758245458e-13 -3.548367979652745e-12 1
  outer loop
    vertex 23032.728515625 17266.255859375 20319.10546875
    vertex 23095.873046875 15645.15625 20319.10546875
    vertex 23789.6484375 17266.255859375 20319.10546875
  endloop
endfacet
facet normal 0 -1 -5.702258543821559e-12
  outer loop
    vertex 24697.13671875 14115.2998046875 20319.10546875
    vertex 23032.728515625 14115.2998046875 20131.48828125
    vertex 24697.13671875 14115.2998046875 20131.48828125
  endloop
endfacet
facet normal 0 -1 -5.702258543821559e-12
  outer loop
    vertex 23032.728515625 14115.2998046875 20131.48828125
    vertex 24697.13671875 14115.2998046875 20319.10546875
    vertex 23032.728515625 14115.2998046875 20319.10546875
  endloop
endfacet
facet normal -1 7.726591813419695e-25 2.032940656093718e-12
  outer loop
    vertex 23032.7265625 15385.0986328125 20319.10546875
    vertex 23032.728515625 14115.2998046875 20131.48828125
    vertex 23032.728515625 14115.2998046875 20319.10546875
  endloop
endfacet
facet normal -1 7.726591813419695e-25 2.032940656093718e-12
  outer loop
    vertex 23032.728515625 14115.2998046875 20131.48828125
    vertex 23032.7265625 15385.0986328125 20319.10546875
    vertex 23032.7265625 15385.0986328125 20131.48828125
  endloop
endfacet
facet normal -2.330918505322188e-05 1 5.702306248717148e-12
  outer loop
    vertex 23032.7265625 15385.0986328125 20319.10546875
    vertex 23095.87109375 15385.1025390625 20131.48828125
    vertex 23032.7265625 15385.0986328125 20131.48828125
  endloop
endfacet
facet normal -2.330918505322188e-05 1 5.702306248717148e-12
  outer loop
    vertex 23095.87109375 15385.1025390625 20131.48828125
    vertex 23032.7265625 15385.0986328125 20319.10546875
    vertex 23095.87109375 15385.1025390625 20319.10546875
  endloop
endfacet
facet normal -1 2.513080517019262e-06 2.032954967562395e-12
  outer loop
    vertex 23095.873046875 15645.15625 20319.10546875
    vertex 23095.87109375 15385.1025390625 20131.48828125
    vertex 23095.87109375 15385.1025390625 20319.10546875
  endloop
endfacet
facet normal -1 2.513080517019262e-06 2.032954967562395e-12
  outer loop
    vertex 23095.87109375 15385.1025390625 20131.48828125
    vertex 23095.873046875 15645.15625 20319.10546875
    vertex 23095.873046875 15645.15625 20131.48828125
  endloop
endfacet
facet normal -1.41778571105533e-06 -1 -5.702255941736345e-12
  outer loop
    vertex 23095.873046875 15645.15625 20319.10546875
    vertex 23032.728515625 15645.15625 20131.48828125
    vertex 23095.873046875 15645.15625 20131.48828125
  endloop
endfacet
facet normal -1.41778571105533e-06 -1 -5.702255941736345e-12
  outer loop
    vertex 23032.728515625 15645.15625 20131.48828125
    vertex 23095.873046875 15645.15625 20319.10546875
    vertex 23032.728515625 15645.15625 20319.10546875
  endloop
endfacet
facet normal -1 -2.673679324089609e-23 2.032940656093718e-12
  outer loop
    vertex 23032.728515625 17266.255859375 20319.10546875
    vertex 23032.728515625 15645.15625 20131.48828125
    vertex 23032.728515625 15645.15625 20319.10546875
  endloop
endfacet
facet normal -1 -2.673679324089609e-23 2.032940656093718e-12
  outer loop
    vertex 23032.728515625 15645.15625 20131.48828125
    vertex 23032.728515625 17266.255859375 20319.10546875
    vertex 23032.728515625 17266.255859375 20131.48828125
  endloop
endfacet
facet normal 1.435803761440501e-24 1 5.702258543821559e-12
  outer loop
    vertex 23032.728515625 17266.255859375 20131.48828125
    vertex 23789.6484375 17266.255859375 20319.10546875
    vertex 23789.6484375 17266.255859375 20131.48828125
  endloop
endfacet
facet normal 1.435803761440501e-24 1 5.702258543821559e-12
  outer loop
    vertex 23789.6484375 17266.255859375 20319.10546875
    vertex 23032.728515625 17266.255859375 20131.48828125
    vertex 23032.728515625 17266.255859375 20319.10546875
  endloop
endfacet
facet normal 1.821620789323533e-13 1 5.702258543821559e-12
  outer loop
    vertex 23789.6484375 17266.255859375 20131.48828125
    vertex 24697.13671875 17266.255859375 20319.10546875
    vertex 24697.13671875 17266.255859375 20131.48828125
  endloop
endfacet
facet normal 1.821620789323533e-13 1 5.702258543821559e-12
  outer loop
    vertex 24697.13671875 17266.255859375 20319.10546875
    vertex 23789.6484375 17266.255859375 20131.48828125
    vertex 23789.6484375 17266.255859375 20319.10546875
  endloop
endfacet
facet normal 1 -1.778188734495936e-13 -2.032940656093718e-12
  outer loop
    vertex 24697.13671875 14115.2998046875 20131.48828125
    vertex 24697.13671875 17266.255859375 20319.10546875
    vertex 24697.13671875 14115.2998046875 20319.10546875
  endloop
endfacet
facet normal 1 -1.778188734495936e-13 -2.032940656093718e-12
  outer loop
    vertex 24697.13671875 17266.255859375 20319.10546875
    vertex 24697.13671875 14115.2998046875 20131.48828125
    vertex 24697.13671875 17266.255859375 20131.48828125
  endloop
endfacet
facet normal -6.988275441587863e-42 -2.988248212244804e-13 -1
  outer loop
    vertex 21014.064453125 17266.255859375 21769.328125
    vertex 20761.73046875 15996.314453125 21769.328125
    vertex 20761.73046875 17266.255859375 21769.328125
  endloop
endfacet
facet normal -6.988275441587863e-42 -2.988248212244804e-13 -1
  outer loop
    vertex 20761.73046875 15996.314453125 21769.328125
    vertex 21014.064453125 17266.255859375 21769.328125
    vertex 21014.064453125 15996.314453125 21769.328125
  endloop
endfacet
facet normal 6.988275441587863e-42 2.988248212244804e-13 1
  outer loop
    vertex 21014.064453125 15996.314453125 21950.607421875
    vertex 20761.73046875 17266.255859375 21950.607421875
    vertex 20761.73046875 15996.314453125 21950.607421875
  endloop
endfacet
facet normal 6.988275441587863e-42 2.988248212244804e-13 1
  outer loop
    vertex 20761.73046875 17266.255859375 21950.607421875
    vertex 21014.064453125 15996.314453125 21950.607421875
    vertex 21014.064453125 17266.255859375 21950.607421875
  endloop
endfacet
facet normal 1 -0 -1.587531030233585e-41
  outer loop
    vertex 21014.064453125 17266.255859375 21769.328125
    vertex 21014.064453125 15996.314453125 21950.607421875
    vertex 21014.064453125 15996.314453125 21769.328125
  endloop
endfacet
facet normal 1 -0 -1.587531030233585e-41
  outer loop
    vertex 21014.064453125 15996.314453125 21950.607421875
    vertex 21014.064453125 17266.255859375 21769.328125
    vertex 21014.064453125 17266.255859375 21950.607421875
  endloop
endfacet
facet normal 0 -1 4.802141215058675e-13
  outer loop
    vertex 21014.064453125 15996.314453125 21950.607421875
    vertex 20761.73046875 15996.314453125 21769.328125
    vertex 21014.064453125 15996.314453125 21769.328125
  endloop
endfacet
facet normal 0 -1 4.802141215058675e-13
  outer loop
    vertex 20761.73046875 15996.314453125 21769.328125
    vertex 21014.064453125 15996.314453125 21950.607421875
    vertex 20761.73046875 15996.314453125 21950.607421875
  endloop
endfacet
facet normal -1 0 1.587531030233585e-41
  outer loop
    vertex 20761.73046875 15996.314453125 21950.607421875
    vertex 20761.73046875 17266.255859375 21769.328125
    vertex 20761.73046875 15996.314453125 21769.328125
  endloop
endfacet
facet normal -1 0 1.587531030233585e-41
  outer loop
    vertex 20761.73046875 17266.255859375 21769.328125
    vertex 20761.73046875 15996.314453125 21950.607421875
    vertex 20761.73046875 17266.255859375 21950.607421875
  endloop
endfacet
facet normal 0 1 -4.802141215058675e-13
  outer loop
    vertex 20761.73046875 17266.255859375 21950.607421875
    vertex 21014.064453125 17266.255859375 21769.328125
    vertex 20761.73046875 17266.255859375 21769.328125
  endloop
endfacet
facet normal 0 1 -4.802141215058675e-13
  outer loop
    vertex 21014.064453125 17266.255859375 21769.328125
    vertex 20761.73046875 17266.255859375 21950.607421875
    vertex 21014.064453125 17266.255859375 21950.607421875
  endloop
endfacet
facet normal -6.988275441587863e-42 -2.988248212244804e-13 -1
  outer loop
    vertex 22023.396484375 17266.255859375 21044.216796875
    vertex 21771.0625 15996.314453125 21044.216796875
    vertex 21771.0625 17266.255859375 21044.216796875
  endloop
endfacet
facet normal -6.988275441587863e-42 -2.988248212244804e-13 -1
  outer loop
    vertex 21771.0625 15996.314453125 21044.216796875
    vertex 22023.396484375 17266.255859375 21044.216796875
    vertex 22023.396484375 15996.314453125 21044.216796875
  endloop
endfacet
facet normal 6.988275441587863e-42 2.988248212244804e-13 1
  outer loop
    vertex 22023.396484375 15996.314453125 21225.494140625
    vertex 21771.0625 17266.255859375 21225.494140625
    vertex 21771.0625 15996.314453125 21225.494140625
  endloop
endfacet
facet normal 6.988275441587863e-42 2.988248212244804e-13 1
  outer loop
    vertex 21771.0625 17266.255859375 21225.494140625
    vertex 22023.396484375 15996.314453125 21225.494140625
    vertex 22023.396484375 17266.255859375 21225.494140625
  endloop
endfacet
facet normal 1 -0 -1.587531030233585e-41
  outer loop
    vertex 22023.396484375 17266.255859375 21044.216796875
    vertex 22023.396484375 15996.314453125 21225.494140625
    vertex 22023.396484375 15996.314453125 21044.216796875
  endloop
endfacet
facet normal 1 -0 -1.587531030233585e-41
  outer loop
    vertex 22023.396484375 15996.314453125 21225.494140625
    vertex 22023.396484375 17266.255859375 21044.216796875
    vertex 22023.396484375 17266.255859375 21225.494140625
  endloop
endfacet
facet normal 0 -1 4.802141215058675e-13
  outer loop
    vertex 22023.396484375 15996.314453125 21225.494140625
    vertex 21771.0625 15996.314453125 21044.216796875
    vertex 22023.396484375 15996.314453125 21044.216796875
  endloop
endfacet
facet normal 0 -1 4.802141215058675e-13
  outer loop
    vertex 21771.0625 15996.314453125 21044.216796875
    vertex 22023.396484375 15996.314453125 21225.494140625
    vertex 21771.0625 15996.314453125 21225.494140625
  endloop
endfacet
facet normal -1 0 1.587531030233585e-41
  outer loop
    vertex 21771.0625 15996.314453125 21225.494140625
    vertex 21771.0625 17266.255859375 21044.216796875
    vertex 21771.0625 15996.314453125 21044.216796875
  endloop
endfacet
facet normal -1 0 1.587531030233585e-41
  outer loop
    vertex 21771.0625 17266.255859375 21044.216796875
    vertex 21771.0625 15996.314453125 21225.494140625
    vertex 21771.0625 17266.255859375 21225.494140625
  endloop
endfacet
facet normal 0 1 -4.802141215058675e-13
  outer loop
    vertex 21771.0625 17266.255859375 21225.494140625
    vertex 22023.396484375 17266.255859375 21044.216796875
    vertex 21771.0625 17266.255859375 21044.216796875
  endloop
endfacet
facet normal 0 1 -4.802141215058675e-13
  outer loop
    vertex 22023.396484375 17266.255859375 21044.216796875
    vertex 21771.0625 17266.255859375 21225.494140625
    vertex 22023.396484375 17266.255859375 21225.494140625
  endloop
endfacet
facet normal -6.988275441587863e-42 -2.988248212244804e-13 -1
  outer loop
    vertex 21518.73046875 17266.255859375 21406.7734375
    vertex 21266.396484375 15996.314453125 21406.7734375
    vertex 21266.396484375 17266.255859375 21406.7734375
  endloop
endfacet
facet normal -6.988275441587863e-42 -2.988248212244804e-13 -1
  outer loop
    vertex 21266.396484375 15996.314453125 21406.7734375
    vertex 21518.73046875 17266.255859375 21406.7734375
    vertex 21518.73046875 15996.314453125 21406.7734375
  endloop
endfacet
facet normal 6.988275441587863e-42 2.988248212244804e-13 1
  outer loop
    vertex 21518.73046875 15996.314453125 21588.05078125
    vertex 21266.396484375 17266.255859375 21588.05078125
    vertex 21266.396484375 15996.314453125 21588.05078125
  endloop
endfacet
facet normal 6.988275441587863e-42 2.988248212244804e-13 1
  outer loop
    vertex 21266.396484375 17266.255859375 21588.05078125
    vertex 21518.73046875 15996.314453125 21588.05078125
    vertex 21518.73046875 17266.255859375 21588.05078125
  endloop
endfacet
facet normal 1 -0 -1.587531030233585e-41
  outer loop
    vertex 21518.73046875 17266.255859375 21406.7734375
    vertex 21518.73046875 15996.314453125 21588.05078125
    vertex 21518.73046875 15996.314453125 21406.7734375
  endloop
endfacet
facet normal 1 -0 -1.587531030233585e-41
  outer loop
    vertex 21518.73046875 15996.314453125 21588.05078125
    vertex 21518.73046875 17266.255859375 21406.7734375
    vertex 21518.73046875 17266.255859375 21588.05078125
  endloop
endfacet
facet normal 0 -1 4.802141215058675e-13
  outer loop
    vertex 21518.73046875 15996.314453125 21588.05078125
    vertex 21266.396484375 15996.314453125 21406.7734375
    vertex 21518.73046875 15996.314453125 21406.7734375
  endloop
endfacet
facet normal 0 -1 4.802141215058675e-13
  outer loop
    vertex 21266.396484375 15996.314453125 21406.7734375
    vertex 21518.73046875 15996.314453125 21588.05078125
    vertex 21266.396484375 15996.314453125 21588.05078125
  endloop
endfacet
facet normal -1 0 1.587531030233585e-41
  outer loop
    vertex 21266.396484375 15996.314453125 21588.05078125
    vertex 21266.396484375 17266.255859375 21406.7734375
    vertex 21266.396484375 15996.314453125 21406.7734375
  endloop
endfacet
facet normal -1 0 1.587531030233585e-41
  outer loop
    vertex 21266.396484375 17266.255859375 21406.7734375
    vertex 21266.396484375 15996.314453125 21588.05078125
    vertex 21266.396484375 17266.255859375 21588.05078125
  endloop
endfacet
facet normal 0 1 -4.802141215058675e-13
  outer loop
    vertex 21266.396484375 17266.255859375 21588.05078125
    vertex 21518.73046875 17266.255859375 21406.7734375
    vertex 21266.396484375 17266.255859375 21406.7734375
  endloop
endfacet
facet normal 0 1 -4.802141215058675e-13
  outer loop
    vertex 21518.73046875 17266.255859375 21406.7734375
    vertex 21266.396484375 17266.255859375 21588.05078125
    vertex 21518.73046875 17266.255859375 21588.05078125
  endloop
endfacet
facet normal -6.988275441587863e-42 -2.988248212244804e-13 -1
  outer loop
    vertex 21266.396484375 17266.255859375 21588.05078125
    vertex 21014.064453125 15996.314453125 21588.05078125
    vertex 21014.064453125 17266.255859375 21588.05078125
  endloop
endfacet
facet normal -6.988275441587863e-42 -2.988248212244804e-13 -1
  outer loop
    vertex 21014.064453125 15996.314453125 21588.05078125
    vertex 21266.396484375 17266.255859375 21588.05078125
    vertex 21266.396484375 15996.314453125 21588.05078125
  endloop
endfacet
facet normal 6.988275441587863e-42 2.988248212244804e-13 1
  outer loop
    vertex 21266.396484375 15996.314453125 21769.328125
    vertex 21014.064453125 17266.255859375 21769.328125
    vertex 21014.064453125 15996.314453125 21769.328125
  endloop
endfacet
facet normal 6.988275441587863e-42 2.988248212244804e-13 1
  outer loop
    vertex 21014.064453125 17266.255859375 21769.328125
    vertex 21266.396484375 15996.314453125 21769.328125
    vertex 21266.396484375 17266.255859375 21769.328125
  endloop
endfacet
facet normal 1 -0 -1.587531030233585e-41
  outer loop
    vertex 21266.396484375 17266.255859375 21588.05078125
    vertex 21266.396484375 15996.314453125 21769.328125
    vertex 21266.396484375 15996.314453125 21588.05078125
  endloop
endfacet
facet normal 1 -0 -1.587531030233585e-41
  outer loop
    vertex 21266.396484375 15996.314453125 21769.328125
    vertex 21266.396484375 17266.255859375 21588.05078125
    vertex 21266.396484375 17266.255859375 21769.328125
  endloop
endfacet
facet normal 0 -1 4.802141215058675e-13
  outer loop
    vertex 21266.396484375 15996.314453125 21769.328125
    vertex 21014.064453125 15996.314453125 21588.05078125
    vertex 21266.396484375 15996.314453125 21588.05078125
  endloop
endfacet
facet normal 0 -1 4.802141215058675e-13
  outer loop
    vertex 21014.064453125 15996.314453125 21588.05078125
    vertex 21266.396484375 15996.314453125 21769.328125
    vertex 21014.064453125 15996.314453125 21769.328125
  endloop
endfacet
facet normal -1 0 1.587531030233585e-41
  outer loop
    vertex 21014.064453125 15996.314453125 21769.328125
    vertex 21014.064453125 17266.255859375 21588.05078125
    vertex 21014.064453125 15996.314453125 21588.05078125
  endloop
endfacet
facet normal -1 0 1.587531030233585e-41
  outer loop
    vertex 21014.064453125 17266.255859375 21588.05078125
    vertex 21014.064453125 15996.314453125 21769.328125
    vertex 21014.064453125 17266.255859375 21769.328125
  endloop
endfacet
facet normal 0 1 -4.802141215058675e-13
  outer loop
    vertex 21014.064453125 17266.255859375 21769.328125
    vertex 21266.396484375 17266.255859375 21588.05078125
    vertex 21014.064453125 17266.255859375 21588.05078125
  endloop
endfacet
facet normal 0 1 -4.802141215058675e-13
  outer loop
    vertex 21266.396484375 17266.255859375 21588.05078125
    vertex 21014.064453125 17266.255859375 21769.328125
    vertex 21266.396484375 17266.255859375 21769.328125
  endloop
endfacet
facet normal -6.988275441587863e-42 -2.988248212244804e-13 -1
  outer loop
    vertex 22275.728515625 17266.255859375 20862.939453125
    vertex 22023.396484375 15996.314453125 20862.939453125
    vertex 22023.396484375 17266.255859375 20862.939453125
  endloop
endfacet
facet normal -6.988275441587863e-42 -2.988248212244804e-13 -1
  outer loop
    vertex 22023.396484375 15996.314453125 20862.939453125
    vertex 22275.728515625 17266.255859375 20862.939453125
    vertex 22275.728515625 15996.314453125 20862.939453125
  endloop
endfacet
facet normal 6.988275441587863e-42 2.988248212244804e-13 1
  outer loop
    vertex 22275.728515625 15996.314453125 21044.216796875
    vertex 22023.396484375 17266.255859375 21044.216796875
    vertex 22023.396484375 15996.314453125 21044.216796875
  endloop
endfacet
facet normal 6.988275441587863e-42 2.988248212244804e-13 1
  outer loop
    vertex 22023.396484375 17266.255859375 21044.216796875
    vertex 22275.728515625 15996.314453125 21044.216796875
    vertex 22275.728515625 17266.255859375 21044.216796875
  endloop
endfacet
facet normal 1 -0 -1.587531030233585e-41
  outer loop
    vertex 22275.728515625 17266.255859375 20862.939453125
    vertex 22275.728515625 15996.314453125 21044.216796875
    vertex 22275.728515625 15996.314453125 20862.939453125
  endloop
endfacet
facet normal 1 -0 -1.587531030233585e-41
  outer loop
    vertex 22275.728515625 15996.314453125 21044.216796875
    vertex 22275.728515625 17266.255859375 20862.939453125
    vertex 22275.728515625 17266.255859375 21044.216796875
  endloop
endfacet
facet normal 0 -1 4.802141215058675e-13
  outer loop
    vertex 22275.728515625 15996.314453125 21044.216796875
    vertex 22023.396484375 15996.314453125 20862.939453125
    vertex 22275.728515625 15996.314453125 20862.939453125
  endloop
endfacet
facet normal 0 -1 4.802141215058675e-13
  outer loop
    vertex 22023.396484375 15996.314453125 20862.939453125
    vertex 22275.728515625 15996.314453125 21044.216796875
    vertex 22023.396484375 15996.314453125 21044.216796875
  endloop
endfacet
facet normal -1 0 1.587531030233585e-41
  outer loop
    vertex 22023.396484375 15996.314453125 21044.216796875
    vertex 22023.396484375 17266.255859375 20862.939453125
    vertex 22023.396484375 15996.314453125 20862.939453125
  endloop
endfacet
facet normal -1 0 1.587531030233585e-41
  outer loop
    vertex 22023.396484375 17266.255859375 20862.939453125
    vertex 22023.396484375 15996.314453125 21044.216796875
    vertex 22023.396484375 17266.255859375 21044.216796875
  endloop
endfacet
facet normal 0 1 -4.802141215058675e-13
  outer loop
    vertex 22023.396484375 17266.255859375 21044.216796875
    vertex 22275.728515625 17266.255859375 20862.939453125
    vertex 22023.396484375 17266.255859375 20862.939453125
  endloop
endfacet
facet normal 0 1 -4.802141215058675e-13
  outer loop
    vertex 22275.728515625 17266.255859375 20862.939453125
    vertex 22023.396484375 17266.255859375 21044.216796875
    vertex 22275.728515625 17266.255859375 21044.216796875
  endloop
endfacet
facet normal -6.988275441587863e-42 -2.988248212244804e-13 -1
  outer loop
    vertex 20761.73046875 17266.255859375 21950.607421875
    vertex 20509.3984375 15996.314453125 21950.607421875
    vertex 20509.3984375 17266.255859375 21950.607421875
  endloop
endfacet
facet normal -6.988275441587863e-42 -2.988248212244804e-13 -1
  outer loop
    vertex 20509.3984375 15996.314453125 21950.607421875
    vertex 20761.73046875 17266.255859375 21950.607421875
    vertex 20761.73046875 15996.314453125 21950.607421875
  endloop
endfacet
facet normal 6.988275441587863e-42 2.988248212244804e-13 1
  outer loop
    vertex 20761.73046875 15996.314453125 22131.884765625
    vertex 20509.3984375 17266.255859375 22131.884765625
    vertex 20509.3984375 15996.314453125 22131.884765625
  endloop
endfacet
facet normal 6.988275441587863e-42 2.988248212244804e-13 1
  outer loop
    vertex 20509.3984375 17266.255859375 22131.884765625
    vertex 20761.73046875 15996.314453125 22131.884765625
    vertex 20761.73046875 17266.255859375 22131.884765625
  endloop
endfacet
facet normal 1 -0 -1.587531030233585e-41
  outer loop
    vertex 20761.73046875 17266.255859375 21950.607421875
    vertex 20761.73046875 15996.314453125 22131.884765625
    vertex 20761.73046875 15996.314453125 21950.607421875
  endloop
endfacet
facet normal 1 -0 -1.587531030233585e-41
  outer loop
    vertex 20761.73046875 15996.314453125 22131.884765625
    vertex 20761.73046875 17266.255859375 21950.607421875
    vertex 20761.73046875 17266.255859375 22131.884765625
  endloop
endfacet
facet normal 0 -1 4.802141215058675e-13
  outer loop
    vertex 20761.73046875 15996.314453125 22131.884765625
    vertex 20509.3984375 15996.314453125 21950.607421875
    vertex 20761.73046875 15996.314453125 21950.607421875
  endloop
endfacet
facet normal 0 -1 4.802141215058675e-13
  outer loop
    vertex 20509.3984375 15996.314453125 21950.607421875
    vertex 20761.73046875 15996.314453125 22131.884765625
    vertex 20509.3984375 15996.314453125 22131.884765625
  endloop
endfacet
facet normal -1 0 1.587531030233585e-41
  outer loop
    vertex 20509.3984375 15996.314453125 22131.884765625
    vertex 20509.3984375 17266.255859375 21950.607421875
    vertex 20509.3984375 15996.314453125 21950.607421875
  endloop
endfacet
facet normal -1 0 1.587531030233585e-41
  outer loop
    vertex 20509.3984375 17266.255859375 21950.607421875
    vertex 20509.3984375 15996.314453125 22131.884765625
    vertex 20509.3984375 17266.255859375 22131.884765625
  endloop
endfacet
facet normal 0 1 -4.802141215058675e-13
  outer loop
    vertex 20509.3984375 17266.255859375 22131.884765625
    vertex 20761.73046875 17266.255859375 21950.607421875
    vertex 20509.3984375 17266.255859375 21950.607421875
  endloop
endfacet
facet normal 0 1 -4.802141215058675e-13
  outer loop
    vertex 20761.73046875 17266.255859375 21950.607421875
    vertex 20509.3984375 17266.255859375 22131.884765625
    vertex 20761.73046875 17266.255859375 22131.884765625
  endloop
endfacet
facet normal -6.988275441587863e-42 -2.988248212244804e-13 -1
  outer loop
    vertex 21771.0625 17266.255859375 21225.494140625
    vertex 21518.73046875 15996.314453125 21225.494140625
    vertex 21518.73046875 17266.255859375 21225.494140625
  endloop
endfacet
facet normal -6.988275441587863e-42 -2.988248212244804e-13 -1
  outer loop
    vertex 21518.73046875 15996.314453125 21225.494140625
    vertex 21771.0625 17266.255859375 21225.494140625
    vertex 21771.0625 15996.314453125 21225.494140625
  endloop
endfacet
facet normal 6.988275441587863e-42 2.988248212244804e-13 1
  outer loop
    vertex 21771.0625 15996.314453125 21406.7734375
    vertex 21518.73046875 17266.255859375 21406.7734375
    vertex 21518.73046875 15996.314453125 21406.7734375
  endloop
endfacet
facet normal 6.988275441587863e-42 2.988248212244804e-13 1
  outer loop
    vertex 21518.73046875 17266.255859375 21406.7734375
    vertex 21771.0625 15996.314453125 21406.7734375
    vertex 21771.0625 17266.255859375 21406.7734375
  endloop
endfacet
facet normal 1 -0 -1.587531030233585e-41
  outer loop
    vertex 21771.0625 17266.255859375 21225.494140625
    vertex 21771.0625 15996.314453125 21406.7734375
    vertex 21771.0625 15996.314453125 21225.494140625
  endloop
endfacet
facet normal 1 -0 -1.587531030233585e-41
  outer loop
    vertex 21771.0625 15996.314453125 21406.7734375
    vertex 21771.0625 17266.255859375 21225.494140625
    vertex 21771.0625 17266.255859375 21406.7734375
  endloop
endfacet
facet normal 0 -1 4.802141215058675e-13
  outer loop
    vertex 21771.0625 15996.314453125 21406.7734375
    vertex 21518.73046875 15996.314453125 21225.494140625
    vertex 21771.0625 15996.314453125 21225.494140625
  endloop
endfacet
facet normal 0 -1 4.802141215058675e-13
  outer loop
    vertex 21518.73046875 15996.314453125 21225.494140625
    vertex 21771.0625 15996.314453125 21406.7734375
    vertex 21518.73046875 15996.314453125 21406.7734375
  endloop
endfacet
facet normal -1 0 1.587531030233585e-41
  outer loop
    vertex 21518.73046875 15996.314453125 21406.7734375
    vertex 21518.73046875 17266.255859375 21225.494140625
    vertex 21518.73046875 15996.314453125 21225.494140625
  endloop
endfacet
facet normal -1 0 1.587531030233585e-41
  outer loop
    vertex 21518.73046875 17266.255859375 21225.494140625
    vertex 21518.73046875 15996.314453125 21406.7734375
    vertex 21518.73046875 17266.255859375 21406.7734375
  endloop
endfacet
facet normal 0 1 -4.802141215058675e-13
  outer loop
    vertex 21518.73046875 17266.255859375 21406.7734375
    vertex 21771.0625 17266.255859375 21225.494140625
    vertex 21518.73046875 17266.255859375 21225.494140625
  endloop
endfacet
facet normal 0 1 -4.802141215058675e-13
  outer loop
    vertex 21771.0625 17266.255859375 21225.494140625
    vertex 21518.73046875 17266.255859375 21406.7734375
    vertex 21771.0625 17266.255859375 21406.7734375
  endloop
endfacet
facet normal -6.988275441587863e-42 -2.988248212244804e-13 -1
  outer loop
    vertex 23032.728515625 17266.255859375 20319.10546875
    vertex 22780.39453125 15996.314453125 20319.10546875
    vertex 22780.39453125 17266.255859375 20319.10546875
  endloop
endfacet
facet normal -6.988275441587863e-42 -2.988248212244804e-13 -1
  outer loop
    vertex 22780.39453125 15996.314453125 20319.10546875
    vertex 23032.728515625 17266.255859375 20319.10546875
    vertex 23032.728515625 15996.314453125 20319.10546875
  endloop
endfacet
facet normal 6.988275441587863e-42 2.988248212244804e-13 1
  outer loop
    vertex 23032.728515625 15996.314453125 20500.3828125
    vertex 22780.39453125 17266.255859375 20500.3828125
    vertex 22780.39453125 15996.314453125 20500.3828125
  endloop
endfacet
facet normal 6.988275441587863e-42 2.988248212244804e-13 1
  outer loop
    vertex 22780.39453125 17266.255859375 20500.3828125
    vertex 23032.728515625 15996.314453125 20500.3828125
    vertex 23032.728515625 17266.255859375 20500.3828125
  endloop
endfacet
facet normal 1 -0 -1.587531030233585e-41
  outer loop
    vertex 23032.728515625 17266.255859375 20319.10546875
    vertex 23032.728515625 15996.314453125 20500.3828125
    vertex 23032.728515625 15996.314453125 20319.10546875
  endloop
endfacet
facet normal 1 -0 -1.587531030233585e-41
  outer loop
    vertex 23032.728515625 15996.314453125 20500.3828125
    vertex 23032.728515625 17266.255859375 20319.10546875
    vertex 23032.728515625 17266.255859375 20500.3828125
  endloop
endfacet
facet normal 0 -1 4.802141215058675e-13
  outer loop
    vertex 23032.728515625 15996.314453125 20500.3828125
    vertex 22780.39453125 15996.314453125 20319.10546875
    vertex 23032.728515625 15996.314453125 20319.10546875
  endloop
endfacet
facet normal 0 -1 4.802141215058675e-13
  outer loop
    vertex 22780.39453125 15996.314453125 20319.10546875
    vertex 23032.728515625 15996.314453125 20500.3828125
    vertex 22780.39453125 15996.314453125 20500.3828125
  endloop
endfacet
facet normal -1 0 1.587531030233585e-41
  outer loop
    vertex 22780.39453125 15996.314453125 20500.3828125
    vertex 22780.39453125 17266.255859375 20319.10546875
    vertex 22780.39453125 15996.314453125 20319.10546875
  endloop
endfacet
facet normal -1 0 1.587531030233585e-41
  outer loop
    vertex 22780.39453125 17266.255859375 20319.10546875
    vertex 22780.39453125 15996.314453125 20500.3828125
    vertex 22780.39453125 17266.255859375 20500.3828125
  endloop
endfacet
facet normal 0 1 -4.802141215058675e-13
  outer loop
    vertex 22780.39453125 17266.255859375 20500.3828125
    vertex 23032.728515625 17266.255859375 20319.10546875
    vertex 22780.39453125 17266.255859375 20319.10546875
  endloop
endfacet
facet normal 0 1 -4.802141215058675e-13
  outer loop
    vertex 23032.728515625 17266.255859375 20319.10546875
    vertex 22780.39453125 17266.255859375 20500.3828125
    vertex 23032.728515625 17266.255859375 20500.3828125
  endloop
endfacet
facet normal -6.988275441587863e-42 -2.988248212244804e-13 -1
  outer loop
    vertex 22780.39453125 17266.255859375 20500.3828125
    vertex 22528.0625 15996.314453125 20500.3828125
    vertex 22528.0625 17266.255859375 20500.3828125
  endloop
endfacet
facet normal -6.988275441587863e-42 -2.988248212244804e-13 -1
  outer loop
    vertex 22528.0625 15996.314453125 20500.3828125
    vertex 22780.39453125 17266.255859375 20500.3828125
    vertex 22780.39453125 15996.314453125 20500.3828125
  endloop
endfacet
facet normal 6.988275441587863e-42 2.988248212244804e-13 1
  outer loop
    vertex 22780.39453125 15996.314453125 20681.66015625
    vertex 22528.0625 17266.255859375 20681.66015625
    vertex 22528.0625 15996.314453125 20681.66015625
  endloop
endfacet
facet normal 6.988275441587863e-42 2.988248212244804e-13 1
  outer loop
    vertex 22528.0625 17266.255859375 20681.66015625
    vertex 22780.39453125 15996.314453125 20681.66015625
    vertex 22780.39453125 17266.255859375 20681.66015625
  endloop
endfacet
facet normal 1 -0 -1.587531030233585e-41
  outer loop
    vertex 22780.39453125 17266.255859375 20500.3828125
    vertex 22780.39453125 15996.314453125 20681.66015625
    vertex 22780.39453125 15996.314453125 20500.3828125
  endloop
endfacet
facet normal 1 -0 -1.587531030233585e-41
  outer loop
    vertex 22780.39453125 15996.314453125 20681.66015625
    vertex 22780.39453125 17266.255859375 20500.3828125
    vertex 22780.39453125 17266.255859375 20681.66015625
  endloop
endfacet
facet normal 0 -1 4.802141215058675e-13
  outer loop
    vertex 22780.39453125 15996.314453125 20681.66015625
    vertex 22528.0625 15996.314453125 20500.3828125
    vertex 22780.39453125 15996.314453125 20500.3828125
  endloop
endfacet
facet normal 0 -1 4.802141215058675e-13
  outer loop
    vertex 22528.0625 15996.314453125 20500.3828125
    vertex 22780.39453125 15996.314453125 20681.66015625
    vertex 22528.0625 15996.314453125 20681.66015625
  endloop
endfacet
facet normal -1 0 1.587531030233585e-41
  outer loop
    vertex 22528.0625 15996.314453125 20681.66015625
    vertex 22528.0625 17266.255859375 20500.3828125
    vertex 22528.0625 15996.314453125 20500.3828125
  endloop
endfacet
facet normal -1 0 1.587531030233585e-41
  outer loop
    vertex 22528.0625 17266.255859375 20500.3828125
    vertex 22528.0625 15996.314453125 20681.66015625
    vertex 22528.0625 17266.255859375 20681.66015625
  endloop
endfacet
facet normal 0 1 -4.802141215058675e-13
  outer loop
    vertex 22528.0625 17266.255859375 20681.66015625
    vertex 22780.39453125 17266.255859375 20500.3828125
    vertex 22528.0625 17266.255859375 20500.3828125
  endloop
endfacet
facet normal 0 1 -4.802141215058675e-13
  outer loop
    vertex 22780.39453125 17266.255859375 20500.3828125
    vertex 22528.0625 17266.255859375 20681.66015625
    vertex 22780.39453125 17266.255859375 20681.66015625
  endloop
endfacet
facet normal -6.988275441587863e-42 -2.988248212244804e-13 -1
  outer loop
    vertex 22528.0625 17266.255859375 20681.66015625
    vertex 22275.728515625 15996.314453125 20681.66015625
    vertex 22275.728515625 17266.255859375 20681.66015625
  endloop
endfacet
facet normal -6.988275441587863e-42 -2.988248212244804e-13 -1
  outer loop
    vertex 22275.728515625 15996.314453125 20681.66015625
    vertex 22528.0625 17266.255859375 20681.66015625
    vertex 22528.0625 15996.314453125 20681.66015625
  endloop
endfacet
facet normal 6.988275441587863e-42 2.988248212244804e-13 1
  outer loop
    vertex 22528.0625 15996.314453125 20862.939453125
    vertex 22275.728515625 17266.255859375 20862.939453125
    vertex 22275.728515625 15996.314453125 20862.939453125
  endloop
endfacet
facet normal 6.988275441587863e-42 2.988248212244804e-13 1
  outer loop
    vertex 22275.728515625 17266.255859375 20862.939453125
    vertex 22528.0625 15996.314453125 20862.939453125
    vertex 22528.0625 17266.255859375 20862.939453125
  endloop
endfacet
facet normal 1 -0 -1.587531030233585e-41
  outer loop
    vertex 22528.0625 17266.255859375 20681.66015625
    vertex 22528.0625 15996.314453125 20862.939453125
    vertex 22528.0625 15996.314453125 20681.66015625
  endloop
endfacet
facet normal 1 -0 -1.587531030233585e-41
  outer loop
    vertex 22528.0625 15996.314453125 20862.939453125
    vertex 22528.0625 17266.255859375 20681.66015625
    vertex 22528.0625 17266.255859375 20862.939453125
  endloop
endfacet
facet normal 0 -1 4.802141215058675e-13
  outer loop
    vertex 22528.0625 15996.314453125 20862.939453125
    vertex 22275.728515625 15996.314453125 20681.66015625
    vertex 22528.0625 15996.314453125 20681.66015625
  endloop
endfacet
facet normal 0 -1 4.802141215058675e-13
  outer loop
    vertex 22275.728515625 15996.314453125 20681.66015625
    vertex 22528.0625 15996.314453125 20862.939453125
    vertex 22275.728515625 15996.314453125 20862.939453125
  endloop
endfacet
facet normal -1 0 1.587531030233585e-41
  outer loop
    vertex 22275.728515625 15996.314453125 20862.939453125
    vertex 22275.728515625 17266.255859375 20681.66015625
    vertex 22275.728515625 15996.314453125 20681.66015625
  endloop
endfacet
facet normal -1 0 1.587531030233585e-41
  outer loop
    vertex 22275.728515625 17266.255859375 20681.66015625
    vertex 22275.728515625 15996.314453125 20862.939453125
    vertex 22275.728515625 17266.255859375 20862.939453125
  endloop
endfacet
facet normal 0 1 -4.802141215058675e-13
  outer loop
    vertex 22275.728515625 17266.255859375 20862.939453125
    vertex 22528.0625 17266.255859375 20681.66015625
    vertex 22275.728515625 17266.255859375 20681.66015625
  endloop
endfacet
facet normal 0 1 -4.802141215058675e-13
  outer loop
    vertex 22528.0625 17266.255859375 20681.66015625
    vertex 22275.728515625 17266.255859375 20862.939453125
    vertex 22528.0625 17266.255859375 20862.939453125
  endloop
endfacet
facet normal -6.988275441587863e-42 -2.988248212244804e-13 -1
  outer loop
    vertex 21266.39453125 15385.0986328125 18868.880859375
    vertex 21014.0625 14115.1572265625 18868.880859375
    vertex 21014.0625 15385.0986328125 18868.880859375
  endloop
endfacet
facet normal -6.988275441587863e-42 -2.988248212244804e-13 -1
  outer loop
    vertex 21014.0625 14115.1572265625 18868.880859375
    vertex 21266.39453125 15385.0986328125 18868.880859375
    vertex 21266.39453125 14115.1572265625 18868.880859375
  endloop
endfacet
facet normal 1 -0 -1.587531030233585e-41
  outer loop
    vertex 21266.39453125 15385.0986328125 18868.880859375
    vertex 21266.39453125 14115.1572265625 19050.158203125
    vertex 21266.39453125 14115.1572265625 18868.880859375
  endloop
endfacet
facet normal 1 -0 -1.587531030233585e-41
  outer loop
    vertex 21266.39453125 14115.1572265625 19050.158203125
    vertex 21266.39453125 15385.0986328125 18868.880859375
    vertex 21266.39453125 15385.0986328125 19050.158203125
  endloop
endfacet
facet normal 0 -1 4.802141215058675e-13
  outer loop
    vertex 21266.39453125 14115.1572265625 19050.158203125
    vertex 21014.0625 14115.1572265625 18868.880859375
    vertex 21266.39453125 14115.1572265625 18868.880859375
  endloop
endfacet
facet normal 0 -1 4.802141215058675e-13
  outer loop
    vertex 21014.0625 14115.1572265625 18868.880859375
    vertex 21266.39453125 14115.1572265625 19050.158203125
    vertex 21014.0625 14115.1572265625 19050.158203125
  endloop
endfacet
facet normal 2.656433968587099e-28 3.050358359998895e-13 1
  outer loop
    vertex 21266.39453125 14115.1572265625 19050.158203125
    vertex 21014.0625 15385.0986328125 19050.158203125
    vertex 21014.0625 14115.1572265625 19050.158203125
  endloop
endfacet
facet normal 2.656433968587099e-28 3.050358359998895e-13 1
  outer loop
    vertex 21014.0625 15385.0986328125 19050.158203125
    vertex 21266.39453125 14115.1572265625 19050.158203125
    vertex 21266.39453125 15385.0986328125 19050.158203125
  endloop
endfacet
facet normal 0 1 -4.802141215058675e-13
  outer loop
    vertex 21014.0625 15385.0986328125 19050.158203125
    vertex 21266.39453125 15385.0986328125 18868.880859375
    vertex 21014.0625 15385.0986328125 18868.880859375
  endloop
endfacet
facet normal 0 1 -4.802141215058675e-13
  outer loop
    vertex 21266.39453125 15385.0986328125 18868.880859375
    vertex 21014.0625 15385.0986328125 19050.158203125
    vertex 21266.39453125 15385.0986328125 19050.158203125
  endloop
endfacet
facet normal -1 0 1.587531030233585e-41
  outer loop
    vertex 21014.0625 14115.1572265625 19050.158203125
    vertex 21014.0625 15385.0986328125 18868.880859375
    vertex 21014.0625 14115.1572265625 18868.880859375
  endloop
endfacet
facet normal -1 0 1.587531030233585e-41
  outer loop
    vertex 21014.0625 15385.0986328125 18868.880859375
    vertex 21014.0625 14115.1572265625 19050.158203125
    vertex 21014.0625 15385.0986328125 19050.158203125
  endloop
endfacet
facet normal -6.988275441587863e-42 -2.988248212244804e-13 -1
  outer loop
    vertex 21014.0625 15385.0986328125 18687.6015625
    vertex 20761.728515625 14115.1572265625 18687.6015625
    vertex 20761.728515625 15385.0986328125 18687.6015625
  endloop
endfacet
facet normal -6.988275441587863e-42 -2.988248212244804e-13 -1
  outer loop
    vertex 20761.728515625 14115.1572265625 18687.6015625
    vertex 21014.0625 15385.0986328125 18687.6015625
    vertex 21014.0625 14115.1572265625 18687.6015625
  endloop
endfacet
facet normal 1 -0 -1.587531030233585e-41
  outer loop
    vertex 21014.0625 15385.0986328125 18687.6015625
    vertex 21014.0625 14115.1572265625 18868.880859375
    vertex 21014.0625 14115.1572265625 18687.6015625
  endloop
endfacet
facet normal 1 -0 -1.587531030233585e-41
  outer loop
    vertex 21014.0625 14115.1572265625 18868.880859375
    vertex 21014.0625 15385.0986328125 18687.6015625
    vertex 21014.0625 15385.0986328125 18868.880859375
  endloop
endfacet
facet normal 0 -1 4.802141215058675e-13
  outer loop
    vertex 21014.0625 14115.1572265625 18868.880859375
    vertex 20761.728515625 14115.1572265625 18687.6015625
    vertex 21014.0625 14115.1572265625 18687.6015625
  endloop
endfacet
facet normal 0 -1 4.802141215058675e-13
  outer loop
    vertex 20761.728515625 14115.1572265625 18687.6015625
    vertex 21014.0625 14115.1572265625 18868.880859375
    vertex 20761.728515625 14115.1572265625 18868.880859375
  endloop
endfacet
facet normal 2.656433968587099e-28 3.050358359998895e-13 1
  outer loop
    vertex 21014.0625 14115.1572265625 18868.880859375
    vertex 20761.728515625 15385.0986328125 18868.880859375
    vertex 20761.728515625 14115.1572265625 18868.880859375
  endloop
endfacet
facet normal 2.656433968587099e-28 3.050358359998895e-13 1
  outer loop
    vertex 20761.728515625 15385.0986328125 18868.880859375
    vertex 21014.0625 14115.1572265625 18868.880859375
    vertex 21014.0625 15385.0986328125 18868.880859375
  endloop
endfacet
facet normal 0 1 -4.802141215058675e-13
  outer loop
    vertex 20761.728515625 15385.0986328125 18868.880859375
    vertex 21014.0625 15385.0986328125 18687.6015625
    vertex 20761.728515625 15385.0986328125 18687.6015625
  endloop
endfacet
facet normal 0 1 -4.802141215058675e-13
  outer loop
    vertex 21014.0625 15385.0986328125 18687.6015625
    vertex 20761.728515625 15385.0986328125 18868.880859375
    vertex 21014.0625 15385.0986328125 18868.880859375
  endloop
endfacet
facet normal -1 0 1.587531030233585e-41
  outer loop
    vertex 20761.728515625 14115.1572265625 18868.880859375
    vertex 20761.728515625 15385.0986328125 18687.6015625
    vertex 20761.728515625 14115.1572265625 18687.6015625
  endloop
endfacet
facet normal -1 0 1.587531030233585e-41
  outer loop
    vertex 20761.728515625 15385.0986328125 18687.6015625
    vertex 20761.728515625 14115.1572265625 18868.880859375
    vertex 20761.728515625 15385.0986328125 18868.880859375
  endloop
endfacet
facet normal -6.988275441587863e-42 -2.988248212244804e-13 -1
  outer loop
    vertex 22023.39453125 15385.0986328125 19412.71484375
    vertex 21771.060546875 14115.1572265625 19412.71484375
    vertex 21771.060546875 15385.0986328125 19412.71484375
  endloop
endfacet
facet normal -6.988275441587863e-42 -2.988248212244804e-13 -1
  outer loop
    vertex 21771.060546875 14115.1572265625 19412.71484375
    vertex 22023.39453125 15385.0986328125 19412.71484375
    vertex 22023.39453125 14115.1572265625 19412.71484375
  endloop
endfacet
facet normal 1 -0 -1.587531030233585e-41
  outer loop
    vertex 22023.39453125 15385.0986328125 19412.71484375
    vertex 22023.39453125 14115.1572265625 19593.9921875
    vertex 22023.39453125 14115.1572265625 19412.71484375
  endloop
endfacet
facet normal 1 -0 -1.587531030233585e-41
  outer loop
    vertex 22023.39453125 14115.1572265625 19593.9921875
    vertex 22023.39453125 15385.0986328125 19412.71484375
    vertex 22023.39453125 15385.0986328125 19593.9921875
  endloop
endfacet
facet normal 0 -1 4.802141215058675e-13
  outer loop
    vertex 22023.39453125 14115.1572265625 19593.9921875
    vertex 21771.060546875 14115.1572265625 19412.71484375
    vertex 22023.39453125 14115.1572265625 19412.71484375
  endloop
endfacet
facet normal 0 -1 4.802141215058675e-13
  outer loop
    vertex 21771.060546875 14115.1572265625 19412.71484375
    vertex 22023.39453125 14115.1572265625 19593.9921875
    vertex 21771.060546875 14115.1572265625 19593.9921875
  endloop
endfacet
facet normal 2.656433968587099e-28 3.050358359998895e-13 1
  outer loop
    vertex 22023.39453125 14115.1572265625 19593.9921875
    vertex 21771.060546875 15385.0986328125 19593.9921875
    vertex 21771.060546875 14115.1572265625 19593.9921875
  endloop
endfacet
facet normal 2.656433968587099e-28 3.050358359998895e-13 1
  outer loop
    vertex 21771.060546875 15385.0986328125 19593.9921875
    vertex 22023.39453125 14115.1572265625 19593.9921875
    vertex 22023.39453125 15385.0986328125 19593.9921875
  endloop
endfacet
facet normal 0 1 -4.802141215058675e-13
  outer loop
    vertex 21771.060546875 15385.0986328125 19593.9921875
    vertex 22023.39453125 15385.0986328125 19412.71484375
    vertex 21771.060546875 15385.0986328125 19412.71484375
  endloop
endfacet
facet normal 0 1 -4.802141215058675e-13
  outer loop
    vertex 22023.39453125 15385.0986328125 19412.71484375
    vertex 21771.060546875 15385.0986328125 19593.9921875
    vertex 22023.39453125 15385.0986328125 19593.9921875
  endloop
endfacet
facet normal -1 0 1.587531030233585e-41
  outer loop
    vertex 21771.060546875 14115.1572265625 19593.9921875
    vertex 21771.060546875 15385.0986328125 19412.71484375
    vertex 21771.060546875 14115.1572265625 19412.71484375
  endloop
endfacet
facet normal -1 0 1.587531030233585e-41
  outer loop
    vertex 21771.060546875 15385.0986328125 19412.71484375
    vertex 21771.060546875 14115.1572265625 19593.9921875
    vertex 21771.060546875 15385.0986328125 19593.9921875
  endloop
endfacet
facet normal -6.988275441587863e-42 -2.988248212244804e-13 -1
  outer loop
    vertex 22275.7265625 15385.0986328125 19593.9921875
    vertex 22023.39453125 14115.1572265625 19593.9921875
    vertex 22023.39453125 15385.0986328125 19593.9921875
  endloop
endfacet
facet normal -6.988275441587863e-42 -2.988248212244804e-13 -1
  outer loop
    vertex 22023.39453125 14115.1572265625 19593.9921875
    vertex 22275.7265625 15385.0986328125 19593.9921875
    vertex 22275.7265625 14115.1572265625 19593.9921875
  endloop
endfacet
facet normal 1 -0 -1.587531030233585e-41
  outer loop
    vertex 22275.7265625 15385.0986328125 19593.9921875
    vertex 22275.7265625 14115.1572265625 19775.271484375
    vertex 22275.7265625 14115.1572265625 19593.9921875
  endloop
endfacet
facet normal 1 -0 -1.587531030233585e-41
  outer loop
    vertex 22275.7265625 14115.1572265625 19775.271484375
    vertex 22275.7265625 15385.0986328125 19593.9921875
    vertex 22275.7265625 15385.0986328125 19775.271484375
  endloop
endfacet
facet normal 0 -1 4.802141215058675e-13
  outer loop
    vertex 22275.7265625 14115.1572265625 19775.271484375
    vertex 22023.39453125 14115.1572265625 19593.9921875
    vertex 22275.7265625 14115.1572265625 19593.9921875
  endloop
endfacet
facet normal 0 -1 4.802141215058675e-13
  outer loop
    vertex 22023.39453125 14115.1572265625 19593.9921875
    vertex 22275.7265625 14115.1572265625 19775.271484375
    vertex 22023.39453125 14115.1572265625 19775.271484375
  endloop
endfacet
facet normal 2.656433968587099e-28 3.050358359998895e-13 1
  outer loop
    vertex 22275.7265625 14115.1572265625 19775.271484375
    vertex 22023.39453125 15385.0986328125 19775.271484375
    vertex 22023.39453125 14115.1572265625 19775.271484375
  endloop
endfacet
facet normal 2.656433968587099e-28 3.050358359998895e-13 1
  outer loop
    vertex 22023.39453125 15385.0986328125 19775.271484375
    vertex 22275.7265625 14115.1572265625 19775.271484375
    vertex 22275.7265625 15385.0986328125 19775.271484375
  endloop
endfacet
facet normal 0 1 -4.802141215058675e-13
  outer loop
    vertex 22023.39453125 15385.0986328125 19775.271484375
    vertex 22275.7265625 15385.0986328125 19593.9921875
    vertex 22023.39453125 15385.0986328125 19593.9921875
  endloop
endfacet
facet normal 0 1 -4.802141215058675e-13
  outer loop
    vertex 22275.7265625 15385.0986328125 19593.9921875
    vertex 22023.39453125 15385.0986328125 19775.271484375
    vertex 22275.7265625 15385.0986328125 19775.271484375
  endloop
endfacet
facet normal -1 0 1.587531030233585e-41
  outer loop
    vertex 22023.39453125 14115.1572265625 19775.271484375
    vertex 22023.39453125 15385.0986328125 19593.9921875
    vertex 22023.39453125 14115.1572265625 19593.9921875
  endloop
endfacet
facet normal -1 0 1.587531030233585e-41
  outer loop
    vertex 22023.39453125 15385.0986328125 19593.9921875
    vertex 22023.39453125 14115.1572265625 19775.271484375
    vertex 22023.39453125 15385.0986328125 19775.271484375
  endloop
endfacet
facet normal -6.988275441587863e-42 -2.988248212244804e-13 -1
  outer loop
    vertex 22528.060546875 15385.0986328125 19775.271484375
    vertex 22275.7265625 14115.1572265625 19775.271484375
    vertex 22275.7265625 15385.0986328125 19775.271484375
  endloop
endfacet
facet normal -6.988275441587863e-42 -2.988248212244804e-13 -1
  outer loop
    vertex 22275.7265625 14115.1572265625 19775.271484375
    vertex 22528.060546875 15385.0986328125 19775.271484375
    vertex 22528.060546875 14115.1572265625 19775.271484375
  endloop
endfacet
facet normal 1 -0 -1.587531030233585e-41
  outer loop
    vertex 22528.060546875 15385.0986328125 19775.271484375
    vertex 22528.060546875 14115.1572265625 19956.548828125
    vertex 22528.060546875 14115.1572265625 19775.271484375
  endloop
endfacet
facet normal 1 -0 -1.587531030233585e-41
  outer loop
    vertex 22528.060546875 14115.1572265625 19956.548828125
    vertex 22528.060546875 15385.0986328125 19775.271484375
    vertex 22528.060546875 15385.0986328125 19956.548828125
  endloop
endfacet
facet normal 0 -1 4.802141215058675e-13
  outer loop
    vertex 22528.060546875 14115.1572265625 19956.548828125
    vertex 22275.7265625 14115.1572265625 19775.271484375
    vertex 22528.060546875 14115.1572265625 19775.271484375
  endloop
endfacet
facet normal 0 -1 4.802141215058675e-13
  outer loop
    vertex 22275.7265625 14115.1572265625 19775.271484375
    vertex 22528.060546875 14115.1572265625 19956.548828125
    vertex 22275.7265625 14115.1572265625 19956.548828125
  endloop
endfacet
facet normal 2.656433968587099e-28 3.050358359998895e-13 1
  outer loop
    vertex 22528.060546875 14115.1572265625 19956.548828125
    vertex 22275.7265625 15385.0986328125 19956.548828125
    vertex 22275.7265625 14115.1572265625 19956.548828125
  endloop
endfacet
facet normal 2.656433968587099e-28 3.050358359998895e-13 1
  outer loop
    vertex 22275.7265625 15385.0986328125 19956.548828125
    vertex 22528.060546875 14115.1572265625 19956.548828125
    vertex 22528.060546875 15385.0986328125 19956.548828125
  endloop
endfacet
facet normal 0 1 -4.802141215058675e-13
  outer loop
    vertex 22275.7265625 15385.0986328125 19956.548828125
    vertex 22528.060546875 15385.0986328125 19775.271484375
    vertex 22275.7265625 15385.0986328125 19775.271484375
  endloop
endfacet
facet normal 0 1 -4.802141215058675e-13
  outer loop
    vertex 22528.060546875 15385.0986328125 19775.271484375
    vertex 22275.7265625 15385.0986328125 19956.548828125
    vertex 22528.060546875 15385.0986328125 19956.548828125
  endloop
endfacet
facet normal -1 0 1.587531030233585e-41
  outer loop
    vertex 22275.7265625 14115.1572265625 19956.548828125
    vertex 22275.7265625 15385.0986328125 19775.271484375
    vertex 22275.7265625 14115.1572265625 19775.271484375
  endloop
endfacet
facet normal -1 0 1.587531030233585e-41
  outer loop
    vertex 22275.7265625 15385.0986328125 19775.271484375
    vertex 22275.7265625 14115.1572265625 19956.548828125
    vertex 22275.7265625 15385.0986328125 19956.548828125
  endloop
endfacet
facet normal -6.988275441587863e-42 -2.988248212244804e-13 -1
  outer loop
    vertex 21518.728515625 15385.0986328125 19050.158203125
    vertex 21266.39453125 14115.1572265625 19050.158203125
    vertex 21266.39453125 15385.0986328125 19050.158203125
  endloop
endfacet
facet normal -6.988275441587863e-42 -2.988248212244804e-13 -1
  outer loop
    vertex 21266.39453125 14115.1572265625 19050.158203125
    vertex 21518.728515625 15385.0986328125 19050.158203125
    vertex 21518.728515625 14115.1572265625 19050.158203125
  endloop
endfacet
facet normal 1 -0 -1.587531030233585e-41
  outer loop
    vertex 21518.728515625 15385.0986328125 19050.158203125
    vertex 21518.728515625 14115.1572265625 19231.435546875
    vertex 21518.728515625 14115.1572265625 19050.158203125
  endloop
endfacet
facet normal 1 -0 -1.587531030233585e-41
  outer loop
    vertex 21518.728515625 14115.1572265625 19231.435546875
    vertex 21518.728515625 15385.0986328125 19050.158203125
    vertex 21518.728515625 15385.0986328125 19231.435546875
  endloop
endfacet
facet normal 0 -1 4.802141215058675e-13
  outer loop
    vertex 21518.728515625 14115.1572265625 19231.435546875
    vertex 21266.39453125 14115.1572265625 19050.158203125
    vertex 21518.728515625 14115.1572265625 19050.158203125
  endloop
endfacet
facet normal 0 -1 4.802141215058675e-13
  outer loop
    vertex 21266.39453125 14115.1572265625 19050.158203125
    vertex 21518.728515625 14115.1572265625 19231.435546875
    vertex 21266.39453125 14115.1572265625 19231.435546875
  endloop
endfacet
facet normal 2.656433968587099e-28 3.050358359998895e-13 1
  outer loop
    vertex 21518.728515625 14115.1572265625 19231.435546875
    vertex 21266.39453125 15385.0986328125 19231.435546875
    vertex 21266.39453125 14115.1572265625 19231.435546875
  endloop
endfacet
facet normal 2.656433968587099e-28 3.050358359998895e-13 1
  outer loop
    vertex 21266.39453125 15385.0986328125 19231.435546875
    vertex 21518.728515625 14115.1572265625 19231.435546875
    vertex 21518.728515625 15385.0986328125 19231.435546875
  endloop
endfacet
facet normal 0 1 -4.802141215058675e-13
  outer loop
    vertex 21266.39453125 15385.0986328125 19231.435546875
    vertex 21518.728515625 15385.0986328125 19050.158203125
    vertex 21266.39453125 15385.0986328125 19050.158203125
  endloop
endfacet
facet normal 0 1 -4.802141215058675e-13
  outer loop
    vertex 21518.728515625 15385.0986328125 19050.158203125
    vertex 21266.39453125 15385.0986328125 19231.435546875
    vertex 21518.728515625 15385.0986328125 19231.435546875
  endloop
endfacet
facet normal -1 0 1.587531030233585e-41
  outer loop
    vertex 21266.39453125 14115.1572265625 19231.435546875
    vertex 21266.39453125 15385.0986328125 19050.158203125
    vertex 21266.39453125 14115.1572265625 19050.158203125
  endloop
endfacet
facet normal -1 0 1.587531030233585e-41
  outer loop
    vertex 21266.39453125 15385.0986328125 19050.158203125
    vertex 21266.39453125 14115.1572265625 19231.435546875
    vertex 21266.39453125 15385.0986328125 19231.435546875
  endloop
endfacet
facet normal -6.988275441587863e-42 -2.988248212244804e-13 -1
  outer loop
    vertex 22780.392578125 15385.0986328125 19956.548828125
    vertex 22528.060546875 14115.1572265625 19956.548828125
    vertex 22528.060546875 15385.0986328125 19956.548828125
  endloop
endfacet
facet normal -6.988275441587863e-42 -2.988248212244804e-13 -1
  outer loop
    vertex 22528.060546875 14115.1572265625 19956.548828125
    vertex 22780.392578125 15385.0986328125 19956.548828125
    vertex 22780.392578125 14115.1572265625 19956.548828125
  endloop
endfacet
facet normal 1 -0 -1.587531030233585e-41
  outer loop
    vertex 22780.392578125 15385.0986328125 19956.548828125
    vertex 22780.392578125 14115.1572265625 20137.826171875
    vertex 22780.392578125 14115.1572265625 19956.548828125
  endloop
endfacet
facet normal 1 -0 -1.587531030233585e-41
  outer loop
    vertex 22780.392578125 14115.1572265625 20137.826171875
    vertex 22780.392578125 15385.0986328125 19956.548828125
    vertex 22780.392578125 15385.0986328125 20137.826171875
  endloop
endfacet
facet normal 0 -1 4.802141215058675e-13
  outer loop
    vertex 22780.392578125 14115.1572265625 20137.826171875
    vertex 22528.060546875 14115.1572265625 19956.548828125
    vertex 22780.392578125 14115.1572265625 19956.548828125
  endloop
endfacet
facet normal 0 -1 4.802141215058675e-13
  outer loop
    vertex 22528.060546875 14115.1572265625 19956.548828125
    vertex 22780.392578125 14115.1572265625 20137.826171875
    vertex 22528.060546875 14115.1572265625 20137.826171875
  endloop
endfacet
facet normal 2.656433968587099e-28 3.050358359998895e-13 1
  outer loop
    vertex 22780.392578125 14115.1572265625 20137.826171875
    vertex 22528.060546875 15385.0986328125 20137.826171875
    vertex 22528.060546875 14115.1572265625 20137.826171875
  endloop
endfacet
facet normal 2.656433968587099e-28 3.050358359998895e-13 1
  outer loop
    vertex 22528.060546875 15385.0986328125 20137.826171875
    vertex 22780.392578125 14115.1572265625 20137.826171875
    vertex 22780.392578125 15385.0986328125 20137.826171875
  endloop
endfacet
facet normal 0 1 -4.802141215058675e-13
  outer loop
    vertex 22528.060546875 15385.0986328125 20137.826171875
    vertex 22780.392578125 15385.0986328125 19956.548828125
    vertex 22528.060546875 15385.0986328125 19956.548828125
  endloop
endfacet
facet normal 0 1 -4.802141215058675e-13
  outer loop
    vertex 22780.392578125 15385.0986328125 19956.548828125
    vertex 22528.060546875 15385.0986328125 20137.826171875
    vertex 22780.392578125 15385.0986328125 20137.826171875
  endloop
endfacet
facet normal -1 0 1.587531030233585e-41
  outer loop
    vertex 22528.060546875 14115.1572265625 20137.826171875
    vertex 22528.060546875 15385.0986328125 19956.548828125
    vertex 22528.060546875 14115.1572265625 19956.548828125
  endloop
endfacet
facet normal -1 0 1.587531030233585e-41
  outer loop
    vertex 22528.060546875 15385.0986328125 19956.548828125
    vertex 22528.060546875 14115.1572265625 20137.826171875
    vertex 22528.060546875 15385.0986328125 20137.826171875
  endloop
endfacet
facet normal -6.988275441587863e-42 -2.988248212244804e-13 -1
  outer loop
    vertex 21771.060546875 15385.0986328125 19231.435546875
    vertex 21518.728515625 14115.1572265625 19231.435546875
    vertex 21518.728515625 15385.0986328125 19231.435546875
  endloop
endfacet
facet normal -6.988275441587863e-42 -2.988248212244804e-13 -1
  outer loop
    vertex 21518.728515625 14115.1572265625 19231.435546875
    vertex 21771.060546875 15385.0986328125 19231.435546875
    vertex 21771.060546875 14115.1572265625 19231.435546875
  endloop
endfacet
facet normal 1 -0 -1.587531030233585e-41
  outer loop
    vertex 21771.060546875 15385.0986328125 19231.435546875
    vertex 21771.060546875 14115.1572265625 19412.71484375
    vertex 21771.060546875 14115.1572265625 19231.435546875
  endloop
endfacet
facet normal 1 -0 -1.587531030233585e-41
  outer loop
    vertex 21771.060546875 14115.1572265625 19412.71484375
    vertex 21771.060546875 15385.0986328125 19231.435546875
    vertex 21771.060546875 15385.0986328125 19412.71484375
  endloop
endfacet
facet normal 0 -1 4.802141215058675e-13
  outer loop
    vertex 21771.060546875 14115.1572265625 19412.71484375
    vertex 21518.728515625 14115.1572265625 19231.435546875
    vertex 21771.060546875 14115.1572265625 19231.435546875
  endloop
endfacet
facet normal 0 -1 4.802141215058675e-13
  outer loop
    vertex 21518.728515625 14115.1572265625 19231.435546875
    vertex 21771.060546875 14115.1572265625 19412.71484375
    vertex 21518.728515625 14115.1572265625 19412.71484375
  endloop
endfacet
facet normal 2.656433968587099e-28 3.050358359998895e-13 1
  outer loop
    vertex 21771.060546875 14115.1572265625 19412.71484375
    vertex 21518.728515625 15385.0986328125 19412.71484375
    vertex 21518.728515625 14115.1572265625 19412.71484375
  endloop
endfacet
facet normal 2.656433968587099e-28 3.050358359998895e-13 1
  outer loop
    vertex 21518.728515625 15385.0986328125 19412.71484375
    vertex 21771.060546875 14115.1572265625 19412.71484375
    vertex 21771.060546875 15385.0986328125 19412.71484375
  endloop
endfacet
facet normal 0 1 -4.802141215058675e-13
  outer loop
    vertex 21518.728515625 15385.0986328125 19412.71484375
    vertex 21771.060546875 15385.0986328125 19231.435546875
    vertex 21518.728515625 15385.0986328125 19231.435546875
  endloop
endfacet
facet normal 0 1 -4.802141215058675e-13
  outer loop
    vertex 21771.060546875 15385.0986328125 19231.435546875
    vertex 21518.728515625 15385.0986328125 19412.71484375
    vertex 21771.060546875 15385.0986328125 19412.71484375
  endloop
endfacet
facet normal -1 0 1.587531030233585e-41
  outer loop
    vertex 21518.728515625 14115.1572265625 19412.71484375
    vertex 21518.728515625 15385.0986328125 19231.435546875
    vertex 21518.728515625 14115.1572265625 19231.435546875
  endloop
endfacet
facet normal -1 0 1.587531030233585e-41
  outer loop
    vertex 21518.728515625 15385.0986328125 19231.435546875
    vertex 21518.728515625 14115.1572265625 19412.71484375
    vertex 21518.728515625 15385.0986328125 19412.71484375
  endloop
endfacet
facet normal -6.988275441587863e-42 -2.988248212244804e-13 -1
  outer loop
    vertex 23032.7265625 15385.0986328125 20137.826171875
    vertex 22780.392578125 14115.1572265625 20137.826171875
    vertex 22780.392578125 15385.0986328125 20137.826171875
  endloop
endfacet
facet normal -6.988275441587863e-42 -2.988248212244804e-13 -1
  outer loop
    vertex 22780.392578125 14115.1572265625 20137.826171875
    vertex 23032.7265625 15385.0986328125 20137.826171875
    vertex 23032.7265625 14115.1572265625 20137.826171875
  endloop
endfacet
facet normal 1 -0 -1.587531030233585e-41
  outer loop
    vertex 23032.7265625 15385.0986328125 20137.826171875
    vertex 23032.7265625 14115.1572265625 20319.10546875
    vertex 23032.7265625 14115.1572265625 20137.826171875
  endloop
endfacet
facet normal 1 -0 -1.587531030233585e-41
  outer loop
    vertex 23032.7265625 14115.1572265625 20319.10546875
    vertex 23032.7265625 15385.0986328125 20137.826171875
    vertex 23032.7265625 15385.0986328125 20319.10546875
  endloop
endfacet
facet normal 0 -1 4.802141215058675e-13
  outer loop
    vertex 23032.7265625 14115.1572265625 20319.10546875
    vertex 22780.392578125 14115.1572265625 20137.826171875
    vertex 23032.7265625 14115.1572265625 20137.826171875
  endloop
endfacet
facet normal 0 -1 4.802141215058675e-13
  outer loop
    vertex 22780.392578125 14115.1572265625 20137.826171875
    vertex 23032.7265625 14115.1572265625 20319.10546875
    vertex 22780.392578125 14115.1572265625 20319.10546875
  endloop
endfacet
facet normal 2.656433968587099e-28 3.050358359998895e-13 1
  outer loop
    vertex 23032.7265625 14115.1572265625 20319.10546875
    vertex 22780.392578125 15385.0986328125 20319.10546875
    vertex 22780.392578125 14115.1572265625 20319.10546875
  endloop
endfacet
facet normal 2.656433968587099e-28 3.050358359998895e-13 1
  outer loop
    vertex 22780.392578125 15385.0986328125 20319.10546875
    vertex 23032.7265625 14115.1572265625 20319.10546875
    vertex 23032.7265625 15385.0986328125 20319.10546875
  endloop
endfacet
facet normal 0 1 -4.802141215058675e-13
  outer loop
    vertex 22780.392578125 15385.0986328125 20319.10546875
    vertex 23032.7265625 15385.0986328125 20137.826171875
    vertex 22780.392578125 15385.0986328125 20137.826171875
  endloop
endfacet
facet normal 0 1 -4.802141215058675e-13
  outer loop
    vertex 23032.7265625 15385.0986328125 20137.826171875
    vertex 22780.392578125 15385.0986328125 20319.10546875
    vertex 23032.7265625 15385.0986328125 20319.10546875
  endloop
endfacet
facet normal -1 0 1.587531030233585e-41
  outer loop
    vertex 22780.392578125 14115.1572265625 20319.10546875
    vertex 22780.392578125 15385.0986328125 20137.826171875
    vertex 22780.392578125 14115.1572265625 20137.826171875
  endloop
endfacet
facet normal -1 0 1.587531030233585e-41
  outer loop
    vertex 22780.392578125 15385.0986328125 20137.826171875
    vertex 22780.392578125 14115.1572265625 20319.10546875
    vertex 22780.392578125 15385.0986328125 20319.10546875
  endloop
endfacet
endsolid com.sketchup.SketchUp.2019
