solid com.sketchup.SketchUp.2019
facet normal -6.954644278444067e-42 -3.024107385948133e-13 -1
  outer loop
    vertex 20851.5078125 15325.166015625 4318.72216796875
    vertex 20600.41796875 14039.9853515625 4318.72216796875
    vertex 20600.41796875 15325.166015625 4318.72216796875
  endloop
endfacet
facet normal -6.954644278444067e-42 -3.024107385948133e-13 -1
  outer loop
    vertex 20600.41796875 14039.9853515625 4318.72216796875
    vertex 20851.5078125 15325.166015625 4318.72216796875
    vertex 20851.5078125 14039.9853515625 4318.72216796875
  endloop
endfacet
facet normal 1 -0 -1.595378301633804e-41
  outer loop
    vertex 20851.5078125 15325.166015625 4318.72216796875
    vertex 20851.5078125 14039.9853515625 4500
    vertex 20851.5078125 14039.9853515625 4318.72216796875
  endloop
endfacet
facet normal 1 -0 -1.595378301633804e-41
  outer loop
    vertex 20851.5078125 14039.9853515625 4500
    vertex 20851.5078125 15325.166015625 4318.72216796875
    vertex 20851.5078125 15325.166015625 4500
  endloop
endfacet
facet normal 0 -1 4.745198916959736e-13
  outer loop
    vertex 20851.5078125 14039.9853515625 4500
    vertex 20600.41796875 14039.9853515625 4318.72216796875
    vertex 20851.5078125 14039.9853515625 4318.72216796875
  endloop
endfacet
facet normal 0 -1 4.745198916959736e-13
  outer loop
    vertex 20600.41796875 14039.9853515625 4318.72216796875
    vertex 20851.5078125 14039.9853515625 4500
    vertex 20600.41796875 14039.9853515625 4500
  endloop
endfacet
facet normal 2.643346070908773e-28 3.086962651645264e-13 1
  outer loop
    vertex 20851.5078125 14039.9853515625 4500
    vertex 20600.41796875 15325.166015625 4500
    vertex 20600.41796875 14039.9853515625 4500
  endloop
endfacet
facet normal 2.643346070908773e-28 3.086962651645264e-13 1
  outer loop
    vertex 20600.41796875 15325.166015625 4500
    vertex 20851.5078125 14039.9853515625 4500
    vertex 20696.669921875 15289.74609375 4500
  endloop
endfacet
facet normal 2.643346070908773e-28 3.086962651645264e-13 1
  outer loop
    vertex 20696.669921875 15289.74609375 4500
    vertex 20851.5078125 14039.9853515625 4500
    vertex 20728.814453125 15289.74609375 4500
  endloop
endfacet
facet normal 2.643346070908773e-28 3.086962651645264e-13 1
  outer loop
    vertex 20728.814453125 15289.74609375 4500
    vertex 20851.5078125 14039.9853515625 4500
    vertex 20728.814453125 15325.166015625 4500
  endloop
endfacet
facet normal 2.643346070908773e-28 3.086962651645264e-13 1
  outer loop
    vertex 20728.814453125 15325.166015625 4500
    vertex 20851.5078125 14039.9853515625 4500
    vertex 20851.5078125 15325.166015625 4500
  endloop
endfacet
facet normal 2.643346070908773e-28 3.086962651645264e-13 1
  outer loop
    vertex 20696.669921875 15325.166015625 4500
    vertex 20600.41796875 15325.166015625 4500
    vertex 20696.669921875 15289.74609375 4500
  endloop
endfacet
facet normal 0 1 -4.745198916959736e-13
  outer loop
    vertex 20600.41796875 15325.166015625 4500
    vertex 20851.5078125 15325.166015625 4318.72216796875
    vertex 20600.41796875 15325.166015625 4318.72216796875
  endloop
endfacet
facet normal 0 1 -4.745198916959736e-13
  outer loop
    vertex 20851.5078125 15325.166015625 4318.72216796875
    vertex 20600.41796875 15325.166015625 4500
    vertex 20851.5078125 15325.166015625 4500
  endloop
endfacet
facet normal -1 0 1.595378301633804e-41
  outer loop
    vertex 20600.41796875 14039.9853515625 4500
    vertex 20600.41796875 15325.166015625 4318.72216796875
    vertex 20600.41796875 14039.9853515625 4318.72216796875
  endloop
endfacet
facet normal -1 0 1.595378301633804e-41
  outer loop
    vertex 20600.41796875 15325.166015625 4318.72216796875
    vertex 20600.41796875 14039.9853515625 4500
    vertex 20600.41796875 15325.166015625 4500
  endloop
endfacet
facet normal -2.361858809658141e-13 3.041058344813857e-13 -1
  outer loop
    vertex 20728.814453125 15325.166015625 4500
    vertex 20696.669921875 15289.74609375 4500
    vertex 20696.669921875 15325.166015625 4500
  endloop
endfacet
facet normal -2.361858809658141e-13 3.041058344813857e-13 -1
  outer loop
    vertex 20696.669921875 15289.74609375 4500
    vertex 20728.814453125 15325.166015625 4500
    vertex 20728.814453125 15289.74609375 4500
  endloop
endfacet
facet normal -7.800413655658419e-15 1 -1.603308516495965e-14
  outer loop
    vertex 20696.669921875 15325.166015625 4500
    vertex 20728.814453125 15325.166015625 5429.525390625
    vertex 20728.814453125 15325.166015625 4500
  endloop
endfacet
facet normal -7.800413655658419e-15 1 -1.603308516495965e-14
  outer loop
    vertex 20728.814453125 15325.166015625 5429.525390625
    vertex 20696.669921875 15325.166015625 4500
    vertex 20696.669921875 15325.166015625 5455.4697265625
  endloop
endfacet
facet normal -7.800413655658419e-15 1 -1.603308516495965e-14
  outer loop
    vertex 20728.814453125 15325.166015625 5429.525390625
    vertex 20696.669921875 15325.166015625 5455.4697265625
    vertex 20755.2578125 15325.166015625 5448.6162109375
  endloop
endfacet
facet normal -7.800413655658419e-15 1 -1.603308516495965e-14
  outer loop
    vertex 20755.2578125 15325.166015625 5448.6162109375
    vertex 20696.669921875 15325.166015625 5455.4697265625
    vertex 23160.44921875 15325.166015625 7185.0810546875
  endloop
endfacet
facet normal -7.800413655658419e-15 1 -1.603308516495965e-14
  outer loop
    vertex 23160.44921875 15325.166015625 7185.0810546875
    vertex 20696.669921875 15325.166015625 5455.4697265625
    vertex 23160.44921875 15325.166015625 7234.232421875
  endloop
endfacet
facet normal -0.3001967370510101 -6.157609242205583e-16 0.953877329826355
  outer loop
    vertex 23174.287109375 15289.74609375 7244.2236328125
    vertex 20696.669921875 15325.166015625 5455.4697265625
    vertex 20696.669921875 15289.74609375 5455.4697265625
  endloop
endfacet
facet normal -0.3001967370510101 -6.157609242205583e-16 0.953877329826355
  outer loop
    vertex 20696.669921875 15325.166015625 5455.4697265625
    vertex 23174.287109375 15289.74609375 7244.2236328125
    vertex 23160.44921875 15325.166015625 7234.232421875
  endloop
endfacet
facet normal -0.3001967370510101 -6.157609242205583e-16 0.953877329826355
  outer loop
    vertex 23160.44921875 15325.166015625 7234.232421875
    vertex 23174.287109375 15289.74609375 7244.2236328125
    vertex 23160.44921875 15628.7666015625 7234.232421875
  endloop
endfacet
facet normal -0.3001967370510101 -6.157609242205583e-16 0.953877329826355
  outer loop
    vertex 23160.44921875 15628.7666015625 7234.232421875
    vertex 23174.287109375 15289.74609375 7244.2236328125
    vertex 23174.287109375 15628.7666015625 7244.2236328125
  endloop
endfacet
facet normal -1 0 0
  outer loop
    vertex 20696.669921875 15289.74609375 5455.4697265625
    vertex 20696.669921875 15325.166015625 4500
    vertex 20696.669921875 15289.74609375 4500
  endloop
endfacet
facet normal -1 0 0
  outer loop
    vertex 20696.669921875 15325.166015625 4500
    vertex 20696.669921875 15289.74609375 5455.4697265625
    vertex 20696.669921875 15325.166015625 5455.4697265625
  endloop
endfacet
facet normal 0.3001967370510101 -5.884074033812555e-15 -0.953877329826355
  outer loop
    vertex 20755.2578125 15325.166015625 5448.6162109375
    vertex 20728.814453125 15289.74609375 5429.525390625
    vertex 20728.814453125 15325.166015625 5429.525390625
  endloop
endfacet
facet normal 0.3001967370510101 -5.884074033812555e-15 -0.953877329826355
  outer loop
    vertex 20728.814453125 15289.74609375 5429.525390625
    vertex 20755.2578125 15325.166015625 5448.6162109375
    vertex 20755.2578125 15289.74609375 5448.6162109375
  endloop
endfacet
facet normal 1 0 0
  outer loop
    vertex 20728.814453125 15325.166015625 4500
    vertex 20728.814453125 15289.74609375 5429.525390625
    vertex 20728.814453125 15289.74609375 4500
  endloop
endfacet
facet normal 1 0 0
  outer loop
    vertex 20728.814453125 15289.74609375 5429.525390625
    vertex 20728.814453125 15325.166015625 4500
    vertex 20728.814453125 15325.166015625 5429.525390625
  endloop
endfacet
facet normal 7.985522541885479e-15 -1 1.421282660790321e-14
  outer loop
    vertex 20728.814453125 15289.74609375 5429.525390625
    vertex 20696.669921875 15289.74609375 4500
    vertex 20728.814453125 15289.74609375 4500
  endloop
endfacet
facet normal 7.985522541885479e-15 -1 1.421282660790321e-14
  outer loop
    vertex 20696.669921875 15289.74609375 4500
    vertex 20728.814453125 15289.74609375 5429.525390625
    vertex 20696.669921875 15289.74609375 5455.4697265625
  endloop
endfacet
facet normal 7.985522541885479e-15 -1 1.421282660790321e-14
  outer loop
    vertex 20696.669921875 15289.74609375 5455.4697265625
    vertex 20728.814453125 15289.74609375 5429.525390625
    vertex 20755.2578125 15289.74609375 5448.6162109375
  endloop
endfacet
facet normal 7.985522541885479e-15 -1 1.421282660790321e-14
  outer loop
    vertex 20696.669921875 15289.74609375 5455.4697265625
    vertex 20755.2578125 15289.74609375 5448.6162109375
    vertex 23186.892578125 15289.74609375 7204.171875
  endloop
endfacet
facet normal 7.985522541885479e-15 -1 1.421282660790321e-14
  outer loop
    vertex 20696.669921875 15289.74609375 5455.4697265625
    vertex 23186.892578125 15289.74609375 7204.171875
    vertex 23174.287109375 15289.74609375 7244.2236328125
  endloop
endfacet
facet normal 7.985522541885479e-15 -1 1.421282660790321e-14
  outer loop
    vertex 23174.287109375 15289.74609375 7244.2236328125
    vertex 23186.892578125 15289.74609375 7204.171875
    vertex 23186.892578125 15289.74609375 7253.32373046875
  endloop
endfacet
facet normal -0.3001967370510101 7.23533806465337e-18 0.953877329826355
  outer loop
    vertex 23186.892578125 15289.74609375 7253.32373046875
    vertex 23174.287109375 15628.7666015625 7244.2236328125
    vertex 23174.287109375 15289.74609375 7244.2236328125
  endloop
endfacet
facet normal -0.3001967370510101 7.23533806465337e-18 0.953877329826355
  outer loop
    vertex 23174.287109375 15628.7666015625 7244.2236328125
    vertex 23186.892578125 15289.74609375 7253.32373046875
    vertex 23186.892578125 15628.7666015625 7253.32373046875
  endloop
endfacet
facet normal 1 0 0
  outer loop
    vertex 23186.892578125 15628.7666015625 7204.171875
    vertex 23186.892578125 15289.74609375 7253.32373046875
    vertex 23186.892578125 15289.74609375 7204.171875
  endloop
endfacet
facet normal 1 0 0
  outer loop
    vertex 23186.892578125 15289.74609375 7253.32373046875
    vertex 23186.892578125 15628.7666015625 7204.171875
    vertex 23186.892578125 15628.7666015625 7253.32373046875
  endloop
endfacet
facet normal 0.3001967370510101 4.179427056666413e-16 -0.953877329826355
  outer loop
    vertex 23186.892578125 15628.7666015625 7204.171875
    vertex 23160.44921875 15325.166015625 7185.0810546875
    vertex 23160.44921875 15628.7666015625 7185.0810546875
  endloop
endfacet
facet normal 0.3001967370510101 4.179427056666413e-16 -0.953877329826355
  outer loop
    vertex 23160.44921875 15325.166015625 7185.0810546875
    vertex 20755.2578125 15289.74609375 5448.6162109375
    vertex 20755.2578125 15325.166015625 5448.6162109375
  endloop
endfacet
facet normal 0.3001967370510101 4.179427056666413e-16 -0.953877329826355
  outer loop
    vertex 20755.2578125 15289.74609375 5448.6162109375
    vertex 23160.44921875 15325.166015625 7185.0810546875
    vertex 23186.892578125 15289.74609375 7204.171875
  endloop
endfacet
facet normal 0.3001967370510101 4.179427056666413e-16 -0.953877329826355
  outer loop
    vertex 23186.892578125 15289.74609375 7204.171875
    vertex 23160.44921875 15325.166015625 7185.0810546875
    vertex 23186.892578125 15628.7666015625 7204.171875
  endloop
endfacet
facet normal 0 1 0
  outer loop
    vertex 23160.44921875 15628.7666015625 7234.232421875
    vertex 23186.892578125 15628.7666015625 7204.171875
    vertex 23160.44921875 15628.7666015625 7185.0810546875
  endloop
endfacet
facet normal 0 1 0
  outer loop
    vertex 23186.892578125 15628.7666015625 7204.171875
    vertex 23160.44921875 15628.7666015625 7234.232421875
    vertex 23186.892578125 15628.7666015625 7253.32373046875
  endloop
endfacet
facet normal 0 1 0
  outer loop
    vertex 23186.892578125 15628.7666015625 7253.32373046875
    vertex 23160.44921875 15628.7666015625 7234.232421875
    vertex 23174.287109375 15628.7666015625 7244.2236328125
  endloop
endfacet
facet normal -1 0 0
  outer loop
    vertex 23160.44921875 15628.7666015625 7234.232421875
    vertex 23160.44921875 15325.166015625 7185.0810546875
    vertex 23160.44921875 15325.166015625 7234.232421875
  endloop
endfacet
facet normal -1 0 0
  outer loop
    vertex 23160.44921875 15325.166015625 7185.0810546875
    vertex 23160.44921875 15628.7666015625 7234.232421875
    vertex 23160.44921875 15628.7666015625 7185.0810546875
  endloop
endfacet
facet normal 2.361858809658141e-13 -3.041058344813857e-13 -1
  outer loop
    vertex 23154.748046875 15593.3466796875 6319.11865234375
    vertex 23186.892578125 15628.7666015625 6319.11865234375
    vertex 23186.892578125 15593.3466796875 6319.11865234375
  endloop
endfacet
facet normal 2.361858809658141e-13 -3.041058344813857e-13 -1
  outer loop
    vertex 23186.892578125 15628.7666015625 6319.11865234375
    vertex 23154.748046875 15593.3466796875 6319.11865234375
    vertex 23154.748046875 15628.7666015625 6319.11865234375
  endloop
endfacet
facet normal -2.919863244417453e-13 -1 -1.603308516495965e-14
  outer loop
    vertex 23186.892578125 15593.3466796875 6319.11865234375
    vertex 23154.748046875 15593.3466796875 7227.37890625
    vertex 23154.748046875 15593.3466796875 6319.11865234375
  endloop
endfacet
facet normal -2.919863244417453e-13 -1 -1.603308516495965e-14
  outer loop
    vertex 23154.748046875 15593.3466796875 7227.37890625
    vertex 23186.892578125 15593.3466796875 6319.11865234375
    vertex 23186.892578125 15593.3466796875 7253.32373046875
  endloop
endfacet
facet normal -2.919863244417453e-13 -1 -1.603308516495965e-14
  outer loop
    vertex 23154.748046875 15593.3466796875 7227.37890625
    vertex 23186.892578125 15593.3466796875 7253.32373046875
    vertex 23128.3046875 15593.3466796875 7246.47021484375
  endloop
endfacet
facet normal -2.919863244417453e-13 -1 -1.603308516495965e-14
  outer loop
    vertex 23128.3046875 15593.3466796875 7246.47021484375
    vertex 23186.892578125 15593.3466796875 7253.32373046875
    vertex 20723.11328125 15593.3466796875 8982.9345703125
  endloop
endfacet
facet normal -2.919863244417453e-13 -1 -1.603308516495965e-14
  outer loop
    vertex 20723.11328125 15593.3466796875 8982.9345703125
    vertex 23186.892578125 15593.3466796875 7253.32373046875
    vertex 20723.11328125 15593.3466796875 9032.0859375
  endloop
endfacet
facet normal 0.3001967370510101 -1.309563351856169e-13 0.953877329826355
  outer loop
    vertex 20709.2734375 15628.7666015625 9042.0771484375
    vertex 23186.892578125 15593.3466796875 7253.32373046875
    vertex 23186.892578125 15628.7666015625 7253.32373046875
  endloop
endfacet
facet normal 0.3001967370510101 -1.309563351856169e-13 0.953877329826355
  outer loop
    vertex 23186.892578125 15593.3466796875 7253.32373046875
    vertex 20709.2734375 15628.7666015625 9042.0771484375
    vertex 20723.11328125 15593.3466796875 9032.0859375
  endloop
endfacet
facet normal 0.3001967370510101 -1.309563351856169e-13 0.953877329826355
  outer loop
    vertex 20723.11328125 15593.3466796875 9032.0859375
    vertex 20709.2734375 15628.7666015625 9042.0771484375
    vertex 20723.11328125 15289.74609375 9032.0859375
  endloop
endfacet
facet normal 0.3001967370510101 -1.309563351856169e-13 0.953877329826355
  outer loop
    vertex 20723.11328125 15289.74609375 9032.0859375
    vertex 20709.2734375 15628.7666015625 9042.0771484375
    vertex 20709.2734375 15289.74609375 9042.0771484375
  endloop
endfacet
facet normal 1 -4.382862074572141e-13 0
  outer loop
    vertex 23186.892578125 15628.7666015625 7253.32373046875
    vertex 23186.892578125 15593.3466796875 6319.11865234375
    vertex 23186.892578125 15628.7666015625 6319.11865234375
  endloop
endfacet
facet normal 1 -4.382862074572141e-13 0
  outer loop
    vertex 23186.892578125 15593.3466796875 6319.11865234375
    vertex 23186.892578125 15628.7666015625 7253.32373046875
    vertex 23186.892578125 15593.3466796875 7253.32373046875
  endloop
endfacet
facet normal -0.3001967370510101 1.37456167867249e-13 -0.953877329826355
  outer loop
    vertex 23128.3046875 15593.3466796875 7246.47021484375
    vertex 23154.748046875 15628.7666015625 7227.37890625
    vertex 23154.748046875 15593.3466796875 7227.37890625
  endloop
endfacet
facet normal -0.3001967370510101 1.37456167867249e-13 -0.953877329826355
  outer loop
    vertex 23154.748046875 15628.7666015625 7227.37890625
    vertex 23128.3046875 15593.3466796875 7246.47021484375
    vertex 23128.3046875 15628.7666015625 7246.47021484375
  endloop
endfacet
facet normal -1 4.382862074572141e-13 0
  outer loop
    vertex 23154.748046875 15593.3466796875 6319.11865234375
    vertex 23154.748046875 15628.7666015625 7227.37890625
    vertex 23154.748046875 15628.7666015625 6319.11865234375
  endloop
endfacet
facet normal -1 4.382862074572141e-13 0
  outer loop
    vertex 23154.748046875 15628.7666015625 7227.37890625
    vertex 23154.748046875 15593.3466796875 6319.11865234375
    vertex 23154.748046875 15593.3466796875 7227.37890625
  endloop
endfacet
facet normal 2.918011969207934e-13 1 1.421282660790321e-14
  outer loop
    vertex 23154.748046875 15628.7666015625 7227.37890625
    vertex 23186.892578125 15628.7666015625 6319.11865234375
    vertex 23154.748046875 15628.7666015625 6319.11865234375
  endloop
endfacet
facet normal 2.918011969207934e-13 1 1.421282660790321e-14
  outer loop
    vertex 23186.892578125 15628.7666015625 6319.11865234375
    vertex 23154.748046875 15628.7666015625 7227.37890625
    vertex 23186.892578125 15628.7666015625 7253.32373046875
  endloop
endfacet
facet normal 2.918011969207934e-13 1 1.421282660790321e-14
  outer loop
    vertex 23186.892578125 15628.7666015625 7253.32373046875
    vertex 23154.748046875 15628.7666015625 7227.37890625
    vertex 23128.3046875 15628.7666015625 7246.47021484375
  endloop
endfacet
facet normal 2.918011969207934e-13 1 1.421282660790321e-14
  outer loop
    vertex 23186.892578125 15628.7666015625 7253.32373046875
    vertex 23128.3046875 15628.7666015625 7246.47021484375
    vertex 20696.669921875 15628.7666015625 9002.025390625
  endloop
endfacet
facet normal 2.918011969207934e-13 1 1.421282660790321e-14
  outer loop
    vertex 23186.892578125 15628.7666015625 7253.32373046875
    vertex 20696.669921875 15628.7666015625 9002.025390625
    vertex 20709.2734375 15628.7666015625 9042.0771484375
  endloop
endfacet
facet normal 2.918011969207934e-13 1 1.421282660790321e-14
  outer loop
    vertex 20709.2734375 15628.7666015625 9042.0771484375
    vertex 20696.669921875 15628.7666015625 9002.025390625
    vertex 20696.669921875 15628.7666015625 9051.177734375
  endloop
endfacet
facet normal 0.3001967370510101 -1.315793313064542e-13 0.953877329826355
  outer loop
    vertex 20696.669921875 15628.7666015625 9051.177734375
    vertex 20709.2734375 15289.74609375 9042.0771484375
    vertex 20709.2734375 15628.7666015625 9042.0771484375
  endloop
endfacet
facet normal 0.3001967370510101 -1.315793313064542e-13 0.953877329826355
  outer loop
    vertex 20709.2734375 15289.74609375 9042.0771484375
    vertex 20696.669921875 15628.7666015625 9051.177734375
    vertex 20696.669921875 15289.74609375 9051.177734375
  endloop
endfacet
facet normal -1 4.382862074572141e-13 0
  outer loop
    vertex 20696.669921875 15289.74609375 9002.025390625
    vertex 20696.669921875 15628.7666015625 9051.177734375
    vertex 20696.669921875 15628.7666015625 9002.025390625
  endloop
endfacet
facet normal -1 4.382862074572141e-13 0
  outer loop
    vertex 20696.669921875 15628.7666015625 9051.177734375
    vertex 20696.669921875 15289.74609375 9002.025390625
    vertex 20696.669921875 15289.74609375 9051.177734375
  endloop
endfacet
facet normal -0.3001967370510101 1.311541478719869e-13 -0.953877329826355
  outer loop
    vertex 20696.669921875 15289.74609375 9002.025390625
    vertex 20723.11328125 15593.3466796875 8982.9345703125
    vertex 20723.11328125 15289.74609375 8982.9345703125
  endloop
endfacet
facet normal -0.3001967370510101 1.311541478719869e-13 -0.953877329826355
  outer loop
    vertex 20723.11328125 15593.3466796875 8982.9345703125
    vertex 20696.669921875 15289.74609375 9002.025390625
    vertex 20696.669921875 15628.7666015625 9002.025390625
  endloop
endfacet
facet normal -0.3001967370510101 1.311541478719869e-13 -0.953877329826355
  outer loop
    vertex 20723.11328125 15593.3466796875 8982.9345703125
    vertex 23128.3046875 15628.7666015625 7246.47021484375
    vertex 23128.3046875 15593.3466796875 7246.47021484375
  endloop
endfacet
facet normal -0.3001967370510101 1.311541478719869e-13 -0.953877329826355
  outer loop
    vertex 23128.3046875 15628.7666015625 7246.47021484375
    vertex 20723.11328125 15593.3466796875 8982.9345703125
    vertex 20696.669921875 15628.7666015625 9002.025390625
  endloop
endfacet
facet normal -2.997867253919095e-13 -1 0
  outer loop
    vertex 20723.11328125 15289.74609375 9032.0859375
    vertex 20696.669921875 15289.74609375 9002.025390625
    vertex 20723.11328125 15289.74609375 8982.9345703125
  endloop
endfacet
facet normal -2.997867253919095e-13 -1 0
  outer loop
    vertex 20696.669921875 15289.74609375 9002.025390625
    vertex 20723.11328125 15289.74609375 9032.0859375
    vertex 20709.2734375 15289.74609375 9042.0771484375
  endloop
endfacet
facet normal -2.997867253919095e-13 -1 0
  outer loop
    vertex 20696.669921875 15289.74609375 9002.025390625
    vertex 20709.2734375 15289.74609375 9042.0771484375
    vertex 20696.669921875 15289.74609375 9051.177734375
  endloop
endfacet
facet normal 1 -4.382862074572141e-13 0
  outer loop
    vertex 20723.11328125 15289.74609375 9032.0859375
    vertex 20723.11328125 15593.3466796875 8982.9345703125
    vertex 20723.11328125 15593.3466796875 9032.0859375
  endloop
endfacet
facet normal 1 -4.382862074572141e-13 0
  outer loop
    vertex 20723.11328125 15593.3466796875 8982.9345703125
    vertex 20723.11328125 15289.74609375 9032.0859375
    vertex 20723.11328125 15289.74609375 8982.9345703125
  endloop
endfacet
facet normal 1 -3.990327491175394e-13 1.780465118601023e-14
  outer loop
    vertex 23186.892578125 15325.166015625 7253.32373046875
    vertex 23186.892578125 15289.74609375 6319.11865234375
    vertex 23186.892578125 15325.166015625 6319.11865234375
  endloop
endfacet
facet normal 1 -3.990327491175394e-13 1.780465118601023e-14
  outer loop
    vertex 23186.892578125 15289.74609375 6319.11865234375
    vertex 23186.892578125 15325.166015625 7253.32373046875
    vertex 23186.892578125 15289.74609375 7253.32373046875
  endloop
endfacet
facet normal -1 2.992745753906817e-13 -2.450350272892917e-14
  outer loop
    vertex 23146.548828125 15289.74609375 6319.11865234375
    vertex 23146.548828125 15325.166015625 7224.197265625
    vertex 23146.548828125 15325.166015625 6319.11865234375
  endloop
endfacet
facet normal -1 2.992745753906817e-13 -2.450350272892917e-14
  outer loop
    vertex 23146.548828125 15325.166015625 7224.197265625
    vertex 23146.548828125 15289.74609375 6319.11865234375
    vertex 23146.548828125 15289.74609375 7224.197265625
  endloop
endfacet
facet normal -1.919327733855211e-13 -1 -3.972110861798564e-14
  outer loop
    vertex 23186.892578125 15289.74609375 6319.11865234375
    vertex 23146.548828125 15289.74609375 7224.197265625
    vertex 23146.548828125 15289.74609375 6319.11865234375
  endloop
endfacet
facet normal -1.919327733855211e-13 -1 -3.972110861798564e-14
  outer loop
    vertex 23146.548828125 15289.74609375 7224.197265625
    vertex 23186.892578125 15289.74609375 6319.11865234375
    vertex 23186.892578125 15289.74609375 7253.32373046875
  endloop
endfacet
facet normal 7.761234993716119e-15 -6.257067346887579e-13 -1
  outer loop
    vertex 23146.548828125 15289.74609375 6319.11865234375
    vertex 23186.892578125 15325.166015625 6319.11865234375
    vertex 23186.892578125 15289.74609375 6319.11865234375
  endloop
endfacet
facet normal 7.761234993716119e-15 -6.257067346887579e-13 -1
  outer loop
    vertex 23186.892578125 15325.166015625 6319.11865234375
    vertex 23146.548828125 15289.74609375 6319.11865234375
    vertex 23146.548828125 15325.166015625 6319.11865234375
  endloop
endfacet
facet normal 2.225572428172368e-13 1 3.639090710629705e-14
  outer loop
    vertex 23146.548828125 15325.166015625 7224.197265625
    vertex 23186.892578125 15325.166015625 6319.11865234375
    vertex 23146.548828125 15325.166015625 6319.11865234375
  endloop
endfacet
facet normal 2.225572428172368e-13 1 3.639090710629705e-14
  outer loop
    vertex 23186.892578125 15325.166015625 6319.11865234375
    vertex 23146.548828125 15325.166015625 7224.197265625
    vertex 23186.892578125 15325.166015625 7253.32373046875
  endloop
endfacet
facet normal -0.3001967370510101 2.822771855669204e-13 0.953877329826355
  outer loop
    vertex 23146.548828125 15325.166015625 7224.197265625
    vertex 23186.892578125 15289.74609375 7253.32373046875
    vertex 23186.892578125 15325.166015625 7253.32373046875
  endloop
endfacet
facet normal -0.3001967370510101 2.822771855669204e-13 0.953877329826355
  outer loop
    vertex 23186.892578125 15289.74609375 7253.32373046875
    vertex 23146.548828125 15325.166015625 7224.197265625
    vertex 23146.548828125 15289.74609375 7224.197265625
  endloop
endfacet
facet normal -5.034247758245458e-13 3.548367979652745e-12 -1
  outer loop
    vertex 23123.75 17191.083984375 6131.50244140625
    vertex 23186.89453125 15569.984375 6131.50244140625
    vertex 23123.75 15569.984375 6131.50244140625
  endloop
endfacet
facet normal -5.034247758245458e-13 3.548367979652745e-12 -1
  outer loop
    vertex 23186.89453125 15569.984375 6131.50244140625
    vertex 23123.75 17191.083984375 6131.50244140625
    vertex 23880.671875 17191.083984375 6131.50244140625
  endloop
endfacet
facet normal -5.034247758245458e-13 3.548367979652745e-12 -1
  outer loop
    vertex 23186.892578125 15309.9306640625 6131.50244140625
    vertex 23123.75 14040.1279296875 6131.50244140625
    vertex 23123.748046875 15309.9267578125 6131.50244140625
  endloop
endfacet
facet normal -5.034247758245458e-13 3.548367979652745e-12 -1
  outer loop
    vertex 23123.75 14040.1279296875 6131.50244140625
    vertex 23186.892578125 15309.9306640625 6131.50244140625
    vertex 24788.16015625 14040.1279296875 6131.50244140625
  endloop
endfacet
facet normal -5.034247758245458e-13 3.548367979652745e-12 -1
  outer loop
    vertex 24788.16015625 14040.1279296875 6131.50244140625
    vertex 23186.892578125 15309.9306640625 6131.50244140625
    vertex 23186.89453125 15569.984375 6131.50244140625
  endloop
endfacet
facet normal -5.034247758245458e-13 3.548367979652745e-12 -1
  outer loop
    vertex 24788.16015625 14040.1279296875 6131.50244140625
    vertex 23186.89453125 15569.984375 6131.50244140625
    vertex 23880.671875 17191.083984375 6131.50244140625
  endloop
endfacet
facet normal -5.034247758245458e-13 3.548367979652745e-12 -1
  outer loop
    vertex 24788.16015625 14040.1279296875 6131.50244140625
    vertex 23880.671875 17191.083984375 6131.50244140625
    vertex 24788.16015625 17191.083984375 6131.50244140625
  endloop
endfacet
facet normal 5.034247758245458e-13 -3.548367979652745e-12 1
  outer loop
    vertex 23123.75 14040.1279296875 6319.11865234375
    vertex 23186.892578125 15309.9306640625 6319.11865234375
    vertex 23123.748046875 15309.9267578125 6319.11865234375
  endloop
endfacet
facet normal 5.034247758245458e-13 -3.548367979652745e-12 1
  outer loop
    vertex 23186.892578125 15309.9306640625 6319.11865234375
    vertex 23123.75 14040.1279296875 6319.11865234375
    vertex 24788.16015625 14040.1279296875 6319.11865234375
  endloop
endfacet
facet normal 5.034247758245458e-13 -3.548367979652745e-12 1
  outer loop
    vertex 23186.892578125 15309.9306640625 6319.11865234375
    vertex 24788.16015625 14040.1279296875 6319.11865234375
    vertex 23186.89453125 15569.984375 6319.11865234375
  endloop
endfacet
facet normal 5.034247758245458e-13 -3.548367979652745e-12 1
  outer loop
    vertex 23186.89453125 15569.984375 6319.11865234375
    vertex 24788.16015625 14040.1279296875 6319.11865234375
    vertex 23880.671875 17191.083984375 6319.11865234375
  endloop
endfacet
facet normal 5.034247758245458e-13 -3.548367979652745e-12 1
  outer loop
    vertex 23880.671875 17191.083984375 6319.11865234375
    vertex 24788.16015625 14040.1279296875 6319.11865234375
    vertex 24788.16015625 17191.083984375 6319.11865234375
  endloop
endfacet
facet normal 5.034247758245458e-13 -3.548367979652745e-12 1
  outer loop
    vertex 23186.89453125 15569.984375 6319.11865234375
    vertex 23123.75 17191.083984375 6319.11865234375
    vertex 23123.75 15569.984375 6319.11865234375
  endloop
endfacet
facet normal 5.034247758245458e-13 -3.548367979652745e-12 1
  outer loop
    vertex 23123.75 17191.083984375 6319.11865234375
    vertex 23186.89453125 15569.984375 6319.11865234375
    vertex 23880.671875 17191.083984375 6319.11865234375
  endloop
endfacet
facet normal 0 -1 -5.702258543821559e-12
  outer loop
    vertex 24788.16015625 14040.1279296875 6319.11865234375
    vertex 23123.75 14040.1279296875 6131.50244140625
    vertex 24788.16015625 14040.1279296875 6131.50244140625
  endloop
endfacet
facet normal 0 -1 -5.702258543821559e-12
  outer loop
    vertex 23123.75 14040.1279296875 6131.50244140625
    vertex 24788.16015625 14040.1279296875 6319.11865234375
    vertex 23123.75 14040.1279296875 6319.11865234375
  endloop
endfacet
facet normal -1 7.726591813419695e-25 2.032940656093718e-12
  outer loop
    vertex 23123.748046875 15309.9267578125 6319.11865234375
    vertex 23123.75 14040.1279296875 6131.50244140625
    vertex 23123.75 14040.1279296875 6319.11865234375
  endloop
endfacet
facet normal -1 7.726591813419695e-25 2.032940656093718e-12
  outer loop
    vertex 23123.75 14040.1279296875 6131.50244140625
    vertex 23123.748046875 15309.9267578125 6319.11865234375
    vertex 23123.748046875 15309.9267578125 6131.50244140625
  endloop
endfacet
facet normal -2.330918505322188e-05 1 5.702306248717148e-12
  outer loop
    vertex 23123.748046875 15309.9267578125 6319.11865234375
    vertex 23186.892578125 15309.9306640625 6131.50244140625
    vertex 23123.748046875 15309.9267578125 6131.50244140625
  endloop
endfacet
facet normal -2.330918505322188e-05 1 5.702306248717148e-12
  outer loop
    vertex 23186.892578125 15309.9306640625 6131.50244140625
    vertex 23123.748046875 15309.9267578125 6319.11865234375
    vertex 23186.892578125 15309.9306640625 6319.11865234375
  endloop
endfacet
facet normal -1 2.513080517019262e-06 2.032954967562395e-12
  outer loop
    vertex 23186.89453125 15569.984375 6319.11865234375
    vertex 23186.892578125 15309.9306640625 6131.50244140625
    vertex 23186.892578125 15309.9306640625 6319.11865234375
  endloop
endfacet
facet normal -1 2.513080517019262e-06 2.032954967562395e-12
  outer loop
    vertex 23186.892578125 15309.9306640625 6131.50244140625
    vertex 23186.89453125 15569.984375 6319.11865234375
    vertex 23186.89453125 15569.984375 6131.50244140625
  endloop
endfacet
facet normal -1.41778571105533e-06 -1 -5.702255941736345e-12
  outer loop
    vertex 23186.89453125 15569.984375 6319.11865234375
    vertex 23123.75 15569.984375 6131.50244140625
    vertex 23186.89453125 15569.984375 6131.50244140625
  endloop
endfacet
facet normal -1.41778571105533e-06 -1 -5.702255941736345e-12
  outer loop
    vertex 23123.75 15569.984375 6131.50244140625
    vertex 23186.89453125 15569.984375 6319.11865234375
    vertex 23123.75 15569.984375 6319.11865234375
  endloop
endfacet
facet normal -1 -2.673679324089609e-23 2.032940656093718e-12
  outer loop
    vertex 23123.75 17191.083984375 6319.11865234375
    vertex 23123.75 15569.984375 6131.50244140625
    vertex 23123.75 15569.984375 6319.11865234375
  endloop
endfacet
facet normal -1 -2.673679324089609e-23 2.032940656093718e-12
  outer loop
    vertex 23123.75 15569.984375 6131.50244140625
    vertex 23123.75 17191.083984375 6319.11865234375
    vertex 23123.75 17191.083984375 6131.50244140625
  endloop
endfacet
facet normal 1.435803761440501e-24 1 5.702258543821559e-12
  outer loop
    vertex 23123.75 17191.083984375 6131.50244140625
    vertex 23880.671875 17191.083984375 6319.11865234375
    vertex 23880.671875 17191.083984375 6131.50244140625
  endloop
endfacet
facet normal 1.435803761440501e-24 1 5.702258543821559e-12
  outer loop
    vertex 23880.671875 17191.083984375 6319.11865234375
    vertex 23123.75 17191.083984375 6131.50244140625
    vertex 23123.75 17191.083984375 6319.11865234375
  endloop
endfacet
facet normal 1.821620789323533e-13 1 5.702258543821559e-12
  outer loop
    vertex 23880.671875 17191.083984375 6131.50244140625
    vertex 24788.16015625 17191.083984375 6319.11865234375
    vertex 24788.16015625 17191.083984375 6131.50244140625
  endloop
endfacet
facet normal 1.821620789323533e-13 1 5.702258543821559e-12
  outer loop
    vertex 24788.16015625 17191.083984375 6319.11865234375
    vertex 23880.671875 17191.083984375 6131.50244140625
    vertex 23880.671875 17191.083984375 6319.11865234375
  endloop
endfacet
facet normal 1 -1.778188734495936e-13 -2.032940656093718e-12
  outer loop
    vertex 24788.16015625 14040.1279296875 6131.50244140625
    vertex 24788.16015625 17191.083984375 6319.11865234375
    vertex 24788.16015625 14040.1279296875 6319.11865234375
  endloop
endfacet
facet normal 1 -1.778188734495936e-13 -2.032940656093718e-12
  outer loop
    vertex 24788.16015625 17191.083984375 6319.11865234375
    vertex 24788.16015625 14040.1279296875 6131.50244140625
    vertex 24788.16015625 17191.083984375 6131.50244140625
  endloop
endfacet
facet normal -6.988275441587863e-42 -2.988248212244804e-13 -1
  outer loop
    vertex 21105.0859375 17191.083984375 7769.3427734375
    vertex 20852.75390625 15921.142578125 7769.3427734375
    vertex 20852.75390625 17191.083984375 7769.3427734375
  endloop
endfacet
facet normal -6.988275441587863e-42 -2.988248212244804e-13 -1
  outer loop
    vertex 20852.75390625 15921.142578125 7769.3427734375
    vertex 21105.0859375 17191.083984375 7769.3427734375
    vertex 21105.0859375 15921.142578125 7769.3427734375
  endloop
endfacet
facet normal 6.988275441587863e-42 2.988248212244804e-13 1
  outer loop
    vertex 21105.0859375 15921.142578125 7950.62109375
    vertex 20852.75390625 17191.083984375 7950.62109375
    vertex 20852.75390625 15921.142578125 7950.62109375
  endloop
endfacet
facet normal 6.988275441587863e-42 2.988248212244804e-13 1
  outer loop
    vertex 20852.75390625 17191.083984375 7950.62109375
    vertex 21105.0859375 15921.142578125 7950.62109375
    vertex 21105.0859375 17191.083984375 7950.62109375
  endloop
endfacet
facet normal 1 -0 -1.587531030233585e-41
  outer loop
    vertex 21105.0859375 17191.083984375 7769.3427734375
    vertex 21105.0859375 15921.142578125 7950.62109375
    vertex 21105.0859375 15921.142578125 7769.3427734375
  endloop
endfacet
facet normal 1 -0 -1.587531030233585e-41
  outer loop
    vertex 21105.0859375 15921.142578125 7950.62109375
    vertex 21105.0859375 17191.083984375 7769.3427734375
    vertex 21105.0859375 17191.083984375 7950.62109375
  endloop
endfacet
facet normal 0 -1 4.802141215058675e-13
  outer loop
    vertex 21105.0859375 15921.142578125 7950.62109375
    vertex 20852.75390625 15921.142578125 7769.3427734375
    vertex 21105.0859375 15921.142578125 7769.3427734375
  endloop
endfacet
facet normal 0 -1 4.802141215058675e-13
  outer loop
    vertex 20852.75390625 15921.142578125 7769.3427734375
    vertex 21105.0859375 15921.142578125 7950.62109375
    vertex 20852.75390625 15921.142578125 7950.62109375
  endloop
endfacet
facet normal -1 0 1.587531030233585e-41
  outer loop
    vertex 20852.75390625 15921.142578125 7950.62109375
    vertex 20852.75390625 17191.083984375 7769.3427734375
    vertex 20852.75390625 15921.142578125 7769.3427734375
  endloop
endfacet
facet normal -1 0 1.587531030233585e-41
  outer loop
    vertex 20852.75390625 17191.083984375 7769.3427734375
    vertex 20852.75390625 15921.142578125 7950.62109375
    vertex 20852.75390625 17191.083984375 7950.62109375
  endloop
endfacet
facet normal 0 1 -4.802141215058675e-13
  outer loop
    vertex 20852.75390625 17191.083984375 7950.62109375
    vertex 21105.0859375 17191.083984375 7769.3427734375
    vertex 20852.75390625 17191.083984375 7769.3427734375
  endloop
endfacet
facet normal 0 1 -4.802141215058675e-13
  outer loop
    vertex 21105.0859375 17191.083984375 7769.3427734375
    vertex 20852.75390625 17191.083984375 7950.62109375
    vertex 21105.0859375 17191.083984375 7950.62109375
  endloop
endfacet
facet normal -6.988275441587863e-42 -2.988248212244804e-13 -1
  outer loop
    vertex 22114.41796875 17191.083984375 7044.23095703125
    vertex 21862.0859375 15921.142578125 7044.23095703125
    vertex 21862.0859375 17191.083984375 7044.23095703125
  endloop
endfacet
facet normal -6.988275441587863e-42 -2.988248212244804e-13 -1
  outer loop
    vertex 21862.0859375 15921.142578125 7044.23095703125
    vertex 22114.41796875 17191.083984375 7044.23095703125
    vertex 22114.41796875 15921.142578125 7044.23095703125
  endloop
endfacet
facet normal 6.988275441587863e-42 2.988248212244804e-13 1
  outer loop
    vertex 22114.41796875 15921.142578125 7225.5087890625
    vertex 21862.0859375 17191.083984375 7225.5087890625
    vertex 21862.0859375 15921.142578125 7225.5087890625
  endloop
endfacet
facet normal 6.988275441587863e-42 2.988248212244804e-13 1
  outer loop
    vertex 21862.0859375 17191.083984375 7225.5087890625
    vertex 22114.41796875 15921.142578125 7225.5087890625
    vertex 22114.41796875 17191.083984375 7225.5087890625
  endloop
endfacet
facet normal 1 -0 -1.587531030233585e-41
  outer loop
    vertex 22114.41796875 17191.083984375 7044.23095703125
    vertex 22114.41796875 15921.142578125 7225.5087890625
    vertex 22114.41796875 15921.142578125 7044.23095703125
  endloop
endfacet
facet normal 1 -0 -1.587531030233585e-41
  outer loop
    vertex 22114.41796875 15921.142578125 7225.5087890625
    vertex 22114.41796875 17191.083984375 7044.23095703125
    vertex 22114.41796875 17191.083984375 7225.5087890625
  endloop
endfacet
facet normal 0 -1 4.802141215058675e-13
  outer loop
    vertex 22114.41796875 15921.142578125 7225.5087890625
    vertex 21862.0859375 15921.142578125 7044.23095703125
    vertex 22114.41796875 15921.142578125 7044.23095703125
  endloop
endfacet
facet normal 0 -1 4.802141215058675e-13
  outer loop
    vertex 21862.0859375 15921.142578125 7044.23095703125
    vertex 22114.41796875 15921.142578125 7225.5087890625
    vertex 21862.0859375 15921.142578125 7225.5087890625
  endloop
endfacet
facet normal -1 0 1.587531030233585e-41
  outer loop
    vertex 21862.0859375 15921.142578125 7225.5087890625
    vertex 21862.0859375 17191.083984375 7044.23095703125
    vertex 21862.0859375 15921.142578125 7044.23095703125
  endloop
endfacet
facet normal -1 0 1.587531030233585e-41
  outer loop
    vertex 21862.0859375 17191.083984375 7044.23095703125
    vertex 21862.0859375 15921.142578125 7225.5087890625
    vertex 21862.0859375 17191.083984375 7225.5087890625
  endloop
endfacet
facet normal 0 1 -4.802141215058675e-13
  outer loop
    vertex 21862.0859375 17191.083984375 7225.5087890625
    vertex 22114.41796875 17191.083984375 7044.23095703125
    vertex 21862.0859375 17191.083984375 7044.23095703125
  endloop
endfacet
facet normal 0 1 -4.802141215058675e-13
  outer loop
    vertex 22114.41796875 17191.083984375 7044.23095703125
    vertex 21862.0859375 17191.083984375 7225.5087890625
    vertex 22114.41796875 17191.083984375 7225.5087890625
  endloop
endfacet
facet normal -6.988275441587863e-42 -2.988248212244804e-13 -1
  outer loop
    vertex 21609.751953125 17191.083984375 7406.78662109375
    vertex 21357.419921875 15921.142578125 7406.78662109375
    vertex 21357.419921875 17191.083984375 7406.78662109375
  endloop
endfacet
facet normal -6.988275441587863e-42 -2.988248212244804e-13 -1
  outer loop
    vertex 21357.419921875 15921.142578125 7406.78662109375
    vertex 21609.751953125 17191.083984375 7406.78662109375
    vertex 21609.751953125 15921.142578125 7406.78662109375
  endloop
endfacet
facet normal 6.988275441587863e-42 2.988248212244804e-13 1
  outer loop
    vertex 21609.751953125 15921.142578125 7588.06494140625
    vertex 21357.419921875 17191.083984375 7588.06494140625
    vertex 21357.419921875 15921.142578125 7588.06494140625
  endloop
endfacet
facet normal 6.988275441587863e-42 2.988248212244804e-13 1
  outer loop
    vertex 21357.419921875 17191.083984375 7588.06494140625
    vertex 21609.751953125 15921.142578125 7588.06494140625
    vertex 21609.751953125 17191.083984375 7588.06494140625
  endloop
endfacet
facet normal 1 -0 -1.587531030233585e-41
  outer loop
    vertex 21609.751953125 17191.083984375 7406.78662109375
    vertex 21609.751953125 15921.142578125 7588.06494140625
    vertex 21609.751953125 15921.142578125 7406.78662109375
  endloop
endfacet
facet normal 1 -0 -1.587531030233585e-41
  outer loop
    vertex 21609.751953125 15921.142578125 7588.06494140625
    vertex 21609.751953125 17191.083984375 7406.78662109375
    vertex 21609.751953125 17191.083984375 7588.06494140625
  endloop
endfacet
facet normal 0 -1 4.802141215058675e-13
  outer loop
    vertex 21609.751953125 15921.142578125 7588.06494140625
    vertex 21357.419921875 15921.142578125 7406.78662109375
    vertex 21609.751953125 15921.142578125 7406.78662109375
  endloop
endfacet
facet normal 0 -1 4.802141215058675e-13
  outer loop
    vertex 21357.419921875 15921.142578125 7406.78662109375
    vertex 21609.751953125 15921.142578125 7588.06494140625
    vertex 21357.419921875 15921.142578125 7588.06494140625
  endloop
endfacet
facet normal -1 0 1.587531030233585e-41
  outer loop
    vertex 21357.419921875 15921.142578125 7588.06494140625
    vertex 21357.419921875 17191.083984375 7406.78662109375
    vertex 21357.419921875 15921.142578125 7406.78662109375
  endloop
endfacet
facet normal -1 0 1.587531030233585e-41
  outer loop
    vertex 21357.419921875 17191.083984375 7406.78662109375
    vertex 21357.419921875 15921.142578125 7588.06494140625
    vertex 21357.419921875 17191.083984375 7588.06494140625
  endloop
endfacet
facet normal 0 1 -4.802141215058675e-13
  outer loop
    vertex 21357.419921875 17191.083984375 7588.06494140625
    vertex 21609.751953125 17191.083984375 7406.78662109375
    vertex 21357.419921875 17191.083984375 7406.78662109375
  endloop
endfacet
facet normal 0 1 -4.802141215058675e-13
  outer loop
    vertex 21609.751953125 17191.083984375 7406.78662109375
    vertex 21357.419921875 17191.083984375 7588.06494140625
    vertex 21609.751953125 17191.083984375 7588.06494140625
  endloop
endfacet
facet normal -6.988275441587863e-42 -2.988248212244804e-13 -1
  outer loop
    vertex 21357.419921875 17191.083984375 7588.06494140625
    vertex 21105.0859375 15921.142578125 7588.06494140625
    vertex 21105.0859375 17191.083984375 7588.06494140625
  endloop
endfacet
facet normal -6.988275441587863e-42 -2.988248212244804e-13 -1
  outer loop
    vertex 21105.0859375 15921.142578125 7588.06494140625
    vertex 21357.419921875 17191.083984375 7588.06494140625
    vertex 21357.419921875 15921.142578125 7588.06494140625
  endloop
endfacet
facet normal 6.988275441587863e-42 2.988248212244804e-13 1
  outer loop
    vertex 21357.419921875 15921.142578125 7769.3427734375
    vertex 21105.0859375 17191.083984375 7769.3427734375
    vertex 21105.0859375 15921.142578125 7769.3427734375
  endloop
endfacet
facet normal 6.988275441587863e-42 2.988248212244804e-13 1
  outer loop
    vertex 21105.0859375 17191.083984375 7769.3427734375
    vertex 21357.419921875 15921.142578125 7769.3427734375
    vertex 21357.419921875 17191.083984375 7769.3427734375
  endloop
endfacet
facet normal 1 -0 -1.587531030233585e-41
  outer loop
    vertex 21357.419921875 17191.083984375 7588.06494140625
    vertex 21357.419921875 15921.142578125 7769.3427734375
    vertex 21357.419921875 15921.142578125 7588.06494140625
  endloop
endfacet
facet normal 1 -0 -1.587531030233585e-41
  outer loop
    vertex 21357.419921875 15921.142578125 7769.3427734375
    vertex 21357.419921875 17191.083984375 7588.06494140625
    vertex 21357.419921875 17191.083984375 7769.3427734375
  endloop
endfacet
facet normal 0 -1 4.802141215058675e-13
  outer loop
    vertex 21357.419921875 15921.142578125 7769.3427734375
    vertex 21105.0859375 15921.142578125 7588.06494140625
    vertex 21357.419921875 15921.142578125 7588.06494140625
  endloop
endfacet
facet normal 0 -1 4.802141215058675e-13
  outer loop
    vertex 21105.0859375 15921.142578125 7588.06494140625
    vertex 21357.419921875 15921.142578125 7769.3427734375
    vertex 21105.0859375 15921.142578125 7769.3427734375
  endloop
endfacet
facet normal -1 0 1.587531030233585e-41
  outer loop
    vertex 21105.0859375 15921.142578125 7769.3427734375
    vertex 21105.0859375 17191.083984375 7588.06494140625
    vertex 21105.0859375 15921.142578125 7588.06494140625
  endloop
endfacet
facet normal -1 0 1.587531030233585e-41
  outer loop
    vertex 21105.0859375 17191.083984375 7588.06494140625
    vertex 21105.0859375 15921.142578125 7769.3427734375
    vertex 21105.0859375 17191.083984375 7769.3427734375
  endloop
endfacet
facet normal 0 1 -4.802141215058675e-13
  outer loop
    vertex 21105.0859375 17191.083984375 7769.3427734375
    vertex 21357.419921875 17191.083984375 7588.06494140625
    vertex 21105.0859375 17191.083984375 7588.06494140625
  endloop
endfacet
facet normal 0 1 -4.802141215058675e-13
  outer loop
    vertex 21357.419921875 17191.083984375 7588.06494140625
    vertex 21105.0859375 17191.083984375 7769.3427734375
    vertex 21357.419921875 17191.083984375 7769.3427734375
  endloop
endfacet
facet normal -6.988275441587863e-42 -2.988248212244804e-13 -1
  outer loop
    vertex 22366.75 17191.083984375 6862.95263671875
    vertex 22114.41796875 15921.142578125 6862.95263671875
    vertex 22114.41796875 17191.083984375 6862.95263671875
  endloop
endfacet
facet normal -6.988275441587863e-42 -2.988248212244804e-13 -1
  outer loop
    vertex 22114.41796875 15921.142578125 6862.95263671875
    vertex 22366.75 17191.083984375 6862.95263671875
    vertex 22366.75 15921.142578125 6862.95263671875
  endloop
endfacet
facet normal 6.988275441587863e-42 2.988248212244804e-13 1
  outer loop
    vertex 22366.75 15921.142578125 7044.23095703125
    vertex 22114.41796875 17191.083984375 7044.23095703125
    vertex 22114.41796875 15921.142578125 7044.23095703125
  endloop
endfacet
facet normal 6.988275441587863e-42 2.988248212244804e-13 1
  outer loop
    vertex 22114.41796875 17191.083984375 7044.23095703125
    vertex 22366.75 15921.142578125 7044.23095703125
    vertex 22366.75 17191.083984375 7044.23095703125
  endloop
endfacet
facet normal 1 -0 -1.587531030233585e-41
  outer loop
    vertex 22366.75 17191.083984375 6862.95263671875
    vertex 22366.75 15921.142578125 7044.23095703125
    vertex 22366.75 15921.142578125 6862.95263671875
  endloop
endfacet
facet normal 1 -0 -1.587531030233585e-41
  outer loop
    vertex 22366.75 15921.142578125 7044.23095703125
    vertex 22366.75 17191.083984375 6862.95263671875
    vertex 22366.75 17191.083984375 7044.23095703125
  endloop
endfacet
facet normal 0 -1 4.802141215058675e-13
  outer loop
    vertex 22366.75 15921.142578125 7044.23095703125
    vertex 22114.41796875 15921.142578125 6862.95263671875
    vertex 22366.75 15921.142578125 6862.95263671875
  endloop
endfacet
facet normal 0 -1 4.802141215058675e-13
  outer loop
    vertex 22114.41796875 15921.142578125 6862.95263671875
    vertex 22366.75 15921.142578125 7044.23095703125
    vertex 22114.41796875 15921.142578125 7044.23095703125
  endloop
endfacet
facet normal -1 0 1.587531030233585e-41
  outer loop
    vertex 22114.41796875 15921.142578125 7044.23095703125
    vertex 22114.41796875 17191.083984375 6862.95263671875
    vertex 22114.41796875 15921.142578125 6862.95263671875
  endloop
endfacet
facet normal -1 0 1.587531030233585e-41
  outer loop
    vertex 22114.41796875 17191.083984375 6862.95263671875
    vertex 22114.41796875 15921.142578125 7044.23095703125
    vertex 22114.41796875 17191.083984375 7044.23095703125
  endloop
endfacet
facet normal 0 1 -4.802141215058675e-13
  outer loop
    vertex 22114.41796875 17191.083984375 7044.23095703125
    vertex 22366.75 17191.083984375 6862.95263671875
    vertex 22114.41796875 17191.083984375 6862.95263671875
  endloop
endfacet
facet normal 0 1 -4.802141215058675e-13
  outer loop
    vertex 22366.75 17191.083984375 6862.95263671875
    vertex 22114.41796875 17191.083984375 7044.23095703125
    vertex 22366.75 17191.083984375 7044.23095703125
  endloop
endfacet
facet normal -6.988275441587863e-42 -2.988248212244804e-13 -1
  outer loop
    vertex 20852.75390625 17191.083984375 7950.62109375
    vertex 20600.419921875 15921.142578125 7950.62109375
    vertex 20600.419921875 17191.083984375 7950.62109375
  endloop
endfacet
facet normal -6.988275441587863e-42 -2.988248212244804e-13 -1
  outer loop
    vertex 20600.419921875 15921.142578125 7950.62109375
    vertex 20852.75390625 17191.083984375 7950.62109375
    vertex 20852.75390625 15921.142578125 7950.62109375
  endloop
endfacet
facet normal 6.988275441587863e-42 2.988248212244804e-13 1
  outer loop
    vertex 20852.75390625 15921.142578125 8131.89892578125
    vertex 20600.419921875 17191.083984375 8131.89892578125
    vertex 20600.419921875 15921.142578125 8131.89892578125
  endloop
endfacet
facet normal 6.988275441587863e-42 2.988248212244804e-13 1
  outer loop
    vertex 20600.419921875 17191.083984375 8131.89892578125
    vertex 20852.75390625 15921.142578125 8131.89892578125
    vertex 20852.75390625 17191.083984375 8131.89892578125
  endloop
endfacet
facet normal 1 -0 -1.587531030233585e-41
  outer loop
    vertex 20852.75390625 17191.083984375 7950.62109375
    vertex 20852.75390625 15921.142578125 8131.89892578125
    vertex 20852.75390625 15921.142578125 7950.62109375
  endloop
endfacet
facet normal 1 -0 -1.587531030233585e-41
  outer loop
    vertex 20852.75390625 15921.142578125 8131.89892578125
    vertex 20852.75390625 17191.083984375 7950.62109375
    vertex 20852.75390625 17191.083984375 8131.89892578125
  endloop
endfacet
facet normal 0 -1 4.802141215058675e-13
  outer loop
    vertex 20852.75390625 15921.142578125 8131.89892578125
    vertex 20600.419921875 15921.142578125 7950.62109375
    vertex 20852.75390625 15921.142578125 7950.62109375
  endloop
endfacet
facet normal 0 -1 4.802141215058675e-13
  outer loop
    vertex 20600.419921875 15921.142578125 7950.62109375
    vertex 20852.75390625 15921.142578125 8131.89892578125
    vertex 20600.419921875 15921.142578125 8131.89892578125
  endloop
endfacet
facet normal -1 0 1.587531030233585e-41
  outer loop
    vertex 20600.419921875 15921.142578125 8131.89892578125
    vertex 20600.419921875 17191.083984375 7950.62109375
    vertex 20600.419921875 15921.142578125 7950.62109375
  endloop
endfacet
facet normal -1 0 1.587531030233585e-41
  outer loop
    vertex 20600.419921875 17191.083984375 7950.62109375
    vertex 20600.419921875 15921.142578125 8131.89892578125
    vertex 20600.419921875 17191.083984375 8131.89892578125
  endloop
endfacet
facet normal 0 1 -4.802141215058675e-13
  outer loop
    vertex 20600.419921875 17191.083984375 8131.89892578125
    vertex 20852.75390625 17191.083984375 7950.62109375
    vertex 20600.419921875 17191.083984375 7950.62109375
  endloop
endfacet
facet normal 0 1 -4.802141215058675e-13
  outer loop
    vertex 20852.75390625 17191.083984375 7950.62109375
    vertex 20600.419921875 17191.083984375 8131.89892578125
    vertex 20852.75390625 17191.083984375 8131.89892578125
  endloop
endfacet
facet normal -6.988275441587863e-42 -2.988248212244804e-13 -1
  outer loop
    vertex 21862.0859375 17191.083984375 7225.5087890625
    vertex 21609.751953125 15921.142578125 7225.5087890625
    vertex 21609.751953125 17191.083984375 7225.5087890625
  endloop
endfacet
facet normal -6.988275441587863e-42 -2.988248212244804e-13 -1
  outer loop
    vertex 21609.751953125 15921.142578125 7225.5087890625
    vertex 21862.0859375 17191.083984375 7225.5087890625
    vertex 21862.0859375 15921.142578125 7225.5087890625
  endloop
endfacet
facet normal 6.988275441587863e-42 2.988248212244804e-13 1
  outer loop
    vertex 21862.0859375 15921.142578125 7406.78662109375
    vertex 21609.751953125 17191.083984375 7406.78662109375
    vertex 21609.751953125 15921.142578125 7406.78662109375
  endloop
endfacet
facet normal 6.988275441587863e-42 2.988248212244804e-13 1
  outer loop
    vertex 21609.751953125 17191.083984375 7406.78662109375
    vertex 21862.0859375 15921.142578125 7406.78662109375
    vertex 21862.0859375 17191.083984375 7406.78662109375
  endloop
endfacet
facet normal 1 -0 -1.587531030233585e-41
  outer loop
    vertex 21862.0859375 17191.083984375 7225.5087890625
    vertex 21862.0859375 15921.142578125 7406.78662109375
    vertex 21862.0859375 15921.142578125 7225.5087890625
  endloop
endfacet
facet normal 1 -0 -1.587531030233585e-41
  outer loop
    vertex 21862.0859375 15921.142578125 7406.78662109375
    vertex 21862.0859375 17191.083984375 7225.5087890625
    vertex 21862.0859375 17191.083984375 7406.78662109375
  endloop
endfacet
facet normal 0 -1 4.802141215058675e-13
  outer loop
    vertex 21862.0859375 15921.142578125 7406.78662109375
    vertex 21609.751953125 15921.142578125 7225.5087890625
    vertex 21862.0859375 15921.142578125 7225.5087890625
  endloop
endfacet
facet normal 0 -1 4.802141215058675e-13
  outer loop
    vertex 21609.751953125 15921.142578125 7225.5087890625
    vertex 21862.0859375 15921.142578125 7406.78662109375
    vertex 21609.751953125 15921.142578125 7406.78662109375
  endloop
endfacet
facet normal -1 0 1.587531030233585e-41
  outer loop
    vertex 21609.751953125 15921.142578125 7406.78662109375
    vertex 21609.751953125 17191.083984375 7225.5087890625
    vertex 21609.751953125 15921.142578125 7225.5087890625
  endloop
endfacet
facet normal -1 0 1.587531030233585e-41
  outer loop
    vertex 21609.751953125 17191.083984375 7225.5087890625
    vertex 21609.751953125 15921.142578125 7406.78662109375
    vertex 21609.751953125 17191.083984375 7406.78662109375
  endloop
endfacet
facet normal 0 1 -4.802141215058675e-13
  outer loop
    vertex 21609.751953125 17191.083984375 7406.78662109375
    vertex 21862.0859375 17191.083984375 7225.5087890625
    vertex 21609.751953125 17191.083984375 7225.5087890625
  endloop
endfacet
facet normal 0 1 -4.802141215058675e-13
  outer loop
    vertex 21862.0859375 17191.083984375 7225.5087890625
    vertex 21609.751953125 17191.083984375 7406.78662109375
    vertex 21862.0859375 17191.083984375 7406.78662109375
  endloop
endfacet
facet normal -6.988275441587863e-42 -2.988248212244804e-13 -1
  outer loop
    vertex 23123.75 17191.083984375 6319.11865234375
    vertex 22871.416015625 15921.142578125 6319.11865234375
    vertex 22871.416015625 17191.083984375 6319.11865234375
  endloop
endfacet
facet normal -6.988275441587863e-42 -2.988248212244804e-13 -1
  outer loop
    vertex 22871.416015625 15921.142578125 6319.11865234375
    vertex 23123.75 17191.083984375 6319.11865234375
    vertex 23123.75 15921.142578125 6319.11865234375
  endloop
endfacet
facet normal 6.988275441587863e-42 2.988248212244804e-13 1
  outer loop
    vertex 23123.75 15921.142578125 6500.396484375
    vertex 22871.416015625 17191.083984375 6500.396484375
    vertex 22871.416015625 15921.142578125 6500.396484375
  endloop
endfacet
facet normal 6.988275441587863e-42 2.988248212244804e-13 1
  outer loop
    vertex 22871.416015625 17191.083984375 6500.396484375
    vertex 23123.75 15921.142578125 6500.396484375
    vertex 23123.75 17191.083984375 6500.396484375
  endloop
endfacet
facet normal 1 -0 -1.587531030233585e-41
  outer loop
    vertex 23123.75 17191.083984375 6319.11865234375
    vertex 23123.75 15921.142578125 6500.396484375
    vertex 23123.75 15921.142578125 6319.11865234375
  endloop
endfacet
facet normal 1 -0 -1.587531030233585e-41
  outer loop
    vertex 23123.75 15921.142578125 6500.396484375
    vertex 23123.75 17191.083984375 6319.11865234375
    vertex 23123.75 17191.083984375 6500.396484375
  endloop
endfacet
facet normal 0 -1 4.802141215058675e-13
  outer loop
    vertex 23123.75 15921.142578125 6500.396484375
    vertex 22871.416015625 15921.142578125 6319.11865234375
    vertex 23123.75 15921.142578125 6319.11865234375
  endloop
endfacet
facet normal 0 -1 4.802141215058675e-13
  outer loop
    vertex 22871.416015625 15921.142578125 6319.11865234375
    vertex 23123.75 15921.142578125 6500.396484375
    vertex 22871.416015625 15921.142578125 6500.396484375
  endloop
endfacet
facet normal -1 0 1.587531030233585e-41
  outer loop
    vertex 22871.416015625 15921.142578125 6500.396484375
    vertex 22871.416015625 17191.083984375 6319.11865234375
    vertex 22871.416015625 15921.142578125 6319.11865234375
  endloop
endfacet
facet normal -1 0 1.587531030233585e-41
  outer loop
    vertex 22871.416015625 17191.083984375 6319.11865234375
    vertex 22871.416015625 15921.142578125 6500.396484375
    vertex 22871.416015625 17191.083984375 6500.396484375
  endloop
endfacet
facet normal 0 1 -4.802141215058675e-13
  outer loop
    vertex 22871.416015625 17191.083984375 6500.396484375
    vertex 23123.75 17191.083984375 6319.11865234375
    vertex 22871.416015625 17191.083984375 6319.11865234375
  endloop
endfacet
facet normal 0 1 -4.802141215058675e-13
  outer loop
    vertex 23123.75 17191.083984375 6319.11865234375
    vertex 22871.416015625 17191.083984375 6500.396484375
    vertex 23123.75 17191.083984375 6500.396484375
  endloop
endfacet
facet normal -6.988275441587863e-42 -2.988248212244804e-13 -1
  outer loop
    vertex 22871.416015625 17191.083984375 6500.396484375
    vertex 22619.083984375 15921.142578125 6500.396484375
    vertex 22619.083984375 17191.083984375 6500.396484375
  endloop
endfacet
facet normal -6.988275441587863e-42 -2.988248212244804e-13 -1
  outer loop
    vertex 22619.083984375 15921.142578125 6500.396484375
    vertex 22871.416015625 17191.083984375 6500.396484375
    vertex 22871.416015625 15921.142578125 6500.396484375
  endloop
endfacet
facet normal 6.988275441587863e-42 2.988248212244804e-13 1
  outer loop
    vertex 22871.416015625 15921.142578125 6681.6748046875
    vertex 22619.083984375 17191.083984375 6681.6748046875
    vertex 22619.083984375 15921.142578125 6681.6748046875
  endloop
endfacet
facet normal 6.988275441587863e-42 2.988248212244804e-13 1
  outer loop
    vertex 22619.083984375 17191.083984375 6681.6748046875
    vertex 22871.416015625 15921.142578125 6681.6748046875
    vertex 22871.416015625 17191.083984375 6681.6748046875
  endloop
endfacet
facet normal 1 -0 -1.587531030233585e-41
  outer loop
    vertex 22871.416015625 17191.083984375 6500.396484375
    vertex 22871.416015625 15921.142578125 6681.6748046875
    vertex 22871.416015625 15921.142578125 6500.396484375
  endloop
endfacet
facet normal 1 -0 -1.587531030233585e-41
  outer loop
    vertex 22871.416015625 15921.142578125 6681.6748046875
    vertex 22871.416015625 17191.083984375 6500.396484375
    vertex 22871.416015625 17191.083984375 6681.6748046875
  endloop
endfacet
facet normal 0 -1 4.802141215058675e-13
  outer loop
    vertex 22871.416015625 15921.142578125 6681.6748046875
    vertex 22619.083984375 15921.142578125 6500.396484375
    vertex 22871.416015625 15921.142578125 6500.396484375
  endloop
endfacet
facet normal 0 -1 4.802141215058675e-13
  outer loop
    vertex 22619.083984375 15921.142578125 6500.396484375
    vertex 22871.416015625 15921.142578125 6681.6748046875
    vertex 22619.083984375 15921.142578125 6681.6748046875
  endloop
endfacet
facet normal -1 0 1.587531030233585e-41
  outer loop
    vertex 22619.083984375 15921.142578125 6681.6748046875
    vertex 22619.083984375 17191.083984375 6500.396484375
    vertex 22619.083984375 15921.142578125 6500.396484375
  endloop
endfacet
facet normal -1 0 1.587531030233585e-41
  outer loop
    vertex 22619.083984375 17191.083984375 6500.396484375
    vertex 22619.083984375 15921.142578125 6681.6748046875
    vertex 22619.083984375 17191.083984375 6681.6748046875
  endloop
endfacet
facet normal 0 1 -4.802141215058675e-13
  outer loop
    vertex 22619.083984375 17191.083984375 6681.6748046875
    vertex 22871.416015625 17191.083984375 6500.396484375
    vertex 22619.083984375 17191.083984375 6500.396484375
  endloop
endfacet
facet normal 0 1 -4.802141215058675e-13
  outer loop
    vertex 22871.416015625 17191.083984375 6500.396484375
    vertex 22619.083984375 17191.083984375 6681.6748046875
    vertex 22871.416015625 17191.083984375 6681.6748046875
  endloop
endfacet
facet normal -6.988275441587863e-42 -2.988248212244804e-13 -1
  outer loop
    vertex 22619.083984375 17191.083984375 6681.6748046875
    vertex 22366.75 15921.142578125 6681.6748046875
    vertex 22366.75 17191.083984375 6681.6748046875
  endloop
endfacet
facet normal -6.988275441587863e-42 -2.988248212244804e-13 -1
  outer loop
    vertex 22366.75 15921.142578125 6681.6748046875
    vertex 22619.083984375 17191.083984375 6681.6748046875
    vertex 22619.083984375 15921.142578125 6681.6748046875
  endloop
endfacet
facet normal 6.988275441587863e-42 2.988248212244804e-13 1
  outer loop
    vertex 22619.083984375 15921.142578125 6862.95263671875
    vertex 22366.75 17191.083984375 6862.95263671875
    vertex 22366.75 15921.142578125 6862.95263671875
  endloop
endfacet
facet normal 6.988275441587863e-42 2.988248212244804e-13 1
  outer loop
    vertex 22366.75 17191.083984375 6862.95263671875
    vertex 22619.083984375 15921.142578125 6862.95263671875
    vertex 22619.083984375 17191.083984375 6862.95263671875
  endloop
endfacet
facet normal 1 -0 -1.587531030233585e-41
  outer loop
    vertex 22619.083984375 17191.083984375 6681.6748046875
    vertex 22619.083984375 15921.142578125 6862.95263671875
    vertex 22619.083984375 15921.142578125 6681.6748046875
  endloop
endfacet
facet normal 1 -0 -1.587531030233585e-41
  outer loop
    vertex 22619.083984375 15921.142578125 6862.95263671875
    vertex 22619.083984375 17191.083984375 6681.6748046875
    vertex 22619.083984375 17191.083984375 6862.95263671875
  endloop
endfacet
facet normal 0 -1 4.802141215058675e-13
  outer loop
    vertex 22619.083984375 15921.142578125 6862.95263671875
    vertex 22366.75 15921.142578125 6681.6748046875
    vertex 22619.083984375 15921.142578125 6681.6748046875
  endloop
endfacet
facet normal 0 -1 4.802141215058675e-13
  outer loop
    vertex 22366.75 15921.142578125 6681.6748046875
    vertex 22619.083984375 15921.142578125 6862.95263671875
    vertex 22366.75 15921.142578125 6862.95263671875
  endloop
endfacet
facet normal -1 0 1.587531030233585e-41
  outer loop
    vertex 22366.75 15921.142578125 6862.95263671875
    vertex 22366.75 17191.083984375 6681.6748046875
    vertex 22366.75 15921.142578125 6681.6748046875
  endloop
endfacet
facet normal -1 0 1.587531030233585e-41
  outer loop
    vertex 22366.75 17191.083984375 6681.6748046875
    vertex 22366.75 15921.142578125 6862.95263671875
    vertex 22366.75 17191.083984375 6862.95263671875
  endloop
endfacet
facet normal 0 1 -4.802141215058675e-13
  outer loop
    vertex 22366.75 17191.083984375 6862.95263671875
    vertex 22619.083984375 17191.083984375 6681.6748046875
    vertex 22366.75 17191.083984375 6681.6748046875
  endloop
endfacet
facet normal 0 1 -4.802141215058675e-13
  outer loop
    vertex 22619.083984375 17191.083984375 6681.6748046875
    vertex 22366.75 17191.083984375 6862.95263671875
    vertex 22619.083984375 17191.083984375 6862.95263671875
  endloop
endfacet
facet normal -6.988275441587863e-42 -2.988248212244804e-13 -1
  outer loop
    vertex 21357.41796875 15309.9267578125 4868.89453125
    vertex 21105.083984375 14039.9853515625 4868.89453125
    vertex 21105.083984375 15309.9267578125 4868.89453125
  endloop
endfacet
facet normal -6.988275441587863e-42 -2.988248212244804e-13 -1
  outer loop
    vertex 21105.083984375 14039.9853515625 4868.89453125
    vertex 21357.41796875 15309.9267578125 4868.89453125
    vertex 21357.41796875 14039.9853515625 4868.89453125
  endloop
endfacet
facet normal 1 -0 -1.587531030233585e-41
  outer loop
    vertex 21357.41796875 15309.9267578125 4868.89453125
    vertex 21357.41796875 14039.9853515625 5050.17236328125
    vertex 21357.41796875 14039.9853515625 4868.89453125
  endloop
endfacet
facet normal 1 -0 -1.587531030233585e-41
  outer loop
    vertex 21357.41796875 14039.9853515625 5050.17236328125
    vertex 21357.41796875 15309.9267578125 4868.89453125
    vertex 21357.41796875 15309.9267578125 5050.17236328125
  endloop
endfacet
facet normal 0 -1 4.802141215058675e-13
  outer loop
    vertex 21357.41796875 14039.9853515625 5050.17236328125
    vertex 21105.083984375 14039.9853515625 4868.89453125
    vertex 21357.41796875 14039.9853515625 4868.89453125
  endloop
endfacet
facet normal 0 -1 4.802141215058675e-13
  outer loop
    vertex 21105.083984375 14039.9853515625 4868.89453125
    vertex 21357.41796875 14039.9853515625 5050.17236328125
    vertex 21105.083984375 14039.9853515625 5050.17236328125
  endloop
endfacet
facet normal 2.656433968587099e-28 3.050358359998895e-13 1
  outer loop
    vertex 21357.41796875 14039.9853515625 5050.17236328125
    vertex 21105.083984375 15309.9267578125 5050.17236328125
    vertex 21105.083984375 14039.9853515625 5050.17236328125
  endloop
endfacet
facet normal 2.656433968587099e-28 3.050358359998895e-13 1
  outer loop
    vertex 21105.083984375 15309.9267578125 5050.17236328125
    vertex 21357.41796875 14039.9853515625 5050.17236328125
    vertex 21357.41796875 15309.9267578125 5050.17236328125
  endloop
endfacet
facet normal 0 1 -4.802141215058675e-13
  outer loop
    vertex 21105.083984375 15309.9267578125 5050.17236328125
    vertex 21357.41796875 15309.9267578125 4868.89453125
    vertex 21105.083984375 15309.9267578125 4868.89453125
  endloop
endfacet
facet normal 0 1 -4.802141215058675e-13
  outer loop
    vertex 21357.41796875 15309.9267578125 4868.89453125
    vertex 21105.083984375 15309.9267578125 5050.17236328125
    vertex 21357.41796875 15309.9267578125 5050.17236328125
  endloop
endfacet
facet normal -1 0 1.587531030233585e-41
  outer loop
    vertex 21105.083984375 14039.9853515625 5050.17236328125
    vertex 21105.083984375 15309.9267578125 4868.89453125
    vertex 21105.083984375 14039.9853515625 4868.89453125
  endloop
endfacet
facet normal -1 0 1.587531030233585e-41
  outer loop
    vertex 21105.083984375 15309.9267578125 4868.89453125
    vertex 21105.083984375 14039.9853515625 5050.17236328125
    vertex 21105.083984375 15309.9267578125 5050.17236328125
  endloop
endfacet
facet normal -6.988275441587863e-42 -2.988248212244804e-13 -1
  outer loop
    vertex 21105.083984375 15309.9267578125 4687.6162109375
    vertex 20852.751953125 14039.9853515625 4687.6162109375
    vertex 20852.751953125 15309.9267578125 4687.6162109375
  endloop
endfacet
facet normal -6.988275441587863e-42 -2.988248212244804e-13 -1
  outer loop
    vertex 20852.751953125 14039.9853515625 4687.6162109375
    vertex 21105.083984375 15309.9267578125 4687.6162109375
    vertex 21105.083984375 14039.9853515625 4687.6162109375
  endloop
endfacet
facet normal 1 -0 -1.587531030233585e-41
  outer loop
    vertex 21105.083984375 15309.9267578125 4687.6162109375
    vertex 21105.083984375 14039.9853515625 4868.89453125
    vertex 21105.083984375 14039.9853515625 4687.6162109375
  endloop
endfacet
facet normal 1 -0 -1.587531030233585e-41
  outer loop
    vertex 21105.083984375 14039.9853515625 4868.89453125
    vertex 21105.083984375 15309.9267578125 4687.6162109375
    vertex 21105.083984375 15309.9267578125 4868.89453125
  endloop
endfacet
facet normal 0 -1 4.802141215058675e-13
  outer loop
    vertex 21105.083984375 14039.9853515625 4868.89453125
    vertex 20852.751953125 14039.9853515625 4687.6162109375
    vertex 21105.083984375 14039.9853515625 4687.6162109375
  endloop
endfacet
facet normal 0 -1 4.802141215058675e-13
  outer loop
    vertex 20852.751953125 14039.9853515625 4687.6162109375
    vertex 21105.083984375 14039.9853515625 4868.89453125
    vertex 20852.751953125 14039.9853515625 4868.89453125
  endloop
endfacet
facet normal 2.656433968587099e-28 3.050358359998895e-13 1
  outer loop
    vertex 21105.083984375 14039.9853515625 4868.89453125
    vertex 20852.751953125 15309.9267578125 4868.89453125
    vertex 20852.751953125 14039.9853515625 4868.89453125
  endloop
endfacet
facet normal 2.656433968587099e-28 3.050358359998895e-13 1
  outer loop
    vertex 20852.751953125 15309.9267578125 4868.89453125
    vertex 21105.083984375 14039.9853515625 4868.89453125
    vertex 21105.083984375 15309.9267578125 4868.89453125
  endloop
endfacet
facet normal 0 1 -4.802141215058675e-13
  outer loop
    vertex 20852.751953125 15309.9267578125 4868.89453125
    vertex 21105.083984375 15309.9267578125 4687.6162109375
    vertex 20852.751953125 15309.9267578125 4687.6162109375
  endloop
endfacet
facet normal 0 1 -4.802141215058675e-13
  outer loop
    vertex 21105.083984375 15309.9267578125 4687.6162109375
    vertex 20852.751953125 15309.9267578125 4868.89453125
    vertex 21105.083984375 15309.9267578125 4868.89453125
  endloop
endfacet
facet normal -1 0 1.587531030233585e-41
  outer loop
    vertex 20852.751953125 14039.9853515625 4868.89453125
    vertex 20852.751953125 15309.9267578125 4687.6162109375
    vertex 20852.751953125 14039.9853515625 4687.6162109375
  endloop
endfacet
facet normal -1 0 1.587531030233585e-41
  outer loop
    vertex 20852.751953125 15309.9267578125 4687.6162109375
    vertex 20852.751953125 14039.9853515625 4868.89453125
    vertex 20852.751953125 15309.9267578125 4868.89453125
  endloop
endfacet
facet normal -6.988275441587863e-42 -2.988248212244804e-13 -1
  outer loop
    vertex 22114.416015625 15309.9267578125 5412.728515625
    vertex 21862.083984375 14039.9853515625 5412.728515625
    vertex 21862.083984375 15309.9267578125 5412.728515625
  endloop
endfacet
facet normal -6.988275441587863e-42 -2.988248212244804e-13 -1
  outer loop
    vertex 21862.083984375 14039.9853515625 5412.728515625
    vertex 22114.416015625 15309.9267578125 5412.728515625
    vertex 22114.416015625 14039.9853515625 5412.728515625
  endloop
endfacet
facet normal 1 -0 -1.587531030233585e-41
  outer loop
    vertex 22114.416015625 15309.9267578125 5412.728515625
    vertex 22114.416015625 14039.9853515625 5594.00634765625
    vertex 22114.416015625 14039.9853515625 5412.728515625
  endloop
endfacet
facet normal 1 -0 -1.587531030233585e-41
  outer loop
    vertex 22114.416015625 14039.9853515625 5594.00634765625
    vertex 22114.416015625 15309.9267578125 5412.728515625
    vertex 22114.416015625 15309.9267578125 5594.00634765625
  endloop
endfacet
facet normal 0 -1 4.802141215058675e-13
  outer loop
    vertex 22114.416015625 14039.9853515625 5594.00634765625
    vertex 21862.083984375 14039.9853515625 5412.728515625
    vertex 22114.416015625 14039.9853515625 5412.728515625
  endloop
endfacet
facet normal 0 -1 4.802141215058675e-13
  outer loop
    vertex 21862.083984375 14039.9853515625 5412.728515625
    vertex 22114.416015625 14039.9853515625 5594.00634765625
    vertex 21862.083984375 14039.9853515625 5594.00634765625
  endloop
endfacet
facet normal 2.656433968587099e-28 3.050358359998895e-13 1
  outer loop
    vertex 22114.416015625 14039.9853515625 5594.00634765625
    vertex 21862.083984375 15309.9267578125 5594.00634765625
    vertex 21862.083984375 14039.9853515625 5594.00634765625
  endloop
endfacet
facet normal 2.656433968587099e-28 3.050358359998895e-13 1
  outer loop
    vertex 21862.083984375 15309.9267578125 5594.00634765625
    vertex 22114.416015625 14039.9853515625 5594.00634765625
    vertex 22114.416015625 15309.9267578125 5594.00634765625
  endloop
endfacet
facet normal 0 1 -4.802141215058675e-13
  outer loop
    vertex 21862.083984375 15309.9267578125 5594.00634765625
    vertex 22114.416015625 15309.9267578125 5412.728515625
    vertex 21862.083984375 15309.9267578125 5412.728515625
  endloop
endfacet
facet normal 0 1 -4.802141215058675e-13
  outer loop
    vertex 22114.416015625 15309.9267578125 5412.728515625
    vertex 21862.083984375 15309.9267578125 5594.00634765625
    vertex 22114.416015625 15309.9267578125 5594.00634765625
  endloop
endfacet
facet normal -1 0 1.587531030233585e-41
  outer loop
    vertex 21862.083984375 14039.9853515625 5594.00634765625
    vertex 21862.083984375 15309.9267578125 5412.728515625
    vertex 21862.083984375 14039.9853515625 5412.728515625
  endloop
endfacet
facet normal -1 0 1.587531030233585e-41
  outer loop
    vertex 21862.083984375 15309.9267578125 5412.728515625
    vertex 21862.083984375 14039.9853515625 5594.00634765625
    vertex 21862.083984375 15309.9267578125 5594.00634765625
  endloop
endfacet
facet normal -6.988275441587863e-42 -2.988248212244804e-13 -1
  outer loop
    vertex 22366.75 15309.9267578125 5594.00634765625
    vertex 22114.416015625 14039.9853515625 5594.00634765625
    vertex 22114.416015625 15309.9267578125 5594.00634765625
  endloop
endfacet
facet normal -6.988275441587863e-42 -2.988248212244804e-13 -1
  outer loop
    vertex 22114.416015625 14039.9853515625 5594.00634765625
    vertex 22366.75 15309.9267578125 5594.00634765625
    vertex 22366.75 14039.9853515625 5594.00634765625
  endloop
endfacet
facet normal 1 -0 -1.587531030233585e-41
  outer loop
    vertex 22366.75 15309.9267578125 5594.00634765625
    vertex 22366.75 14039.9853515625 5775.28466796875
    vertex 22366.75 14039.9853515625 5594.00634765625
  endloop
endfacet
facet normal 1 -0 -1.587531030233585e-41
  outer loop
    vertex 22366.75 14039.9853515625 5775.28466796875
    vertex 22366.75 15309.9267578125 5594.00634765625
    vertex 22366.75 15309.9267578125 5775.28466796875
  endloop
endfacet
facet normal 0 -1 4.802141215058675e-13
  outer loop
    vertex 22366.75 14039.9853515625 5775.28466796875
    vertex 22114.416015625 14039.9853515625 5594.00634765625
    vertex 22366.75 14039.9853515625 5594.00634765625
  endloop
endfacet
facet normal 0 -1 4.802141215058675e-13
  outer loop
    vertex 22114.416015625 14039.9853515625 5594.00634765625
    vertex 22366.75 14039.9853515625 5775.28466796875
    vertex 22114.416015625 14039.9853515625 5775.28466796875
  endloop
endfacet
facet normal 2.656433968587099e-28 3.050358359998895e-13 1
  outer loop
    vertex 22366.75 14039.9853515625 5775.28466796875
    vertex 22114.416015625 15309.9267578125 5775.28466796875
    vertex 22114.416015625 14039.9853515625 5775.28466796875
  endloop
endfacet
facet normal 2.656433968587099e-28 3.050358359998895e-13 1
  outer loop
    vertex 22114.416015625 15309.9267578125 5775.28466796875
    vertex 22366.75 14039.9853515625 5775.28466796875
    vertex 22366.75 15309.9267578125 5775.28466796875
  endloop
endfacet
facet normal 0 1 -4.802141215058675e-13
  outer loop
    vertex 22114.416015625 15309.9267578125 5775.28466796875
    vertex 22366.75 15309.9267578125 5594.00634765625
    vertex 22114.416015625 15309.9267578125 5594.00634765625
  endloop
endfacet
facet normal 0 1 -4.802141215058675e-13
  outer loop
    vertex 22366.75 15309.9267578125 5594.00634765625
    vertex 22114.416015625 15309.9267578125 5775.28466796875
    vertex 22366.75 15309.9267578125 5775.28466796875
  endloop
endfacet
facet normal -1 0 1.587531030233585e-41
  outer loop
    vertex 22114.416015625 14039.9853515625 5775.28466796875
    vertex 22114.416015625 15309.9267578125 5594.00634765625
    vertex 22114.416015625 14039.9853515625 5594.00634765625
  endloop
endfacet
facet normal -1 0 1.587531030233585e-41
  outer loop
    vertex 22114.416015625 15309.9267578125 5594.00634765625
    vertex 22114.416015625 14039.9853515625 5775.28466796875
    vertex 22114.416015625 15309.9267578125 5775.28466796875
  endloop
endfacet
facet normal -6.988275441587863e-42 -2.988248212244804e-13 -1
  outer loop
    vertex 22619.08203125 15309.9267578125 5775.28466796875
    vertex 22366.75 14039.9853515625 5775.28466796875
    vertex 22366.75 15309.9267578125 5775.28466796875
  endloop
endfacet
facet normal -6.988275441587863e-42 -2.988248212244804e-13 -1
  outer loop
    vertex 22366.75 14039.9853515625 5775.28466796875
    vertex 22619.08203125 15309.9267578125 5775.28466796875
    vertex 22619.08203125 14039.9853515625 5775.28466796875
  endloop
endfacet
facet normal 1 -0 -1.587531030233585e-41
  outer loop
    vertex 22619.08203125 15309.9267578125 5775.28466796875
    vertex 22619.08203125 14039.9853515625 5956.5625
    vertex 22619.08203125 14039.9853515625 5775.28466796875
  endloop
endfacet
facet normal 1 -0 -1.587531030233585e-41
  outer loop
    vertex 22619.08203125 14039.9853515625 5956.5625
    vertex 22619.08203125 15309.9267578125 5775.28466796875
    vertex 22619.08203125 15309.9267578125 5956.5625
  endloop
endfacet
facet normal 0 -1 4.802141215058675e-13
  outer loop
    vertex 22619.08203125 14039.9853515625 5956.5625
    vertex 22366.75 14039.9853515625 5775.28466796875
    vertex 22619.08203125 14039.9853515625 5775.28466796875
  endloop
endfacet
facet normal 0 -1 4.802141215058675e-13
  outer loop
    vertex 22366.75 14039.9853515625 5775.28466796875
    vertex 22619.08203125 14039.9853515625 5956.5625
    vertex 22366.75 14039.9853515625 5956.5625
  endloop
endfacet
facet normal 2.656433968587099e-28 3.050358359998895e-13 1
  outer loop
    vertex 22619.08203125 14039.9853515625 5956.5625
    vertex 22366.75 15309.9267578125 5956.5625
    vertex 22366.75 14039.9853515625 5956.5625
  endloop
endfacet
facet normal 2.656433968587099e-28 3.050358359998895e-13 1
  outer loop
    vertex 22366.75 15309.9267578125 5956.5625
    vertex 22619.08203125 14039.9853515625 5956.5625
    vertex 22619.08203125 15309.9267578125 5956.5625
  endloop
endfacet
facet normal 0 1 -4.802141215058675e-13
  outer loop
    vertex 22366.75 15309.9267578125 5956.5625
    vertex 22619.08203125 15309.9267578125 5775.28466796875
    vertex 22366.75 15309.9267578125 5775.28466796875
  endloop
endfacet
facet normal 0 1 -4.802141215058675e-13
  outer loop
    vertex 22619.08203125 15309.9267578125 5775.28466796875
    vertex 22366.75 15309.9267578125 5956.5625
    vertex 22619.08203125 15309.9267578125 5956.5625
  endloop
endfacet
facet normal -1 0 1.587531030233585e-41
  outer loop
    vertex 22366.75 14039.9853515625 5956.5625
    vertex 22366.75 15309.9267578125 5775.28466796875
    vertex 22366.75 14039.9853515625 5775.28466796875
  endloop
endfacet
facet normal -1 0 1.587531030233585e-41
  outer loop
    vertex 22366.75 15309.9267578125 5775.28466796875
    vertex 22366.75 14039.9853515625 5956.5625
    vertex 22366.75 15309.9267578125 5956.5625
  endloop
endfacet
facet normal -6.988275441587863e-42 -2.988248212244804e-13 -1
  outer loop
    vertex 21609.75 15309.9267578125 5050.17236328125
    vertex 21357.41796875 14039.9853515625 5050.17236328125
    vertex 21357.41796875 15309.9267578125 5050.17236328125
  endloop
endfacet
facet normal -6.988275441587863e-42 -2.988248212244804e-13 -1
  outer loop
    vertex 21357.41796875 14039.9853515625 5050.17236328125
    vertex 21609.75 15309.9267578125 5050.17236328125
    vertex 21609.75 14039.9853515625 5050.17236328125
  endloop
endfacet
facet normal 1 -0 -1.587531030233585e-41
  outer loop
    vertex 21609.75 15309.9267578125 5050.17236328125
    vertex 21609.75 14039.9853515625 5231.45068359375
    vertex 21609.75 14039.9853515625 5050.17236328125
  endloop
endfacet
facet normal 1 -0 -1.587531030233585e-41
  outer loop
    vertex 21609.75 14039.9853515625 5231.45068359375
    vertex 21609.75 15309.9267578125 5050.17236328125
    vertex 21609.75 15309.9267578125 5231.45068359375
  endloop
endfacet
facet normal 0 -1 4.802141215058675e-13
  outer loop
    vertex 21609.75 14039.9853515625 5231.45068359375
    vertex 21357.41796875 14039.9853515625 5050.17236328125
    vertex 21609.75 14039.9853515625 5050.17236328125
  endloop
endfacet
facet normal 0 -1 4.802141215058675e-13
  outer loop
    vertex 21357.41796875 14039.9853515625 5050.17236328125
    vertex 21609.75 14039.9853515625 5231.45068359375
    vertex 21357.41796875 14039.9853515625 5231.45068359375
  endloop
endfacet
facet normal 2.656433968587099e-28 3.050358359998895e-13 1
  outer loop
    vertex 21609.75 14039.9853515625 5231.45068359375
    vertex 21357.41796875 15309.9267578125 5231.45068359375
    vertex 21357.41796875 14039.9853515625 5231.45068359375
  endloop
endfacet
facet normal 2.656433968587099e-28 3.050358359998895e-13 1
  outer loop
    vertex 21357.41796875 15309.9267578125 5231.45068359375
    vertex 21609.75 14039.9853515625 5231.45068359375
    vertex 21609.75 15309.9267578125 5231.45068359375
  endloop
endfacet
facet normal 0 1 -4.802141215058675e-13
  outer loop
    vertex 21357.41796875 15309.9267578125 5231.45068359375
    vertex 21609.75 15309.9267578125 5050.17236328125
    vertex 21357.41796875 15309.9267578125 5050.17236328125
  endloop
endfacet
facet normal 0 1 -4.802141215058675e-13
  outer loop
    vertex 21609.75 15309.9267578125 5050.17236328125
    vertex 21357.41796875 15309.9267578125 5231.45068359375
    vertex 21609.75 15309.9267578125 5231.45068359375
  endloop
endfacet
facet normal -1 0 1.587531030233585e-41
  outer loop
    vertex 21357.41796875 14039.9853515625 5231.45068359375
    vertex 21357.41796875 15309.9267578125 5050.17236328125
    vertex 21357.41796875 14039.9853515625 5050.17236328125
  endloop
endfacet
facet normal -1 0 1.587531030233585e-41
  outer loop
    vertex 21357.41796875 15309.9267578125 5050.17236328125
    vertex 21357.41796875 14039.9853515625 5231.45068359375
    vertex 21357.41796875 15309.9267578125 5231.45068359375
  endloop
endfacet
facet normal -6.988275441587863e-42 -2.988248212244804e-13 -1
  outer loop
    vertex 22871.416015625 15309.9267578125 5956.5625
    vertex 22619.08203125 14039.9853515625 5956.5625
    vertex 22619.08203125 15309.9267578125 5956.5625
  endloop
endfacet
facet normal -6.988275441587863e-42 -2.988248212244804e-13 -1
  outer loop
    vertex 22619.08203125 14039.9853515625 5956.5625
    vertex 22871.416015625 15309.9267578125 5956.5625
    vertex 22871.416015625 14039.9853515625 5956.5625
  endloop
endfacet
facet normal 1 -0 -1.587531030233585e-41
  outer loop
    vertex 22871.416015625 15309.9267578125 5956.5625
    vertex 22871.416015625 14039.9853515625 6137.8408203125
    vertex 22871.416015625 14039.9853515625 5956.5625
  endloop
endfacet
facet normal 1 -0 -1.587531030233585e-41
  outer loop
    vertex 22871.416015625 14039.9853515625 6137.8408203125
    vertex 22871.416015625 15309.9267578125 5956.5625
    vertex 22871.416015625 15309.9267578125 6137.8408203125
  endloop
endfacet
facet normal 0 -1 4.802141215058675e-13
  outer loop
    vertex 22871.416015625 14039.9853515625 6137.8408203125
    vertex 22619.08203125 14039.9853515625 5956.5625
    vertex 22871.416015625 14039.9853515625 5956.5625
  endloop
endfacet
facet normal 0 -1 4.802141215058675e-13
  outer loop
    vertex 22619.08203125 14039.9853515625 5956.5625
    vertex 22871.416015625 14039.9853515625 6137.8408203125
    vertex 22619.08203125 14039.9853515625 6137.8408203125
  endloop
endfacet
facet normal 2.656433968587099e-28 3.050358359998895e-13 1
  outer loop
    vertex 22871.416015625 14039.9853515625 6137.8408203125
    vertex 22619.08203125 15309.9267578125 6137.8408203125
    vertex 22619.08203125 14039.9853515625 6137.8408203125
  endloop
endfacet
facet normal 2.656433968587099e-28 3.050358359998895e-13 1
  outer loop
    vertex 22619.08203125 15309.9267578125 6137.8408203125
    vertex 22871.416015625 14039.9853515625 6137.8408203125
    vertex 22871.416015625 15309.9267578125 6137.8408203125
  endloop
endfacet
facet normal 0 1 -4.802141215058675e-13
  outer loop
    vertex 22619.08203125 15309.9267578125 6137.8408203125
    vertex 22871.416015625 15309.9267578125 5956.5625
    vertex 22619.08203125 15309.9267578125 5956.5625
  endloop
endfacet
facet normal 0 1 -4.802141215058675e-13
  outer loop
    vertex 22871.416015625 15309.9267578125 5956.5625
    vertex 22619.08203125 15309.9267578125 6137.8408203125
    vertex 22871.416015625 15309.9267578125 6137.8408203125
  endloop
endfacet
facet normal -1 0 1.587531030233585e-41
  outer loop
    vertex 22619.08203125 14039.9853515625 6137.8408203125
    vertex 22619.08203125 15309.9267578125 5956.5625
    vertex 22619.08203125 14039.9853515625 5956.5625
  endloop
endfacet
facet normal -1 0 1.587531030233585e-41
  outer loop
    vertex 22619.08203125 15309.9267578125 5956.5625
    vertex 22619.08203125 14039.9853515625 6137.8408203125
    vertex 22619.08203125 15309.9267578125 6137.8408203125
  endloop
endfacet
facet normal -6.988275441587863e-42 -2.988248212244804e-13 -1
  outer loop
    vertex 21862.083984375 15309.9267578125 5231.45068359375
    vertex 21609.75 14039.9853515625 5231.45068359375
    vertex 21609.75 15309.9267578125 5231.45068359375
  endloop
endfacet
facet normal -6.988275441587863e-42 -2.988248212244804e-13 -1
  outer loop
    vertex 21609.75 14039.9853515625 5231.45068359375
    vertex 21862.083984375 15309.9267578125 5231.45068359375
    vertex 21862.083984375 14039.9853515625 5231.45068359375
  endloop
endfacet
facet normal 1 -0 -1.587531030233585e-41
  outer loop
    vertex 21862.083984375 15309.9267578125 5231.45068359375
    vertex 21862.083984375 14039.9853515625 5412.728515625
    vertex 21862.083984375 14039.9853515625 5231.45068359375
  endloop
endfacet
facet normal 1 -0 -1.587531030233585e-41
  outer loop
    vertex 21862.083984375 14039.9853515625 5412.728515625
    vertex 21862.083984375 15309.9267578125 5231.45068359375
    vertex 21862.083984375 15309.9267578125 5412.728515625
  endloop
endfacet
facet normal 0 -1 4.802141215058675e-13
  outer loop
    vertex 21862.083984375 14039.9853515625 5412.728515625
    vertex 21609.75 14039.9853515625 5231.45068359375
    vertex 21862.083984375 14039.9853515625 5231.45068359375
  endloop
endfacet
facet normal 0 -1 4.802141215058675e-13
  outer loop
    vertex 21609.75 14039.9853515625 5231.45068359375
    vertex 21862.083984375 14039.9853515625 5412.728515625
    vertex 21609.75 14039.9853515625 5412.728515625
  endloop
endfacet
facet normal 2.656433968587099e-28 3.050358359998895e-13 1
  outer loop
    vertex 21862.083984375 14039.9853515625 5412.728515625
    vertex 21609.75 15309.9267578125 5412.728515625
    vertex 21609.75 14039.9853515625 5412.728515625
  endloop
endfacet
facet normal 2.656433968587099e-28 3.050358359998895e-13 1
  outer loop
    vertex 21609.75 15309.9267578125 5412.728515625
    vertex 21862.083984375 14039.9853515625 5412.728515625
    vertex 21862.083984375 15309.9267578125 5412.728515625
  endloop
endfacet
facet normal 0 1 -4.802141215058675e-13
  outer loop
    vertex 21609.75 15309.9267578125 5412.728515625
    vertex 21862.083984375 15309.9267578125 5231.45068359375
    vertex 21609.75 15309.9267578125 5231.45068359375
  endloop
endfacet
facet normal 0 1 -4.802141215058675e-13
  outer loop
    vertex 21862.083984375 15309.9267578125 5231.45068359375
    vertex 21609.75 15309.9267578125 5412.728515625
    vertex 21862.083984375 15309.9267578125 5412.728515625
  endloop
endfacet
facet normal -1 0 1.587531030233585e-41
  outer loop
    vertex 21609.75 14039.9853515625 5412.728515625
    vertex 21609.75 15309.9267578125 5231.45068359375
    vertex 21609.75 14039.9853515625 5231.45068359375
  endloop
endfacet
facet normal -1 0 1.587531030233585e-41
  outer loop
    vertex 21609.75 15309.9267578125 5231.45068359375
    vertex 21609.75 14039.9853515625 5412.728515625
    vertex 21609.75 15309.9267578125 5412.728515625
  endloop
endfacet
facet normal -6.988275441587863e-42 -2.988248212244804e-13 -1
  outer loop
    vertex 23123.748046875 15309.9267578125 6137.8408203125
    vertex 22871.416015625 14039.9853515625 6137.8408203125
    vertex 22871.416015625 15309.9267578125 6137.8408203125
  endloop
endfacet
facet normal -6.988275441587863e-42 -2.988248212244804e-13 -1
  outer loop
    vertex 22871.416015625 14039.9853515625 6137.8408203125
    vertex 23123.748046875 15309.9267578125 6137.8408203125
    vertex 23123.748046875 14039.9853515625 6137.8408203125
  endloop
endfacet
facet normal 1 -0 -1.587531030233585e-41
  outer loop
    vertex 23123.748046875 15309.9267578125 6137.8408203125
    vertex 23123.748046875 14039.9853515625 6319.11865234375
    vertex 23123.748046875 14039.9853515625 6137.8408203125
  endloop
endfacet
facet normal 1 -0 -1.587531030233585e-41
  outer loop
    vertex 23123.748046875 14039.9853515625 6319.11865234375
    vertex 23123.748046875 15309.9267578125 6137.8408203125
    vertex 23123.748046875 15309.9267578125 6319.11865234375
  endloop
endfacet
facet normal 0 -1 4.802141215058675e-13
  outer loop
    vertex 23123.748046875 14039.9853515625 6319.11865234375
    vertex 22871.416015625 14039.9853515625 6137.8408203125
    vertex 23123.748046875 14039.9853515625 6137.8408203125
  endloop
endfacet
facet normal 0 -1 4.802141215058675e-13
  outer loop
    vertex 22871.416015625 14039.9853515625 6137.8408203125
    vertex 23123.748046875 14039.9853515625 6319.11865234375
    vertex 22871.416015625 14039.9853515625 6319.11865234375
  endloop
endfacet
facet normal 2.656433968587099e-28 3.050358359998895e-13 1
  outer loop
    vertex 23123.748046875 14039.9853515625 6319.11865234375
    vertex 22871.416015625 15309.9267578125 6319.11865234375
    vertex 22871.416015625 14039.9853515625 6319.11865234375
  endloop
endfacet
facet normal 2.656433968587099e-28 3.050358359998895e-13 1
  outer loop
    vertex 22871.416015625 15309.9267578125 6319.11865234375
    vertex 23123.748046875 14039.9853515625 6319.11865234375
    vertex 23123.748046875 15309.9267578125 6319.11865234375
  endloop
endfacet
facet normal 0 1 -4.802141215058675e-13
  outer loop
    vertex 22871.416015625 15309.9267578125 6319.11865234375
    vertex 23123.748046875 15309.9267578125 6137.8408203125
    vertex 22871.416015625 15309.9267578125 6137.8408203125
  endloop
endfacet
facet normal 0 1 -4.802141215058675e-13
  outer loop
    vertex 23123.748046875 15309.9267578125 6137.8408203125
    vertex 22871.416015625 15309.9267578125 6319.11865234375
    vertex 23123.748046875 15309.9267578125 6319.11865234375
  endloop
endfacet
facet normal -1 0 1.587531030233585e-41
  outer loop
    vertex 22871.416015625 14039.9853515625 6319.11865234375
    vertex 22871.416015625 15309.9267578125 6137.8408203125
    vertex 22871.416015625 14039.9853515625 6137.8408203125
  endloop
endfacet
facet normal -1 0 1.587531030233585e-41
  outer loop
    vertex 22871.416015625 15309.9267578125 6137.8408203125
    vertex 22871.416015625 14039.9853515625 6319.11865234375
    vertex 22871.416015625 15309.9267578125 6319.11865234375
  endloop
endfacet
endsolid com.sketchup.SketchUp.2019
