solid com.sketchup.SketchUp.2019
facet normal -7.274140328310125e-42 -2.540250182512388e-13 -1
  outer loop
    vertex 20740.501953125 15882.0234375 43149.984375
    vertex 20477.8828125 14802.470703125 43149.984375
    vertex 20477.8828125 15882.0234375 43149.984375
  endloop
endfacet
facet normal -7.274140328310125e-42 -2.540250182512388e-13 -1
  outer loop
    vertex 20477.8828125 14802.470703125 43149.984375
    vertex 20740.501953125 15882.0234375 43149.984375
    vertex 20740.501953125 14802.470703125 43149.984375
  endloop
endfacet
facet normal 1 -0 -1.525313378417563e-41
  outer loop
    vertex 20740.501953125 15882.0234375 43149.984375
    vertex 20740.501953125 14802.470703125 43331.26171875
    vertex 20740.501953125 14802.470703125 43149.984375
  endloop
endfacet
facet normal 1 -0 -1.525313378417563e-41
  outer loop
    vertex 20740.501953125 14802.470703125 43331.26171875
    vertex 20740.501953125 15882.0234375 43149.984375
    vertex 20740.501953125 15882.0234375 43331.26171875
  endloop
endfacet
facet normal 0 -1 5.649046226456622e-13
  outer loop
    vertex 20740.501953125 14802.470703125 43331.26171875
    vertex 20477.8828125 14802.470703125 43149.984375
    vertex 20740.501953125 14802.470703125 43149.984375
  endloop
endfacet
facet normal 0 -1 5.649046226456622e-13
  outer loop
    vertex 20477.8828125 14802.470703125 43149.984375
    vertex 20740.501953125 14802.470703125 43331.26171875
    vertex 20477.8828125 14802.470703125 43331.26171875
  endloop
endfacet
facet normal 2.764726120465077e-28 2.593048659908087e-13 1
  outer loop
    vertex 20740.501953125 14802.470703125 43331.26171875
    vertex 20477.8828125 15882.0234375 43331.26171875
    vertex 20477.8828125 14802.470703125 43331.26171875
  endloop
endfacet
facet normal 2.764726120465077e-28 2.593048659908087e-13 1
  outer loop
    vertex 20477.8828125 15882.0234375 43331.26171875
    vertex 20740.501953125 14802.470703125 43331.26171875
    vertex 20578.552734375 15852.2705078125 43331.26171875
  endloop
endfacet
facet normal 2.764726120465077e-28 2.593048659908087e-13 1
  outer loop
    vertex 20578.552734375 15852.2705078125 43331.26171875
    vertex 20740.501953125 14802.470703125 43331.26171875
    vertex 20612.173828125 15852.2705078125 43331.26171875
  endloop
endfacet
facet normal 2.764726120465077e-28 2.593048659908087e-13 1
  outer loop
    vertex 20612.173828125 15852.2705078125 43331.26171875
    vertex 20740.501953125 14802.470703125 43331.26171875
    vertex 20612.173828125 15882.0234375 43331.26171875
  endloop
endfacet
facet normal 2.764726120465077e-28 2.593048659908087e-13 1
  outer loop
    vertex 20612.173828125 15882.0234375 43331.26171875
    vertex 20740.501953125 14802.470703125 43331.26171875
    vertex 20740.501953125 15882.0234375 43331.26171875
  endloop
endfacet
facet normal 2.764726120465077e-28 2.593048659908087e-13 1
  outer loop
    vertex 20578.552734375 15882.0234375 43331.26171875
    vertex 20477.8828125 15882.0234375 43331.26171875
    vertex 20578.552734375 15852.2705078125 43331.26171875
  endloop
endfacet
facet normal 0 1 -5.649046226456622e-13
  outer loop
    vertex 20477.8828125 15882.0234375 43331.26171875
    vertex 20740.501953125 15882.0234375 43149.984375
    vertex 20477.8828125 15882.0234375 43149.984375
  endloop
endfacet
facet normal 0 1 -5.649046226456622e-13
  outer loop
    vertex 20740.501953125 15882.0234375 43149.984375
    vertex 20477.8828125 15882.0234375 43331.26171875
    vertex 20740.501953125 15882.0234375 43331.26171875
  endloop
endfacet
facet normal -1 0 1.525313378417563e-41
  outer loop
    vertex 20477.8828125 14802.470703125 43331.26171875
    vertex 20477.8828125 15882.0234375 43149.984375
    vertex 20477.8828125 14802.470703125 43149.984375
  endloop
endfacet
facet normal -1 0 1.525313378417563e-41
  outer loop
    vertex 20477.8828125 15882.0234375 43149.984375
    vertex 20477.8828125 14802.470703125 43331.26171875
    vertex 20477.8828125 15882.0234375 43331.26171875
  endloop
endfacet
facet normal -2.470313179275124e-13 2.55448900964364e-13 -1
  outer loop
    vertex 20612.173828125 15882.0234375 43331.26171875
    vertex 20578.552734375 15852.2705078125 43331.26171875
    vertex 20578.552734375 15882.0234375 43331.26171875
  endloop
endfacet
facet normal -2.470313179275124e-13 2.55448900964364e-13 -1
  outer loop
    vertex 20578.552734375 15852.2705078125 43331.26171875
    vertex 20612.173828125 15882.0234375 43331.26171875
    vertex 20612.173828125 15852.2705078125 43331.26171875
  endloop
endfacet
facet normal -9.712620180238156e-15 1 -1.908700485804462e-14
  outer loop
    vertex 20578.552734375 15882.0234375 43331.26171875
    vertex 20612.173828125 15882.0234375 44260.7890625
    vertex 20612.173828125 15882.0234375 43331.26171875
  endloop
endfacet
facet normal -9.712620180238156e-15 1 -1.908700485804462e-14
  outer loop
    vertex 20612.173828125 15882.0234375 44260.7890625
    vertex 20578.552734375 15882.0234375 43331.26171875
    vertex 20578.552734375 15882.0234375 44286.734375
  endloop
endfacet
facet normal -9.712620180238156e-15 1 -1.908700485804462e-14
  outer loop
    vertex 20612.173828125 15882.0234375 44260.7890625
    vertex 20578.552734375 15882.0234375 44286.734375
    vertex 20639.83203125 15882.0234375 44279.87890625
  endloop
endfacet
facet normal -9.712620180238156e-15 1 -1.908700485804462e-14
  outer loop
    vertex 20639.83203125 15882.0234375 44279.87890625
    vertex 20578.552734375 15882.0234375 44286.734375
    vertex 23155.466796875 15882.0234375 46016.34375
  endloop
endfacet
facet normal -9.712620180238156e-15 1 -1.908700485804462e-14
  outer loop
    vertex 23155.466796875 15882.0234375 46016.34375
    vertex 20578.552734375 15882.0234375 44286.734375
    vertex 23155.466796875 15882.0234375 46065.49609375
  endloop
endfacet
facet normal -0.3126607537269592 -5.150634239894805e-16 0.9498648643493652
  outer loop
    vertex 23169.94140625 15852.2705078125 46075.48828125
    vertex 20578.552734375 15882.0234375 44286.734375
    vertex 20578.552734375 15852.2705078125 44286.734375
  endloop
endfacet
facet normal -0.3126607537269592 -5.150634239894805e-16 0.9498648643493652
  outer loop
    vertex 20578.552734375 15882.0234375 44286.734375
    vertex 23169.94140625 15852.2705078125 46075.48828125
    vertex 23155.466796875 15882.0234375 46065.49609375
  endloop
endfacet
facet normal -0.3126607537269592 -5.150634239894805e-16 0.9498648643493652
  outer loop
    vertex 23155.466796875 15882.0234375 46065.49609375
    vertex 23169.94140625 15852.2705078125 46075.48828125
    vertex 23155.466796875 16137.046875 46065.49609375
  endloop
endfacet
facet normal -0.3126607537269592 -5.150634239894805e-16 0.9498648643493652
  outer loop
    vertex 23155.466796875 16137.046875 46065.49609375
    vertex 23169.94140625 15852.2705078125 46075.48828125
    vertex 23169.94140625 16137.046875 46075.48828125
  endloop
endfacet
facet normal -1 0 0
  outer loop
    vertex 20578.552734375 15852.2705078125 44286.734375
    vertex 20578.552734375 15882.0234375 43331.26171875
    vertex 20578.552734375 15852.2705078125 43331.26171875
  endloop
endfacet
facet normal -1 0 0
  outer loop
    vertex 20578.552734375 15882.0234375 43331.26171875
    vertex 20578.552734375 15852.2705078125 44286.734375
    vertex 20578.552734375 15882.0234375 44286.734375
  endloop
endfacet
facet normal 0.3126607537269592 -4.921831053204513e-15 -0.9498648643493652
  outer loop
    vertex 20639.83203125 15882.0234375 44279.87890625
    vertex 20612.173828125 15852.2705078125 44260.7890625
    vertex 20612.173828125 15882.0234375 44260.7890625
  endloop
endfacet
facet normal 0.3126607537269592 -4.921831053204513e-15 -0.9498648643493652
  outer loop
    vertex 20612.173828125 15852.2705078125 44260.7890625
    vertex 20639.83203125 15882.0234375 44279.87890625
    vertex 20639.83203125 15852.2705078125 44279.87890625
  endloop
endfacet
facet normal 1 0 0
  outer loop
    vertex 20612.173828125 15882.0234375 43331.26171875
    vertex 20612.173828125 15852.2705078125 44260.7890625
    vertex 20612.173828125 15852.2705078125 43331.26171875
  endloop
endfacet
facet normal 1 0 0
  outer loop
    vertex 20612.173828125 15852.2705078125 44260.7890625
    vertex 20612.173828125 15882.0234375 43331.26171875
    vertex 20612.173828125 15882.0234375 44260.7890625
  endloop
endfacet
facet normal 9.943107162548471e-15 -1 1.692003199875447e-14
  outer loop
    vertex 20612.173828125 15852.2705078125 44260.7890625
    vertex 20578.552734375 15852.2705078125 43331.26171875
    vertex 20612.173828125 15852.2705078125 43331.26171875
  endloop
endfacet
facet normal 9.943107162548471e-15 -1 1.692003199875447e-14
  outer loop
    vertex 20578.552734375 15852.2705078125 43331.26171875
    vertex 20612.173828125 15852.2705078125 44260.7890625
    vertex 20578.552734375 15852.2705078125 44286.734375
  endloop
endfacet
facet normal 9.943107162548471e-15 -1 1.692003199875447e-14
  outer loop
    vertex 20578.552734375 15852.2705078125 44286.734375
    vertex 20612.173828125 15852.2705078125 44260.7890625
    vertex 20639.83203125 15852.2705078125 44279.87890625
  endloop
endfacet
facet normal 9.943107162548471e-15 -1 1.692003199875447e-14
  outer loop
    vertex 20578.552734375 15852.2705078125 44286.734375
    vertex 20639.83203125 15852.2705078125 44279.87890625
    vertex 23183.125 15852.2705078125 46035.43359375
  endloop
endfacet
facet normal 9.943107162548471e-15 -1 1.692003199875447e-14
  outer loop
    vertex 20578.552734375 15852.2705078125 44286.734375
    vertex 23183.125 15852.2705078125 46035.43359375
    vertex 23169.94140625 15852.2705078125 46075.48828125
  endloop
endfacet
facet normal 9.943107162548471e-15 -1 1.692003199875447e-14
  outer loop
    vertex 23169.94140625 15852.2705078125 46075.48828125
    vertex 23183.125 15852.2705078125 46035.43359375
    vertex 23183.125 15852.2705078125 46084.5859375
  endloop
endfacet
facet normal -0.3126607537269592 6.052118650532512e-18 0.9498648643493652
  outer loop
    vertex 23183.125 15852.2705078125 46084.5859375
    vertex 23169.94140625 16137.046875 46075.48828125
    vertex 23169.94140625 15852.2705078125 46075.48828125
  endloop
endfacet
facet normal -0.3126607537269592 6.052118650532512e-18 0.9498648643493652
  outer loop
    vertex 23169.94140625 16137.046875 46075.48828125
    vertex 23183.125 15852.2705078125 46084.5859375
    vertex 23183.125 16137.046875 46084.5859375
  endloop
endfacet
facet normal 1 0 0
  outer loop
    vertex 23183.125 16137.046875 46035.43359375
    vertex 23183.125 15852.2705078125 46084.5859375
    vertex 23183.125 15852.2705078125 46035.43359375
  endloop
endfacet
facet normal 1 0 0
  outer loop
    vertex 23183.125 15852.2705078125 46084.5859375
    vertex 23183.125 16137.046875 46035.43359375
    vertex 23183.125 16137.046875 46084.5859375
  endloop
endfacet
facet normal 0.3126607537269592 3.495951142268793e-16 -0.9498648643493652
  outer loop
    vertex 23183.125 16137.046875 46035.43359375
    vertex 23155.466796875 15882.0234375 46016.34375
    vertex 23155.466796875 16137.046875 46016.34375
  endloop
endfacet
facet normal 0.3126607537269592 3.495951142268793e-16 -0.9498648643493652
  outer loop
    vertex 23155.466796875 15882.0234375 46016.34375
    vertex 20639.83203125 15852.2705078125 44279.87890625
    vertex 20639.83203125 15882.0234375 44279.87890625
  endloop
endfacet
facet normal 0.3126607537269592 3.495951142268793e-16 -0.9498648643493652
  outer loop
    vertex 20639.83203125 15852.2705078125 44279.87890625
    vertex 23155.466796875 15882.0234375 46016.34375
    vertex 23183.125 15852.2705078125 46035.43359375
  endloop
endfacet
facet normal 0.3126607537269592 3.495951142268793e-16 -0.9498648643493652
  outer loop
    vertex 23183.125 15852.2705078125 46035.43359375
    vertex 23155.466796875 15882.0234375 46016.34375
    vertex 23183.125 16137.046875 46035.43359375
  endloop
endfacet
facet normal 0 1 0
  outer loop
    vertex 23155.466796875 16137.046875 46065.49609375
    vertex 23183.125 16137.046875 46035.43359375
    vertex 23155.466796875 16137.046875 46016.34375
  endloop
endfacet
facet normal 0 1 0
  outer loop
    vertex 23183.125 16137.046875 46035.43359375
    vertex 23155.466796875 16137.046875 46065.49609375
    vertex 23183.125 16137.046875 46084.5859375
  endloop
endfacet
facet normal 0 1 0
  outer loop
    vertex 23183.125 16137.046875 46084.5859375
    vertex 23155.466796875 16137.046875 46065.49609375
    vertex 23169.94140625 16137.046875 46075.48828125
  endloop
endfacet
facet normal -1 0 0
  outer loop
    vertex 23155.466796875 16137.046875 46065.49609375
    vertex 23155.466796875 15882.0234375 46016.34375
    vertex 23155.466796875 15882.0234375 46065.49609375
  endloop
endfacet
facet normal -1 0 0
  outer loop
    vertex 23155.466796875 15882.0234375 46016.34375
    vertex 23155.466796875 16137.046875 46065.49609375
    vertex 23155.466796875 16137.046875 46016.34375
  endloop
endfacet
facet normal 2.470313179275124e-13 -2.55448900964364e-13 -1
  outer loop
    vertex 23149.50390625 16107.294921875 45150.3828125
    vertex 23183.125 16137.046875 45150.3828125
    vertex 23183.125 16107.294921875 45150.3828125
  endloop
endfacet
facet normal 2.470313179275124e-13 -2.55448900964364e-13 -1
  outer loop
    vertex 23183.125 16137.046875 45150.3828125
    vertex 23149.50390625 16107.294921875 45150.3828125
    vertex 23149.50390625 16137.046875 45150.3828125
  endloop
endfacet
facet normal -3.635643489822288e-13 -1 -1.908700485804462e-14
  outer loop
    vertex 23183.125 16107.294921875 45150.3828125
    vertex 23149.50390625 16107.294921875 46058.640625
    vertex 23149.50390625 16107.294921875 45150.3828125
  endloop
endfacet
facet normal -3.635643489822288e-13 -1 -1.908700485804462e-14
  outer loop
    vertex 23149.50390625 16107.294921875 46058.640625
    vertex 23183.125 16107.294921875 45150.3828125
    vertex 23183.125 16107.294921875 46084.5859375
  endloop
endfacet
facet normal -3.635643489822288e-13 -1 -1.908700485804462e-14
  outer loop
    vertex 23149.50390625 16107.294921875 46058.640625
    vertex 23183.125 16107.294921875 46084.5859375
    vertex 23121.84765625 16107.294921875 46077.734375
  endloop
endfacet
facet normal -3.635643489822288e-13 -1 -1.908700485804462e-14
  outer loop
    vertex 23121.84765625 16107.294921875 46077.734375
    vertex 23183.125 16107.294921875 46084.5859375
    vertex 20606.2109375 16107.294921875 47814.19921875
  endloop
endfacet
facet normal -3.635643489822288e-13 -1 -1.908700485804462e-14
  outer loop
    vertex 20606.2109375 16107.294921875 47814.19921875
    vertex 23183.125 16107.294921875 46084.5859375
    vertex 20606.2109375 16107.294921875 47863.34765625
  endloop
endfacet
facet normal 0.3126607537269592 -1.095405978922791e-13 0.9498648643493652
  outer loop
    vertex 20591.736328125 16137.046875 47873.33984375
    vertex 23183.125 16107.294921875 46084.5859375
    vertex 23183.125 16137.046875 46084.5859375
  endloop
endfacet
facet normal 0.3126607537269592 -1.095405978922791e-13 0.9498648643493652
  outer loop
    vertex 23183.125 16107.294921875 46084.5859375
    vertex 20591.736328125 16137.046875 47873.33984375
    vertex 20606.2109375 16107.294921875 47863.34765625
  endloop
endfacet
facet normal 0.3126607537269592 -1.095405978922791e-13 0.9498648643493652
  outer loop
    vertex 20606.2109375 16107.294921875 47863.34765625
    vertex 20591.736328125 16137.046875 47873.33984375
    vertex 20606.2109375 15852.2705078125 47863.34765625
  endloop
endfacet
facet normal 0.3126607537269592 -1.095405978922791e-13 0.9498648643493652
  outer loop
    vertex 20606.2109375 15852.2705078125 47863.34765625
    vertex 20591.736328125 16137.046875 47873.33984375
    vertex 20591.736328125 15852.2705078125 47873.33984375
  endloop
endfacet
facet normal 1 -3.519970502140896e-13 0
  outer loop
    vertex 23183.125 16137.046875 46084.5859375
    vertex 23183.125 16107.294921875 45150.3828125
    vertex 23183.125 16137.046875 45150.3828125
  endloop
endfacet
facet normal 1 -3.519970502140896e-13 0
  outer loop
    vertex 23183.125 16107.294921875 45150.3828125
    vertex 23183.125 16137.046875 46084.5859375
    vertex 23183.125 16107.294921875 46084.5859375
  endloop
endfacet
facet normal -0.3126607537269592 1.149774855402699e-13 -0.9498648643493652
  outer loop
    vertex 23121.84765625 16107.294921875 46077.734375
    vertex 23149.50390625 16137.046875 46058.640625
    vertex 23149.50390625 16107.294921875 46058.640625
  endloop
endfacet
facet normal -0.3126607537269592 1.149774855402699e-13 -0.9498648643493652
  outer loop
    vertex 23149.50390625 16137.046875 46058.640625
    vertex 23121.84765625 16107.294921875 46077.734375
    vertex 23121.84765625 16137.046875 46077.734375
  endloop
endfacet
facet normal -1 3.519970502140896e-13 0
  outer loop
    vertex 23149.50390625 16107.294921875 45150.3828125
    vertex 23149.50390625 16137.046875 46058.640625
    vertex 23149.50390625 16137.046875 45150.3828125
  endloop
endfacet
facet normal -1 3.519970502140896e-13 0
  outer loop
    vertex 23149.50390625 16137.046875 46058.640625
    vertex 23149.50390625 16107.294921875 45150.3828125
    vertex 23149.50390625 16107.294921875 46058.640625
  endloop
endfacet
facet normal 3.633338476003584e-13 1 1.692003199875447e-14
  outer loop
    vertex 23149.50390625 16137.046875 46058.640625
    vertex 23183.125 16137.046875 45150.3828125
    vertex 23149.50390625 16137.046875 45150.3828125
  endloop
endfacet
facet normal 3.633338476003584e-13 1 1.692003199875447e-14
  outer loop
    vertex 23183.125 16137.046875 45150.3828125
    vertex 23149.50390625 16137.046875 46058.640625
    vertex 23183.125 16137.046875 46084.5859375
  endloop
endfacet
facet normal 3.633338476003584e-13 1 1.692003199875447e-14
  outer loop
    vertex 23183.125 16137.046875 46084.5859375
    vertex 23149.50390625 16137.046875 46058.640625
    vertex 23121.84765625 16137.046875 46077.734375
  endloop
endfacet
facet normal 3.633338476003584e-13 1 1.692003199875447e-14
  outer loop
    vertex 23183.125 16137.046875 46084.5859375
    vertex 23121.84765625 16137.046875 46077.734375
    vertex 20578.552734375 16137.046875 47833.2890625
  endloop
endfacet
facet normal 3.633338476003584e-13 1 1.692003199875447e-14
  outer loop
    vertex 23183.125 16137.046875 46084.5859375
    vertex 20578.552734375 16137.046875 47833.2890625
    vertex 20591.736328125 16137.046875 47873.33984375
  endloop
endfacet
facet normal 3.633338476003584e-13 1 1.692003199875447e-14
  outer loop
    vertex 20591.736328125 16137.046875 47873.33984375
    vertex 20578.552734375 16137.046875 47833.2890625
    vertex 20578.552734375 16137.046875 47882.44140625
  endloop
endfacet
facet normal 0.3126607537269592 -1.100617128902207e-13 0.9498648643493652
  outer loop
    vertex 20578.552734375 16137.046875 47882.44140625
    vertex 20591.736328125 15852.2705078125 47873.33984375
    vertex 20591.736328125 16137.046875 47873.33984375
  endloop
endfacet
facet normal 0.3126607537269592 -1.100617128902207e-13 0.9498648643493652
  outer loop
    vertex 20591.736328125 15852.2705078125 47873.33984375
    vertex 20578.552734375 16137.046875 47882.44140625
    vertex 20578.552734375 15852.2705078125 47882.44140625
  endloop
endfacet
facet normal -1 3.519970502140896e-13 0
  outer loop
    vertex 20578.552734375 15852.2705078125 47833.2890625
    vertex 20578.552734375 16137.046875 47882.44140625
    vertex 20578.552734375 16137.046875 47833.2890625
  endloop
endfacet
facet normal -1 3.519970502140896e-13 0
  outer loop
    vertex 20578.552734375 16137.046875 47882.44140625
    vertex 20578.552734375 15852.2705078125 47833.2890625
    vertex 20578.552734375 15852.2705078125 47882.44140625
  endloop
endfacet
facet normal -0.3126607537269592 1.097060606963275e-13 -0.9498648643493652
  outer loop
    vertex 20578.552734375 15852.2705078125 47833.2890625
    vertex 20606.2109375 16107.294921875 47814.19921875
    vertex 20606.2109375 15852.2705078125 47814.19921875
  endloop
endfacet
facet normal -0.3126607537269592 1.097060606963275e-13 -0.9498648643493652
  outer loop
    vertex 20606.2109375 16107.294921875 47814.19921875
    vertex 20578.552734375 15852.2705078125 47833.2890625
    vertex 20578.552734375 16137.046875 47833.2890625
  endloop
endfacet
facet normal -0.3126607537269592 1.097060606963275e-13 -0.9498648643493652
  outer loop
    vertex 20606.2109375 16107.294921875 47814.19921875
    vertex 23121.84765625 16137.046875 46077.734375
    vertex 23121.84765625 16107.294921875 46077.734375
  endloop
endfacet
facet normal -0.3126607537269592 1.097060606963275e-13 -0.9498648643493652
  outer loop
    vertex 23121.84765625 16137.046875 46077.734375
    vertex 20606.2109375 16107.294921875 47814.19921875
    vertex 20578.552734375 16137.046875 47833.2890625
  endloop
endfacet
facet normal -3.732769573040057e-13 -1 0
  outer loop
    vertex 20606.2109375 15852.2705078125 47863.34765625
    vertex 20578.552734375 15852.2705078125 47833.2890625
    vertex 20606.2109375 15852.2705078125 47814.19921875
  endloop
endfacet
facet normal -3.732769573040057e-13 -1 0
  outer loop
    vertex 20578.552734375 15852.2705078125 47833.2890625
    vertex 20606.2109375 15852.2705078125 47863.34765625
    vertex 20591.736328125 15852.2705078125 47873.33984375
  endloop
endfacet
facet normal -3.732769573040057e-13 -1 0
  outer loop
    vertex 20578.552734375 15852.2705078125 47833.2890625
    vertex 20591.736328125 15852.2705078125 47873.33984375
    vertex 20578.552734375 15852.2705078125 47882.44140625
  endloop
endfacet
facet normal 1 -3.519970502140896e-13 0
  outer loop
    vertex 20606.2109375 15852.2705078125 47863.34765625
    vertex 20606.2109375 16107.294921875 47814.19921875
    vertex 20606.2109375 16107.294921875 47863.34765625
  endloop
endfacet
facet normal 1 -3.519970502140896e-13 0
  outer loop
    vertex 20606.2109375 16107.294921875 47814.19921875
    vertex 20606.2109375 15852.2705078125 47863.34765625
    vertex 20606.2109375 15852.2705078125 47814.19921875
  endloop
endfacet
facet normal 1 -3.204717578548372e-13 1.702297191283429e-14
  outer loop
    vertex 23183.125 15882.0234375 46084.5859375
    vertex 23183.125 15852.2705078125 45150.3828125
    vertex 23183.125 15882.0234375 45150.3828125
  endloop
endfacet
facet normal 1 -3.204717578548372e-13 1.702297191283429e-14
  outer loop
    vertex 23183.125 15852.2705078125 45150.3828125
    vertex 23183.125 15882.0234375 46084.5859375
    vertex 23183.125 15852.2705078125 46084.5859375
  endloop
endfacet
facet normal -1 2.403538251673915e-13 -2.342772345207116e-14
  outer loop
    vertex 23140.9296875 15852.2705078125 45150.3828125
    vertex 23140.9296875 15882.0234375 46055.4609375
    vertex 23140.9296875 15882.0234375 45150.3828125
  endloop
endfacet
facet normal -1 2.403538251673915e-13 -2.342772345207116e-14
  outer loop
    vertex 23140.9296875 15882.0234375 46055.4609375
    vertex 23140.9296875 15852.2705078125 45150.3828125
    vertex 23140.9296875 15852.2705078125 46055.4609375
  endloop
endfacet
facet normal -2.38983502041587e-13 -1 -4.728703390769091e-14
  outer loop
    vertex 23183.125 15852.2705078125 45150.3828125
    vertex 23140.9296875 15852.2705078125 46055.4609375
    vertex 23140.9296875 15852.2705078125 45150.3828125
  endloop
endfacet
facet normal -2.38983502041587e-13 -1 -4.728703390769091e-14
  outer loop
    vertex 23140.9296875 15852.2705078125 46055.4609375
    vertex 23183.125 15852.2705078125 45150.3828125
    vertex 23183.125 15852.2705078125 46084.5859375
  endloop
endfacet
facet normal 8.117623259240418e-15 -5.255936744857914e-13 -1
  outer loop
    vertex 23140.9296875 15852.2705078125 45150.3828125
    vertex 23183.125 15882.0234375 45150.3828125
    vertex 23183.125 15852.2705078125 45150.3828125
  endloop
endfacet
facet normal 8.117623259240418e-15 -5.255936744857914e-13 -1
  outer loop
    vertex 23183.125 15882.0234375 45150.3828125
    vertex 23140.9296875 15852.2705078125 45150.3828125
    vertex 23140.9296875 15882.0234375 45150.3828125
  endloop
endfacet
facet normal 2.771152990237169e-13 1 4.332250975059432e-14
  outer loop
    vertex 23140.9296875 15882.0234375 46055.4609375
    vertex 23183.125 15882.0234375 45150.3828125
    vertex 23140.9296875 15882.0234375 45150.3828125
  endloop
endfacet
facet normal 2.771152990237169e-13 1 4.332250975059432e-14
  outer loop
    vertex 23183.125 15882.0234375 45150.3828125
    vertex 23140.9296875 15882.0234375 46055.4609375
    vertex 23183.125 15882.0234375 46084.5859375
  endloop
endfacet
facet normal -0.3126607537269592 2.361154349296568e-13 0.9498648643493652
  outer loop
    vertex 23140.9296875 15882.0234375 46055.4609375
    vertex 23183.125 15852.2705078125 46084.5859375
    vertex 23183.125 15882.0234375 46084.5859375
  endloop
endfacet
facet normal -0.3126607537269592 2.361154349296568e-13 0.9498648643493652
  outer loop
    vertex 23183.125 15852.2705078125 46084.5859375
    vertex 23140.9296875 15882.0234375 46055.4609375
    vertex 23140.9296875 15852.2705078125 46055.4609375
  endloop
endfacet
facet normal -5.265415382350869e-13 2.980629198318097e-12 -1
  outer loop
    vertex 23117.08203125 17449.39453125 44962.765625
    vertex 23183.126953125 16087.669921875 44962.765625
    vertex 23117.08203125 16087.669921875 44962.765625
  endloop
endfacet
facet normal -5.265415382350869e-13 2.980629198318097e-12 -1
  outer loop
    vertex 23183.126953125 16087.669921875 44962.765625
    vertex 23117.08203125 17449.39453125 44962.765625
    vertex 23908.76171875 17449.39453125 44962.765625
  endloop
endfacet
facet normal -5.265415382350869e-13 2.980629198318097e-12 -1
  outer loop
    vertex 23183.125 15869.2255859375 44962.765625
    vertex 23117.08203125 14802.5908203125 44962.765625
    vertex 23117.08203125 15869.22265625 44962.765625
  endloop
endfacet
facet normal -5.265415382350869e-13 2.980629198318097e-12 -1
  outer loop
    vertex 23117.08203125 14802.5908203125 44962.765625
    vertex 23183.125 15869.2255859375 44962.765625
    vertex 24857.919921875 14802.5908203125 44962.765625
  endloop
endfacet
facet normal -5.265415382350869e-13 2.980629198318097e-12 -1
  outer loop
    vertex 24857.919921875 14802.5908203125 44962.765625
    vertex 23183.125 15869.2255859375 44962.765625
    vertex 23183.126953125 16087.669921875 44962.765625
  endloop
endfacet
facet normal -5.265415382350869e-13 2.980629198318097e-12 -1
  outer loop
    vertex 24857.919921875 14802.5908203125 44962.765625
    vertex 23183.126953125 16087.669921875 44962.765625
    vertex 23908.76171875 17449.39453125 44962.765625
  endloop
endfacet
facet normal -5.265415382350869e-13 2.980629198318097e-12 -1
  outer loop
    vertex 24857.919921875 14802.5908203125 44962.765625
    vertex 23908.76171875 17449.39453125 44962.765625
    vertex 24857.919921875 17449.39453125 44962.765625
  endloop
endfacet
facet normal 5.265415382350869e-13 -2.980629198318097e-12 1
  outer loop
    vertex 23117.08203125 14802.5908203125 45150.3828125
    vertex 23183.125 15869.2255859375 45150.3828125
    vertex 23117.08203125 15869.22265625 45150.3828125
  endloop
endfacet
facet normal 5.265415382350869e-13 -2.980629198318097e-12 1
  outer loop
    vertex 23183.125 15869.2255859375 45150.3828125
    vertex 23117.08203125 14802.5908203125 45150.3828125
    vertex 24857.919921875 14802.5908203125 45150.3828125
  endloop
endfacet
facet normal 5.265415382350869e-13 -2.980629198318097e-12 1
  outer loop
    vertex 23183.125 15869.2255859375 45150.3828125
    vertex 24857.919921875 14802.5908203125 45150.3828125
    vertex 23183.126953125 16087.669921875 45150.3828125
  endloop
endfacet
facet normal 5.265415382350869e-13 -2.980629198318097e-12 1
  outer loop
    vertex 23183.126953125 16087.669921875 45150.3828125
    vertex 24857.919921875 14802.5908203125 45150.3828125
    vertex 23908.76171875 17449.39453125 45150.3828125
  endloop
endfacet
facet normal 5.265415382350869e-13 -2.980629198318097e-12 1
  outer loop
    vertex 23908.76171875 17449.39453125 45150.3828125
    vertex 24857.919921875 14802.5908203125 45150.3828125
    vertex 24857.919921875 17449.39453125 45150.3828125
  endloop
endfacet
facet normal 5.265415382350869e-13 -2.980629198318097e-12 1
  outer loop
    vertex 23183.126953125 16087.669921875 45150.3828125
    vertex 23117.08203125 17449.39453125 45150.3828125
    vertex 23117.08203125 16087.669921875 45150.3828125
  endloop
endfacet
facet normal 5.265415382350869e-13 -2.980629198318097e-12 1
  outer loop
    vertex 23117.08203125 17449.39453125 45150.3828125
    vertex 23183.126953125 16087.669921875 45150.3828125
    vertex 23908.76171875 17449.39453125 45150.3828125
  endloop
endfacet
facet normal 0 -1 -6.788403172919288e-12
  outer loop
    vertex 24857.919921875 14802.5908203125 45150.3828125
    vertex 23117.08203125 14802.5908203125 44962.765625
    vertex 24857.919921875 14802.5908203125 44962.765625
  endloop
endfacet
facet normal 0 -1 -6.788403172919288e-12
  outer loop
    vertex 23117.08203125 14802.5908203125 44962.765625
    vertex 24857.919921875 14802.5908203125 45150.3828125
    vertex 23117.08203125 14802.5908203125 45150.3828125
  endloop
endfacet
facet normal -1 6.205391393798691e-25 1.943688265892973e-12
  outer loop
    vertex 23117.08203125 15869.22265625 45150.3828125
    vertex 23117.08203125 14802.5908203125 44962.765625
    vertex 23117.08203125 14802.5908203125 45150.3828125
  endloop
endfacet
facet normal -1 6.205391393798691e-25 1.943688265892973e-12
  outer loop
    vertex 23117.08203125 14802.5908203125 44962.765625
    vertex 23117.08203125 15869.22265625 45150.3828125
    vertex 23117.08203125 15869.22265625 44962.765625
  endloop
endfacet
facet normal -2.90232401312096e-05 1 6.788459551432258e-12
  outer loop
    vertex 23117.08203125 15869.22265625 45150.3828125
    vertex 23183.125 15869.2255859375 44962.765625
    vertex 23117.08203125 15869.22265625 44962.765625
  endloop
endfacet
facet normal -2.90232401312096e-05 1 6.788459551432258e-12
  outer loop
    vertex 23183.125 15869.2255859375 44962.765625
    vertex 23117.08203125 15869.22265625 45150.3828125
    vertex 23183.125 15869.2255859375 45150.3828125
  endloop
endfacet
facet normal -1 2.018308805418201e-06 1.943701926840347e-12
  outer loop
    vertex 23183.126953125 16087.669921875 45150.3828125
    vertex 23183.125 15869.2255859375 44962.765625
    vertex 23183.125 15869.2255859375 45150.3828125
  endloop
endfacet
facet normal -1 2.018308805418201e-06 1.943701926840347e-12
  outer loop
    vertex 23183.125 15869.2255859375 44962.765625
    vertex 23183.126953125 16087.669921875 45150.3828125
    vertex 23183.126953125 16087.669921875 44962.765625
  endloop
endfacet
facet normal -1.765344109116995e-06 -1 -6.788399703472336e-12
  outer loop
    vertex 23183.126953125 16087.669921875 45150.3828125
    vertex 23117.08203125 16087.669921875 44962.765625
    vertex 23183.126953125 16087.669921875 44962.765625
  endloop
endfacet
facet normal -1.765344109116995e-06 -1 -6.788399703472336e-12
  outer loop
    vertex 23117.08203125 16087.669921875 44962.765625
    vertex 23183.126953125 16087.669921875 45150.3828125
    vertex 23117.08203125 16087.669921875 45150.3828125
  endloop
endfacet
facet normal -1 -2.147289165886819e-23 1.943688265892973e-12
  outer loop
    vertex 23117.08203125 17449.39453125 45150.3828125
    vertex 23117.08203125 16087.669921875 44962.765625
    vertex 23117.08203125 16087.669921875 45150.3828125
  endloop
endfacet
facet normal -1 -2.147289165886819e-23 1.943688265892973e-12
  outer loop
    vertex 23117.08203125 16087.669921875 44962.765625
    vertex 23117.08203125 17449.39453125 45150.3828125
    vertex 23117.08203125 17449.39453125 44962.765625
  endloop
endfacet
facet normal 1.787779297853822e-24 1 6.788403172919288e-12
  outer loop
    vertex 23117.08203125 17449.39453125 44962.765625
    vertex 23908.76171875 17449.39453125 45150.3828125
    vertex 23908.76171875 17449.39453125 44962.765625
  endloop
endfacet
facet normal 1.787779297853822e-24 1 6.788403172919288e-12
  outer loop
    vertex 23908.76171875 17449.39453125 45150.3828125
    vertex 23117.08203125 17449.39453125 44962.765625
    vertex 23117.08203125 17449.39453125 45150.3828125
  endloop
endfacet
facet normal 2.268176017014914e-13 1 6.788403172919288e-12
  outer loop
    vertex 23908.76171875 17449.39453125 44962.765625
    vertex 24857.919921875 17449.39453125 45150.3828125
    vertex 24857.919921875 17449.39453125 44962.765625
  endloop
endfacet
facet normal 2.268176017014914e-13 1 6.788403172919288e-12
  outer loop
    vertex 24857.919921875 17449.39453125 45150.3828125
    vertex 23908.76171875 17449.39453125 44962.765625
    vertex 23908.76171875 17449.39453125 45150.3828125
  endloop
endfacet
facet normal 1 -1.428101479303626e-13 -1.943688265892973e-12
  outer loop
    vertex 24857.919921875 14802.5908203125 44962.765625
    vertex 24857.919921875 17449.39453125 45150.3828125
    vertex 24857.919921875 14802.5908203125 45150.3828125
  endloop
endfacet
facet normal 1 -1.428101479303626e-13 -1.943688265892973e-12
  outer loop
    vertex 24857.919921875 17449.39453125 45150.3828125
    vertex 24857.919921875 14802.5908203125 44962.765625
    vertex 24857.919921875 17449.39453125 44962.765625
  endloop
endfacet
facet normal -7.309172789918246e-42 -2.510128606705853e-13 -1
  outer loop
    vertex 21005.724609375 17449.39453125 46600.60546875
    vertex 20741.8046875 16382.6435546875 46600.60546875
    vertex 20741.8046875 17449.39453125 46600.60546875
  endloop
endfacet
facet normal -7.309172789918246e-42 -2.510128606705853e-13 -1
  outer loop
    vertex 20741.8046875 16382.6435546875 46600.60546875
    vertex 21005.724609375 17449.39453125 46600.60546875
    vertex 21005.724609375 16382.6435546875 46600.60546875
  endloop
endfacet
facet normal 7.309172789918246e-42 2.510128606705853e-13 1
  outer loop
    vertex 21005.724609375 16382.6435546875 46781.8828125
    vertex 20741.8046875 17449.39453125 46781.8828125
    vertex 20741.8046875 16382.6435546875 46781.8828125
  endloop
endfacet
facet normal 7.309172789918246e-42 2.510128606705853e-13 1
  outer loop
    vertex 20741.8046875 17449.39453125 46781.8828125
    vertex 21005.724609375 16382.6435546875 46781.8828125
    vertex 21005.724609375 17449.39453125 46781.8828125
  endloop
endfacet
facet normal 1 -0 -1.517746366710209e-41
  outer loop
    vertex 21005.724609375 17449.39453125 46600.60546875
    vertex 21005.724609375 16382.6435546875 46781.8828125
    vertex 21005.724609375 16382.6435546875 46600.60546875
  endloop
endfacet
facet normal 1 -0 -1.517746366710209e-41
  outer loop
    vertex 21005.724609375 16382.6435546875 46781.8828125
    vertex 21005.724609375 17449.39453125 46600.60546875
    vertex 21005.724609375 17449.39453125 46781.8828125
  endloop
endfacet
facet normal 0 -1 5.716834883089106e-13
  outer loop
    vertex 21005.724609375 16382.6435546875 46781.8828125
    vertex 20741.8046875 16382.6435546875 46600.60546875
    vertex 21005.724609375 16382.6435546875 46600.60546875
  endloop
endfacet
facet normal 0 -1 5.716834883089106e-13
  outer loop
    vertex 20741.8046875 16382.6435546875 46600.60546875
    vertex 21005.724609375 16382.6435546875 46781.8828125
    vertex 20741.8046875 16382.6435546875 46781.8828125
  endloop
endfacet
facet normal -1 0 1.517746366710209e-41
  outer loop
    vertex 20741.8046875 16382.6435546875 46781.8828125
    vertex 20741.8046875 17449.39453125 46600.60546875
    vertex 20741.8046875 16382.6435546875 46600.60546875
  endloop
endfacet
facet normal -1 0 1.517746366710209e-41
  outer loop
    vertex 20741.8046875 17449.39453125 46600.60546875
    vertex 20741.8046875 16382.6435546875 46781.8828125
    vertex 20741.8046875 17449.39453125 46781.8828125
  endloop
endfacet
facet normal 0 1 -5.716834883089106e-13
  outer loop
    vertex 20741.8046875 17449.39453125 46781.8828125
    vertex 21005.724609375 17449.39453125 46600.60546875
    vertex 20741.8046875 17449.39453125 46600.60546875
  endloop
endfacet
facet normal 0 1 -5.716834883089106e-13
  outer loop
    vertex 21005.724609375 17449.39453125 46600.60546875
    vertex 20741.8046875 17449.39453125 46781.8828125
    vertex 21005.724609375 17449.39453125 46781.8828125
  endloop
endfacet
facet normal -7.309172789918246e-42 -2.510128606705853e-13 -1
  outer loop
    vertex 22061.404296875 17449.39453125 45875.4921875
    vertex 21797.484375 16382.6435546875 45875.4921875
    vertex 21797.484375 17449.39453125 45875.4921875
  endloop
endfacet
facet normal -7.309172789918246e-42 -2.510128606705853e-13 -1
  outer loop
    vertex 21797.484375 16382.6435546875 45875.4921875
    vertex 22061.404296875 17449.39453125 45875.4921875
    vertex 22061.404296875 16382.6435546875 45875.4921875
  endloop
endfacet
facet normal 7.309172789918246e-42 2.510128606705853e-13 1
  outer loop
    vertex 22061.404296875 16382.6435546875 46056.7734375
    vertex 21797.484375 17449.39453125 46056.7734375
    vertex 21797.484375 16382.6435546875 46056.7734375
  endloop
endfacet
facet normal 7.309172789918246e-42 2.510128606705853e-13 1
  outer loop
    vertex 21797.484375 17449.39453125 46056.7734375
    vertex 22061.404296875 16382.6435546875 46056.7734375
    vertex 22061.404296875 17449.39453125 46056.7734375
  endloop
endfacet
facet normal 1 -0 -1.517746366710209e-41
  outer loop
    vertex 22061.404296875 17449.39453125 45875.4921875
    vertex 22061.404296875 16382.6435546875 46056.7734375
    vertex 22061.404296875 16382.6435546875 45875.4921875
  endloop
endfacet
facet normal 1 -0 -1.517746366710209e-41
  outer loop
    vertex 22061.404296875 16382.6435546875 46056.7734375
    vertex 22061.404296875 17449.39453125 45875.4921875
    vertex 22061.404296875 17449.39453125 46056.7734375
  endloop
endfacet
facet normal 0 -1 5.716834883089106e-13
  outer loop
    vertex 22061.404296875 16382.6435546875 46056.7734375
    vertex 21797.484375 16382.6435546875 45875.4921875
    vertex 22061.404296875 16382.6435546875 45875.4921875
  endloop
endfacet
facet normal 0 -1 5.716834883089106e-13
  outer loop
    vertex 21797.484375 16382.6435546875 45875.4921875
    vertex 22061.404296875 16382.6435546875 46056.7734375
    vertex 21797.484375 16382.6435546875 46056.7734375
  endloop
endfacet
facet normal -1 0 1.517746366710209e-41
  outer loop
    vertex 21797.484375 16382.6435546875 46056.7734375
    vertex 21797.484375 17449.39453125 45875.4921875
    vertex 21797.484375 16382.6435546875 45875.4921875
  endloop
endfacet
facet normal -1 0 1.517746366710209e-41
  outer loop
    vertex 21797.484375 17449.39453125 45875.4921875
    vertex 21797.484375 16382.6435546875 46056.7734375
    vertex 21797.484375 17449.39453125 46056.7734375
  endloop
endfacet
facet normal 0 1 -5.716834883089106e-13
  outer loop
    vertex 21797.484375 17449.39453125 46056.7734375
    vertex 22061.404296875 17449.39453125 45875.4921875
    vertex 21797.484375 17449.39453125 45875.4921875
  endloop
endfacet
facet normal 0 1 -5.716834883089106e-13
  outer loop
    vertex 22061.404296875 17449.39453125 45875.4921875
    vertex 21797.484375 17449.39453125 46056.7734375
    vertex 22061.404296875 17449.39453125 46056.7734375
  endloop
endfacet
facet normal -7.309172789918246e-42 -2.510128606705853e-13 -1
  outer loop
    vertex 21533.564453125 17449.39453125 46238.05078125
    vertex 21269.64453125 16382.6435546875 46238.05078125
    vertex 21269.64453125 17449.39453125 46238.05078125
  endloop
endfacet
facet normal -7.309172789918246e-42 -2.510128606705853e-13 -1
  outer loop
    vertex 21269.64453125 16382.6435546875 46238.05078125
    vertex 21533.564453125 17449.39453125 46238.05078125
    vertex 21533.564453125 16382.6435546875 46238.05078125
  endloop
endfacet
facet normal 7.309172789918246e-42 2.510128606705853e-13 1
  outer loop
    vertex 21533.564453125 16382.6435546875 46419.328125
    vertex 21269.64453125 17449.39453125 46419.328125
    vertex 21269.64453125 16382.6435546875 46419.328125
  endloop
endfacet
facet normal 7.309172789918246e-42 2.510128606705853e-13 1
  outer loop
    vertex 21269.64453125 17449.39453125 46419.328125
    vertex 21533.564453125 16382.6435546875 46419.328125
    vertex 21533.564453125 17449.39453125 46419.328125
  endloop
endfacet
facet normal 1 -0 -1.517746366710209e-41
  outer loop
    vertex 21533.564453125 17449.39453125 46238.05078125
    vertex 21533.564453125 16382.6435546875 46419.328125
    vertex 21533.564453125 16382.6435546875 46238.05078125
  endloop
endfacet
facet normal 1 -0 -1.517746366710209e-41
  outer loop
    vertex 21533.564453125 16382.6435546875 46419.328125
    vertex 21533.564453125 17449.39453125 46238.05078125
    vertex 21533.564453125 17449.39453125 46419.328125
  endloop
endfacet
facet normal 0 -1 5.716834883089106e-13
  outer loop
    vertex 21533.564453125 16382.6435546875 46419.328125
    vertex 21269.64453125 16382.6435546875 46238.05078125
    vertex 21533.564453125 16382.6435546875 46238.05078125
  endloop
endfacet
facet normal 0 -1 5.716834883089106e-13
  outer loop
    vertex 21269.64453125 16382.6435546875 46238.05078125
    vertex 21533.564453125 16382.6435546875 46419.328125
    vertex 21269.64453125 16382.6435546875 46419.328125
  endloop
endfacet
facet normal -1 0 1.517746366710209e-41
  outer loop
    vertex 21269.64453125 16382.6435546875 46419.328125
    vertex 21269.64453125 17449.39453125 46238.05078125
    vertex 21269.64453125 16382.6435546875 46238.05078125
  endloop
endfacet
facet normal -1 0 1.517746366710209e-41
  outer loop
    vertex 21269.64453125 17449.39453125 46238.05078125
    vertex 21269.64453125 16382.6435546875 46419.328125
    vertex 21269.64453125 17449.39453125 46419.328125
  endloop
endfacet
facet normal 0 1 -5.716834883089106e-13
  outer loop
    vertex 21269.64453125 17449.39453125 46419.328125
    vertex 21533.564453125 17449.39453125 46238.05078125
    vertex 21269.64453125 17449.39453125 46238.05078125
  endloop
endfacet
facet normal 0 1 -5.716834883089106e-13
  outer loop
    vertex 21533.564453125 17449.39453125 46238.05078125
    vertex 21269.64453125 17449.39453125 46419.328125
    vertex 21533.564453125 17449.39453125 46419.328125
  endloop
endfacet
facet normal -7.309172789918246e-42 -2.510128606705853e-13 -1
  outer loop
    vertex 21269.64453125 17449.39453125 46419.328125
    vertex 21005.724609375 16382.6435546875 46419.328125
    vertex 21005.724609375 17449.39453125 46419.328125
  endloop
endfacet
facet normal -7.309172789918246e-42 -2.510128606705853e-13 -1
  outer loop
    vertex 21005.724609375 16382.6435546875 46419.328125
    vertex 21269.64453125 17449.39453125 46419.328125
    vertex 21269.64453125 16382.6435546875 46419.328125
  endloop
endfacet
facet normal 7.309172789918246e-42 2.510128606705853e-13 1
  outer loop
    vertex 21269.64453125 16382.6435546875 46600.60546875
    vertex 21005.724609375 17449.39453125 46600.60546875
    vertex 21005.724609375 16382.6435546875 46600.60546875
  endloop
endfacet
facet normal 7.309172789918246e-42 2.510128606705853e-13 1
  outer loop
    vertex 21005.724609375 17449.39453125 46600.60546875
    vertex 21269.64453125 16382.6435546875 46600.60546875
    vertex 21269.64453125 17449.39453125 46600.60546875
  endloop
endfacet
facet normal 1 -0 -1.517746366710209e-41
  outer loop
    vertex 21269.64453125 17449.39453125 46419.328125
    vertex 21269.64453125 16382.6435546875 46600.60546875
    vertex 21269.64453125 16382.6435546875 46419.328125
  endloop
endfacet
facet normal 1 -0 -1.517746366710209e-41
  outer loop
    vertex 21269.64453125 16382.6435546875 46600.60546875
    vertex 21269.64453125 17449.39453125 46419.328125
    vertex 21269.64453125 17449.39453125 46600.60546875
  endloop
endfacet
facet normal 0 -1 5.716834883089106e-13
  outer loop
    vertex 21269.64453125 16382.6435546875 46600.60546875
    vertex 21005.724609375 16382.6435546875 46419.328125
    vertex 21269.64453125 16382.6435546875 46419.328125
  endloop
endfacet
facet normal 0 -1 5.716834883089106e-13
  outer loop
    vertex 21005.724609375 16382.6435546875 46419.328125
    vertex 21269.64453125 16382.6435546875 46600.60546875
    vertex 21005.724609375 16382.6435546875 46600.60546875
  endloop
endfacet
facet normal -1 0 1.517746366710209e-41
  outer loop
    vertex 21005.724609375 16382.6435546875 46600.60546875
    vertex 21005.724609375 17449.39453125 46419.328125
    vertex 21005.724609375 16382.6435546875 46419.328125
  endloop
endfacet
facet normal -1 0 1.517746366710209e-41
  outer loop
    vertex 21005.724609375 17449.39453125 46419.328125
    vertex 21005.724609375 16382.6435546875 46600.60546875
    vertex 21005.724609375 17449.39453125 46600.60546875
  endloop
endfacet
facet normal 0 1 -5.716834883089106e-13
  outer loop
    vertex 21005.724609375 17449.39453125 46600.60546875
    vertex 21269.64453125 17449.39453125 46419.328125
    vertex 21005.724609375 17449.39453125 46419.328125
  endloop
endfacet
facet normal 0 1 -5.716834883089106e-13
  outer loop
    vertex 21269.64453125 17449.39453125 46419.328125
    vertex 21005.724609375 17449.39453125 46600.60546875
    vertex 21269.64453125 17449.39453125 46600.60546875
  endloop
endfacet
facet normal -7.309172789918246e-42 -2.510128606705853e-13 -1
  outer loop
    vertex 22325.32421875 17449.39453125 45694.21484375
    vertex 22061.404296875 16382.6435546875 45694.21484375
    vertex 22061.404296875 17449.39453125 45694.21484375
  endloop
endfacet
facet normal -7.309172789918246e-42 -2.510128606705853e-13 -1
  outer loop
    vertex 22061.404296875 16382.6435546875 45694.21484375
    vertex 22325.32421875 17449.39453125 45694.21484375
    vertex 22325.32421875 16382.6435546875 45694.21484375
  endloop
endfacet
facet normal 7.309172789918246e-42 2.510128606705853e-13 1
  outer loop
    vertex 22325.32421875 16382.6435546875 45875.4921875
    vertex 22061.404296875 17449.39453125 45875.4921875
    vertex 22061.404296875 16382.6435546875 45875.4921875
  endloop
endfacet
facet normal 7.309172789918246e-42 2.510128606705853e-13 1
  outer loop
    vertex 22061.404296875 17449.39453125 45875.4921875
    vertex 22325.32421875 16382.6435546875 45875.4921875
    vertex 22325.32421875 17449.39453125 45875.4921875
  endloop
endfacet
facet normal 1 -0 -1.517746366710209e-41
  outer loop
    vertex 22325.32421875 17449.39453125 45694.21484375
    vertex 22325.32421875 16382.6435546875 45875.4921875
    vertex 22325.32421875 16382.6435546875 45694.21484375
  endloop
endfacet
facet normal 1 -0 -1.517746366710209e-41
  outer loop
    vertex 22325.32421875 16382.6435546875 45875.4921875
    vertex 22325.32421875 17449.39453125 45694.21484375
    vertex 22325.32421875 17449.39453125 45875.4921875
  endloop
endfacet
facet normal 0 -1 5.716834883089106e-13
  outer loop
    vertex 22325.32421875 16382.6435546875 45875.4921875
    vertex 22061.404296875 16382.6435546875 45694.21484375
    vertex 22325.32421875 16382.6435546875 45694.21484375
  endloop
endfacet
facet normal 0 -1 5.716834883089106e-13
  outer loop
    vertex 22061.404296875 16382.6435546875 45694.21484375
    vertex 22325.32421875 16382.6435546875 45875.4921875
    vertex 22061.404296875 16382.6435546875 45875.4921875
  endloop
endfacet
facet normal -1 0 1.517746366710209e-41
  outer loop
    vertex 22061.404296875 16382.6435546875 45875.4921875
    vertex 22061.404296875 17449.39453125 45694.21484375
    vertex 22061.404296875 16382.6435546875 45694.21484375
  endloop
endfacet
facet normal -1 0 1.517746366710209e-41
  outer loop
    vertex 22061.404296875 17449.39453125 45694.21484375
    vertex 22061.404296875 16382.6435546875 45875.4921875
    vertex 22061.404296875 17449.39453125 45875.4921875
  endloop
endfacet
facet normal 0 1 -5.716834883089106e-13
  outer loop
    vertex 22061.404296875 17449.39453125 45875.4921875
    vertex 22325.32421875 17449.39453125 45694.21484375
    vertex 22061.404296875 17449.39453125 45694.21484375
  endloop
endfacet
facet normal 0 1 -5.716834883089106e-13
  outer loop
    vertex 22325.32421875 17449.39453125 45694.21484375
    vertex 22061.404296875 17449.39453125 45875.4921875
    vertex 22325.32421875 17449.39453125 45875.4921875
  endloop
endfacet
facet normal -7.309172789918246e-42 -2.510128606705853e-13 -1
  outer loop
    vertex 20741.8046875 17449.39453125 46781.8828125
    vertex 20477.884765625 16382.6435546875 46781.8828125
    vertex 20477.884765625 17449.39453125 46781.8828125
  endloop
endfacet
facet normal -7.309172789918246e-42 -2.510128606705853e-13 -1
  outer loop
    vertex 20477.884765625 16382.6435546875 46781.8828125
    vertex 20741.8046875 17449.39453125 46781.8828125
    vertex 20741.8046875 16382.6435546875 46781.8828125
  endloop
endfacet
facet normal 7.309172789918246e-42 2.510128606705853e-13 1
  outer loop
    vertex 20741.8046875 16382.6435546875 46963.1640625
    vertex 20477.884765625 17449.39453125 46963.1640625
    vertex 20477.884765625 16382.6435546875 46963.1640625
  endloop
endfacet
facet normal 7.309172789918246e-42 2.510128606705853e-13 1
  outer loop
    vertex 20477.884765625 17449.39453125 46963.1640625
    vertex 20741.8046875 16382.6435546875 46963.1640625
    vertex 20741.8046875 17449.39453125 46963.1640625
  endloop
endfacet
facet normal 1 -0 -1.517746366710209e-41
  outer loop
    vertex 20741.8046875 17449.39453125 46781.8828125
    vertex 20741.8046875 16382.6435546875 46963.1640625
    vertex 20741.8046875 16382.6435546875 46781.8828125
  endloop
endfacet
facet normal 1 -0 -1.517746366710209e-41
  outer loop
    vertex 20741.8046875 16382.6435546875 46963.1640625
    vertex 20741.8046875 17449.39453125 46781.8828125
    vertex 20741.8046875 17449.39453125 46963.1640625
  endloop
endfacet
facet normal 0 -1 5.716834883089106e-13
  outer loop
    vertex 20741.8046875 16382.6435546875 46963.1640625
    vertex 20477.884765625 16382.6435546875 46781.8828125
    vertex 20741.8046875 16382.6435546875 46781.8828125
  endloop
endfacet
facet normal 0 -1 5.716834883089106e-13
  outer loop
    vertex 20477.884765625 16382.6435546875 46781.8828125
    vertex 20741.8046875 16382.6435546875 46963.1640625
    vertex 20477.884765625 16382.6435546875 46963.1640625
  endloop
endfacet
facet normal -1 0 1.517746366710209e-41
  outer loop
    vertex 20477.884765625 16382.6435546875 46963.1640625
    vertex 20477.884765625 17449.39453125 46781.8828125
    vertex 20477.884765625 16382.6435546875 46781.8828125
  endloop
endfacet
facet normal -1 0 1.517746366710209e-41
  outer loop
    vertex 20477.884765625 17449.39453125 46781.8828125
    vertex 20477.884765625 16382.6435546875 46963.1640625
    vertex 20477.884765625 17449.39453125 46963.1640625
  endloop
endfacet
facet normal 0 1 -5.716834883089106e-13
  outer loop
    vertex 20477.884765625 17449.39453125 46963.1640625
    vertex 20741.8046875 17449.39453125 46781.8828125
    vertex 20477.884765625 17449.39453125 46781.8828125
  endloop
endfacet
facet normal 0 1 -5.716834883089106e-13
  outer loop
    vertex 20741.8046875 17449.39453125 46781.8828125
    vertex 20477.884765625 17449.39453125 46963.1640625
    vertex 20741.8046875 17449.39453125 46963.1640625
  endloop
endfacet
facet normal -7.309172789918246e-42 -2.510128606705853e-13 -1
  outer loop
    vertex 21797.484375 17449.39453125 46056.7734375
    vertex 21533.564453125 16382.6435546875 46056.7734375
    vertex 21533.564453125 17449.39453125 46056.7734375
  endloop
endfacet
facet normal -7.309172789918246e-42 -2.510128606705853e-13 -1
  outer loop
    vertex 21533.564453125 16382.6435546875 46056.7734375
    vertex 21797.484375 17449.39453125 46056.7734375
    vertex 21797.484375 16382.6435546875 46056.7734375
  endloop
endfacet
facet normal 7.309172789918246e-42 2.510128606705853e-13 1
  outer loop
    vertex 21797.484375 16382.6435546875 46238.05078125
    vertex 21533.564453125 17449.39453125 46238.05078125
    vertex 21533.564453125 16382.6435546875 46238.05078125
  endloop
endfacet
facet normal 7.309172789918246e-42 2.510128606705853e-13 1
  outer loop
    vertex 21533.564453125 17449.39453125 46238.05078125
    vertex 21797.484375 16382.6435546875 46238.05078125
    vertex 21797.484375 17449.39453125 46238.05078125
  endloop
endfacet
facet normal 1 -0 -1.517746366710209e-41
  outer loop
    vertex 21797.484375 17449.39453125 46056.7734375
    vertex 21797.484375 16382.6435546875 46238.05078125
    vertex 21797.484375 16382.6435546875 46056.7734375
  endloop
endfacet
facet normal 1 -0 -1.517746366710209e-41
  outer loop
    vertex 21797.484375 16382.6435546875 46238.05078125
    vertex 21797.484375 17449.39453125 46056.7734375
    vertex 21797.484375 17449.39453125 46238.05078125
  endloop
endfacet
facet normal 0 -1 5.716834883089106e-13
  outer loop
    vertex 21797.484375 16382.6435546875 46238.05078125
    vertex 21533.564453125 16382.6435546875 46056.7734375
    vertex 21797.484375 16382.6435546875 46056.7734375
  endloop
endfacet
facet normal 0 -1 5.716834883089106e-13
  outer loop
    vertex 21533.564453125 16382.6435546875 46056.7734375
    vertex 21797.484375 16382.6435546875 46238.05078125
    vertex 21533.564453125 16382.6435546875 46238.05078125
  endloop
endfacet
facet normal -1 0 1.517746366710209e-41
  outer loop
    vertex 21533.564453125 16382.6435546875 46238.05078125
    vertex 21533.564453125 17449.39453125 46056.7734375
    vertex 21533.564453125 16382.6435546875 46056.7734375
  endloop
endfacet
facet normal -1 0 1.517746366710209e-41
  outer loop
    vertex 21533.564453125 17449.39453125 46056.7734375
    vertex 21533.564453125 16382.6435546875 46238.05078125
    vertex 21533.564453125 17449.39453125 46238.05078125
  endloop
endfacet
facet normal 0 1 -5.716834883089106e-13
  outer loop
    vertex 21533.564453125 17449.39453125 46238.05078125
    vertex 21797.484375 17449.39453125 46056.7734375
    vertex 21533.564453125 17449.39453125 46056.7734375
  endloop
endfacet
facet normal 0 1 -5.716834883089106e-13
  outer loop
    vertex 21797.484375 17449.39453125 46056.7734375
    vertex 21533.564453125 17449.39453125 46238.05078125
    vertex 21797.484375 17449.39453125 46238.05078125
  endloop
endfacet
facet normal -7.309172789918246e-42 -2.510128606705853e-13 -1
  outer loop
    vertex 23117.08203125 17449.39453125 45150.3828125
    vertex 22853.162109375 16382.6435546875 45150.3828125
    vertex 22853.162109375 17449.39453125 45150.3828125
  endloop
endfacet
facet normal -7.309172789918246e-42 -2.510128606705853e-13 -1
  outer loop
    vertex 22853.162109375 16382.6435546875 45150.3828125
    vertex 23117.08203125 17449.39453125 45150.3828125
    vertex 23117.08203125 16382.6435546875 45150.3828125
  endloop
endfacet
facet normal 7.309172789918246e-42 2.510128606705853e-13 1
  outer loop
    vertex 23117.08203125 16382.6435546875 45331.66015625
    vertex 22853.162109375 17449.39453125 45331.66015625
    vertex 22853.162109375 16382.6435546875 45331.66015625
  endloop
endfacet
facet normal 7.309172789918246e-42 2.510128606705853e-13 1
  outer loop
    vertex 22853.162109375 17449.39453125 45331.66015625
    vertex 23117.08203125 16382.6435546875 45331.66015625
    vertex 23117.08203125 17449.39453125 45331.66015625
  endloop
endfacet
facet normal 1 -0 -1.517746366710209e-41
  outer loop
    vertex 23117.08203125 17449.39453125 45150.3828125
    vertex 23117.08203125 16382.6435546875 45331.66015625
    vertex 23117.08203125 16382.6435546875 45150.3828125
  endloop
endfacet
facet normal 1 -0 -1.517746366710209e-41
  outer loop
    vertex 23117.08203125 16382.6435546875 45331.66015625
    vertex 23117.08203125 17449.39453125 45150.3828125
    vertex 23117.08203125 17449.39453125 45331.66015625
  endloop
endfacet
facet normal 0 -1 5.716834883089106e-13
  outer loop
    vertex 23117.08203125 16382.6435546875 45331.66015625
    vertex 22853.162109375 16382.6435546875 45150.3828125
    vertex 23117.08203125 16382.6435546875 45150.3828125
  endloop
endfacet
facet normal 0 -1 5.716834883089106e-13
  outer loop
    vertex 22853.162109375 16382.6435546875 45150.3828125
    vertex 23117.08203125 16382.6435546875 45331.66015625
    vertex 22853.162109375 16382.6435546875 45331.66015625
  endloop
endfacet
facet normal -1 0 1.517746366710209e-41
  outer loop
    vertex 22853.162109375 16382.6435546875 45331.66015625
    vertex 22853.162109375 17449.39453125 45150.3828125
    vertex 22853.162109375 16382.6435546875 45150.3828125
  endloop
endfacet
facet normal -1 0 1.517746366710209e-41
  outer loop
    vertex 22853.162109375 17449.39453125 45150.3828125
    vertex 22853.162109375 16382.6435546875 45331.66015625
    vertex 22853.162109375 17449.39453125 45331.66015625
  endloop
endfacet
facet normal 0 1 -5.716834883089106e-13
  outer loop
    vertex 22853.162109375 17449.39453125 45331.66015625
    vertex 23117.08203125 17449.39453125 45150.3828125
    vertex 22853.162109375 17449.39453125 45150.3828125
  endloop
endfacet
facet normal 0 1 -5.716834883089106e-13
  outer loop
    vertex 23117.08203125 17449.39453125 45150.3828125
    vertex 22853.162109375 17449.39453125 45331.66015625
    vertex 23117.08203125 17449.39453125 45331.66015625
  endloop
endfacet
facet normal -7.309172789918246e-42 -2.510128606705853e-13 -1
  outer loop
    vertex 22853.162109375 17449.39453125 45331.66015625
    vertex 22589.244140625 16382.6435546875 45331.66015625
    vertex 22589.244140625 17449.39453125 45331.66015625
  endloop
endfacet
facet normal -7.309172789918246e-42 -2.510128606705853e-13 -1
  outer loop
    vertex 22589.244140625 16382.6435546875 45331.66015625
    vertex 22853.162109375 17449.39453125 45331.66015625
    vertex 22853.162109375 16382.6435546875 45331.66015625
  endloop
endfacet
facet normal 7.309172789918246e-42 2.510128606705853e-13 1
  outer loop
    vertex 22853.162109375 16382.6435546875 45512.9375
    vertex 22589.244140625 17449.39453125 45512.9375
    vertex 22589.244140625 16382.6435546875 45512.9375
  endloop
endfacet
facet normal 7.309172789918246e-42 2.510128606705853e-13 1
  outer loop
    vertex 22589.244140625 17449.39453125 45512.9375
    vertex 22853.162109375 16382.6435546875 45512.9375
    vertex 22853.162109375 17449.39453125 45512.9375
  endloop
endfacet
facet normal 1 -0 -1.517746366710209e-41
  outer loop
    vertex 22853.162109375 17449.39453125 45331.66015625
    vertex 22853.162109375 16382.6435546875 45512.9375
    vertex 22853.162109375 16382.6435546875 45331.66015625
  endloop
endfacet
facet normal 1 -0 -1.517746366710209e-41
  outer loop
    vertex 22853.162109375 16382.6435546875 45512.9375
    vertex 22853.162109375 17449.39453125 45331.66015625
    vertex 22853.162109375 17449.39453125 45512.9375
  endloop
endfacet
facet normal 0 -1 5.716834883089106e-13
  outer loop
    vertex 22853.162109375 16382.6435546875 45512.9375
    vertex 22589.244140625 16382.6435546875 45331.66015625
    vertex 22853.162109375 16382.6435546875 45331.66015625
  endloop
endfacet
facet normal 0 -1 5.716834883089106e-13
  outer loop
    vertex 22589.244140625 16382.6435546875 45331.66015625
    vertex 22853.162109375 16382.6435546875 45512.9375
    vertex 22589.244140625 16382.6435546875 45512.9375
  endloop
endfacet
facet normal -1 0 1.517746366710209e-41
  outer loop
    vertex 22589.244140625 16382.6435546875 45512.9375
    vertex 22589.244140625 17449.39453125 45331.66015625
    vertex 22589.244140625 16382.6435546875 45331.66015625
  endloop
endfacet
facet normal -1 0 1.517746366710209e-41
  outer loop
    vertex 22589.244140625 17449.39453125 45331.66015625
    vertex 22589.244140625 16382.6435546875 45512.9375
    vertex 22589.244140625 17449.39453125 45512.9375
  endloop
endfacet
facet normal 0 1 -5.716834883089106e-13
  outer loop
    vertex 22589.244140625 17449.39453125 45512.9375
    vertex 22853.162109375 17449.39453125 45331.66015625
    vertex 22589.244140625 17449.39453125 45331.66015625
  endloop
endfacet
facet normal 0 1 -5.716834883089106e-13
  outer loop
    vertex 22853.162109375 17449.39453125 45331.66015625
    vertex 22589.244140625 17449.39453125 45512.9375
    vertex 22853.162109375 17449.39453125 45512.9375
  endloop
endfacet
facet normal -7.309172789918246e-42 -2.510128606705853e-13 -1
  outer loop
    vertex 22589.244140625 17449.39453125 45512.9375
    vertex 22325.32421875 16382.6435546875 45512.9375
    vertex 22325.32421875 17449.39453125 45512.9375
  endloop
endfacet
facet normal -7.309172789918246e-42 -2.510128606705853e-13 -1
  outer loop
    vertex 22325.32421875 16382.6435546875 45512.9375
    vertex 22589.244140625 17449.39453125 45512.9375
    vertex 22589.244140625 16382.6435546875 45512.9375
  endloop
endfacet
facet normal 7.309172789918246e-42 2.510128606705853e-13 1
  outer loop
    vertex 22589.244140625 16382.6435546875 45694.21484375
    vertex 22325.32421875 17449.39453125 45694.21484375
    vertex 22325.32421875 16382.6435546875 45694.21484375
  endloop
endfacet
facet normal 7.309172789918246e-42 2.510128606705853e-13 1
  outer loop
    vertex 22325.32421875 17449.39453125 45694.21484375
    vertex 22589.244140625 16382.6435546875 45694.21484375
    vertex 22589.244140625 17449.39453125 45694.21484375
  endloop
endfacet
facet normal 1 -0 -1.517746366710209e-41
  outer loop
    vertex 22589.244140625 17449.39453125 45512.9375
    vertex 22589.244140625 16382.6435546875 45694.21484375
    vertex 22589.244140625 16382.6435546875 45512.9375
  endloop
endfacet
facet normal 1 -0 -1.517746366710209e-41
  outer loop
    vertex 22589.244140625 16382.6435546875 45694.21484375
    vertex 22589.244140625 17449.39453125 45512.9375
    vertex 22589.244140625 17449.39453125 45694.21484375
  endloop
endfacet
facet normal 0 -1 5.716834883089106e-13
  outer loop
    vertex 22589.244140625 16382.6435546875 45694.21484375
    vertex 22325.32421875 16382.6435546875 45512.9375
    vertex 22589.244140625 16382.6435546875 45512.9375
  endloop
endfacet
facet normal 0 -1 5.716834883089106e-13
  outer loop
    vertex 22325.32421875 16382.6435546875 45512.9375
    vertex 22589.244140625 16382.6435546875 45694.21484375
    vertex 22325.32421875 16382.6435546875 45694.21484375
  endloop
endfacet
facet normal -1 0 1.517746366710209e-41
  outer loop
    vertex 22325.32421875 16382.6435546875 45694.21484375
    vertex 22325.32421875 17449.39453125 45512.9375
    vertex 22325.32421875 16382.6435546875 45512.9375
  endloop
endfacet
facet normal -1 0 1.517746366710209e-41
  outer loop
    vertex 22325.32421875 17449.39453125 45512.9375
    vertex 22325.32421875 16382.6435546875 45694.21484375
    vertex 22325.32421875 17449.39453125 45694.21484375
  endloop
endfacet
facet normal 0 1 -5.716834883089106e-13
  outer loop
    vertex 22325.32421875 17449.39453125 45694.21484375
    vertex 22589.244140625 17449.39453125 45512.9375
    vertex 22325.32421875 17449.39453125 45512.9375
  endloop
endfacet
facet normal 0 1 -5.716834883089106e-13
  outer loop
    vertex 22589.244140625 17449.39453125 45512.9375
    vertex 22325.32421875 17449.39453125 45694.21484375
    vertex 22589.244140625 17449.39453125 45694.21484375
  endloop
endfacet
facet normal -7.309172789918246e-42 -2.510128606705853e-13 -1
  outer loop
    vertex 21269.642578125 15869.22265625 43700.15625
    vertex 21005.72265625 14802.470703125 43700.15625
    vertex 21005.72265625 15869.22265625 43700.15625
  endloop
endfacet
facet normal -7.309172789918246e-42 -2.510128606705853e-13 -1
  outer loop
    vertex 21005.72265625 14802.470703125 43700.15625
    vertex 21269.642578125 15869.22265625 43700.15625
    vertex 21269.642578125 14802.470703125 43700.15625
  endloop
endfacet
facet normal 1 -0 -1.517746366710209e-41
  outer loop
    vertex 21269.642578125 15869.22265625 43700.15625
    vertex 21269.642578125 14802.470703125 43881.4375
    vertex 21269.642578125 14802.470703125 43700.15625
  endloop
endfacet
facet normal 1 -0 -1.517746366710209e-41
  outer loop
    vertex 21269.642578125 14802.470703125 43881.4375
    vertex 21269.642578125 15869.22265625 43700.15625
    vertex 21269.642578125 15869.22265625 43881.4375
  endloop
endfacet
facet normal 0 -1 5.716834883089106e-13
  outer loop
    vertex 21269.642578125 14802.470703125 43881.4375
    vertex 21005.72265625 14802.470703125 43700.15625
    vertex 21269.642578125 14802.470703125 43700.15625
  endloop
endfacet
facet normal 0 -1 5.716834883089106e-13
  outer loop
    vertex 21005.72265625 14802.470703125 43700.15625
    vertex 21269.642578125 14802.470703125 43881.4375
    vertex 21005.72265625 14802.470703125 43881.4375
  endloop
endfacet
facet normal 2.778414908286052e-28 2.562301228397484e-13 1
  outer loop
    vertex 21269.642578125 14802.470703125 43881.4375
    vertex 21005.72265625 15869.22265625 43881.4375
    vertex 21005.72265625 14802.470703125 43881.4375
  endloop
endfacet
facet normal 2.778414908286052e-28 2.562301228397484e-13 1
  outer loop
    vertex 21005.72265625 15869.22265625 43881.4375
    vertex 21269.642578125 14802.470703125 43881.4375
    vertex 21269.642578125 15869.22265625 43881.4375
  endloop
endfacet
facet normal 0 1 -5.716834883089106e-13
  outer loop
    vertex 21005.72265625 15869.22265625 43881.4375
    vertex 21269.642578125 15869.22265625 43700.15625
    vertex 21005.72265625 15869.22265625 43700.15625
  endloop
endfacet
facet normal 0 1 -5.716834883089106e-13
  outer loop
    vertex 21269.642578125 15869.22265625 43700.15625
    vertex 21005.72265625 15869.22265625 43881.4375
    vertex 21269.642578125 15869.22265625 43881.4375
  endloop
endfacet
facet normal -1 0 1.517746366710209e-41
  outer loop
    vertex 21005.72265625 14802.470703125 43881.4375
    vertex 21005.72265625 15869.22265625 43700.15625
    vertex 21005.72265625 14802.470703125 43700.15625
  endloop
endfacet
facet normal -1 0 1.517746366710209e-41
  outer loop
    vertex 21005.72265625 15869.22265625 43700.15625
    vertex 21005.72265625 14802.470703125 43881.4375
    vertex 21005.72265625 15869.22265625 43881.4375
  endloop
endfacet
facet normal -7.309172789918246e-42 -2.510128606705853e-13 -1
  outer loop
    vertex 21005.72265625 15869.22265625 43518.87890625
    vertex 20741.802734375 14802.470703125 43518.87890625
    vertex 20741.802734375 15869.22265625 43518.87890625
  endloop
endfacet
facet normal -7.309172789918246e-42 -2.510128606705853e-13 -1
  outer loop
    vertex 20741.802734375 14802.470703125 43518.87890625
    vertex 21005.72265625 15869.22265625 43518.87890625
    vertex 21005.72265625 14802.470703125 43518.87890625
  endloop
endfacet
facet normal 1 -0 -1.517746366710209e-41
  outer loop
    vertex 21005.72265625 15869.22265625 43518.87890625
    vertex 21005.72265625 14802.470703125 43700.15625
    vertex 21005.72265625 14802.470703125 43518.87890625
  endloop
endfacet
facet normal 1 -0 -1.517746366710209e-41
  outer loop
    vertex 21005.72265625 14802.470703125 43700.15625
    vertex 21005.72265625 15869.22265625 43518.87890625
    vertex 21005.72265625 15869.22265625 43700.15625
  endloop
endfacet
facet normal 0 -1 5.716834883089106e-13
  outer loop
    vertex 21005.72265625 14802.470703125 43700.15625
    vertex 20741.802734375 14802.470703125 43518.87890625
    vertex 21005.72265625 14802.470703125 43518.87890625
  endloop
endfacet
facet normal 0 -1 5.716834883089106e-13
  outer loop
    vertex 20741.802734375 14802.470703125 43518.87890625
    vertex 21005.72265625 14802.470703125 43700.15625
    vertex 20741.802734375 14802.470703125 43700.15625
  endloop
endfacet
facet normal 2.778414908286052e-28 2.562301228397484e-13 1
  outer loop
    vertex 21005.72265625 14802.470703125 43700.15625
    vertex 20741.802734375 15869.22265625 43700.15625
    vertex 20741.802734375 14802.470703125 43700.15625
  endloop
endfacet
facet normal 2.778414908286052e-28 2.562301228397484e-13 1
  outer loop
    vertex 20741.802734375 15869.22265625 43700.15625
    vertex 21005.72265625 14802.470703125 43700.15625
    vertex 21005.72265625 15869.22265625 43700.15625
  endloop
endfacet
facet normal 0 1 -5.716834883089106e-13
  outer loop
    vertex 20741.802734375 15869.22265625 43700.15625
    vertex 21005.72265625 15869.22265625 43518.87890625
    vertex 20741.802734375 15869.22265625 43518.87890625
  endloop
endfacet
facet normal 0 1 -5.716834883089106e-13
  outer loop
    vertex 21005.72265625 15869.22265625 43518.87890625
    vertex 20741.802734375 15869.22265625 43700.15625
    vertex 21005.72265625 15869.22265625 43700.15625
  endloop
endfacet
facet normal -1 0 1.517746366710209e-41
  outer loop
    vertex 20741.802734375 14802.470703125 43700.15625
    vertex 20741.802734375 15869.22265625 43518.87890625
    vertex 20741.802734375 14802.470703125 43518.87890625
  endloop
endfacet
facet normal -1 0 1.517746366710209e-41
  outer loop
    vertex 20741.802734375 15869.22265625 43518.87890625
    vertex 20741.802734375 14802.470703125 43700.15625
    vertex 20741.802734375 15869.22265625 43700.15625
  endloop
endfacet
facet normal -7.309172789918246e-42 -2.510128606705853e-13 -1
  outer loop
    vertex 22061.40234375 15869.22265625 44243.9921875
    vertex 21797.482421875 14802.470703125 44243.9921875
    vertex 21797.482421875 15869.22265625 44243.9921875
  endloop
endfacet
facet normal -7.309172789918246e-42 -2.510128606705853e-13 -1
  outer loop
    vertex 21797.482421875 14802.470703125 44243.9921875
    vertex 22061.40234375 15869.22265625 44243.9921875
    vertex 22061.40234375 14802.470703125 44243.9921875
  endloop
endfacet
facet normal 1 -0 -1.517746366710209e-41
  outer loop
    vertex 22061.40234375 15869.22265625 44243.9921875
    vertex 22061.40234375 14802.470703125 44425.26953125
    vertex 22061.40234375 14802.470703125 44243.9921875
  endloop
endfacet
facet normal 1 -0 -1.517746366710209e-41
  outer loop
    vertex 22061.40234375 14802.470703125 44425.26953125
    vertex 22061.40234375 15869.22265625 44243.9921875
    vertex 22061.40234375 15869.22265625 44425.26953125
  endloop
endfacet
facet normal 0 -1 5.716834883089106e-13
  outer loop
    vertex 22061.40234375 14802.470703125 44425.26953125
    vertex 21797.482421875 14802.470703125 44243.9921875
    vertex 22061.40234375 14802.470703125 44243.9921875
  endloop
endfacet
facet normal 0 -1 5.716834883089106e-13
  outer loop
    vertex 21797.482421875 14802.470703125 44243.9921875
    vertex 22061.40234375 14802.470703125 44425.26953125
    vertex 21797.482421875 14802.470703125 44425.26953125
  endloop
endfacet
facet normal 2.778414908286052e-28 2.562301228397484e-13 1
  outer loop
    vertex 22061.40234375 14802.470703125 44425.26953125
    vertex 21797.482421875 15869.22265625 44425.26953125
    vertex 21797.482421875 14802.470703125 44425.26953125
  endloop
endfacet
facet normal 2.778414908286052e-28 2.562301228397484e-13 1
  outer loop
    vertex 21797.482421875 15869.22265625 44425.26953125
    vertex 22061.40234375 14802.470703125 44425.26953125
    vertex 22061.40234375 15869.22265625 44425.26953125
  endloop
endfacet
facet normal 0 1 -5.716834883089106e-13
  outer loop
    vertex 21797.482421875 15869.22265625 44425.26953125
    vertex 22061.40234375 15869.22265625 44243.9921875
    vertex 21797.482421875 15869.22265625 44243.9921875
  endloop
endfacet
facet normal 0 1 -5.716834883089106e-13
  outer loop
    vertex 22061.40234375 15869.22265625 44243.9921875
    vertex 21797.482421875 15869.22265625 44425.26953125
    vertex 22061.40234375 15869.22265625 44425.26953125
  endloop
endfacet
facet normal -1 0 1.517746366710209e-41
  outer loop
    vertex 21797.482421875 14802.470703125 44425.26953125
    vertex 21797.482421875 15869.22265625 44243.9921875
    vertex 21797.482421875 14802.470703125 44243.9921875
  endloop
endfacet
facet normal -1 0 1.517746366710209e-41
  outer loop
    vertex 21797.482421875 15869.22265625 44243.9921875
    vertex 21797.482421875 14802.470703125 44425.26953125
    vertex 21797.482421875 15869.22265625 44425.26953125
  endloop
endfacet
facet normal -7.309172789918246e-42 -2.510128606705853e-13 -1
  outer loop
    vertex 22325.322265625 15869.22265625 44425.26953125
    vertex 22061.40234375 14802.470703125 44425.26953125
    vertex 22061.40234375 15869.22265625 44425.26953125
  endloop
endfacet
facet normal -7.309172789918246e-42 -2.510128606705853e-13 -1
  outer loop
    vertex 22061.40234375 14802.470703125 44425.26953125
    vertex 22325.322265625 15869.22265625 44425.26953125
    vertex 22325.322265625 14802.470703125 44425.26953125
  endloop
endfacet
facet normal 1 -0 -1.517746366710209e-41
  outer loop
    vertex 22325.322265625 15869.22265625 44425.26953125
    vertex 22325.322265625 14802.470703125 44606.546875
    vertex 22325.322265625 14802.470703125 44425.26953125
  endloop
endfacet
facet normal 1 -0 -1.517746366710209e-41
  outer loop
    vertex 22325.322265625 14802.470703125 44606.546875
    vertex 22325.322265625 15869.22265625 44425.26953125
    vertex 22325.322265625 15869.22265625 44606.546875
  endloop
endfacet
facet normal 0 -1 5.716834883089106e-13
  outer loop
    vertex 22325.322265625 14802.470703125 44606.546875
    vertex 22061.40234375 14802.470703125 44425.26953125
    vertex 22325.322265625 14802.470703125 44425.26953125
  endloop
endfacet
facet normal 0 -1 5.716834883089106e-13
  outer loop
    vertex 22061.40234375 14802.470703125 44425.26953125
    vertex 22325.322265625 14802.470703125 44606.546875
    vertex 22061.40234375 14802.470703125 44606.546875
  endloop
endfacet
facet normal 2.778414908286052e-28 2.562301228397484e-13 1
  outer loop
    vertex 22325.322265625 14802.470703125 44606.546875
    vertex 22061.40234375 15869.22265625 44606.546875
    vertex 22061.40234375 14802.470703125 44606.546875
  endloop
endfacet
facet normal 2.778414908286052e-28 2.562301228397484e-13 1
  outer loop
    vertex 22061.40234375 15869.22265625 44606.546875
    vertex 22325.322265625 14802.470703125 44606.546875
    vertex 22325.322265625 15869.22265625 44606.546875
  endloop
endfacet
facet normal 0 1 -5.716834883089106e-13
  outer loop
    vertex 22061.40234375 15869.22265625 44606.546875
    vertex 22325.322265625 15869.22265625 44425.26953125
    vertex 22061.40234375 15869.22265625 44425.26953125
  endloop
endfacet
facet normal 0 1 -5.716834883089106e-13
  outer loop
    vertex 22325.322265625 15869.22265625 44425.26953125
    vertex 22061.40234375 15869.22265625 44606.546875
    vertex 22325.322265625 15869.22265625 44606.546875
  endloop
endfacet
facet normal -1 0 1.517746366710209e-41
  outer loop
    vertex 22061.40234375 14802.470703125 44606.546875
    vertex 22061.40234375 15869.22265625 44425.26953125
    vertex 22061.40234375 14802.470703125 44425.26953125
  endloop
endfacet
facet normal -1 0 1.517746366710209e-41
  outer loop
    vertex 22061.40234375 15869.22265625 44425.26953125
    vertex 22061.40234375 14802.470703125 44606.546875
    vertex 22061.40234375 15869.22265625 44606.546875
  endloop
endfacet
facet normal -7.309172789918246e-42 -2.510128606705853e-13 -1
  outer loop
    vertex 22589.2421875 15869.22265625 44606.546875
    vertex 22325.322265625 14802.470703125 44606.546875
    vertex 22325.322265625 15869.22265625 44606.546875
  endloop
endfacet
facet normal -7.309172789918246e-42 -2.510128606705853e-13 -1
  outer loop
    vertex 22325.322265625 14802.470703125 44606.546875
    vertex 22589.2421875 15869.22265625 44606.546875
    vertex 22589.2421875 14802.470703125 44606.546875
  endloop
endfacet
facet normal 1 -0 -1.517746366710209e-41
  outer loop
    vertex 22589.2421875 15869.22265625 44606.546875
    vertex 22589.2421875 14802.470703125 44787.82421875
    vertex 22589.2421875 14802.470703125 44606.546875
  endloop
endfacet
facet normal 1 -0 -1.517746366710209e-41
  outer loop
    vertex 22589.2421875 14802.470703125 44787.82421875
    vertex 22589.2421875 15869.22265625 44606.546875
    vertex 22589.2421875 15869.22265625 44787.82421875
  endloop
endfacet
facet normal 0 -1 5.716834883089106e-13
  outer loop
    vertex 22589.2421875 14802.470703125 44787.82421875
    vertex 22325.322265625 14802.470703125 44606.546875
    vertex 22589.2421875 14802.470703125 44606.546875
  endloop
endfacet
facet normal 0 -1 5.716834883089106e-13
  outer loop
    vertex 22325.322265625 14802.470703125 44606.546875
    vertex 22589.2421875 14802.470703125 44787.82421875
    vertex 22325.322265625 14802.470703125 44787.82421875
  endloop
endfacet
facet normal 2.778414908286052e-28 2.562301228397484e-13 1
  outer loop
    vertex 22589.2421875 14802.470703125 44787.82421875
    vertex 22325.322265625 15869.22265625 44787.82421875
    vertex 22325.322265625 14802.470703125 44787.82421875
  endloop
endfacet
facet normal 2.778414908286052e-28 2.562301228397484e-13 1
  outer loop
    vertex 22325.322265625 15869.22265625 44787.82421875
    vertex 22589.2421875 14802.470703125 44787.82421875
    vertex 22589.2421875 15869.22265625 44787.82421875
  endloop
endfacet
facet normal 0 1 -5.716834883089106e-13
  outer loop
    vertex 22325.322265625 15869.22265625 44787.82421875
    vertex 22589.2421875 15869.22265625 44606.546875
    vertex 22325.322265625 15869.22265625 44606.546875
  endloop
endfacet
facet normal 0 1 -5.716834883089106e-13
  outer loop
    vertex 22589.2421875 15869.22265625 44606.546875
    vertex 22325.322265625 15869.22265625 44787.82421875
    vertex 22589.2421875 15869.22265625 44787.82421875
  endloop
endfacet
facet normal -1 0 1.517746366710209e-41
  outer loop
    vertex 22325.322265625 14802.470703125 44787.82421875
    vertex 22325.322265625 15869.22265625 44606.546875
    vertex 22325.322265625 14802.470703125 44606.546875
  endloop
endfacet
facet normal -1 0 1.517746366710209e-41
  outer loop
    vertex 22325.322265625 15869.22265625 44606.546875
    vertex 22325.322265625 14802.470703125 44787.82421875
    vertex 22325.322265625 15869.22265625 44787.82421875
  endloop
endfacet
facet normal -7.309172789918246e-42 -2.510128606705853e-13 -1
  outer loop
    vertex 21533.5625 15869.22265625 43881.4375
    vertex 21269.642578125 14802.470703125 43881.4375
    vertex 21269.642578125 15869.22265625 43881.4375
  endloop
endfacet
facet normal -7.309172789918246e-42 -2.510128606705853e-13 -1
  outer loop
    vertex 21269.642578125 14802.470703125 43881.4375
    vertex 21533.5625 15869.22265625 43881.4375
    vertex 21533.5625 14802.470703125 43881.4375
  endloop
endfacet
facet normal 1 -0 -1.517746366710209e-41
  outer loop
    vertex 21533.5625 15869.22265625 43881.4375
    vertex 21533.5625 14802.470703125 44062.71484375
    vertex 21533.5625 14802.470703125 43881.4375
  endloop
endfacet
facet normal 1 -0 -1.517746366710209e-41
  outer loop
    vertex 21533.5625 14802.470703125 44062.71484375
    vertex 21533.5625 15869.22265625 43881.4375
    vertex 21533.5625 15869.22265625 44062.71484375
  endloop
endfacet
facet normal 0 -1 5.716834883089106e-13
  outer loop
    vertex 21533.5625 14802.470703125 44062.71484375
    vertex 21269.642578125 14802.470703125 43881.4375
    vertex 21533.5625 14802.470703125 43881.4375
  endloop
endfacet
facet normal 0 -1 5.716834883089106e-13
  outer loop
    vertex 21269.642578125 14802.470703125 43881.4375
    vertex 21533.5625 14802.470703125 44062.71484375
    vertex 21269.642578125 14802.470703125 44062.71484375
  endloop
endfacet
facet normal 2.778414908286052e-28 2.562301228397484e-13 1
  outer loop
    vertex 21533.5625 14802.470703125 44062.71484375
    vertex 21269.642578125 15869.22265625 44062.71484375
    vertex 21269.642578125 14802.470703125 44062.71484375
  endloop
endfacet
facet normal 2.778414908286052e-28 2.562301228397484e-13 1
  outer loop
    vertex 21269.642578125 15869.22265625 44062.71484375
    vertex 21533.5625 14802.470703125 44062.71484375
    vertex 21533.5625 15869.22265625 44062.71484375
  endloop
endfacet
facet normal 0 1 -5.716834883089106e-13
  outer loop
    vertex 21269.642578125 15869.22265625 44062.71484375
    vertex 21533.5625 15869.22265625 43881.4375
    vertex 21269.642578125 15869.22265625 43881.4375
  endloop
endfacet
facet normal 0 1 -5.716834883089106e-13
  outer loop
    vertex 21533.5625 15869.22265625 43881.4375
    vertex 21269.642578125 15869.22265625 44062.71484375
    vertex 21533.5625 15869.22265625 44062.71484375
  endloop
endfacet
facet normal -1 0 1.517746366710209e-41
  outer loop
    vertex 21269.642578125 14802.470703125 44062.71484375
    vertex 21269.642578125 15869.22265625 43881.4375
    vertex 21269.642578125 14802.470703125 43881.4375
  endloop
endfacet
facet normal -1 0 1.517746366710209e-41
  outer loop
    vertex 21269.642578125 15869.22265625 43881.4375
    vertex 21269.642578125 14802.470703125 44062.71484375
    vertex 21269.642578125 15869.22265625 44062.71484375
  endloop
endfacet
facet normal -7.309172789918246e-42 -2.510128606705853e-13 -1
  outer loop
    vertex 22853.162109375 15869.22265625 44787.82421875
    vertex 22589.2421875 14802.470703125 44787.82421875
    vertex 22589.2421875 15869.22265625 44787.82421875
  endloop
endfacet
facet normal -7.309172789918246e-42 -2.510128606705853e-13 -1
  outer loop
    vertex 22589.2421875 14802.470703125 44787.82421875
    vertex 22853.162109375 15869.22265625 44787.82421875
    vertex 22853.162109375 14802.470703125 44787.82421875
  endloop
endfacet
facet normal 1 -0 -1.517746366710209e-41
  outer loop
    vertex 22853.162109375 15869.22265625 44787.82421875
    vertex 22853.162109375 14802.470703125 44969.10546875
    vertex 22853.162109375 14802.470703125 44787.82421875
  endloop
endfacet
facet normal 1 -0 -1.517746366710209e-41
  outer loop
    vertex 22853.162109375 14802.470703125 44969.10546875
    vertex 22853.162109375 15869.22265625 44787.82421875
    vertex 22853.162109375 15869.22265625 44969.10546875
  endloop
endfacet
facet normal 0 -1 5.716834883089106e-13
  outer loop
    vertex 22853.162109375 14802.470703125 44969.10546875
    vertex 22589.2421875 14802.470703125 44787.82421875
    vertex 22853.162109375 14802.470703125 44787.82421875
  endloop
endfacet
facet normal 0 -1 5.716834883089106e-13
  outer loop
    vertex 22589.2421875 14802.470703125 44787.82421875
    vertex 22853.162109375 14802.470703125 44969.10546875
    vertex 22589.2421875 14802.470703125 44969.10546875
  endloop
endfacet
facet normal 2.778414908286052e-28 2.562301228397484e-13 1
  outer loop
    vertex 22853.162109375 14802.470703125 44969.10546875
    vertex 22589.2421875 15869.22265625 44969.10546875
    vertex 22589.2421875 14802.470703125 44969.10546875
  endloop
endfacet
facet normal 2.778414908286052e-28 2.562301228397484e-13 1
  outer loop
    vertex 22589.2421875 15869.22265625 44969.10546875
    vertex 22853.162109375 14802.470703125 44969.10546875
    vertex 22853.162109375 15869.22265625 44969.10546875
  endloop
endfacet
facet normal 0 1 -5.716834883089106e-13
  outer loop
    vertex 22589.2421875 15869.22265625 44969.10546875
    vertex 22853.162109375 15869.22265625 44787.82421875
    vertex 22589.2421875 15869.22265625 44787.82421875
  endloop
endfacet
facet normal 0 1 -5.716834883089106e-13
  outer loop
    vertex 22853.162109375 15869.22265625 44787.82421875
    vertex 22589.2421875 15869.22265625 44969.10546875
    vertex 22853.162109375 15869.22265625 44969.10546875
  endloop
endfacet
facet normal -1 0 1.517746366710209e-41
  outer loop
    vertex 22589.2421875 14802.470703125 44969.10546875
    vertex 22589.2421875 15869.22265625 44787.82421875
    vertex 22589.2421875 14802.470703125 44787.82421875
  endloop
endfacet
facet normal -1 0 1.517746366710209e-41
  outer loop
    vertex 22589.2421875 15869.22265625 44787.82421875
    vertex 22589.2421875 14802.470703125 44969.10546875
    vertex 22589.2421875 15869.22265625 44969.10546875
  endloop
endfacet
facet normal -7.309172789918246e-42 -2.510128606705853e-13 -1
  outer loop
    vertex 21797.482421875 15869.22265625 44062.71484375
    vertex 21533.5625 14802.470703125 44062.71484375
    vertex 21533.5625 15869.22265625 44062.71484375
  endloop
endfacet
facet normal -7.309172789918246e-42 -2.510128606705853e-13 -1
  outer loop
    vertex 21533.5625 14802.470703125 44062.71484375
    vertex 21797.482421875 15869.22265625 44062.71484375
    vertex 21797.482421875 14802.470703125 44062.71484375
  endloop
endfacet
facet normal 1 -0 -1.517746366710209e-41
  outer loop
    vertex 21797.482421875 15869.22265625 44062.71484375
    vertex 21797.482421875 14802.470703125 44243.9921875
    vertex 21797.482421875 14802.470703125 44062.71484375
  endloop
endfacet
facet normal 1 -0 -1.517746366710209e-41
  outer loop
    vertex 21797.482421875 14802.470703125 44243.9921875
    vertex 21797.482421875 15869.22265625 44062.71484375
    vertex 21797.482421875 15869.22265625 44243.9921875
  endloop
endfacet
facet normal 0 -1 5.716834883089106e-13
  outer loop
    vertex 21797.482421875 14802.470703125 44243.9921875
    vertex 21533.5625 14802.470703125 44062.71484375
    vertex 21797.482421875 14802.470703125 44062.71484375
  endloop
endfacet
facet normal 0 -1 5.716834883089106e-13
  outer loop
    vertex 21533.5625 14802.470703125 44062.71484375
    vertex 21797.482421875 14802.470703125 44243.9921875
    vertex 21533.5625 14802.470703125 44243.9921875
  endloop
endfacet
facet normal 2.778414908286052e-28 2.562301228397484e-13 1
  outer loop
    vertex 21797.482421875 14802.470703125 44243.9921875
    vertex 21533.5625 15869.22265625 44243.9921875
    vertex 21533.5625 14802.470703125 44243.9921875
  endloop
endfacet
facet normal 2.778414908286052e-28 2.562301228397484e-13 1
  outer loop
    vertex 21533.5625 15869.22265625 44243.9921875
    vertex 21797.482421875 14802.470703125 44243.9921875
    vertex 21797.482421875 15869.22265625 44243.9921875
  endloop
endfacet
facet normal 0 1 -5.716834883089106e-13
  outer loop
    vertex 21533.5625 15869.22265625 44243.9921875
    vertex 21797.482421875 15869.22265625 44062.71484375
    vertex 21533.5625 15869.22265625 44062.71484375
  endloop
endfacet
facet normal 0 1 -5.716834883089106e-13
  outer loop
    vertex 21797.482421875 15869.22265625 44062.71484375
    vertex 21533.5625 15869.22265625 44243.9921875
    vertex 21797.482421875 15869.22265625 44243.9921875
  endloop
endfacet
facet normal -1 0 1.517746366710209e-41
  outer loop
    vertex 21533.5625 14802.470703125 44243.9921875
    vertex 21533.5625 15869.22265625 44062.71484375
    vertex 21533.5625 14802.470703125 44062.71484375
  endloop
endfacet
facet normal -1 0 1.517746366710209e-41
  outer loop
    vertex 21533.5625 15869.22265625 44062.71484375
    vertex 21533.5625 14802.470703125 44243.9921875
    vertex 21533.5625 15869.22265625 44243.9921875
  endloop
endfacet
facet normal -7.309172789918246e-42 -2.510128606705853e-13 -1
  outer loop
    vertex 23117.08203125 15869.22265625 44969.10546875
    vertex 22853.162109375 14802.470703125 44969.10546875
    vertex 22853.162109375 15869.22265625 44969.10546875
  endloop
endfacet
facet normal -7.309172789918246e-42 -2.510128606705853e-13 -1
  outer loop
    vertex 22853.162109375 14802.470703125 44969.10546875
    vertex 23117.08203125 15869.22265625 44969.10546875
    vertex 23117.08203125 14802.470703125 44969.10546875
  endloop
endfacet
facet normal 1 -0 -1.517746366710209e-41
  outer loop
    vertex 23117.08203125 15869.22265625 44969.10546875
    vertex 23117.08203125 14802.470703125 45150.3828125
    vertex 23117.08203125 14802.470703125 44969.10546875
  endloop
endfacet
facet normal 1 -0 -1.517746366710209e-41
  outer loop
    vertex 23117.08203125 14802.470703125 45150.3828125
    vertex 23117.08203125 15869.22265625 44969.10546875
    vertex 23117.08203125 15869.22265625 45150.3828125
  endloop
endfacet
facet normal 0 -1 5.716834883089106e-13
  outer loop
    vertex 23117.08203125 14802.470703125 45150.3828125
    vertex 22853.162109375 14802.470703125 44969.10546875
    vertex 23117.08203125 14802.470703125 44969.10546875
  endloop
endfacet
facet normal 0 -1 5.716834883089106e-13
  outer loop
    vertex 22853.162109375 14802.470703125 44969.10546875
    vertex 23117.08203125 14802.470703125 45150.3828125
    vertex 22853.162109375 14802.470703125 45150.3828125
  endloop
endfacet
facet normal 2.778414908286052e-28 2.562301228397484e-13 1
  outer loop
    vertex 23117.08203125 14802.470703125 45150.3828125
    vertex 22853.162109375 15869.22265625 45150.3828125
    vertex 22853.162109375 14802.470703125 45150.3828125
  endloop
endfacet
facet normal 2.778414908286052e-28 2.562301228397484e-13 1
  outer loop
    vertex 22853.162109375 15869.22265625 45150.3828125
    vertex 23117.08203125 14802.470703125 45150.3828125
    vertex 23117.08203125 15869.22265625 45150.3828125
  endloop
endfacet
facet normal 0 1 -5.716834883089106e-13
  outer loop
    vertex 22853.162109375 15869.22265625 45150.3828125
    vertex 23117.08203125 15869.22265625 44969.10546875
    vertex 22853.162109375 15869.22265625 44969.10546875
  endloop
endfacet
facet normal 0 1 -5.716834883089106e-13
  outer loop
    vertex 23117.08203125 15869.22265625 44969.10546875
    vertex 22853.162109375 15869.22265625 45150.3828125
    vertex 23117.08203125 15869.22265625 45150.3828125
  endloop
endfacet
facet normal -1 0 1.517746366710209e-41
  outer loop
    vertex 22853.162109375 14802.470703125 45150.3828125
    vertex 22853.162109375 15869.22265625 44969.10546875
    vertex 22853.162109375 14802.470703125 44969.10546875
  endloop
endfacet
facet normal -1 0 1.517746366710209e-41
  outer loop
    vertex 22853.162109375 15869.22265625 44969.10546875
    vertex 22853.162109375 14802.470703125 45150.3828125
    vertex 22853.162109375 15869.22265625 45150.3828125
  endloop
endfacet
endsolid com.sketchup.SketchUp.2019
