solid com.sketchup.SketchUp.2019
facet normal -6.954644278444067e-42 -3.024107385948133e-13 -1
  outer loop
    vertex 20863.34765625 15331.3408203125 7818.72216796875
    vertex 20612.2578125 14046.1591796875 7818.72216796875
    vertex 20612.2578125 15331.3408203125 7818.72216796875
  endloop
endfacet
facet normal -6.954644278444067e-42 -3.024107385948133e-13 -1
  outer loop
    vertex 20612.2578125 14046.1591796875 7818.72216796875
    vertex 20863.34765625 15331.3408203125 7818.72216796875
    vertex 20863.34765625 14046.1591796875 7818.72216796875
  endloop
endfacet
facet normal 1 -0 -1.595378301633804e-41
  outer loop
    vertex 20863.34765625 15331.3408203125 7818.72216796875
    vertex 20863.34765625 14046.1591796875 8000
    vertex 20863.34765625 14046.1591796875 7818.72216796875
  endloop
endfacet
facet normal 1 -0 -1.595378301633804e-41
  outer loop
    vertex 20863.34765625 14046.1591796875 8000
    vertex 20863.34765625 15331.3408203125 7818.72216796875
    vertex 20863.34765625 15331.3408203125 8000
  endloop
endfacet
facet normal 0 -1 4.745198916959736e-13
  outer loop
    vertex 20863.34765625 14046.1591796875 8000
    vertex 20612.2578125 14046.1591796875 7818.72216796875
    vertex 20863.34765625 14046.1591796875 7818.72216796875
  endloop
endfacet
facet normal 0 -1 4.745198916959736e-13
  outer loop
    vertex 20612.2578125 14046.1591796875 7818.72216796875
    vertex 20863.34765625 14046.1591796875 8000
    vertex 20612.2578125 14046.1591796875 8000
  endloop
endfacet
facet normal 2.643346070908773e-28 3.086962651645264e-13 1
  outer loop
    vertex 20863.34765625 14046.1591796875 8000
    vertex 20612.2578125 15331.3408203125 8000
    vertex 20612.2578125 14046.1591796875 8000
  endloop
endfacet
facet normal 2.643346070908773e-28 3.086962651645264e-13 1
  outer loop
    vertex 20612.2578125 15331.3408203125 8000
    vertex 20863.34765625 14046.1591796875 8000
    vertex 20708.509765625 15295.919921875 8000
  endloop
endfacet
facet normal 2.643346070908773e-28 3.086962651645264e-13 1
  outer loop
    vertex 20708.509765625 15295.919921875 8000
    vertex 20863.34765625 14046.1591796875 8000
    vertex 20740.654296875 15295.919921875 8000
  endloop
endfacet
facet normal 2.643346070908773e-28 3.086962651645264e-13 1
  outer loop
    vertex 20740.654296875 15295.919921875 8000
    vertex 20863.34765625 14046.1591796875 8000
    vertex 20740.654296875 15331.3408203125 8000
  endloop
endfacet
facet normal 2.643346070908773e-28 3.086962651645264e-13 1
  outer loop
    vertex 20740.654296875 15331.3408203125 8000
    vertex 20863.34765625 14046.1591796875 8000
    vertex 20863.34765625 15331.3408203125 8000
  endloop
endfacet
facet normal 2.643346070908773e-28 3.086962651645264e-13 1
  outer loop
    vertex 20708.509765625 15331.3408203125 8000
    vertex 20612.2578125 15331.3408203125 8000
    vertex 20708.509765625 15295.919921875 8000
  endloop
endfacet
facet normal 0 1 -4.745198916959736e-13
  outer loop
    vertex 20612.2578125 15331.3408203125 8000
    vertex 20863.34765625 15331.3408203125 7818.72216796875
    vertex 20612.2578125 15331.3408203125 7818.72216796875
  endloop
endfacet
facet normal 0 1 -4.745198916959736e-13
  outer loop
    vertex 20863.34765625 15331.3408203125 7818.72216796875
    vertex 20612.2578125 15331.3408203125 8000
    vertex 20863.34765625 15331.3408203125 8000
  endloop
endfacet
facet normal -1 0 1.595378301633804e-41
  outer loop
    vertex 20612.2578125 14046.1591796875 8000
    vertex 20612.2578125 15331.3408203125 7818.72216796875
    vertex 20612.2578125 14046.1591796875 7818.72216796875
  endloop
endfacet
facet normal -1 0 1.595378301633804e-41
  outer loop
    vertex 20612.2578125 15331.3408203125 7818.72216796875
    vertex 20612.2578125 14046.1591796875 8000
    vertex 20612.2578125 15331.3408203125 8000
  endloop
endfacet
facet normal -2.361858809658141e-13 3.041058344813857e-13 -1
  outer loop
    vertex 20740.654296875 15331.3408203125 8000
    vertex 20708.509765625 15295.919921875 8000
    vertex 20708.509765625 15331.3408203125 8000
  endloop
endfacet
facet normal -2.361858809658141e-13 3.041058344813857e-13 -1
  outer loop
    vertex 20708.509765625 15295.919921875 8000
    vertex 20740.654296875 15331.3408203125 8000
    vertex 20740.654296875 15295.919921875 8000
  endloop
endfacet
facet normal -7.800413655658419e-15 1 -1.603308516495965e-14
  outer loop
    vertex 20708.509765625 15331.3408203125 8000
    vertex 20740.654296875 15331.3408203125 8929.525390625
    vertex 20740.654296875 15331.3408203125 8000
  endloop
endfacet
facet normal -7.800413655658419e-15 1 -1.603308516495965e-14
  outer loop
    vertex 20740.654296875 15331.3408203125 8929.525390625
    vertex 20708.509765625 15331.3408203125 8000
    vertex 20708.509765625 15331.3408203125 8955.4697265625
  endloop
endfacet
facet normal -7.800413655658419e-15 1 -1.603308516495965e-14
  outer loop
    vertex 20740.654296875 15331.3408203125 8929.525390625
    vertex 20708.509765625 15331.3408203125 8955.4697265625
    vertex 20767.09765625 15331.3408203125 8948.6162109375
  endloop
endfacet
facet normal -7.800413655658419e-15 1 -1.603308516495965e-14
  outer loop
    vertex 20767.09765625 15331.3408203125 8948.6162109375
    vertex 20708.509765625 15331.3408203125 8955.4697265625
    vertex 23172.2890625 15331.3408203125 10685.0810546875
  endloop
endfacet
facet normal -7.800413655658419e-15 1 -1.603308516495965e-14
  outer loop
    vertex 23172.2890625 15331.3408203125 10685.0810546875
    vertex 20708.509765625 15331.3408203125 8955.4697265625
    vertex 23172.2890625 15331.3408203125 10734.232421875
  endloop
endfacet
facet normal -0.3001967370510101 -6.157609242205583e-16 0.953877329826355
  outer loop
    vertex 23186.12890625 15295.919921875 10744.2236328125
    vertex 20708.509765625 15331.3408203125 8955.4697265625
    vertex 20708.509765625 15295.919921875 8955.4697265625
  endloop
endfacet
facet normal -0.3001967370510101 -6.157609242205583e-16 0.953877329826355
  outer loop
    vertex 20708.509765625 15331.3408203125 8955.4697265625
    vertex 23186.12890625 15295.919921875 10744.2236328125
    vertex 23172.2890625 15331.3408203125 10734.232421875
  endloop
endfacet
facet normal -0.3001967370510101 -6.157609242205583e-16 0.953877329826355
  outer loop
    vertex 23172.2890625 15331.3408203125 10734.232421875
    vertex 23186.12890625 15295.919921875 10744.2236328125
    vertex 23172.2890625 15634.9404296875 10734.232421875
  endloop
endfacet
facet normal -0.3001967370510101 -6.157609242205583e-16 0.953877329826355
  outer loop
    vertex 23172.2890625 15634.9404296875 10734.232421875
    vertex 23186.12890625 15295.919921875 10744.2236328125
    vertex 23186.12890625 15634.9404296875 10744.2236328125
  endloop
endfacet
facet normal -1 0 0
  outer loop
    vertex 20708.509765625 15295.919921875 8955.4697265625
    vertex 20708.509765625 15331.3408203125 8000
    vertex 20708.509765625 15295.919921875 8000
  endloop
endfacet
facet normal -1 0 0
  outer loop
    vertex 20708.509765625 15331.3408203125 8000
    vertex 20708.509765625 15295.919921875 8955.4697265625
    vertex 20708.509765625 15331.3408203125 8955.4697265625
  endloop
endfacet
facet normal 0.3001967370510101 -5.884074033812555e-15 -0.953877329826355
  outer loop
    vertex 20767.09765625 15331.3408203125 8948.6162109375
    vertex 20740.654296875 15295.919921875 8929.525390625
    vertex 20740.654296875 15331.3408203125 8929.525390625
  endloop
endfacet
facet normal 0.3001967370510101 -5.884074033812555e-15 -0.953877329826355
  outer loop
    vertex 20740.654296875 15295.919921875 8929.525390625
    vertex 20767.09765625 15331.3408203125 8948.6162109375
    vertex 20767.09765625 15295.919921875 8948.6162109375
  endloop
endfacet
facet normal 1 0 0
  outer loop
    vertex 20740.654296875 15331.3408203125 8000
    vertex 20740.654296875 15295.919921875 8929.525390625
    vertex 20740.654296875 15295.919921875 8000
  endloop
endfacet
facet normal 1 0 0
  outer loop
    vertex 20740.654296875 15295.919921875 8929.525390625
    vertex 20740.654296875 15331.3408203125 8000
    vertex 20740.654296875 15331.3408203125 8929.525390625
  endloop
endfacet
facet normal 7.985522541885479e-15 -1 1.421282660790321e-14
  outer loop
    vertex 20740.654296875 15295.919921875 8929.525390625
    vertex 20708.509765625 15295.919921875 8000
    vertex 20740.654296875 15295.919921875 8000
  endloop
endfacet
facet normal 7.985522541885479e-15 -1 1.421282660790321e-14
  outer loop
    vertex 20708.509765625 15295.919921875 8000
    vertex 20740.654296875 15295.919921875 8929.525390625
    vertex 20708.509765625 15295.919921875 8955.4697265625
  endloop
endfacet
facet normal 7.985522541885479e-15 -1 1.421282660790321e-14
  outer loop
    vertex 20708.509765625 15295.919921875 8955.4697265625
    vertex 20740.654296875 15295.919921875 8929.525390625
    vertex 20767.09765625 15295.919921875 8948.6162109375
  endloop
endfacet
facet normal 7.985522541885479e-15 -1 1.421282660790321e-14
  outer loop
    vertex 20708.509765625 15295.919921875 8955.4697265625
    vertex 20767.09765625 15295.919921875 8948.6162109375
    vertex 23198.732421875 15295.919921875 10704.171875
  endloop
endfacet
facet normal 7.985522541885479e-15 -1 1.421282660790321e-14
  outer loop
    vertex 20708.509765625 15295.919921875 8955.4697265625
    vertex 23198.732421875 15295.919921875 10704.171875
    vertex 23186.12890625 15295.919921875 10744.2236328125
  endloop
endfacet
facet normal 7.985522541885479e-15 -1 1.421282660790321e-14
  outer loop
    vertex 23186.12890625 15295.919921875 10744.2236328125
    vertex 23198.732421875 15295.919921875 10704.171875
    vertex 23198.732421875 15295.919921875 10753.3232421875
  endloop
endfacet
facet normal -0.3001967370510101 7.23533806465337e-18 0.953877329826355
  outer loop
    vertex 23198.732421875 15295.919921875 10753.3232421875
    vertex 23186.12890625 15634.9404296875 10744.2236328125
    vertex 23186.12890625 15295.919921875 10744.2236328125
  endloop
endfacet
facet normal -0.3001967370510101 7.23533806465337e-18 0.953877329826355
  outer loop
    vertex 23186.12890625 15634.9404296875 10744.2236328125
    vertex 23198.732421875 15295.919921875 10753.3232421875
    vertex 23198.732421875 15634.9404296875 10753.3232421875
  endloop
endfacet
facet normal 1 0 0
  outer loop
    vertex 23198.732421875 15634.9404296875 10704.171875
    vertex 23198.732421875 15295.919921875 10753.3232421875
    vertex 23198.732421875 15295.919921875 10704.171875
  endloop
endfacet
facet normal 1 0 0
  outer loop
    vertex 23198.732421875 15295.919921875 10753.3232421875
    vertex 23198.732421875 15634.9404296875 10704.171875
    vertex 23198.732421875 15634.9404296875 10753.3232421875
  endloop
endfacet
facet normal 0.3001967370510101 4.179427056666413e-16 -0.953877329826355
  outer loop
    vertex 23198.732421875 15634.9404296875 10704.171875
    vertex 23172.2890625 15331.3408203125 10685.0810546875
    vertex 23172.2890625 15634.9404296875 10685.0810546875
  endloop
endfacet
facet normal 0.3001967370510101 4.179427056666413e-16 -0.953877329826355
  outer loop
    vertex 23172.2890625 15331.3408203125 10685.0810546875
    vertex 20767.09765625 15295.919921875 8948.6162109375
    vertex 20767.09765625 15331.3408203125 8948.6162109375
  endloop
endfacet
facet normal 0.3001967370510101 4.179427056666413e-16 -0.953877329826355
  outer loop
    vertex 20767.09765625 15295.919921875 8948.6162109375
    vertex 23172.2890625 15331.3408203125 10685.0810546875
    vertex 23198.732421875 15295.919921875 10704.171875
  endloop
endfacet
facet normal 0.3001967370510101 4.179427056666413e-16 -0.953877329826355
  outer loop
    vertex 23198.732421875 15295.919921875 10704.171875
    vertex 23172.2890625 15331.3408203125 10685.0810546875
    vertex 23198.732421875 15634.9404296875 10704.171875
  endloop
endfacet
facet normal 0 1 0
  outer loop
    vertex 23172.2890625 15634.9404296875 10734.232421875
    vertex 23198.732421875 15634.9404296875 10704.171875
    vertex 23172.2890625 15634.9404296875 10685.0810546875
  endloop
endfacet
facet normal 0 1 0
  outer loop
    vertex 23198.732421875 15634.9404296875 10704.171875
    vertex 23172.2890625 15634.9404296875 10734.232421875
    vertex 23198.732421875 15634.9404296875 10753.3232421875
  endloop
endfacet
facet normal 0 1 0
  outer loop
    vertex 23198.732421875 15634.9404296875 10753.3232421875
    vertex 23172.2890625 15634.9404296875 10734.232421875
    vertex 23186.12890625 15634.9404296875 10744.2236328125
  endloop
endfacet
facet normal -1 0 0
  outer loop
    vertex 23172.2890625 15634.9404296875 10734.232421875
    vertex 23172.2890625 15331.3408203125 10685.0810546875
    vertex 23172.2890625 15331.3408203125 10734.232421875
  endloop
endfacet
facet normal -1 0 0
  outer loop
    vertex 23172.2890625 15331.3408203125 10685.0810546875
    vertex 23172.2890625 15634.9404296875 10734.232421875
    vertex 23172.2890625 15634.9404296875 10685.0810546875
  endloop
endfacet
facet normal 2.361858809658141e-13 -3.041058344813857e-13 -1
  outer loop
    vertex 23166.587890625 15599.5205078125 9819.119140625
    vertex 23198.732421875 15634.9404296875 9819.119140625
    vertex 23198.732421875 15599.5205078125 9819.119140625
  endloop
endfacet
facet normal 2.361858809658141e-13 -3.041058344813857e-13 -1
  outer loop
    vertex 23198.732421875 15634.9404296875 9819.119140625
    vertex 23166.587890625 15599.5205078125 9819.119140625
    vertex 23166.587890625 15634.9404296875 9819.119140625
  endloop
endfacet
facet normal -2.919863244417453e-13 -1 -1.603308516495965e-14
  outer loop
    vertex 23198.732421875 15599.5205078125 9819.119140625
    vertex 23166.587890625 15599.5205078125 10727.37890625
    vertex 23166.587890625 15599.5205078125 9819.119140625
  endloop
endfacet
facet normal -2.919863244417453e-13 -1 -1.603308516495965e-14
  outer loop
    vertex 23166.587890625 15599.5205078125 10727.37890625
    vertex 23198.732421875 15599.5205078125 9819.119140625
    vertex 23198.732421875 15599.5205078125 10753.3232421875
  endloop
endfacet
facet normal -2.919863244417453e-13 -1 -1.603308516495965e-14
  outer loop
    vertex 23166.587890625 15599.5205078125 10727.37890625
    vertex 23198.732421875 15599.5205078125 10753.3232421875
    vertex 23140.14453125 15599.5205078125 10746.470703125
  endloop
endfacet
facet normal -2.919863244417453e-13 -1 -1.603308516495965e-14
  outer loop
    vertex 23140.14453125 15599.5205078125 10746.470703125
    vertex 23198.732421875 15599.5205078125 10753.3232421875
    vertex 20734.953125 15599.5205078125 12482.9345703125
  endloop
endfacet
facet normal -2.919863244417453e-13 -1 -1.603308516495965e-14
  outer loop
    vertex 20734.953125 15599.5205078125 12482.9345703125
    vertex 23198.732421875 15599.5205078125 10753.3232421875
    vertex 20734.953125 15599.5205078125 12532.0859375
  endloop
endfacet
facet normal 0.3001967370510101 -1.309563351856169e-13 0.953877329826355
  outer loop
    vertex 20721.115234375 15634.9404296875 12542.0771484375
    vertex 23198.732421875 15599.5205078125 10753.3232421875
    vertex 23198.732421875 15634.9404296875 10753.3232421875
  endloop
endfacet
facet normal 0.3001967370510101 -1.309563351856169e-13 0.953877329826355
  outer loop
    vertex 23198.732421875 15599.5205078125 10753.3232421875
    vertex 20721.115234375 15634.9404296875 12542.0771484375
    vertex 20734.953125 15599.5205078125 12532.0859375
  endloop
endfacet
facet normal 0.3001967370510101 -1.309563351856169e-13 0.953877329826355
  outer loop
    vertex 20734.953125 15599.5205078125 12532.0859375
    vertex 20721.115234375 15634.9404296875 12542.0771484375
    vertex 20734.953125 15295.919921875 12532.0859375
  endloop
endfacet
facet normal 0.3001967370510101 -1.309563351856169e-13 0.953877329826355
  outer loop
    vertex 20734.953125 15295.919921875 12532.0859375
    vertex 20721.115234375 15634.9404296875 12542.0771484375
    vertex 20721.115234375 15295.919921875 12542.0771484375
  endloop
endfacet
facet normal 1 -4.382862074572141e-13 0
  outer loop
    vertex 23198.732421875 15634.9404296875 10753.3232421875
    vertex 23198.732421875 15599.5205078125 9819.119140625
    vertex 23198.732421875 15634.9404296875 9819.119140625
  endloop
endfacet
facet normal 1 -4.382862074572141e-13 0
  outer loop
    vertex 23198.732421875 15599.5205078125 9819.119140625
    vertex 23198.732421875 15634.9404296875 10753.3232421875
    vertex 23198.732421875 15599.5205078125 10753.3232421875
  endloop
endfacet
facet normal -0.3001967370510101 1.37456167867249e-13 -0.953877329826355
  outer loop
    vertex 23140.14453125 15599.5205078125 10746.470703125
    vertex 23166.587890625 15634.9404296875 10727.37890625
    vertex 23166.587890625 15599.5205078125 10727.37890625
  endloop
endfacet
facet normal -0.3001967370510101 1.37456167867249e-13 -0.953877329826355
  outer loop
    vertex 23166.587890625 15634.9404296875 10727.37890625
    vertex 23140.14453125 15599.5205078125 10746.470703125
    vertex 23140.14453125 15634.9404296875 10746.470703125
  endloop
endfacet
facet normal -1 4.382862074572141e-13 0
  outer loop
    vertex 23166.587890625 15599.5205078125 9819.119140625
    vertex 23166.587890625 15634.9404296875 10727.37890625
    vertex 23166.587890625 15634.9404296875 9819.119140625
  endloop
endfacet
facet normal -1 4.382862074572141e-13 0
  outer loop
    vertex 23166.587890625 15634.9404296875 10727.37890625
    vertex 23166.587890625 15599.5205078125 9819.119140625
    vertex 23166.587890625 15599.5205078125 10727.37890625
  endloop
endfacet
facet normal 2.918011969207934e-13 1 1.421282660790321e-14
  outer loop
    vertex 23166.587890625 15634.9404296875 10727.37890625
    vertex 23198.732421875 15634.9404296875 9819.119140625
    vertex 23166.587890625 15634.9404296875 9819.119140625
  endloop
endfacet
facet normal 2.918011969207934e-13 1 1.421282660790321e-14
  outer loop
    vertex 23198.732421875 15634.9404296875 9819.119140625
    vertex 23166.587890625 15634.9404296875 10727.37890625
    vertex 23198.732421875 15634.9404296875 10753.3232421875
  endloop
endfacet
facet normal 2.918011969207934e-13 1 1.421282660790321e-14
  outer loop
    vertex 23198.732421875 15634.9404296875 10753.3232421875
    vertex 23166.587890625 15634.9404296875 10727.37890625
    vertex 23140.14453125 15634.9404296875 10746.470703125
  endloop
endfacet
facet normal 2.918011969207934e-13 1 1.421282660790321e-14
  outer loop
    vertex 23198.732421875 15634.9404296875 10753.3232421875
    vertex 23140.14453125 15634.9404296875 10746.470703125
    vertex 20708.509765625 15634.9404296875 12502.025390625
  endloop
endfacet
facet normal 2.918011969207934e-13 1 1.421282660790321e-14
  outer loop
    vertex 23198.732421875 15634.9404296875 10753.3232421875
    vertex 20708.509765625 15634.9404296875 12502.025390625
    vertex 20721.115234375 15634.9404296875 12542.0771484375
  endloop
endfacet
facet normal 2.918011969207934e-13 1 1.421282660790321e-14
  outer loop
    vertex 20721.115234375 15634.9404296875 12542.0771484375
    vertex 20708.509765625 15634.9404296875 12502.025390625
    vertex 20708.509765625 15634.9404296875 12551.177734375
  endloop
endfacet
facet normal 0.3001967370510101 -1.315793313064542e-13 0.953877329826355
  outer loop
    vertex 20708.509765625 15634.9404296875 12551.177734375
    vertex 20721.115234375 15295.919921875 12542.0771484375
    vertex 20721.115234375 15634.9404296875 12542.0771484375
  endloop
endfacet
facet normal 0.3001967370510101 -1.315793313064542e-13 0.953877329826355
  outer loop
    vertex 20721.115234375 15295.919921875 12542.0771484375
    vertex 20708.509765625 15634.9404296875 12551.177734375
    vertex 20708.509765625 15295.919921875 12551.177734375
  endloop
endfacet
facet normal -1 4.382862074572141e-13 0
  outer loop
    vertex 20708.509765625 15295.919921875 12502.025390625
    vertex 20708.509765625 15634.9404296875 12551.177734375
    vertex 20708.509765625 15634.9404296875 12502.025390625
  endloop
endfacet
facet normal -1 4.382862074572141e-13 0
  outer loop
    vertex 20708.509765625 15634.9404296875 12551.177734375
    vertex 20708.509765625 15295.919921875 12502.025390625
    vertex 20708.509765625 15295.919921875 12551.177734375
  endloop
endfacet
facet normal -0.3001967370510101 1.311541478719869e-13 -0.953877329826355
  outer loop
    vertex 20708.509765625 15295.919921875 12502.025390625
    vertex 20734.953125 15599.5205078125 12482.9345703125
    vertex 20734.953125 15295.919921875 12482.9345703125
  endloop
endfacet
facet normal -0.3001967370510101 1.311541478719869e-13 -0.953877329826355
  outer loop
    vertex 20734.953125 15599.5205078125 12482.9345703125
    vertex 20708.509765625 15295.919921875 12502.025390625
    vertex 20708.509765625 15634.9404296875 12502.025390625
  endloop
endfacet
facet normal -0.3001967370510101 1.311541478719869e-13 -0.953877329826355
  outer loop
    vertex 20734.953125 15599.5205078125 12482.9345703125
    vertex 23140.14453125 15634.9404296875 10746.470703125
    vertex 23140.14453125 15599.5205078125 10746.470703125
  endloop
endfacet
facet normal -0.3001967370510101 1.311541478719869e-13 -0.953877329826355
  outer loop
    vertex 23140.14453125 15634.9404296875 10746.470703125
    vertex 20734.953125 15599.5205078125 12482.9345703125
    vertex 20708.509765625 15634.9404296875 12502.025390625
  endloop
endfacet
facet normal -2.997867253919095e-13 -1 0
  outer loop
    vertex 20734.953125 15295.919921875 12532.0859375
    vertex 20708.509765625 15295.919921875 12502.025390625
    vertex 20734.953125 15295.919921875 12482.9345703125
  endloop
endfacet
facet normal -2.997867253919095e-13 -1 0
  outer loop
    vertex 20708.509765625 15295.919921875 12502.025390625
    vertex 20734.953125 15295.919921875 12532.0859375
    vertex 20721.115234375 15295.919921875 12542.0771484375
  endloop
endfacet
facet normal -2.997867253919095e-13 -1 0
  outer loop
    vertex 20708.509765625 15295.919921875 12502.025390625
    vertex 20721.115234375 15295.919921875 12542.0771484375
    vertex 20708.509765625 15295.919921875 12551.177734375
  endloop
endfacet
facet normal 1 -4.382862074572141e-13 0
  outer loop
    vertex 20734.953125 15295.919921875 12532.0859375
    vertex 20734.953125 15599.5205078125 12482.9345703125
    vertex 20734.953125 15599.5205078125 12532.0859375
  endloop
endfacet
facet normal 1 -4.382862074572141e-13 0
  outer loop
    vertex 20734.953125 15599.5205078125 12482.9345703125
    vertex 20734.953125 15295.919921875 12532.0859375
    vertex 20734.953125 15295.919921875 12482.9345703125
  endloop
endfacet
facet normal 1 -3.990327491175394e-13 1.780465118601023e-14
  outer loop
    vertex 23198.732421875 15331.3408203125 10753.3232421875
    vertex 23198.732421875 15295.919921875 9819.119140625
    vertex 23198.732421875 15331.3408203125 9819.119140625
  endloop
endfacet
facet normal 1 -3.990327491175394e-13 1.780465118601023e-14
  outer loop
    vertex 23198.732421875 15295.919921875 9819.119140625
    vertex 23198.732421875 15331.3408203125 10753.3232421875
    vertex 23198.732421875 15295.919921875 10753.3232421875
  endloop
endfacet
facet normal -1 2.992745753906817e-13 -2.450350272892917e-14
  outer loop
    vertex 23158.388671875 15295.919921875 9819.119140625
    vertex 23158.388671875 15331.3408203125 10724.197265625
    vertex 23158.388671875 15331.3408203125 9819.119140625
  endloop
endfacet
facet normal -1 2.992745753906817e-13 -2.450350272892917e-14
  outer loop
    vertex 23158.388671875 15331.3408203125 10724.197265625
    vertex 23158.388671875 15295.919921875 9819.119140625
    vertex 23158.388671875 15295.919921875 10724.197265625
  endloop
endfacet
facet normal -1.919327733855211e-13 -1 -3.972110861798564e-14
  outer loop
    vertex 23198.732421875 15295.919921875 9819.119140625
    vertex 23158.388671875 15295.919921875 10724.197265625
    vertex 23158.388671875 15295.919921875 9819.119140625
  endloop
endfacet
facet normal -1.919327733855211e-13 -1 -3.972110861798564e-14
  outer loop
    vertex 23158.388671875 15295.919921875 10724.197265625
    vertex 23198.732421875 15295.919921875 9819.119140625
    vertex 23198.732421875 15295.919921875 10753.3232421875
  endloop
endfacet
facet normal 7.761234993716119e-15 -6.257067346887579e-13 -1
  outer loop
    vertex 23158.388671875 15295.919921875 9819.119140625
    vertex 23198.732421875 15331.3408203125 9819.119140625
    vertex 23198.732421875 15295.919921875 9819.119140625
  endloop
endfacet
facet normal 7.761234993716119e-15 -6.257067346887579e-13 -1
  outer loop
    vertex 23198.732421875 15331.3408203125 9819.119140625
    vertex 23158.388671875 15295.919921875 9819.119140625
    vertex 23158.388671875 15331.3408203125 9819.119140625
  endloop
endfacet
facet normal 2.225572428172368e-13 1 3.639090710629705e-14
  outer loop
    vertex 23158.388671875 15331.3408203125 10724.197265625
    vertex 23198.732421875 15331.3408203125 9819.119140625
    vertex 23158.388671875 15331.3408203125 9819.119140625
  endloop
endfacet
facet normal 2.225572428172368e-13 1 3.639090710629705e-14
  outer loop
    vertex 23198.732421875 15331.3408203125 9819.119140625
    vertex 23158.388671875 15331.3408203125 10724.197265625
    vertex 23198.732421875 15331.3408203125 10753.3232421875
  endloop
endfacet
facet normal -0.3001967370510101 2.822771855669204e-13 0.953877329826355
  outer loop
    vertex 23158.388671875 15331.3408203125 10724.197265625
    vertex 23198.732421875 15295.919921875 10753.3232421875
    vertex 23198.732421875 15331.3408203125 10753.3232421875
  endloop
endfacet
facet normal -0.3001967370510101 2.822771855669204e-13 0.953877329826355
  outer loop
    vertex 23198.732421875 15295.919921875 10753.3232421875
    vertex 23158.388671875 15331.3408203125 10724.197265625
    vertex 23158.388671875 15295.919921875 10724.197265625
  endloop
endfacet
facet normal -5.034247758245458e-13 3.548367979652745e-12 -1
  outer loop
    vertex 23135.58984375 17197.2578125 9631.501953125
    vertex 23198.734375 15576.158203125 9631.501953125
    vertex 23135.58984375 15576.158203125 9631.501953125
  endloop
endfacet
facet normal -5.034247758245458e-13 3.548367979652745e-12 -1
  outer loop
    vertex 23198.734375 15576.158203125 9631.501953125
    vertex 23135.58984375 17197.2578125 9631.501953125
    vertex 23892.51171875 17197.2578125 9631.501953125
  endloop
endfacet
facet normal -5.034247758245458e-13 3.548367979652745e-12 -1
  outer loop
    vertex 23198.732421875 15316.1044921875 9631.501953125
    vertex 23135.58984375 14046.3017578125 9631.501953125
    vertex 23135.587890625 15316.1005859375 9631.501953125
  endloop
endfacet
facet normal -5.034247758245458e-13 3.548367979652745e-12 -1
  outer loop
    vertex 23135.58984375 14046.3017578125 9631.501953125
    vertex 23198.732421875 15316.1044921875 9631.501953125
    vertex 24800 14046.3017578125 9631.501953125
  endloop
endfacet
facet normal -5.034247758245458e-13 3.548367979652745e-12 -1
  outer loop
    vertex 24800 14046.3017578125 9631.501953125
    vertex 23198.732421875 15316.1044921875 9631.501953125
    vertex 23198.734375 15576.158203125 9631.501953125
  endloop
endfacet
facet normal -5.034247758245458e-13 3.548367979652745e-12 -1
  outer loop
    vertex 24800 14046.3017578125 9631.501953125
    vertex 23198.734375 15576.158203125 9631.501953125
    vertex 23892.51171875 17197.2578125 9631.501953125
  endloop
endfacet
facet normal -5.034247758245458e-13 3.548367979652745e-12 -1
  outer loop
    vertex 24800 14046.3017578125 9631.501953125
    vertex 23892.51171875 17197.2578125 9631.501953125
    vertex 24800 17197.2578125 9631.501953125
  endloop
endfacet
facet normal 5.034247758245458e-13 -3.548367979652745e-12 1
  outer loop
    vertex 23135.58984375 14046.3017578125 9819.119140625
    vertex 23198.732421875 15316.1044921875 9819.119140625
    vertex 23135.587890625 15316.1005859375 9819.119140625
  endloop
endfacet
facet normal 5.034247758245458e-13 -3.548367979652745e-12 1
  outer loop
    vertex 23198.732421875 15316.1044921875 9819.119140625
    vertex 23135.58984375 14046.3017578125 9819.119140625
    vertex 24800 14046.3017578125 9819.119140625
  endloop
endfacet
facet normal 5.034247758245458e-13 -3.548367979652745e-12 1
  outer loop
    vertex 23198.732421875 15316.1044921875 9819.119140625
    vertex 24800 14046.3017578125 9819.119140625
    vertex 23198.734375 15576.158203125 9819.119140625
  endloop
endfacet
facet normal 5.034247758245458e-13 -3.548367979652745e-12 1
  outer loop
    vertex 23198.734375 15576.158203125 9819.119140625
    vertex 24800 14046.3017578125 9819.119140625
    vertex 23892.51171875 17197.2578125 9819.119140625
  endloop
endfacet
facet normal 5.034247758245458e-13 -3.548367979652745e-12 1
  outer loop
    vertex 23892.51171875 17197.2578125 9819.119140625
    vertex 24800 14046.3017578125 9819.119140625
    vertex 24800 17197.2578125 9819.119140625
  endloop
endfacet
facet normal 5.034247758245458e-13 -3.548367979652745e-12 1
  outer loop
    vertex 23198.734375 15576.158203125 9819.119140625
    vertex 23135.58984375 17197.2578125 9819.119140625
    vertex 23135.58984375 15576.158203125 9819.119140625
  endloop
endfacet
facet normal 5.034247758245458e-13 -3.548367979652745e-12 1
  outer loop
    vertex 23135.58984375 17197.2578125 9819.119140625
    vertex 23198.734375 15576.158203125 9819.119140625
    vertex 23892.51171875 17197.2578125 9819.119140625
  endloop
endfacet
facet normal 0 -1 -5.702258543821559e-12
  outer loop
    vertex 24800 14046.3017578125 9819.119140625
    vertex 23135.58984375 14046.3017578125 9631.501953125
    vertex 24800 14046.3017578125 9631.501953125
  endloop
endfacet
facet normal 0 -1 -5.702258543821559e-12
  outer loop
    vertex 23135.58984375 14046.3017578125 9631.501953125
    vertex 24800 14046.3017578125 9819.119140625
    vertex 23135.58984375 14046.3017578125 9819.119140625
  endloop
endfacet
facet normal -1 7.726591813419695e-25 2.032940656093718e-12
  outer loop
    vertex 23135.587890625 15316.1005859375 9819.119140625
    vertex 23135.58984375 14046.3017578125 9631.501953125
    vertex 23135.58984375 14046.3017578125 9819.119140625
  endloop
endfacet
facet normal -1 7.726591813419695e-25 2.032940656093718e-12
  outer loop
    vertex 23135.58984375 14046.3017578125 9631.501953125
    vertex 23135.587890625 15316.1005859375 9819.119140625
    vertex 23135.587890625 15316.1005859375 9631.501953125
  endloop
endfacet
facet normal -2.330918505322188e-05 1 5.702306248717148e-12
  outer loop
    vertex 23135.587890625 15316.1005859375 9819.119140625
    vertex 23198.732421875 15316.1044921875 9631.501953125
    vertex 23135.587890625 15316.1005859375 9631.501953125
  endloop
endfacet
facet normal -2.330918505322188e-05 1 5.702306248717148e-12
  outer loop
    vertex 23198.732421875 15316.1044921875 9631.501953125
    vertex 23135.587890625 15316.1005859375 9819.119140625
    vertex 23198.732421875 15316.1044921875 9819.119140625
  endloop
endfacet
facet normal -1 2.513080517019262e-06 2.032954967562395e-12
  outer loop
    vertex 23198.734375 15576.158203125 9819.119140625
    vertex 23198.732421875 15316.1044921875 9631.501953125
    vertex 23198.732421875 15316.1044921875 9819.119140625
  endloop
endfacet
facet normal -1 2.513080517019262e-06 2.032954967562395e-12
  outer loop
    vertex 23198.732421875 15316.1044921875 9631.501953125
    vertex 23198.734375 15576.158203125 9819.119140625
    vertex 23198.734375 15576.158203125 9631.501953125
  endloop
endfacet
facet normal -1.41778571105533e-06 -1 -5.702255941736345e-12
  outer loop
    vertex 23198.734375 15576.158203125 9819.119140625
    vertex 23135.58984375 15576.158203125 9631.501953125
    vertex 23198.734375 15576.158203125 9631.501953125
  endloop
endfacet
facet normal -1.41778571105533e-06 -1 -5.702255941736345e-12
  outer loop
    vertex 23135.58984375 15576.158203125 9631.501953125
    vertex 23198.734375 15576.158203125 9819.119140625
    vertex 23135.58984375 15576.158203125 9819.119140625
  endloop
endfacet
facet normal -1 -2.673679324089609e-23 2.032940656093718e-12
  outer loop
    vertex 23135.58984375 17197.2578125 9819.119140625
    vertex 23135.58984375 15576.158203125 9631.501953125
    vertex 23135.58984375 15576.158203125 9819.119140625
  endloop
endfacet
facet normal -1 -2.673679324089609e-23 2.032940656093718e-12
  outer loop
    vertex 23135.58984375 15576.158203125 9631.501953125
    vertex 23135.58984375 17197.2578125 9819.119140625
    vertex 23135.58984375 17197.2578125 9631.501953125
  endloop
endfacet
facet normal 1.435803761440501e-24 1 5.702258543821559e-12
  outer loop
    vertex 23135.58984375 17197.2578125 9631.501953125
    vertex 23892.51171875 17197.2578125 9819.119140625
    vertex 23892.51171875 17197.2578125 9631.501953125
  endloop
endfacet
facet normal 1.435803761440501e-24 1 5.702258543821559e-12
  outer loop
    vertex 23892.51171875 17197.2578125 9819.119140625
    vertex 23135.58984375 17197.2578125 9631.501953125
    vertex 23135.58984375 17197.2578125 9819.119140625
  endloop
endfacet
facet normal 1.821620789323533e-13 1 5.702258543821559e-12
  outer loop
    vertex 23892.51171875 17197.2578125 9631.501953125
    vertex 24800 17197.2578125 9819.119140625
    vertex 24800 17197.2578125 9631.501953125
  endloop
endfacet
facet normal 1.821620789323533e-13 1 5.702258543821559e-12
  outer loop
    vertex 24800 17197.2578125 9819.119140625
    vertex 23892.51171875 17197.2578125 9631.501953125
    vertex 23892.51171875 17197.2578125 9819.119140625
  endloop
endfacet
facet normal 1 -1.778188734495936e-13 -2.032940656093718e-12
  outer loop
    vertex 24800 14046.3017578125 9631.501953125
    vertex 24800 17197.2578125 9819.119140625
    vertex 24800 14046.3017578125 9819.119140625
  endloop
endfacet
facet normal 1 -1.778188734495936e-13 -2.032940656093718e-12
  outer loop
    vertex 24800 17197.2578125 9819.119140625
    vertex 24800 14046.3017578125 9631.501953125
    vertex 24800 17197.2578125 9631.501953125
  endloop
endfacet
facet normal -6.988275441587863e-42 -2.988248212244804e-13 -1
  outer loop
    vertex 21116.92578125 17197.2578125 11269.3427734375
    vertex 20864.59375 15927.31640625 11269.3427734375
    vertex 20864.59375 17197.2578125 11269.3427734375
  endloop
endfacet
facet normal -6.988275441587863e-42 -2.988248212244804e-13 -1
  outer loop
    vertex 20864.59375 15927.31640625 11269.3427734375
    vertex 21116.92578125 17197.2578125 11269.3427734375
    vertex 21116.92578125 15927.31640625 11269.3427734375
  endloop
endfacet
facet normal 6.988275441587863e-42 2.988248212244804e-13 1
  outer loop
    vertex 21116.92578125 15927.31640625 11450.62109375
    vertex 20864.59375 17197.2578125 11450.62109375
    vertex 20864.59375 15927.31640625 11450.62109375
  endloop
endfacet
facet normal 6.988275441587863e-42 2.988248212244804e-13 1
  outer loop
    vertex 20864.59375 17197.2578125 11450.62109375
    vertex 21116.92578125 15927.31640625 11450.62109375
    vertex 21116.92578125 17197.2578125 11450.62109375
  endloop
endfacet
facet normal 1 -0 -1.587531030233585e-41
  outer loop
    vertex 21116.92578125 17197.2578125 11269.3427734375
    vertex 21116.92578125 15927.31640625 11450.62109375
    vertex 21116.92578125 15927.31640625 11269.3427734375
  endloop
endfacet
facet normal 1 -0 -1.587531030233585e-41
  outer loop
    vertex 21116.92578125 15927.31640625 11450.62109375
    vertex 21116.92578125 17197.2578125 11269.3427734375
    vertex 21116.92578125 17197.2578125 11450.62109375
  endloop
endfacet
facet normal 0 -1 4.802141215058675e-13
  outer loop
    vertex 21116.92578125 15927.31640625 11450.62109375
    vertex 20864.59375 15927.31640625 11269.3427734375
    vertex 21116.92578125 15927.31640625 11269.3427734375
  endloop
endfacet
facet normal 0 -1 4.802141215058675e-13
  outer loop
    vertex 20864.59375 15927.31640625 11269.3427734375
    vertex 21116.92578125 15927.31640625 11450.62109375
    vertex 20864.59375 15927.31640625 11450.62109375
  endloop
endfacet
facet normal -1 0 1.587531030233585e-41
  outer loop
    vertex 20864.59375 15927.31640625 11450.62109375
    vertex 20864.59375 17197.2578125 11269.3427734375
    vertex 20864.59375 15927.31640625 11269.3427734375
  endloop
endfacet
facet normal -1 0 1.587531030233585e-41
  outer loop
    vertex 20864.59375 17197.2578125 11269.3427734375
    vertex 20864.59375 15927.31640625 11450.62109375
    vertex 20864.59375 17197.2578125 11450.62109375
  endloop
endfacet
facet normal 0 1 -4.802141215058675e-13
  outer loop
    vertex 20864.59375 17197.2578125 11450.62109375
    vertex 21116.92578125 17197.2578125 11269.3427734375
    vertex 20864.59375 17197.2578125 11269.3427734375
  endloop
endfacet
facet normal 0 1 -4.802141215058675e-13
  outer loop
    vertex 21116.92578125 17197.2578125 11269.3427734375
    vertex 20864.59375 17197.2578125 11450.62109375
    vertex 21116.92578125 17197.2578125 11450.62109375
  endloop
endfacet
facet normal -6.988275441587863e-42 -2.988248212244804e-13 -1
  outer loop
    vertex 22126.2578125 17197.2578125 10544.23046875
    vertex 21873.92578125 15927.31640625 10544.23046875
    vertex 21873.92578125 17197.2578125 10544.23046875
  endloop
endfacet
facet normal -6.988275441587863e-42 -2.988248212244804e-13 -1
  outer loop
    vertex 21873.92578125 15927.31640625 10544.23046875
    vertex 22126.2578125 17197.2578125 10544.23046875
    vertex 22126.2578125 15927.31640625 10544.23046875
  endloop
endfacet
facet normal 6.988275441587863e-42 2.988248212244804e-13 1
  outer loop
    vertex 22126.2578125 15927.31640625 10725.5087890625
    vertex 21873.92578125 17197.2578125 10725.5087890625
    vertex 21873.92578125 15927.31640625 10725.5087890625
  endloop
endfacet
facet normal 6.988275441587863e-42 2.988248212244804e-13 1
  outer loop
    vertex 21873.92578125 17197.2578125 10725.5087890625
    vertex 22126.2578125 15927.31640625 10725.5087890625
    vertex 22126.2578125 17197.2578125 10725.5087890625
  endloop
endfacet
facet normal 1 -0 -1.587531030233585e-41
  outer loop
    vertex 22126.2578125 17197.2578125 10544.23046875
    vertex 22126.2578125 15927.31640625 10725.5087890625
    vertex 22126.2578125 15927.31640625 10544.23046875
  endloop
endfacet
facet normal 1 -0 -1.587531030233585e-41
  outer loop
    vertex 22126.2578125 15927.31640625 10725.5087890625
    vertex 22126.2578125 17197.2578125 10544.23046875
    vertex 22126.2578125 17197.2578125 10725.5087890625
  endloop
endfacet
facet normal 0 -1 4.802141215058675e-13
  outer loop
    vertex 22126.2578125 15927.31640625 10725.5087890625
    vertex 21873.92578125 15927.31640625 10544.23046875
    vertex 22126.2578125 15927.31640625 10544.23046875
  endloop
endfacet
facet normal 0 -1 4.802141215058675e-13
  outer loop
    vertex 21873.92578125 15927.31640625 10544.23046875
    vertex 22126.2578125 15927.31640625 10725.5087890625
    vertex 21873.92578125 15927.31640625 10725.5087890625
  endloop
endfacet
facet normal -1 0 1.587531030233585e-41
  outer loop
    vertex 21873.92578125 15927.31640625 10725.5087890625
    vertex 21873.92578125 17197.2578125 10544.23046875
    vertex 21873.92578125 15927.31640625 10544.23046875
  endloop
endfacet
facet normal -1 0 1.587531030233585e-41
  outer loop
    vertex 21873.92578125 17197.2578125 10544.23046875
    vertex 21873.92578125 15927.31640625 10725.5087890625
    vertex 21873.92578125 17197.2578125 10725.5087890625
  endloop
endfacet
facet normal 0 1 -4.802141215058675e-13
  outer loop
    vertex 21873.92578125 17197.2578125 10725.5087890625
    vertex 22126.2578125 17197.2578125 10544.23046875
    vertex 21873.92578125 17197.2578125 10544.23046875
  endloop
endfacet
facet normal 0 1 -4.802141215058675e-13
  outer loop
    vertex 22126.2578125 17197.2578125 10544.23046875
    vertex 21873.92578125 17197.2578125 10725.5087890625
    vertex 22126.2578125 17197.2578125 10725.5087890625
  endloop
endfacet
facet normal -6.988275441587863e-42 -2.988248212244804e-13 -1
  outer loop
    vertex 21621.591796875 17197.2578125 10906.787109375
    vertex 21369.259765625 15927.31640625 10906.787109375
    vertex 21369.259765625 17197.2578125 10906.787109375
  endloop
endfacet
facet normal -6.988275441587863e-42 -2.988248212244804e-13 -1
  outer loop
    vertex 21369.259765625 15927.31640625 10906.787109375
    vertex 21621.591796875 17197.2578125 10906.787109375
    vertex 21621.591796875 15927.31640625 10906.787109375
  endloop
endfacet
facet normal 6.988275441587863e-42 2.988248212244804e-13 1
  outer loop
    vertex 21621.591796875 15927.31640625 11088.064453125
    vertex 21369.259765625 17197.2578125 11088.064453125
    vertex 21369.259765625 15927.31640625 11088.064453125
  endloop
endfacet
facet normal 6.988275441587863e-42 2.988248212244804e-13 1
  outer loop
    vertex 21369.259765625 17197.2578125 11088.064453125
    vertex 21621.591796875 15927.31640625 11088.064453125
    vertex 21621.591796875 17197.2578125 11088.064453125
  endloop
endfacet
facet normal 1 -0 -1.587531030233585e-41
  outer loop
    vertex 21621.591796875 17197.2578125 10906.787109375
    vertex 21621.591796875 15927.31640625 11088.064453125
    vertex 21621.591796875 15927.31640625 10906.787109375
  endloop
endfacet
facet normal 1 -0 -1.587531030233585e-41
  outer loop
    vertex 21621.591796875 15927.31640625 11088.064453125
    vertex 21621.591796875 17197.2578125 10906.787109375
    vertex 21621.591796875 17197.2578125 11088.064453125
  endloop
endfacet
facet normal 0 -1 4.802141215058675e-13
  outer loop
    vertex 21621.591796875 15927.31640625 11088.064453125
    vertex 21369.259765625 15927.31640625 10906.787109375
    vertex 21621.591796875 15927.31640625 10906.787109375
  endloop
endfacet
facet normal 0 -1 4.802141215058675e-13
  outer loop
    vertex 21369.259765625 15927.31640625 10906.787109375
    vertex 21621.591796875 15927.31640625 11088.064453125
    vertex 21369.259765625 15927.31640625 11088.064453125
  endloop
endfacet
facet normal -1 0 1.587531030233585e-41
  outer loop
    vertex 21369.259765625 15927.31640625 11088.064453125
    vertex 21369.259765625 17197.2578125 10906.787109375
    vertex 21369.259765625 15927.31640625 10906.787109375
  endloop
endfacet
facet normal -1 0 1.587531030233585e-41
  outer loop
    vertex 21369.259765625 17197.2578125 10906.787109375
    vertex 21369.259765625 15927.31640625 11088.064453125
    vertex 21369.259765625 17197.2578125 11088.064453125
  endloop
endfacet
facet normal 0 1 -4.802141215058675e-13
  outer loop
    vertex 21369.259765625 17197.2578125 11088.064453125
    vertex 21621.591796875 17197.2578125 10906.787109375
    vertex 21369.259765625 17197.2578125 10906.787109375
  endloop
endfacet
facet normal 0 1 -4.802141215058675e-13
  outer loop
    vertex 21621.591796875 17197.2578125 10906.787109375
    vertex 21369.259765625 17197.2578125 11088.064453125
    vertex 21621.591796875 17197.2578125 11088.064453125
  endloop
endfacet
facet normal -6.988275441587863e-42 -2.988248212244804e-13 -1
  outer loop
    vertex 21369.259765625 17197.2578125 11088.064453125
    vertex 21116.92578125 15927.31640625 11088.064453125
    vertex 21116.92578125 17197.2578125 11088.064453125
  endloop
endfacet
facet normal -6.988275441587863e-42 -2.988248212244804e-13 -1
  outer loop
    vertex 21116.92578125 15927.31640625 11088.064453125
    vertex 21369.259765625 17197.2578125 11088.064453125
    vertex 21369.259765625 15927.31640625 11088.064453125
  endloop
endfacet
facet normal 6.988275441587863e-42 2.988248212244804e-13 1
  outer loop
    vertex 21369.259765625 15927.31640625 11269.3427734375
    vertex 21116.92578125 17197.2578125 11269.3427734375
    vertex 21116.92578125 15927.31640625 11269.3427734375
  endloop
endfacet
facet normal 6.988275441587863e-42 2.988248212244804e-13 1
  outer loop
    vertex 21116.92578125 17197.2578125 11269.3427734375
    vertex 21369.259765625 15927.31640625 11269.3427734375
    vertex 21369.259765625 17197.2578125 11269.3427734375
  endloop
endfacet
facet normal 1 -0 -1.587531030233585e-41
  outer loop
    vertex 21369.259765625 17197.2578125 11088.064453125
    vertex 21369.259765625 15927.31640625 11269.3427734375
    vertex 21369.259765625 15927.31640625 11088.064453125
  endloop
endfacet
facet normal 1 -0 -1.587531030233585e-41
  outer loop
    vertex 21369.259765625 15927.31640625 11269.3427734375
    vertex 21369.259765625 17197.2578125 11088.064453125
    vertex 21369.259765625 17197.2578125 11269.3427734375
  endloop
endfacet
facet normal 0 -1 4.802141215058675e-13
  outer loop
    vertex 21369.259765625 15927.31640625 11269.3427734375
    vertex 21116.92578125 15927.31640625 11088.064453125
    vertex 21369.259765625 15927.31640625 11088.064453125
  endloop
endfacet
facet normal 0 -1 4.802141215058675e-13
  outer loop
    vertex 21116.92578125 15927.31640625 11088.064453125
    vertex 21369.259765625 15927.31640625 11269.3427734375
    vertex 21116.92578125 15927.31640625 11269.3427734375
  endloop
endfacet
facet normal -1 0 1.587531030233585e-41
  outer loop
    vertex 21116.92578125 15927.31640625 11269.3427734375
    vertex 21116.92578125 17197.2578125 11088.064453125
    vertex 21116.92578125 15927.31640625 11088.064453125
  endloop
endfacet
facet normal -1 0 1.587531030233585e-41
  outer loop
    vertex 21116.92578125 17197.2578125 11088.064453125
    vertex 21116.92578125 15927.31640625 11269.3427734375
    vertex 21116.92578125 17197.2578125 11269.3427734375
  endloop
endfacet
facet normal 0 1 -4.802141215058675e-13
  outer loop
    vertex 21116.92578125 17197.2578125 11269.3427734375
    vertex 21369.259765625 17197.2578125 11088.064453125
    vertex 21116.92578125 17197.2578125 11088.064453125
  endloop
endfacet
facet normal 0 1 -4.802141215058675e-13
  outer loop
    vertex 21369.259765625 17197.2578125 11088.064453125
    vertex 21116.92578125 17197.2578125 11269.3427734375
    vertex 21369.259765625 17197.2578125 11269.3427734375
  endloop
endfacet
facet normal -6.988275441587863e-42 -2.988248212244804e-13 -1
  outer loop
    vertex 22378.591796875 17197.2578125 10362.953125
    vertex 22126.2578125 15927.31640625 10362.953125
    vertex 22126.2578125 17197.2578125 10362.953125
  endloop
endfacet
facet normal -6.988275441587863e-42 -2.988248212244804e-13 -1
  outer loop
    vertex 22126.2578125 15927.31640625 10362.953125
    vertex 22378.591796875 17197.2578125 10362.953125
    vertex 22378.591796875 15927.31640625 10362.953125
  endloop
endfacet
facet normal 6.988275441587863e-42 2.988248212244804e-13 1
  outer loop
    vertex 22378.591796875 15927.31640625 10544.23046875
    vertex 22126.2578125 17197.2578125 10544.23046875
    vertex 22126.2578125 15927.31640625 10544.23046875
  endloop
endfacet
facet normal 6.988275441587863e-42 2.988248212244804e-13 1
  outer loop
    vertex 22126.2578125 17197.2578125 10544.23046875
    vertex 22378.591796875 15927.31640625 10544.23046875
    vertex 22378.591796875 17197.2578125 10544.23046875
  endloop
endfacet
facet normal 1 -0 -1.587531030233585e-41
  outer loop
    vertex 22378.591796875 17197.2578125 10362.953125
    vertex 22378.591796875 15927.31640625 10544.23046875
    vertex 22378.591796875 15927.31640625 10362.953125
  endloop
endfacet
facet normal 1 -0 -1.587531030233585e-41
  outer loop
    vertex 22378.591796875 15927.31640625 10544.23046875
    vertex 22378.591796875 17197.2578125 10362.953125
    vertex 22378.591796875 17197.2578125 10544.23046875
  endloop
endfacet
facet normal 0 -1 4.802141215058675e-13
  outer loop
    vertex 22378.591796875 15927.31640625 10544.23046875
    vertex 22126.2578125 15927.31640625 10362.953125
    vertex 22378.591796875 15927.31640625 10362.953125
  endloop
endfacet
facet normal 0 -1 4.802141215058675e-13
  outer loop
    vertex 22126.2578125 15927.31640625 10362.953125
    vertex 22378.591796875 15927.31640625 10544.23046875
    vertex 22126.2578125 15927.31640625 10544.23046875
  endloop
endfacet
facet normal -1 0 1.587531030233585e-41
  outer loop
    vertex 22126.2578125 15927.31640625 10544.23046875
    vertex 22126.2578125 17197.2578125 10362.953125
    vertex 22126.2578125 15927.31640625 10362.953125
  endloop
endfacet
facet normal -1 0 1.587531030233585e-41
  outer loop
    vertex 22126.2578125 17197.2578125 10362.953125
    vertex 22126.2578125 15927.31640625 10544.23046875
    vertex 22126.2578125 17197.2578125 10544.23046875
  endloop
endfacet
facet normal 0 1 -4.802141215058675e-13
  outer loop
    vertex 22126.2578125 17197.2578125 10544.23046875
    vertex 22378.591796875 17197.2578125 10362.953125
    vertex 22126.2578125 17197.2578125 10362.953125
  endloop
endfacet
facet normal 0 1 -4.802141215058675e-13
  outer loop
    vertex 22378.591796875 17197.2578125 10362.953125
    vertex 22126.2578125 17197.2578125 10544.23046875
    vertex 22378.591796875 17197.2578125 10544.23046875
  endloop
endfacet
facet normal -6.988275441587863e-42 -2.988248212244804e-13 -1
  outer loop
    vertex 20864.59375 17197.2578125 11450.62109375
    vertex 20612.259765625 15927.31640625 11450.62109375
    vertex 20612.259765625 17197.2578125 11450.62109375
  endloop
endfacet
facet normal -6.988275441587863e-42 -2.988248212244804e-13 -1
  outer loop
    vertex 20612.259765625 15927.31640625 11450.62109375
    vertex 20864.59375 17197.2578125 11450.62109375
    vertex 20864.59375 15927.31640625 11450.62109375
  endloop
endfacet
facet normal 6.988275441587863e-42 2.988248212244804e-13 1
  outer loop
    vertex 20864.59375 15927.31640625 11631.8994140625
    vertex 20612.259765625 17197.2578125 11631.8994140625
    vertex 20612.259765625 15927.31640625 11631.8994140625
  endloop
endfacet
facet normal 6.988275441587863e-42 2.988248212244804e-13 1
  outer loop
    vertex 20612.259765625 17197.2578125 11631.8994140625
    vertex 20864.59375 15927.31640625 11631.8994140625
    vertex 20864.59375 17197.2578125 11631.8994140625
  endloop
endfacet
facet normal 1 -0 -1.587531030233585e-41
  outer loop
    vertex 20864.59375 17197.2578125 11450.62109375
    vertex 20864.59375 15927.31640625 11631.8994140625
    vertex 20864.59375 15927.31640625 11450.62109375
  endloop
endfacet
facet normal 1 -0 -1.587531030233585e-41
  outer loop
    vertex 20864.59375 15927.31640625 11631.8994140625
    vertex 20864.59375 17197.2578125 11450.62109375
    vertex 20864.59375 17197.2578125 11631.8994140625
  endloop
endfacet
facet normal 0 -1 4.802141215058675e-13
  outer loop
    vertex 20864.59375 15927.31640625 11631.8994140625
    vertex 20612.259765625 15927.31640625 11450.62109375
    vertex 20864.59375 15927.31640625 11450.62109375
  endloop
endfacet
facet normal 0 -1 4.802141215058675e-13
  outer loop
    vertex 20612.259765625 15927.31640625 11450.62109375
    vertex 20864.59375 15927.31640625 11631.8994140625
    vertex 20612.259765625 15927.31640625 11631.8994140625
  endloop
endfacet
facet normal -1 0 1.587531030233585e-41
  outer loop
    vertex 20612.259765625 15927.31640625 11631.8994140625
    vertex 20612.259765625 17197.2578125 11450.62109375
    vertex 20612.259765625 15927.31640625 11450.62109375
  endloop
endfacet
facet normal -1 0 1.587531030233585e-41
  outer loop
    vertex 20612.259765625 17197.2578125 11450.62109375
    vertex 20612.259765625 15927.31640625 11631.8994140625
    vertex 20612.259765625 17197.2578125 11631.8994140625
  endloop
endfacet
facet normal 0 1 -4.802141215058675e-13
  outer loop
    vertex 20612.259765625 17197.2578125 11631.8994140625
    vertex 20864.59375 17197.2578125 11450.62109375
    vertex 20612.259765625 17197.2578125 11450.62109375
  endloop
endfacet
facet normal 0 1 -4.802141215058675e-13
  outer loop
    vertex 20864.59375 17197.2578125 11450.62109375
    vertex 20612.259765625 17197.2578125 11631.8994140625
    vertex 20864.59375 17197.2578125 11631.8994140625
  endloop
endfacet
facet normal -6.988275441587863e-42 -2.988248212244804e-13 -1
  outer loop
    vertex 21873.92578125 17197.2578125 10725.5087890625
    vertex 21621.591796875 15927.31640625 10725.5087890625
    vertex 21621.591796875 17197.2578125 10725.5087890625
  endloop
endfacet
facet normal -6.988275441587863e-42 -2.988248212244804e-13 -1
  outer loop
    vertex 21621.591796875 15927.31640625 10725.5087890625
    vertex 21873.92578125 17197.2578125 10725.5087890625
    vertex 21873.92578125 15927.31640625 10725.5087890625
  endloop
endfacet
facet normal 6.988275441587863e-42 2.988248212244804e-13 1
  outer loop
    vertex 21873.92578125 15927.31640625 10906.787109375
    vertex 21621.591796875 17197.2578125 10906.787109375
    vertex 21621.591796875 15927.31640625 10906.787109375
  endloop
endfacet
facet normal 6.988275441587863e-42 2.988248212244804e-13 1
  outer loop
    vertex 21621.591796875 17197.2578125 10906.787109375
    vertex 21873.92578125 15927.31640625 10906.787109375
    vertex 21873.92578125 17197.2578125 10906.787109375
  endloop
endfacet
facet normal 1 -0 -1.587531030233585e-41
  outer loop
    vertex 21873.92578125 17197.2578125 10725.5087890625
    vertex 21873.92578125 15927.31640625 10906.787109375
    vertex 21873.92578125 15927.31640625 10725.5087890625
  endloop
endfacet
facet normal 1 -0 -1.587531030233585e-41
  outer loop
    vertex 21873.92578125 15927.31640625 10906.787109375
    vertex 21873.92578125 17197.2578125 10725.5087890625
    vertex 21873.92578125 17197.2578125 10906.787109375
  endloop
endfacet
facet normal 0 -1 4.802141215058675e-13
  outer loop
    vertex 21873.92578125 15927.31640625 10906.787109375
    vertex 21621.591796875 15927.31640625 10725.5087890625
    vertex 21873.92578125 15927.31640625 10725.5087890625
  endloop
endfacet
facet normal 0 -1 4.802141215058675e-13
  outer loop
    vertex 21621.591796875 15927.31640625 10725.5087890625
    vertex 21873.92578125 15927.31640625 10906.787109375
    vertex 21621.591796875 15927.31640625 10906.787109375
  endloop
endfacet
facet normal -1 0 1.587531030233585e-41
  outer loop
    vertex 21621.591796875 15927.31640625 10906.787109375
    vertex 21621.591796875 17197.2578125 10725.5087890625
    vertex 21621.591796875 15927.31640625 10725.5087890625
  endloop
endfacet
facet normal -1 0 1.587531030233585e-41
  outer loop
    vertex 21621.591796875 17197.2578125 10725.5087890625
    vertex 21621.591796875 15927.31640625 10906.787109375
    vertex 21621.591796875 17197.2578125 10906.787109375
  endloop
endfacet
facet normal 0 1 -4.802141215058675e-13
  outer loop
    vertex 21621.591796875 17197.2578125 10906.787109375
    vertex 21873.92578125 17197.2578125 10725.5087890625
    vertex 21621.591796875 17197.2578125 10725.5087890625
  endloop
endfacet
facet normal 0 1 -4.802141215058675e-13
  outer loop
    vertex 21873.92578125 17197.2578125 10725.5087890625
    vertex 21621.591796875 17197.2578125 10906.787109375
    vertex 21873.92578125 17197.2578125 10906.787109375
  endloop
endfacet
facet normal -6.988275441587863e-42 -2.988248212244804e-13 -1
  outer loop
    vertex 23135.58984375 17197.2578125 9819.119140625
    vertex 22883.2578125 15927.31640625 9819.119140625
    vertex 22883.2578125 17197.2578125 9819.119140625
  endloop
endfacet
facet normal -6.988275441587863e-42 -2.988248212244804e-13 -1
  outer loop
    vertex 22883.2578125 15927.31640625 9819.119140625
    vertex 23135.58984375 17197.2578125 9819.119140625
    vertex 23135.58984375 15927.31640625 9819.119140625
  endloop
endfacet
facet normal 6.988275441587863e-42 2.988248212244804e-13 1
  outer loop
    vertex 23135.58984375 15927.31640625 10000.396484375
    vertex 22883.2578125 17197.2578125 10000.396484375
    vertex 22883.2578125 15927.31640625 10000.396484375
  endloop
endfacet
facet normal 6.988275441587863e-42 2.988248212244804e-13 1
  outer loop
    vertex 22883.2578125 17197.2578125 10000.396484375
    vertex 23135.58984375 15927.31640625 10000.396484375
    vertex 23135.58984375 17197.2578125 10000.396484375
  endloop
endfacet
facet normal 1 -0 -1.587531030233585e-41
  outer loop
    vertex 23135.58984375 17197.2578125 9819.119140625
    vertex 23135.58984375 15927.31640625 10000.396484375
    vertex 23135.58984375 15927.31640625 9819.119140625
  endloop
endfacet
facet normal 1 -0 -1.587531030233585e-41
  outer loop
    vertex 23135.58984375 15927.31640625 10000.396484375
    vertex 23135.58984375 17197.2578125 9819.119140625
    vertex 23135.58984375 17197.2578125 10000.396484375
  endloop
endfacet
facet normal 0 -1 4.802141215058675e-13
  outer loop
    vertex 23135.58984375 15927.31640625 10000.396484375
    vertex 22883.2578125 15927.31640625 9819.119140625
    vertex 23135.58984375 15927.31640625 9819.119140625
  endloop
endfacet
facet normal 0 -1 4.802141215058675e-13
  outer loop
    vertex 22883.2578125 15927.31640625 9819.119140625
    vertex 23135.58984375 15927.31640625 10000.396484375
    vertex 22883.2578125 15927.31640625 10000.396484375
  endloop
endfacet
facet normal -1 0 1.587531030233585e-41
  outer loop
    vertex 22883.2578125 15927.31640625 10000.396484375
    vertex 22883.2578125 17197.2578125 9819.119140625
    vertex 22883.2578125 15927.31640625 9819.119140625
  endloop
endfacet
facet normal -1 0 1.587531030233585e-41
  outer loop
    vertex 22883.2578125 17197.2578125 9819.119140625
    vertex 22883.2578125 15927.31640625 10000.396484375
    vertex 22883.2578125 17197.2578125 10000.396484375
  endloop
endfacet
facet normal 0 1 -4.802141215058675e-13
  outer loop
    vertex 22883.2578125 17197.2578125 10000.396484375
    vertex 23135.58984375 17197.2578125 9819.119140625
    vertex 22883.2578125 17197.2578125 9819.119140625
  endloop
endfacet
facet normal 0 1 -4.802141215058675e-13
  outer loop
    vertex 23135.58984375 17197.2578125 9819.119140625
    vertex 22883.2578125 17197.2578125 10000.396484375
    vertex 23135.58984375 17197.2578125 10000.396484375
  endloop
endfacet
facet normal -6.988275441587863e-42 -2.988248212244804e-13 -1
  outer loop
    vertex 22883.2578125 17197.2578125 10000.396484375
    vertex 22630.923828125 15927.31640625 10000.396484375
    vertex 22630.923828125 17197.2578125 10000.396484375
  endloop
endfacet
facet normal -6.988275441587863e-42 -2.988248212244804e-13 -1
  outer loop
    vertex 22630.923828125 15927.31640625 10000.396484375
    vertex 22883.2578125 17197.2578125 10000.396484375
    vertex 22883.2578125 15927.31640625 10000.396484375
  endloop
endfacet
facet normal 6.988275441587863e-42 2.988248212244804e-13 1
  outer loop
    vertex 22883.2578125 15927.31640625 10181.6748046875
    vertex 22630.923828125 17197.2578125 10181.6748046875
    vertex 22630.923828125 15927.31640625 10181.6748046875
  endloop
endfacet
facet normal 6.988275441587863e-42 2.988248212244804e-13 1
  outer loop
    vertex 22630.923828125 17197.2578125 10181.6748046875
    vertex 22883.2578125 15927.31640625 10181.6748046875
    vertex 22883.2578125 17197.2578125 10181.6748046875
  endloop
endfacet
facet normal 1 -0 -1.587531030233585e-41
  outer loop
    vertex 22883.2578125 17197.2578125 10000.396484375
    vertex 22883.2578125 15927.31640625 10181.6748046875
    vertex 22883.2578125 15927.31640625 10000.396484375
  endloop
endfacet
facet normal 1 -0 -1.587531030233585e-41
  outer loop
    vertex 22883.2578125 15927.31640625 10181.6748046875
    vertex 22883.2578125 17197.2578125 10000.396484375
    vertex 22883.2578125 17197.2578125 10181.6748046875
  endloop
endfacet
facet normal 0 -1 4.802141215058675e-13
  outer loop
    vertex 22883.2578125 15927.31640625 10181.6748046875
    vertex 22630.923828125 15927.31640625 10000.396484375
    vertex 22883.2578125 15927.31640625 10000.396484375
  endloop
endfacet
facet normal 0 -1 4.802141215058675e-13
  outer loop
    vertex 22630.923828125 15927.31640625 10000.396484375
    vertex 22883.2578125 15927.31640625 10181.6748046875
    vertex 22630.923828125 15927.31640625 10181.6748046875
  endloop
endfacet
facet normal -1 0 1.587531030233585e-41
  outer loop
    vertex 22630.923828125 15927.31640625 10181.6748046875
    vertex 22630.923828125 17197.2578125 10000.396484375
    vertex 22630.923828125 15927.31640625 10000.396484375
  endloop
endfacet
facet normal -1 0 1.587531030233585e-41
  outer loop
    vertex 22630.923828125 17197.2578125 10000.396484375
    vertex 22630.923828125 15927.31640625 10181.6748046875
    vertex 22630.923828125 17197.2578125 10181.6748046875
  endloop
endfacet
facet normal 0 1 -4.802141215058675e-13
  outer loop
    vertex 22630.923828125 17197.2578125 10181.6748046875
    vertex 22883.2578125 17197.2578125 10000.396484375
    vertex 22630.923828125 17197.2578125 10000.396484375
  endloop
endfacet
facet normal 0 1 -4.802141215058675e-13
  outer loop
    vertex 22883.2578125 17197.2578125 10000.396484375
    vertex 22630.923828125 17197.2578125 10181.6748046875
    vertex 22883.2578125 17197.2578125 10181.6748046875
  endloop
endfacet
facet normal -6.988275441587863e-42 -2.988248212244804e-13 -1
  outer loop
    vertex 22630.923828125 17197.2578125 10181.6748046875
    vertex 22378.591796875 15927.31640625 10181.6748046875
    vertex 22378.591796875 17197.2578125 10181.6748046875
  endloop
endfacet
facet normal -6.988275441587863e-42 -2.988248212244804e-13 -1
  outer loop
    vertex 22378.591796875 15927.31640625 10181.6748046875
    vertex 22630.923828125 17197.2578125 10181.6748046875
    vertex 22630.923828125 15927.31640625 10181.6748046875
  endloop
endfacet
facet normal 6.988275441587863e-42 2.988248212244804e-13 1
  outer loop
    vertex 22630.923828125 15927.31640625 10362.953125
    vertex 22378.591796875 17197.2578125 10362.953125
    vertex 22378.591796875 15927.31640625 10362.953125
  endloop
endfacet
facet normal 6.988275441587863e-42 2.988248212244804e-13 1
  outer loop
    vertex 22378.591796875 17197.2578125 10362.953125
    vertex 22630.923828125 15927.31640625 10362.953125
    vertex 22630.923828125 17197.2578125 10362.953125
  endloop
endfacet
facet normal 1 -0 -1.587531030233585e-41
  outer loop
    vertex 22630.923828125 17197.2578125 10181.6748046875
    vertex 22630.923828125 15927.31640625 10362.953125
    vertex 22630.923828125 15927.31640625 10181.6748046875
  endloop
endfacet
facet normal 1 -0 -1.587531030233585e-41
  outer loop
    vertex 22630.923828125 15927.31640625 10362.953125
    vertex 22630.923828125 17197.2578125 10181.6748046875
    vertex 22630.923828125 17197.2578125 10362.953125
  endloop
endfacet
facet normal 0 -1 4.802141215058675e-13
  outer loop
    vertex 22630.923828125 15927.31640625 10362.953125
    vertex 22378.591796875 15927.31640625 10181.6748046875
    vertex 22630.923828125 15927.31640625 10181.6748046875
  endloop
endfacet
facet normal 0 -1 4.802141215058675e-13
  outer loop
    vertex 22378.591796875 15927.31640625 10181.6748046875
    vertex 22630.923828125 15927.31640625 10362.953125
    vertex 22378.591796875 15927.31640625 10362.953125
  endloop
endfacet
facet normal -1 0 1.587531030233585e-41
  outer loop
    vertex 22378.591796875 15927.31640625 10362.953125
    vertex 22378.591796875 17197.2578125 10181.6748046875
    vertex 22378.591796875 15927.31640625 10181.6748046875
  endloop
endfacet
facet normal -1 0 1.587531030233585e-41
  outer loop
    vertex 22378.591796875 17197.2578125 10181.6748046875
    vertex 22378.591796875 15927.31640625 10362.953125
    vertex 22378.591796875 17197.2578125 10362.953125
  endloop
endfacet
facet normal 0 1 -4.802141215058675e-13
  outer loop
    vertex 22378.591796875 17197.2578125 10362.953125
    vertex 22630.923828125 17197.2578125 10181.6748046875
    vertex 22378.591796875 17197.2578125 10181.6748046875
  endloop
endfacet
facet normal 0 1 -4.802141215058675e-13
  outer loop
    vertex 22630.923828125 17197.2578125 10181.6748046875
    vertex 22378.591796875 17197.2578125 10362.953125
    vertex 22630.923828125 17197.2578125 10362.953125
  endloop
endfacet
facet normal -6.988275441587863e-42 -2.988248212244804e-13 -1
  outer loop
    vertex 21369.2578125 15316.1005859375 8368.89453125
    vertex 21116.923828125 14046.1591796875 8368.89453125
    vertex 21116.923828125 15316.1005859375 8368.89453125
  endloop
endfacet
facet normal -6.988275441587863e-42 -2.988248212244804e-13 -1
  outer loop
    vertex 21116.923828125 14046.1591796875 8368.89453125
    vertex 21369.2578125 15316.1005859375 8368.89453125
    vertex 21369.2578125 14046.1591796875 8368.89453125
  endloop
endfacet
facet normal 1 -0 -1.587531030233585e-41
  outer loop
    vertex 21369.2578125 15316.1005859375 8368.89453125
    vertex 21369.2578125 14046.1591796875 8550.1728515625
    vertex 21369.2578125 14046.1591796875 8368.89453125
  endloop
endfacet
facet normal 1 -0 -1.587531030233585e-41
  outer loop
    vertex 21369.2578125 14046.1591796875 8550.1728515625
    vertex 21369.2578125 15316.1005859375 8368.89453125
    vertex 21369.2578125 15316.1005859375 8550.1728515625
  endloop
endfacet
facet normal 0 -1 4.802141215058675e-13
  outer loop
    vertex 21369.2578125 14046.1591796875 8550.1728515625
    vertex 21116.923828125 14046.1591796875 8368.89453125
    vertex 21369.2578125 14046.1591796875 8368.89453125
  endloop
endfacet
facet normal 0 -1 4.802141215058675e-13
  outer loop
    vertex 21116.923828125 14046.1591796875 8368.89453125
    vertex 21369.2578125 14046.1591796875 8550.1728515625
    vertex 21116.923828125 14046.1591796875 8550.1728515625
  endloop
endfacet
facet normal 2.656433968587099e-28 3.050358359998895e-13 1
  outer loop
    vertex 21369.2578125 14046.1591796875 8550.1728515625
    vertex 21116.923828125 15316.1005859375 8550.1728515625
    vertex 21116.923828125 14046.1591796875 8550.1728515625
  endloop
endfacet
facet normal 2.656433968587099e-28 3.050358359998895e-13 1
  outer loop
    vertex 21116.923828125 15316.1005859375 8550.1728515625
    vertex 21369.2578125 14046.1591796875 8550.1728515625
    vertex 21369.2578125 15316.1005859375 8550.1728515625
  endloop
endfacet
facet normal 0 1 -4.802141215058675e-13
  outer loop
    vertex 21116.923828125 15316.1005859375 8550.1728515625
    vertex 21369.2578125 15316.1005859375 8368.89453125
    vertex 21116.923828125 15316.1005859375 8368.89453125
  endloop
endfacet
facet normal 0 1 -4.802141215058675e-13
  outer loop
    vertex 21369.2578125 15316.1005859375 8368.89453125
    vertex 21116.923828125 15316.1005859375 8550.1728515625
    vertex 21369.2578125 15316.1005859375 8550.1728515625
  endloop
endfacet
facet normal -1 0 1.587531030233585e-41
  outer loop
    vertex 21116.923828125 14046.1591796875 8550.1728515625
    vertex 21116.923828125 15316.1005859375 8368.89453125
    vertex 21116.923828125 14046.1591796875 8368.89453125
  endloop
endfacet
facet normal -1 0 1.587531030233585e-41
  outer loop
    vertex 21116.923828125 15316.1005859375 8368.89453125
    vertex 21116.923828125 14046.1591796875 8550.1728515625
    vertex 21116.923828125 15316.1005859375 8550.1728515625
  endloop
endfacet
facet normal -6.988275441587863e-42 -2.988248212244804e-13 -1
  outer loop
    vertex 21116.923828125 15316.1005859375 8187.6162109375
    vertex 20864.591796875 14046.1591796875 8187.6162109375
    vertex 20864.591796875 15316.1005859375 8187.6162109375
  endloop
endfacet
facet normal -6.988275441587863e-42 -2.988248212244804e-13 -1
  outer loop
    vertex 20864.591796875 14046.1591796875 8187.6162109375
    vertex 21116.923828125 15316.1005859375 8187.6162109375
    vertex 21116.923828125 14046.1591796875 8187.6162109375
  endloop
endfacet
facet normal 1 -0 -1.587531030233585e-41
  outer loop
    vertex 21116.923828125 15316.1005859375 8187.6162109375
    vertex 21116.923828125 14046.1591796875 8368.89453125
    vertex 21116.923828125 14046.1591796875 8187.6162109375
  endloop
endfacet
facet normal 1 -0 -1.587531030233585e-41
  outer loop
    vertex 21116.923828125 14046.1591796875 8368.89453125
    vertex 21116.923828125 15316.1005859375 8187.6162109375
    vertex 21116.923828125 15316.1005859375 8368.89453125
  endloop
endfacet
facet normal 0 -1 4.802141215058675e-13
  outer loop
    vertex 21116.923828125 14046.1591796875 8368.89453125
    vertex 20864.591796875 14046.1591796875 8187.6162109375
    vertex 21116.923828125 14046.1591796875 8187.6162109375
  endloop
endfacet
facet normal 0 -1 4.802141215058675e-13
  outer loop
    vertex 20864.591796875 14046.1591796875 8187.6162109375
    vertex 21116.923828125 14046.1591796875 8368.89453125
    vertex 20864.591796875 14046.1591796875 8368.89453125
  endloop
endfacet
facet normal 2.656433968587099e-28 3.050358359998895e-13 1
  outer loop
    vertex 21116.923828125 14046.1591796875 8368.89453125
    vertex 20864.591796875 15316.1005859375 8368.89453125
    vertex 20864.591796875 14046.1591796875 8368.89453125
  endloop
endfacet
facet normal 2.656433968587099e-28 3.050358359998895e-13 1
  outer loop
    vertex 20864.591796875 15316.1005859375 8368.89453125
    vertex 21116.923828125 14046.1591796875 8368.89453125
    vertex 21116.923828125 15316.1005859375 8368.89453125
  endloop
endfacet
facet normal 0 1 -4.802141215058675e-13
  outer loop
    vertex 20864.591796875 15316.1005859375 8368.89453125
    vertex 21116.923828125 15316.1005859375 8187.6162109375
    vertex 20864.591796875 15316.1005859375 8187.6162109375
  endloop
endfacet
facet normal 0 1 -4.802141215058675e-13
  outer loop
    vertex 21116.923828125 15316.1005859375 8187.6162109375
    vertex 20864.591796875 15316.1005859375 8368.89453125
    vertex 21116.923828125 15316.1005859375 8368.89453125
  endloop
endfacet
facet normal -1 0 1.587531030233585e-41
  outer loop
    vertex 20864.591796875 14046.1591796875 8368.89453125
    vertex 20864.591796875 15316.1005859375 8187.6162109375
    vertex 20864.591796875 14046.1591796875 8187.6162109375
  endloop
endfacet
facet normal -1 0 1.587531030233585e-41
  outer loop
    vertex 20864.591796875 15316.1005859375 8187.6162109375
    vertex 20864.591796875 14046.1591796875 8368.89453125
    vertex 20864.591796875 15316.1005859375 8368.89453125
  endloop
endfacet
facet normal -6.988275441587863e-42 -2.988248212244804e-13 -1
  outer loop
    vertex 22126.255859375 15316.1005859375 8912.728515625
    vertex 21873.923828125 14046.1591796875 8912.728515625
    vertex 21873.923828125 15316.1005859375 8912.728515625
  endloop
endfacet
facet normal -6.988275441587863e-42 -2.988248212244804e-13 -1
  outer loop
    vertex 21873.923828125 14046.1591796875 8912.728515625
    vertex 22126.255859375 15316.1005859375 8912.728515625
    vertex 22126.255859375 14046.1591796875 8912.728515625
  endloop
endfacet
facet normal 1 -0 -1.587531030233585e-41
  outer loop
    vertex 22126.255859375 15316.1005859375 8912.728515625
    vertex 22126.255859375 14046.1591796875 9094.0068359375
    vertex 22126.255859375 14046.1591796875 8912.728515625
  endloop
endfacet
facet normal 1 -0 -1.587531030233585e-41
  outer loop
    vertex 22126.255859375 14046.1591796875 9094.0068359375
    vertex 22126.255859375 15316.1005859375 8912.728515625
    vertex 22126.255859375 15316.1005859375 9094.0068359375
  endloop
endfacet
facet normal 0 -1 4.802141215058675e-13
  outer loop
    vertex 22126.255859375 14046.1591796875 9094.0068359375
    vertex 21873.923828125 14046.1591796875 8912.728515625
    vertex 22126.255859375 14046.1591796875 8912.728515625
  endloop
endfacet
facet normal 0 -1 4.802141215058675e-13
  outer loop
    vertex 21873.923828125 14046.1591796875 8912.728515625
    vertex 22126.255859375 14046.1591796875 9094.0068359375
    vertex 21873.923828125 14046.1591796875 9094.0068359375
  endloop
endfacet
facet normal 2.656433968587099e-28 3.050358359998895e-13 1
  outer loop
    vertex 22126.255859375 14046.1591796875 9094.0068359375
    vertex 21873.923828125 15316.1005859375 9094.0068359375
    vertex 21873.923828125 14046.1591796875 9094.0068359375
  endloop
endfacet
facet normal 2.656433968587099e-28 3.050358359998895e-13 1
  outer loop
    vertex 21873.923828125 15316.1005859375 9094.0068359375
    vertex 22126.255859375 14046.1591796875 9094.0068359375
    vertex 22126.255859375 15316.1005859375 9094.0068359375
  endloop
endfacet
facet normal 0 1 -4.802141215058675e-13
  outer loop
    vertex 21873.923828125 15316.1005859375 9094.0068359375
    vertex 22126.255859375 15316.1005859375 8912.728515625
    vertex 21873.923828125 15316.1005859375 8912.728515625
  endloop
endfacet
facet normal 0 1 -4.802141215058675e-13
  outer loop
    vertex 22126.255859375 15316.1005859375 8912.728515625
    vertex 21873.923828125 15316.1005859375 9094.0068359375
    vertex 22126.255859375 15316.1005859375 9094.0068359375
  endloop
endfacet
facet normal -1 0 1.587531030233585e-41
  outer loop
    vertex 21873.923828125 14046.1591796875 9094.0068359375
    vertex 21873.923828125 15316.1005859375 8912.728515625
    vertex 21873.923828125 14046.1591796875 8912.728515625
  endloop
endfacet
facet normal -1 0 1.587531030233585e-41
  outer loop
    vertex 21873.923828125 15316.1005859375 8912.728515625
    vertex 21873.923828125 14046.1591796875 9094.0068359375
    vertex 21873.923828125 15316.1005859375 9094.0068359375
  endloop
endfacet
facet normal -6.988275441587863e-42 -2.988248212244804e-13 -1
  outer loop
    vertex 22378.58984375 15316.1005859375 9094.0068359375
    vertex 22126.255859375 14046.1591796875 9094.0068359375
    vertex 22126.255859375 15316.1005859375 9094.0068359375
  endloop
endfacet
facet normal -6.988275441587863e-42 -2.988248212244804e-13 -1
  outer loop
    vertex 22126.255859375 14046.1591796875 9094.0068359375
    vertex 22378.58984375 15316.1005859375 9094.0068359375
    vertex 22378.58984375 14046.1591796875 9094.0068359375
  endloop
endfacet
facet normal 1 -0 -1.587531030233585e-41
  outer loop
    vertex 22378.58984375 15316.1005859375 9094.0068359375
    vertex 22378.58984375 14046.1591796875 9275.2841796875
    vertex 22378.58984375 14046.1591796875 9094.0068359375
  endloop
endfacet
facet normal 1 -0 -1.587531030233585e-41
  outer loop
    vertex 22378.58984375 14046.1591796875 9275.2841796875
    vertex 22378.58984375 15316.1005859375 9094.0068359375
    vertex 22378.58984375 15316.1005859375 9275.2841796875
  endloop
endfacet
facet normal 0 -1 4.802141215058675e-13
  outer loop
    vertex 22378.58984375 14046.1591796875 9275.2841796875
    vertex 22126.255859375 14046.1591796875 9094.0068359375
    vertex 22378.58984375 14046.1591796875 9094.0068359375
  endloop
endfacet
facet normal 0 -1 4.802141215058675e-13
  outer loop
    vertex 22126.255859375 14046.1591796875 9094.0068359375
    vertex 22378.58984375 14046.1591796875 9275.2841796875
    vertex 22126.255859375 14046.1591796875 9275.2841796875
  endloop
endfacet
facet normal 2.656433968587099e-28 3.050358359998895e-13 1
  outer loop
    vertex 22378.58984375 14046.1591796875 9275.2841796875
    vertex 22126.255859375 15316.1005859375 9275.2841796875
    vertex 22126.255859375 14046.1591796875 9275.2841796875
  endloop
endfacet
facet normal 2.656433968587099e-28 3.050358359998895e-13 1
  outer loop
    vertex 22126.255859375 15316.1005859375 9275.2841796875
    vertex 22378.58984375 14046.1591796875 9275.2841796875
    vertex 22378.58984375 15316.1005859375 9275.2841796875
  endloop
endfacet
facet normal 0 1 -4.802141215058675e-13
  outer loop
    vertex 22126.255859375 15316.1005859375 9275.2841796875
    vertex 22378.58984375 15316.1005859375 9094.0068359375
    vertex 22126.255859375 15316.1005859375 9094.0068359375
  endloop
endfacet
facet normal 0 1 -4.802141215058675e-13
  outer loop
    vertex 22378.58984375 15316.1005859375 9094.0068359375
    vertex 22126.255859375 15316.1005859375 9275.2841796875
    vertex 22378.58984375 15316.1005859375 9275.2841796875
  endloop
endfacet
facet normal -1 0 1.587531030233585e-41
  outer loop
    vertex 22126.255859375 14046.1591796875 9275.2841796875
    vertex 22126.255859375 15316.1005859375 9094.0068359375
    vertex 22126.255859375 14046.1591796875 9094.0068359375
  endloop
endfacet
facet normal -1 0 1.587531030233585e-41
  outer loop
    vertex 22126.255859375 15316.1005859375 9094.0068359375
    vertex 22126.255859375 14046.1591796875 9275.2841796875
    vertex 22126.255859375 15316.1005859375 9275.2841796875
  endloop
endfacet
facet normal -6.988275441587863e-42 -2.988248212244804e-13 -1
  outer loop
    vertex 22630.921875 15316.1005859375 9275.2841796875
    vertex 22378.58984375 14046.1591796875 9275.2841796875
    vertex 22378.58984375 15316.1005859375 9275.2841796875
  endloop
endfacet
facet normal -6.988275441587863e-42 -2.988248212244804e-13 -1
  outer loop
    vertex 22378.58984375 14046.1591796875 9275.2841796875
    vertex 22630.921875 15316.1005859375 9275.2841796875
    vertex 22630.921875 14046.1591796875 9275.2841796875
  endloop
endfacet
facet normal 1 -0 -1.587531030233585e-41
  outer loop
    vertex 22630.921875 15316.1005859375 9275.2841796875
    vertex 22630.921875 14046.1591796875 9456.5625
    vertex 22630.921875 14046.1591796875 9275.2841796875
  endloop
endfacet
facet normal 1 -0 -1.587531030233585e-41
  outer loop
    vertex 22630.921875 14046.1591796875 9456.5625
    vertex 22630.921875 15316.1005859375 9275.2841796875
    vertex 22630.921875 15316.1005859375 9456.5625
  endloop
endfacet
facet normal 0 -1 4.802141215058675e-13
  outer loop
    vertex 22630.921875 14046.1591796875 9456.5625
    vertex 22378.58984375 14046.1591796875 9275.2841796875
    vertex 22630.921875 14046.1591796875 9275.2841796875
  endloop
endfacet
facet normal 0 -1 4.802141215058675e-13
  outer loop
    vertex 22378.58984375 14046.1591796875 9275.2841796875
    vertex 22630.921875 14046.1591796875 9456.5625
    vertex 22378.58984375 14046.1591796875 9456.5625
  endloop
endfacet
facet normal 2.656433968587099e-28 3.050358359998895e-13 1
  outer loop
    vertex 22630.921875 14046.1591796875 9456.5625
    vertex 22378.58984375 15316.1005859375 9456.5625
    vertex 22378.58984375 14046.1591796875 9456.5625
  endloop
endfacet
facet normal 2.656433968587099e-28 3.050358359998895e-13 1
  outer loop
    vertex 22378.58984375 15316.1005859375 9456.5625
    vertex 22630.921875 14046.1591796875 9456.5625
    vertex 22630.921875 15316.1005859375 9456.5625
  endloop
endfacet
facet normal 0 1 -4.802141215058675e-13
  outer loop
    vertex 22378.58984375 15316.1005859375 9456.5625
    vertex 22630.921875 15316.1005859375 9275.2841796875
    vertex 22378.58984375 15316.1005859375 9275.2841796875
  endloop
endfacet
facet normal 0 1 -4.802141215058675e-13
  outer loop
    vertex 22630.921875 15316.1005859375 9275.2841796875
    vertex 22378.58984375 15316.1005859375 9456.5625
    vertex 22630.921875 15316.1005859375 9456.5625
  endloop
endfacet
facet normal -1 0 1.587531030233585e-41
  outer loop
    vertex 22378.58984375 14046.1591796875 9456.5625
    vertex 22378.58984375 15316.1005859375 9275.2841796875
    vertex 22378.58984375 14046.1591796875 9275.2841796875
  endloop
endfacet
facet normal -1 0 1.587531030233585e-41
  outer loop
    vertex 22378.58984375 15316.1005859375 9275.2841796875
    vertex 22378.58984375 14046.1591796875 9456.5625
    vertex 22378.58984375 15316.1005859375 9456.5625
  endloop
endfacet
facet normal -6.988275441587863e-42 -2.988248212244804e-13 -1
  outer loop
    vertex 21621.58984375 15316.1005859375 8550.1728515625
    vertex 21369.2578125 14046.1591796875 8550.1728515625
    vertex 21369.2578125 15316.1005859375 8550.1728515625
  endloop
endfacet
facet normal -6.988275441587863e-42 -2.988248212244804e-13 -1
  outer loop
    vertex 21369.2578125 14046.1591796875 8550.1728515625
    vertex 21621.58984375 15316.1005859375 8550.1728515625
    vertex 21621.58984375 14046.1591796875 8550.1728515625
  endloop
endfacet
facet normal 1 -0 -1.587531030233585e-41
  outer loop
    vertex 21621.58984375 15316.1005859375 8550.1728515625
    vertex 21621.58984375 14046.1591796875 8731.4501953125
    vertex 21621.58984375 14046.1591796875 8550.1728515625
  endloop
endfacet
facet normal 1 -0 -1.587531030233585e-41
  outer loop
    vertex 21621.58984375 14046.1591796875 8731.4501953125
    vertex 21621.58984375 15316.1005859375 8550.1728515625
    vertex 21621.58984375 15316.1005859375 8731.4501953125
  endloop
endfacet
facet normal 0 -1 4.802141215058675e-13
  outer loop
    vertex 21621.58984375 14046.1591796875 8731.4501953125
    vertex 21369.2578125 14046.1591796875 8550.1728515625
    vertex 21621.58984375 14046.1591796875 8550.1728515625
  endloop
endfacet
facet normal 0 -1 4.802141215058675e-13
  outer loop
    vertex 21369.2578125 14046.1591796875 8550.1728515625
    vertex 21621.58984375 14046.1591796875 8731.4501953125
    vertex 21369.2578125 14046.1591796875 8731.4501953125
  endloop
endfacet
facet normal 2.656433968587099e-28 3.050358359998895e-13 1
  outer loop
    vertex 21621.58984375 14046.1591796875 8731.4501953125
    vertex 21369.2578125 15316.1005859375 8731.4501953125
    vertex 21369.2578125 14046.1591796875 8731.4501953125
  endloop
endfacet
facet normal 2.656433968587099e-28 3.050358359998895e-13 1
  outer loop
    vertex 21369.2578125 15316.1005859375 8731.4501953125
    vertex 21621.58984375 14046.1591796875 8731.4501953125
    vertex 21621.58984375 15316.1005859375 8731.4501953125
  endloop
endfacet
facet normal 0 1 -4.802141215058675e-13
  outer loop
    vertex 21369.2578125 15316.1005859375 8731.4501953125
    vertex 21621.58984375 15316.1005859375 8550.1728515625
    vertex 21369.2578125 15316.1005859375 8550.1728515625
  endloop
endfacet
facet normal 0 1 -4.802141215058675e-13
  outer loop
    vertex 21621.58984375 15316.1005859375 8550.1728515625
    vertex 21369.2578125 15316.1005859375 8731.4501953125
    vertex 21621.58984375 15316.1005859375 8731.4501953125
  endloop
endfacet
facet normal -1 0 1.587531030233585e-41
  outer loop
    vertex 21369.2578125 14046.1591796875 8731.4501953125
    vertex 21369.2578125 15316.1005859375 8550.1728515625
    vertex 21369.2578125 14046.1591796875 8550.1728515625
  endloop
endfacet
facet normal -1 0 1.587531030233585e-41
  outer loop
    vertex 21369.2578125 15316.1005859375 8550.1728515625
    vertex 21369.2578125 14046.1591796875 8731.4501953125
    vertex 21369.2578125 15316.1005859375 8731.4501953125
  endloop
endfacet
facet normal -6.988275441587863e-42 -2.988248212244804e-13 -1
  outer loop
    vertex 22883.255859375 15316.1005859375 9456.5625
    vertex 22630.921875 14046.1591796875 9456.5625
    vertex 22630.921875 15316.1005859375 9456.5625
  endloop
endfacet
facet normal -6.988275441587863e-42 -2.988248212244804e-13 -1
  outer loop
    vertex 22630.921875 14046.1591796875 9456.5625
    vertex 22883.255859375 15316.1005859375 9456.5625
    vertex 22883.255859375 14046.1591796875 9456.5625
  endloop
endfacet
facet normal 1 -0 -1.587531030233585e-41
  outer loop
    vertex 22883.255859375 15316.1005859375 9456.5625
    vertex 22883.255859375 14046.1591796875 9637.8408203125
    vertex 22883.255859375 14046.1591796875 9456.5625
  endloop
endfacet
facet normal 1 -0 -1.587531030233585e-41
  outer loop
    vertex 22883.255859375 14046.1591796875 9637.8408203125
    vertex 22883.255859375 15316.1005859375 9456.5625
    vertex 22883.255859375 15316.1005859375 9637.8408203125
  endloop
endfacet
facet normal 0 -1 4.802141215058675e-13
  outer loop
    vertex 22883.255859375 14046.1591796875 9637.8408203125
    vertex 22630.921875 14046.1591796875 9456.5625
    vertex 22883.255859375 14046.1591796875 9456.5625
  endloop
endfacet
facet normal 0 -1 4.802141215058675e-13
  outer loop
    vertex 22630.921875 14046.1591796875 9456.5625
    vertex 22883.255859375 14046.1591796875 9637.8408203125
    vertex 22630.921875 14046.1591796875 9637.8408203125
  endloop
endfacet
facet normal 2.656433968587099e-28 3.050358359998895e-13 1
  outer loop
    vertex 22883.255859375 14046.1591796875 9637.8408203125
    vertex 22630.921875 15316.1005859375 9637.8408203125
    vertex 22630.921875 14046.1591796875 9637.8408203125
  endloop
endfacet
facet normal 2.656433968587099e-28 3.050358359998895e-13 1
  outer loop
    vertex 22630.921875 15316.1005859375 9637.8408203125
    vertex 22883.255859375 14046.1591796875 9637.8408203125
    vertex 22883.255859375 15316.1005859375 9637.8408203125
  endloop
endfacet
facet normal 0 1 -4.802141215058675e-13
  outer loop
    vertex 22630.921875 15316.1005859375 9637.8408203125
    vertex 22883.255859375 15316.1005859375 9456.5625
    vertex 22630.921875 15316.1005859375 9456.5625
  endloop
endfacet
facet normal 0 1 -4.802141215058675e-13
  outer loop
    vertex 22883.255859375 15316.1005859375 9456.5625
    vertex 22630.921875 15316.1005859375 9637.8408203125
    vertex 22883.255859375 15316.1005859375 9637.8408203125
  endloop
endfacet
facet normal -1 0 1.587531030233585e-41
  outer loop
    vertex 22630.921875 14046.1591796875 9637.8408203125
    vertex 22630.921875 15316.1005859375 9456.5625
    vertex 22630.921875 14046.1591796875 9456.5625
  endloop
endfacet
facet normal -1 0 1.587531030233585e-41
  outer loop
    vertex 22630.921875 15316.1005859375 9456.5625
    vertex 22630.921875 14046.1591796875 9637.8408203125
    vertex 22630.921875 15316.1005859375 9637.8408203125
  endloop
endfacet
facet normal -6.988275441587863e-42 -2.988248212244804e-13 -1
  outer loop
    vertex 21873.923828125 15316.1005859375 8731.4501953125
    vertex 21621.58984375 14046.1591796875 8731.4501953125
    vertex 21621.58984375 15316.1005859375 8731.4501953125
  endloop
endfacet
facet normal -6.988275441587863e-42 -2.988248212244804e-13 -1
  outer loop
    vertex 21621.58984375 14046.1591796875 8731.4501953125
    vertex 21873.923828125 15316.1005859375 8731.4501953125
    vertex 21873.923828125 14046.1591796875 8731.4501953125
  endloop
endfacet
facet normal 1 -0 -1.587531030233585e-41
  outer loop
    vertex 21873.923828125 15316.1005859375 8731.4501953125
    vertex 21873.923828125 14046.1591796875 8912.728515625
    vertex 21873.923828125 14046.1591796875 8731.4501953125
  endloop
endfacet
facet normal 1 -0 -1.587531030233585e-41
  outer loop
    vertex 21873.923828125 14046.1591796875 8912.728515625
    vertex 21873.923828125 15316.1005859375 8731.4501953125
    vertex 21873.923828125 15316.1005859375 8912.728515625
  endloop
endfacet
facet normal 0 -1 4.802141215058675e-13
  outer loop
    vertex 21873.923828125 14046.1591796875 8912.728515625
    vertex 21621.58984375 14046.1591796875 8731.4501953125
    vertex 21873.923828125 14046.1591796875 8731.4501953125
  endloop
endfacet
facet normal 0 -1 4.802141215058675e-13
  outer loop
    vertex 21621.58984375 14046.1591796875 8731.4501953125
    vertex 21873.923828125 14046.1591796875 8912.728515625
    vertex 21621.58984375 14046.1591796875 8912.728515625
  endloop
endfacet
facet normal 2.656433968587099e-28 3.050358359998895e-13 1
  outer loop
    vertex 21873.923828125 14046.1591796875 8912.728515625
    vertex 21621.58984375 15316.1005859375 8912.728515625
    vertex 21621.58984375 14046.1591796875 8912.728515625
  endloop
endfacet
facet normal 2.656433968587099e-28 3.050358359998895e-13 1
  outer loop
    vertex 21621.58984375 15316.1005859375 8912.728515625
    vertex 21873.923828125 14046.1591796875 8912.728515625
    vertex 21873.923828125 15316.1005859375 8912.728515625
  endloop
endfacet
facet normal 0 1 -4.802141215058675e-13
  outer loop
    vertex 21621.58984375 15316.1005859375 8912.728515625
    vertex 21873.923828125 15316.1005859375 8731.4501953125
    vertex 21621.58984375 15316.1005859375 8731.4501953125
  endloop
endfacet
facet normal 0 1 -4.802141215058675e-13
  outer loop
    vertex 21873.923828125 15316.1005859375 8731.4501953125
    vertex 21621.58984375 15316.1005859375 8912.728515625
    vertex 21873.923828125 15316.1005859375 8912.728515625
  endloop
endfacet
facet normal -1 0 1.587531030233585e-41
  outer loop
    vertex 21621.58984375 14046.1591796875 8912.728515625
    vertex 21621.58984375 15316.1005859375 8731.4501953125
    vertex 21621.58984375 14046.1591796875 8731.4501953125
  endloop
endfacet
facet normal -1 0 1.587531030233585e-41
  outer loop
    vertex 21621.58984375 15316.1005859375 8731.4501953125
    vertex 21621.58984375 14046.1591796875 8912.728515625
    vertex 21621.58984375 15316.1005859375 8912.728515625
  endloop
endfacet
facet normal -6.988275441587863e-42 -2.988248212244804e-13 -1
  outer loop
    vertex 23135.587890625 15316.1005859375 9637.8408203125
    vertex 22883.255859375 14046.1591796875 9637.8408203125
    vertex 22883.255859375 15316.1005859375 9637.8408203125
  endloop
endfacet
facet normal -6.988275441587863e-42 -2.988248212244804e-13 -1
  outer loop
    vertex 22883.255859375 14046.1591796875 9637.8408203125
    vertex 23135.587890625 15316.1005859375 9637.8408203125
    vertex 23135.587890625 14046.1591796875 9637.8408203125
  endloop
endfacet
facet normal 1 -0 -1.587531030233585e-41
  outer loop
    vertex 23135.587890625 15316.1005859375 9637.8408203125
    vertex 23135.587890625 14046.1591796875 9819.119140625
    vertex 23135.587890625 14046.1591796875 9637.8408203125
  endloop
endfacet
facet normal 1 -0 -1.587531030233585e-41
  outer loop
    vertex 23135.587890625 14046.1591796875 9819.119140625
    vertex 23135.587890625 15316.1005859375 9637.8408203125
    vertex 23135.587890625 15316.1005859375 9819.119140625
  endloop
endfacet
facet normal 0 -1 4.802141215058675e-13
  outer loop
    vertex 23135.587890625 14046.1591796875 9819.119140625
    vertex 22883.255859375 14046.1591796875 9637.8408203125
    vertex 23135.587890625 14046.1591796875 9637.8408203125
  endloop
endfacet
facet normal 0 -1 4.802141215058675e-13
  outer loop
    vertex 22883.255859375 14046.1591796875 9637.8408203125
    vertex 23135.587890625 14046.1591796875 9819.119140625
    vertex 22883.255859375 14046.1591796875 9819.119140625
  endloop
endfacet
facet normal 2.656433968587099e-28 3.050358359998895e-13 1
  outer loop
    vertex 23135.587890625 14046.1591796875 9819.119140625
    vertex 22883.255859375 15316.1005859375 9819.119140625
    vertex 22883.255859375 14046.1591796875 9819.119140625
  endloop
endfacet
facet normal 2.656433968587099e-28 3.050358359998895e-13 1
  outer loop
    vertex 22883.255859375 15316.1005859375 9819.119140625
    vertex 23135.587890625 14046.1591796875 9819.119140625
    vertex 23135.587890625 15316.1005859375 9819.119140625
  endloop
endfacet
facet normal 0 1 -4.802141215058675e-13
  outer loop
    vertex 22883.255859375 15316.1005859375 9819.119140625
    vertex 23135.587890625 15316.1005859375 9637.8408203125
    vertex 22883.255859375 15316.1005859375 9637.8408203125
  endloop
endfacet
facet normal 0 1 -4.802141215058675e-13
  outer loop
    vertex 23135.587890625 15316.1005859375 9637.8408203125
    vertex 22883.255859375 15316.1005859375 9819.119140625
    vertex 23135.587890625 15316.1005859375 9819.119140625
  endloop
endfacet
facet normal -1 0 1.587531030233585e-41
  outer loop
    vertex 22883.255859375 14046.1591796875 9819.119140625
    vertex 22883.255859375 15316.1005859375 9637.8408203125
    vertex 22883.255859375 14046.1591796875 9637.8408203125
  endloop
endfacet
facet normal -1 0 1.587531030233585e-41
  outer loop
    vertex 22883.255859375 15316.1005859375 9637.8408203125
    vertex 22883.255859375 14046.1591796875 9819.119140625
    vertex 22883.255859375 15316.1005859375 9819.119140625
  endloop
endfacet
endsolid com.sketchup.SketchUp.2019
