solid com.sketchup.SketchUp.2019
facet normal 0 0 -1
  outer loop
    vertex 36393.76171875 12984.5009765625 43149.984375
    vertex 36193.76171875 12884.5009765625 43149.984375
    vertex 36193.76171875 12984.5009765625 43149.984375
  endloop
endfacet
facet normal 0 0 -1
  outer loop
    vertex 36193.76171875 12884.5009765625 43149.984375
    vertex 36393.76171875 12984.5009765625 43149.984375
    vertex 36393.76171875 12884.5009765625 43149.984375
  endloop
endfacet
facet normal 0 0 1
  outer loop
    vertex 36393.76171875 12884.5009765625 46599.984375
    vertex 36193.76171875 12984.5009765625 46599.984375
    vertex 36193.76171875 12884.5009765625 46599.984375
  endloop
endfacet
facet normal 0 0 1
  outer loop
    vertex 36193.76171875 12984.5009765625 46599.984375
    vertex 36393.76171875 12884.5009765625 46599.984375
    vertex 36393.76171875 12984.5009765625 46599.984375
  endloop
endfacet
facet normal -0 -1 -0
  outer loop
    vertex 36393.76171875 12884.5009765625 46599.984375
    vertex 36193.76171875 12884.5009765625 43149.984375
    vertex 36393.76171875 12884.5009765625 43149.984375
  endloop
endfacet
facet normal -0 -1 -0
  outer loop
    vertex 36193.76171875 12884.5009765625 43149.984375
    vertex 36393.76171875 12884.5009765625 46599.984375
    vertex 36193.76171875 12884.5009765625 46599.984375
  endloop
endfacet
facet normal -1 0 0
  outer loop
    vertex 36193.76171875 12984.5009765625 46599.984375
    vertex 36193.76171875 12884.5009765625 43149.984375
    vertex 36193.76171875 12884.5009765625 46599.984375
  endloop
endfacet
facet normal -1 0 0
  outer loop
    vertex 36193.76171875 12884.5009765625 43149.984375
    vertex 36193.76171875 12984.5009765625 46599.984375
    vertex 36193.76171875 12984.5009765625 43149.984375
  endloop
endfacet
facet normal 0 1 0
  outer loop
    vertex 36193.76171875 12984.5009765625 46599.984375
    vertex 36393.76171875 12984.5009765625 43149.984375
    vertex 36193.76171875 12984.5009765625 43149.984375
  endloop
endfacet
facet normal 0 1 0
  outer loop
    vertex 36393.76171875 12984.5009765625 43149.984375
    vertex 36193.76171875 12984.5009765625 46599.984375
    vertex 36393.76171875 12984.5009765625 46599.984375
  endloop
endfacet
facet normal 1 0 0
  outer loop
    vertex 36393.76171875 12984.5009765625 43149.984375
    vertex 36393.76171875 12884.5009765625 46599.984375
    vertex 36393.76171875 12884.5009765625 43149.984375
  endloop
endfacet
facet normal 1 0 0
  outer loop
    vertex 36393.76171875 12884.5009765625 46599.984375
    vertex 36393.76171875 12984.5009765625 43149.984375
    vertex 36393.76171875 12984.5009765625 46599.984375
  endloop
endfacet
facet normal 0 0 -1
  outer loop
    vertex 12893.76171875 7834.5009765625 43149.984375
    vertex 12493.76171875 7434.5009765625 43149.984375
    vertex 12493.76171875 7834.5009765625 43149.984375
  endloop
endfacet
facet normal 0 0 -1
  outer loop
    vertex 12493.76171875 7434.5009765625 43149.984375
    vertex 12893.76171875 7834.5009765625 43149.984375
    vertex 12893.76171875 7434.5009765625 43149.984375
  endloop
endfacet
facet normal 0 0 1
  outer loop
    vertex 12893.76171875 7434.5009765625 46599.984375
    vertex 12493.76171875 7834.5009765625 46599.984375
    vertex 12493.76171875 7434.5009765625 46599.984375
  endloop
endfacet
facet normal 0 0 1
  outer loop
    vertex 12493.76171875 7834.5009765625 46599.984375
    vertex 12893.76171875 7434.5009765625 46599.984375
    vertex 12893.76171875 7834.5009765625 46599.984375
  endloop
endfacet
facet normal 1 0 0
  outer loop
    vertex 12893.76171875 7834.5009765625 43149.984375
    vertex 12893.76171875 7434.5009765625 46599.984375
    vertex 12893.76171875 7434.5009765625 43149.984375
  endloop
endfacet
facet normal 1 0 0
  outer loop
    vertex 12893.76171875 7434.5009765625 46599.984375
    vertex 12893.76171875 7834.5009765625 43149.984375
    vertex 12893.76171875 7834.5009765625 46599.984375
  endloop
endfacet
facet normal -0 -1 -0
  outer loop
    vertex 12893.76171875 7434.5009765625 46599.984375
    vertex 12493.76171875 7434.5009765625 43149.984375
    vertex 12893.76171875 7434.5009765625 43149.984375
  endloop
endfacet
facet normal -0 -1 -0
  outer loop
    vertex 12493.76171875 7434.5009765625 43149.984375
    vertex 12893.76171875 7434.5009765625 46599.984375
    vertex 12493.76171875 7434.5009765625 46599.984375
  endloop
endfacet
facet normal -1 0 0
  outer loop
    vertex 12493.76171875 7834.5009765625 46599.984375
    vertex 12493.76171875 7434.5009765625 43149.984375
    vertex 12493.76171875 7434.5009765625 46599.984375
  endloop
endfacet
facet normal -1 0 0
  outer loop
    vertex 12493.76171875 7434.5009765625 43149.984375
    vertex 12493.76171875 7834.5009765625 46599.984375
    vertex 12493.76171875 7834.5009765625 43149.984375
  endloop
endfacet
facet normal 0 1 0
  outer loop
    vertex 12493.76171875 7834.5009765625 46599.984375
    vertex 12893.76171875 7834.5009765625 43149.984375
    vertex 12493.76171875 7834.5009765625 43149.984375
  endloop
endfacet
facet normal 0 1 0
  outer loop
    vertex 12893.76171875 7834.5009765625 43149.984375
    vertex 12493.76171875 7834.5009765625 46599.984375
    vertex 12893.76171875 7834.5009765625 46599.984375
  endloop
endfacet
facet normal 6.516738646107634e-13 2.610589695806187e-13 -1
  outer loop
    vertex 24625.83984375 17884.501953125 43149.984375
    vertex 24393.76171875 17684.501953125 43149.984375
    vertex 24393.76171875 17884.501953125 43149.984375
  endloop
endfacet
facet normal 6.516738646107634e-13 2.610589695806187e-13 -1
  outer loop
    vertex 24393.76171875 17684.501953125 43149.984375
    vertex 24625.83984375 17884.501953125 43149.984375
    vertex 24393.76171875 17484.501953125 43149.984375
  endloop
endfacet
facet normal 6.516738646107634e-13 2.610589695806187e-13 -1
  outer loop
    vertex 24393.76171875 17484.501953125 43149.984375
    vertex 24625.83984375 17884.501953125 43149.984375
    vertex 24625.841796875 17484.501953125 43149.984375
  endloop
endfacet
facet normal 6.516738646107634e-13 2.610589695806187e-13 -1
  outer loop
    vertex 24625.841796875 17484.501953125 43149.984375
    vertex 24625.83984375 17884.501953125 43149.984375
    vertex 24649.048828125 17884.501953125 43149.984375
  endloop
endfacet
facet normal 6.516738646107634e-13 2.610589695806187e-13 -1
  outer loop
    vertex 24625.841796875 17484.501953125 43149.984375
    vertex 24649.048828125 17884.501953125 43149.984375
    vertex 24857.919921875 17484.501953125 43149.984375
  endloop
endfacet
facet normal 6.516738646107634e-13 2.610589695806187e-13 -1
  outer loop
    vertex 24857.919921875 17484.501953125 43149.984375
    vertex 24649.048828125 17884.501953125 43149.984375
    vertex 24672.255859375 17884.501953125 43149.984375
  endloop
endfacet
facet normal 6.516738646107634e-13 2.610589695806187e-13 -1
  outer loop
    vertex 24857.919921875 17484.501953125 43149.984375
    vertex 24672.255859375 17884.501953125 43149.984375
    vertex 24857.919921875 17884.501953125 43149.984375
  endloop
endfacet
facet normal -6.516738646107634e-13 -2.610589695806187e-13 1
  outer loop
    vertex 24393.76171875 17484.501953125 46599.984375
    vertex 24393.76171875 17884.501953125 46599.984375
    vertex 24393.76171875 17684.501953125 46599.984375
  endloop
endfacet
facet normal -6.516738646107634e-13 -2.610589695806187e-13 1
  outer loop
    vertex 24393.76171875 17884.501953125 46599.984375
    vertex 24393.76171875 17484.501953125 46599.984375
    vertex 24625.83984375 17884.501953125 46599.984375
  endloop
endfacet
facet normal -6.516738646107634e-13 -2.610589695806187e-13 1
  outer loop
    vertex 24625.83984375 17884.501953125 46599.984375
    vertex 24393.76171875 17484.501953125 46599.984375
    vertex 24625.841796875 17484.501953125 46599.984375
  endloop
endfacet
facet normal -6.516738646107634e-13 -2.610589695806187e-13 1
  outer loop
    vertex 24625.83984375 17884.501953125 46599.984375
    vertex 24625.841796875 17484.501953125 46599.984375
    vertex 24649.048828125 17884.501953125 46599.984375
  endloop
endfacet
facet normal -6.516738646107634e-13 -2.610589695806187e-13 1
  outer loop
    vertex 24649.048828125 17884.501953125 46599.984375
    vertex 24625.841796875 17484.501953125 46599.984375
    vertex 24857.919921875 17484.501953125 46599.984375
  endloop
endfacet
facet normal -6.516738646107634e-13 -2.610589695806187e-13 1
  outer loop
    vertex 24649.048828125 17884.501953125 46599.984375
    vertex 24857.919921875 17484.501953125 46599.984375
    vertex 24672.255859375 17884.501953125 46599.984375
  endloop
endfacet
facet normal -6.516738646107634e-13 -2.610589695806187e-13 1
  outer loop
    vertex 24672.255859375 17884.501953125 46599.984375
    vertex 24857.919921875 17484.501953125 46599.984375
    vertex 24857.919921875 17884.501953125 46599.984375
  endloop
endfacet
facet normal -6.701634147794622e-13 -1 -2.610589695806187e-13
  outer loop
    vertex 24857.919921875 17484.501953125 46599.984375
    vertex 24625.841796875 17484.501953125 43149.984375
    vertex 24857.919921875 17484.501953125 43149.984375
  endloop
endfacet
facet normal -6.701634147794622e-13 -1 -2.610589695806187e-13
  outer loop
    vertex 24625.841796875 17484.501953125 43149.984375
    vertex 24857.919921875 17484.501953125 46599.984375
    vertex 24625.841796875 17484.501953125 46599.984375
  endloop
endfacet
facet normal 6.701634147794622e-13 -1 -2.610589695806187e-13
  outer loop
    vertex 24625.841796875 17484.501953125 46599.984375
    vertex 24393.76171875 17484.501953125 43149.984375
    vertex 24625.841796875 17484.501953125 43149.984375
  endloop
endfacet
facet normal 6.701634147794622e-13 -1 -2.610589695806187e-13
  outer loop
    vertex 24393.76171875 17484.501953125 43149.984375
    vertex 24625.841796875 17484.501953125 46599.984375
    vertex 24393.76171875 17484.501953125 46599.984375
  endloop
endfacet
facet normal -1 -1.493098179816688e-13 -4.839680631078813e-13
  outer loop
    vertex 24393.76171875 17684.501953125 46599.984375
    vertex 24393.76171875 17484.501953125 43149.984375
    vertex 24393.76171875 17484.501953125 46599.984375
  endloop
endfacet
facet normal -1 -1.493098179816688e-13 -4.839680631078813e-13
  outer loop
    vertex 24393.76171875 17484.501953125 43149.984375
    vertex 24393.76171875 17684.501953125 46599.984375
    vertex 24393.76171875 17684.501953125 43149.984375
  endloop
endfacet
facet normal -1 1.214984140521611e-24 -4.839680631078813e-13
  outer loop
    vertex 24393.76171875 17884.501953125 46599.984375
    vertex 24393.76171875 17684.501953125 43149.984375
    vertex 24393.76171875 17684.501953125 46599.984375
  endloop
endfacet
facet normal -1 1.214984140521611e-24 -4.839680631078813e-13
  outer loop
    vertex 24393.76171875 17684.501953125 43149.984375
    vertex 24393.76171875 17884.501953125 46599.984375
    vertex 24393.76171875 17884.501953125 43149.984375
  endloop
endfacet
facet normal 6.701650952928295e-13 1 2.610589695806187e-13
  outer loop
    vertex 24393.76171875 17884.501953125 46599.984375
    vertex 24625.83984375 17884.501953125 43149.984375
    vertex 24393.76171875 17884.501953125 43149.984375
  endloop
endfacet
facet normal 6.701650952928295e-13 1 2.610589695806187e-13
  outer loop
    vertex 24625.83984375 17884.501953125 43149.984375
    vertex 24393.76171875 17884.501953125 46599.984375
    vertex 24625.83984375 17884.501953125 46599.984375
  endloop
endfacet
facet normal 0 1 2.610589695806187e-13
  outer loop
    vertex 24625.83984375 17884.501953125 46599.984375
    vertex 24649.048828125 17884.501953125 43149.984375
    vertex 24625.83984375 17884.501953125 43149.984375
  endloop
endfacet
facet normal 0 1 2.610589695806187e-13
  outer loop
    vertex 24649.048828125 17884.501953125 43149.984375
    vertex 24625.83984375 17884.501953125 46599.984375
    vertex 24649.048828125 17884.501953125 46599.984375
  endloop
endfacet
facet normal 0 1 2.610589695806187e-13
  outer loop
    vertex 24649.048828125 17884.501953125 46599.984375
    vertex 24672.255859375 17884.501953125 43149.984375
    vertex 24649.048828125 17884.501953125 43149.984375
  endloop
endfacet
facet normal 0 1 2.610589695806187e-13
  outer loop
    vertex 24672.255859375 17884.501953125 43149.984375
    vertex 24649.048828125 17884.501953125 46599.984375
    vertex 24672.255859375 17884.501953125 46599.984375
  endloop
endfacet
facet normal 0 1 2.610589695806187e-13
  outer loop
    vertex 24672.255859375 17884.501953125 46599.984375
    vertex 24857.919921875 17884.501953125 43149.984375
    vertex 24672.255859375 17884.501953125 43149.984375
  endloop
endfacet
facet normal 0 1 2.610589695806187e-13
  outer loop
    vertex 24857.919921875 17884.501953125 43149.984375
    vertex 24672.255859375 17884.501953125 46599.984375
    vertex 24857.919921875 17884.501953125 46599.984375
  endloop
endfacet
facet normal 1 -2.986196359633375e-13 4.839680631078813e-13
  outer loop
    vertex 24857.919921875 17484.501953125 43149.984375
    vertex 24857.919921875 17884.501953125 46599.984375
    vertex 24857.919921875 17484.501953125 46599.984375
  endloop
endfacet
facet normal 1 -2.986196359633375e-13 4.839680631078813e-13
  outer loop
    vertex 24857.919921875 17884.501953125 46599.984375
    vertex 24857.919921875 17484.501953125 43149.984375
    vertex 24857.919921875 17884.501953125 43149.984375
  endloop
endfacet
facet normal 0 0 -1
  outer loop
    vertex 36053.61328125 17884.501953125 43149.984375
    vertex 35993.76171875 17484.501953125 43149.984375
    vertex 35993.76171875 17884.501953125 43149.984375
  endloop
endfacet
facet normal 0 0 -1
  outer loop
    vertex 35993.76171875 17484.501953125 43149.984375
    vertex 36053.61328125 17884.501953125 43149.984375
    vertex 36193.76171875 17484.501953125 43149.984375
  endloop
endfacet
facet normal 0 0 -1
  outer loop
    vertex 36193.76171875 17484.501953125 43149.984375
    vertex 36053.61328125 17884.501953125 43149.984375
    vertex 36073.61328125 17884.501953125 43149.984375
  endloop
endfacet
facet normal 0 0 -1
  outer loop
    vertex 36193.76171875 17484.501953125 43149.984375
    vertex 36073.61328125 17884.501953125 43149.984375
    vertex 36093.61328125 17884.501953125 43149.984375
  endloop
endfacet
facet normal 0 0 -1
  outer loop
    vertex 36193.76171875 17484.501953125 43149.984375
    vertex 36093.61328125 17884.501953125 43149.984375
    vertex 36113.61328125 17884.501953125 43149.984375
  endloop
endfacet
facet normal 0 0 -1
  outer loop
    vertex 36193.76171875 17484.501953125 43149.984375
    vertex 36113.61328125 17884.501953125 43149.984375
    vertex 36133.61328125 17884.501953125 43149.984375
  endloop
endfacet
facet normal 0 0 -1
  outer loop
    vertex 36193.76171875 17484.501953125 43149.984375
    vertex 36133.61328125 17884.501953125 43149.984375
    vertex 36393.76171875 17884.501953125 43149.984375
  endloop
endfacet
facet normal 0 0 -1
  outer loop
    vertex 36193.76171875 17484.501953125 43149.984375
    vertex 36393.76171875 17884.501953125 43149.984375
    vertex 36393.76171875 17484.501953125 43149.984375
  endloop
endfacet
facet normal 0 0 -1
  outer loop
    vertex 36393.76171875 17484.501953125 43149.984375
    vertex 36393.76171875 17884.501953125 43149.984375
    vertex 36393.76171875 17784.501953125 43149.984375
  endloop
endfacet
facet normal 0 0 1
  outer loop
    vertex 36193.76171875 17484.501953125 46599.984375
    vertex 35993.76171875 17884.501953125 46599.984375
    vertex 35993.76171875 17484.501953125 46599.984375
  endloop
endfacet
facet normal 0 0 1
  outer loop
    vertex 35993.76171875 17884.501953125 46599.984375
    vertex 36193.76171875 17484.501953125 46599.984375
    vertex 36053.61328125 17884.501953125 46599.984375
  endloop
endfacet
facet normal 0 0 1
  outer loop
    vertex 36053.61328125 17884.501953125 46599.984375
    vertex 36193.76171875 17484.501953125 46599.984375
    vertex 36073.61328125 17884.501953125 46599.984375
  endloop
endfacet
facet normal 0 0 1
  outer loop
    vertex 36073.61328125 17884.501953125 46599.984375
    vertex 36193.76171875 17484.501953125 46599.984375
    vertex 36093.61328125 17884.501953125 46599.984375
  endloop
endfacet
facet normal 0 0 1
  outer loop
    vertex 36093.61328125 17884.501953125 46599.984375
    vertex 36193.76171875 17484.501953125 46599.984375
    vertex 36113.61328125 17884.501953125 46599.984375
  endloop
endfacet
facet normal 0 0 1
  outer loop
    vertex 36113.61328125 17884.501953125 46599.984375
    vertex 36193.76171875 17484.501953125 46599.984375
    vertex 36133.61328125 17884.501953125 46599.984375
  endloop
endfacet
facet normal 0 0 1
  outer loop
    vertex 36133.61328125 17884.501953125 46599.984375
    vertex 36193.76171875 17484.501953125 46599.984375
    vertex 36393.76171875 17884.501953125 46599.984375
  endloop
endfacet
facet normal 0 0 1
  outer loop
    vertex 36393.76171875 17884.501953125 46599.984375
    vertex 36193.76171875 17484.501953125 46599.984375
    vertex 36393.76171875 17484.501953125 46599.984375
  endloop
endfacet
facet normal 0 0 1
  outer loop
    vertex 36393.76171875 17884.501953125 46599.984375
    vertex 36393.76171875 17484.501953125 46599.984375
    vertex 36393.76171875 17784.501953125 46599.984375
  endloop
endfacet
facet normal -8.662936904282881e-13 -1 -0
  outer loop
    vertex 36193.76171875 17484.501953125 46599.984375
    vertex 35993.76171875 17484.501953125 43149.984375
    vertex 36193.76171875 17484.501953125 43149.984375
  endloop
endfacet
facet normal -8.662936904282881e-13 -1 -0
  outer loop
    vertex 35993.76171875 17484.501953125 43149.984375
    vertex 36193.76171875 17484.501953125 46599.984375
    vertex 35993.76171875 17484.501953125 46599.984375
  endloop
endfacet
facet normal -1 0 0
  outer loop
    vertex 35993.76171875 17884.501953125 46599.984375
    vertex 35993.76171875 17484.501953125 43149.984375
    vertex 35993.76171875 17484.501953125 46599.984375
  endloop
endfacet
facet normal -1 0 0
  outer loop
    vertex 35993.76171875 17484.501953125 43149.984375
    vertex 35993.76171875 17884.501953125 46599.984375
    vertex 35993.76171875 17884.501953125 43149.984375
  endloop
endfacet
facet normal 0 1 0
  outer loop
    vertex 35993.76171875 17884.501953125 46599.984375
    vertex 36053.61328125 17884.501953125 43149.984375
    vertex 35993.76171875 17884.501953125 43149.984375
  endloop
endfacet
facet normal 0 1 0
  outer loop
    vertex 36053.61328125 17884.501953125 43149.984375
    vertex 35993.76171875 17884.501953125 46599.984375
    vertex 36053.61328125 17884.501953125 46599.984375
  endloop
endfacet
facet normal 0 1 0
  outer loop
    vertex 36053.61328125 17884.501953125 46599.984375
    vertex 36073.61328125 17884.501953125 43149.984375
    vertex 36053.61328125 17884.501953125 43149.984375
  endloop
endfacet
facet normal 0 1 0
  outer loop
    vertex 36073.61328125 17884.501953125 43149.984375
    vertex 36053.61328125 17884.501953125 46599.984375
    vertex 36073.61328125 17884.501953125 46599.984375
  endloop
endfacet
facet normal 0 1 0
  outer loop
    vertex 36073.61328125 17884.501953125 46599.984375
    vertex 36093.61328125 17884.501953125 43149.984375
    vertex 36073.61328125 17884.501953125 43149.984375
  endloop
endfacet
facet normal 0 1 0
  outer loop
    vertex 36093.61328125 17884.501953125 43149.984375
    vertex 36073.61328125 17884.501953125 46599.984375
    vertex 36093.61328125 17884.501953125 46599.984375
  endloop
endfacet
facet normal 0 1 0
  outer loop
    vertex 36093.61328125 17884.501953125 46599.984375
    vertex 36113.61328125 17884.501953125 43149.984375
    vertex 36093.61328125 17884.501953125 43149.984375
  endloop
endfacet
facet normal 0 1 0
  outer loop
    vertex 36113.61328125 17884.501953125 43149.984375
    vertex 36093.61328125 17884.501953125 46599.984375
    vertex 36113.61328125 17884.501953125 46599.984375
  endloop
endfacet
facet normal 0 1 0
  outer loop
    vertex 36113.61328125 17884.501953125 46599.984375
    vertex 36133.61328125 17884.501953125 43149.984375
    vertex 36113.61328125 17884.501953125 43149.984375
  endloop
endfacet
facet normal 0 1 0
  outer loop
    vertex 36133.61328125 17884.501953125 43149.984375
    vertex 36113.61328125 17884.501953125 46599.984375
    vertex 36133.61328125 17884.501953125 46599.984375
  endloop
endfacet
facet normal 1.11000065475958e-12 1 0
  outer loop
    vertex 36133.61328125 17884.501953125 46599.984375
    vertex 36393.76171875 17884.501953125 43149.984375
    vertex 36133.61328125 17884.501953125 43149.984375
  endloop
endfacet
facet normal 1.11000065475958e-12 1 0
  outer loop
    vertex 36393.76171875 17884.501953125 43149.984375
    vertex 36133.61328125 17884.501953125 46599.984375
    vertex 36393.76171875 17884.501953125 46599.984375
  endloop
endfacet
facet normal 1 0 0
  outer loop
    vertex 36393.76171875 17884.501953125 43149.984375
    vertex 36393.76171875 17784.501953125 46599.984375
    vertex 36393.76171875 17784.501953125 43149.984375
  endloop
endfacet
facet normal 1 0 0
  outer loop
    vertex 36393.76171875 17784.501953125 46599.984375
    vertex 36393.76171875 17884.501953125 43149.984375
    vertex 36393.76171875 17884.501953125 46599.984375
  endloop
endfacet
facet normal 1 -1.925097180190821e-13 0
  outer loop
    vertex 36393.76171875 17784.501953125 43149.984375
    vertex 36393.76171875 17484.501953125 46599.984375
    vertex 36393.76171875 17484.501953125 43149.984375
  endloop
endfacet
facet normal 1 -1.925097180190821e-13 0
  outer loop
    vertex 36393.76171875 17484.501953125 46599.984375
    vertex 36393.76171875 17784.501953125 43149.984375
    vertex 36393.76171875 17784.501953125 46599.984375
  endloop
endfacet
facet normal -0 -1 -0
  outer loop
    vertex 36393.76171875 17484.501953125 46599.984375
    vertex 36193.76171875 17484.501953125 43149.984375
    vertex 36393.76171875 17484.501953125 43149.984375
  endloop
endfacet
facet normal -0 -1 -0
  outer loop
    vertex 36193.76171875 17484.501953125 43149.984375
    vertex 36393.76171875 17484.501953125 46599.984375
    vertex 36193.76171875 17484.501953125 46599.984375
  endloop
endfacet
facet normal 0 0 -1
  outer loop
    vertex 36393.76171875 17784.501953125 43149.984375
    vertex 36393.76171875 17384.501953125 43149.984375
    vertex 36393.76171875 17484.501953125 43149.984375
  endloop
endfacet
facet normal 0 0 -1
  outer loop
    vertex 36393.76171875 17384.501953125 43149.984375
    vertex 36393.76171875 17784.501953125 43149.984375
    vertex 36493.76171875 17784.501953125 43149.984375
  endloop
endfacet
facet normal 0 0 -1
  outer loop
    vertex 36393.76171875 17384.501953125 43149.984375
    vertex 36493.76171875 17784.501953125 43149.984375
    vertex 36493.76171875 17384.501953125 43149.984375
  endloop
endfacet
facet normal 0 0 1
  outer loop
    vertex 36393.76171875 17384.501953125 45699.984375
    vertex 36393.76171875 17784.501953125 45699.984375
    vertex 36393.76171875 17484.501953125 45699.984375
  endloop
endfacet
facet normal 0 0 1
  outer loop
    vertex 36393.76171875 17784.501953125 45699.984375
    vertex 36393.76171875 17384.501953125 45699.984375
    vertex 36493.76171875 17384.501953125 45699.984375
  endloop
endfacet
facet normal 0 0 1
  outer loop
    vertex 36393.76171875 17784.501953125 45699.984375
    vertex 36493.76171875 17384.501953125 45699.984375
    vertex 36493.76171875 17784.501953125 45699.984375
  endloop
endfacet
facet normal 0 1 0
  outer loop
    vertex 36393.76171875 17784.501953125 45699.984375
    vertex 36493.76171875 17784.501953125 43149.984375
    vertex 36393.76171875 17784.501953125 43149.984375
  endloop
endfacet
facet normal 0 1 0
  outer loop
    vertex 36493.76171875 17784.501953125 43149.984375
    vertex 36393.76171875 17784.501953125 45699.984375
    vertex 36493.76171875 17784.501953125 45699.984375
  endloop
endfacet
facet normal 1 0 0
  outer loop
    vertex 36493.76171875 17784.501953125 43149.984375
    vertex 36493.76171875 17384.501953125 45699.984375
    vertex 36493.76171875 17384.501953125 43149.984375
  endloop
endfacet
facet normal 1 0 0
  outer loop
    vertex 36493.76171875 17384.501953125 45699.984375
    vertex 36493.76171875 17784.501953125 43149.984375
    vertex 36493.76171875 17784.501953125 45699.984375
  endloop
endfacet
facet normal -0 -1 -0
  outer loop
    vertex 36493.76171875 17384.501953125 45699.984375
    vertex 36393.76171875 17384.501953125 43149.984375
    vertex 36493.76171875 17384.501953125 43149.984375
  endloop
endfacet
facet normal -0 -1 -0
  outer loop
    vertex 36393.76171875 17384.501953125 43149.984375
    vertex 36493.76171875 17384.501953125 45699.984375
    vertex 36393.76171875 17384.501953125 45699.984375
  endloop
endfacet
facet normal -1 -5.775291269521921e-13 -0
  outer loop
    vertex 36393.76171875 17484.501953125 45699.984375
    vertex 36393.76171875 17384.501953125 43149.984375
    vertex 36393.76171875 17384.501953125 45699.984375
  endloop
endfacet
facet normal -1 -5.775291269521921e-13 -0
  outer loop
    vertex 36393.76171875 17384.501953125 43149.984375
    vertex 36393.76171875 17484.501953125 45699.984375
    vertex 36393.76171875 17484.501953125 43149.984375
  endloop
endfacet
facet normal -1 1.925097180190821e-13 0
  outer loop
    vertex 36393.76171875 17784.501953125 45699.984375
    vertex 36393.76171875 17484.501953125 43149.984375
    vertex 36393.76171875 17484.501953125 45699.984375
  endloop
endfacet
facet normal -1 1.925097180190821e-13 0
  outer loop
    vertex 36393.76171875 17484.501953125 43149.984375
    vertex 36393.76171875 17784.501953125 45699.984375
    vertex 36393.76171875 17784.501953125 43149.984375
  endloop
endfacet
facet normal -3.102908690622366e-14 -1.241163476248947e-13 -1
  outer loop
    vertex 18793.76171875 12884.5009765625 43149.984375
    vertex 18793.76171875 12684.5009765625 43149.984375
    vertex 18593.76171875 12884.5009765625 43149.984375
  endloop
endfacet
facet normal -3.102908690622366e-14 -1.241163476248947e-13 -1
  outer loop
    vertex 18593.76171875 12984.5009765625 43149.984375
    vertex 18393.76171875 12484.5009765625 43149.984375
    vertex 18393.76171875 12984.5009765625 43149.984375
  endloop
endfacet
facet normal -3.102908690622366e-14 -1.241163476248947e-13 -1
  outer loop
    vertex 18393.76171875 12484.5009765625 43149.984375
    vertex 18593.76171875 12984.5009765625 43149.984375
    vertex 18593.76171875 12884.5009765625 43149.984375
  endloop
endfacet
facet normal -3.102908690622366e-14 -1.241163476248947e-13 -1
  outer loop
    vertex 18393.76171875 12484.5009765625 43149.984375
    vertex 18593.76171875 12884.5009765625 43149.984375
    vertex 18793.76171875 12484.5009765625 43149.984375
  endloop
endfacet
facet normal -3.102908690622366e-14 -1.241163476248947e-13 -1
  outer loop
    vertex 18793.76171875 12484.5009765625 43149.984375
    vertex 18593.76171875 12884.5009765625 43149.984375
    vertex 18793.76171875 12684.5009765625 43149.984375
  endloop
endfacet
facet normal 3.102908690622366e-14 1.241163476248947e-13 1
  outer loop
    vertex 18793.76171875 12484.5009765625 46599.984375
    vertex 18593.76171875 12884.5009765625 46599.984375
    vertex 18393.76171875 12484.5009765625 46599.984375
  endloop
endfacet
facet normal 3.102908690622366e-14 1.241163476248947e-13 1
  outer loop
    vertex 18593.76171875 12884.5009765625 46599.984375
    vertex 18793.76171875 12484.5009765625 46599.984375
    vertex 18793.76171875 12684.5009765625 46599.984375
  endloop
endfacet
facet normal 3.102908690622366e-14 1.241163476248947e-13 1
  outer loop
    vertex 18593.76171875 12884.5009765625 46599.984375
    vertex 18793.76171875 12684.5009765625 46599.984375
    vertex 18793.76171875 12884.5009765625 46599.984375
  endloop
endfacet
facet normal 3.102908690622366e-14 1.241163476248947e-13 1
  outer loop
    vertex 18393.76171875 12484.5009765625 46599.984375
    vertex 18593.76171875 12984.5009765625 46599.984375
    vertex 18393.76171875 12984.5009765625 46599.984375
  endloop
endfacet
facet normal 3.102908690622366e-14 1.241163476248947e-13 1
  outer loop
    vertex 18593.76171875 12984.5009765625 46599.984375
    vertex 18393.76171875 12484.5009765625 46599.984375
    vertex 18593.76171875 12884.5009765625 46599.984375
  endloop
endfacet
facet normal 1 0 -3.102908690622366e-14
  outer loop
    vertex 18593.76171875 12984.5009765625 43149.984375
    vertex 18593.76171875 12884.5009765625 46599.984375
    vertex 18593.76171875 12884.5009765625 43149.984375
  endloop
endfacet
facet normal 1 0 -3.102908690622366e-14
  outer loop
    vertex 18593.76171875 12884.5009765625 46599.984375
    vertex 18593.76171875 12984.5009765625 43149.984375
    vertex 18593.76171875 12984.5009765625 46599.984375
  endloop
endfacet
facet normal 5.775291269521921e-13 1 -1.241163476248947e-13
  outer loop
    vertex 18593.76171875 12884.5009765625 46599.984375
    vertex 18793.76171875 12884.5009765625 43149.984375
    vertex 18593.76171875 12884.5009765625 43149.984375
  endloop
endfacet
facet normal 5.775291269521921e-13 1 -1.241163476248947e-13
  outer loop
    vertex 18793.76171875 12884.5009765625 43149.984375
    vertex 18593.76171875 12884.5009765625 46599.984375
    vertex 18793.76171875 12884.5009765625 46599.984375
  endloop
endfacet
facet normal 1 -4.33146845214144e-13 -3.102908690622366e-14
  outer loop
    vertex 18793.76171875 12884.5009765625 43149.984375
    vertex 18793.76171875 12684.5009765625 46599.984375
    vertex 18793.76171875 12684.5009765625 43149.984375
  endloop
endfacet
facet normal 1 -4.33146845214144e-13 -3.102908690622366e-14
  outer loop
    vertex 18793.76171875 12684.5009765625 46599.984375
    vertex 18793.76171875 12884.5009765625 43149.984375
    vertex 18793.76171875 12884.5009765625 46599.984375
  endloop
endfacet
facet normal 1 0 -3.102908690622366e-14
  outer loop
    vertex 18793.76171875 12684.5009765625 43149.984375
    vertex 18793.76171875 12484.5009765625 46599.984375
    vertex 18793.76171875 12484.5009765625 43149.984375
  endloop
endfacet
facet normal 1 0 -3.102908690622366e-14
  outer loop
    vertex 18793.76171875 12484.5009765625 46599.984375
    vertex 18793.76171875 12684.5009765625 43149.984375
    vertex 18793.76171875 12684.5009765625 46599.984375
  endloop
endfacet
facet normal 1.44382281738048e-13 -1 1.241163476248947e-13
  outer loop
    vertex 18793.76171875 12484.5009765625 46599.984375
    vertex 18393.76171875 12484.5009765625 43149.984375
    vertex 18793.76171875 12484.5009765625 43149.984375
  endloop
endfacet
facet normal 1.44382281738048e-13 -1 1.241163476248947e-13
  outer loop
    vertex 18393.76171875 12484.5009765625 43149.984375
    vertex 18793.76171875 12484.5009765625 46599.984375
    vertex 18393.76171875 12484.5009765625 46599.984375
  endloop
endfacet
facet normal -1 -2.88764563476096e-13 3.102908690622366e-14
  outer loop
    vertex 18393.76171875 12484.5009765625 46599.984375
    vertex 18393.76171875 12984.5009765625 43149.984375
    vertex 18393.76171875 12484.5009765625 43149.984375
  endloop
endfacet
facet normal -1 -2.88764563476096e-13 3.102908690622366e-14
  outer loop
    vertex 18393.76171875 12984.5009765625 43149.984375
    vertex 18393.76171875 12484.5009765625 46599.984375
    vertex 18393.76171875 12984.5009765625 46599.984375
  endloop
endfacet
facet normal 0 1 -1.241163476248947e-13
  outer loop
    vertex 18393.76171875 12984.5009765625 46599.984375
    vertex 18593.76171875 12984.5009765625 43149.984375
    vertex 18393.76171875 12984.5009765625 43149.984375
  endloop
endfacet
facet normal 0 1 -1.241163476248947e-13
  outer loop
    vertex 18593.76171875 12984.5009765625 43149.984375
    vertex 18393.76171875 12984.5009765625 46599.984375
    vertex 18593.76171875 12984.5009765625 46599.984375
  endloop
endfacet
facet normal 0 0 -1
  outer loop
    vertex 30793.76171875 2784.501220703125 43149.984375
    vertex 30393.76171875 2384.501220703125 43149.984375
    vertex 30393.76171875 2784.501220703125 43149.984375
  endloop
endfacet
facet normal 0 0 -1
  outer loop
    vertex 30393.76171875 2384.501220703125 43149.984375
    vertex 30793.76171875 2784.501220703125 43149.984375
    vertex 30793.76171875 2384.501220703125 43149.984375
  endloop
endfacet
facet normal 0 0 1
  outer loop
    vertex 30793.76171875 2384.501220703125 46599.984375
    vertex 30393.76171875 2784.501220703125 46599.984375
    vertex 30393.76171875 2384.501220703125 46599.984375
  endloop
endfacet
facet normal 0 0 1
  outer loop
    vertex 30393.76171875 2784.501220703125 46599.984375
    vertex 30793.76171875 2384.501220703125 46599.984375
    vertex 30793.76171875 2784.501220703125 46599.984375
  endloop
endfacet
facet normal 1 0 0
  outer loop
    vertex 30793.76171875 2784.501220703125 43149.984375
    vertex 30793.76171875 2384.501220703125 46599.984375
    vertex 30793.76171875 2384.501220703125 43149.984375
  endloop
endfacet
facet normal 1 0 0
  outer loop
    vertex 30793.76171875 2384.501220703125 46599.984375
    vertex 30793.76171875 2784.501220703125 43149.984375
    vertex 30793.76171875 2784.501220703125 46599.984375
  endloop
endfacet
facet normal -0 -1 -0
  outer loop
    vertex 30793.76171875 2384.501220703125 46599.984375
    vertex 30393.76171875 2384.501220703125 43149.984375
    vertex 30793.76171875 2384.501220703125 43149.984375
  endloop
endfacet
facet normal -0 -1 -0
  outer loop
    vertex 30393.76171875 2384.501220703125 43149.984375
    vertex 30793.76171875 2384.501220703125 46599.984375
    vertex 30393.76171875 2384.501220703125 46599.984375
  endloop
endfacet
facet normal -1 0 0
  outer loop
    vertex 30393.76171875 2784.501220703125 46599.984375
    vertex 30393.76171875 2384.501220703125 43149.984375
    vertex 30393.76171875 2384.501220703125 46599.984375
  endloop
endfacet
facet normal -1 0 0
  outer loop
    vertex 30393.76171875 2384.501220703125 43149.984375
    vertex 30393.76171875 2784.501220703125 46599.984375
    vertex 30393.76171875 2784.501220703125 43149.984375
  endloop
endfacet
facet normal 0 1 0
  outer loop
    vertex 30393.76171875 2784.501220703125 46599.984375
    vertex 30793.76171875 2784.501220703125 43149.984375
    vertex 30393.76171875 2784.501220703125 43149.984375
  endloop
endfacet
facet normal 0 1 0
  outer loop
    vertex 30793.76171875 2784.501220703125 43149.984375
    vertex 30393.76171875 2784.501220703125 46599.984375
    vertex 30793.76171875 2784.501220703125 46599.984375
  endloop
endfacet
facet normal 0 0 -1
  outer loop
    vertex 12893.76171875 2784.501220703125 43149.984375
    vertex 12493.76171875 2384.501220703125 43149.984375
    vertex 12493.76171875 2784.501220703125 43149.984375
  endloop
endfacet
facet normal 0 0 -1
  outer loop
    vertex 12493.76171875 2384.501220703125 43149.984375
    vertex 12893.76171875 2784.501220703125 43149.984375
    vertex 12893.76171875 2384.501220703125 43149.984375
  endloop
endfacet
facet normal 0 0 1
  outer loop
    vertex 12893.76171875 2384.501220703125 46599.984375
    vertex 12493.76171875 2784.501220703125 46599.984375
    vertex 12493.76171875 2384.501220703125 46599.984375
  endloop
endfacet
facet normal 0 0 1
  outer loop
    vertex 12493.76171875 2784.501220703125 46599.984375
    vertex 12893.76171875 2384.501220703125 46599.984375
    vertex 12893.76171875 2784.501220703125 46599.984375
  endloop
endfacet
facet normal -1 0 0
  outer loop
    vertex 12493.76171875 2784.501220703125 46599.984375
    vertex 12493.76171875 2384.501220703125 43149.984375
    vertex 12493.76171875 2384.501220703125 46599.984375
  endloop
endfacet
facet normal -1 0 0
  outer loop
    vertex 12493.76171875 2384.501220703125 43149.984375
    vertex 12493.76171875 2784.501220703125 46599.984375
    vertex 12493.76171875 2784.501220703125 43149.984375
  endloop
endfacet
facet normal 0 1 0
  outer loop
    vertex 12493.76171875 2784.501220703125 46599.984375
    vertex 12893.76171875 2784.501220703125 43149.984375
    vertex 12493.76171875 2784.501220703125 43149.984375
  endloop
endfacet
facet normal 0 1 0
  outer loop
    vertex 12893.76171875 2784.501220703125 43149.984375
    vertex 12493.76171875 2784.501220703125 46599.984375
    vertex 12893.76171875 2784.501220703125 46599.984375
  endloop
endfacet
facet normal 1 0 0
  outer loop
    vertex 12893.76171875 2784.501220703125 43149.984375
    vertex 12893.76171875 2384.501220703125 46599.984375
    vertex 12893.76171875 2384.501220703125 43149.984375
  endloop
endfacet
facet normal 1 0 0
  outer loop
    vertex 12893.76171875 2384.501220703125 46599.984375
    vertex 12893.76171875 2784.501220703125 43149.984375
    vertex 12893.76171875 2784.501220703125 46599.984375
  endloop
endfacet
facet normal -0 -1 -0
  outer loop
    vertex 12893.76171875 2384.501220703125 46599.984375
    vertex 12493.76171875 2384.501220703125 43149.984375
    vertex 12893.76171875 2384.501220703125 43149.984375
  endloop
endfacet
facet normal -0 -1 -0
  outer loop
    vertex 12493.76171875 2384.501220703125 43149.984375
    vertex 12893.76171875 2384.501220703125 46599.984375
    vertex 12493.76171875 2384.501220703125 46599.984375
  endloop
endfacet
facet normal 0 0 -1
  outer loop
    vertex 30553.76171875 17884.501953125 43149.984375
    vertex 30393.76171875 17484.501953125 43149.984375
    vertex 30393.76171875 17884.501953125 43149.984375
  endloop
endfacet
facet normal 0 0 -1
  outer loop
    vertex 30393.76171875 17484.501953125 43149.984375
    vertex 30553.76171875 17884.501953125 43149.984375
    vertex 30693.76171875 17484.501953125 43149.984375
  endloop
endfacet
facet normal 0 0 -1
  outer loop
    vertex 30693.76171875 17484.501953125 43149.984375
    vertex 30553.76171875 17884.501953125 43149.984375
    vertex 30573.76171875 17884.501953125 43149.984375
  endloop
endfacet
facet normal 0 0 -1
  outer loop
    vertex 30693.76171875 17484.501953125 43149.984375
    vertex 30573.76171875 17884.501953125 43149.984375
    vertex 30593.76171875 17884.501953125 43149.984375
  endloop
endfacet
facet normal 0 0 -1
  outer loop
    vertex 30693.76171875 17484.501953125 43149.984375
    vertex 30593.76171875 17884.501953125 43149.984375
    vertex 30613.76171875 17884.501953125 43149.984375
  endloop
endfacet
facet normal 0 0 -1
  outer loop
    vertex 30693.76171875 17484.501953125 43149.984375
    vertex 30613.76171875 17884.501953125 43149.984375
    vertex 30633.76171875 17884.501953125 43149.984375
  endloop
endfacet
facet normal 0 0 -1
  outer loop
    vertex 30693.76171875 17484.501953125 43149.984375
    vertex 30633.76171875 17884.501953125 43149.984375
    vertex 30793.76171875 17884.501953125 43149.984375
  endloop
endfacet
facet normal 0 0 -1
  outer loop
    vertex 30693.76171875 17484.501953125 43149.984375
    vertex 30793.76171875 17884.501953125 43149.984375
    vertex 30793.76171875 17484.501953125 43149.984375
  endloop
endfacet
facet normal 0 0 1
  outer loop
    vertex 30693.76171875 17484.501953125 46599.984375
    vertex 30393.76171875 17884.501953125 46599.984375
    vertex 30393.76171875 17484.501953125 46599.984375
  endloop
endfacet
facet normal 0 0 1
  outer loop
    vertex 30393.76171875 17884.501953125 46599.984375
    vertex 30693.76171875 17484.501953125 46599.984375
    vertex 30553.76171875 17884.501953125 46599.984375
  endloop
endfacet
facet normal 0 0 1
  outer loop
    vertex 30553.76171875 17884.501953125 46599.984375
    vertex 30693.76171875 17484.501953125 46599.984375
    vertex 30573.76171875 17884.501953125 46599.984375
  endloop
endfacet
facet normal 0 0 1
  outer loop
    vertex 30573.76171875 17884.501953125 46599.984375
    vertex 30693.76171875 17484.501953125 46599.984375
    vertex 30593.76171875 17884.501953125 46599.984375
  endloop
endfacet
facet normal 0 0 1
  outer loop
    vertex 30593.76171875 17884.501953125 46599.984375
    vertex 30693.76171875 17484.501953125 46599.984375
    vertex 30613.76171875 17884.501953125 46599.984375
  endloop
endfacet
facet normal 0 0 1
  outer loop
    vertex 30613.76171875 17884.501953125 46599.984375
    vertex 30693.76171875 17484.501953125 46599.984375
    vertex 30633.76171875 17884.501953125 46599.984375
  endloop
endfacet
facet normal 0 0 1
  outer loop
    vertex 30633.76171875 17884.501953125 46599.984375
    vertex 30693.76171875 17484.501953125 46599.984375
    vertex 30793.76171875 17884.501953125 46599.984375
  endloop
endfacet
facet normal 0 0 1
  outer loop
    vertex 30793.76171875 17884.501953125 46599.984375
    vertex 30693.76171875 17484.501953125 46599.984375
    vertex 30793.76171875 17484.501953125 46599.984375
  endloop
endfacet
facet normal 0 1 0
  outer loop
    vertex 30613.76171875 17884.501953125 46599.984375
    vertex 30633.76171875 17884.501953125 43149.984375
    vertex 30613.76171875 17884.501953125 43149.984375
  endloop
endfacet
facet normal 0 1 0
  outer loop
    vertex 30633.76171875 17884.501953125 43149.984375
    vertex 30613.76171875 17884.501953125 46599.984375
    vertex 30633.76171875 17884.501953125 46599.984375
  endloop
endfacet
facet normal 0 1 0
  outer loop
    vertex 30633.76171875 17884.501953125 46599.984375
    vertex 30793.76171875 17884.501953125 43149.984375
    vertex 30633.76171875 17884.501953125 43149.984375
  endloop
endfacet
facet normal 0 1 0
  outer loop
    vertex 30793.76171875 17884.501953125 43149.984375
    vertex 30633.76171875 17884.501953125 46599.984375
    vertex 30793.76171875 17884.501953125 46599.984375
  endloop
endfacet
facet normal 1 0 0
  outer loop
    vertex 30793.76171875 17884.501953125 43149.984375
    vertex 30793.76171875 17484.501953125 46599.984375
    vertex 30793.76171875 17484.501953125 43149.984375
  endloop
endfacet
facet normal 1 0 0
  outer loop
    vertex 30793.76171875 17484.501953125 46599.984375
    vertex 30793.76171875 17884.501953125 43149.984375
    vertex 30793.76171875 17884.501953125 46599.984375
  endloop
endfacet
facet normal -0 -1 -0
  outer loop
    vertex 30793.76171875 17484.501953125 46599.984375
    vertex 30693.76171875 17484.501953125 43149.984375
    vertex 30793.76171875 17484.501953125 43149.984375
  endloop
endfacet
facet normal -0 -1 -0
  outer loop
    vertex 30693.76171875 17484.501953125 43149.984375
    vertex 30793.76171875 17484.501953125 46599.984375
    vertex 30693.76171875 17484.501953125 46599.984375
  endloop
endfacet
facet normal -0 -1 -0
  outer loop
    vertex 30693.76171875 17484.501953125 46599.984375
    vertex 30393.76171875 17484.501953125 43149.984375
    vertex 30693.76171875 17484.501953125 43149.984375
  endloop
endfacet
facet normal -0 -1 -0
  outer loop
    vertex 30393.76171875 17484.501953125 43149.984375
    vertex 30693.76171875 17484.501953125 46599.984375
    vertex 30393.76171875 17484.501953125 46599.984375
  endloop
endfacet
facet normal -1 0 0
  outer loop
    vertex 30393.76171875 17884.501953125 46599.984375
    vertex 30393.76171875 17484.501953125 43149.984375
    vertex 30393.76171875 17484.501953125 46599.984375
  endloop
endfacet
facet normal -1 0 0
  outer loop
    vertex 30393.76171875 17484.501953125 43149.984375
    vertex 30393.76171875 17884.501953125 46599.984375
    vertex 30393.76171875 17884.501953125 43149.984375
  endloop
endfacet
facet normal 0 1 0
  outer loop
    vertex 30393.76171875 17884.501953125 46599.984375
    vertex 30553.76171875 17884.501953125 43149.984375
    vertex 30393.76171875 17884.501953125 43149.984375
  endloop
endfacet
facet normal 0 1 0
  outer loop
    vertex 30553.76171875 17884.501953125 43149.984375
    vertex 30393.76171875 17884.501953125 46599.984375
    vertex 30553.76171875 17884.501953125 46599.984375
  endloop
endfacet
facet normal 0 1 0
  outer loop
    vertex 30553.76171875 17884.501953125 46599.984375
    vertex 30573.76171875 17884.501953125 43149.984375
    vertex 30553.76171875 17884.501953125 43149.984375
  endloop
endfacet
facet normal 0 1 0
  outer loop
    vertex 30573.76171875 17884.501953125 43149.984375
    vertex 30553.76171875 17884.501953125 46599.984375
    vertex 30573.76171875 17884.501953125 46599.984375
  endloop
endfacet
facet normal 0 1 0
  outer loop
    vertex 30573.76171875 17884.501953125 46599.984375
    vertex 30593.76171875 17884.501953125 43149.984375
    vertex 30573.76171875 17884.501953125 43149.984375
  endloop
endfacet
facet normal 0 1 0
  outer loop
    vertex 30593.76171875 17884.501953125 43149.984375
    vertex 30573.76171875 17884.501953125 46599.984375
    vertex 30593.76171875 17884.501953125 46599.984375
  endloop
endfacet
facet normal 0 1 0
  outer loop
    vertex 30593.76171875 17884.501953125 46599.984375
    vertex 30613.76171875 17884.501953125 43149.984375
    vertex 30593.76171875 17884.501953125 43149.984375
  endloop
endfacet
facet normal 0 1 0
  outer loop
    vertex 30613.76171875 17884.501953125 43149.984375
    vertex 30593.76171875 17884.501953125 46599.984375
    vertex 30613.76171875 17884.501953125 46599.984375
  endloop
endfacet
facet normal 0 0 -1
  outer loop
    vertex 36193.76171875 12884.5009765625 43149.984375
    vertex 35993.76171875 12584.5009765625 43149.984375
    vertex 35993.76171875 12884.5009765625 43149.984375
  endloop
endfacet
facet normal 0 0 -1
  outer loop
    vertex 35993.76171875 12584.5009765625 43149.984375
    vertex 36193.76171875 12884.5009765625 43149.984375
    vertex 35993.76171875 12484.5009765625 43149.984375
  endloop
endfacet
facet normal 0 0 -1
  outer loop
    vertex 35993.76171875 12484.5009765625 43149.984375
    vertex 36193.76171875 12884.5009765625 43149.984375
    vertex 36193.76171875 12484.5009765625 43149.984375
  endloop
endfacet
facet normal 0 0 -1
  outer loop
    vertex 36193.76171875 12484.5009765625 43149.984375
    vertex 36193.76171875 12884.5009765625 43149.984375
    vertex 36393.76171875 12484.5009765625 43149.984375
  endloop
endfacet
facet normal 0 0 -1
  outer loop
    vertex 36393.76171875 12484.5009765625 43149.984375
    vertex 36193.76171875 12884.5009765625 43149.984375
    vertex 36393.76171875 12884.5009765625 43149.984375
  endloop
endfacet
facet normal 0 0 -1
  outer loop
    vertex 36393.76171875 12484.5009765625 43149.984375
    vertex 36393.76171875 12884.5009765625 43149.984375
    vertex 36393.76171875 12584.5009765625 43149.984375
  endloop
endfacet
facet normal 0 0 1
  outer loop
    vertex 35993.76171875 12484.5009765625 46599.984375
    vertex 35993.76171875 12884.5009765625 46599.984375
    vertex 35993.76171875 12584.5009765625 46599.984375
  endloop
endfacet
facet normal 0 0 1
  outer loop
    vertex 35993.76171875 12884.5009765625 46599.984375
    vertex 35993.76171875 12484.5009765625 46599.984375
    vertex 36193.76171875 12884.5009765625 46599.984375
  endloop
endfacet
facet normal 0 0 1
  outer loop
    vertex 36193.76171875 12884.5009765625 46599.984375
    vertex 35993.76171875 12484.5009765625 46599.984375
    vertex 36193.76171875 12484.5009765625 46599.984375
  endloop
endfacet
facet normal 0 0 1
  outer loop
    vertex 36193.76171875 12884.5009765625 46599.984375
    vertex 36193.76171875 12484.5009765625 46599.984375
    vertex 36393.76171875 12484.5009765625 46599.984375
  endloop
endfacet
facet normal 0 0 1
  outer loop
    vertex 36193.76171875 12884.5009765625 46599.984375
    vertex 36393.76171875 12484.5009765625 46599.984375
    vertex 36393.76171875 12884.5009765625 46599.984375
  endloop
endfacet
facet normal 0 0 1
  outer loop
    vertex 36393.76171875 12884.5009765625 46599.984375
    vertex 36393.76171875 12484.5009765625 46599.984375
    vertex 36393.76171875 12584.5009765625 46599.984375
  endloop
endfacet
facet normal 1 0 0
  outer loop
    vertex 36393.76171875 12584.5009765625 43149.984375
    vertex 36393.76171875 12484.5009765625 46599.984375
    vertex 36393.76171875 12484.5009765625 43149.984375
  endloop
endfacet
facet normal 1 0 0
  outer loop
    vertex 36393.76171875 12484.5009765625 46599.984375
    vertex 36393.76171875 12584.5009765625 43149.984375
    vertex 36393.76171875 12584.5009765625 46599.984375
  endloop
endfacet
facet normal -8.807319565491689e-13 -1 -0
  outer loop
    vertex 36393.76171875 12484.5009765625 46599.984375
    vertex 36193.76171875 12484.5009765625 43149.984375
    vertex 36393.76171875 12484.5009765625 43149.984375
  endloop
endfacet
facet normal -8.807319565491689e-13 -1 -0
  outer loop
    vertex 36193.76171875 12484.5009765625 43149.984375
    vertex 36393.76171875 12484.5009765625 46599.984375
    vertex 36193.76171875 12484.5009765625 46599.984375
  endloop
endfacet
facet normal -0 -1 -0
  outer loop
    vertex 36193.76171875 12484.5009765625 46599.984375
    vertex 35993.76171875 12484.5009765625 43149.984375
    vertex 36193.76171875 12484.5009765625 43149.984375
  endloop
endfacet
facet normal -0 -1 -0
  outer loop
    vertex 35993.76171875 12484.5009765625 43149.984375
    vertex 36193.76171875 12484.5009765625 46599.984375
    vertex 35993.76171875 12484.5009765625 46599.984375
  endloop
endfacet
facet normal -1 -1.155058253904384e-12 -0
  outer loop
    vertex 35993.76171875 12584.5009765625 46599.984375
    vertex 35993.76171875 12484.5009765625 43149.984375
    vertex 35993.76171875 12484.5009765625 46599.984375
  endloop
endfacet
facet normal -1 -1.155058253904384e-12 -0
  outer loop
    vertex 35993.76171875 12484.5009765625 43149.984375
    vertex 35993.76171875 12584.5009765625 46599.984375
    vertex 35993.76171875 12584.5009765625 43149.984375
  endloop
endfacet
facet normal -1 0 0
  outer loop
    vertex 35993.76171875 12884.5009765625 46599.984375
    vertex 35993.76171875 12584.5009765625 43149.984375
    vertex 35993.76171875 12584.5009765625 46599.984375
  endloop
endfacet
facet normal -1 0 0
  outer loop
    vertex 35993.76171875 12584.5009765625 43149.984375
    vertex 35993.76171875 12884.5009765625 46599.984375
    vertex 35993.76171875 12884.5009765625 43149.984375
  endloop
endfacet
facet normal 5.919673388629643e-13 1 0
  outer loop
    vertex 35993.76171875 12884.5009765625 46599.984375
    vertex 36193.76171875 12884.5009765625 43149.984375
    vertex 35993.76171875 12884.5009765625 43149.984375
  endloop
endfacet
facet normal 5.919673388629643e-13 1 0
  outer loop
    vertex 36193.76171875 12884.5009765625 43149.984375
    vertex 35993.76171875 12884.5009765625 46599.984375
    vertex 36193.76171875 12884.5009765625 46599.984375
  endloop
endfacet
facet normal 0 1 0
  outer loop
    vertex 36193.76171875 12884.5009765625 46599.984375
    vertex 36393.76171875 12884.5009765625 43149.984375
    vertex 36193.76171875 12884.5009765625 43149.984375
  endloop
endfacet
facet normal 0 1 0
  outer loop
    vertex 36393.76171875 12884.5009765625 43149.984375
    vertex 36193.76171875 12884.5009765625 46599.984375
    vertex 36393.76171875 12884.5009765625 46599.984375
  endloop
endfacet
facet normal 1 0 0
  outer loop
    vertex 36393.76171875 12884.5009765625 43149.984375
    vertex 36393.76171875 12584.5009765625 46599.984375
    vertex 36393.76171875 12584.5009765625 43149.984375
  endloop
endfacet
facet normal 1 0 0
  outer loop
    vertex 36393.76171875 12584.5009765625 46599.984375
    vertex 36393.76171875 12884.5009765625 43149.984375
    vertex 36393.76171875 12884.5009765625 46599.984375
  endloop
endfacet
facet normal 0 0 -1
  outer loop
    vertex 30793.76171875 12884.5009765625 43149.984375
    vertex 30793.76171875 12584.5009765625 43149.984375
    vertex 30693.76171875 12884.5009765625 43149.984375
  endloop
endfacet
facet normal 0 0 -1
  outer loop
    vertex 30693.76171875 12884.5009765625 43149.984375
    vertex 30393.76171875 12584.5009765625 43149.984375
    vertex 30393.76171875 12884.5009765625 43149.984375
  endloop
endfacet
facet normal 0 0 -1
  outer loop
    vertex 30393.76171875 12584.5009765625 43149.984375
    vertex 30693.76171875 12884.5009765625 43149.984375
    vertex 30393.76171875 12484.5009765625 43149.984375
  endloop
endfacet
facet normal 0 0 -1
  outer loop
    vertex 30393.76171875 12484.5009765625 43149.984375
    vertex 30693.76171875 12884.5009765625 43149.984375
    vertex 30793.76171875 12484.5009765625 43149.984375
  endloop
endfacet
facet normal 0 0 -1
  outer loop
    vertex 30793.76171875 12484.5009765625 43149.984375
    vertex 30693.76171875 12884.5009765625 43149.984375
    vertex 30793.76171875 12584.5009765625 43149.984375
  endloop
endfacet
facet normal 0 0 1
  outer loop
    vertex 30793.76171875 12484.5009765625 46599.984375
    vertex 30393.76171875 12584.5009765625 46599.984375
    vertex 30393.76171875 12484.5009765625 46599.984375
  endloop
endfacet
facet normal 0 0 1
  outer loop
    vertex 30393.76171875 12584.5009765625 46599.984375
    vertex 30793.76171875 12484.5009765625 46599.984375
    vertex 30393.76171875 12884.5009765625 46599.984375
  endloop
endfacet
facet normal 0 0 1
  outer loop
    vertex 30393.76171875 12884.5009765625 46599.984375
    vertex 30793.76171875 12484.5009765625 46599.984375
    vertex 30693.76171875 12884.5009765625 46599.984375
  endloop
endfacet
facet normal 0 0 1
  outer loop
    vertex 30693.76171875 12884.5009765625 46599.984375
    vertex 30793.76171875 12484.5009765625 46599.984375
    vertex 30793.76171875 12584.5009765625 46599.984375
  endloop
endfacet
facet normal 0 0 1
  outer loop
    vertex 30693.76171875 12884.5009765625 46599.984375
    vertex 30793.76171875 12584.5009765625 46599.984375
    vertex 30793.76171875 12884.5009765625 46599.984375
  endloop
endfacet
facet normal 1 -1.366818984382956e-12 0
  outer loop
    vertex 30793.76171875 12884.5009765625 43149.984375
    vertex 30793.76171875 12584.5009765625 46599.984375
    vertex 30793.76171875 12584.5009765625 43149.984375
  endloop
endfacet
facet normal 1 -1.366818984382956e-12 0
  outer loop
    vertex 30793.76171875 12584.5009765625 46599.984375
    vertex 30793.76171875 12884.5009765625 43149.984375
    vertex 30793.76171875 12884.5009765625 46599.984375
  endloop
endfacet
facet normal 1 0 0
  outer loop
    vertex 30793.76171875 12584.5009765625 43149.984375
    vertex 30793.76171875 12484.5009765625 46599.984375
    vertex 30793.76171875 12484.5009765625 43149.984375
  endloop
endfacet
facet normal 1 0 0
  outer loop
    vertex 30793.76171875 12484.5009765625 46599.984375
    vertex 30793.76171875 12584.5009765625 43149.984375
    vertex 30793.76171875 12584.5009765625 46599.984375
  endloop
endfacet
facet normal -0 -1 -0
  outer loop
    vertex 30793.76171875 12484.5009765625 46599.984375
    vertex 30393.76171875 12484.5009765625 43149.984375
    vertex 30793.76171875 12484.5009765625 43149.984375
  endloop
endfacet
facet normal -0 -1 -0
  outer loop
    vertex 30393.76171875 12484.5009765625 43149.984375
    vertex 30793.76171875 12484.5009765625 46599.984375
    vertex 30393.76171875 12484.5009765625 46599.984375
  endloop
endfacet
facet normal -1 0 0
  outer loop
    vertex 30393.76171875 12584.5009765625 46599.984375
    vertex 30393.76171875 12484.5009765625 43149.984375
    vertex 30393.76171875 12484.5009765625 46599.984375
  endloop
endfacet
facet normal -1 0 0
  outer loop
    vertex 30393.76171875 12484.5009765625 43149.984375
    vertex 30393.76171875 12584.5009765625 46599.984375
    vertex 30393.76171875 12584.5009765625 43149.984375
  endloop
endfacet
facet normal -1 0 0
  outer loop
    vertex 30393.76171875 12884.5009765625 46599.984375
    vertex 30393.76171875 12584.5009765625 43149.984375
    vertex 30393.76171875 12584.5009765625 46599.984375
  endloop
endfacet
facet normal -1 0 0
  outer loop
    vertex 30393.76171875 12584.5009765625 43149.984375
    vertex 30393.76171875 12884.5009765625 46599.984375
    vertex 30393.76171875 12884.5009765625 43149.984375
  endloop
endfacet
facet normal 9.625485900954106e-15 1 0
  outer loop
    vertex 30393.76171875 12884.5009765625 46599.984375
    vertex 30693.76171875 12884.5009765625 43149.984375
    vertex 30393.76171875 12884.5009765625 43149.984375
  endloop
endfacet
facet normal 9.625485900954106e-15 1 0
  outer loop
    vertex 30693.76171875 12884.5009765625 43149.984375
    vertex 30393.76171875 12884.5009765625 46599.984375
    vertex 30693.76171875 12884.5009765625 46599.984375
  endloop
endfacet
facet normal 0 1 0
  outer loop
    vertex 30693.76171875 12884.5009765625 46599.984375
    vertex 30793.76171875 12884.5009765625 43149.984375
    vertex 30693.76171875 12884.5009765625 43149.984375
  endloop
endfacet
facet normal 0 1 0
  outer loop
    vertex 30793.76171875 12884.5009765625 43149.984375
    vertex 30693.76171875 12884.5009765625 46599.984375
    vertex 30793.76171875 12884.5009765625 46599.984375
  endloop
endfacet
facet normal 0 0 -1
  outer loop
    vertex 24793.76171875 2784.501220703125 43149.984375
    vertex 24393.76171875 2384.501220703125 43149.984375
    vertex 24393.76171875 2784.501220703125 43149.984375
  endloop
endfacet
facet normal 0 0 -1
  outer loop
    vertex 24393.76171875 2384.501220703125 43149.984375
    vertex 24793.76171875 2784.501220703125 43149.984375
    vertex 24793.76171875 2384.501220703125 43149.984375
  endloop
endfacet
facet normal 0 0 1
  outer loop
    vertex 24793.76171875 2384.501220703125 46599.984375
    vertex 24393.76171875 2784.501220703125 46599.984375
    vertex 24393.76171875 2384.501220703125 46599.984375
  endloop
endfacet
facet normal 0 0 1
  outer loop
    vertex 24393.76171875 2784.501220703125 46599.984375
    vertex 24793.76171875 2384.501220703125 46599.984375
    vertex 24793.76171875 2784.501220703125 46599.984375
  endloop
endfacet
facet normal 1 0 0
  outer loop
    vertex 24793.76171875 2784.501220703125 43149.984375
    vertex 24793.76171875 2384.501220703125 46599.984375
    vertex 24793.76171875 2384.501220703125 43149.984375
  endloop
endfacet
facet normal 1 0 0
  outer loop
    vertex 24793.76171875 2384.501220703125 46599.984375
    vertex 24793.76171875 2784.501220703125 43149.984375
    vertex 24793.76171875 2784.501220703125 46599.984375
  endloop
endfacet
facet normal -0 -1 -0
  outer loop
    vertex 24793.76171875 2384.501220703125 46599.984375
    vertex 24393.76171875 2384.501220703125 43149.984375
    vertex 24793.76171875 2384.501220703125 43149.984375
  endloop
endfacet
facet normal -0 -1 -0
  outer loop
    vertex 24393.76171875 2384.501220703125 43149.984375
    vertex 24793.76171875 2384.501220703125 46599.984375
    vertex 24393.76171875 2384.501220703125 46599.984375
  endloop
endfacet
facet normal -1 0 0
  outer loop
    vertex 24393.76171875 2784.501220703125 46599.984375
    vertex 24393.76171875 2384.501220703125 43149.984375
    vertex 24393.76171875 2384.501220703125 46599.984375
  endloop
endfacet
facet normal -1 0 0
  outer loop
    vertex 24393.76171875 2384.501220703125 43149.984375
    vertex 24393.76171875 2784.501220703125 46599.984375
    vertex 24393.76171875 2784.501220703125 43149.984375
  endloop
endfacet
facet normal 0 1 0
  outer loop
    vertex 24393.76171875 2784.501220703125 46599.984375
    vertex 24793.76171875 2784.501220703125 43149.984375
    vertex 24393.76171875 2784.501220703125 43149.984375
  endloop
endfacet
facet normal 0 1 0
  outer loop
    vertex 24793.76171875 2784.501220703125 43149.984375
    vertex 24393.76171875 2784.501220703125 46599.984375
    vertex 24793.76171875 2784.501220703125 46599.984375
  endloop
endfacet
facet normal 5.775291286462579e-15 -5.775291286462579e-15 -1
  outer loop
    vertex 25000 17654.009765625 3950
    vertex 24300.421875 17093.841796875 3950
    vertex 24300.421875 17654.009765625 3950
  endloop
endfacet
facet normal 5.775291286462579e-15 -5.775291286462579e-15 -1
  outer loop
    vertex 24300.421875 17093.841796875 3950
    vertex 25000 17654.009765625 3950
    vertex 25000 17093.841796875 3950
  endloop
endfacet
facet normal -5.775291286462579e-15 5.775291286462579e-15 1
  outer loop
    vertex 25000 17093.841796875 43183.97265625
    vertex 24300.421875 17654.009765625 43183.97265625
    vertex 24300.421875 17093.841796875 43183.97265625
  endloop
endfacet
facet normal -5.775291286462579e-15 5.775291286462579e-15 1
  outer loop
    vertex 24300.421875 17654.009765625 43183.97265625
    vertex 25000 17093.841796875 43183.97265625
    vertex 25000 17654.009765625 43183.97265625
  endloop
endfacet
facet normal -1 -6.67079780753789e-29 -5.775291286462579e-15
  outer loop
    vertex 24300.421875 17093.841796875 43183.97265625
    vertex 24300.421875 17654.009765625 3950
    vertex 24300.421875 17093.841796875 3950
  endloop
endfacet
facet normal -1 -6.67079780753789e-29 -5.775291286462579e-15
  outer loop
    vertex 24300.421875 17654.009765625 3950
    vertex 24300.421875 17093.841796875 43183.97265625
    vertex 24300.421875 17654.009765625 43183.97265625
  endloop
endfacet
facet normal 6.67079780753789e-29 1 -5.775291286462579e-15
  outer loop
    vertex 24300.421875 17654.009765625 43183.97265625
    vertex 25000 17654.009765625 3950
    vertex 24300.421875 17654.009765625 3950
  endloop
endfacet
facet normal 6.67079780753789e-29 1 -5.775291286462579e-15
  outer loop
    vertex 25000 17654.009765625 3950
    vertex 24300.421875 17654.009765625 43183.97265625
    vertex 25000 17654.009765625 43183.97265625
  endloop
endfacet
facet normal 1 0 5.775291286462579e-15
  outer loop
    vertex 25000 17654.009765625 3950
    vertex 25000 17093.841796875 43183.97265625
    vertex 25000 17093.841796875 3950
  endloop
endfacet
facet normal 1 0 5.775291286462579e-15
  outer loop
    vertex 25000 17093.841796875 43183.97265625
    vertex 25000 17654.009765625 3950
    vertex 25000 17654.009765625 43183.97265625
  endloop
endfacet
facet normal 0 -1 5.775291286462579e-15
  outer loop
    vertex 25000 17093.841796875 43183.97265625
    vertex 24300.421875 17093.841796875 3950
    vertex 25000 17093.841796875 3950
  endloop
endfacet
facet normal 0 -1 5.775291286462579e-15
  outer loop
    vertex 24300.421875 17093.841796875 3950
    vertex 25000 17093.841796875 43183.97265625
    vertex 24300.421875 17093.841796875 43183.97265625
  endloop
endfacet
endsolid com.sketchup.SketchUp.2019
