solid com.sketchup.SketchUp.2019
facet normal -4.077748067595616e-14 1.409605888095947e-14 -1
  outer loop
    vertex 27758.51171875 19916.365234375 4620
    vertex 24859.26171875 19252.173828125 4620
    vertex 24859.26171875 19916.365234375 4620
  endloop
endfacet
facet normal -4.077748067595616e-14 1.409605888095947e-14 -1
  outer loop
    vertex 24859.26171875 19252.173828125 4620
    vertex 27758.51171875 19916.365234375 4620
    vertex 24859.26171875 14852.1728515625 4620
  endloop
endfacet
facet normal -4.077748067595616e-14 1.409605888095947e-14 -1
  outer loop
    vertex 24859.26171875 14852.1728515625 4620
    vertex 27758.51171875 19916.365234375 4620
    vertex 24859.26171875 14252.1728515625 4620
  endloop
endfacet
facet normal -4.077748067595616e-14 1.409605888095947e-14 -1
  outer loop
    vertex 24859.26171875 14252.1728515625 4620
    vertex 27758.51171875 19916.365234375 4620
    vertex 25639.830078125 14252.1728515625 4620
  endloop
endfacet
facet normal -4.077748067595616e-14 1.409605888095947e-14 -1
  outer loop
    vertex 25639.830078125 14252.1728515625 4620
    vertex 27758.51171875 19916.365234375 4620
    vertex 27758.51171875 14252.1728515625 4620
  endloop
endfacet
facet normal 4.073936419332971e-14 -1.414819545292887e-14 1
  outer loop
    vertex 24859.26171875 19252.173828125 5020
    vertex 27758.51171875 19916.365234375 5020
    vertex 24859.26171875 19916.365234375 5020
  endloop
endfacet
facet normal 4.073936419332971e-14 -1.414819545292887e-14 1
  outer loop
    vertex 27758.51171875 19916.365234375 5020
    vertex 24859.26171875 19252.173828125 5020
    vertex 24859.26171875 14852.1728515625 5020
  endloop
endfacet
facet normal 4.073936419332971e-14 -1.414819545292887e-14 1
  outer loop
    vertex 27758.51171875 19916.365234375 5020
    vertex 24859.26171875 14852.1728515625 5020
    vertex 24859.26171875 14252.1728515625 5020
  endloop
endfacet
facet normal 4.073936419332971e-14 -1.414819545292887e-14 1
  outer loop
    vertex 27758.51171875 19916.365234375 5020
    vertex 24859.26171875 14252.1728515625 5020
    vertex 25639.830078125 14252.1728515625 5020
  endloop
endfacet
facet normal 4.073936419332971e-14 -1.414819545292887e-14 1
  outer loop
    vertex 27758.51171875 19916.365234375 5020
    vertex 25639.830078125 14252.1728515625 5020
    vertex 27758.51171875 14252.1728515625 5020
  endloop
endfacet
facet normal -8.57900556150426e-13 1 1.257071093811561e-14
  outer loop
    vertex 24859.26171875 19916.365234375 5020
    vertex 27758.51171875 19916.365234375 4620
    vertex 24859.26171875 19916.365234375 4620
  endloop
endfacet
facet normal -8.57900556150426e-13 1 1.257071093811561e-14
  outer loop
    vertex 27758.51171875 19916.365234375 4620
    vertex 24859.26171875 19916.365234375 5020
    vertex 27758.51171875 19916.365234375 5020
  endloop
endfacet
facet normal 1.150000708267755e-14 -1 -3.248601406868716e-14
  outer loop
    vertex 25639.830078125 14252.1728515625 4620
    vertex 24859.26171875 14252.1728515625 5020
    vertex 24859.26171875 14252.1728515625 4620
  endloop
endfacet
facet normal 1.150000708267755e-14 -1 -3.248601406868716e-14
  outer loop
    vertex 24859.26171875 14252.1728515625 5020
    vertex 25639.830078125 14252.1728515625 4620
    vertex 25639.830078125 14252.1728515625 5020
  endloop
endfacet
facet normal 6.015707612497083e-15 -1 -2.647008622762379e-14
  outer loop
    vertex 27758.51171875 14252.1728515625 5020
    vertex 25639.830078125 14252.1728515625 4620
    vertex 27758.51171875 14252.1728515625 4620
  endloop
endfacet
facet normal 6.015707612497083e-15 -1 -2.647008622762379e-14
  outer loop
    vertex 25639.830078125 14252.1728515625 4620
    vertex 27758.51171875 14252.1728515625 5020
    vertex 25639.830078125 14252.1728515625 5020
  endloop
endfacet
facet normal 1 1.309300542943624e-15 -3.625431457322283e-14
  outer loop
    vertex 27758.51171875 14252.1728515625 4620
    vertex 27758.51171875 19916.365234375 5020
    vertex 27758.51171875 14252.1728515625 5020
  endloop
endfacet
facet normal 1 1.309300542943624e-15 -3.625431457322283e-14
  outer loop
    vertex 27758.51171875 19916.365234375 5020
    vertex 27758.51171875 14252.1728515625 4620
    vertex 27758.51171875 19916.365234375 4620
  endloop
endfacet
facet normal -1 -2.41303067886325e-14 3.412467723218175e-14
  outer loop
    vertex 24859.26171875 19252.173828125 5020
    vertex 24859.26171875 14852.1728515625 4620
    vertex 24859.26171875 14852.1728515625 5020
  endloop
endfacet
facet normal -1 -2.41303067886325e-14 3.412467723218175e-14
  outer loop
    vertex 24859.26171875 14852.1728515625 4620
    vertex 24859.26171875 19252.173828125 5020
    vertex 24859.26171875 19252.173828125 4620
  endloop
endfacet
facet normal -1 -7.75874698689949e-13 3.412467723218175e-14
  outer loop
    vertex 24859.26171875 19916.365234375 5020
    vertex 24859.26171875 19252.173828125 4620
    vertex 24859.26171875 19252.173828125 5020
  endloop
endfacet
facet normal -1 -7.75874698689949e-13 3.412467723218175e-14
  outer loop
    vertex 24859.26171875 19252.173828125 4620
    vertex 24859.26171875 19916.365234375 5020
    vertex 24859.26171875 19916.365234375 4620
  endloop
endfacet
facet normal -1 -4.920228178877106e-13 3.412467723218175e-14
  outer loop
    vertex 24859.26171875 14852.1728515625 5020
    vertex 24859.26171875 14252.1728515625 4620
    vertex 24859.26171875 14252.1728515625 5020
  endloop
endfacet
facet normal -1 -4.920228178877106e-13 3.412467723218175e-14
  outer loop
    vertex 24859.26171875 14252.1728515625 4620
    vertex 24859.26171875 14852.1728515625 5020
    vertex 24859.26171875 14852.1728515625 4620
  endloop
endfacet
endsolid com.sketchup.SketchUp.2019
