solid com.sketchup.SketchUp.2019
facet normal 0 -1 0
  outer loop
    vertex 30559.26171875 4311.10595703125 5020
    vertex 18471.849609375 4311.10595703125 4620
    vertex 30559.26171875 4311.10595703125 4620
  endloop
endfacet
facet normal 0 -1 0
  outer loop
    vertex 18471.849609375 4311.10595703125 4620
    vertex 30559.26171875 4311.10595703125 5020
    vertex 18471.849609375 4311.10595703125 5020
  endloop
endfacet
facet normal 1 0 5.449599494946776e-15
  outer loop
    vertex 30559.26171875 12252.1728515625 4620
    vertex 30559.26171875 4311.10595703125 5020
    vertex 30559.26171875 4311.10595703125 4620
  endloop
endfacet
facet normal 1 0 5.449599494946776e-15
  outer loop
    vertex 30559.26171875 4311.10595703125 5020
    vertex 30559.26171875 12252.1728515625 4620
    vertex 30559.26171875 12252.1728515625 5020
  endloop
endfacet
facet normal 0 1 0
  outer loop
    vertex 18459.26171875 12252.1728515625 5020
    vertex 30559.26171875 12252.1728515625 4620
    vertex 18459.26171875 12252.1728515625 4620
  endloop
endfacet
facet normal 0 1 0
  outer loop
    vertex 30559.26171875 12252.1728515625 4620
    vertex 18459.26171875 12252.1728515625 5020
    vertex 30559.26171875 12252.1728515625 5020
  endloop
endfacet
facet normal 3.41840411127736e-15 -1.576819699828779e-15 -1
  outer loop
    vertex 30559.26171875 12252.1728515625 4620
    vertex 18468.009765625 10202.1796875 4620
    vertex 18459.26171875 12252.1728515625 4620
  endloop
endfacet
facet normal 3.41840411127736e-15 -1.576819699828779e-15 -1
  outer loop
    vertex 18468.009765625 10202.1796875 4620
    vertex 30559.26171875 12252.1728515625 4620
    vertex 18471.849609375 9302.28125 4620
  endloop
endfacet
facet normal 3.41840411127736e-15 -1.576819699828779e-15 -1
  outer loop
    vertex 18471.849609375 9302.28125 4620
    vertex 30559.26171875 12252.1728515625 4620
    vertex 18471.849609375 4311.10595703125 4620
  endloop
endfacet
facet normal 3.41840411127736e-15 -1.576819699828779e-15 -1
  outer loop
    vertex 18471.849609375 4311.10595703125 4620
    vertex 30559.26171875 12252.1728515625 4620
    vertex 30559.26171875 4311.10595703125 4620
  endloop
endfacet
facet normal -3.09237647119797e-15 1.276369807778508e-15 1
  outer loop
    vertex 30559.26171875 4311.10595703125 5020
    vertex 18471.849609375 9302.28125 5020
    vertex 18471.849609375 4311.10595703125 5020
  endloop
endfacet
facet normal -3.09237647119797e-15 1.276369807778508e-15 1
  outer loop
    vertex 18471.849609375 9302.28125 5020
    vertex 30559.26171875 12252.1728515625 5020
    vertex 18459.26171875 12252.1728515625 5020
  endloop
endfacet
facet normal -3.09237647119797e-15 1.276369807778508e-15 1
  outer loop
    vertex 30559.26171875 12252.1728515625 5020
    vertex 18471.849609375 9302.28125 5020
    vertex 30559.26171875 4311.10595703125 5020
  endloop
endfacet
facet normal 6.251113775918027e-12 -1.089392620979689e-14 1
  outer loop
    vertex 18471.849609375 9302.28125 5020
    vertex 18459.26171875 12252.1728515625 5020
    vertex 18463.9375 9302.28125 5020
  endloop
endfacet
facet normal 6.251113775918027e-12 2.241882250859657e-14 1
  outer loop
    vertex 18471.849609375 9302.28125 5020
    vertex 18463.9375 9302.28125 5020
    vertex 18471.849609375 4311.10595703125 5020
  endloop
endfacet
facet normal -1.23136795898704e-11 -1.993343471784047e-14 -1
  outer loop
    vertex 18468.009765625 10202.1796875 4620
    vertex 18471.849609375 4311.10595703125 4620
    vertex 18462.51171875 10202.1796875 4620
  endloop
endfacet
facet normal -1.23136795898704e-11 -1.993343471784047e-14 -1
  outer loop
    vertex 18471.849609375 4311.10595703125 4620
    vertex 18468.009765625 10202.1796875 4620
    vertex 18471.849609375 9302.28125 4620
  endloop
endfacet
facet normal -8.338619725267726e-12 -8.638266459830377e-15 -1
  outer loop
    vertex 18468.009765625 10202.1796875 4620
    vertex 18462.51171875 10202.1796875 4620
    vertex 18459.26171875 12252.1728515625 4620
  endloop
endfacet
facet normal -0.9999987483024597 -0.001584943267516792 -5.495007237183184e-15
  outer loop
    vertex 18463.9375 9302.28125 5020
    vertex 18471.849609375 4311.10595703125 4620
    vertex 18471.849609375 4311.10595703125 5020
  endloop
endfacet
facet normal -0.9999987483024597 -0.001584943267516792 -5.495007237183184e-15
  outer loop
    vertex 18471.849609375 4311.10595703125 4620
    vertex 18463.9375 9302.28125 5020
    vertex 18462.51171875 10202.1796875 4620
  endloop
endfacet
facet normal -0.9999987483024597 -0.001584943267516792 -5.495007237183184e-15
  outer loop
    vertex 18462.51171875 10202.1796875 4620
    vertex 18463.9375 9302.28125 5020
    vertex 18459.26171875 12252.1728515625 5020
  endloop
endfacet
facet normal -0.9999987483024597 -0.001584943267516792 -5.495007237183184e-15
  outer loop
    vertex 18462.51171875 10202.1796875 4620
    vertex 18459.26171875 12252.1728515625 5020
    vertex 18459.26171875 12252.1728515625 4620
  endloop
endfacet
endsolid com.sketchup.SketchUp.2019
