solid com.sketchup.SketchUp.2019
facet normal 0 -1 9.931420648975203e-14
  outer loop
    vertex 8607.119140625 4.780599117279053 3500.06689453125
    vertex 8.070969670370687e-09 4.780599117279053 3100.011962890625
    vertex 8607.119140625 4.780599117279053 3100.011962890625
  endloop
endfacet
facet normal 0 -1 9.931420648975203e-14
  outer loop
    vertex 8.070969670370687e-09 4.780599117279053 3100.011962890625
    vertex 8607.119140625 4.780599117279053 3500.06689453125
    vertex 8.118051120220571e-09 4.780599117279053 3500.06689453125
  endloop
endfacet
facet normal 1 -3.383544292372658e-26 -4.797579027842128e-14
  outer loop
    vertex 8607.119140625 4162.6279296875 3100.011962890625
    vertex 8607.119140625 4.780599117279053 3500.06689453125
    vertex 8607.119140625 4.780599117279053 3100.011962890625
  endloop
endfacet
facet normal 1 -3.383544292372658e-26 -4.797579027842128e-14
  outer loop
    vertex 8607.119140625 4.780599117279053 3500.06689453125
    vertex 8607.119140625 4162.6279296875 3100.011962890625
    vertex 8607.119140625 4162.6279296875 3500.06689453125
  endloop
endfacet
facet normal -3.854297037563297e-26 1 -9.672333599200847e-14
  outer loop
    vertex 8.070969670370687e-09 4162.6279296875 3100.011962890625
    vertex 7284.05029296875 4162.6279296875 3500.06689453125
    vertex 7284.05029296875 4162.6279296875 3100.011962890625
  endloop
endfacet
facet normal -3.854297037563297e-26 1 -9.672333599200847e-14
  outer loop
    vertex 7284.05029296875 4162.6279296875 3500.06689453125
    vertex 8.070969670370687e-09 4162.6279296875 3100.011962890625
    vertex 8.118051120220571e-09 4162.6279296875 3500.06689453125
  endloop
endfacet
facet normal -1 0 4.797579027842128e-14
  outer loop
    vertex 8.118051120220571e-09 4.780599117279053 3500.06689453125
    vertex 8.070969670370687e-09 4162.6279296875 3100.011962890625
    vertex 8.070969670370687e-09 4.780599117279053 3100.011962890625
  endloop
endfacet
facet normal -1 0 4.797579027842128e-14
  outer loop
    vertex 8.070969670370687e-09 4162.6279296875 3100.011962890625
    vertex 8.118051120220571e-09 4.780599117279053 3500.06689453125
    vertex 8.118051120220571e-09 4162.6279296875 3500.06689453125
  endloop
endfacet
facet normal -1.99272998276101e-13 -3.52630386913147e-13 -1
  outer loop
    vertex 7284.05029296875 4162.6279296875 3100.011962890625
    vertex 8.070969670370687e-09 4.780599117279053 3100.011962890625
    vertex 8.070969670370687e-09 4162.6279296875 3100.011962890625
  endloop
endfacet
facet normal -1.99272998276101e-13 -3.52630386913147e-13 -1
  outer loop
    vertex 8.070969670370687e-09 4.780599117279053 3100.011962890625
    vertex 7284.05029296875 4162.6279296875 3100.011962890625
    vertex 8607.119140625 4.780599117279053 3100.011962890625
  endloop
endfacet
facet normal -1.99272998276101e-13 -3.52630386913147e-13 -1
  outer loop
    vertex 8607.119140625 4.780599117279053 3100.011962890625
    vertex 7284.05029296875 4162.6279296875 3100.011962890625
    vertex 8607.119140625 4162.6279296875 3100.011962890625
  endloop
endfacet
facet normal 1.99272998276101e-13 3.52630386913147e-13 1
  outer loop
    vertex 8607.119140625 4.780599117279053 3500.06689453125
    vertex 8.118051120220571e-09 4162.6279296875 3500.06689453125
    vertex 8.118051120220571e-09 4.780599117279053 3500.06689453125
  endloop
endfacet
facet normal 1.99272998276101e-13 3.52630386913147e-13 1
  outer loop
    vertex 8.118051120220571e-09 4162.6279296875 3500.06689453125
    vertex 8607.119140625 4.780599117279053 3500.06689453125
    vertex 7284.05029296875 4162.6279296875 3500.06689453125
  endloop
endfacet
facet normal 1.99272998276101e-13 3.52630386913147e-13 1
  outer loop
    vertex 7284.05029296875 4162.6279296875 3500.06689453125
    vertex 8607.119140625 4.780599117279053 3500.06689453125
    vertex 8607.119140625 4162.6279296875 3500.06689453125
  endloop
endfacet
facet normal -3.857833044941192e-26 1 -9.672333599200847e-14
  outer loop
    vertex 7284.05029296875 4162.6279296875 3100.011962890625
    vertex 8607.119140625 4162.6279296875 3500.06689453125
    vertex 8607.119140625 4162.6279296875 3100.011962890625
  endloop
endfacet
facet normal -3.857833044941192e-26 1 -9.672333599200847e-14
  outer loop
    vertex 8607.119140625 4162.6279296875 3500.06689453125
    vertex 7284.05029296875 4162.6279296875 3100.011962890625
    vertex 7284.05029296875 4162.6279296875 3500.06689453125
  endloop
endfacet
endsolid com.sketchup.SketchUp.2019
