solid com.sketchup.SketchUp.2019
facet normal 9.783861580332873e-15 -1 4.502005525645024e-14
  outer loop
    vertex 6780.2724609375 4042.03857421875 7449.94482421875
    vertex -158.8411407470703 4042.03857421875 7049.8896484375
    vertex 6780.2724609375 4042.03857421875 7049.8896484375
  endloop
endfacet
facet normal 9.783861580332873e-15 -1 4.502005525645024e-14
  outer loop
    vertex -158.8411407470703 4042.03857421875 7049.8896484375
    vertex 6780.2724609375 4042.03857421875 7449.94482421875
    vertex -158.8411407470703 4042.03857421875 7449.94482421875
  endloop
endfacet
facet normal -9.783861580332873e-15 1 -4.502005525645024e-14
  outer loop
    vertex -158.8411407470703 12291.2294921875 7449.94482421875
    vertex 6780.2724609375 12291.2294921875 7049.8896484375
    vertex -158.8411407470703 12291.2294921875 7049.8896484375
  endloop
endfacet
facet normal -9.783861580332873e-15 1 -4.502005525645024e-14
  outer loop
    vertex 6780.2724609375 12291.2294921875 7049.8896484375
    vertex -158.8411407470703 12291.2294921875 7449.94482421875
    vertex 6780.2724609375 12291.2294921875 7449.94482421875
  endloop
endfacet
facet normal 1 1.063459013233604e-14 0
  outer loop
    vertex 6780.2724609375 12291.2294921875 7049.8896484375
    vertex 6780.2724609375 4042.03857421875 7449.94482421875
    vertex 6780.2724609375 4042.03857421875 7049.8896484375
  endloop
endfacet
facet normal 1 1.063459013233604e-14 0
  outer loop
    vertex 6780.2724609375 4042.03857421875 7449.94482421875
    vertex 6780.2724609375 12291.2294921875 7049.8896484375
    vertex 6780.2724609375 12291.2294921875 7449.94482421875
  endloop
endfacet
facet normal 0 1.84461143191636e-13 1
  outer loop
    vertex 6780.2724609375 4042.03857421875 7449.94482421875
    vertex -158.8411407470703 12291.2294921875 7449.94482421875
    vertex -158.8411407470703 4042.03857421875 7449.94482421875
  endloop
endfacet
facet normal 0 1.84461143191636e-13 1
  outer loop
    vertex -158.8411407470703 12291.2294921875 7449.94482421875
    vertex 6780.2724609375 4042.03857421875 7449.94482421875
    vertex 6780.2724609375 12291.2294921875 7449.94482421875
  endloop
endfacet
facet normal -1 -1.063459013233604e-14 9.575396275402791e-28
  outer loop
    vertex -158.8411407470703 4042.03857421875 7449.94482421875
    vertex -158.8411407470703 12291.2294921875 7049.8896484375
    vertex -158.8411407470703 4042.03857421875 7049.8896484375
  endloop
endfacet
facet normal -1 -1.063459013233604e-14 9.575396275402791e-28
  outer loop
    vertex -158.8411407470703 12291.2294921875 7049.8896484375
    vertex -158.8411407470703 4042.03857421875 7449.94482421875
    vertex -158.8411407470703 12291.2294921875 7449.94482421875
  endloop
endfacet
facet normal 3.609484686761249e-27 -1.84461143191636e-13 -1
  outer loop
    vertex 6780.2724609375 12291.2294921875 7049.8896484375
    vertex -158.8411407470703 4042.03857421875 7049.8896484375
    vertex -158.8411407470703 12291.2294921875 7049.8896484375
  endloop
endfacet
facet normal 3.609484686761249e-27 -1.84461143191636e-13 -1
  outer loop
    vertex -158.8411407470703 4042.03857421875 7049.8896484375
    vertex 6780.2724609375 12291.2294921875 7049.8896484375
    vertex 6780.2724609375 4042.03857421875 7049.8896484375
  endloop
endfacet
endsolid com.sketchup.SketchUp.2019
