solid com.sketchup.SketchUp.2019
facet normal -4.219452275099934e-14 1.409605888095947e-14 -1
  outer loop
    vertex 30659.26171875 19916.365234375 4620
    vertex 27659.26171875 19252.173828125 4620
    vertex 27659.26171875 19916.365234375 4620
  endloop
endfacet
facet normal -4.219452275099934e-14 1.409605888095947e-14 -1
  outer loop
    vertex 27659.26171875 19252.173828125 4620
    vertex 30659.26171875 19916.365234375 4620
    vertex 27659.26171875 14852.1728515625 4620
  endloop
endfacet
facet normal -4.219452275099934e-14 1.409605888095947e-14 -1
  outer loop
    vertex 27659.26171875 14852.1728515625 4620
    vertex 30659.26171875 19916.365234375 4620
    vertex 27659.26171875 14252.1728515625 4620
  endloop
endfacet
facet normal -4.219452275099934e-14 1.409605888095947e-14 -1
  outer loop
    vertex 27659.26171875 14252.1728515625 4620
    vertex 30659.26171875 19916.365234375 4620
    vertex 28466.955078125 14252.1728515625 4620
  endloop
endfacet
facet normal -4.219452275099934e-14 1.409605888095947e-14 -1
  outer loop
    vertex 28466.955078125 14252.1728515625 4620
    vertex 30659.26171875 19916.365234375 4620
    vertex 30659.26171875 14252.1728515625 4620
  endloop
endfacet
facet normal 4.215507812071161e-14 -1.414819545292887e-14 1
  outer loop
    vertex 27659.26171875 19252.173828125 5020
    vertex 30659.26171875 19916.365234375 5020
    vertex 27659.26171875 19916.365234375 5020
  endloop
endfacet
facet normal 4.215507812071161e-14 -1.414819545292887e-14 1
  outer loop
    vertex 30659.26171875 19916.365234375 5020
    vertex 27659.26171875 19252.173828125 5020
    vertex 27659.26171875 14852.1728515625 5020
  endloop
endfacet
facet normal 4.215507812071161e-14 -1.414819545292887e-14 1
  outer loop
    vertex 30659.26171875 19916.365234375 5020
    vertex 27659.26171875 14852.1728515625 5020
    vertex 27659.26171875 14252.1728515625 5020
  endloop
endfacet
facet normal 4.215507812071161e-14 -1.414819545292887e-14 1
  outer loop
    vertex 30659.26171875 19916.365234375 5020
    vertex 27659.26171875 14252.1728515625 5020
    vertex 28466.955078125 14252.1728515625 5020
  endloop
endfacet
facet normal 4.215507812071161e-14 -1.414819545292887e-14 1
  outer loop
    vertex 30659.26171875 19916.365234375 5020
    vertex 28466.955078125 14252.1728515625 5020
    vertex 30659.26171875 14252.1728515625 5020
  endloop
endfacet
facet normal -8.877130801276945e-13 1 1.257071093811561e-14
  outer loop
    vertex 27659.26171875 19916.365234375 5020
    vertex 30659.26171875 19916.365234375 4620
    vertex 27659.26171875 19916.365234375 4620
  endloop
endfacet
facet normal -8.877130801276945e-13 1 1.257071093811561e-14
  outer loop
    vertex 30659.26171875 19916.365234375 4620
    vertex 27659.26171875 19916.365234375 5020
    vertex 30659.26171875 19916.365234375 5020
  endloop
endfacet
facet normal 1.189963892125803e-14 -1 -3.248601406868716e-14
  outer loop
    vertex 28466.955078125 14252.1728515625 4620
    vertex 27659.26171875 14252.1728515625 5020
    vertex 27659.26171875 14252.1728515625 4620
  endloop
endfacet
facet normal 1.189963892125803e-14 -1 -3.248601406868716e-14
  outer loop
    vertex 27659.26171875 14252.1728515625 5020
    vertex 28466.955078125 14252.1728515625 4620
    vertex 28466.955078125 14252.1728515625 5020
  endloop
endfacet
facet normal 6.224757037945339e-15 -1 -2.647008622762379e-14
  outer loop
    vertex 30659.26171875 14252.1728515625 5020
    vertex 28466.955078125 14252.1728515625 4620
    vertex 30659.26171875 14252.1728515625 4620
  endloop
endfacet
facet normal 6.224757037945339e-15 -1 -2.647008622762379e-14
  outer loop
    vertex 28466.955078125 14252.1728515625 4620
    vertex 30659.26171875 14252.1728515625 5020
    vertex 28466.955078125 14252.1728515625 5020
  endloop
endfacet
facet normal 1 1.265329686223114e-15 -3.503676908604876e-14
  outer loop
    vertex 30659.26171875 14252.1728515625 4620
    vertex 30659.26171875 19916.365234375 5020
    vertex 30659.26171875 14252.1728515625 5020
  endloop
endfacet
facet normal 1 1.265329686223114e-15 -3.503676908604876e-14
  outer loop
    vertex 30659.26171875 19916.365234375 5020
    vertex 30659.26171875 14252.1728515625 4620
    vertex 30659.26171875 19916.365234375 4620
  endloop
endfacet
facet normal -1 -2.331992665107179e-14 3.297865181894205e-14
  outer loop
    vertex 27659.26171875 19252.173828125 5020
    vertex 27659.26171875 14852.1728515625 4620
    vertex 27659.26171875 14852.1728515625 5020
  endloop
endfacet
facet normal -1 -2.331992665107179e-14 3.297865181894205e-14
  outer loop
    vertex 27659.26171875 14852.1728515625 4620
    vertex 27659.26171875 19252.173828125 5020
    vertex 27659.26171875 19252.173828125 4620
  endloop
endfacet
facet normal -1 -7.498181220887135e-13 3.297865181894205e-14
  outer loop
    vertex 27659.26171875 19916.365234375 5020
    vertex 27659.26171875 19252.173828125 4620
    vertex 27659.26171875 19252.173828125 5020
  endloop
endfacet
facet normal -1 -7.498181220887135e-13 3.297865181894205e-14
  outer loop
    vertex 27659.26171875 19252.173828125 4620
    vertex 27659.26171875 19916.365234375 5020
    vertex 27659.26171875 19916.365234375 4620
  endloop
endfacet
facet normal -1 -4.754989804678367e-13 3.297865181894205e-14
  outer loop
    vertex 27659.26171875 14852.1728515625 5020
    vertex 27659.26171875 14252.1728515625 4620
    vertex 27659.26171875 14252.1728515625 5020
  endloop
endfacet
facet normal -1 -4.754989804678367e-13 3.297865181894205e-14
  outer loop
    vertex 27659.26171875 14252.1728515625 4620
    vertex 27659.26171875 14852.1728515625 5020
    vertex 27659.26171875 14852.1728515625 4620
  endloop
endfacet
endsolid com.sketchup.SketchUp.2019
