solid com.sketchup.SketchUp.2019
facet normal -7.107968786363729e-27 1 5.276358980266758e-14
  outer loop
    vertex 30427.26171875 12252.1728515625 5020
    vertex 36658.83984375 12252.1728515625 4620
    vertex 30427.26171875 12252.1728515625 4620
  endloop
endfacet
facet normal -7.107968786363729e-27 1 5.276358980266758e-14
  outer loop
    vertex 36658.83984375 12252.1728515625 4620
    vertex 30427.26171875 12252.1728515625 5020
    vertex 36658.83984375 12252.1728515625 5020
  endloop
endfacet
facet normal -1 0 -6.73567579208105e-14
  outer loop
    vertex 30427.26171875 12252.1728515625 5020
    vertex 30427.26171875 4311.0869140625 4620
    vertex 30427.26171875 4311.0869140625 5020
  endloop
endfacet
facet normal -1 0 -6.73567579208105e-14
  outer loop
    vertex 30427.26171875 4311.0869140625 4620
    vertex 30427.26171875 12252.1728515625 5020
    vertex 30427.26171875 12252.1728515625 4620
  endloop
endfacet
facet normal -6.73567579208105e-14 -5.276358980266758e-14 1
  outer loop
    vertex 36658.83984375 4311.0869140625 5020
    vertex 30427.26171875 12252.1728515625 5020
    vertex 30427.26171875 4311.0869140625 5020
  endloop
endfacet
facet normal -6.73567579208105e-14 -5.276358980266758e-14 1
  outer loop
    vertex 30427.26171875 12252.1728515625 5020
    vertex 36658.83984375 4311.0869140625 5020
    vertex 36658.83984375 12252.1728515625 5020
  endloop
endfacet
facet normal -0 -1 -5.276358980266758e-14
  outer loop
    vertex 36658.83984375 4311.0869140625 4620
    vertex 30427.26171875 4311.0869140625 5020
    vertex 30427.26171875 4311.0869140625 4620
  endloop
endfacet
facet normal -0 -1 -5.276358980266758e-14
  outer loop
    vertex 30427.26171875 4311.0869140625 5020
    vertex 36658.83984375 4311.0869140625 4620
    vertex 36658.83984375 4311.0869140625 5020
  endloop
endfacet
facet normal 1 -7.107968786363729e-27 6.73567579208105e-14
  outer loop
    vertex 36658.83984375 4311.0869140625 4620
    vertex 36658.83984375 12252.1728515625 5020
    vertex 36658.83984375 4311.0869140625 5020
  endloop
endfacet
facet normal 1 -7.107968786363729e-27 6.73567579208105e-14
  outer loop
    vertex 36658.83984375 12252.1728515625 5020
    vertex 36658.83984375 4311.0869140625 4620
    vertex 36658.83984375 12252.1728515625 4620
  endloop
endfacet
facet normal 6.73567579208105e-14 5.276358980266758e-14 -1
  outer loop
    vertex 36658.83984375 12252.1728515625 4620
    vertex 30427.26171875 4311.0869140625 4620
    vertex 30427.26171875 12252.1728515625 4620
  endloop
endfacet
facet normal 6.73567579208105e-14 5.276358980266758e-14 -1
  outer loop
    vertex 30427.26171875 4311.0869140625 4620
    vertex 36658.83984375 12252.1728515625 4620
    vertex 36658.83984375 4311.0869140625 4620
  endloop
endfacet
endsolid com.sketchup.SketchUp.2019
