solid com.sketchup.SketchUp.2019
facet normal -4.922700024305102e-14 1.409605888095947e-14 -1
  outer loop
    vertex 33959.265625 19916.365234375 4620
    vertex 30459.26171875 19252.173828125 4620
    vertex 30459.26171875 19916.365234375 4620
  endloop
endfacet
facet normal -4.922700024305102e-14 1.409605888095947e-14 -1
  outer loop
    vertex 30459.26171875 19252.173828125 4620
    vertex 33959.265625 19916.365234375 4620
    vertex 30459.26171875 14852.1728515625 4620
  endloop
endfacet
facet normal -4.922700024305102e-14 1.409605888095947e-14 -1
  outer loop
    vertex 30459.26171875 14852.1728515625 4620
    vertex 33959.265625 19916.365234375 4620
    vertex 30459.26171875 14252.1728515625 4620
  endloop
endfacet
facet normal -4.922700024305102e-14 1.409605888095947e-14 -1
  outer loop
    vertex 30459.26171875 14252.1728515625 4620
    vertex 33959.265625 19916.365234375 4620
    vertex 31401.572265625 14252.1728515625 4620
  endloop
endfacet
facet normal -4.922700024305102e-14 1.409605888095947e-14 -1
  outer loop
    vertex 31401.572265625 14252.1728515625 4620
    vertex 33959.265625 19916.365234375 4620
    vertex 33959.265625 14252.1728515625 4620
  endloop
endfacet
facet normal -1.035666452771367e-12 1 1.257071093811561e-14
  outer loop
    vertex 30459.26171875 19916.365234375 5020
    vertex 33959.265625 19916.365234375 4620
    vertex 30459.26171875 19916.365234375 4620
  endloop
endfacet
facet normal -1.035666452771367e-12 1 1.257071093811561e-14
  outer loop
    vertex 33959.265625 19916.365234375 4620
    vertex 30459.26171875 19916.365234375 5020
    vertex 33959.265625 19916.365234375 5020
  endloop
endfacet
facet normal 1.38829276037384e-14 -1 -3.248601406868716e-14
  outer loop
    vertex 31401.572265625 14252.1728515625 4620
    vertex 30459.26171875 14252.1728515625 5020
    vertex 30459.26171875 14252.1728515625 4620
  endloop
endfacet
facet normal 1.38829276037384e-14 -1 -3.248601406868716e-14
  outer loop
    vertex 30459.26171875 14252.1728515625 5020
    vertex 31401.572265625 14252.1728515625 4620
    vertex 31401.572265625 14252.1728515625 5020
  endloop
endfacet
facet normal 7.262225014599034e-15 -1 -2.647008622762379e-14
  outer loop
    vertex 33959.265625 14252.1728515625 5020
    vertex 31401.572265625 14252.1728515625 4620
    vertex 33959.265625 14252.1728515625 4620
  endloop
endfacet
facet normal 7.262225014599034e-15 -1 -2.647008622762379e-14
  outer loop
    vertex 31401.572265625 14252.1728515625 4620
    vertex 33959.265625 14252.1728515625 5020
    vertex 31401.572265625 14252.1728515625 5020
  endloop
endfacet
facet normal 1 1.084567031927534e-15 -3.003148199413365e-14
  outer loop
    vertex 33959.265625 14252.1728515625 4620
    vertex 33959.265625 19916.365234375 5020
    vertex 33959.265625 14252.1728515625 5020
  endloop
endfacet
facet normal 1 1.084567031927534e-15 -3.003148199413365e-14
  outer loop
    vertex 33959.265625 19916.365234375 5020
    vertex 33959.265625 14252.1728515625 4620
    vertex 33959.265625 19916.365234375 4620
  endloop
endfacet
facet normal -1 -6.427005195402957e-13 2.826738341554606e-14
  outer loop
    vertex 30459.26171875 19916.365234375 5020
    vertex 30459.26171875 19252.173828125 4620
    vertex 30459.26171875 19252.173828125 5020
  endloop
endfacet
facet normal -1 -6.427005195402957e-13 2.826738341554606e-14
  outer loop
    vertex 30459.26171875 19252.173828125 4620
    vertex 30459.26171875 19916.365234375 5020
    vertex 30459.26171875 19916.365234375 4620
  endloop
endfacet
facet normal -1 -4.07570082284342e-13 2.826738341554606e-14
  outer loop
    vertex 30459.26171875 14852.1728515625 5020
    vertex 30459.26171875 14252.1728515625 4620
    vertex 30459.26171875 14252.1728515625 5020
  endloop
endfacet
facet normal -1 -4.07570082284342e-13 2.826738341554606e-14
  outer loop
    vertex 30459.26171875 14252.1728515625 4620
    vertex 30459.26171875 14852.1728515625 5020
    vertex 30459.26171875 14852.1728515625 4620
  endloop
endfacet
facet normal 4.91809792489608e-14 -1.414819545292887e-14 1
  outer loop
    vertex 30459.26171875 19252.173828125 5020
    vertex 33959.265625 19916.365234375 5020
    vertex 30459.26171875 19916.365234375 5020
  endloop
endfacet
facet normal 4.91809792489608e-14 -1.414819545292887e-14 1
  outer loop
    vertex 33959.265625 19916.365234375 5020
    vertex 30459.26171875 19252.173828125 5020
    vertex 30459.26171875 14852.1728515625 5020
  endloop
endfacet
facet normal 4.91809792489608e-14 -1.414819545292887e-14 1
  outer loop
    vertex 33959.265625 19916.365234375 5020
    vertex 30459.26171875 14852.1728515625 5020
    vertex 30459.26171875 14252.1728515625 5020
  endloop
endfacet
facet normal 4.91809792489608e-14 -1.414819545292887e-14 1
  outer loop
    vertex 33959.265625 19916.365234375 5020
    vertex 30459.26171875 14252.1728515625 5020
    vertex 31401.572265625 14252.1728515625 5020
  endloop
endfacet
facet normal 4.91809792489608e-14 -1.414819545292887e-14 1
  outer loop
    vertex 33959.265625 19916.365234375 5020
    vertex 31401.572265625 14252.1728515625 5020
    vertex 33959.265625 14252.1728515625 5020
  endloop
endfacet
facet normal -1 -1.998848508314843e-14 2.826738341554606e-14
  outer loop
    vertex 30459.26171875 19252.173828125 5020
    vertex 30459.26171875 14852.1728515625 4620
    vertex 30459.26171875 14852.1728515625 5020
  endloop
endfacet
facet normal -1 -1.998848508314843e-14 2.826738341554606e-14
  outer loop
    vertex 30459.26171875 14852.1728515625 4620
    vertex 30459.26171875 19252.173828125 5020
    vertex 30459.26171875 19252.173828125 4620
  endloop
endfacet
endsolid com.sketchup.SketchUp.2019
