solid com.sketchup.SketchUp.2019
facet normal 0 -1 9.931420648975203e-14
  outer loop
    vertex 8448.2783203125 -66.71323394775391 7450
    vertex -158.8411407470703 -66.71323394775391 7049.94482421875
    vertex 8448.2783203125 -66.71323394775391 7049.94482421875
  endloop
endfacet
facet normal 0 -1 9.931420648975203e-14
  outer loop
    vertex -158.8411407470703 -66.71323394775391 7049.94482421875
    vertex 8448.2783203125 -66.71323394775391 7450
    vertex -158.8411407470703 -66.71323394775391 7450
  endloop
endfacet
facet normal 1 -3.383544292372658e-26 -4.797579027842128e-14
  outer loop
    vertex 8448.2783203125 4091.13427734375 7049.94482421875
    vertex 8448.2783203125 -66.71323394775391 7450
    vertex 8448.2783203125 -66.71323394775391 7049.94482421875
  endloop
endfacet
facet normal 1 -3.383544292372658e-26 -4.797579027842128e-14
  outer loop
    vertex 8448.2783203125 -66.71323394775391 7450
    vertex 8448.2783203125 4091.13427734375 7049.94482421875
    vertex 8448.2783203125 4091.13427734375 7450
  endloop
endfacet
facet normal -3.854297037563297e-26 1 -9.672333599200847e-14
  outer loop
    vertex -158.8411407470703 4091.13427734375 7049.94482421875
    vertex 7125.208984375 4091.13427734375 7450
    vertex 7125.208984375 4091.13427734375 7049.94482421875
  endloop
endfacet
facet normal -3.854297037563297e-26 1 -9.672333599200847e-14
  outer loop
    vertex 7125.208984375 4091.13427734375 7450
    vertex -158.8411407470703 4091.13427734375 7049.94482421875
    vertex -158.8411407470703 4091.13427734375 7450
  endloop
endfacet
facet normal -1 0 4.797579027842128e-14
  outer loop
    vertex -158.8411407470703 -66.71323394775391 7450
    vertex -158.8411407470703 4091.13427734375 7049.94482421875
    vertex -158.8411407470703 -66.71323394775391 7049.94482421875
  endloop
endfacet
facet normal -1 0 4.797579027842128e-14
  outer loop
    vertex -158.8411407470703 4091.13427734375 7049.94482421875
    vertex -158.8411407470703 -66.71323394775391 7450
    vertex -158.8411407470703 4091.13427734375 7450
  endloop
endfacet
facet normal -1.99272998276101e-13 -3.52630386913147e-13 -1
  outer loop
    vertex 7125.208984375 4091.13427734375 7049.94482421875
    vertex -158.8411407470703 -66.71323394775391 7049.94482421875
    vertex -158.8411407470703 4091.13427734375 7049.94482421875
  endloop
endfacet
facet normal -1.99272998276101e-13 -3.52630386913147e-13 -1
  outer loop
    vertex -158.8411407470703 -66.71323394775391 7049.94482421875
    vertex 7125.208984375 4091.13427734375 7049.94482421875
    vertex 8448.2783203125 -66.71323394775391 7049.94482421875
  endloop
endfacet
facet normal -1.99272998276101e-13 -3.52630386913147e-13 -1
  outer loop
    vertex 8448.2783203125 -66.71323394775391 7049.94482421875
    vertex 7125.208984375 4091.13427734375 7049.94482421875
    vertex 8448.2783203125 4091.13427734375 7049.94482421875
  endloop
endfacet
facet normal 1.99272998276101e-13 3.52630386913147e-13 1
  outer loop
    vertex 8448.2783203125 -66.71323394775391 7450
    vertex -158.8411407470703 4091.13427734375 7450
    vertex -158.8411407470703 -66.71323394775391 7450
  endloop
endfacet
facet normal 1.99272998276101e-13 3.52630386913147e-13 1
  outer loop
    vertex -158.8411407470703 4091.13427734375 7450
    vertex 8448.2783203125 -66.71323394775391 7450
    vertex 7125.208984375 4091.13427734375 7450
  endloop
endfacet
facet normal 1.99272998276101e-13 3.52630386913147e-13 1
  outer loop
    vertex 7125.208984375 4091.13427734375 7450
    vertex 8448.2783203125 -66.71323394775391 7450
    vertex 8448.2783203125 4091.13427734375 7450
  endloop
endfacet
facet normal -3.857833044941192e-26 1 -9.672333599200847e-14
  outer loop
    vertex 7125.208984375 4091.13427734375 7049.94482421875
    vertex 8448.2783203125 4091.13427734375 7450
    vertex 8448.2783203125 4091.13427734375 7049.94482421875
  endloop
endfacet
facet normal -3.857833044941192e-26 1 -9.672333599200847e-14
  outer loop
    vertex 8448.2783203125 4091.13427734375 7450
    vertex 7125.208984375 4091.13427734375 7049.94482421875
    vertex 7125.208984375 4091.13427734375 7450
  endloop
endfacet
endsolid com.sketchup.SketchUp.2019
