solid com.sketchup.SketchUp.2019
facet normal 9.783861580332873e-15 -1 4.502005525645024e-14
  outer loop
    vertex 6939.11328125 0.1696312427520752 3500
    vertex 0 0.1696312427520752 3099.94482421875
    vertex 6939.11328125 0.1696312427520752 3099.94482421875
  endloop
endfacet
facet normal 9.783861580332873e-15 -1 4.502005525645024e-14
  outer loop
    vertex 0 0.1696312427520752 3099.94482421875
    vertex 6939.11328125 0.1696312427520752 3500
    vertex 0 0.1696312427520752 3500
  endloop
endfacet
facet normal -9.783861580332873e-15 1 -4.502005525645024e-14
  outer loop
    vertex 0 8249.361328125 3500
    vertex 6939.11328125 8249.361328125 3099.94482421875
    vertex 0 8249.361328125 3099.94482421875
  endloop
endfacet
facet normal -9.783861580332873e-15 1 -4.502005525645024e-14
  outer loop
    vertex 6939.11328125 8249.361328125 3099.94482421875
    vertex 0 8249.361328125 3500
    vertex 6939.11328125 8249.361328125 3500
  endloop
endfacet
facet normal 1 1.063459013233604e-14 0
  outer loop
    vertex 6939.11328125 8249.361328125 3099.94482421875
    vertex 6939.11328125 0.1696312427520752 3500
    vertex 6939.11328125 0.1696312427520752 3099.94482421875
  endloop
endfacet
facet normal 1 1.063459013233604e-14 0
  outer loop
    vertex 6939.11328125 0.1696312427520752 3500
    vertex 6939.11328125 8249.361328125 3099.94482421875
    vertex 6939.11328125 8249.361328125 3500
  endloop
endfacet
facet normal 0 1.84461143191636e-13 1
  outer loop
    vertex 6939.11328125 0.1696312427520752 3500
    vertex 0 8249.361328125 3500
    vertex 0 0.1696312427520752 3500
  endloop
endfacet
facet normal 0 1.84461143191636e-13 1
  outer loop
    vertex 0 8249.361328125 3500
    vertex 6939.11328125 0.1696312427520752 3500
    vertex 6939.11328125 8249.361328125 3500
  endloop
endfacet
facet normal -1 -1.063459013233604e-14 9.575396275402791e-28
  outer loop
    vertex 0 0.1696312427520752 3500
    vertex 0 8249.361328125 3099.94482421875
    vertex 0 0.1696312427520752 3099.94482421875
  endloop
endfacet
facet normal -1 -1.063459013233604e-14 9.575396275402791e-28
  outer loop
    vertex 0 8249.361328125 3099.94482421875
    vertex 0 0.1696312427520752 3500
    vertex 0 8249.361328125 3500
  endloop
endfacet
facet normal 3.609484686761249e-27 -1.84461143191636e-13 -1
  outer loop
    vertex 6939.11328125 8249.361328125 3099.94482421875
    vertex 0 0.1696312427520752 3099.94482421875
    vertex 0 8249.361328125 3099.94482421875
  endloop
endfacet
facet normal 3.609484686761249e-27 -1.84461143191636e-13 -1
  outer loop
    vertex 0 0.1696312427520752 3099.94482421875
    vertex 6939.11328125 8249.361328125 3099.94482421875
    vertex 6939.11328125 0.1696312427520752 3099.94482421875
  endloop
endfacet
endsolid com.sketchup.SketchUp.2019
