solid com.sketchup.SketchUp.2019
facet normal -2.712577731878163e-11 -1.198714196480599e-12 -1
  outer loop
    vertex 8.103206634521484 3137.28564453125 3100.026611328125
    vertex 7.280813217163086 3096.311767578125 3100.026611328125
    vertex 6.595019817352295 3096.298095703125 3100.026611328125
  endloop
endfacet
facet normal -2.712577731878163e-11 -1.198714196480599e-12 -1
  outer loop
    vertex 7.280813217163086 3096.311767578125 3100.026611328125
    vertex 8.103206634521484 3137.28564453125 3100.026611328125
    vertex 8.096561431884766 3054.215087890625 3100.026611328125
  endloop
endfacet
facet normal -2.712577731878163e-11 -1.198714196480599e-12 -1
  outer loop
    vertex 8.096561431884766 3054.215087890625 3100.026611328125
    vertex 13.05089664459229 2892.038818359375 3100.026611328125
    vertex 7.823384761810303 3054.209716796875 3100.026611328125
  endloop
endfacet
facet normal -2.712577731878163e-11 -1.198714196480599e-12 -1
  outer loop
    vertex 13.05089664459229 2892.038818359375 3100.026611328125
    vertex 8.096561431884766 3054.215087890625 3100.026611328125
    vertex 8.103206634521484 3137.28564453125 3100.026611328125
  endloop
endfacet
facet normal -2.712577731878163e-11 -1.198714196480599e-12 -1
  outer loop
    vertex 13.05089664459229 2892.038818359375 3100.026611328125
    vertex 8.103206634521484 3137.28564453125 3100.026611328125
    vertex 76.95321655273438 5008.40380859375 3100.026611328125
  endloop
endfacet
facet normal -2.712577731878163e-11 -1.198714196480599e-12 -1
  outer loop
    vertex 13.05089664459229 2892.038818359375 3100.026611328125
    vertex 76.95321655273438 5008.40380859375 3100.026611328125
    vertex 32.60947799682617 2690.5048828125 3100.026611328125
  endloop
endfacet
facet normal -2.712577731878163e-11 -1.198714196480599e-12 -1
  outer loop
    vertex 32.60947799682617 2690.5048828125 3100.026611328125
    vertex 76.95321655273438 5008.40380859375 3100.026611328125
    vertex 65.11859130859375 2490.700439453125 3100.026611328125
  endloop
endfacet
facet normal -2.712577731878163e-11 -1.198714196480599e-12 -1
  outer loop
    vertex 65.11859130859375 2490.700439453125 3100.026611328125
    vertex 76.95321655273438 5008.40380859375 3100.026611328125
    vertex 110.4390106201172 2293.481201171875 3100.026611328125
  endloop
endfacet
facet normal -2.712577731878163e-11 -1.198714196480599e-12 -1
  outer loop
    vertex 110.4390106201172 2293.481201171875 3100.026611328125
    vertex 76.95321655273438 5008.40380859375 3100.026611328125
    vertex 80.85573577880859 5114.46142578125 3100.026611328125
  endloop
endfacet
facet normal -2.712577731878163e-11 -1.198714196480599e-12 -1
  outer loop
    vertex 110.4390106201172 2293.481201171875 3100.026611328125
    vertex 80.85573577880859 5114.46142578125 3100.026611328125
    vertex 284.5543212890625 7101.60498046875 3100.026611328125
  endloop
endfacet
facet normal -2.712577731878163e-11 -1.198714196480599e-12 -1
  outer loop
    vertex 110.4390106201172 2293.481201171875 3100.026611328125
    vertex 284.5543212890625 7101.60498046875 3100.026611328125
    vertex 148.8173065185547 2165.11376953125 3100.026611328125
  endloop
endfacet
facet normal -2.712577731878163e-11 -1.198714196480599e-12 -1
  outer loop
    vertex 148.8173065185547 2165.11376953125 3100.026611328125
    vertex 284.5543212890625 7101.60498046875 3100.026611328125
    vertex 168.3766326904297 2099.69189453125 3100.026611328125
  endloop
endfacet
facet normal -2.712577731878163e-11 -1.198714196480599e-12 -1
  outer loop
    vertex 168.3766326904297 2099.69189453125 3100.026611328125
    vertex 284.5543212890625 7101.60498046875 3100.026611328125
    vertex 238.683349609375 1910.162109375 3100.026611328125
  endloop
endfacet
facet normal -2.712577731878163e-11 -1.198714196480599e-12 -1
  outer loop
    vertex 238.683349609375 1910.162109375 3100.026611328125
    vertex 284.5543212890625 7101.60498046875 3100.026611328125
    vertex 321.0580444335938 1725.703979492188 3100.026611328125
  endloop
endfacet
facet normal -2.712577731878163e-11 -1.198714196480599e-12 -1
  outer loop
    vertex 321.0580444335938 1725.703979492188 3100.026611328125
    vertex 284.5543212890625 7101.60498046875 3100.026611328125
    vertex 286.957275390625 7125.046875 3100.026611328125
  endloop
endfacet
facet normal -2.712577731878163e-11 -1.198714196480599e-12 -1
  outer loop
    vertex 321.0580444335938 1725.703979492188 3100.026611328125
    vertex 286.957275390625 7125.046875 3100.026611328125
    vertex 623.9252319335938 9117.3564453125 3100.026611328125
  endloop
endfacet
facet normal -2.712577731878163e-11 -1.198714196480599e-12 -1
  outer loop
    vertex 321.0580444335938 1725.703979492188 3100.026611328125
    vertex 623.9252319335938 9117.3564453125 3100.026611328125
    vertex 415.1479187011719 1547.107177734375 3100.026611328125
  endloop
endfacet
facet normal -2.712577731878163e-11 -1.198714196480599e-12 -1
  outer loop
    vertex 415.1479187011719 1547.107177734375 3100.026611328125
    vertex 623.9252319335938 9117.3564453125 3100.026611328125
    vertex 520.550048828125 1375.13671875 3100.026611328125
  endloop
endfacet
facet normal -2.712577731878163e-11 -1.198714196480599e-12 -1
  outer loop
    vertex 520.550048828125 1375.13671875 3100.026611328125
    vertex 623.9252319335938 9117.3564453125 3100.026611328125
    vertex 584.2819213867188 1284.903564453125 3100.026611328125
  endloop
endfacet
facet normal -2.712577731878163e-11 -1.198714196480599e-12 -1
  outer loop
    vertex 584.2819213867188 1284.903564453125 3100.026611328125
    vertex 623.9252319335938 9117.3564453125 3100.026611328125
    vertex 636.81298828125 1210.529052734375 3100.026611328125
  endloop
endfacet
facet normal -2.712577731878163e-11 -1.198714196480599e-12 -1
  outer loop
    vertex 636.81298828125 1210.529052734375 3100.026611328125
    vertex 623.9252319335938 9117.3564453125 3100.026611328125
    vertex 963.1021728515625 10546.693359375 3100.026611328125
  endloop
endfacet
facet normal -2.712577731878163e-11 -1.198714196480599e-12 -1
  outer loop
    vertex 636.81298828125 1210.529052734375 3100.026611328125
    vertex 963.1021728515625 10546.693359375 3100.026611328125
    vertex 763.4388427734375 1053.989135742188 3100.026611328125
  endloop
endfacet
facet normal -2.712577731878163e-11 -1.198714196480599e-12 -1
  outer loop
    vertex 763.4388427734375 1053.989135742188 3100.026611328125
    vertex 963.1021728515625 10546.693359375 3100.026611328125
    vertex 899.88525390625 906.1873779296875 3100.026611328125
  endloop
endfacet
facet normal -2.712577731878163e-11 -1.198714196480599e-12 -1
  outer loop
    vertex 899.88525390625 906.1873779296875 3100.026611328125
    vertex 963.1021728515625 10546.693359375 3100.026611328125
    vertex 1045.567993164062 767.7568359375 3100.026611328125
  endloop
endfacet
facet normal -2.712577731878163e-11 -1.198714196480599e-12 -1
  outer loop
    vertex 1045.567993164062 767.7568359375 3100.026611328125
    vertex 963.1021728515625 10546.693359375 3100.026611328125
    vertex 1090.2783203125 11082.630859375 3100.026611328125
  endloop
endfacet
facet normal -2.712577731878163e-11 -1.198714196480599e-12 -1
  outer loop
    vertex 1045.567993164062 767.7568359375 3100.026611328125
    vertex 1090.2783203125 11082.630859375 3100.026611328125
    vertex 1199.863037109375 639.290283203125 3100.026611328125
  endloop
endfacet
facet normal -2.712577731878163e-11 -1.198714196480599e-12 -1
  outer loop
    vertex 1199.863037109375 639.290283203125 3100.026611328125
    vertex 1090.2783203125 11082.630859375 3100.026611328125
    vertex 1546.246459960938 12564.6162109375 3100.026611328125
  endloop
endfacet
facet normal -2.712577731878163e-11 -1.198714196480599e-12 -1
  outer loop
    vertex 1199.863037109375 639.290283203125 3100.026611328125
    vertex 1546.246459960938 12564.6162109375 3100.026611328125
    vertex 1271.090209960938 587.508544921875 3100.026611328125
  endloop
endfacet
facet normal -2.712577731878163e-11 -1.198714196480599e-12 -1
  outer loop
    vertex 1271.090209960938 587.508544921875 3100.026611328125
    vertex 1546.246459960938 12564.6162109375 3100.026611328125
    vertex 1362.109619140625 521.3379516601562 3100.026611328125
  endloop
endfacet
facet normal -2.712577731878163e-11 -1.198714196480599e-12 -1
  outer loop
    vertex 1362.109619140625 521.3379516601562 3100.026611328125
    vertex 1546.246459960938 12564.6162109375 3100.026611328125
    vertex 1531.61279296875 414.405029296875 3100.026611328125
  endloop
endfacet
facet normal -2.712577731878163e-11 -1.198714196480599e-12 -1
  outer loop
    vertex 1531.61279296875 414.405029296875 3100.026611328125
    vertex 1546.246459960938 12564.6162109375 3100.026611328125
    vertex 1707.646850585938 318.9494018554688 3100.026611328125
  endloop
endfacet
facet normal -2.712577731878163e-11 -1.198714196480599e-12 -1
  outer loop
    vertex 1707.646850585938 318.9494018554688 3100.026611328125
    vertex 1546.246459960938 12564.6162109375 3100.026611328125
    vertex 1683.96630859375 13012.2333984375 3100.026611328125
  endloop
endfacet
facet normal -2.712577731878163e-11 -1.198714196480599e-12 -1
  outer loop
    vertex 1707.646850585938 318.9494018554688 3100.026611328125
    vertex 1683.96630859375 13012.2333984375 3100.026611328125
    vertex 2402.37939453125 14897.6787109375 3100.026611328125
  endloop
endfacet
facet normal -2.712577731878163e-11 -1.198714196480599e-12 -1
  outer loop
    vertex 1707.646850585938 318.9494018554688 3100.026611328125
    vertex 2402.37939453125 14897.6787109375 3100.026611328125
    vertex 1889.457641601562 235.3799285888672 3100.026611328125
  endloop
endfacet
facet normal -2.712577731878163e-11 -1.198714196480599e-12 -1
  outer loop
    vertex 1889.457641601562 235.3799285888672 3100.026611328125
    vertex 2402.37939453125 14897.6787109375 3100.026611328125
    vertex 2076.266845703125 164.0544891357422 3100.026611328125
  endloop
endfacet
facet normal -2.712577731878163e-11 -1.198714196480599e-12 -1
  outer loop
    vertex 2076.266845703125 164.0544891357422 3100.026611328125
    vertex 2402.37939453125 14897.6787109375 3100.026611328125
    vertex 2138.5302734375 144.89501953125 3100.026611328125
  endloop
endfacet
facet normal -2.712577731878163e-11 -1.198714196480599e-12 -1
  outer loop
    vertex 2138.5302734375 144.89501953125 3100.026611328125
    vertex 2402.37939453125 14897.6787109375 3100.026611328125
    vertex 2216.117919921875 121.0843505859375 3100.026611328125
  endloop
endfacet
facet normal -2.712577731878163e-11 -1.198714196480599e-12 -1
  outer loop
    vertex 2216.117919921875 121.0843505859375 3100.026611328125
    vertex 2402.37939453125 14897.6787109375 3100.026611328125
    vertex 2294.306396484375 99.39054870605469 3100.026611328125
  endloop
endfacet
facet normal -2.712577731878163e-11 -1.198714196480599e-12 -1
  outer loop
    vertex 2294.306396484375 99.39054870605469 3100.026611328125
    vertex 2402.37939453125 14897.6787109375 3100.026611328125
    vertex 2373.03955078125 79.82917022705078 3100.026611328125
  endloop
endfacet
facet normal -2.712577731878163e-11 -1.198714196480599e-12 -1
  outer loop
    vertex 2373.03955078125 79.82917022705078 3100.026611328125
    vertex 2402.37939453125 14897.6787109375 3100.026611328125
    vertex 2452.2607421875 62.41425323486328 3100.026611328125
  endloop
endfacet
facet normal -2.712577731878163e-11 -1.198714196480599e-12 -1
  outer loop
    vertex 2452.2607421875 62.41425323486328 3100.026611328125
    vertex 2402.37939453125 14897.6787109375 3100.026611328125
    vertex 2447.310302734375 15015.59765625 3100.026611328125
  endloop
endfacet
facet normal -2.712577731878163e-11 -1.198714196480599e-12 -1
  outer loop
    vertex 2452.2607421875 62.41425323486328 3100.026611328125
    vertex 2447.310302734375 15015.59765625 3100.026611328125
    vertex 2506.526611328125 15015.59765625 3100.026611328125
  endloop
endfacet
facet normal -2.712577731878163e-11 -1.198714196480599e-12 -1
  outer loop
    vertex 2452.2607421875 62.41425323486328 3100.026611328125
    vertex 2506.526611328125 15015.59765625 3100.026611328125
    vertex 2531.9130859375 47.15829086303711 3100.026611328125
  endloop
endfacet
facet normal -2.712577731878163e-11 -1.198714196480599e-12 -1
  outer loop
    vertex 2531.9130859375 47.15829086303711 3100.026611328125
    vertex 2506.526611328125 15015.59765625 3100.026611328125
    vertex 3356.526611328125 15015.59765625 3100.026611328125
  endloop
endfacet
facet normal -2.712577731878163e-11 -1.198714196480599e-12 -1
  outer loop
    vertex 2531.9130859375 47.15829086303711 3100.026611328125
    vertex 3356.526611328125 15015.59765625 3100.026611328125
    vertex 2611.939697265625 34.07222366333008 3100.026611328125
  endloop
endfacet
facet normal -2.712577731878163e-11 -1.198714196480599e-12 -1
  outer loop
    vertex 2611.939697265625 34.07222366333008 3100.026611328125
    vertex 3356.526611328125 15015.59765625 3100.026611328125
    vertex 2692.283203125 23.16544342041016 3100.026611328125
  endloop
endfacet
facet normal -2.712577731878163e-11 -1.198714196480599e-12 -1
  outer loop
    vertex 2692.283203125 23.16544342041016 3100.026611328125
    vertex 3356.526611328125 15015.59765625 3100.026611328125
    vertex 2772.8857421875 14.44577598571777 3100.026611328125
  endloop
endfacet
facet normal -2.712577731878163e-11 -1.198714196480599e-12 -1
  outer loop
    vertex 2772.8857421875 14.44577598571777 3100.026611328125
    vertex 3356.526611328125 15015.59765625 3100.026611328125
    vertex 2853.689453125 7.919477462768555 3100.026611328125
  endloop
endfacet
facet normal -2.712577731878163e-11 -1.198714196480599e-12 -1
  outer loop
    vertex 2853.689453125 7.919477462768555 3100.026611328125
    vertex 3356.526611328125 15015.59765625 3100.026611328125
    vertex 2934.636474609375 3.591229200363159 3100.026611328125
  endloop
endfacet
facet normal -2.712577731878163e-11 -1.198714196480599e-12 -1
  outer loop
    vertex 2934.636474609375 3.591229200363159 3100.026611328125
    vertex 3356.526611328125 15015.59765625 3100.026611328125
    vertex 3015.668701171875 1.464137434959412 3100.026611328125
  endloop
endfacet
facet normal -2.712577731878163e-11 -1.198714196480599e-12 -1
  outer loop
    vertex 3015.668701171875 1.464137434959412 3100.026611328125
    vertex 3356.526611328125 15015.59765625 3100.026611328125
    vertex 3096.728271484375 1.539727687835693 3100.026611328125
  endloop
endfacet
facet normal -2.712577731878163e-11 -1.198714196480599e-12 -1
  outer loop
    vertex 3096.728271484375 1.539727687835693 3100.026611328125
    vertex 3356.526611328125 15015.59765625 3100.026611328125
    vertex 3980.944580078125 38.29369354248047 3100.026611328125
  endloop
endfacet
facet normal -2.712577731878163e-11 -1.198714196480599e-12 -1
  outer loop
    vertex 3980.944580078125 38.29369354248047 3100.026611328125
    vertex 3356.526611328125 15015.59765625 3100.026611328125
    vertex 8699.98828125 15015.59765625 3100.026611328125
  endloop
endfacet
facet normal -2.712577731878163e-11 -1.198714196480599e-12 -1
  outer loop
    vertex 3980.944580078125 38.29369354248047 3100.026611328125
    vertex 8699.98828125 15015.59765625 3100.026611328125
    vertex 4900.66650390625 138.3269348144531 3100.026611328125
  endloop
endfacet
facet normal -2.712577731878163e-11 -1.198714196480599e-12 -1
  outer loop
    vertex 4900.66650390625 138.3269348144531 3100.026611328125
    vertex 8699.98828125 15015.59765625 3100.026611328125
    vertex 5811.90771484375 299.543212890625 3100.026611328125
  endloop
endfacet
facet normal -2.712577731878163e-11 -1.198714196480599e-12 -1
  outer loop
    vertex 5811.90771484375 299.543212890625 3100.026611328125
    vertex 8699.98828125 15015.59765625 3100.026611328125
    vertex 5881.8505859375 316.7953186035156 3100.026611328125
  endloop
endfacet
facet normal -2.712577731878163e-11 -1.198714196480599e-12 -1
  outer loop
    vertex 5881.8505859375 316.7953186035156 3100.026611328125
    vertex 8699.98828125 15015.59765625 3100.026611328125
    vertex 6710.71826171875 521.2437133789062 3100.026611328125
  endloop
endfacet
facet normal -2.712577731878163e-11 -1.198714196480599e-12 -1
  outer loop
    vertex 6710.71826171875 521.2437133789062 3100.026611328125
    vertex 8699.98828125 15015.59765625 3100.026611328125
    vertex 7593.20263671875 802.4675903320312 3100.026611328125
  endloop
endfacet
facet normal -2.712577731878163e-11 -1.198714196480599e-12 -1
  outer loop
    vertex 7593.20263671875 802.4675903320312 3100.026611328125
    vertex 8699.98828125 15015.59765625 3100.026611328125
    vertex 7856.9189453125 906.3011474609375 3100.026611328125
  endloop
endfacet
facet normal -2.712577731878163e-11 -1.198714196480599e-12 -1
  outer loop
    vertex 7856.9189453125 906.3011474609375 3100.026611328125
    vertex 8699.98828125 15015.59765625 3100.026611328125
    vertex 8455.5361328125 1141.995849609375 3100.026611328125
  endloop
endfacet
facet normal -2.712577731878163e-11 -1.198714196480599e-12 -1
  outer loop
    vertex 8455.5361328125 1141.995849609375 3100.026611328125
    vertex 8699.98828125 15015.59765625 3100.026611328125
    vertex 8699.98828125 14280.7255859375 3100.026611328125
  endloop
endfacet
facet normal -2.712577731878163e-11 -1.198714196480599e-12 -1
  outer loop
    vertex 8455.5361328125 1141.995849609375 3100.026611328125
    vertex 8699.98828125 14280.7255859375 3100.026611328125
    vertex 9293.98046875 1538.35693359375 3100.026611328125
  endloop
endfacet
facet normal -2.712577731878163e-11 -1.198714196480599e-12 -1
  outer loop
    vertex 9293.98046875 1538.35693359375 3100.026611328125
    vertex 8699.98828125 14280.7255859375 3100.026611328125
    vertex 10985.712890625 14280.7255859375 3100.026611328125
  endloop
endfacet
facet normal -2.712577731878163e-11 -1.198714196480599e-12 -1
  outer loop
    vertex 9293.98046875 1538.35693359375 3100.026611328125
    vertex 10985.712890625 14280.7255859375 3100.026611328125
    vertex 10104.90234375 1989.832885742188 3100.026611328125
  endloop
endfacet
facet normal -2.712577731878163e-11 -1.198714196480599e-12 -1
  outer loop
    vertex 10104.90234375 1989.832885742188 3100.026611328125
    vertex 10985.712890625 14280.7255859375 3100.026611328125
    vertex 10884.78515625 2494.466796875 3100.026611328125
  endloop
endfacet
facet normal -2.712577731878163e-11 -1.198714196480599e-12 -1
  outer loop
    vertex 10884.78515625 2494.466796875 3100.026611328125
    vertex 10985.712890625 14280.7255859375 3100.026611328125
    vertex 10975.4453125 2553.129638671875 3100.026611328125
  endloop
endfacet
facet normal -2.712577731878163e-11 -1.198714196480599e-12 -1
  outer loop
    vertex 10975.4453125 2553.129638671875 3100.026611328125
    vertex 10985.712890625 14280.7255859375 3100.026611328125
    vertex 10985.712890625 5157.25537109375 3100.026611328125
  endloop
endfacet
facet normal -2.712577731878163e-11 -1.198714196480599e-12 -1
  outer loop
    vertex 10975.4453125 2553.129638671875 3100.026611328125
    vertex 10985.712890625 5157.25537109375 3100.026611328125
    vertex 10985.712890625 2553.129638671875 3100.026611328125
  endloop
endfacet
facet normal -2.712577731878163e-11 -1.198714196480599e-12 -1
  outer loop
    vertex 10985.712890625 14280.7255859375 3100.026611328125
    vertex 10985.712890625 9181.787109375 3100.026611328125
    vertex 10985.712890625 5157.25537109375 3100.026611328125
  endloop
endfacet
facet normal -2.712577731878163e-11 -1.198714196480599e-12 -1
  outer loop
    vertex 10985.712890625 9181.787109375 3100.026611328125
    vertex 10985.712890625 14280.7255859375 3100.026611328125
    vertex 10985.712890625 12022.599609375 3100.026611328125
  endloop
endfacet
facet normal -2.712577731878163e-11 -1.198714196480599e-12 -1
  outer loop
    vertex 10985.712890625 7761.38134765625 3100.026611328125
    vertex 10985.712890625 5157.25537109375 3100.026611328125
    vertex 10985.712890625 9181.787109375 3100.026611328125
  endloop
endfacet
facet normal 0.2330268323421478 -0.9724702835083008 -5.188573529157914e-12
  outer loop
    vertex 6710.71826171875 521.2437133789062 3100.026611328125
    vertex 5881.8505859375 316.7953186035156 3500.013427734375
    vertex 5881.8505859375 316.7953186035156 3100.026611328125
  endloop
endfacet
facet normal 0.2330268323421478 -0.9724702835083008 -5.188573529157914e-12
  outer loop
    vertex 5881.8505859375 316.7953186035156 3500.013427734375
    vertex 6710.71826171875 521.2437133789062 3100.026611328125
    vertex 6710.71826171875 521.2437133789062 3500.013427734375
  endloop
endfacet
facet normal 0.2330268323421478 -0.9724702835083008 -5.188573529157914e-12
  outer loop
    vertex 5881.8505859375 316.7953186035156 3500.013427734375
    vertex 5811.90771484375 299.543212890625 3100.026611328125
    vertex 5881.8505859375 316.7953186035156 3100.026611328125
  endloop
endfacet
facet normal 0.2330268323421478 -0.9724702835083008 -5.188573529157914e-12
  outer loop
    vertex 5811.90771484375 299.543212890625 3100.026611328125
    vertex 5881.8505859375 316.7953186035156 3500.013427734375
    vertex 5811.90771484375 299.543212890625 3500.013427734375
  endloop
endfacet
facet normal 0.1693889200687408 -0.98554927110672 -3.447114772445192e-12
  outer loop
    vertex 5811.90771484375 299.543212890625 3500.013427734375
    vertex 4900.66650390625 138.3269348144531 3100.026611328125
    vertex 5811.90771484375 299.543212890625 3100.026611328125
  endloop
endfacet
facet normal 0.1693889200687408 -0.98554927110672 -3.447114772445192e-12
  outer loop
    vertex 4900.66650390625 138.3269348144531 3100.026611328125
    vertex 5811.90771484375 299.543212890625 3500.013427734375
    vertex 4900.66650390625 138.3269348144531 3500.013427734375
  endloop
endfacet
facet normal 0.1050770729780197 -0.994464099407196 -1.692224593959069e-12
  outer loop
    vertex 4900.66650390625 138.3269348144531 3500.013427734375
    vertex 3980.944580078125 38.29369354248047 3100.026611328125
    vertex 4900.66650390625 138.3269348144531 3100.026611328125
  endloop
endfacet
facet normal 0.1050770729780197 -0.994464099407196 -1.692224593959069e-12
  outer loop
    vertex 3980.944580078125 38.29369354248047 3100.026611328125
    vertex 4900.66650390625 138.3269348144531 3500.013427734375
    vertex 3980.944580078125 38.29369354248047 3500.013427734375
  endloop
endfacet
facet normal 0.04034808278083801 -0.9991856813430786 6.909790529465928e-14
  outer loop
    vertex 3980.944580078125 38.29369354248047 3100.026611328125
    vertex 3096.728271484375 1.539727687835693 3500.013427734375
    vertex 3096.728271484375 1.539727687835693 3100.026611328125
  endloop
endfacet
facet normal 0.04034808278083801 -0.9991856813430786 6.909790529465928e-14
  outer loop
    vertex 3096.728271484375 1.539727687835693 3500.013427734375
    vertex 3980.944580078125 38.29369354248047 3100.026611328125
    vertex 3980.944580078125 38.29369354248047 3500.013427734375
  endloop
endfacet
facet normal 0.0009059278527274728 -0.9999995827674866 1.139944909300805e-12
  outer loop
    vertex 3096.728271484375 1.539727687835693 3500.013427734375
    vertex 3015.668701171875 1.464137434959412 3100.026611328125
    vertex 3096.728271484375 1.539727687835693 3100.026611328125
  endloop
endfacet
facet normal 0.0009059278527274728 -0.9999995827674866 1.139944909300805e-12
  outer loop
    vertex 3015.668701171875 1.464137434959412 3100.026611328125
    vertex 3096.728271484375 1.539727687835693 3500.013427734375
    vertex 3015.668701171875 1.464137434959412 3500.013427734375
  endloop
endfacet
facet normal -0.0254928320646286 -0.9996749758720398 1.855653868412799e-12
  outer loop
    vertex 3015.668701171875 1.464137434959412 3500.013427734375
    vertex 2934.636474609375 3.591229200363159 3100.026611328125
    vertex 3015.668701171875 1.464137434959412 3100.026611328125
  endloop
endfacet
facet normal -0.0254928320646286 -0.9996749758720398 1.855653868412799e-12
  outer loop
    vertex 2934.636474609375 3.591229200363159 3100.026611328125
    vertex 3015.668701171875 1.464137434959412 3500.013427734375
    vertex 2934.636474609375 3.591229200363159 3500.013427734375
  endloop
endfacet
facet normal -0.05187486484646797 -0.9986535906791687 2.570097563589502e-12
  outer loop
    vertex 2934.636474609375 3.591229200363159 3500.013427734375
    vertex 2853.689453125 7.919477462768555 3100.026611328125
    vertex 2934.636474609375 3.591229200363159 3100.026611328125
  endloop
endfacet
facet normal -0.05187486484646797 -0.9986535906791687 2.570097563589502e-12
  outer loop
    vertex 2853.689453125 7.919477462768555 3100.026611328125
    vertex 2934.636474609375 3.591229200363159 3500.013427734375
    vertex 2853.689453125 7.919477462768555 3500.013427734375
  endloop
endfacet
facet normal -0.0782228484749794 -0.9969359040260315 3.282806752130663e-12
  outer loop
    vertex 2853.689453125 7.919477462768555 3500.013427734375
    vertex 2772.8857421875 14.44577598571777 3100.026611328125
    vertex 2853.689453125 7.919477462768555 3100.026611328125
  endloop
endfacet
facet normal -0.0782228484749794 -0.9969359040260315 3.282806752130663e-12
  outer loop
    vertex 2772.8857421875 14.44577598571777 3100.026611328125
    vertex 2853.689453125 7.919477462768555 3500.013427734375
    vertex 2772.8857421875 14.44577598571777 3500.013427734375
  endloop
endfacet
facet normal -0.1045194789767265 -0.9945228099822998 3.993313058697767e-12
  outer loop
    vertex 2772.8857421875 14.44577598571777 3500.013427734375
    vertex 2692.283203125 23.16544342041016 3100.026611328125
    vertex 2772.8857421875 14.44577598571777 3100.026611328125
  endloop
endfacet
facet normal -0.1045194789767265 -0.9945228099822998 3.993313058697767e-12
  outer loop
    vertex 2692.283203125 23.16544342041016 3100.026611328125
    vertex 2772.8857421875 14.44577598571777 3500.013427734375
    vertex 2692.283203125 23.16544342041016 3500.013427734375
  endloop
endfacet
facet normal -0.1307474374771118 -0.9914156794548035 4.701148758473606e-12
  outer loop
    vertex 2692.283203125 23.16544342041016 3500.013427734375
    vertex 2611.939697265625 34.07222366333008 3100.026611328125
    vertex 2692.283203125 23.16544342041016 3100.026611328125
  endloop
endfacet
facet normal -0.1307474374771118 -0.9914156794548035 4.701148758473606e-12
  outer loop
    vertex 2611.939697265625 34.07222366333008 3100.026611328125
    vertex 2692.283203125 23.16544342041016 3500.013427734375
    vertex 2611.939697265625 34.07222366333008 3500.013427734375
  endloop
endfacet
facet normal -0.1568894386291504 -0.9876161813735962 5.405846343481402e-12
  outer loop
    vertex 2611.939697265625 34.07222366333008 3500.013427734375
    vertex 2531.9130859375 47.15829086303711 3100.026611328125
    vertex 2611.939697265625 34.07222366333008 3100.026611328125
  endloop
endfacet
facet normal -0.1568894386291504 -0.9876161813735962 5.405846343481402e-12
  outer loop
    vertex 2531.9130859375 47.15829086303711 3100.026611328125
    vertex 2611.939697265625 34.07222366333008 3500.013427734375
    vertex 2531.9130859375 47.15829086303711 3500.013427734375
  endloop
endfacet
facet normal -0.1829281896352768 -0.9831262826919556 6.106939173106118e-12
  outer loop
    vertex 2531.9130859375 47.15829086303711 3500.013427734375
    vertex 2452.2607421875 62.41425323486328 3100.026611328125
    vertex 2531.9130859375 47.15829086303711 3100.026611328125
  endloop
endfacet
facet normal -0.1829281896352768 -0.9831262826919556 6.106939173106118e-12
  outer loop
    vertex 2452.2607421875 62.41425323486328 3100.026611328125
    vertex 2531.9130859375 47.15829086303711 3500.013427734375
    vertex 2452.2607421875 62.41425323486328 3500.013427734375
  endloop
endfacet
facet normal -0.2088464349508286 -0.9779484272003174 6.803961907775324e-12
  outer loop
    vertex 2452.2607421875 62.41425323486328 3500.013427734375
    vertex 2373.03955078125 79.82917022705078 3100.026611328125
    vertex 2452.2607421875 62.41425323486328 3100.026611328125
  endloop
endfacet
facet normal -0.2088464349508286 -0.9779484272003174 6.803961907775324e-12
  outer loop
    vertex 2373.03955078125 79.82917022705078 3100.026611328125
    vertex 2452.2607421875 62.41425323486328 3500.013427734375
    vertex 2373.03955078125 79.82917022705078 3500.013427734375
  endloop
endfacet
facet normal -0.2346269190311432 -0.9720854759216309 7.496450508959196e-12
  outer loop
    vertex 2373.03955078125 79.82917022705078 3500.013427734375
    vertex 2294.306396484375 99.39054870605469 3100.026611328125
    vertex 2373.03955078125 79.82917022705078 3100.026611328125
  endloop
endfacet
facet normal -0.2346269190311432 -0.9720854759216309 7.496450508959196e-12
  outer loop
    vertex 2294.306396484375 99.39054870605469 3100.026611328125
    vertex 2373.03955078125 79.82917022705078 3500.013427734375
    vertex 2294.306396484375 99.39054870605469 3500.013427734375
  endloop
endfacet
facet normal -0.2602524161338806 -0.9655405879020691 8.18394050444704e-12
  outer loop
    vertex 2294.306396484375 99.39054870605469 3500.013427734375
    vertex 2216.117919921875 121.0843505859375 3100.026611328125
    vertex 2294.306396484375 99.39054870605469 3100.026611328125
  endloop
endfacet
facet normal -0.2602524161338806 -0.9655405879020691 8.18394050444704e-12
  outer loop
    vertex 2216.117919921875 121.0843505859375 3100.026611328125
    vertex 2294.306396484375 99.39054870605469 3500.013427734375
    vertex 2216.117919921875 121.0843505859375 3500.013427734375
  endloop
endfacet
facet normal -0.2857057750225067 -0.9583173990249634 8.865970457794248e-12
  outer loop
    vertex 2216.117919921875 121.0843505859375 3500.013427734375
    vertex 2138.5302734375 144.89501953125 3100.026611328125
    vertex 2216.117919921875 121.0843505859375 3100.026611328125
  endloop
endfacet
facet normal -0.2857057750225067 -0.9583173990249634 8.865970457794248e-12
  outer loop
    vertex 2138.5302734375 144.89501953125 3100.026611328125
    vertex 2216.117919921875 121.0843505859375 3500.013427734375
    vertex 2138.5302734375 144.89501953125 3500.013427734375
  endloop
endfacet
facet normal -0.2864140868186951 -0.9581059217453003 8.884937924280578e-12
  outer loop
    vertex 2138.5302734375 144.89501953125 3500.013427734375
    vertex 2076.266845703125 164.0544891357422 3100.026611328125
    vertex 2138.5302734375 144.89501953125 3100.026611328125
  endloop
endfacet
facet normal -0.2864140868186951 -0.9581059217453003 8.884937924280578e-12
  outer loop
    vertex 2076.266845703125 164.0544891357422 3100.026611328125
    vertex 2138.5302734375 144.89501953125 3500.013427734375
    vertex 2076.266845703125 164.0544891357422 3500.013427734375
  endloop
endfacet
facet normal -0.3477656245231628 -0.937581479549408 1.052524473826866e-11
  outer loop
    vertex 2076.266845703125 164.0544891357422 3500.013427734375
    vertex 1889.457641601562 235.3799285888672 3100.026611328125
    vertex 2076.266845703125 164.0544891357422 3100.026611328125
  endloop
endfacet
facet normal -0.3477656245231628 -0.937581479549408 1.052524473826866e-11
  outer loop
    vertex 1889.457641601562 235.3799285888672 3100.026611328125
    vertex 2076.266845703125 164.0544891357422 3500.013427734375
    vertex 1889.457641601562 235.3799285888672 3500.013427734375
  endloop
endfacet
facet normal -0.407734602689743 -0.9131004810333252 1.21234411398774e-11
  outer loop
    vertex 1889.457641601562 235.3799285888672 3500.013427734375
    vertex 1707.646850585938 318.9494018554688 3100.026611328125
    vertex 1889.457641601562 235.3799285888672 3100.026611328125
  endloop
endfacet
facet normal -0.407734602689743 -0.9131004810333252 1.21234411398774e-11
  outer loop
    vertex 1707.646850585938 318.9494018554688 3100.026611328125
    vertex 1889.457641601562 235.3799285888672 3500.013427734375
    vertex 1707.646850585938 318.9494018554688 3500.013427734375
  endloop
endfacet
facet normal -0.4660736620426178 -0.8847458958625793 1.367291436321638e-11
  outer loop
    vertex 1707.646850585938 318.9494018554688 3500.013427734375
    vertex 1531.61279296875 414.405029296875 3100.026611328125
    vertex 1707.646850585938 318.9494018554688 3100.026611328125
  endloop
endfacet
facet normal -0.4660736620426178 -0.8847458958625793 1.367291436321638e-11
  outer loop
    vertex 1531.61279296875 414.405029296875 3100.026611328125
    vertex 1707.646850585938 318.9494018554688 3500.013427734375
    vertex 1531.61279296875 414.405029296875 3500.013427734375
  endloop
endfacet
facet normal -0.5225381255149841 -0.8526158928871155 1.516714184801593e-11
  outer loop
    vertex 1531.61279296875 414.405029296875 3500.013427734375
    vertex 1362.109619140625 521.3379516601562 3100.026611328125
    vertex 1531.61279296875 414.405029296875 3100.026611328125
  endloop
endfacet
facet normal -0.5225381255149841 -0.8526158928871155 1.516714184801593e-11
  outer loop
    vertex 1362.109619140625 521.3379516601562 3100.026611328125
    vertex 1531.61279296875 414.405029296875 3500.013427734375
    vertex 1362.109619140625 521.3379516601562 3500.013427734375
  endloop
endfacet
facet normal -0.576886773109436 -0.8168241381645203 1.659970945422362e-11
  outer loop
    vertex 1362.109619140625 521.3379516601562 3500.013427734375
    vertex 1271.090209960938 587.508544921875 3100.026611328125
    vertex 1362.109619140625 521.3379516601562 3100.026611328125
  endloop
endfacet
facet normal -0.576886773109436 -0.8168241381645203 1.659970945422362e-11
  outer loop
    vertex 1271.090209960938 587.508544921875 3100.026611328125
    vertex 1362.109619140625 521.3379516601562 3500.013427734375
    vertex 1271.090209960938 587.508544921875 3500.013427734375
  endloop
endfacet
facet normal -0.576886773109436 -0.8168241381645203 1.659970945422362e-11
  outer loop
    vertex 1271.090209960938 587.508544921875 3100.026611328125
    vertex 1199.863037109375 639.290283203125 3500.013427734375
    vertex 1199.863037109375 639.290283203125 3100.026611328125
  endloop
endfacet
facet normal -0.576886773109436 -0.8168241381645203 1.659970945422362e-11
  outer loop
    vertex 1199.863037109375 639.290283203125 3500.013427734375
    vertex 1271.090209960938 587.508544921875 3100.026611328125
    vertex 1271.090209960938 587.508544921875 3500.013427734375
  endloop
endfacet
facet normal -0.6288826465606689 -0.7775002121925354 1.796434528911206e-11
  outer loop
    vertex 1199.863037109375 639.290283203125 3500.013427734375
    vertex 1045.567993164062 767.7568359375 3100.026611328125
    vertex 1199.863037109375 639.290283203125 3100.026611328125
  endloop
endfacet
facet normal -0.6288826465606689 -0.7775002121925354 1.796434528911206e-11
  outer loop
    vertex 1045.567993164062 767.7568359375 3100.026611328125
    vertex 1199.863037109375 639.290283203125 3500.013427734375
    vertex 1045.567993164062 767.7568359375 3500.013427734375
  endloop
endfacet
facet normal -0.6782945394515991 -0.7347900867462158 1.925494486076929e-11
  outer loop
    vertex 1045.567993164062 767.7568359375 3500.013427734375
    vertex 899.88525390625 906.1873779296875 3100.026611328125
    vertex 1045.567993164062 767.7568359375 3100.026611328125
  endloop
endfacet
facet normal -0.6782945394515991 -0.7347900867462158 1.925494486076929e-11
  outer loop
    vertex 899.88525390625 906.1873779296875 3100.026611328125
    vertex 1045.567993164062 767.7568359375 3500.013427734375
    vertex 899.88525390625 906.1873779296875 3500.013427734375
  endloop
endfacet
facet normal -0.7248979806900024 -0.6888562440872192 2.04656083746535e-11
  outer loop
    vertex 899.88525390625 906.1873779296875 3500.013427734375
    vertex 763.4388427734375 1053.989135742188 3100.026611328125
    vertex 899.88525390625 906.1873779296875 3100.026611328125
  endloop
endfacet
facet normal -0.7248979806900024 -0.6888562440872192 2.04656083746535e-11
  outer loop
    vertex 763.4388427734375 1053.989135742188 3100.026611328125
    vertex 899.88525390625 906.1873779296875 3500.013427734375
    vertex 763.4388427734375 1053.989135742188 3500.013427734375
  endloop
endfacet
facet normal -0.7684767842292786 -0.6398776769638062 2.159067889750954e-11
  outer loop
    vertex 763.4388427734375 1053.989135742188 3500.013427734375
    vertex 636.81298828125 1210.529052734375 3100.026611328125
    vertex 763.4388427734375 1053.989135742188 3100.026611328125
  endloop
endfacet
facet normal -0.7684767842292786 -0.6398776769638062 2.159067889750954e-11
  outer loop
    vertex 636.81298828125 1210.529052734375 3100.026611328125
    vertex 763.4388427734375 1053.989135742188 3500.013427734375
    vertex 636.81298828125 1210.529052734375 3500.013427734375
  endloop
endfacet
facet normal -0.8088244199752808 -0.5880501866340637 2.262478746017926e-11
  outer loop
    vertex 636.81298828125 1210.529052734375 3500.013427734375
    vertex 584.2819213867188 1284.903564453125 3100.026611328125
    vertex 636.81298828125 1210.529052734375 3100.026611328125
  endloop
endfacet
facet normal -0.8088244199752808 -0.5880501866340637 2.262478746017926e-11
  outer loop
    vertex 584.2819213867188 1284.903564453125 3100.026611328125
    vertex 636.81298828125 1210.529052734375 3500.013427734375
    vertex 584.2819213867188 1284.903564453125 3500.013427734375
  endloop
endfacet
facet normal -0.8088244199752808 -0.5880501866340637 2.262478746017926e-11
  outer loop
    vertex 584.2819213867188 1284.903564453125 3500.013427734375
    vertex 520.550048828125 1375.13671875 3100.026611328125
    vertex 584.2819213867188 1284.903564453125 3100.026611328125
  endloop
endfacet
facet normal -0.8088244199752808 -0.5880501866340637 2.262478746017926e-11
  outer loop
    vertex 520.550048828125 1375.13671875 3100.026611328125
    vertex 584.2819213867188 1284.903564453125 3500.013427734375
    vertex 520.550048828125 1375.13671875 3500.013427734375
  endloop
endfacet
facet normal -0.8457459211349487 -0.533585786819458 2.356288775207105e-11
  outer loop
    vertex 520.550048828125 1375.13671875 3500.013427734375
    vertex 415.1479187011719 1547.107177734375 3100.026611328125
    vertex 520.550048828125 1375.13671875 3100.026611328125
  endloop
endfacet
facet normal -0.8457459211349487 -0.533585786819458 2.356288775207105e-11
  outer loop
    vertex 415.1479187011719 1547.107177734375 3100.026611328125
    vertex 520.550048828125 1375.13671875 3500.013427734375
    vertex 415.1479187011719 1547.107177734375 3500.013427734375
  endloop
endfacet
facet normal -0.8790593147277832 -0.4767123460769653 2.440030816286409e-11
  outer loop
    vertex 415.1479187011719 1547.107177734375 3500.013427734375
    vertex 321.0580444335938 1725.703979492188 3100.026611328125
    vertex 415.1479187011719 1547.107177734375 3100.026611328125
  endloop
endfacet
facet normal -0.8790593147277832 -0.4767123460769653 2.440030816286409e-11
  outer loop
    vertex 321.0580444335938 1725.703979492188 3100.026611328125
    vertex 415.1479187011719 1547.107177734375 3500.013427734375
    vertex 321.0580444335938 1725.703979492188 3500.013427734375
  endloop
endfacet
facet normal -0.908597469329834 -0.4176728427410126 2.51328020894892e-11
  outer loop
    vertex 321.0580444335938 1725.703979492188 3500.013427734375
    vertex 238.683349609375 1910.162109375 3100.026611328125
    vertex 321.0580444335938 1725.703979492188 3100.026611328125
  endloop
endfacet
facet normal -0.908597469329834 -0.4176728427410126 2.51328020894892e-11
  outer loop
    vertex 238.683349609375 1910.162109375 3100.026611328125
    vertex 321.0580444335938 1725.703979492188 3500.013427734375
    vertex 238.683349609375 1910.162109375 3500.013427734375
  endloop
endfacet
facet normal -0.9342096447944641 -0.3567244410514832 2.575657569170442e-11
  outer loop
    vertex 238.683349609375 1910.162109375 3500.013427734375
    vertex 168.3766326904297 2099.69189453125 3100.026611328125
    vertex 238.683349609375 1910.162109375 3100.026611328125
  endloop
endfacet
facet normal -0.9342096447944641 -0.3567244410514832 2.575657569170442e-11
  outer loop
    vertex 168.3766326904297 2099.69189453125 3100.026611328125
    vertex 238.683349609375 1910.162109375 3500.013427734375
    vertex 168.3766326904297 2099.69189453125 3500.013427734375
  endloop
endfacet
facet normal -0.9557632207870483 -0.294137179851532 2.626834860741667e-11
  outer loop
    vertex 168.3766326904297 2099.69189453125 3500.013427734375
    vertex 148.8173065185547 2165.11376953125 3100.026611328125
    vertex 168.3766326904297 2099.69189453125 3100.026611328125
  endloop
endfacet
facet normal -0.9557632207870483 -0.294137179851532 2.626834860741667e-11
  outer loop
    vertex 148.8173065185547 2165.11376953125 3100.026611328125
    vertex 168.3766326904297 2099.69189453125 3500.013427734375
    vertex 148.8173065185547 2165.11376953125 3500.013427734375
  endloop
endfacet
facet normal -0.9557632207870483 -0.294137179851532 2.626834860741667e-11
  outer loop
    vertex 148.8173065185547 2165.11376953125 3500.013427734375
    vertex 110.4390106201172 2293.481201171875 3100.026611328125
    vertex 148.8173065185547 2165.11376953125 3100.026611328125
  endloop
endfacet
facet normal -0.9557632207870483 -0.294137179851532 2.626834860741667e-11
  outer loop
    vertex 110.4390106201172 2293.481201171875 3100.026611328125
    vertex 148.8173065185547 2165.11376953125 3500.013427734375
    vertex 110.4390106201172 2293.481201171875 3500.013427734375
  endloop
endfacet
facet normal -0.9731451272964478 -0.2301925271749496 2.666538170825739e-11
  outer loop
    vertex 110.4390106201172 2293.481201171875 3500.013427734375
    vertex 65.11859130859375 2490.700439453125 3100.026611328125
    vertex 110.4390106201172 2293.481201171875 3100.026611328125
  endloop
endfacet
facet normal -0.9731451272964478 -0.2301925271749496 2.666538170825739e-11
  outer loop
    vertex 65.11859130859375 2490.700439453125 3100.026611328125
    vertex 110.4390106201172 2293.481201171875 3500.013427734375
    vertex 65.11859130859375 2490.700439453125 3500.013427734375
  endloop
endfacet
facet normal -0.9862631559371948 -0.1651816666126251 2.694551179405202e-11
  outer loop
    vertex 65.11859130859375 2490.700439453125 3500.013427734375
    vertex 32.60947799682617 2690.5048828125 3100.026611328125
    vertex 65.11859130859375 2490.700439453125 3100.026611328125
  endloop
endfacet
facet normal -0.9862631559371948 -0.1651816666126251 2.694551179405202e-11
  outer loop
    vertex 32.60947799682617 2690.5048828125 3100.026611328125
    vertex 65.11859130859375 2490.700439453125 3500.013427734375
    vertex 32.60947799682617 2690.5048828125 3500.013427734375
  endloop
endfacet
facet normal -0.9950472116470337 -0.09940356016159058 2.710718628728959e-11
  outer loop
    vertex 32.60947799682617 2690.5048828125 3500.013427734375
    vertex 13.05089664459229 2892.038818359375 3100.026611328125
    vertex 32.60947799682617 2690.5048828125 3100.026611328125
  endloop
endfacet
facet normal -0.9950472116470337 -0.09940356016159058 2.710718628728959e-11
  outer loop
    vertex 13.05089664459229 2892.038818359375 3100.026611328125
    vertex 32.60947799682617 2690.5048828125 3500.013427734375
    vertex 13.05089664459229 2892.038818359375 3500.013427734375
  endloop
endfacet
facet normal -0.9994499683380127 -0.03316286951303482 2.714947537618695e-11
  outer loop
    vertex 13.05089664459229 2892.038818359375 3500.013427734375
    vertex 7.823384761810303 3054.209716796875 3100.026611328125
    vertex 13.05089664459229 2892.038818359375 3100.026611328125
  endloop
endfacet
facet normal -0.9994499683380127 -0.03316286951303482 2.714947537618695e-11
  outer loop
    vertex 7.823384761810303 3054.209716796875 3100.026611328125
    vertex 13.05089664459229 2892.038818359375 3500.013427734375
    vertex 7.823384761810303 3054.209716796875 3500.013427734375
  endloop
endfacet
facet normal -0.01937429420650005 0.9998123049736023 -6.387579809703781e-13
  outer loop
    vertex 7.823384761810303 3054.209716796875 3500.013427734375
    vertex 8.096561431884766 3054.215087890625 3100.026611328125
    vertex 7.823384761810303 3054.209716796875 3100.026611328125
  endloop
endfacet
facet normal -0.01937429420650005 0.9998123049736023 -6.387579809703781e-13
  outer loop
    vertex 8.096561431884766 3054.215087890625 3100.026611328125
    vertex 7.823384761810303 3054.209716796875 3500.013427734375
    vertex 8.096561431884766 3054.215087890625 3500.013427734375
  endloop
endfacet
facet normal -0.9998010993003845 -0.01994297467172146 2.714360680666772e-11
  outer loop
    vertex 8.096561431884766 3054.215087890625 3500.013427734375
    vertex 7.280813217163086 3096.311767578125 3100.026611328125
    vertex 8.096561431884766 3054.215087890625 3100.026611328125
  endloop
endfacet
facet normal -0.9998010993003845 -0.01994297467172146 2.714360680666772e-11
  outer loop
    vertex 7.280813217163086 3096.311767578125 3100.026611328125
    vertex 8.096561431884766 3054.215087890625 3500.013427734375
    vertex 7.280813217163086 3096.311767578125 3500.013427734375
  endloop
endfacet
facet normal 0.01937429420650005 -0.9998123049736023 6.387579809703781e-13
  outer loop
    vertex 7.280813217163086 3096.311767578125 3500.013427734375
    vertex 6.595019817352295 3096.298095703125 3100.026611328125
    vertex 7.280813217163086 3096.311767578125 3100.026611328125
  endloop
endfacet
facet normal 0.01937429420650005 -0.9998123049736023 6.387579809703781e-13
  outer loop
    vertex 6.595019817352295 3096.298095703125 3100.026611328125
    vertex 7.280813217163086 3096.311767578125 3500.013427734375
    vertex 6.595019817352295 3096.298095703125 3500.013427734375
  endloop
endfacet
facet normal -0.9992834329605103 0.03784952312707901 2.706226388815569e-11
  outer loop
    vertex 6.595019817352295 3096.298095703125 3500.013427734375
    vertex 8.103206634521484 3137.28564453125 3100.026611328125
    vertex 6.595019817352295 3096.298095703125 3100.026611328125
  endloop
endfacet
facet normal -0.9992834329605103 0.03784952312707901 2.706226388815569e-11
  outer loop
    vertex 8.103206634521484 3137.28564453125 3100.026611328125
    vertex 6.595019817352295 3096.298095703125 3500.013427734375
    vertex 8.103206634521484 3137.28564453125 3500.013427734375
  endloop
endfacet
facet normal -0.9992834329605103 0.03784952312707901 2.706226388815569e-11
  outer loop
    vertex 8.103206634521484 3137.28564453125 3500.013427734375
    vertex 76.95321655273438 5008.40380859375 3100.026611328125
    vertex 8.103206634521484 3137.28564453125 3100.026611328125
  endloop
endfacet
facet normal -0.9992834329605103 0.03784952312707901 2.706226388815569e-11
  outer loop
    vertex 76.95321655273438 5008.40380859375 3100.026611328125
    vertex 8.103206634521484 3137.28564453125 3500.013427734375
    vertex 76.95321655273438 5008.40380859375 3500.013427734375
  endloop
endfacet
facet normal -0.9992834329605103 0.03784952312707901 2.706226388815569e-11
  outer loop
    vertex 76.95321655273438 5008.40380859375 3500.013427734375
    vertex 80.85573577880859 5114.46142578125 3100.026611328125
    vertex 76.95321655273438 5008.40380859375 3100.026611328125
  endloop
endfacet
facet normal -0.9992834329605103 0.03784952312707901 2.706226388815569e-11
  outer loop
    vertex 80.85573577880859 5114.46142578125 3100.026611328125
    vertex 76.95321655273438 5008.40380859375 3500.013427734375
    vertex 80.85573577880859 5114.46142578125 3500.013427734375
  endloop
endfacet
facet normal -0.9944790005683899 0.1049357205629349 2.685381604583537e-11
  outer loop
    vertex 80.85573577880859 5114.46142578125 3500.013427734375
    vertex 284.5543212890625 7101.60498046875 3100.026611328125
    vertex 80.85573577880859 5114.46142578125 3100.026611328125
  endloop
endfacet
facet normal -0.9944790005683899 0.1049357205629349 2.685381604583537e-11
  outer loop
    vertex 284.5543212890625 7101.60498046875 3100.026611328125
    vertex 80.85573577880859 5114.46142578125 3500.013427734375
    vertex 284.5543212890625 7101.60498046875 3500.013427734375
  endloop
endfacet
facet normal -0.9944790005683899 0.1049357205629349 2.685381604583537e-11
  outer loop
    vertex 284.5543212890625 7101.60498046875 3500.013427734375
    vertex 286.957275390625 7125.046875 3100.026611328125
    vertex 284.5543212890625 7101.60498046875 3100.026611328125
  endloop
endfacet
facet normal -0.9944790005683899 0.1049357205629349 2.685381604583537e-11
  outer loop
    vertex 286.957275390625 7125.046875 3100.026611328125
    vertex 284.5543212890625 7101.60498046875 3500.013427734375
    vertex 286.957275390625 7125.046875 3500.013427734375
  endloop
endfacet
facet normal -0.9851804971694946 0.1715207099914551 2.652404858249913e-11
  outer loop
    vertex 286.957275390625 7125.046875 3500.013427734375
    vertex 623.9252319335938 9117.3564453125 3100.026611328125
    vertex 286.957275390625 7125.046875 3100.026611328125
  endloop
endfacet
facet normal -0.9851804971694946 0.1715207099914551 2.652404858249913e-11
  outer loop
    vertex 623.9252319335938 9117.3564453125 3100.026611328125
    vertex 286.957275390625 7125.046875 3500.013427734375
    vertex 623.9252319335938 9117.3564453125 3500.013427734375
  endloop
endfacet
facet normal -0.9714393019676208 0.2372881472110748 2.607472050775161e-11
  outer loop
    vertex 623.9252319335938 9117.3564453125 3500.013427734375
    vertex 963.1021728515625 10546.693359375 3100.026611328125
    vertex 623.9252319335938 9117.3564453125 3100.026611328125
  endloop
endfacet
facet normal -0.9714393019676208 0.2372881472110748 2.607472050775161e-11
  outer loop
    vertex 963.1021728515625 10546.693359375 3100.026611328125
    vertex 623.9252319335938 9117.3564453125 3500.013427734375
    vertex 963.1021728515625 10546.693359375 3500.013427734375
  endloop
endfacet
facet normal -0.9714393019676208 0.2372881472110748 2.607472050775161e-11
  outer loop
    vertex 963.1021728515625 10546.693359375 3500.013427734375
    vertex 1090.2783203125 11082.630859375 3100.026611328125
    vertex 963.1021728515625 10546.693359375 3100.026611328125
  endloop
endfacet
facet normal -0.9714393019676208 0.2372881472110748 2.607472050775161e-11
  outer loop
    vertex 1090.2783203125 11082.630859375 3100.026611328125
    vertex 963.1021728515625 10546.693359375 3500.013427734375
    vertex 1090.2783203125 11082.630859375 3500.013427734375
  endloop
endfacet
facet normal -0.9533307552337646 0.3019278347492218 2.550823788305401e-11
  outer loop
    vertex 1090.2783203125 11082.630859375 3500.013427734375
    vertex 1546.246459960938 12564.6162109375 3100.026611328125
    vertex 1090.2783203125 11082.630859375 3100.026611328125
  endloop
endfacet
facet normal -0.9533307552337646 0.3019278347492218 2.550823788305401e-11
  outer loop
    vertex 1546.246459960938 12564.6162109375 3100.026611328125
    vertex 1090.2783203125 11082.630859375 3500.013427734375
    vertex 1546.246459960938 12564.6162109375 3500.013427734375
  endloop
endfacet
facet normal -0.9533307552337646 0.3019278347492218 2.550823788305401e-11
  outer loop
    vertex 1546.246459960938 12564.6162109375 3500.013427734375
    vertex 1683.96630859375 13012.2333984375 3100.026611328125
    vertex 1546.246459960938 12564.6162109375 3100.026611328125
  endloop
endfacet
facet normal -0.9533307552337646 0.3019278347492218 2.550823788305401e-11
  outer loop
    vertex 1683.96630859375 13012.2333984375 3100.026611328125
    vertex 1546.246459960938 12564.6162109375 3500.013427734375
    vertex 1683.96630859375 13012.2333984375 3500.013427734375
  endloop
endfacet
facet normal -0.9309533834457397 0.3651380836963654 2.482762433142494e-11
  outer loop
    vertex 1683.96630859375 13012.2333984375 3500.013427734375
    vertex 2402.37939453125 14897.6787109375 3100.026611328125
    vertex 1683.96630859375 13012.2333984375 3100.026611328125
  endloop
endfacet
facet normal -0.9309533834457397 0.3651380836963654 2.482762433142494e-11
  outer loop
    vertex 2402.37939453125 14897.6787109375 3100.026611328125
    vertex 1683.96630859375 13012.2333984375 3500.013427734375
    vertex 2402.37939453125 14897.6787109375 3500.013427734375
  endloop
endfacet
facet normal -0.9309533834457397 0.3651380836963654 2.482762433142494e-11
  outer loop
    vertex 2402.37939453125 14897.6787109375 3500.013427734375
    vertex 2447.310302734375 15015.59765625 3100.026611328125
    vertex 2402.37939453125 14897.6787109375 3100.026611328125
  endloop
endfacet
facet normal -0.9309533834457397 0.3651380836963654 2.482762433142494e-11
  outer loop
    vertex 2447.310302734375 15015.59765625 3100.026611328125
    vertex 2402.37939453125 14897.6787109375 3500.013427734375
    vertex 2447.310302734375 15015.59765625 3500.013427734375
  endloop
endfacet
facet normal -7.738273563595577e-12 1 -1.164519327322144e-12
  outer loop
    vertex 2447.310302734375 15015.59765625 3500.013427734375
    vertex 2506.526611328125 15015.59765625 3100.026611328125
    vertex 2447.310302734375 15015.59765625 3100.026611328125
  endloop
endfacet
facet normal -7.738273563595577e-12 1 -1.164519327322144e-12
  outer loop
    vertex 2506.526611328125 15015.59765625 3100.026611328125
    vertex 2447.310302734375 15015.59765625 3500.013427734375
    vertex 2506.526611328125 15015.59765625 3500.013427734375
  endloop
endfacet
facet normal 0 1 -1.164519327322144e-12
  outer loop
    vertex 2506.526611328125 15015.59765625 3500.013427734375
    vertex 3356.526611328125 15015.59765625 3100.026611328125
    vertex 2506.526611328125 15015.59765625 3100.026611328125
  endloop
endfacet
facet normal 0 1 -1.164519327322144e-12
  outer loop
    vertex 3356.526611328125 15015.59765625 3100.026611328125
    vertex 2506.526611328125 15015.59765625 3500.013427734375
    vertex 3356.526611328125 15015.59765625 3500.013427734375
  endloop
endfacet
facet normal 0 1 -1.164519327322144e-12
  outer loop
    vertex 3356.526611328125 15015.59765625 3500.013427734375
    vertex 8699.98828125 15015.59765625 3100.026611328125
    vertex 3356.526611328125 15015.59765625 3100.026611328125
  endloop
endfacet
facet normal 0 1 -1.164519327322144e-12
  outer loop
    vertex 8699.98828125 15015.59765625 3100.026611328125
    vertex 3356.526611328125 15015.59765625 3500.013427734375
    vertex 8699.98828125 15015.59765625 3500.013427734375
  endloop
endfacet
facet normal 7.186556037763747e-13 1 -1.164519327322144e-12
  outer loop
    vertex 8699.98828125 15015.59765625 3100.026611328125
    vertex 8756.5263671875 15015.59765625 3500.026611328125
    vertex 8756.5263671875 15015.59765625 3100.026611328125
  endloop
endfacet
facet normal 7.186556037763747e-13 1 -1.164519327322144e-12
  outer loop
    vertex 8756.5263671875 15015.59765625 3500.026611328125
    vertex 8699.98828125 15015.59765625 3100.026611328125
    vertex 8699.98828125 15015.59765625 3500.013427734375
  endloop
endfacet
facet normal -8.603088944361681e-13 1 -1.164519327322144e-12
  outer loop
    vertex 8699.98828125 14280.7255859375 3100.026611328125
    vertex 10985.712890625 14280.7255859375 3500.013427734375
    vertex 10985.712890625 14280.7255859375 3100.026611328125
  endloop
endfacet
facet normal -8.603088944361681e-13 1 -1.164519327322144e-12
  outer loop
    vertex 10985.712890625 14280.7255859375 3500.013427734375
    vertex 8699.98828125 14280.7255859375 3100.026611328125
    vertex 8699.98828125 14280.7255859375 3500.013427734375
  endloop
endfacet
facet normal 1 -1.009823599523382e-13 -2.712577731878163e-11
  outer loop
    vertex 10985.712890625 14280.7255859375 3100.026611328125
    vertex 10985.712890625 12022.599609375 3500.013427734375
    vertex 10985.712890625 12022.599609375 3100.026611328125
  endloop
endfacet
facet normal 1 -1.009823599523382e-13 -2.712577731878163e-11
  outer loop
    vertex 10985.712890625 12022.599609375 3500.013427734375
    vertex 10985.712890625 14280.7255859375 3100.026611328125
    vertex 10985.712890625 14280.7255859375 3500.013427734375
  endloop
endfacet
facet normal 1 -2.920318284069245e-12 -2.712577731878163e-11
  outer loop
    vertex 10985.712890625 12022.599609375 3100.026611328125
    vertex 10985.712890625 9181.787109375 3500.013427734375
    vertex 10985.712890625 9181.787109375 3100.026611328125
  endloop
endfacet
facet normal 1 -2.920318284069245e-12 -2.712577731878163e-11
  outer loop
    vertex 10985.712890625 9181.787109375 3500.013427734375
    vertex 10985.712890625 12022.599609375 3100.026611328125
    vertex 10985.712890625 12022.599609375 3500.013427734375
  endloop
endfacet
facet normal 1 1.556437869902618e-23 -2.712577731878163e-11
  outer loop
    vertex 10985.712890625 9181.787109375 3100.026611328125
    vertex 10985.712890625 7761.38134765625 3500.013427734375
    vertex 10985.712890625 7761.38134765625 3100.026611328125
  endloop
endfacet
facet normal 1 1.556437869902618e-23 -2.712577731878163e-11
  outer loop
    vertex 10985.712890625 7761.38134765625 3500.013427734375
    vertex 10985.712890625 9181.787109375 3100.026611328125
    vertex 10985.712890625 9181.787109375 3500.013427734375
  endloop
endfacet
facet normal 1 -8.45802703049181e-13 -2.712577731878163e-11
  outer loop
    vertex 10985.712890625 7761.38134765625 3100.026611328125
    vertex 10985.712890625 5157.25537109375 3500.013427734375
    vertex 10985.712890625 5157.25537109375 3100.026611328125
  endloop
endfacet
facet normal 1 -8.45802703049181e-13 -2.712577731878163e-11
  outer loop
    vertex 10985.712890625 5157.25537109375 3500.013427734375
    vertex 10985.712890625 7761.38134765625 3100.026611328125
    vertex 10985.712890625 7761.38134765625 3500.013427734375
  endloop
endfacet
facet normal 1 1.368008787847041e-12 -2.712577731878163e-11
  outer loop
    vertex 10985.712890625 5157.25537109375 3100.026611328125
    vertex 10985.712890625 2553.129638671875 3500.013427734375
    vertex 10985.712890625 2553.129638671875 3100.026611328125
  endloop
endfacet
facet normal 1 1.368008787847041e-12 -2.712577731878163e-11
  outer loop
    vertex 10985.712890625 2553.129638671875 3500.013427734375
    vertex 10985.712890625 5157.25537109375 3100.026611328125
    vertex 10985.712890625 5157.25537109375 3500.013427734375
  endloop
endfacet
facet normal -8.038130379274433e-23 -1 1.164519327322144e-12
  outer loop
    vertex 10985.712890625 2553.129638671875 3100.026611328125
    vertex 10975.4453125 2553.129638671875 3500.013427734375
    vertex 10975.4453125 2553.129638671875 3100.026611328125
  endloop
endfacet
facet normal -8.038130379274433e-23 -1 1.164519327322144e-12
  outer loop
    vertex 10975.4453125 2553.129638671875 3500.013427734375
    vertex 10985.712890625 2553.129638671875 3100.026611328125
    vertex 10985.712890625 2553.129638671875 3500.013427734375
  endloop
endfacet
facet normal 0.5321916937828064 -0.8466238975524902 -1.345020449183831e-11
  outer loop
    vertex 10975.4453125 2553.129638671875 3100.026611328125
    vertex 10884.78515625 2494.466796875 3500.013427734375
    vertex 10884.78515625 2494.466796875 3100.026611328125
  endloop
endfacet
facet normal 0.5321916937828064 -0.8466238975524902 -1.345020449183831e-11
  outer loop
    vertex 10884.78515625 2494.466796875 3500.013427734375
    vertex 10975.4453125 2553.129638671875 3100.026611328125
    vertex 10975.4453125 2553.129638671875 3500.013427734375
  endloop
endfacet
facet normal 0.5321916937828064 -0.8466238975524902 -1.345020449183831e-11
  outer loop
    vertex 10884.78515625 2494.466796875 3500.013427734375
    vertex 10104.90234375 1989.832885742188 3100.026611328125
    vertex 10884.78515625 2494.466796875 3100.026611328125
  endloop
endfacet
facet normal 0.5321916937828064 -0.8466238975524902 -1.345020449183831e-11
  outer loop
    vertex 10104.90234375 1989.832885742188 3100.026611328125
    vertex 10884.78515625 2494.466796875 3500.013427734375
    vertex 10104.90234375 1989.832885742188 3500.013427734375
  endloop
endfacet
facet normal 0.475736141204834 -0.8795880675315857 -1.188041505451043e-11
  outer loop
    vertex 10104.90234375 1989.832885742188 3500.013427734375
    vertex 9293.98046875 1538.35693359375 3100.026611328125
    vertex 10104.90234375 1989.832885742188 3100.026611328125
  endloop
endfacet
facet normal 0.475736141204834 -0.8795880675315857 -1.188041505451043e-11
  outer loop
    vertex 9293.98046875 1538.35693359375 3100.026611328125
    vertex 10104.90234375 1989.832885742188 3500.013427734375
    vertex 9293.98046875 1538.35693359375 3500.013427734375
  endloop
endfacet
facet normal 0.4173418879508972 -0.908749520778656 -1.026246709140421e-11
  outer loop
    vertex 9293.98046875 1538.35693359375 3500.013427734375
    vertex 8455.5361328125 1141.995849609375 3100.026611328125
    vertex 9293.98046875 1538.35693359375 3100.026611328125
  endloop
endfacet
facet normal 0.4173418879508972 -0.908749520778656 -1.026246709140421e-11
  outer loop
    vertex 8455.5361328125 1141.995849609375 3100.026611328125
    vertex 9293.98046875 1538.35693359375 3500.013427734375
    vertex 8455.5361328125 1141.995849609375 3500.013427734375
  endloop
endfacet
facet normal 0.3572576344013214 -0.9340058565139771 -8.603223168590635e-12
  outer loop
    vertex 8455.5361328125 1141.995849609375 3500.013427734375
    vertex 7856.9189453125 906.3011474609375 3100.026611328125
    vertex 8455.5361328125 1141.995849609375 3100.026611328125
  endloop
endfacet
facet normal 0.3572576344013214 -0.9340058565139771 -8.603223168590635e-12
  outer loop
    vertex 7856.9189453125 906.3011474609375 3100.026611328125
    vertex 8455.5361328125 1141.995849609375 3500.013427734375
    vertex 7856.9189453125 906.3011474609375 3500.013427734375
  endloop
endfacet
facet normal 0.3572576344013214 -0.9340058565139771 -8.603223168590635e-12
  outer loop
    vertex 7856.9189453125 906.3011474609375 3100.026611328125
    vertex 7593.20263671875 802.4675903320312 3500.013427734375
    vertex 7593.20263671875 802.4675903320312 3100.026611328125
  endloop
endfacet
facet normal 0.3572576344013214 -0.9340058565139771 -8.603223168590635e-12
  outer loop
    vertex 7593.20263671875 802.4675903320312 3500.013427734375
    vertex 7856.9189453125 906.3011474609375 3100.026611328125
    vertex 7856.9189453125 906.3011474609375 3500.013427734375
  endloop
endfacet
facet normal 0.2957347631454468 -0.9552701115608215 -6.909604832738836e-12
  outer loop
    vertex 7593.20263671875 802.4675903320312 3500.013427734375
    vertex 6710.71826171875 521.2437133789062 3100.026611328125
    vertex 7593.20263671875 802.4675903320312 3100.026611328125
  endloop
endfacet
facet normal 0.2957347631454468 -0.9552701115608215 -6.909604832738836e-12
  outer loop
    vertex 6710.71826171875 521.2437133789062 3100.026611328125
    vertex 7593.20263671875 802.4675903320312 3500.013427734375
    vertex 6710.71826171875 521.2437133789062 3500.013427734375
  endloop
endfacet
facet normal 2.712577731878163e-11 1.198714196480599e-12 1
  outer loop
    vertex 7.280813217163086 3096.311767578125 3500.013427734375
    vertex 8.103206634521484 3137.28564453125 3500.013427734375
    vertex 6.595019817352295 3096.298095703125 3500.013427734375
  endloop
endfacet
facet normal 2.712577731878163e-11 1.198714196480599e-12 1
  outer loop
    vertex 8.103206634521484 3137.28564453125 3500.013427734375
    vertex 7.280813217163086 3096.311767578125 3500.013427734375
    vertex 8.096561431884766 3054.215087890625 3500.013427734375
  endloop
endfacet
facet normal 2.712577731878163e-11 1.198714196480599e-12 1
  outer loop
    vertex 13.05089664459229 2892.038818359375 3500.013427734375
    vertex 8.096561431884766 3054.215087890625 3500.013427734375
    vertex 7.823384761810303 3054.209716796875 3500.013427734375
  endloop
endfacet
facet normal 2.712577731878163e-11 1.198714196480599e-12 1
  outer loop
    vertex 8.096561431884766 3054.215087890625 3500.013427734375
    vertex 13.05089664459229 2892.038818359375 3500.013427734375
    vertex 8.103206634521484 3137.28564453125 3500.013427734375
  endloop
endfacet
facet normal 2.712577731878163e-11 1.198714196480599e-12 1
  outer loop
    vertex 8.103206634521484 3137.28564453125 3500.013427734375
    vertex 13.05089664459229 2892.038818359375 3500.013427734375
    vertex 76.95321655273438 5008.40380859375 3500.013427734375
  endloop
endfacet
facet normal 2.712577731878163e-11 1.198714196480599e-12 1
  outer loop
    vertex 76.95321655273438 5008.40380859375 3500.013427734375
    vertex 13.05089664459229 2892.038818359375 3500.013427734375
    vertex 32.60947799682617 2690.5048828125 3500.013427734375
  endloop
endfacet
facet normal 2.712577731878163e-11 1.198714196480599e-12 1
  outer loop
    vertex 76.95321655273438 5008.40380859375 3500.013427734375
    vertex 32.60947799682617 2690.5048828125 3500.013427734375
    vertex 65.11859130859375 2490.700439453125 3500.013427734375
  endloop
endfacet
facet normal 2.712577731878163e-11 1.198714196480599e-12 1
  outer loop
    vertex 76.95321655273438 5008.40380859375 3500.013427734375
    vertex 65.11859130859375 2490.700439453125 3500.013427734375
    vertex 110.4390106201172 2293.481201171875 3500.013427734375
  endloop
endfacet
facet normal 2.712577731878163e-11 1.198714196480599e-12 1
  outer loop
    vertex 76.95321655273438 5008.40380859375 3500.013427734375
    vertex 110.4390106201172 2293.481201171875 3500.013427734375
    vertex 80.85573577880859 5114.46142578125 3500.013427734375
  endloop
endfacet
facet normal 2.712577731878163e-11 1.198714196480599e-12 1
  outer loop
    vertex 80.85573577880859 5114.46142578125 3500.013427734375
    vertex 110.4390106201172 2293.481201171875 3500.013427734375
    vertex 284.5543212890625 7101.60498046875 3500.013427734375
  endloop
endfacet
facet normal 2.712577731878163e-11 1.198714196480599e-12 1
  outer loop
    vertex 284.5543212890625 7101.60498046875 3500.013427734375
    vertex 110.4390106201172 2293.481201171875 3500.013427734375
    vertex 148.8173065185547 2165.11376953125 3500.013427734375
  endloop
endfacet
facet normal 2.712577731878163e-11 1.198714196480599e-12 1
  outer loop
    vertex 284.5543212890625 7101.60498046875 3500.013427734375
    vertex 148.8173065185547 2165.11376953125 3500.013427734375
    vertex 168.3766326904297 2099.69189453125 3500.013427734375
  endloop
endfacet
facet normal 2.712577731878163e-11 1.198714196480599e-12 1
  outer loop
    vertex 284.5543212890625 7101.60498046875 3500.013427734375
    vertex 168.3766326904297 2099.69189453125 3500.013427734375
    vertex 238.683349609375 1910.162109375 3500.013427734375
  endloop
endfacet
facet normal 2.712577731878163e-11 1.198714196480599e-12 1
  outer loop
    vertex 284.5543212890625 7101.60498046875 3500.013427734375
    vertex 238.683349609375 1910.162109375 3500.013427734375
    vertex 321.0580444335938 1725.703979492188 3500.013427734375
  endloop
endfacet
facet normal 2.712577731878163e-11 1.198714196480599e-12 1
  outer loop
    vertex 284.5543212890625 7101.60498046875 3500.013427734375
    vertex 321.0580444335938 1725.703979492188 3500.013427734375
    vertex 286.957275390625 7125.046875 3500.013427734375
  endloop
endfacet
facet normal 2.712577731878163e-11 1.198714196480599e-12 1
  outer loop
    vertex 286.957275390625 7125.046875 3500.013427734375
    vertex 321.0580444335938 1725.703979492188 3500.013427734375
    vertex 623.9252319335938 9117.3564453125 3500.013427734375
  endloop
endfacet
facet normal 2.712577731878163e-11 1.198714196480599e-12 1
  outer loop
    vertex 623.9252319335938 9117.3564453125 3500.013427734375
    vertex 321.0580444335938 1725.703979492188 3500.013427734375
    vertex 415.1479187011719 1547.107177734375 3500.013427734375
  endloop
endfacet
facet normal 2.712577731878163e-11 1.198714196480599e-12 1
  outer loop
    vertex 623.9252319335938 9117.3564453125 3500.013427734375
    vertex 415.1479187011719 1547.107177734375 3500.013427734375
    vertex 520.550048828125 1375.13671875 3500.013427734375
  endloop
endfacet
facet normal 2.712577731878163e-11 1.198714196480599e-12 1
  outer loop
    vertex 623.9252319335938 9117.3564453125 3500.013427734375
    vertex 520.550048828125 1375.13671875 3500.013427734375
    vertex 584.2819213867188 1284.903564453125 3500.013427734375
  endloop
endfacet
facet normal 2.712577731878163e-11 1.198714196480599e-12 1
  outer loop
    vertex 623.9252319335938 9117.3564453125 3500.013427734375
    vertex 584.2819213867188 1284.903564453125 3500.013427734375
    vertex 636.81298828125 1210.529052734375 3500.013427734375
  endloop
endfacet
facet normal 2.712577731878163e-11 1.198714196480599e-12 1
  outer loop
    vertex 623.9252319335938 9117.3564453125 3500.013427734375
    vertex 636.81298828125 1210.529052734375 3500.013427734375
    vertex 963.1021728515625 10546.693359375 3500.013427734375
  endloop
endfacet
facet normal 2.712577731878163e-11 1.198714196480599e-12 1
  outer loop
    vertex 963.1021728515625 10546.693359375 3500.013427734375
    vertex 636.81298828125 1210.529052734375 3500.013427734375
    vertex 763.4388427734375 1053.989135742188 3500.013427734375
  endloop
endfacet
facet normal 2.712577731878163e-11 1.198714196480599e-12 1
  outer loop
    vertex 963.1021728515625 10546.693359375 3500.013427734375
    vertex 763.4388427734375 1053.989135742188 3500.013427734375
    vertex 899.88525390625 906.1873779296875 3500.013427734375
  endloop
endfacet
facet normal 2.712577731878163e-11 1.198714196480599e-12 1
  outer loop
    vertex 963.1021728515625 10546.693359375 3500.013427734375
    vertex 899.88525390625 906.1873779296875 3500.013427734375
    vertex 1045.567993164062 767.7568359375 3500.013427734375
  endloop
endfacet
facet normal 2.712577731878163e-11 1.198714196480599e-12 1
  outer loop
    vertex 963.1021728515625 10546.693359375 3500.013427734375
    vertex 1045.567993164062 767.7568359375 3500.013427734375
    vertex 1090.2783203125 11082.630859375 3500.013427734375
  endloop
endfacet
facet normal 2.712577731878163e-11 1.198714196480599e-12 1
  outer loop
    vertex 1090.2783203125 11082.630859375 3500.013427734375
    vertex 1045.567993164062 767.7568359375 3500.013427734375
    vertex 1199.863037109375 639.290283203125 3500.013427734375
  endloop
endfacet
facet normal 2.712577731878163e-11 1.198714196480599e-12 1
  outer loop
    vertex 1090.2783203125 11082.630859375 3500.013427734375
    vertex 1199.863037109375 639.290283203125 3500.013427734375
    vertex 1546.246459960938 12564.6162109375 3500.013427734375
  endloop
endfacet
facet normal 2.712577731878163e-11 1.198714196480599e-12 1
  outer loop
    vertex 1546.246459960938 12564.6162109375 3500.013427734375
    vertex 1199.863037109375 639.290283203125 3500.013427734375
    vertex 1271.090209960938 587.508544921875 3500.013427734375
  endloop
endfacet
facet normal 2.712577731878163e-11 1.198714196480599e-12 1
  outer loop
    vertex 1546.246459960938 12564.6162109375 3500.013427734375
    vertex 1271.090209960938 587.508544921875 3500.013427734375
    vertex 1362.109619140625 521.3379516601562 3500.013427734375
  endloop
endfacet
facet normal 2.712577731878163e-11 1.198714196480599e-12 1
  outer loop
    vertex 1546.246459960938 12564.6162109375 3500.013427734375
    vertex 1362.109619140625 521.3379516601562 3500.013427734375
    vertex 1531.61279296875 414.405029296875 3500.013427734375
  endloop
endfacet
facet normal 2.712577731878163e-11 1.198714196480599e-12 1
  outer loop
    vertex 1546.246459960938 12564.6162109375 3500.013427734375
    vertex 1531.61279296875 414.405029296875 3500.013427734375
    vertex 1707.646850585938 318.9494018554688 3500.013427734375
  endloop
endfacet
facet normal 2.712577731878163e-11 1.198714196480599e-12 1
  outer loop
    vertex 1546.246459960938 12564.6162109375 3500.013427734375
    vertex 1707.646850585938 318.9494018554688 3500.013427734375
    vertex 1683.96630859375 13012.2333984375 3500.013427734375
  endloop
endfacet
facet normal 2.712577731878163e-11 1.198714196480599e-12 1
  outer loop
    vertex 1683.96630859375 13012.2333984375 3500.013427734375
    vertex 1707.646850585938 318.9494018554688 3500.013427734375
    vertex 2402.37939453125 14897.6787109375 3500.013427734375
  endloop
endfacet
facet normal 2.712577731878163e-11 1.198714196480599e-12 1
  outer loop
    vertex 2402.37939453125 14897.6787109375 3500.013427734375
    vertex 1707.646850585938 318.9494018554688 3500.013427734375
    vertex 1889.457641601562 235.3799285888672 3500.013427734375
  endloop
endfacet
facet normal 2.712577731878163e-11 1.198714196480599e-12 1
  outer loop
    vertex 2402.37939453125 14897.6787109375 3500.013427734375
    vertex 1889.457641601562 235.3799285888672 3500.013427734375
    vertex 2076.266845703125 164.0544891357422 3500.013427734375
  endloop
endfacet
facet normal 2.712577731878163e-11 1.198714196480599e-12 1
  outer loop
    vertex 2402.37939453125 14897.6787109375 3500.013427734375
    vertex 2076.266845703125 164.0544891357422 3500.013427734375
    vertex 2138.5302734375 144.89501953125 3500.013427734375
  endloop
endfacet
facet normal 2.712577731878163e-11 1.198714196480599e-12 1
  outer loop
    vertex 2402.37939453125 14897.6787109375 3500.013427734375
    vertex 2138.5302734375 144.89501953125 3500.013427734375
    vertex 2216.117919921875 121.0843505859375 3500.013427734375
  endloop
endfacet
facet normal 2.712577731878163e-11 1.198714196480599e-12 1
  outer loop
    vertex 2402.37939453125 14897.6787109375 3500.013427734375
    vertex 2216.117919921875 121.0843505859375 3500.013427734375
    vertex 2294.306396484375 99.39054870605469 3500.013427734375
  endloop
endfacet
facet normal 2.712577731878163e-11 1.198714196480599e-12 1
  outer loop
    vertex 2402.37939453125 14897.6787109375 3500.013427734375
    vertex 2294.306396484375 99.39054870605469 3500.013427734375
    vertex 2373.03955078125 79.82917022705078 3500.013427734375
  endloop
endfacet
facet normal 2.712577731878163e-11 1.198714196480599e-12 1
  outer loop
    vertex 2402.37939453125 14897.6787109375 3500.013427734375
    vertex 2373.03955078125 79.82917022705078 3500.013427734375
    vertex 2452.2607421875 62.41425323486328 3500.013427734375
  endloop
endfacet
facet normal 2.712577731878163e-11 1.198714196480599e-12 1
  outer loop
    vertex 2402.37939453125 14897.6787109375 3500.013427734375
    vertex 2452.2607421875 62.41425323486328 3500.013427734375
    vertex 2447.310302734375 15015.59765625 3500.013427734375
  endloop
endfacet
facet normal 2.712577731878163e-11 1.198714196480599e-12 1
  outer loop
    vertex 2447.310302734375 15015.59765625 3500.013427734375
    vertex 2452.2607421875 62.41425323486328 3500.013427734375
    vertex 2506.526611328125 15015.59765625 3500.013427734375
  endloop
endfacet
facet normal 2.712577731878163e-11 1.198714196480599e-12 1
  outer loop
    vertex 2506.526611328125 15015.59765625 3500.013427734375
    vertex 2452.2607421875 62.41425323486328 3500.013427734375
    vertex 2531.9130859375 47.15829086303711 3500.013427734375
  endloop
endfacet
facet normal 2.712577731878163e-11 1.198714196480599e-12 1
  outer loop
    vertex 2506.526611328125 15015.59765625 3500.013427734375
    vertex 2531.9130859375 47.15829086303711 3500.013427734375
    vertex 3356.526611328125 15015.59765625 3500.013427734375
  endloop
endfacet
facet normal 2.712577731878163e-11 1.198714196480599e-12 1
  outer loop
    vertex 3356.526611328125 15015.59765625 3500.013427734375
    vertex 2531.9130859375 47.15829086303711 3500.013427734375
    vertex 2611.939697265625 34.07222366333008 3500.013427734375
  endloop
endfacet
facet normal 2.712577731878163e-11 1.198714196480599e-12 1
  outer loop
    vertex 3356.526611328125 15015.59765625 3500.013427734375
    vertex 2611.939697265625 34.07222366333008 3500.013427734375
    vertex 2692.283203125 23.16544342041016 3500.013427734375
  endloop
endfacet
facet normal 2.712577731878163e-11 1.198714196480599e-12 1
  outer loop
    vertex 3356.526611328125 15015.59765625 3500.013427734375
    vertex 2692.283203125 23.16544342041016 3500.013427734375
    vertex 2772.8857421875 14.44577598571777 3500.013427734375
  endloop
endfacet
facet normal 2.712577731878163e-11 1.198714196480599e-12 1
  outer loop
    vertex 3356.526611328125 15015.59765625 3500.013427734375
    vertex 2772.8857421875 14.44577598571777 3500.013427734375
    vertex 2853.689453125 7.919477462768555 3500.013427734375
  endloop
endfacet
facet normal 2.712577731878163e-11 1.198714196480599e-12 1
  outer loop
    vertex 3356.526611328125 15015.59765625 3500.013427734375
    vertex 2853.689453125 7.919477462768555 3500.013427734375
    vertex 2934.636474609375 3.591229200363159 3500.013427734375
  endloop
endfacet
facet normal 2.712577731878163e-11 1.198714196480599e-12 1
  outer loop
    vertex 3356.526611328125 15015.59765625 3500.013427734375
    vertex 2934.636474609375 3.591229200363159 3500.013427734375
    vertex 3015.668701171875 1.464137434959412 3500.013427734375
  endloop
endfacet
facet normal 2.712577731878163e-11 1.198714196480599e-12 1
  outer loop
    vertex 3356.526611328125 15015.59765625 3500.013427734375
    vertex 3015.668701171875 1.464137434959412 3500.013427734375
    vertex 3096.728271484375 1.539727687835693 3500.013427734375
  endloop
endfacet
facet normal 2.712577731878163e-11 1.198714196480599e-12 1
  outer loop
    vertex 3356.526611328125 15015.59765625 3500.013427734375
    vertex 3096.728271484375 1.539727687835693 3500.013427734375
    vertex 3980.944580078125 38.29369354248047 3500.013427734375
  endloop
endfacet
facet normal 2.712577731878163e-11 1.198714196480599e-12 1
  outer loop
    vertex 3356.526611328125 15015.59765625 3500.013427734375
    vertex 3980.944580078125 38.29369354248047 3500.013427734375
    vertex 8699.98828125 15015.59765625 3500.013427734375
  endloop
endfacet
facet normal 2.712577731878163e-11 1.198714196480599e-12 1
  outer loop
    vertex 8699.98828125 15015.59765625 3500.013427734375
    vertex 3980.944580078125 38.29369354248047 3500.013427734375
    vertex 4900.66650390625 138.3269348144531 3500.013427734375
  endloop
endfacet
facet normal 2.712577731878163e-11 1.198714196480599e-12 1
  outer loop
    vertex 8699.98828125 15015.59765625 3500.013427734375
    vertex 4900.66650390625 138.3269348144531 3500.013427734375
    vertex 5811.90771484375 299.543212890625 3500.013427734375
  endloop
endfacet
facet normal 2.712577731878163e-11 1.198714196480599e-12 1
  outer loop
    vertex 8699.98828125 15015.59765625 3500.013427734375
    vertex 5811.90771484375 299.543212890625 3500.013427734375
    vertex 5881.8505859375 316.7953186035156 3500.013427734375
  endloop
endfacet
facet normal 2.712577731878163e-11 1.198714196480599e-12 1
  outer loop
    vertex 8699.98828125 15015.59765625 3500.013427734375
    vertex 5881.8505859375 316.7953186035156 3500.013427734375
    vertex 6710.71826171875 521.2437133789062 3500.013427734375
  endloop
endfacet
facet normal 2.712577731878163e-11 1.198714196480599e-12 1
  outer loop
    vertex 8699.98828125 15015.59765625 3500.013427734375
    vertex 6710.71826171875 521.2437133789062 3500.013427734375
    vertex 7593.20263671875 802.4675903320312 3500.013427734375
  endloop
endfacet
facet normal 2.712577731878163e-11 1.198714196480599e-12 1
  outer loop
    vertex 8699.98828125 15015.59765625 3500.013427734375
    vertex 7593.20263671875 802.4675903320312 3500.013427734375
    vertex 7856.9189453125 906.3011474609375 3500.013427734375
  endloop
endfacet
facet normal 2.712577731878163e-11 1.198714196480599e-12 1
  outer loop
    vertex 8699.98828125 15015.59765625 3500.013427734375
    vertex 7856.9189453125 906.3011474609375 3500.013427734375
    vertex 8455.5361328125 1141.995849609375 3500.013427734375
  endloop
endfacet
facet normal 2.712577731878163e-11 1.198714196480599e-12 1
  outer loop
    vertex 8699.98828125 15015.59765625 3500.013427734375
    vertex 8455.5361328125 1141.995849609375 3500.013427734375
    vertex 8699.98828125 14280.7255859375 3500.013427734375
  endloop
endfacet
facet normal 2.712577731878163e-11 1.198714196480599e-12 1
  outer loop
    vertex 8699.98828125 14280.7255859375 3500.013427734375
    vertex 8455.5361328125 1141.995849609375 3500.013427734375
    vertex 9293.98046875 1538.35693359375 3500.013427734375
  endloop
endfacet
facet normal 2.712577731878163e-11 1.198714196480599e-12 1
  outer loop
    vertex 8699.98828125 14280.7255859375 3500.013427734375
    vertex 9293.98046875 1538.35693359375 3500.013427734375
    vertex 10985.712890625 14280.7255859375 3500.013427734375
  endloop
endfacet
facet normal 2.712577731878163e-11 1.198714196480599e-12 1
  outer loop
    vertex 10985.712890625 14280.7255859375 3500.013427734375
    vertex 9293.98046875 1538.35693359375 3500.013427734375
    vertex 10104.90234375 1989.832885742188 3500.013427734375
  endloop
endfacet
facet normal 2.712577731878163e-11 1.198714196480599e-12 1
  outer loop
    vertex 10985.712890625 14280.7255859375 3500.013427734375
    vertex 10104.90234375 1989.832885742188 3500.013427734375
    vertex 10884.78515625 2494.466796875 3500.013427734375
  endloop
endfacet
facet normal 2.712577731878163e-11 1.198714196480599e-12 1
  outer loop
    vertex 10985.712890625 14280.7255859375 3500.013427734375
    vertex 10884.78515625 2494.466796875 3500.013427734375
    vertex 10975.4453125 2553.129638671875 3500.013427734375
  endloop
endfacet
facet normal 2.712577731878163e-11 1.198714196480599e-12 1
  outer loop
    vertex 10985.712890625 14280.7255859375 3500.013427734375
    vertex 10975.4453125 2553.129638671875 3500.013427734375
    vertex 10985.712890625 5157.25537109375 3500.013427734375
  endloop
endfacet
facet normal 2.712577731878163e-11 1.198714196480599e-12 1
  outer loop
    vertex 10985.712890625 5157.25537109375 3500.013427734375
    vertex 10975.4453125 2553.129638671875 3500.013427734375
    vertex 10985.712890625 2553.129638671875 3500.013427734375
  endloop
endfacet
facet normal 2.712577731878163e-11 1.198714196480599e-12 1
  outer loop
    vertex 10985.712890625 14280.7255859375 3500.013427734375
    vertex 10985.712890625 9181.787109375 3500.013427734375
    vertex 10985.712890625 12022.599609375 3500.013427734375
  endloop
endfacet
facet normal 2.712577731878163e-11 1.198714196480599e-12 1
  outer loop
    vertex 10985.712890625 9181.787109375 3500.013427734375
    vertex 10985.712890625 14280.7255859375 3500.013427734375
    vertex 10985.712890625 5157.25537109375 3500.013427734375
  endloop
endfacet
facet normal 2.712577731878163e-11 1.198714196480599e-12 1
  outer loop
    vertex 10985.712890625 9181.787109375 3500.013427734375
    vertex 10985.712890625 5157.25537109375 3500.013427734375
    vertex 10985.712890625 7761.38134765625 3500.013427734375
  endloop
endfacet
facet normal 1 3.662168970310596e-15 -2.712577731878163e-11
  outer loop
    vertex 8699.98828125 15015.59765625 3100.026611328125
    vertex 8699.98828125 14280.7255859375 3500.013427734375
    vertex 8699.98828125 14280.7255859375 3100.026611328125
  endloop
endfacet
facet normal 1 3.662168970310596e-15 -2.712577731878163e-11
  outer loop
    vertex 8699.98828125 14280.7255859375 3500.013427734375
    vertex 8699.98828125 15015.59765625 3100.026611328125
    vertex 8699.98828125 15015.59765625 3500.013427734375
  endloop
endfacet
endsolid com.sketchup.SketchUp.2019
