solid com.sketchup.SketchUp.2019
facet normal -2.712577731878163e-11 -1.198714196480599e-12 -1
  outer loop
    vertex 1.508188009262085 3152.41357421875 3999.973388671875
    vertex 0.6857943534851074 3111.439697265625 3999.973388671875
    vertex 9.523685093881795e-07 3111.426025390625 3999.973388671875
  endloop
endfacet
facet normal -2.712577731878163e-11 -1.198714196480599e-12 -1
  outer loop
    vertex 0.6857943534851074 3111.439697265625 3999.973388671875
    vertex 1.508188009262085 3152.41357421875 3999.973388671875
    vertex 1.501542448997498 3069.3427734375 3999.973388671875
  endloop
endfacet
facet normal -2.712577731878163e-11 -1.198714196480599e-12 -1
  outer loop
    vertex 1.501542448997498 3069.3427734375 3999.973388671875
    vertex 6.455878257751465 2907.16650390625 3999.973388671875
    vertex 1.228366017341614 3069.33740234375 3999.973388671875
  endloop
endfacet
facet normal -2.712577731878163e-11 -1.198714196480599e-12 -1
  outer loop
    vertex 6.455878257751465 2907.16650390625 3999.973388671875
    vertex 1.501542448997498 3069.3427734375 3999.973388671875
    vertex 1.508188009262085 3152.41357421875 3999.973388671875
  endloop
endfacet
facet normal -2.712577731878163e-11 -1.198714196480599e-12 -1
  outer loop
    vertex 6.455878257751465 2907.16650390625 3999.973388671875
    vertex 1.508188009262085 3152.41357421875 3999.973388671875
    vertex 70.35819244384766 5023.53173828125 3999.973388671875
  endloop
endfacet
facet normal -2.712577731878163e-11 -1.198714196480599e-12 -1
  outer loop
    vertex 6.455878257751465 2907.16650390625 3999.973388671875
    vertex 70.35819244384766 5023.53173828125 3999.973388671875
    vertex 26.01446151733398 2705.632568359375 3999.973388671875
  endloop
endfacet
facet normal -2.712577731878163e-11 -1.198714196480599e-12 -1
  outer loop
    vertex 26.01446151733398 2705.632568359375 3999.973388671875
    vertex 70.35819244384766 5023.53173828125 3999.973388671875
    vertex 58.52357482910156 2505.828369140625 3999.973388671875
  endloop
endfacet
facet normal -2.712577731878163e-11 -1.198714196480599e-12 -1
  outer loop
    vertex 58.52357482910156 2505.828369140625 3999.973388671875
    vertex 70.35819244384766 5023.53173828125 3999.973388671875
    vertex 103.843994140625 2308.609130859375 3999.973388671875
  endloop
endfacet
facet normal -2.712577731878163e-11 -1.198714196480599e-12 -1
  outer loop
    vertex 103.843994140625 2308.609130859375 3999.973388671875
    vertex 70.35819244384766 5023.53173828125 3999.973388671875
    vertex 74.26071166992188 5129.58935546875 3999.973388671875
  endloop
endfacet
facet normal -2.712577731878163e-11 -1.198714196480599e-12 -1
  outer loop
    vertex 103.843994140625 2308.609130859375 3999.973388671875
    vertex 74.26071166992188 5129.58935546875 3999.973388671875
    vertex 277.9593200683594 7116.73291015625 3999.973388671875
  endloop
endfacet
facet normal -2.712577731878163e-11 -1.198714196480599e-12 -1
  outer loop
    vertex 103.843994140625 2308.609130859375 3999.973388671875
    vertex 277.9593200683594 7116.73291015625 3999.973388671875
    vertex 142.2222900390625 2180.241455078125 3999.973388671875
  endloop
endfacet
facet normal -2.712577731878163e-11 -1.198714196480599e-12 -1
  outer loop
    vertex 142.2222900390625 2180.241455078125 3999.973388671875
    vertex 277.9593200683594 7116.73291015625 3999.973388671875
    vertex 161.7816162109375 2114.819580078125 3999.973388671875
  endloop
endfacet
facet normal -2.712577731878163e-11 -1.198714196480599e-12 -1
  outer loop
    vertex 161.7816162109375 2114.819580078125 3999.973388671875
    vertex 277.9593200683594 7116.73291015625 3999.973388671875
    vertex 232.0883331298828 1925.289916992188 3999.973388671875
  endloop
endfacet
facet normal -2.712577731878163e-11 -1.198714196480599e-12 -1
  outer loop
    vertex 232.0883331298828 1925.289916992188 3999.973388671875
    vertex 277.9593200683594 7116.73291015625 3999.973388671875
    vertex 314.4630126953125 1740.831787109375 3999.973388671875
  endloop
endfacet
facet normal -2.712577731878163e-11 -1.198714196480599e-12 -1
  outer loop
    vertex 314.4630126953125 1740.831787109375 3999.973388671875
    vertex 277.9593200683594 7116.73291015625 3999.973388671875
    vertex 280.3622741699219 7140.17431640625 3999.973388671875
  endloop
endfacet
facet normal -2.712577731878163e-11 -1.198714196480599e-12 -1
  outer loop
    vertex 314.4630126953125 1740.831787109375 3999.973388671875
    vertex 280.3622741699219 7140.17431640625 3999.973388671875
    vertex 617.3302001953125 9132.484375 3999.973388671875
  endloop
endfacet
facet normal -2.712577731878163e-11 -1.198714196480599e-12 -1
  outer loop
    vertex 314.4630126953125 1740.831787109375 3999.973388671875
    vertex 617.3302001953125 9132.484375 3999.973388671875
    vertex 408.5528869628906 1562.234985351562 3999.973388671875
  endloop
endfacet
facet normal -2.712577731878163e-11 -1.198714196480599e-12 -1
  outer loop
    vertex 408.5528869628906 1562.234985351562 3999.973388671875
    vertex 617.3302001953125 9132.484375 3999.973388671875
    vertex 513.9550170898438 1390.264526367188 3999.973388671875
  endloop
endfacet
facet normal -2.712577731878163e-11 -1.198714196480599e-12 -1
  outer loop
    vertex 513.9550170898438 1390.264526367188 3999.973388671875
    vertex 617.3302001953125 9132.484375 3999.973388671875
    vertex 577.6869506835938 1300.031372070312 3999.973388671875
  endloop
endfacet
facet normal -2.712577731878163e-11 -1.198714196480599e-12 -1
  outer loop
    vertex 577.6869506835938 1300.031372070312 3999.973388671875
    vertex 617.3302001953125 9132.484375 3999.973388671875
    vertex 630.2179565429688 1225.656860351562 3999.973388671875
  endloop
endfacet
facet normal -2.712577731878163e-11 -1.198714196480599e-12 -1
  outer loop
    vertex 630.2179565429688 1225.656860351562 3999.973388671875
    vertex 617.3302001953125 9132.484375 3999.973388671875
    vertex 956.5071411132812 10561.8212890625 3999.973388671875
  endloop
endfacet
facet normal -2.712577731878163e-11 -1.198714196480599e-12 -1
  outer loop
    vertex 630.2179565429688 1225.656860351562 3999.973388671875
    vertex 956.5071411132812 10561.8212890625 3999.973388671875
    vertex 756.8438110351562 1069.116943359375 3999.973388671875
  endloop
endfacet
facet normal -2.712577731878163e-11 -1.198714196480599e-12 -1
  outer loop
    vertex 756.8438110351562 1069.116943359375 3999.973388671875
    vertex 956.5071411132812 10561.8212890625 3999.973388671875
    vertex 893.290283203125 921.315185546875 3999.973388671875
  endloop
endfacet
facet normal -2.712577731878163e-11 -1.198714196480599e-12 -1
  outer loop
    vertex 893.290283203125 921.315185546875 3999.973388671875
    vertex 956.5071411132812 10561.8212890625 3999.973388671875
    vertex 1038.972900390625 782.8846435546875 3999.973388671875
  endloop
endfacet
facet normal -2.712577731878163e-11 -1.198714196480599e-12 -1
  outer loop
    vertex 1038.972900390625 782.8846435546875 3999.973388671875
    vertex 956.5071411132812 10561.8212890625 3999.973388671875
    vertex 1083.683227539062 11097.7587890625 3999.973388671875
  endloop
endfacet
facet normal -2.712577731878163e-11 -1.198714196480599e-12 -1
  outer loop
    vertex 1038.972900390625 782.8846435546875 3999.973388671875
    vertex 1083.683227539062 11097.7587890625 3999.973388671875
    vertex 1193.267944335938 654.4180908203125 3999.973388671875
  endloop
endfacet
facet normal -2.712577731878163e-11 -1.198714196480599e-12 -1
  outer loop
    vertex 1193.267944335938 654.4180908203125 3999.973388671875
    vertex 1083.683227539062 11097.7587890625 3999.973388671875
    vertex 1539.6513671875 12579.744140625 3999.973388671875
  endloop
endfacet
facet normal -2.712577731878163e-11 -1.198714196480599e-12 -1
  outer loop
    vertex 1193.267944335938 654.4180908203125 3999.973388671875
    vertex 1539.6513671875 12579.744140625 3999.973388671875
    vertex 1264.495239257812 602.6363525390625 3999.973388671875
  endloop
endfacet
facet normal -2.712577731878163e-11 -1.198714196480599e-12 -1
  outer loop
    vertex 1264.495239257812 602.6363525390625 3999.973388671875
    vertex 1539.6513671875 12579.744140625 3999.973388671875
    vertex 1355.514526367188 536.4657592773438 3999.973388671875
  endloop
endfacet
facet normal -2.712577731878163e-11 -1.198714196480599e-12 -1
  outer loop
    vertex 1355.514526367188 536.4657592773438 3999.973388671875
    vertex 1539.6513671875 12579.744140625 3999.973388671875
    vertex 1525.017822265625 429.5328369140625 3999.973388671875
  endloop
endfacet
facet normal -2.712577731878163e-11 -1.198714196480599e-12 -1
  outer loop
    vertex 1525.017822265625 429.5328369140625 3999.973388671875
    vertex 1539.6513671875 12579.744140625 3999.973388671875
    vertex 1701.051879882812 334.0772094726562 3999.973388671875
  endloop
endfacet
facet normal -2.712577731878163e-11 -1.198714196480599e-12 -1
  outer loop
    vertex 1701.051879882812 334.0772094726562 3999.973388671875
    vertex 1539.6513671875 12579.744140625 3999.973388671875
    vertex 1677.371337890625 13027.361328125 3999.973388671875
  endloop
endfacet
facet normal -2.712577731878163e-11 -1.198714196480599e-12 -1
  outer loop
    vertex 1701.051879882812 334.0772094726562 3999.973388671875
    vertex 1677.371337890625 13027.361328125 3999.973388671875
    vertex 2395.784423828125 14912.806640625 3999.973388671875
  endloop
endfacet
facet normal -2.712577731878163e-11 -1.198714196480599e-12 -1
  outer loop
    vertex 1701.051879882812 334.0772094726562 3999.973388671875
    vertex 2395.784423828125 14912.806640625 3999.973388671875
    vertex 1882.862670898438 250.5077362060547 3999.973388671875
  endloop
endfacet
facet normal -2.712577731878163e-11 -1.198714196480599e-12 -1
  outer loop
    vertex 1882.862670898438 250.5077362060547 3999.973388671875
    vertex 2395.784423828125 14912.806640625 3999.973388671875
    vertex 2069.671630859375 179.1822967529297 3999.973388671875
  endloop
endfacet
facet normal -2.712577731878163e-11 -1.198714196480599e-12 -1
  outer loop
    vertex 2069.671630859375 179.1822967529297 3999.973388671875
    vertex 2395.784423828125 14912.806640625 3999.973388671875
    vertex 2131.935302734375 160.0228118896484 3999.973388671875
  endloop
endfacet
facet normal -2.712577731878163e-11 -1.198714196480599e-12 -1
  outer loop
    vertex 2131.935302734375 160.0228118896484 3999.973388671875
    vertex 2395.784423828125 14912.806640625 3999.973388671875
    vertex 2209.52294921875 136.212158203125 3999.973388671875
  endloop
endfacet
facet normal -2.712577731878163e-11 -1.198714196480599e-12 -1
  outer loop
    vertex 2209.52294921875 136.212158203125 3999.973388671875
    vertex 2395.784423828125 14912.806640625 3999.973388671875
    vertex 2287.71142578125 114.5183563232422 3999.973388671875
  endloop
endfacet
facet normal -2.712577731878163e-11 -1.198714196480599e-12 -1
  outer loop
    vertex 2287.71142578125 114.5183563232422 3999.973388671875
    vertex 2395.784423828125 14912.806640625 3999.973388671875
    vertex 2366.4443359375 94.95697784423828 3999.973388671875
  endloop
endfacet
facet normal -2.712577731878163e-11 -1.198714196480599e-12 -1
  outer loop
    vertex 2366.4443359375 94.95697784423828 3999.973388671875
    vertex 2395.784423828125 14912.806640625 3999.973388671875
    vertex 2445.66552734375 77.54206085205078 3999.973388671875
  endloop
endfacet
facet normal -2.712577731878163e-11 -1.198714196480599e-12 -1
  outer loop
    vertex 2445.66552734375 77.54206085205078 3999.973388671875
    vertex 2395.784423828125 14912.806640625 3999.973388671875
    vertex 2440.71533203125 15030.7255859375 3999.973388671875
  endloop
endfacet
facet normal -2.712577731878163e-11 -1.198714196480599e-12 -1
  outer loop
    vertex 2445.66552734375 77.54206085205078 3999.973388671875
    vertex 2440.71533203125 15030.7255859375 3999.973388671875
    vertex 2499.931640625 15030.7255859375 3999.973388671875
  endloop
endfacet
facet normal -2.712577731878163e-11 -1.198714196480599e-12 -1
  outer loop
    vertex 2445.66552734375 77.54206085205078 3999.973388671875
    vertex 2499.931640625 15030.7255859375 3999.973388671875
    vertex 2525.318115234375 62.28609466552734 3999.973388671875
  endloop
endfacet
facet normal -2.712577731878163e-11 -1.198714196480599e-12 -1
  outer loop
    vertex 2525.318115234375 62.28609466552734 3999.973388671875
    vertex 2499.931640625 15030.7255859375 3999.973388671875
    vertex 3349.931640625 15030.7255859375 3999.973388671875
  endloop
endfacet
facet normal -2.712577731878163e-11 -1.198714196480599e-12 -1
  outer loop
    vertex 2525.318115234375 62.28609466552734 3999.973388671875
    vertex 3349.931640625 15030.7255859375 3999.973388671875
    vertex 2605.3447265625 49.20002746582031 3999.973388671875
  endloop
endfacet
facet normal -2.712577731878163e-11 -1.198714196480599e-12 -1
  outer loop
    vertex 2605.3447265625 49.20002746582031 3999.973388671875
    vertex 3349.931640625 15030.7255859375 3999.973388671875
    vertex 2685.688232421875 38.29324722290039 3999.973388671875
  endloop
endfacet
facet normal -2.712577731878163e-11 -1.198714196480599e-12 -1
  outer loop
    vertex 2685.688232421875 38.29324722290039 3999.973388671875
    vertex 3349.931640625 15030.7255859375 3999.973388671875
    vertex 2766.290771484375 29.57358169555664 3999.973388671875
  endloop
endfacet
facet normal -2.712577731878163e-11 -1.198714196480599e-12 -1
  outer loop
    vertex 2766.290771484375 29.57358169555664 3999.973388671875
    vertex 3349.931640625 15030.7255859375 3999.973388671875
    vertex 2847.094482421875 23.04728317260742 3999.973388671875
  endloop
endfacet
facet normal -2.712577731878163e-11 -1.198714196480599e-12 -1
  outer loop
    vertex 2847.094482421875 23.04728317260742 3999.973388671875
    vertex 3349.931640625 15030.7255859375 3999.973388671875
    vertex 2928.04150390625 18.71903610229492 3999.973388671875
  endloop
endfacet
facet normal -2.712577731878163e-11 -1.198714196480599e-12 -1
  outer loop
    vertex 2928.04150390625 18.71903610229492 3999.973388671875
    vertex 3349.931640625 15030.7255859375 3999.973388671875
    vertex 3009.07373046875 16.59194374084473 3999.973388671875
  endloop
endfacet
facet normal -2.712577731878163e-11 -1.198714196480599e-12 -1
  outer loop
    vertex 3009.07373046875 16.59194374084473 3999.973388671875
    vertex 3349.931640625 15030.7255859375 3999.973388671875
    vertex 3090.133056640625 16.66753387451172 3999.973388671875
  endloop
endfacet
facet normal -2.712577731878163e-11 -1.198714196480599e-12 -1
  outer loop
    vertex 3090.133056640625 16.66753387451172 3999.973388671875
    vertex 3349.931640625 15030.7255859375 3999.973388671875
    vertex 3974.349609375 53.4214973449707 3999.973388671875
  endloop
endfacet
facet normal -2.712577731878163e-11 -1.198714196480599e-12 -1
  outer loop
    vertex 3974.349609375 53.4214973449707 3999.973388671875
    vertex 3349.931640625 15030.7255859375 3999.973388671875
    vertex 8693.3935546875 15030.7255859375 3999.973388671875
  endloop
endfacet
facet normal -2.712577731878163e-11 -1.198714196480599e-12 -1
  outer loop
    vertex 3974.349609375 53.4214973449707 3999.973388671875
    vertex 8693.3935546875 15030.7255859375 3999.973388671875
    vertex 4894.0712890625 153.4547424316406 3999.973388671875
  endloop
endfacet
facet normal -2.712577731878163e-11 -1.198714196480599e-12 -1
  outer loop
    vertex 4894.0712890625 153.4547424316406 3999.973388671875
    vertex 8693.3935546875 15030.7255859375 3999.973388671875
    vertex 5805.3125 314.6710205078125 3999.973388671875
  endloop
endfacet
facet normal -2.712577731878163e-11 -1.198714196480599e-12 -1
  outer loop
    vertex 5805.3125 314.6710205078125 3999.973388671875
    vertex 8693.3935546875 15030.7255859375 3999.973388671875
    vertex 5875.25537109375 331.9231262207031 3999.973388671875
  endloop
endfacet
facet normal -2.712577731878163e-11 -1.198714196480599e-12 -1
  outer loop
    vertex 5875.25537109375 331.9231262207031 3999.973388671875
    vertex 8693.3935546875 15030.7255859375 3999.973388671875
    vertex 6704.123046875 536.3715209960938 3999.973388671875
  endloop
endfacet
facet normal -2.712577731878163e-11 -1.198714196480599e-12 -1
  outer loop
    vertex 6704.123046875 536.3715209960938 3999.973388671875
    vertex 8693.3935546875 15030.7255859375 3999.973388671875
    vertex 7586.60791015625 817.5953979492188 3999.973388671875
  endloop
endfacet
facet normal -2.712577731878163e-11 -1.198714196480599e-12 -1
  outer loop
    vertex 7586.60791015625 817.5953979492188 3999.973388671875
    vertex 8693.3935546875 15030.7255859375 3999.973388671875
    vertex 7850.32373046875 921.428955078125 3999.973388671875
  endloop
endfacet
facet normal -2.712577731878163e-11 -1.198714196480599e-12 -1
  outer loop
    vertex 7850.32373046875 921.428955078125 3999.973388671875
    vertex 8693.3935546875 15030.7255859375 3999.973388671875
    vertex 8448.94140625 1157.123657226562 3999.973388671875
  endloop
endfacet
facet normal -2.712577731878163e-11 -1.198714196480599e-12 -1
  outer loop
    vertex 8448.94140625 1157.123657226562 3999.973388671875
    vertex 8693.3935546875 15030.7255859375 3999.973388671875
    vertex 8693.3935546875 14295.853515625 3999.973388671875
  endloop
endfacet
facet normal -2.712577731878163e-11 -1.198714196480599e-12 -1
  outer loop
    vertex 8448.94140625 1157.123657226562 3999.973388671875
    vertex 8693.3935546875 14295.853515625 3999.973388671875
    vertex 9287.3857421875 1553.484741210938 3999.973388671875
  endloop
endfacet
facet normal -2.712577731878163e-11 -1.198714196480599e-12 -1
  outer loop
    vertex 9287.3857421875 1553.484741210938 3999.973388671875
    vertex 8693.3935546875 14295.853515625 3999.973388671875
    vertex 10979.1171875 14295.853515625 3999.973388671875
  endloop
endfacet
facet normal -2.712577731878163e-11 -1.198714196480599e-12 -1
  outer loop
    vertex 9287.3857421875 1553.484741210938 3999.973388671875
    vertex 10979.1171875 14295.853515625 3999.973388671875
    vertex 10098.306640625 2004.960693359375 3999.973388671875
  endloop
endfacet
facet normal -2.712577731878163e-11 -1.198714196480599e-12 -1
  outer loop
    vertex 10098.306640625 2004.960693359375 3999.973388671875
    vertex 10979.1171875 14295.853515625 3999.973388671875
    vertex 10878.1904296875 2509.594482421875 3999.973388671875
  endloop
endfacet
facet normal -2.712577731878163e-11 -1.198714196480599e-12 -1
  outer loop
    vertex 10878.1904296875 2509.594482421875 3999.973388671875
    vertex 10979.1171875 14295.853515625 3999.973388671875
    vertex 10968.8505859375 2568.25732421875 3999.973388671875
  endloop
endfacet
facet normal -2.712577731878163e-11 -1.198714196480599e-12 -1
  outer loop
    vertex 10968.8505859375 2568.25732421875 3999.973388671875
    vertex 10979.1171875 14295.853515625 3999.973388671875
    vertex 10979.1171875 5172.38330078125 3999.973388671875
  endloop
endfacet
facet normal -2.712577731878163e-11 -1.198714196480599e-12 -1
  outer loop
    vertex 10968.8505859375 2568.25732421875 3999.973388671875
    vertex 10979.1171875 5172.38330078125 3999.973388671875
    vertex 10979.1171875 2568.25732421875 3999.973388671875
  endloop
endfacet
facet normal -2.712577731878163e-11 -1.198714196480599e-12 -1
  outer loop
    vertex 10979.1171875 14295.853515625 3999.973388671875
    vertex 10979.1171875 9196.9150390625 3999.973388671875
    vertex 10979.1171875 5172.38330078125 3999.973388671875
  endloop
endfacet
facet normal -2.712577731878163e-11 -1.198714196480599e-12 -1
  outer loop
    vertex 10979.1171875 9196.9150390625 3999.973388671875
    vertex 10979.1171875 14295.853515625 3999.973388671875
    vertex 10979.1171875 12037.7275390625 3999.973388671875
  endloop
endfacet
facet normal -2.712577731878163e-11 -1.198714196480599e-12 -1
  outer loop
    vertex 10979.1171875 7776.50927734375 3999.973388671875
    vertex 10979.1171875 5172.38330078125 3999.973388671875
    vertex 10979.1171875 9196.9150390625 3999.973388671875
  endloop
endfacet
facet normal 0.2330268323421478 -0.9724702835083008 -5.188573529157914e-12
  outer loop
    vertex 6704.123046875 536.3715209960938 3999.973388671875
    vertex 5875.25537109375 331.9231262207031 4499.9599609375
    vertex 5875.25537109375 331.9231262207031 3999.973388671875
  endloop
endfacet
facet normal 0.2330268323421478 -0.9724702835083008 -5.188573529157914e-12
  outer loop
    vertex 5875.25537109375 331.9231262207031 4499.9599609375
    vertex 6704.123046875 536.3715209960938 3999.973388671875
    vertex 6704.123046875 536.3715209960938 4499.9599609375
  endloop
endfacet
facet normal 0.2330268323421478 -0.9724702835083008 -5.188573529157914e-12
  outer loop
    vertex 5875.25537109375 331.9231262207031 4499.9599609375
    vertex 5805.3125 314.6710205078125 3999.973388671875
    vertex 5875.25537109375 331.9231262207031 3999.973388671875
  endloop
endfacet
facet normal 0.2330268323421478 -0.9724702835083008 -5.188573529157914e-12
  outer loop
    vertex 5805.3125 314.6710205078125 3999.973388671875
    vertex 5875.25537109375 331.9231262207031 4499.9599609375
    vertex 5805.3125 314.6710205078125 4499.9599609375
  endloop
endfacet
facet normal 0.1693889200687408 -0.98554927110672 -3.447114772445192e-12
  outer loop
    vertex 5805.3125 314.6710205078125 4499.9599609375
    vertex 4894.0712890625 153.4547424316406 3999.973388671875
    vertex 5805.3125 314.6710205078125 3999.973388671875
  endloop
endfacet
facet normal 0.1693889200687408 -0.98554927110672 -3.447114772445192e-12
  outer loop
    vertex 4894.0712890625 153.4547424316406 3999.973388671875
    vertex 5805.3125 314.6710205078125 4499.9599609375
    vertex 4894.0712890625 153.4547424316406 4499.9599609375
  endloop
endfacet
facet normal 0.1050770729780197 -0.994464099407196 -1.692224593959069e-12
  outer loop
    vertex 4894.0712890625 153.4547424316406 4499.9599609375
    vertex 3974.349609375 53.4214973449707 3999.973388671875
    vertex 4894.0712890625 153.4547424316406 3999.973388671875
  endloop
endfacet
facet normal 0.1050770729780197 -0.994464099407196 -1.692224593959069e-12
  outer loop
    vertex 3974.349609375 53.4214973449707 3999.973388671875
    vertex 4894.0712890625 153.4547424316406 4499.9599609375
    vertex 3974.349609375 53.4214973449707 4499.9599609375
  endloop
endfacet
facet normal 0.04034808278083801 -0.9991856813430786 6.909790529465928e-14
  outer loop
    vertex 3974.349609375 53.4214973449707 3999.973388671875
    vertex 3090.133056640625 16.66753387451172 4499.9599609375
    vertex 3090.133056640625 16.66753387451172 3999.973388671875
  endloop
endfacet
facet normal 0.04034808278083801 -0.9991856813430786 6.909790529465928e-14
  outer loop
    vertex 3090.133056640625 16.66753387451172 4499.9599609375
    vertex 3974.349609375 53.4214973449707 3999.973388671875
    vertex 3974.349609375 53.4214973449707 4499.9599609375
  endloop
endfacet
facet normal 0.0009059278527274728 -0.9999995827674866 1.139944909300805e-12
  outer loop
    vertex 3090.133056640625 16.66753387451172 4499.9599609375
    vertex 3009.07373046875 16.59194374084473 3999.973388671875
    vertex 3090.133056640625 16.66753387451172 3999.973388671875
  endloop
endfacet
facet normal 0.0009059278527274728 -0.9999995827674866 1.139944909300805e-12
  outer loop
    vertex 3009.07373046875 16.59194374084473 3999.973388671875
    vertex 3090.133056640625 16.66753387451172 4499.9599609375
    vertex 3009.07373046875 16.59194374084473 4499.9599609375
  endloop
endfacet
facet normal -0.0254928320646286 -0.9996749758720398 1.855653868412799e-12
  outer loop
    vertex 3009.07373046875 16.59194374084473 4499.9599609375
    vertex 2928.04150390625 18.71903610229492 3999.973388671875
    vertex 3009.07373046875 16.59194374084473 3999.973388671875
  endloop
endfacet
facet normal -0.0254928320646286 -0.9996749758720398 1.855653868412799e-12
  outer loop
    vertex 2928.04150390625 18.71903610229492 3999.973388671875
    vertex 3009.07373046875 16.59194374084473 4499.9599609375
    vertex 2928.04150390625 18.71903610229492 4499.9599609375
  endloop
endfacet
facet normal -0.05187486484646797 -0.9986535906791687 2.570097563589502e-12
  outer loop
    vertex 2928.04150390625 18.71903610229492 4499.9599609375
    vertex 2847.094482421875 23.04728317260742 3999.973388671875
    vertex 2928.04150390625 18.71903610229492 3999.973388671875
  endloop
endfacet
facet normal -0.05187486484646797 -0.9986535906791687 2.570097563589502e-12
  outer loop
    vertex 2847.094482421875 23.04728317260742 3999.973388671875
    vertex 2928.04150390625 18.71903610229492 4499.9599609375
    vertex 2847.094482421875 23.04728317260742 4499.9599609375
  endloop
endfacet
facet normal -0.0782228484749794 -0.9969359040260315 3.282806752130663e-12
  outer loop
    vertex 2847.094482421875 23.04728317260742 4499.9599609375
    vertex 2766.290771484375 29.57358169555664 3999.973388671875
    vertex 2847.094482421875 23.04728317260742 3999.973388671875
  endloop
endfacet
facet normal -0.0782228484749794 -0.9969359040260315 3.282806752130663e-12
  outer loop
    vertex 2766.290771484375 29.57358169555664 3999.973388671875
    vertex 2847.094482421875 23.04728317260742 4499.9599609375
    vertex 2766.290771484375 29.57358169555664 4499.9599609375
  endloop
endfacet
facet normal -0.1045194789767265 -0.9945228099822998 3.993313058697767e-12
  outer loop
    vertex 2766.290771484375 29.57358169555664 4499.9599609375
    vertex 2685.688232421875 38.29324722290039 3999.973388671875
    vertex 2766.290771484375 29.57358169555664 3999.973388671875
  endloop
endfacet
facet normal -0.1045194789767265 -0.9945228099822998 3.993313058697767e-12
  outer loop
    vertex 2685.688232421875 38.29324722290039 3999.973388671875
    vertex 2766.290771484375 29.57358169555664 4499.9599609375
    vertex 2685.688232421875 38.29324722290039 4499.9599609375
  endloop
endfacet
facet normal -0.1307474374771118 -0.9914156794548035 4.701148758473606e-12
  outer loop
    vertex 2685.688232421875 38.29324722290039 4499.9599609375
    vertex 2605.3447265625 49.20002746582031 3999.973388671875
    vertex 2685.688232421875 38.29324722290039 3999.973388671875
  endloop
endfacet
facet normal -0.1307474374771118 -0.9914156794548035 4.701148758473606e-12
  outer loop
    vertex 2605.3447265625 49.20002746582031 3999.973388671875
    vertex 2685.688232421875 38.29324722290039 4499.9599609375
    vertex 2605.3447265625 49.20002746582031 4499.9599609375
  endloop
endfacet
facet normal -0.1568894386291504 -0.9876161813735962 5.405846343481402e-12
  outer loop
    vertex 2605.3447265625 49.20002746582031 4499.9599609375
    vertex 2525.318115234375 62.28609466552734 3999.973388671875
    vertex 2605.3447265625 49.20002746582031 3999.973388671875
  endloop
endfacet
facet normal -0.1568894386291504 -0.9876161813735962 5.405846343481402e-12
  outer loop
    vertex 2525.318115234375 62.28609466552734 3999.973388671875
    vertex 2605.3447265625 49.20002746582031 4499.9599609375
    vertex 2525.318115234375 62.28609466552734 4499.9599609375
  endloop
endfacet
facet normal -0.1829281896352768 -0.9831262826919556 6.106939173106118e-12
  outer loop
    vertex 2525.318115234375 62.28609466552734 4499.9599609375
    vertex 2445.66552734375 77.54206085205078 3999.973388671875
    vertex 2525.318115234375 62.28609466552734 3999.973388671875
  endloop
endfacet
facet normal -0.1829281896352768 -0.9831262826919556 6.106939173106118e-12
  outer loop
    vertex 2445.66552734375 77.54206085205078 3999.973388671875
    vertex 2525.318115234375 62.28609466552734 4499.9599609375
    vertex 2445.66552734375 77.54206085205078 4499.9599609375
  endloop
endfacet
facet normal -0.2088464349508286 -0.9779484272003174 6.803961907775324e-12
  outer loop
    vertex 2445.66552734375 77.54206085205078 4499.9599609375
    vertex 2366.4443359375 94.95697784423828 3999.973388671875
    vertex 2445.66552734375 77.54206085205078 3999.973388671875
  endloop
endfacet
facet normal -0.2088464349508286 -0.9779484272003174 6.803961907775324e-12
  outer loop
    vertex 2366.4443359375 94.95697784423828 3999.973388671875
    vertex 2445.66552734375 77.54206085205078 4499.9599609375
    vertex 2366.4443359375 94.95697784423828 4499.9599609375
  endloop
endfacet
facet normal -0.2346269190311432 -0.9720854759216309 7.496450508959196e-12
  outer loop
    vertex 2366.4443359375 94.95697784423828 4499.9599609375
    vertex 2287.71142578125 114.5183563232422 3999.973388671875
    vertex 2366.4443359375 94.95697784423828 3999.973388671875
  endloop
endfacet
facet normal -0.2346269190311432 -0.9720854759216309 7.496450508959196e-12
  outer loop
    vertex 2287.71142578125 114.5183563232422 3999.973388671875
    vertex 2366.4443359375 94.95697784423828 4499.9599609375
    vertex 2287.71142578125 114.5183563232422 4499.9599609375
  endloop
endfacet
facet normal -0.2602524161338806 -0.9655405879020691 8.18394050444704e-12
  outer loop
    vertex 2287.71142578125 114.5183563232422 4499.9599609375
    vertex 2209.52294921875 136.212158203125 3999.973388671875
    vertex 2287.71142578125 114.5183563232422 3999.973388671875
  endloop
endfacet
facet normal -0.2602524161338806 -0.9655405879020691 8.18394050444704e-12
  outer loop
    vertex 2209.52294921875 136.212158203125 3999.973388671875
    vertex 2287.71142578125 114.5183563232422 4499.9599609375
    vertex 2209.52294921875 136.212158203125 4499.9599609375
  endloop
endfacet
facet normal -0.2857057750225067 -0.9583173990249634 8.865970457794248e-12
  outer loop
    vertex 2209.52294921875 136.212158203125 4499.9599609375
    vertex 2131.935302734375 160.0228118896484 3999.973388671875
    vertex 2209.52294921875 136.212158203125 3999.973388671875
  endloop
endfacet
facet normal -0.2857057750225067 -0.9583173990249634 8.865970457794248e-12
  outer loop
    vertex 2131.935302734375 160.0228118896484 3999.973388671875
    vertex 2209.52294921875 136.212158203125 4499.9599609375
    vertex 2131.935302734375 160.0228118896484 4499.9599609375
  endloop
endfacet
facet normal -0.2864140868186951 -0.9581059217453003 8.884937924280578e-12
  outer loop
    vertex 2131.935302734375 160.0228118896484 4499.9599609375
    vertex 2069.671630859375 179.1822967529297 3999.973388671875
    vertex 2131.935302734375 160.0228118896484 3999.973388671875
  endloop
endfacet
facet normal -0.2864140868186951 -0.9581059217453003 8.884937924280578e-12
  outer loop
    vertex 2069.671630859375 179.1822967529297 3999.973388671875
    vertex 2131.935302734375 160.0228118896484 4499.9599609375
    vertex 2069.671630859375 179.1822967529297 4499.9599609375
  endloop
endfacet
facet normal -0.3477656245231628 -0.937581479549408 1.052524473826866e-11
  outer loop
    vertex 2069.671630859375 179.1822967529297 4499.9599609375
    vertex 1882.862670898438 250.5077362060547 3999.973388671875
    vertex 2069.671630859375 179.1822967529297 3999.973388671875
  endloop
endfacet
facet normal -0.3477656245231628 -0.937581479549408 1.052524473826866e-11
  outer loop
    vertex 1882.862670898438 250.5077362060547 3999.973388671875
    vertex 2069.671630859375 179.1822967529297 4499.9599609375
    vertex 1882.862670898438 250.5077362060547 4499.9599609375
  endloop
endfacet
facet normal -0.407734602689743 -0.9131004810333252 1.21234411398774e-11
  outer loop
    vertex 1882.862670898438 250.5077362060547 4499.9599609375
    vertex 1701.051879882812 334.0772094726562 3999.973388671875
    vertex 1882.862670898438 250.5077362060547 3999.973388671875
  endloop
endfacet
facet normal -0.407734602689743 -0.9131004810333252 1.21234411398774e-11
  outer loop
    vertex 1701.051879882812 334.0772094726562 3999.973388671875
    vertex 1882.862670898438 250.5077362060547 4499.9599609375
    vertex 1701.051879882812 334.0772094726562 4499.9599609375
  endloop
endfacet
facet normal -0.4660736620426178 -0.8847458958625793 1.367291436321638e-11
  outer loop
    vertex 1701.051879882812 334.0772094726562 4499.9599609375
    vertex 1525.017822265625 429.5328369140625 3999.973388671875
    vertex 1701.051879882812 334.0772094726562 3999.973388671875
  endloop
endfacet
facet normal -0.4660736620426178 -0.8847458958625793 1.367291436321638e-11
  outer loop
    vertex 1525.017822265625 429.5328369140625 3999.973388671875
    vertex 1701.051879882812 334.0772094726562 4499.9599609375
    vertex 1525.017822265625 429.5328369140625 4499.9599609375
  endloop
endfacet
facet normal -0.5225381255149841 -0.8526158928871155 1.516714184801593e-11
  outer loop
    vertex 1525.017822265625 429.5328369140625 4499.9599609375
    vertex 1355.514526367188 536.4657592773438 3999.973388671875
    vertex 1525.017822265625 429.5328369140625 3999.973388671875
  endloop
endfacet
facet normal -0.5225381255149841 -0.8526158928871155 1.516714184801593e-11
  outer loop
    vertex 1355.514526367188 536.4657592773438 3999.973388671875
    vertex 1525.017822265625 429.5328369140625 4499.9599609375
    vertex 1355.514526367188 536.4657592773438 4499.9599609375
  endloop
endfacet
facet normal -0.576886773109436 -0.8168241381645203 1.659970945422362e-11
  outer loop
    vertex 1355.514526367188 536.4657592773438 4499.9599609375
    vertex 1264.495239257812 602.6363525390625 3999.973388671875
    vertex 1355.514526367188 536.4657592773438 3999.973388671875
  endloop
endfacet
facet normal -0.576886773109436 -0.8168241381645203 1.659970945422362e-11
  outer loop
    vertex 1264.495239257812 602.6363525390625 3999.973388671875
    vertex 1355.514526367188 536.4657592773438 4499.9599609375
    vertex 1264.495239257812 602.6363525390625 4499.9599609375
  endloop
endfacet
facet normal -0.576886773109436 -0.8168241381645203 1.659970945422362e-11
  outer loop
    vertex 1264.495239257812 602.6363525390625 3999.973388671875
    vertex 1193.267944335938 654.4180908203125 4499.9599609375
    vertex 1193.267944335938 654.4180908203125 3999.973388671875
  endloop
endfacet
facet normal -0.576886773109436 -0.8168241381645203 1.659970945422362e-11
  outer loop
    vertex 1193.267944335938 654.4180908203125 4499.9599609375
    vertex 1264.495239257812 602.6363525390625 3999.973388671875
    vertex 1264.495239257812 602.6363525390625 4499.9599609375
  endloop
endfacet
facet normal -0.6288826465606689 -0.7775002121925354 1.796434528911206e-11
  outer loop
    vertex 1193.267944335938 654.4180908203125 4499.9599609375
    vertex 1038.972900390625 782.8846435546875 3999.973388671875
    vertex 1193.267944335938 654.4180908203125 3999.973388671875
  endloop
endfacet
facet normal -0.6288826465606689 -0.7775002121925354 1.796434528911206e-11
  outer loop
    vertex 1038.972900390625 782.8846435546875 3999.973388671875
    vertex 1193.267944335938 654.4180908203125 4499.9599609375
    vertex 1038.972900390625 782.8846435546875 4499.9599609375
  endloop
endfacet
facet normal -0.6782945394515991 -0.7347900867462158 1.925494486076929e-11
  outer loop
    vertex 1038.972900390625 782.8846435546875 4499.9599609375
    vertex 893.290283203125 921.315185546875 3999.973388671875
    vertex 1038.972900390625 782.8846435546875 3999.973388671875
  endloop
endfacet
facet normal -0.6782945394515991 -0.7347900867462158 1.925494486076929e-11
  outer loop
    vertex 893.290283203125 921.315185546875 3999.973388671875
    vertex 1038.972900390625 782.8846435546875 4499.9599609375
    vertex 893.290283203125 921.315185546875 4499.9599609375
  endloop
endfacet
facet normal -0.7248979806900024 -0.6888562440872192 2.04656083746535e-11
  outer loop
    vertex 893.290283203125 921.315185546875 4499.9599609375
    vertex 756.8438110351562 1069.116943359375 3999.973388671875
    vertex 893.290283203125 921.315185546875 3999.973388671875
  endloop
endfacet
facet normal -0.7248979806900024 -0.6888562440872192 2.04656083746535e-11
  outer loop
    vertex 756.8438110351562 1069.116943359375 3999.973388671875
    vertex 893.290283203125 921.315185546875 4499.9599609375
    vertex 756.8438110351562 1069.116943359375 4499.9599609375
  endloop
endfacet
facet normal -0.7684767842292786 -0.6398776769638062 2.159067889750954e-11
  outer loop
    vertex 756.8438110351562 1069.116943359375 4499.9599609375
    vertex 630.2179565429688 1225.656860351562 3999.973388671875
    vertex 756.8438110351562 1069.116943359375 3999.973388671875
  endloop
endfacet
facet normal -0.7684767842292786 -0.6398776769638062 2.159067889750954e-11
  outer loop
    vertex 630.2179565429688 1225.656860351562 3999.973388671875
    vertex 756.8438110351562 1069.116943359375 4499.9599609375
    vertex 630.2179565429688 1225.656860351562 4499.9599609375
  endloop
endfacet
facet normal -0.8088244199752808 -0.5880501866340637 2.262478746017926e-11
  outer loop
    vertex 630.2179565429688 1225.656860351562 4499.9599609375
    vertex 577.6869506835938 1300.031372070312 3999.973388671875
    vertex 630.2179565429688 1225.656860351562 3999.973388671875
  endloop
endfacet
facet normal -0.8088244199752808 -0.5880501866340637 2.262478746017926e-11
  outer loop
    vertex 577.6869506835938 1300.031372070312 3999.973388671875
    vertex 630.2179565429688 1225.656860351562 4499.9599609375
    vertex 577.6869506835938 1300.031372070312 4499.9599609375
  endloop
endfacet
facet normal -0.8088244199752808 -0.5880501866340637 2.262478746017926e-11
  outer loop
    vertex 577.6869506835938 1300.031372070312 4499.9599609375
    vertex 513.9550170898438 1390.264526367188 3999.973388671875
    vertex 577.6869506835938 1300.031372070312 3999.973388671875
  endloop
endfacet
facet normal -0.8088244199752808 -0.5880501866340637 2.262478746017926e-11
  outer loop
    vertex 513.9550170898438 1390.264526367188 3999.973388671875
    vertex 577.6869506835938 1300.031372070312 4499.9599609375
    vertex 513.9550170898438 1390.264526367188 4499.9599609375
  endloop
endfacet
facet normal -0.8457459211349487 -0.533585786819458 2.356288775207105e-11
  outer loop
    vertex 513.9550170898438 1390.264526367188 4499.9599609375
    vertex 408.5528869628906 1562.234985351562 3999.973388671875
    vertex 513.9550170898438 1390.264526367188 3999.973388671875
  endloop
endfacet
facet normal -0.8457459211349487 -0.533585786819458 2.356288775207105e-11
  outer loop
    vertex 408.5528869628906 1562.234985351562 3999.973388671875
    vertex 513.9550170898438 1390.264526367188 4499.9599609375
    vertex 408.5528869628906 1562.234985351562 4499.9599609375
  endloop
endfacet
facet normal -0.8790593147277832 -0.4767123460769653 2.440030816286409e-11
  outer loop
    vertex 408.5528869628906 1562.234985351562 4499.9599609375
    vertex 314.4630126953125 1740.831787109375 3999.973388671875
    vertex 408.5528869628906 1562.234985351562 3999.973388671875
  endloop
endfacet
facet normal -0.8790593147277832 -0.4767123460769653 2.440030816286409e-11
  outer loop
    vertex 314.4630126953125 1740.831787109375 3999.973388671875
    vertex 408.5528869628906 1562.234985351562 4499.9599609375
    vertex 314.4630126953125 1740.831787109375 4499.9599609375
  endloop
endfacet
facet normal -0.908597469329834 -0.4176728427410126 2.51328020894892e-11
  outer loop
    vertex 314.4630126953125 1740.831787109375 4499.9599609375
    vertex 232.0883331298828 1925.289916992188 3999.973388671875
    vertex 314.4630126953125 1740.831787109375 3999.973388671875
  endloop
endfacet
facet normal -0.908597469329834 -0.4176728427410126 2.51328020894892e-11
  outer loop
    vertex 232.0883331298828 1925.289916992188 3999.973388671875
    vertex 314.4630126953125 1740.831787109375 4499.9599609375
    vertex 232.0883331298828 1925.289916992188 4499.9599609375
  endloop
endfacet
facet normal -0.9342096447944641 -0.3567244410514832 2.575657569170442e-11
  outer loop
    vertex 232.0883331298828 1925.289916992188 4499.9599609375
    vertex 161.7816162109375 2114.819580078125 3999.973388671875
    vertex 232.0883331298828 1925.289916992188 3999.973388671875
  endloop
endfacet
facet normal -0.9342096447944641 -0.3567244410514832 2.575657569170442e-11
  outer loop
    vertex 161.7816162109375 2114.819580078125 3999.973388671875
    vertex 232.0883331298828 1925.289916992188 4499.9599609375
    vertex 161.7816162109375 2114.819580078125 4499.9599609375
  endloop
endfacet
facet normal -0.9557632207870483 -0.294137179851532 2.626834860741667e-11
  outer loop
    vertex 161.7816162109375 2114.819580078125 4499.9599609375
    vertex 142.2222900390625 2180.241455078125 3999.973388671875
    vertex 161.7816162109375 2114.819580078125 3999.973388671875
  endloop
endfacet
facet normal -0.9557632207870483 -0.294137179851532 2.626834860741667e-11
  outer loop
    vertex 142.2222900390625 2180.241455078125 3999.973388671875
    vertex 161.7816162109375 2114.819580078125 4499.9599609375
    vertex 142.2222900390625 2180.241455078125 4499.9599609375
  endloop
endfacet
facet normal -0.9557632207870483 -0.294137179851532 2.626834860741667e-11
  outer loop
    vertex 142.2222900390625 2180.241455078125 4499.9599609375
    vertex 103.843994140625 2308.609130859375 3999.973388671875
    vertex 142.2222900390625 2180.241455078125 3999.973388671875
  endloop
endfacet
facet normal -0.9557632207870483 -0.294137179851532 2.626834860741667e-11
  outer loop
    vertex 103.843994140625 2308.609130859375 3999.973388671875
    vertex 142.2222900390625 2180.241455078125 4499.9599609375
    vertex 103.843994140625 2308.609130859375 4499.9599609375
  endloop
endfacet
facet normal -0.9731451272964478 -0.2301925271749496 2.666538170825739e-11
  outer loop
    vertex 103.843994140625 2308.609130859375 4499.9599609375
    vertex 58.52357482910156 2505.828369140625 3999.973388671875
    vertex 103.843994140625 2308.609130859375 3999.973388671875
  endloop
endfacet
facet normal -0.9731451272964478 -0.2301925271749496 2.666538170825739e-11
  outer loop
    vertex 58.52357482910156 2505.828369140625 3999.973388671875
    vertex 103.843994140625 2308.609130859375 4499.9599609375
    vertex 58.52357482910156 2505.828369140625 4499.9599609375
  endloop
endfacet
facet normal -0.9862631559371948 -0.1651816666126251 2.694551179405202e-11
  outer loop
    vertex 58.52357482910156 2505.828369140625 4499.9599609375
    vertex 26.01446151733398 2705.632568359375 3999.973388671875
    vertex 58.52357482910156 2505.828369140625 3999.973388671875
  endloop
endfacet
facet normal -0.9862631559371948 -0.1651816666126251 2.694551179405202e-11
  outer loop
    vertex 26.01446151733398 2705.632568359375 3999.973388671875
    vertex 58.52357482910156 2505.828369140625 4499.9599609375
    vertex 26.01446151733398 2705.632568359375 4499.9599609375
  endloop
endfacet
facet normal -0.9950472116470337 -0.09940356016159058 2.710718628728959e-11
  outer loop
    vertex 26.01446151733398 2705.632568359375 4499.9599609375
    vertex 6.455878257751465 2907.16650390625 3999.973388671875
    vertex 26.01446151733398 2705.632568359375 3999.973388671875
  endloop
endfacet
facet normal -0.9950472116470337 -0.09940356016159058 2.710718628728959e-11
  outer loop
    vertex 6.455878257751465 2907.16650390625 3999.973388671875
    vertex 26.01446151733398 2705.632568359375 4499.9599609375
    vertex 6.455878257751465 2907.16650390625 4499.9599609375
  endloop
endfacet
facet normal -0.9994499683380127 -0.03316286951303482 2.714947537618695e-11
  outer loop
    vertex 6.455878257751465 2907.16650390625 4499.9599609375
    vertex 1.228366017341614 3069.33740234375 3999.973388671875
    vertex 6.455878257751465 2907.16650390625 3999.973388671875
  endloop
endfacet
facet normal -0.9994499683380127 -0.03316286951303482 2.714947537618695e-11
  outer loop
    vertex 1.228366017341614 3069.33740234375 3999.973388671875
    vertex 6.455878257751465 2907.16650390625 4499.9599609375
    vertex 1.228366017341614 3069.33740234375 4499.9599609375
  endloop
endfacet
facet normal -0.01937429420650005 0.9998123049736023 -6.387579809703781e-13
  outer loop
    vertex 1.228366017341614 3069.33740234375 4499.9599609375
    vertex 1.501542448997498 3069.3427734375 3999.973388671875
    vertex 1.228366017341614 3069.33740234375 3999.973388671875
  endloop
endfacet
facet normal -0.01937429420650005 0.9998123049736023 -6.387579809703781e-13
  outer loop
    vertex 1.501542448997498 3069.3427734375 3999.973388671875
    vertex 1.228366017341614 3069.33740234375 4499.9599609375
    vertex 1.501542448997498 3069.3427734375 4499.9599609375
  endloop
endfacet
facet normal -0.9998010993003845 -0.01994297467172146 2.714360680666772e-11
  outer loop
    vertex 1.501542448997498 3069.3427734375 4499.9599609375
    vertex 0.6857943534851074 3111.439697265625 3999.973388671875
    vertex 1.501542448997498 3069.3427734375 3999.973388671875
  endloop
endfacet
facet normal -0.9998010993003845 -0.01994297467172146 2.714360680666772e-11
  outer loop
    vertex 0.6857943534851074 3111.439697265625 3999.973388671875
    vertex 1.501542448997498 3069.3427734375 4499.9599609375
    vertex 0.6857943534851074 3111.439697265625 4499.9599609375
  endloop
endfacet
facet normal 0.01937429420650005 -0.9998123049736023 6.387579809703781e-13
  outer loop
    vertex 0.6857943534851074 3111.439697265625 4499.9599609375
    vertex 9.523685093881795e-07 3111.426025390625 3999.973388671875
    vertex 0.6857943534851074 3111.439697265625 3999.973388671875
  endloop
endfacet
facet normal 0.01937429420650005 -0.9998123049736023 6.387579809703781e-13
  outer loop
    vertex 9.523685093881795e-07 3111.426025390625 3999.973388671875
    vertex 0.6857943534851074 3111.439697265625 4499.9599609375
    vertex 9.659310080678551e-07 3111.426025390625 4499.9599609375
  endloop
endfacet
facet normal -0.9992834329605103 0.03784952312707901 2.706226388815569e-11
  outer loop
    vertex 9.659310080678551e-07 3111.426025390625 4499.9599609375
    vertex 1.508188009262085 3152.41357421875 3999.973388671875
    vertex 9.523685093881795e-07 3111.426025390625 3999.973388671875
  endloop
endfacet
facet normal -0.9992834329605103 0.03784952312707901 2.706226388815569e-11
  outer loop
    vertex 1.508188009262085 3152.41357421875 3999.973388671875
    vertex 9.659310080678551e-07 3111.426025390625 4499.9599609375
    vertex 1.508188009262085 3152.41357421875 4499.9599609375
  endloop
endfacet
facet normal -0.9992834329605103 0.03784952312707901 2.706226388815569e-11
  outer loop
    vertex 1.508188009262085 3152.41357421875 4499.9599609375
    vertex 70.35819244384766 5023.53173828125 3999.973388671875
    vertex 1.508188009262085 3152.41357421875 3999.973388671875
  endloop
endfacet
facet normal -0.9992834329605103 0.03784952312707901 2.706226388815569e-11
  outer loop
    vertex 70.35819244384766 5023.53173828125 3999.973388671875
    vertex 1.508188009262085 3152.41357421875 4499.9599609375
    vertex 70.35819244384766 5023.53173828125 4499.9599609375
  endloop
endfacet
facet normal -0.9992834329605103 0.03784952312707901 2.706226388815569e-11
  outer loop
    vertex 70.35819244384766 5023.53173828125 4499.9599609375
    vertex 74.26071166992188 5129.58935546875 3999.973388671875
    vertex 70.35819244384766 5023.53173828125 3999.973388671875
  endloop
endfacet
facet normal -0.9992834329605103 0.03784952312707901 2.706226388815569e-11
  outer loop
    vertex 74.26071166992188 5129.58935546875 3999.973388671875
    vertex 70.35819244384766 5023.53173828125 4499.9599609375
    vertex 74.26071166992188 5129.58935546875 4499.9599609375
  endloop
endfacet
facet normal -0.9944790005683899 0.1049357205629349 2.685381604583537e-11
  outer loop
    vertex 74.26071166992188 5129.58935546875 4499.9599609375
    vertex 277.9593200683594 7116.73291015625 3999.973388671875
    vertex 74.26071166992188 5129.58935546875 3999.973388671875
  endloop
endfacet
facet normal -0.9944790005683899 0.1049357205629349 2.685381604583537e-11
  outer loop
    vertex 277.9593200683594 7116.73291015625 3999.973388671875
    vertex 74.26071166992188 5129.58935546875 4499.9599609375
    vertex 277.9593200683594 7116.73291015625 4499.9599609375
  endloop
endfacet
facet normal -0.9944790005683899 0.1049357205629349 2.685381604583537e-11
  outer loop
    vertex 277.9593200683594 7116.73291015625 4499.9599609375
    vertex 280.3622741699219 7140.17431640625 3999.973388671875
    vertex 277.9593200683594 7116.73291015625 3999.973388671875
  endloop
endfacet
facet normal -0.9944790005683899 0.1049357205629349 2.685381604583537e-11
  outer loop
    vertex 280.3622741699219 7140.17431640625 3999.973388671875
    vertex 277.9593200683594 7116.73291015625 4499.9599609375
    vertex 280.3622741699219 7140.17431640625 4499.9599609375
  endloop
endfacet
facet normal -0.9851804971694946 0.1715207099914551 2.652404858249913e-11
  outer loop
    vertex 280.3622741699219 7140.17431640625 4499.9599609375
    vertex 617.3302001953125 9132.484375 3999.973388671875
    vertex 280.3622741699219 7140.17431640625 3999.973388671875
  endloop
endfacet
facet normal -0.9851804971694946 0.1715207099914551 2.652404858249913e-11
  outer loop
    vertex 617.3302001953125 9132.484375 3999.973388671875
    vertex 280.3622741699219 7140.17431640625 4499.9599609375
    vertex 617.3302001953125 9132.484375 4499.9599609375
  endloop
endfacet
facet normal -0.9714393019676208 0.2372881472110748 2.607472050775161e-11
  outer loop
    vertex 617.3302001953125 9132.484375 4499.9599609375
    vertex 956.5071411132812 10561.8212890625 3999.973388671875
    vertex 617.3302001953125 9132.484375 3999.973388671875
  endloop
endfacet
facet normal -0.9714393019676208 0.2372881472110748 2.607472050775161e-11
  outer loop
    vertex 956.5071411132812 10561.8212890625 3999.973388671875
    vertex 617.3302001953125 9132.484375 4499.9599609375
    vertex 956.5071411132812 10561.8212890625 4499.9599609375
  endloop
endfacet
facet normal -0.9714393019676208 0.2372881472110748 2.607472050775161e-11
  outer loop
    vertex 956.5071411132812 10561.8212890625 4499.9599609375
    vertex 1083.683227539062 11097.7587890625 3999.973388671875
    vertex 956.5071411132812 10561.8212890625 3999.973388671875
  endloop
endfacet
facet normal -0.9714393019676208 0.2372881472110748 2.607472050775161e-11
  outer loop
    vertex 1083.683227539062 11097.7587890625 3999.973388671875
    vertex 956.5071411132812 10561.8212890625 4499.9599609375
    vertex 1083.683227539062 11097.7587890625 4499.9599609375
  endloop
endfacet
facet normal -0.9533307552337646 0.3019278347492218 2.550823788305401e-11
  outer loop
    vertex 1083.683227539062 11097.7587890625 4499.9599609375
    vertex 1539.6513671875 12579.744140625 3999.973388671875
    vertex 1083.683227539062 11097.7587890625 3999.973388671875
  endloop
endfacet
facet normal -0.9533307552337646 0.3019278347492218 2.550823788305401e-11
  outer loop
    vertex 1539.6513671875 12579.744140625 3999.973388671875
    vertex 1083.683227539062 11097.7587890625 4499.9599609375
    vertex 1539.6513671875 12579.744140625 4499.9599609375
  endloop
endfacet
facet normal -0.9533307552337646 0.3019278347492218 2.550823788305401e-11
  outer loop
    vertex 1539.6513671875 12579.744140625 4499.9599609375
    vertex 1677.371337890625 13027.361328125 3999.973388671875
    vertex 1539.6513671875 12579.744140625 3999.973388671875
  endloop
endfacet
facet normal -0.9533307552337646 0.3019278347492218 2.550823788305401e-11
  outer loop
    vertex 1677.371337890625 13027.361328125 3999.973388671875
    vertex 1539.6513671875 12579.744140625 4499.9599609375
    vertex 1677.371337890625 13027.361328125 4499.9599609375
  endloop
endfacet
facet normal -0.9309533834457397 0.3651380836963654 2.482762433142494e-11
  outer loop
    vertex 1677.371337890625 13027.361328125 4499.9599609375
    vertex 2395.784423828125 14912.806640625 3999.973388671875
    vertex 1677.371337890625 13027.361328125 3999.973388671875
  endloop
endfacet
facet normal -0.9309533834457397 0.3651380836963654 2.482762433142494e-11
  outer loop
    vertex 2395.784423828125 14912.806640625 3999.973388671875
    vertex 1677.371337890625 13027.361328125 4499.9599609375
    vertex 2395.784423828125 14912.806640625 4499.9599609375
  endloop
endfacet
facet normal -0.9309533834457397 0.3651380836963654 2.482762433142494e-11
  outer loop
    vertex 2395.784423828125 14912.806640625 4499.9599609375
    vertex 2440.71533203125 15030.7255859375 3999.973388671875
    vertex 2395.784423828125 14912.806640625 3999.973388671875
  endloop
endfacet
facet normal -0.9309533834457397 0.3651380836963654 2.482762433142494e-11
  outer loop
    vertex 2440.71533203125 15030.7255859375 3999.973388671875
    vertex 2395.784423828125 14912.806640625 4499.9599609375
    vertex 2440.71533203125 15030.7255859375 4499.9599609375
  endloop
endfacet
facet normal -7.738273563595577e-12 1 -1.164519327322144e-12
  outer loop
    vertex 2440.71533203125 15030.7255859375 4499.9599609375
    vertex 2499.931640625 15030.7255859375 3999.973388671875
    vertex 2440.71533203125 15030.7255859375 3999.973388671875
  endloop
endfacet
facet normal -7.738273563595577e-12 1 -1.164519327322144e-12
  outer loop
    vertex 2499.931640625 15030.7255859375 3999.973388671875
    vertex 2440.71533203125 15030.7255859375 4499.9599609375
    vertex 2499.931640625 15030.7255859375 4499.9599609375
  endloop
endfacet
facet normal 0 1 -1.164519327322144e-12
  outer loop
    vertex 2499.931640625 15030.7255859375 4499.9599609375
    vertex 3349.931640625 15030.7255859375 3999.973388671875
    vertex 2499.931640625 15030.7255859375 3999.973388671875
  endloop
endfacet
facet normal 0 1 -1.164519327322144e-12
  outer loop
    vertex 3349.931640625 15030.7255859375 3999.973388671875
    vertex 2499.931640625 15030.7255859375 4499.9599609375
    vertex 3349.931640625 15030.7255859375 4499.9599609375
  endloop
endfacet
facet normal 0 1 -1.164519327322144e-12
  outer loop
    vertex 3349.931640625 15030.7255859375 4499.9599609375
    vertex 8693.3935546875 15030.7255859375 3999.973388671875
    vertex 3349.931640625 15030.7255859375 3999.973388671875
  endloop
endfacet
facet normal 0 1 -1.164519327322144e-12
  outer loop
    vertex 8693.3935546875 15030.7255859375 3999.973388671875
    vertex 3349.931640625 15030.7255859375 4499.9599609375
    vertex 8693.3935546875 15030.7255859375 4399.9599609375
  endloop
endfacet
facet normal 0 1 -1.164519327322144e-12
  outer loop
    vertex 8693.3935546875 15030.7255859375 4399.9599609375
    vertex 3349.931640625 15030.7255859375 4499.9599609375
    vertex 8693.3935546875 15030.7255859375 4499.9599609375
  endloop
endfacet
facet normal 7.186556037763747e-13 1 -1.164519327322144e-12
  outer loop
    vertex 8693.3935546875 15030.7255859375 3999.973388671875
    vertex 8749.931640625 15030.7255859375 4399.97314453125
    vertex 8749.931640625 15030.7255859375 3999.973388671875
  endloop
endfacet
facet normal 7.186556037763747e-13 1 -1.164519327322144e-12
  outer loop
    vertex 8749.931640625 15030.7255859375 4399.97314453125
    vertex 8693.3935546875 15030.7255859375 3999.973388671875
    vertex 8693.3935546875 15030.7255859375 4399.9599609375
  endloop
endfacet
facet normal -8.603088944361681e-13 1 -1.164519327322144e-12
  outer loop
    vertex 8693.3935546875 14295.853515625 3999.973388671875
    vertex 10979.1171875 14295.853515625 4499.9599609375
    vertex 10979.1171875 14295.853515625 3999.973388671875
  endloop
endfacet
facet normal -8.603088944361681e-13 1 -1.164519327322144e-12
  outer loop
    vertex 10979.1171875 14295.853515625 4499.9599609375
    vertex 8693.3935546875 14295.853515625 3999.973388671875
    vertex 8693.3935546875 14295.853515625 4499.9599609375
  endloop
endfacet
facet normal 1 -1.009823599523382e-13 -2.712577731878163e-11
  outer loop
    vertex 10979.1171875 14295.853515625 3999.973388671875
    vertex 10979.1171875 12037.7275390625 4499.9599609375
    vertex 10979.1171875 12037.7275390625 3999.973388671875
  endloop
endfacet
facet normal 1 -1.009823599523382e-13 -2.712577731878163e-11
  outer loop
    vertex 10979.1171875 12037.7275390625 4499.9599609375
    vertex 10979.1171875 14295.853515625 3999.973388671875
    vertex 10979.1171875 14295.853515625 4499.9599609375
  endloop
endfacet
facet normal 1 -2.920318284069245e-12 -2.712577731878163e-11
  outer loop
    vertex 10979.1171875 12037.7275390625 3999.973388671875
    vertex 10979.1171875 9196.9150390625 4499.9599609375
    vertex 10979.1171875 9196.9150390625 3999.973388671875
  endloop
endfacet
facet normal 1 -2.920318284069245e-12 -2.712577731878163e-11
  outer loop
    vertex 10979.1171875 9196.9150390625 4499.9599609375
    vertex 10979.1171875 12037.7275390625 3999.973388671875
    vertex 10979.1171875 12037.7275390625 4499.9599609375
  endloop
endfacet
facet normal 1 1.556437869902618e-23 -2.712577731878163e-11
  outer loop
    vertex 10979.1171875 9196.9150390625 3999.973388671875
    vertex 10979.1171875 7776.50927734375 4499.9599609375
    vertex 10979.1171875 7776.50927734375 3999.973388671875
  endloop
endfacet
facet normal 1 1.556437869902618e-23 -2.712577731878163e-11
  outer loop
    vertex 10979.1171875 7776.50927734375 4499.9599609375
    vertex 10979.1171875 9196.9150390625 3999.973388671875
    vertex 10979.1171875 9196.9150390625 4499.9599609375
  endloop
endfacet
facet normal 1 -8.45802703049181e-13 -2.712577731878163e-11
  outer loop
    vertex 10979.1171875 7776.50927734375 3999.973388671875
    vertex 10979.1171875 5172.38330078125 4499.9599609375
    vertex 10979.1171875 5172.38330078125 3999.973388671875
  endloop
endfacet
facet normal 1 -8.45802703049181e-13 -2.712577731878163e-11
  outer loop
    vertex 10979.1171875 5172.38330078125 4499.9599609375
    vertex 10979.1171875 7776.50927734375 3999.973388671875
    vertex 10979.1171875 7776.50927734375 4499.9599609375
  endloop
endfacet
facet normal 1 1.368008787847041e-12 -2.712577731878163e-11
  outer loop
    vertex 10979.1171875 5172.38330078125 3999.973388671875
    vertex 10979.1171875 2568.25732421875 4499.9599609375
    vertex 10979.1171875 2568.25732421875 3999.973388671875
  endloop
endfacet
facet normal 1 1.368008787847041e-12 -2.712577731878163e-11
  outer loop
    vertex 10979.1171875 2568.25732421875 4499.9599609375
    vertex 10979.1171875 5172.38330078125 3999.973388671875
    vertex 10979.1171875 5172.38330078125 4499.9599609375
  endloop
endfacet
facet normal -8.038130379274433e-23 -1 1.164519327322144e-12
  outer loop
    vertex 10979.1171875 2568.25732421875 3999.973388671875
    vertex 10968.8505859375 2568.25732421875 4499.9599609375
    vertex 10968.8505859375 2568.25732421875 3999.973388671875
  endloop
endfacet
facet normal -8.038130379274433e-23 -1 1.164519327322144e-12
  outer loop
    vertex 10968.8505859375 2568.25732421875 4499.9599609375
    vertex 10979.1171875 2568.25732421875 3999.973388671875
    vertex 10979.1171875 2568.25732421875 4499.9599609375
  endloop
endfacet
facet normal 0.5321916937828064 -0.8466238975524902 -1.345020449183831e-11
  outer loop
    vertex 10968.8505859375 2568.25732421875 3999.973388671875
    vertex 10878.1904296875 2509.594482421875 4499.9599609375
    vertex 10878.1904296875 2509.594482421875 3999.973388671875
  endloop
endfacet
facet normal 0.5321916937828064 -0.8466238975524902 -1.345020449183831e-11
  outer loop
    vertex 10878.1904296875 2509.594482421875 4499.9599609375
    vertex 10968.8505859375 2568.25732421875 3999.973388671875
    vertex 10968.8505859375 2568.25732421875 4499.9599609375
  endloop
endfacet
facet normal 0.5321916937828064 -0.8466238975524902 -1.345020449183831e-11
  outer loop
    vertex 10878.1904296875 2509.594482421875 4499.9599609375
    vertex 10098.306640625 2004.960693359375 3999.973388671875
    vertex 10878.1904296875 2509.594482421875 3999.973388671875
  endloop
endfacet
facet normal 0.5321916937828064 -0.8466238975524902 -1.345020449183831e-11
  outer loop
    vertex 10098.306640625 2004.960693359375 3999.973388671875
    vertex 10878.1904296875 2509.594482421875 4499.9599609375
    vertex 10098.306640625 2004.960693359375 4499.9599609375
  endloop
endfacet
facet normal 0.475736141204834 -0.8795880675315857 -1.188041505451043e-11
  outer loop
    vertex 10098.306640625 2004.960693359375 4499.9599609375
    vertex 9287.3857421875 1553.484741210938 3999.973388671875
    vertex 10098.306640625 2004.960693359375 3999.973388671875
  endloop
endfacet
facet normal 0.475736141204834 -0.8795880675315857 -1.188041505451043e-11
  outer loop
    vertex 9287.3857421875 1553.484741210938 3999.973388671875
    vertex 10098.306640625 2004.960693359375 4499.9599609375
    vertex 9287.3857421875 1553.484741210938 4499.9599609375
  endloop
endfacet
facet normal 0.4173418879508972 -0.908749520778656 -1.026246709140421e-11
  outer loop
    vertex 9287.3857421875 1553.484741210938 4499.9599609375
    vertex 8448.94140625 1157.123657226562 3999.973388671875
    vertex 9287.3857421875 1553.484741210938 3999.973388671875
  endloop
endfacet
facet normal 0.4173418879508972 -0.908749520778656 -1.026246709140421e-11
  outer loop
    vertex 8448.94140625 1157.123657226562 3999.973388671875
    vertex 9287.3857421875 1553.484741210938 4499.9599609375
    vertex 8448.94140625 1157.123657226562 4499.9599609375
  endloop
endfacet
facet normal 0.3572576344013214 -0.9340058565139771 -8.603223168590635e-12
  outer loop
    vertex 8448.94140625 1157.123657226562 4499.9599609375
    vertex 7850.32373046875 921.428955078125 3999.973388671875
    vertex 8448.94140625 1157.123657226562 3999.973388671875
  endloop
endfacet
facet normal 0.3572576344013214 -0.9340058565139771 -8.603223168590635e-12
  outer loop
    vertex 7850.32373046875 921.428955078125 3999.973388671875
    vertex 8448.94140625 1157.123657226562 4499.9599609375
    vertex 7850.32373046875 921.428955078125 4499.9599609375
  endloop
endfacet
facet normal 0.3572576344013214 -0.9340058565139771 -8.603223168590635e-12
  outer loop
    vertex 7850.32373046875 921.428955078125 3999.973388671875
    vertex 7586.60791015625 817.5953979492188 4499.9599609375
    vertex 7586.60791015625 817.5953979492188 3999.973388671875
  endloop
endfacet
facet normal 0.3572576344013214 -0.9340058565139771 -8.603223168590635e-12
  outer loop
    vertex 7586.60791015625 817.5953979492188 4499.9599609375
    vertex 7850.32373046875 921.428955078125 3999.973388671875
    vertex 7850.32373046875 921.428955078125 4499.9599609375
  endloop
endfacet
facet normal 0.2957347631454468 -0.9552701115608215 -6.909604832738836e-12
  outer loop
    vertex 7586.60791015625 817.5953979492188 4499.9599609375
    vertex 6704.123046875 536.3715209960938 3999.973388671875
    vertex 7586.60791015625 817.5953979492188 3999.973388671875
  endloop
endfacet
facet normal 0.2957347631454468 -0.9552701115608215 -6.909604832738836e-12
  outer loop
    vertex 6704.123046875 536.3715209960938 3999.973388671875
    vertex 7586.60791015625 817.5953979492188 4499.9599609375
    vertex 6704.123046875 536.3715209960938 4499.9599609375
  endloop
endfacet
facet normal 1 3.662168970310596e-15 -2.712577731878163e-11
  outer loop
    vertex 8693.3935546875 15030.7255859375 3999.973388671875
    vertex 8693.3935546875 14295.853515625 4499.9599609375
    vertex 8693.3935546875 14295.853515625 3999.973388671875
  endloop
endfacet
facet normal 1 3.662168970310596e-15 -2.712577731878163e-11
  outer loop
    vertex 8693.3935546875 14295.853515625 4499.9599609375
    vertex 8693.3935546875 15030.7255859375 3999.973388671875
    vertex 8693.3935546875 15030.7255859375 4399.9599609375
  endloop
endfacet
facet normal 1 3.662168970310596e-15 -2.712577731878163e-11
  outer loop
    vertex 8693.3935546875 14295.853515625 4499.9599609375
    vertex 8693.3935546875 15030.7255859375 4399.9599609375
    vertex 8693.3935546875 15030.7255859375 4499.9599609375
  endloop
endfacet
facet normal 2.712577731878163e-11 1.198714196480599e-12 1
  outer loop
    vertex 0.6857943534851074 3111.439697265625 4499.9599609375
    vertex 1.508188009262085 3152.41357421875 4499.9599609375
    vertex 9.659310080678551e-07 3111.426025390625 4499.9599609375
  endloop
endfacet
facet normal 2.712577731878163e-11 1.198714196480599e-12 1
  outer loop
    vertex 1.508188009262085 3152.41357421875 4499.9599609375
    vertex 0.6857943534851074 3111.439697265625 4499.9599609375
    vertex 1.501542448997498 3069.3427734375 4499.9599609375
  endloop
endfacet
facet normal 2.712577731878163e-11 1.198714196480599e-12 1
  outer loop
    vertex 6.455878257751465 2907.16650390625 4499.9599609375
    vertex 1.501542448997498 3069.3427734375 4499.9599609375
    vertex 1.228366017341614 3069.33740234375 4499.9599609375
  endloop
endfacet
facet normal 2.712577731878163e-11 1.198714196480599e-12 1
  outer loop
    vertex 1.501542448997498 3069.3427734375 4499.9599609375
    vertex 6.455878257751465 2907.16650390625 4499.9599609375
    vertex 1.508188009262085 3152.41357421875 4499.9599609375
  endloop
endfacet
facet normal 2.712577731878163e-11 1.198714196480599e-12 1
  outer loop
    vertex 1.508188009262085 3152.41357421875 4499.9599609375
    vertex 6.455878257751465 2907.16650390625 4499.9599609375
    vertex 70.35819244384766 5023.53173828125 4499.9599609375
  endloop
endfacet
facet normal 2.712577731878163e-11 1.198714196480599e-12 1
  outer loop
    vertex 70.35819244384766 5023.53173828125 4499.9599609375
    vertex 6.455878257751465 2907.16650390625 4499.9599609375
    vertex 26.01446151733398 2705.632568359375 4499.9599609375
  endloop
endfacet
facet normal 2.712577731878163e-11 1.198714196480599e-12 1
  outer loop
    vertex 70.35819244384766 5023.53173828125 4499.9599609375
    vertex 26.01446151733398 2705.632568359375 4499.9599609375
    vertex 58.52357482910156 2505.828369140625 4499.9599609375
  endloop
endfacet
facet normal 2.712577731878163e-11 1.198714196480599e-12 1
  outer loop
    vertex 70.35819244384766 5023.53173828125 4499.9599609375
    vertex 58.52357482910156 2505.828369140625 4499.9599609375
    vertex 103.843994140625 2308.609130859375 4499.9599609375
  endloop
endfacet
facet normal 2.712577731878163e-11 1.198714196480599e-12 1
  outer loop
    vertex 70.35819244384766 5023.53173828125 4499.9599609375
    vertex 103.843994140625 2308.609130859375 4499.9599609375
    vertex 74.26071166992188 5129.58935546875 4499.9599609375
  endloop
endfacet
facet normal 2.712577731878163e-11 1.198714196480599e-12 1
  outer loop
    vertex 74.26071166992188 5129.58935546875 4499.9599609375
    vertex 103.843994140625 2308.609130859375 4499.9599609375
    vertex 277.9593200683594 7116.73291015625 4499.9599609375
  endloop
endfacet
facet normal 2.712577731878163e-11 1.198714196480599e-12 1
  outer loop
    vertex 277.9593200683594 7116.73291015625 4499.9599609375
    vertex 103.843994140625 2308.609130859375 4499.9599609375
    vertex 142.2222900390625 2180.241455078125 4499.9599609375
  endloop
endfacet
facet normal 2.712577731878163e-11 1.198714196480599e-12 1
  outer loop
    vertex 277.9593200683594 7116.73291015625 4499.9599609375
    vertex 142.2222900390625 2180.241455078125 4499.9599609375
    vertex 161.7816162109375 2114.819580078125 4499.9599609375
  endloop
endfacet
facet normal 2.712577731878163e-11 1.198714196480599e-12 1
  outer loop
    vertex 277.9593200683594 7116.73291015625 4499.9599609375
    vertex 161.7816162109375 2114.819580078125 4499.9599609375
    vertex 232.0883331298828 1925.289916992188 4499.9599609375
  endloop
endfacet
facet normal 2.712577731878163e-11 1.198714196480599e-12 1
  outer loop
    vertex 277.9593200683594 7116.73291015625 4499.9599609375
    vertex 232.0883331298828 1925.289916992188 4499.9599609375
    vertex 314.4630126953125 1740.831787109375 4499.9599609375
  endloop
endfacet
facet normal 2.712577731878163e-11 1.198714196480599e-12 1
  outer loop
    vertex 277.9593200683594 7116.73291015625 4499.9599609375
    vertex 314.4630126953125 1740.831787109375 4499.9599609375
    vertex 280.3622741699219 7140.17431640625 4499.9599609375
  endloop
endfacet
facet normal 2.712577731878163e-11 1.198714196480599e-12 1
  outer loop
    vertex 280.3622741699219 7140.17431640625 4499.9599609375
    vertex 314.4630126953125 1740.831787109375 4499.9599609375
    vertex 617.3302001953125 9132.484375 4499.9599609375
  endloop
endfacet
facet normal 2.712577731878163e-11 1.198714196480599e-12 1
  outer loop
    vertex 617.3302001953125 9132.484375 4499.9599609375
    vertex 314.4630126953125 1740.831787109375 4499.9599609375
    vertex 408.5528869628906 1562.234985351562 4499.9599609375
  endloop
endfacet
facet normal 2.712577731878163e-11 1.198714196480599e-12 1
  outer loop
    vertex 617.3302001953125 9132.484375 4499.9599609375
    vertex 408.5528869628906 1562.234985351562 4499.9599609375
    vertex 513.9550170898438 1390.264526367188 4499.9599609375
  endloop
endfacet
facet normal 2.712577731878163e-11 1.198714196480599e-12 1
  outer loop
    vertex 617.3302001953125 9132.484375 4499.9599609375
    vertex 513.9550170898438 1390.264526367188 4499.9599609375
    vertex 577.6869506835938 1300.031372070312 4499.9599609375
  endloop
endfacet
facet normal 2.712577731878163e-11 1.198714196480599e-12 1
  outer loop
    vertex 617.3302001953125 9132.484375 4499.9599609375
    vertex 577.6869506835938 1300.031372070312 4499.9599609375
    vertex 630.2179565429688 1225.656860351562 4499.9599609375
  endloop
endfacet
facet normal 2.712577731878163e-11 1.198714196480599e-12 1
  outer loop
    vertex 617.3302001953125 9132.484375 4499.9599609375
    vertex 630.2179565429688 1225.656860351562 4499.9599609375
    vertex 956.5071411132812 10561.8212890625 4499.9599609375
  endloop
endfacet
facet normal 2.712577731878163e-11 1.198714196480599e-12 1
  outer loop
    vertex 956.5071411132812 10561.8212890625 4499.9599609375
    vertex 630.2179565429688 1225.656860351562 4499.9599609375
    vertex 756.8438110351562 1069.116943359375 4499.9599609375
  endloop
endfacet
facet normal 2.712577731878163e-11 1.198714196480599e-12 1
  outer loop
    vertex 956.5071411132812 10561.8212890625 4499.9599609375
    vertex 756.8438110351562 1069.116943359375 4499.9599609375
    vertex 893.290283203125 921.315185546875 4499.9599609375
  endloop
endfacet
facet normal 2.712577731878163e-11 1.198714196480599e-12 1
  outer loop
    vertex 956.5071411132812 10561.8212890625 4499.9599609375
    vertex 893.290283203125 921.315185546875 4499.9599609375
    vertex 1038.972900390625 782.8846435546875 4499.9599609375
  endloop
endfacet
facet normal 2.712577731878163e-11 1.198714196480599e-12 1
  outer loop
    vertex 956.5071411132812 10561.8212890625 4499.9599609375
    vertex 1038.972900390625 782.8846435546875 4499.9599609375
    vertex 1083.683227539062 11097.7587890625 4499.9599609375
  endloop
endfacet
facet normal 2.712577731878163e-11 1.198714196480599e-12 1
  outer loop
    vertex 1083.683227539062 11097.7587890625 4499.9599609375
    vertex 1038.972900390625 782.8846435546875 4499.9599609375
    vertex 1193.267944335938 654.4180908203125 4499.9599609375
  endloop
endfacet
facet normal 2.712577731878163e-11 1.198714196480599e-12 1
  outer loop
    vertex 1083.683227539062 11097.7587890625 4499.9599609375
    vertex 1193.267944335938 654.4180908203125 4499.9599609375
    vertex 1539.6513671875 12579.744140625 4499.9599609375
  endloop
endfacet
facet normal 2.712577731878163e-11 1.198714196480599e-12 1
  outer loop
    vertex 1539.6513671875 12579.744140625 4499.9599609375
    vertex 1193.267944335938 654.4180908203125 4499.9599609375
    vertex 1264.495239257812 602.6363525390625 4499.9599609375
  endloop
endfacet
facet normal 2.712577731878163e-11 1.198714196480599e-12 1
  outer loop
    vertex 1539.6513671875 12579.744140625 4499.9599609375
    vertex 1264.495239257812 602.6363525390625 4499.9599609375
    vertex 1355.514526367188 536.4657592773438 4499.9599609375
  endloop
endfacet
facet normal 2.712577731878163e-11 1.198714196480599e-12 1
  outer loop
    vertex 1539.6513671875 12579.744140625 4499.9599609375
    vertex 1355.514526367188 536.4657592773438 4499.9599609375
    vertex 1525.017822265625 429.5328369140625 4499.9599609375
  endloop
endfacet
facet normal 2.712577731878163e-11 1.198714196480599e-12 1
  outer loop
    vertex 1539.6513671875 12579.744140625 4499.9599609375
    vertex 1525.017822265625 429.5328369140625 4499.9599609375
    vertex 1701.051879882812 334.0772094726562 4499.9599609375
  endloop
endfacet
facet normal 2.712577731878163e-11 1.198714196480599e-12 1
  outer loop
    vertex 1539.6513671875 12579.744140625 4499.9599609375
    vertex 1701.051879882812 334.0772094726562 4499.9599609375
    vertex 1677.371337890625 13027.361328125 4499.9599609375
  endloop
endfacet
facet normal 2.712577731878163e-11 1.198714196480599e-12 1
  outer loop
    vertex 1677.371337890625 13027.361328125 4499.9599609375
    vertex 1701.051879882812 334.0772094726562 4499.9599609375
    vertex 2395.784423828125 14912.806640625 4499.9599609375
  endloop
endfacet
facet normal 2.712577731878163e-11 1.198714196480599e-12 1
  outer loop
    vertex 2395.784423828125 14912.806640625 4499.9599609375
    vertex 1701.051879882812 334.0772094726562 4499.9599609375
    vertex 1882.862670898438 250.5077362060547 4499.9599609375
  endloop
endfacet
facet normal 2.712577731878163e-11 1.198714196480599e-12 1
  outer loop
    vertex 2395.784423828125 14912.806640625 4499.9599609375
    vertex 1882.862670898438 250.5077362060547 4499.9599609375
    vertex 2069.671630859375 179.1822967529297 4499.9599609375
  endloop
endfacet
facet normal 2.712577731878163e-11 1.198714196480599e-12 1
  outer loop
    vertex 2395.784423828125 14912.806640625 4499.9599609375
    vertex 2069.671630859375 179.1822967529297 4499.9599609375
    vertex 2131.935302734375 160.0228118896484 4499.9599609375
  endloop
endfacet
facet normal 2.712577731878163e-11 1.198714196480599e-12 1
  outer loop
    vertex 2395.784423828125 14912.806640625 4499.9599609375
    vertex 2131.935302734375 160.0228118896484 4499.9599609375
    vertex 2209.52294921875 136.212158203125 4499.9599609375
  endloop
endfacet
facet normal 2.712577731878163e-11 1.198714196480599e-12 1
  outer loop
    vertex 2395.784423828125 14912.806640625 4499.9599609375
    vertex 2209.52294921875 136.212158203125 4499.9599609375
    vertex 2287.71142578125 114.5183563232422 4499.9599609375
  endloop
endfacet
facet normal 2.712577731878163e-11 1.198714196480599e-12 1
  outer loop
    vertex 2395.784423828125 14912.806640625 4499.9599609375
    vertex 2287.71142578125 114.5183563232422 4499.9599609375
    vertex 2366.4443359375 94.95697784423828 4499.9599609375
  endloop
endfacet
facet normal 2.712577731878163e-11 1.198714196480599e-12 1
  outer loop
    vertex 2395.784423828125 14912.806640625 4499.9599609375
    vertex 2366.4443359375 94.95697784423828 4499.9599609375
    vertex 2445.66552734375 77.54206085205078 4499.9599609375
  endloop
endfacet
facet normal 2.712577731878163e-11 1.198714196480599e-12 1
  outer loop
    vertex 2395.784423828125 14912.806640625 4499.9599609375
    vertex 2445.66552734375 77.54206085205078 4499.9599609375
    vertex 2440.71533203125 15030.7255859375 4499.9599609375
  endloop
endfacet
facet normal 2.712577731878163e-11 1.198714196480599e-12 1
  outer loop
    vertex 2440.71533203125 15030.7255859375 4499.9599609375
    vertex 2445.66552734375 77.54206085205078 4499.9599609375
    vertex 2499.931640625 15030.7255859375 4499.9599609375
  endloop
endfacet
facet normal 2.712577731878163e-11 1.198714196480599e-12 1
  outer loop
    vertex 2499.931640625 15030.7255859375 4499.9599609375
    vertex 2445.66552734375 77.54206085205078 4499.9599609375
    vertex 2525.318115234375 62.28609466552734 4499.9599609375
  endloop
endfacet
facet normal 2.712577731878163e-11 1.198714196480599e-12 1
  outer loop
    vertex 2499.931640625 15030.7255859375 4499.9599609375
    vertex 2525.318115234375 62.28609466552734 4499.9599609375
    vertex 3349.931640625 15030.7255859375 4499.9599609375
  endloop
endfacet
facet normal 2.712577731878163e-11 1.198714196480599e-12 1
  outer loop
    vertex 3349.931640625 15030.7255859375 4499.9599609375
    vertex 2525.318115234375 62.28609466552734 4499.9599609375
    vertex 2605.3447265625 49.20002746582031 4499.9599609375
  endloop
endfacet
facet normal 2.712577731878163e-11 1.198714196480599e-12 1
  outer loop
    vertex 3349.931640625 15030.7255859375 4499.9599609375
    vertex 2605.3447265625 49.20002746582031 4499.9599609375
    vertex 2685.688232421875 38.29324722290039 4499.9599609375
  endloop
endfacet
facet normal 2.712577731878163e-11 1.198714196480599e-12 1
  outer loop
    vertex 3349.931640625 15030.7255859375 4499.9599609375
    vertex 2685.688232421875 38.29324722290039 4499.9599609375
    vertex 2766.290771484375 29.57358169555664 4499.9599609375
  endloop
endfacet
facet normal 2.712577731878163e-11 1.198714196480599e-12 1
  outer loop
    vertex 3349.931640625 15030.7255859375 4499.9599609375
    vertex 2766.290771484375 29.57358169555664 4499.9599609375
    vertex 2847.094482421875 23.04728317260742 4499.9599609375
  endloop
endfacet
facet normal 2.712577731878163e-11 1.198714196480599e-12 1
  outer loop
    vertex 3349.931640625 15030.7255859375 4499.9599609375
    vertex 2847.094482421875 23.04728317260742 4499.9599609375
    vertex 2928.04150390625 18.71903610229492 4499.9599609375
  endloop
endfacet
facet normal 2.712577731878163e-11 1.198714196480599e-12 1
  outer loop
    vertex 3349.931640625 15030.7255859375 4499.9599609375
    vertex 2928.04150390625 18.71903610229492 4499.9599609375
    vertex 3009.07373046875 16.59194374084473 4499.9599609375
  endloop
endfacet
facet normal 2.712577731878163e-11 1.198714196480599e-12 1
  outer loop
    vertex 3349.931640625 15030.7255859375 4499.9599609375
    vertex 3009.07373046875 16.59194374084473 4499.9599609375
    vertex 3090.133056640625 16.66753387451172 4499.9599609375
  endloop
endfacet
facet normal 2.712577731878163e-11 1.198714196480599e-12 1
  outer loop
    vertex 3349.931640625 15030.7255859375 4499.9599609375
    vertex 3090.133056640625 16.66753387451172 4499.9599609375
    vertex 3974.349609375 53.4214973449707 4499.9599609375
  endloop
endfacet
facet normal 2.712577731878163e-11 1.198714196480599e-12 1
  outer loop
    vertex 3349.931640625 15030.7255859375 4499.9599609375
    vertex 3974.349609375 53.4214973449707 4499.9599609375
    vertex 8693.3935546875 15030.7255859375 4499.9599609375
  endloop
endfacet
facet normal 2.712577731878163e-11 1.198714196480599e-12 1
  outer loop
    vertex 8693.3935546875 15030.7255859375 4499.9599609375
    vertex 3974.349609375 53.4214973449707 4499.9599609375
    vertex 4894.0712890625 153.4547424316406 4499.9599609375
  endloop
endfacet
facet normal 2.712577731878163e-11 1.198714196480599e-12 1
  outer loop
    vertex 8693.3935546875 15030.7255859375 4499.9599609375
    vertex 4894.0712890625 153.4547424316406 4499.9599609375
    vertex 5805.3125 314.6710205078125 4499.9599609375
  endloop
endfacet
facet normal 2.712577731878163e-11 1.198714196480599e-12 1
  outer loop
    vertex 8693.3935546875 15030.7255859375 4499.9599609375
    vertex 5805.3125 314.6710205078125 4499.9599609375
    vertex 5875.25537109375 331.9231262207031 4499.9599609375
  endloop
endfacet
facet normal 2.712577731878163e-11 1.198714196480599e-12 1
  outer loop
    vertex 8693.3935546875 15030.7255859375 4499.9599609375
    vertex 5875.25537109375 331.9231262207031 4499.9599609375
    vertex 6704.123046875 536.3715209960938 4499.9599609375
  endloop
endfacet
facet normal 2.712577731878163e-11 1.198714196480599e-12 1
  outer loop
    vertex 8693.3935546875 15030.7255859375 4499.9599609375
    vertex 6704.123046875 536.3715209960938 4499.9599609375
    vertex 7586.60791015625 817.5953979492188 4499.9599609375
  endloop
endfacet
facet normal 2.712577731878163e-11 1.198714196480599e-12 1
  outer loop
    vertex 8693.3935546875 15030.7255859375 4499.9599609375
    vertex 7586.60791015625 817.5953979492188 4499.9599609375
    vertex 7850.32373046875 921.428955078125 4499.9599609375
  endloop
endfacet
facet normal 2.712577731878163e-11 1.198714196480599e-12 1
  outer loop
    vertex 8693.3935546875 15030.7255859375 4499.9599609375
    vertex 7850.32373046875 921.428955078125 4499.9599609375
    vertex 8448.94140625 1157.123657226562 4499.9599609375
  endloop
endfacet
facet normal 2.712577731878163e-11 1.198714196480599e-12 1
  outer loop
    vertex 8693.3935546875 15030.7255859375 4499.9599609375
    vertex 8448.94140625 1157.123657226562 4499.9599609375
    vertex 8693.3935546875 14295.853515625 4499.9599609375
  endloop
endfacet
facet normal 2.712577731878163e-11 1.198714196480599e-12 1
  outer loop
    vertex 8693.3935546875 14295.853515625 4499.9599609375
    vertex 8448.94140625 1157.123657226562 4499.9599609375
    vertex 9287.3857421875 1553.484741210938 4499.9599609375
  endloop
endfacet
facet normal 2.712577731878163e-11 1.198714196480599e-12 1
  outer loop
    vertex 8693.3935546875 14295.853515625 4499.9599609375
    vertex 9287.3857421875 1553.484741210938 4499.9599609375
    vertex 10979.1171875 14295.853515625 4499.9599609375
  endloop
endfacet
facet normal 2.712577731878163e-11 1.198714196480599e-12 1
  outer loop
    vertex 10979.1171875 14295.853515625 4499.9599609375
    vertex 9287.3857421875 1553.484741210938 4499.9599609375
    vertex 10098.306640625 2004.960693359375 4499.9599609375
  endloop
endfacet
facet normal 2.712577731878163e-11 1.198714196480599e-12 1
  outer loop
    vertex 10979.1171875 14295.853515625 4499.9599609375
    vertex 10098.306640625 2004.960693359375 4499.9599609375
    vertex 10878.1904296875 2509.594482421875 4499.9599609375
  endloop
endfacet
facet normal 2.712577731878163e-11 1.198714196480599e-12 1
  outer loop
    vertex 10979.1171875 14295.853515625 4499.9599609375
    vertex 10878.1904296875 2509.594482421875 4499.9599609375
    vertex 10968.8505859375 2568.25732421875 4499.9599609375
  endloop
endfacet
facet normal 2.712577731878163e-11 1.198714196480599e-12 1
  outer loop
    vertex 10979.1171875 14295.853515625 4499.9599609375
    vertex 10968.8505859375 2568.25732421875 4499.9599609375
    vertex 10979.1171875 5172.38330078125 4499.9599609375
  endloop
endfacet
facet normal 2.712577731878163e-11 1.198714196480599e-12 1
  outer loop
    vertex 10979.1171875 5172.38330078125 4499.9599609375
    vertex 10968.8505859375 2568.25732421875 4499.9599609375
    vertex 10979.1171875 2568.25732421875 4499.9599609375
  endloop
endfacet
facet normal 2.712577731878163e-11 1.198714196480599e-12 1
  outer loop
    vertex 10979.1171875 14295.853515625 4499.9599609375
    vertex 10979.1171875 9196.9150390625 4499.9599609375
    vertex 10979.1171875 12037.7275390625 4499.9599609375
  endloop
endfacet
facet normal 2.712577731878163e-11 1.198714196480599e-12 1
  outer loop
    vertex 10979.1171875 9196.9150390625 4499.9599609375
    vertex 10979.1171875 14295.853515625 4499.9599609375
    vertex 10979.1171875 5172.38330078125 4499.9599609375
  endloop
endfacet
facet normal 2.712577731878163e-11 1.198714196480599e-12 1
  outer loop
    vertex 10979.1171875 9196.9150390625 4499.9599609375
    vertex 10979.1171875 5172.38330078125 4499.9599609375
    vertex 10979.1171875 7776.50927734375 4499.9599609375
  endloop
endfacet
endsolid com.sketchup.SketchUp.2019
