solid com.sketchup.SketchUp.2019
facet normal 3.48656840287731e-07 -5.918727197240514e-07 -1
  outer loop
    vertex 39889.96484375 14574.8095703125 4149.98681640625
    vertex 20790.71484375 3124.8095703125 4149.98681640625
    vertex 20790.71484375 14574.8095703125 4149.98681640625
  endloop
endfacet
facet normal 3.48656840287731e-07 -5.918727197240514e-07 -1
  outer loop
    vertex 20790.71484375 3124.8095703125 4149.98681640625
    vertex 39889.96484375 14574.8095703125 4149.98681640625
    vertex 39889.96484375 3124.8095703125 4150
  endloop
endfacet
facet normal -3.48656840287731e-07 5.918727197240514e-07 1
  outer loop
    vertex 39889.96484375 3124.809814453125 4550
    vertex 20790.71484375 14574.8095703125 4549.98681640625
    vertex 20790.71484375 3124.809814453125 4549.98681640625
  endloop
endfacet
facet normal -3.48656840287731e-07 5.918727197240514e-07 1
  outer loop
    vertex 20790.71484375 14574.8095703125 4549.98681640625
    vertex 39889.96484375 3124.809814453125 4550
    vertex 39889.96484375 14574.8095703125 4549.98681640625
  endloop
endfacet
facet normal -4.055620856507902e-13 -1 5.815795134367363e-07
  outer loop
    vertex 39889.96484375 3124.8095703125 4150
    vertex 20790.71484375 3124.809814453125 4549.98681640625
    vertex 20790.71484375 3124.8095703125 4149.98681640625
  endloop
endfacet
facet normal -4.055620856507902e-13 -1 5.815795134367363e-07
  outer loop
    vertex 20790.71484375 3124.809814453125 4549.98681640625
    vertex 39889.96484375 3124.8095703125 4150
    vertex 39889.96484375 3124.809814453125 4550
  endloop
endfacet
facet normal -1 -4.365805958679462e-20 -3.48656840287731e-07
  outer loop
    vertex 20790.71484375 3124.809814453125 4549.98681640625
    vertex 20790.71484375 14574.8095703125 4149.98681640625
    vertex 20790.71484375 3124.8095703125 4149.98681640625
  endloop
endfacet
facet normal -1 -4.365805958679462e-20 -3.48656840287731e-07
  outer loop
    vertex 20790.71484375 14574.8095703125 4149.98681640625
    vertex 20790.71484375 3124.809814453125 4549.98681640625
    vertex 20790.71484375 14574.8095703125 4549.98681640625
  endloop
endfacet
facet normal 0 1 -5.815795134367363e-07
  outer loop
    vertex 20790.71484375 14574.8095703125 4549.98681640625
    vertex 39889.96484375 14574.8095703125 4149.98681640625
    vertex 20790.71484375 14574.8095703125 4149.98681640625
  endloop
endfacet
facet normal 0 1 -5.815795134367363e-07
  outer loop
    vertex 39889.96484375 14574.8095703125 4149.98681640625
    vertex 20790.71484375 14574.8095703125 4549.98681640625
    vertex 39889.96484375 14574.8095703125 4549.98681640625
  endloop
endfacet
facet normal 1 4.127209099653861e-13 3.48656840287731e-07
  outer loop
    vertex 39889.96484375 14574.8095703125 4149.98681640625
    vertex 39889.96484375 3124.809814453125 4550
    vertex 39889.96484375 3124.8095703125 4150
  endloop
endfacet
facet normal 1 4.127209099653861e-13 3.48656840287731e-07
  outer loop
    vertex 39889.96484375 3124.809814453125 4550
    vertex 39889.96484375 14574.8095703125 4149.98681640625
    vertex 39889.96484375 14574.8095703125 4549.98681640625
  endloop
endfacet
endsolid com.sketchup.SketchUp.2019
