solid com.sketchup.SketchUp.2019
facet normal -1.786593020809582e-15 -8.33635765940758e-15 -1
  outer loop
    vertex 21990.71484375 16674.810546875 3250
    vertex 22290.837890625 16474.810546875 3250
    vertex 21990.71484375 16474.810546875 3250
  endloop
endfacet
facet normal -1.786593020809582e-15 -8.33635765940758e-15 -1
  outer loop
    vertex 22290.837890625 16474.810546875 3250
    vertex 21990.71484375 16674.810546875 3250
    vertex 27190.71484375 16674.810546875 3250
  endloop
endfacet
facet normal -1.786593020809582e-15 -8.33635765940758e-15 -1
  outer loop
    vertex 22290.837890625 16474.810546875 3250
    vertex 27190.71484375 16674.810546875 3250
    vertex 22290.837890625 14474.8095703125 3250
  endloop
endfacet
facet normal -1.786593020809582e-15 -8.33635765940758e-15 -1
  outer loop
    vertex 22290.837890625 14474.8095703125 3250
    vertex 27190.71484375 16674.810546875 3250
    vertex 27190.71484375 14474.8095703125 3250
  endloop
endfacet
facet normal 1.786593020809582e-15 8.33635765940758e-15 1
  outer loop
    vertex 22290.837890625 16474.810546875 4549.98681640625
    vertex 21990.71484375 16674.810546875 4549.98681640625
    vertex 21990.71484375 16474.810546875 4549.98681640625
  endloop
endfacet
facet normal 1.786593020809582e-15 8.33635765940758e-15 1
  outer loop
    vertex 21990.71484375 16674.810546875 4549.98681640625
    vertex 22290.837890625 16474.810546875 4549.98681640625
    vertex 27190.71484375 16674.810546875 4549.98681640625
  endloop
endfacet
facet normal 1.786593020809582e-15 8.33635765940758e-15 1
  outer loop
    vertex 27190.71484375 16674.810546875 4549.98681640625
    vertex 22290.837890625 16474.810546875 4549.98681640625
    vertex 22290.837890625 14474.8095703125 4549.98681640625
  endloop
endfacet
facet normal 1.786593020809582e-15 8.33635765940758e-15 1
  outer loop
    vertex 27190.71484375 16674.810546875 4549.98681640625
    vertex 22290.837890625 14474.8095703125 4549.98681640625
    vertex 27190.71484375 14474.8095703125 4549.98681640625
  endloop
endfacet
facet normal 0 1 -8.33635765940758e-15
  outer loop
    vertex 21990.71484375 16674.810546875 3250
    vertex 27190.71484375 16674.810546875 4549.98681640625
    vertex 27190.71484375 16674.810546875 3250
  endloop
endfacet
facet normal 0 1 -8.33635765940758e-15
  outer loop
    vertex 27190.71484375 16674.810546875 4549.98681640625
    vertex 21990.71484375 16674.810546875 3250
    vertex 21990.71484375 16674.810546875 4549.98681640625
  endloop
endfacet
facet normal 2.978735636441319e-29 -1 8.33635765940758e-15
  outer loop
    vertex 27190.71484375 14474.8095703125 4549.98681640625
    vertex 22290.837890625 14474.8095703125 3250
    vertex 27190.71484375 14474.8095703125 3250
  endloop
endfacet
facet normal 2.978735636441319e-29 -1 8.33635765940758e-15
  outer loop
    vertex 22290.837890625 14474.8095703125 3250
    vertex 27190.71484375 14474.8095703125 4549.98681640625
    vertex 22290.837890625 14474.8095703125 4549.98681640625
  endloop
endfacet
facet normal 1 -7.370067461011545e-30 -1.786593020809582e-15
  outer loop
    vertex 27190.71484375 16674.810546875 3250
    vertex 27190.71484375 14474.8095703125 4549.98681640625
    vertex 27190.71484375 14474.8095703125 3250
  endloop
endfacet
facet normal 1 -7.370067461011545e-30 -1.786593020809582e-15
  outer loop
    vertex 27190.71484375 14474.8095703125 4549.98681640625
    vertex 27190.71484375 16674.810546875 3250
    vertex 27190.71484375 16674.810546875 4549.98681640625
  endloop
endfacet
facet normal -1 -1.485074948215023e-13 2.598881125494973e-13
  outer loop
    vertex 22290.837890625 14474.8095703125 4549.98681640625
    vertex 22290.837890625 16474.810546875 3250
    vertex 22290.837890625 14474.8095703125 3250
  endloop
endfacet
facet normal -1 -1.485074948215023e-13 2.598881125494973e-13
  outer loop
    vertex 22290.837890625 16474.810546875 3250
    vertex 22290.837890625 14474.8095703125 4549.98681640625
    vertex 22290.837890625 16474.810546875 4549.98681640625
  endloop
endfacet
facet normal -1 1.559328621086875e-12 2.598881125494973e-13
  outer loop
    vertex 21990.71484375 16674.810546875 4549.98681640625
    vertex 21990.71484375 16474.810546875 3250
    vertex 21990.71484375 16474.810546875 4549.98681640625
  endloop
endfacet
facet normal -1 1.559328621086875e-12 2.598881125494973e-13
  outer loop
    vertex 21990.71484375 16474.810546875 3250
    vertex 21990.71484375 16674.810546875 4549.98681640625
    vertex 21990.71484375 16674.810546875 3250
  endloop
endfacet
facet normal -1.559328621086875e-12 -1 8.105019729529727e-25
  outer loop
    vertex 22290.837890625 16474.810546875 4549.98681640625
    vertex 21990.71484375 16474.810546875 3250
    vertex 22290.837890625 16474.810546875 3250
  endloop
endfacet
facet normal -1.559328621086875e-12 -1 8.105019729529727e-25
  outer loop
    vertex 21990.71484375 16474.810546875 3250
    vertex 22290.837890625 16474.810546875 4549.98681640625
    vertex 21990.71484375 16474.810546875 4549.98681640625
  endloop
endfacet
endsolid com.sketchup.SketchUp.2019
