solid com.sketchup.SketchUp.2019
facet normal -2.405760764483556e-14 2.405619377744e-13 -1
  outer loop
    vertex 21726.0546875 16652.173828125 4620
    vertex 20059.384765625 15352.1728515625 4620
    vertex 20059.384765625 16652.173828125 4620
  endloop
endfacet
facet normal -2.405760764483556e-14 2.405619377744e-13 -1
  outer loop
    vertex 20059.384765625 14552.1728515625 4620
    vertex 24642.595703125 14252.1728515625 4620
    vertex 20059.384765625 14252.1728515625 4620
  endloop
endfacet
facet normal -2.405760764483556e-14 2.405619377744e-13 -1
  outer loop
    vertex 24642.595703125 14252.1728515625 4620
    vertex 20059.384765625 14552.1728515625 4620
    vertex 20059.384765625 15352.1728515625 4620
  endloop
endfacet
facet normal -2.405760764483556e-14 2.405619377744e-13 -1
  outer loop
    vertex 24642.595703125 14252.1728515625 4620
    vertex 20059.384765625 15352.1728515625 4620
    vertex 21726.0546875 16652.173828125 4620
  endloop
endfacet
facet normal -2.405760764483556e-14 2.405619377744e-13 -1
  outer loop
    vertex 24642.595703125 14252.1728515625 4620
    vertex 21726.0546875 16652.173828125 4620
    vertex 21830.220703125 16652.173828125 4620
  endloop
endfacet
facet normal -2.405760764483556e-14 2.405619377744e-13 -1
  outer loop
    vertex 24642.595703125 14252.1728515625 4620
    vertex 21830.220703125 16652.173828125 4620
    vertex 23288.556640625 16652.173828125 4620
  endloop
endfacet
facet normal -2.405760764483556e-14 2.405619377744e-13 -1
  outer loop
    vertex 24642.595703125 14252.1728515625 4620
    vertex 23288.556640625 16652.173828125 4620
    vertex 23392.72265625 16652.173828125 4620
  endloop
endfacet
facet normal -2.405760764483556e-14 2.405619377744e-13 -1
  outer loop
    vertex 24642.595703125 14252.1728515625 4620
    vertex 23392.72265625 16652.173828125 4620
    vertex 25059.26171875 16652.173828125 4620
  endloop
endfacet
facet normal -2.405760764483556e-14 2.405619377744e-13 -1
  outer loop
    vertex 24642.595703125 14252.1728515625 4620
    vertex 25059.26171875 16652.173828125 4620
    vertex 25059.26171875 15889.1728515625 4620
  endloop
endfacet
facet normal -2.405760764483556e-14 2.405619377744e-13 -1
  outer loop
    vertex 25059.26171875 14252.1728515625 4620
    vertex 24642.595703125 14252.1728515625 4620
    vertex 25059.26171875 15889.1728515625 4620
  endloop
endfacet
facet normal 1.620735202946186e-14 -2.132577426282312e-13 1
  outer loop
    vertex 25059.26171875 14252.1728515625 5020
    vertex 25059.26171875 15889.1728515625 5020
    vertex 24642.595703125 14252.1728515625 5020
  endloop
endfacet
facet normal 1.620735202946186e-14 -2.132577426282312e-13 1
  outer loop
    vertex 24642.595703125 14252.1728515625 5020
    vertex 20059.384765625 14552.1728515625 5020
    vertex 20059.384765625 14252.1728515625 5020
  endloop
endfacet
facet normal 1.620735202946186e-14 -2.132577426282312e-13 1
  outer loop
    vertex 20059.384765625 14552.1728515625 5020
    vertex 24642.595703125 14252.1728515625 5020
    vertex 20059.384765625 15352.1728515625 5020
  endloop
endfacet
facet normal 1.620735202946186e-14 -2.132577426282312e-13 1
  outer loop
    vertex 20059.384765625 15352.1728515625 5020
    vertex 24642.595703125 14252.1728515625 5020
    vertex 21726.0546875 16652.173828125 5020
  endloop
endfacet
facet normal 1.620735202946186e-14 -2.132577426282312e-13 1
  outer loop
    vertex 21726.0546875 16652.173828125 5020
    vertex 24642.595703125 14252.1728515625 5020
    vertex 21830.220703125 16652.173828125 5020
  endloop
endfacet
facet normal 1.620735202946186e-14 -2.132577426282312e-13 1
  outer loop
    vertex 21830.220703125 16652.173828125 5020
    vertex 24642.595703125 14252.1728515625 5020
    vertex 23288.556640625 16652.173828125 5020
  endloop
endfacet
facet normal 1.620735202946186e-14 -2.132577426282312e-13 1
  outer loop
    vertex 23288.556640625 16652.173828125 5020
    vertex 24642.595703125 14252.1728515625 5020
    vertex 23392.72265625 16652.173828125 5020
  endloop
endfacet
facet normal 1.620735202946186e-14 -2.132577426282312e-13 1
  outer loop
    vertex 23392.72265625 16652.173828125 5020
    vertex 24642.595703125 14252.1728515625 5020
    vertex 25059.26171875 16652.173828125 5020
  endloop
endfacet
facet normal 1.620735202946186e-14 -2.132577426282312e-13 1
  outer loop
    vertex 25059.26171875 16652.173828125 5020
    vertex 24642.595703125 14252.1728515625 5020
    vertex 25059.26171875 15889.1728515625 5020
  endloop
endfacet
facet normal 1.620735202946186e-14 -2.132577426282312e-13 1
  outer loop
    vertex 21726.0546875 16652.173828125 5020
    vertex 20059.384765625 16652.173828125 5020
    vertex 20059.384765625 15352.1728515625 5020
  endloop
endfacet
facet normal -1 1.219740237631828e-12 6.930342682788223e-15
  outer loop
    vertex 20059.384765625 14552.1728515625 5020
    vertex 20059.384765625 14252.1728515625 4620
    vertex 20059.384765625 14252.1728515625 5020
  endloop
endfacet
facet normal -1 1.219740237631828e-12 6.930342682788223e-15
  outer loop
    vertex 20059.384765625 14252.1728515625 4620
    vertex 20059.384765625 14552.1728515625 5020
    vertex 20059.384765625 14552.1728515625 4620
  endloop
endfacet
facet normal 7.964500369980754e-14 -1 -1.76868299194867e-13
  outer loop
    vertex 24642.595703125 14252.1728515625 5020
    vertex 20059.384765625 14252.1728515625 4620
    vertex 24642.595703125 14252.1728515625 4620
  endloop
endfacet
facet normal 7.964500369980754e-14 -1 -1.76868299194867e-13
  outer loop
    vertex 20059.384765625 14252.1728515625 4620
    vertex 24642.595703125 14252.1728515625 5020
    vertex 20059.384765625 14252.1728515625 5020
  endloop
endfacet
facet normal 3.759959347587579e-15 -1 -1.76868299194867e-13
  outer loop
    vertex 25059.26171875 14252.1728515625 5020
    vertex 24642.595703125 14252.1728515625 4620
    vertex 25059.26171875 14252.1728515625 4620
  endloop
endfacet
facet normal 3.759959347587579e-15 -1 -1.76868299194867e-13
  outer loop
    vertex 24642.595703125 14252.1728515625 4620
    vertex 25059.26171875 14252.1728515625 5020
    vertex 24642.595703125 14252.1728515625 5020
  endloop
endfacet
facet normal 1 6.415746026892238e-14 -8.991082787416105e-15
  outer loop
    vertex 25059.26171875 14252.1728515625 4620
    vertex 25059.26171875 15889.1728515625 5020
    vertex 25059.26171875 14252.1728515625 5020
  endloop
endfacet
facet normal 1 6.415746026892238e-14 -8.991082787416105e-15
  outer loop
    vertex 25059.26171875 15889.1728515625 5020
    vertex 25059.26171875 14252.1728515625 4620
    vertex 25059.26171875 15889.1728515625 4620
  endloop
endfacet
facet normal 1 4.400217576373475e-14 -8.991082787416105e-15
  outer loop
    vertex 25059.26171875 15889.1728515625 4620
    vertex 25059.26171875 16652.173828125 5020
    vertex 25059.26171875 15889.1728515625 5020
  endloop
endfacet
facet normal 1 4.400217576373475e-14 -8.991082787416105e-15
  outer loop
    vertex 25059.26171875 16652.173828125 5020
    vertex 25059.26171875 15889.1728515625 4620
    vertex 25059.26171875 16652.173828125 4620
  endloop
endfacet
facet normal 7.012863597125052e-13 1 1.732587462171739e-13
  outer loop
    vertex 23392.72265625 16652.173828125 4620
    vertex 25059.26171875 16652.173828125 5020
    vertex 25059.26171875 16652.173828125 4620
  endloop
endfacet
facet normal 7.012863597125052e-13 1 1.732587462171739e-13
  outer loop
    vertex 25059.26171875 16652.173828125 5020
    vertex 23392.72265625 16652.173828125 4620
    vertex 23392.72265625 16652.173828125 5020
  endloop
endfacet
facet normal -4.63226982813647e-12 1 1.732587462171739e-13
  outer loop
    vertex 23288.556640625 16652.173828125 4620
    vertex 23392.72265625 16652.173828125 5020
    vertex 23392.72265625 16652.173828125 4620
  endloop
endfacet
facet normal -4.63226982813647e-12 1 1.732587462171739e-13
  outer loop
    vertex 23392.72265625 16652.173828125 5020
    vertex 23288.556640625 16652.173828125 4620
    vertex 23288.556640625 16652.173828125 5020
  endloop
endfacet
facet normal 1.11724499552053e-13 1 1.371631757826619e-13
  outer loop
    vertex 21830.220703125 16652.173828125 5020
    vertex 23288.556640625 16652.173828125 4620
    vertex 21830.220703125 16652.173828125 4620
  endloop
endfacet
facet normal 1.11724499552053e-13 1 1.371631757826619e-13
  outer loop
    vertex 23288.556640625 16652.173828125 4620
    vertex 21830.220703125 16652.173828125 5020
    vertex 23288.556640625 16652.173828125 5020
  endloop
endfacet
facet normal 1.052788607160127e-12 1 1.371631757826619e-13
  outer loop
    vertex 21726.0546875 16652.173828125 5020
    vertex 21830.220703125 16652.173828125 4620
    vertex 21726.0546875 16652.173828125 4620
  endloop
endfacet
facet normal 1.052788607160127e-12 1 1.371631757826619e-13
  outer loop
    vertex 21830.220703125 16652.173828125 4620
    vertex 21726.0546875 16652.173828125 5020
    vertex 21830.220703125 16652.173828125 5020
  endloop
endfacet
facet normal 7.331920579565013e-14 1 1.732587462171739e-13
  outer loop
    vertex 20059.384765625 16652.173828125 5020
    vertex 21726.0546875 16652.173828125 4620
    vertex 20059.384765625 16652.173828125 4620
  endloop
endfacet
facet normal 7.331920579565013e-14 1 1.732587462171739e-13
  outer loop
    vertex 21726.0546875 16652.173828125 4620
    vertex 20059.384765625 16652.173828125 5020
    vertex 21726.0546875 16652.173828125 5020
  endloop
endfacet
facet normal -1 -3.131138198112643e-13 6.930342682788223e-15
  outer loop
    vertex 20059.384765625 16652.173828125 5020
    vertex 20059.384765625 15352.1728515625 4620
    vertex 20059.384765625 15352.1728515625 5020
  endloop
endfacet
facet normal -1 -3.131138198112643e-13 6.930342682788223e-15
  outer loop
    vertex 20059.384765625 15352.1728515625 4620
    vertex 20059.384765625 16652.173828125 5020
    vertex 20059.384765625 16652.173828125 4620
  endloop
endfacet
facet normal -1 4.296812471799027e-13 6.930342682788223e-15
  outer loop
    vertex 20059.384765625 15352.1728515625 5020
    vertex 20059.384765625 14552.1728515625 4620
    vertex 20059.384765625 14552.1728515625 5020
  endloop
endfacet
facet normal -1 4.296812471799027e-13 6.930342682788223e-15
  outer loop
    vertex 20059.384765625 14552.1728515625 4620
    vertex 20059.384765625 15352.1728515625 5020
    vertex 20059.384765625 15352.1728515625 4620
  endloop
endfacet
endsolid com.sketchup.SketchUp.2019
