solid com.sketchup.SketchUp.2019
facet normal 2.591289355535981e-15 1.367197256591705e-15 -1
  outer loop
    vertex 35855.34375 20004.25 3100
    vertex 35855.34375 16005 3100
    vertex 35855.34375 19905 3100
  endloop
endfacet
facet normal 2.591289355535981e-15 1.367197256591705e-15 -1
  outer loop
    vertex 35855.34375 16005 3100
    vertex 35855.34375 20004.25 3100
    vertex 38955.34375 20004.25 3100
  endloop
endfacet
facet normal 2.591289355535981e-15 1.367197256591705e-15 -1
  outer loop
    vertex 35855.34375 16005 3100
    vertex 38955.34375 20004.25 3100
    vertex 35955.34375 16005 3100
  endloop
endfacet
facet normal 2.591289355535981e-15 1.367197256591705e-15 -1
  outer loop
    vertex 35955.34375 16005 3100
    vertex 38955.34375 20004.25 3100
    vertex 38955.34375 16005 3100
  endloop
endfacet
facet normal -2.591289355535981e-15 -1.367197256591705e-15 1
  outer loop
    vertex 35855.34375 16005 3500
    vertex 35855.34375 20004.25 3500
    vertex 35855.34375 19905 3500
  endloop
endfacet
facet normal -2.591289355535981e-15 -1.367197256591705e-15 1
  outer loop
    vertex 35855.34375 20004.25 3500
    vertex 35855.34375 16005 3500
    vertex 35955.34375 16005 3500
  endloop
endfacet
facet normal -2.591289355535981e-15 -1.367197256591705e-15 1
  outer loop
    vertex 35855.34375 20004.25 3500
    vertex 35955.34375 16005 3500
    vertex 38955.34375 20004.25 3500
  endloop
endfacet
facet normal -2.591289355535981e-15 -1.367197256591705e-15 1
  outer loop
    vertex 38955.34375 20004.25 3500
    vertex 35955.34375 16005 3500
    vertex 38955.34375 16005 3500
  endloop
endfacet
facet normal -1 8.146506472878068e-13 -2.591289355535981e-15
  outer loop
    vertex 35855.34375 20004.25 3500
    vertex 35855.34375 19905 3100
    vertex 35855.34375 19905 3500
  endloop
endfacet
facet normal -1 8.146506472878068e-13 -2.591289355535981e-15
  outer loop
    vertex 35855.34375 19905 3100
    vertex 35855.34375 20004.25 3500
    vertex 35855.34375 20004.25 3100
  endloop
endfacet
facet normal -1 -2.073181578667038e-14 -2.591289355535981e-15
  outer loop
    vertex 35855.34375 19905 3500
    vertex 35855.34375 16005 3100
    vertex 35855.34375 16005 3500
  endloop
endfacet
facet normal -1 -2.073181578667038e-14 -2.591289355535981e-15
  outer loop
    vertex 35855.34375 16005 3100
    vertex 35855.34375 19905 3500
    vertex 35855.34375 19905 3100
  endloop
endfacet
facet normal 0 -1 -1.367197256591705e-15
  outer loop
    vertex 35955.34375 16005 3500
    vertex 35855.34375 16005 3100
    vertex 35955.34375 16005 3100
  endloop
endfacet
facet normal 0 -1 -1.367197256591705e-15
  outer loop
    vertex 35855.34375 16005 3100
    vertex 35955.34375 16005 3500
    vertex 35855.34375 16005 3500
  endloop
endfacet
facet normal 0 -1 -1.367197256591705e-15
  outer loop
    vertex 38955.34375 16005 3500
    vertex 35955.34375 16005 3100
    vertex 38955.34375 16005 3100
  endloop
endfacet
facet normal 0 -1 -1.367197256591705e-15
  outer loop
    vertex 35955.34375 16005 3100
    vertex 38955.34375 16005 3500
    vertex 35955.34375 16005 3500
  endloop
endfacet
facet normal 1 -1.029067702709849e-29 2.591289355535981e-15
  outer loop
    vertex 38955.34375 20004.25 3100
    vertex 38955.34375 16005 3500
    vertex 38955.34375 16005 3100
  endloop
endfacet
facet normal 1 -1.029067702709849e-29 2.591289355535981e-15
  outer loop
    vertex 38955.34375 16005 3500
    vertex 38955.34375 20004.25 3100
    vertex 38955.34375 20004.25 3500
  endloop
endfacet
facet normal -7.00448307553293e-30 1 1.367197256591705e-15
  outer loop
    vertex 35855.34375 20004.25 3500
    vertex 38955.34375 20004.25 3100
    vertex 35855.34375 20004.25 3100
  endloop
endfacet
facet normal -7.00448307553293e-30 1 1.367197256591705e-15
  outer loop
    vertex 38955.34375 20004.25 3100
    vertex 35855.34375 20004.25 3500
    vertex 38955.34375 20004.25 3500
  endloop
endfacet
endsolid com.sketchup.SketchUp.2019
