solid com.sketchup.SketchUp.2019
facet normal -6.435210003763459e-11 1.12166664845148e-10 -1
  outer loop
    vertex 38905.34375 11055 3100
    vertex 26955.34375 10955.111328125 3100
    vertex 26955.34375 11055 3100
  endloop
endfacet
facet normal -6.435210003763459e-11 1.12166664845148e-10 -1
  outer loop
    vertex 26955.34375 10955.111328125 3100
    vertex 26855.34375 4357.34326171875 3100
    vertex 26855.34375 10955.111328125 3100
  endloop
endfacet
facet normal -6.435210003763459e-11 1.12166664845148e-10 -1
  outer loop
    vertex 26855.34375 4357.34326171875 3100
    vertex 26955.34375 10955.111328125 3100
    vertex 38905.34375 4357.34326171875 3100
  endloop
endfacet
facet normal -6.435210003763459e-11 1.12166664845148e-10 -1
  outer loop
    vertex 38905.34375 4357.34326171875 3100
    vertex 26955.34375 10955.111328125 3100
    vertex 38905.34375 11055 3100
  endloop
endfacet
facet normal 6.435210003763459e-11 -1.12166664845148e-10 1
  outer loop
    vertex 38905.34375 4357.34326171875 3500
    vertex 26855.34375 10955.111328125 3500
    vertex 26855.34375 4357.34326171875 3500
  endloop
endfacet
facet normal 6.435210003763459e-11 -1.12166664845148e-10 1
  outer loop
    vertex 26855.34375 10955.111328125 3500
    vertex 38905.34375 4357.34326171875 3500
    vertex 26955.34375 10955.111328125 3500
  endloop
endfacet
facet normal 6.435210003763459e-11 -1.12166664845148e-10 1
  outer loop
    vertex 26955.34375 10955.111328125 3500
    vertex 38905.34375 4357.34326171875 3500
    vertex 26955.34375 11055 3500
  endloop
endfacet
facet normal 6.435210003763459e-11 -1.12166664845148e-10 1
  outer loop
    vertex 26955.34375 11055 3500
    vertex 38905.34375 4357.34326171875 3500
    vertex 38905.34375 11055 3500
  endloop
endfacet
facet normal 6.316446448661485e-17 -1 -1.126677570684187e-10
  outer loop
    vertex 38905.34375 4357.34326171875 3500
    vertex 26855.34375 4357.34326171875 3100
    vertex 38905.34375 4357.34326171875 3100
  endloop
endfacet
facet normal 6.316446448661485e-17 -1 -1.126677570684187e-10
  outer loop
    vertex 26855.34375 4357.34326171875 3100
    vertex 38905.34375 4357.34326171875 3500
    vertex 26855.34375 4357.34326171875 3500
  endloop
endfacet
facet normal 1 1.525641420476434e-20 -5.909533279391255e-11
  outer loop
    vertex 38905.34375 4357.34326171875 3100
    vertex 38905.34375 11055 3500
    vertex 38905.34375 4357.34326171875 3500
  endloop
endfacet
facet normal 1 1.525641420476434e-20 -5.909533279391255e-11
  outer loop
    vertex 38905.34375 11055 3500
    vertex 38905.34375 4357.34326171875 3100
    vertex 38905.34375 11055 3100
  endloop
endfacet
facet normal 0 1 1.126677570684187e-10
  outer loop
    vertex 26955.34375 11055 3500
    vertex 38905.34375 11055 3100
    vertex 26955.34375 11055 3100
  endloop
endfacet
facet normal 0 1 1.126677570684187e-10
  outer loop
    vertex 38905.34375 11055 3100
    vertex 26955.34375 11055 3500
    vertex 38905.34375 11055 3500
  endloop
endfacet
facet normal -1 -2.791222438866799e-23 5.909533279391255e-11
  outer loop
    vertex 26955.34375 11055 3500
    vertex 26955.34375 10955.111328125 3100
    vertex 26955.34375 10955.111328125 3500
  endloop
endfacet
facet normal -1 -2.791222438866799e-23 5.909533279391255e-11
  outer loop
    vertex 26955.34375 10955.111328125 3100
    vertex 26955.34375 11055 3500
    vertex 26955.34375 11055 3100
  endloop
endfacet
facet normal -1 -6.065373533224142e-23 5.909533279391255e-11
  outer loop
    vertex 26855.34375 10955.111328125 3500
    vertex 26855.34375 4357.34326171875 3100
    vertex 26855.34375 4357.34326171875 3500
  endloop
endfacet
facet normal -1 -6.065373533224142e-23 5.909533279391255e-11
  outer loop
    vertex 26855.34375 4357.34326171875 3100
    vertex 26855.34375 10955.111328125 3500
    vertex 26855.34375 10955.111328125 3100
  endloop
endfacet
facet normal 7.184238911227073e-21 1 1.126704909926168e-10
  outer loop
    vertex 26855.34375 10955.111328125 3100
    vertex 26955.34375 10955.111328125 3500
    vertex 26955.34375 10955.111328125 3100
  endloop
endfacet
facet normal 7.184238911227073e-21 1 1.126704909926168e-10
  outer loop
    vertex 26955.34375 10955.111328125 3500
    vertex 26855.34375 10955.111328125 3100
    vertex 26855.34375 10955.111328125 3500
  endloop
endfacet
endsolid com.sketchup.SketchUp.2019
