solid com.sketchup.SketchUp.2019
facet normal 2.712577731878163e-11 1.191607468080391e-12 1
  outer loop
    vertex 106.0973129272461 3183.06396484375 3500
    vertex 106.9197082519531 3223.794921875 3500
    vertex 105.4115219116211 3183.05029296875 3500
  endloop
endfacet
facet normal 2.712577731878163e-11 1.191607468080391e-12 1
  outer loop
    vertex 106.9197082519531 3223.794921875 3500
    vertex 106.0973129272461 3183.06396484375 3500
    vertex 106.9130630493164 3141.216552734375 3500
  endloop
endfacet
facet normal 2.712577731878163e-11 1.191607468080391e-12 1
  outer loop
    vertex 111.8674011230469 2980.001708984375 3500
    vertex 106.9130630493164 3141.216552734375 3500
    vertex 106.6398849487305 3141.211181640625 3500
  endloop
endfacet
facet normal 2.712577731878163e-11 1.191607468080391e-12 1
  outer loop
    vertex 106.9130630493164 3141.216552734375 3500
    vertex 111.8674011230469 2980.001708984375 3500
    vertex 106.9197082519531 3223.794921875 3500
  endloop
endfacet
facet normal 2.712577731878163e-11 1.191607468080391e-12 1
  outer loop
    vertex 106.9197082519531 3223.794921875 3500
    vertex 111.8674011230469 2980.001708984375 3500
    vertex 175.7697143554688 5083.81982421875 3500
  endloop
endfacet
facet normal 2.712577731878163e-11 1.191607468080391e-12 1
  outer loop
    vertex 175.7697143554688 5083.81982421875 3500
    vertex 111.8674011230469 2980.001708984375 3500
    vertex 131.4259796142578 2779.662841796875 3500
  endloop
endfacet
facet normal 2.712577731878163e-11 1.191607468080391e-12 1
  outer loop
    vertex 175.7697143554688 5083.81982421875 3500
    vertex 131.4259796142578 2779.662841796875 3500
    vertex 163.9350891113281 2581.04296875 3500
  endloop
endfacet
facet normal 2.712577731878163e-11 1.191607468080391e-12 1
  outer loop
    vertex 175.7697143554688 5083.81982421875 3500
    vertex 163.9350891113281 2581.04296875 3500
    vertex 209.2555084228516 2384.992919921875 3500
  endloop
endfacet
facet normal 2.712577731878163e-11 1.191607468080391e-12 1
  outer loop
    vertex 175.7697143554688 5083.81982421875 3500
    vertex 209.2555084228516 2384.992919921875 3500
    vertex 179.6722412109375 5189.24853515625 3500
  endloop
endfacet
facet normal 2.712577731878163e-11 1.191607468080391e-12 1
  outer loop
    vertex 179.6722412109375 5189.24853515625 3500
    vertex 209.2555084228516 2384.992919921875 3500
    vertex 383.370849609375 7164.611328125 3500
  endloop
endfacet
facet normal 2.712577731878163e-11 1.191607468080391e-12 1
  outer loop
    vertex 383.370849609375 7164.611328125 3500
    vertex 209.2555084228516 2384.992919921875 3500
    vertex 247.6338195800781 2257.386474609375 3500
  endloop
endfacet
facet normal 2.712577731878163e-11 1.191607468080391e-12 1
  outer loop
    vertex 383.370849609375 7164.611328125 3500
    vertex 247.6338195800781 2257.386474609375 3500
    vertex 267.1931457519531 2192.352294921875 3500
  endloop
endfacet
facet normal 2.712577731878163e-11 1.191607468080391e-12 1
  outer loop
    vertex 383.370849609375 7164.611328125 3500
    vertex 267.1931457519531 2192.352294921875 3500
    vertex 337.4998474121094 2003.946411132812 3500
  endloop
endfacet
facet normal 2.712577731878163e-11 1.191607468080391e-12 1
  outer loop
    vertex 383.370849609375 7164.611328125 3500
    vertex 337.4998474121094 2003.946411132812 3500
    vertex 419.8745422363281 1820.581787109375 3500
  endloop
endfacet
facet normal 2.712577731878163e-11 1.191607468080391e-12 1
  outer loop
    vertex 383.370849609375 7164.611328125 3500
    vertex 419.8745422363281 1820.581787109375 3500
    vertex 385.7738037109375 7187.9140625 3500
  endloop
endfacet
facet normal 2.712577731878163e-11 1.191607468080391e-12 1
  outer loop
    vertex 385.7738037109375 7187.9140625 3500
    vertex 419.8745422363281 1820.581787109375 3500
    vertex 722.7417602539062 9168.412109375 3500
  endloop
endfacet
facet normal 2.712577731878163e-11 1.191607468080391e-12 1
  outer loop
    vertex 722.7417602539062 9168.412109375 3500
    vertex 419.8745422363281 1820.581787109375 3500
    vertex 513.9644165039062 1643.043823242188 3500
  endloop
endfacet
facet normal 2.712577731878163e-11 1.191607468080391e-12 1
  outer loop
    vertex 722.7417602539062 9168.412109375 3500
    vertex 513.9644165039062 1643.043823242188 3500
    vertex 619.3665161132812 1472.092895507812 3500
  endloop
endfacet
facet normal 2.712577731878163e-11 1.191607468080391e-12 1
  outer loop
    vertex 722.7417602539062 9168.412109375 3500
    vertex 619.3665161132812 1472.092895507812 3500
    vertex 683.0984497070312 1382.394775390625 3500
  endloop
endfacet
facet normal 2.712577731878163e-11 1.191607468080391e-12 1
  outer loop
    vertex 722.7417602539062 9168.412109375 3500
    vertex 683.0984497070312 1382.394775390625 3500
    vertex 735.6294555664062 1308.461059570312 3500
  endloop
endfacet
facet normal 2.712577731878163e-11 1.191607468080391e-12 1
  outer loop
    vertex 722.7417602539062 9168.412109375 3500
    vertex 735.6294555664062 1308.461059570312 3500
    vertex 1061.918701171875 10589.275390625 3500
  endloop
endfacet
facet normal 2.712577731878163e-11 1.191607468080391e-12 1
  outer loop
    vertex 1061.918701171875 10589.275390625 3500
    vertex 735.6294555664062 1308.461059570312 3500
    vertex 862.2553100585938 1152.849243164062 3500
  endloop
endfacet
facet normal 2.712577731878163e-11 1.191607468080391e-12 1
  outer loop
    vertex 1061.918701171875 10589.275390625 3500
    vertex 862.2553100585938 1152.849243164062 3500
    vertex 998.7017822265625 1005.923767089844 3500
  endloop
endfacet
facet normal 2.712577731878163e-11 1.191607468080391e-12 1
  outer loop
    vertex 1061.918701171875 10589.275390625 3500
    vertex 998.7017822265625 1005.923767089844 3500
    vertex 1144.384521484375 868.3139038085938 3500
  endloop
endfacet
facet normal 2.712577731878163e-11 1.191607468080391e-12 1
  outer loop
    vertex 1061.918701171875 10589.275390625 3500
    vertex 1144.384521484375 868.3139038085938 3500
    vertex 1189.094848632812 11122.03515625 3500
  endloop
endfacet
facet normal 2.712577731878163e-11 1.191607468080391e-12 1
  outer loop
    vertex 1189.094848632812 11122.03515625 3500
    vertex 1144.384521484375 868.3139038085938 3500
    vertex 1298.679565429688 740.6090087890625 3500
  endloop
endfacet
facet normal 2.712577731878163e-11 1.191607468080391e-12 1
  outer loop
    vertex 1189.094848632812 11122.03515625 3500
    vertex 1298.679565429688 740.6090087890625 3500
    vertex 1645.062866210938 12595.234375 3500
  endloop
endfacet
facet normal 2.712577731878163e-11 1.191607468080391e-12 1
  outer loop
    vertex 1645.062866210938 12595.234375 3500
    vertex 1298.679565429688 740.6090087890625 3500
    vertex 1369.90673828125 689.13427734375 3500
  endloop
endfacet
facet normal 2.712577731878163e-11 1.191607468080391e-12 1
  outer loop
    vertex 1645.062866210938 12595.234375 3500
    vertex 1369.90673828125 689.13427734375 3500
    vertex 1460.926147460938 623.3560180664062 3500
  endloop
endfacet
facet normal 2.712577731878163e-11 1.191607468080391e-12 1
  outer loop
    vertex 1645.062866210938 12595.234375 3500
    vertex 1460.926147460938 623.3560180664062 3500
    vertex 1630.429321289062 517.0570068359375 3500
  endloop
endfacet
facet normal 2.712577731878163e-11 1.191607468080391e-12 1
  outer loop
    vertex 1645.062866210938 12595.234375 3500
    vertex 1630.429321289062 517.0570068359375 3500
    vertex 1806.46337890625 422.1672973632812 3500
  endloop
endfacet
facet normal 2.712577731878163e-11 1.191607468080391e-12 1
  outer loop
    vertex 1645.062866210938 12595.234375 3500
    vertex 1806.46337890625 422.1672973632812 3500
    vertex 1782.782836914062 13040.197265625 3500
  endloop
endfacet
facet normal 2.712577731878163e-11 1.191607468080391e-12 1
  outer loop
    vertex 1782.782836914062 13040.197265625 3500
    vertex 1806.46337890625 422.1672973632812 3500
    vertex 2501.196044921875 14914.46484375 3500
  endloop
endfacet
facet normal 2.712577731878163e-11 1.191607468080391e-12 1
  outer loop
    vertex 2501.196044921875 14914.46484375 3500
    vertex 1806.46337890625 422.1672973632812 3500
    vertex 1988.274169921875 339.09326171875 3500
  endloop
endfacet
facet normal 2.712577731878163e-11 1.191607468080391e-12 1
  outer loop
    vertex 2501.196044921875 14914.46484375 3500
    vertex 1988.274169921875 339.09326171875 3500
    vertex 2175.083251953125 268.1907043457031 3500
  endloop
endfacet
facet normal 2.712577731878163e-11 1.191607468080391e-12 1
  outer loop
    vertex 2501.196044921875 14914.46484375 3500
    vertex 2175.083251953125 268.1907043457031 3500
    vertex 2237.3466796875 249.1448059082031 3500
  endloop
endfacet
facet normal 2.712577731878163e-11 1.191607468080391e-12 1
  outer loop
    vertex 2501.196044921875 14914.46484375 3500
    vertex 2237.3466796875 249.1448059082031 3500
    vertex 2314.9345703125 225.4753112792969 3500
  endloop
endfacet
facet normal 2.712577731878163e-11 1.191607468080391e-12 1
  outer loop
    vertex 2501.196044921875 14914.46484375 3500
    vertex 2314.9345703125 225.4753112792969 3500
    vertex 2393.122802734375 203.9101257324219 3500
  endloop
endfacet
facet normal 2.712577731878163e-11 1.191607468080391e-12 1
  outer loop
    vertex 2501.196044921875 14914.46484375 3500
    vertex 2393.122802734375 203.9101257324219 3500
    vertex 2471.85595703125 184.4647216796875 3500
  endloop
endfacet
facet normal 2.712577731878163e-11 1.191607468080391e-12 1
  outer loop
    vertex 2501.196044921875 14914.46484375 3500
    vertex 2471.85595703125 184.4647216796875 3500
    vertex 2551.0771484375 167.1530456542969 3500
  endloop
endfacet
facet normal 2.712577731878163e-11 1.191607468080391e-12 1
  outer loop
    vertex 2501.196044921875 14914.46484375 3500
    vertex 2551.0771484375 167.1530456542969 3500
    vertex 2546.126708984375 15031.685546875 3500
  endloop
endfacet
facet normal 2.712577731878163e-11 1.191607468080391e-12 1
  outer loop
    vertex 2546.126708984375 15031.685546875 3500
    vertex 2551.0771484375 167.1530456542969 3500
    vertex 2605.343017578125 15031.685546875 3500
  endloop
endfacet
facet normal 2.712577731878163e-11 1.191607468080391e-12 1
  outer loop
    vertex 2605.343017578125 15031.685546875 3500
    vertex 2551.0771484375 167.1530456542969 3500
    vertex 2630.729736328125 151.9875335693359 3500
  endloop
endfacet
facet normal 2.712577731878163e-11 1.191607468080391e-12 1
  outer loop
    vertex 2605.343017578125 15031.685546875 3500
    vertex 2630.729736328125 151.9875335693359 3500
    vertex 3455.343017578125 15031.685546875 3500
  endloop
endfacet
facet normal 2.712577731878163e-11 1.191607468080391e-12 1
  outer loop
    vertex 3455.343017578125 15031.685546875 3500
    vertex 2630.729736328125 151.9875335693359 3500
    vertex 2710.75634765625 138.9790496826172 3500
  endloop
endfacet
facet normal 2.712577731878163e-11 1.191607468080391e-12 1
  outer loop
    vertex 3455.343017578125 15031.685546875 3500
    vertex 2710.75634765625 138.9790496826172 3500
    vertex 2791.099609375 128.1369323730469 3500
  endloop
endfacet
facet normal 2.712577731878163e-11 1.191607468080391e-12 1
  outer loop
    vertex 3455.343017578125 15031.685546875 3500
    vertex 2791.099609375 128.1369323730469 3500
    vertex 2871.7021484375 119.4689559936523 3500
  endloop
endfacet
facet normal 2.712577731878163e-11 1.191607468080391e-12 1
  outer loop
    vertex 3455.343017578125 15031.685546875 3500
    vertex 2871.7021484375 119.4689559936523 3500
    vertex 2952.505859375 112.9813461303711 3500
  endloop
endfacet
facet normal 2.712577731878163e-11 1.191607468080391e-12 1
  outer loop
    vertex 3455.343017578125 15031.685546875 3500
    vertex 2952.505859375 112.9813461303711 3500
    vertex 3033.453125 108.6787567138672 3500
  endloop
endfacet
facet normal 2.712577731878163e-11 1.191607468080391e-12 1
  outer loop
    vertex 3455.343017578125 15031.685546875 3500
    vertex 3033.453125 108.6787567138672 3500
    vertex 3114.4853515625 106.5642776489258 3500
  endloop
endfacet
facet normal 2.712577731878163e-11 1.191607468080391e-12 1
  outer loop
    vertex 3455.343017578125 15031.685546875 3500
    vertex 3114.4853515625 106.5642776489258 3500
    vertex 3195.544677734375 106.6394195556641 3500
  endloop
endfacet
facet normal 2.712577731878163e-11 1.191607468080391e-12 1
  outer loop
    vertex 3455.343017578125 15031.685546875 3500
    vertex 3195.544677734375 106.6394195556641 3500
    vertex 4079.760986328125 143.1754913330078 3500
  endloop
endfacet
facet normal 2.712577731878163e-11 1.191607468080391e-12 1
  outer loop
    vertex 3455.343017578125 15031.685546875 3500
    vertex 4079.760986328125 143.1754913330078 3500
    vertex 8855.3427734375 15031.685546875 3500
  endloop
endfacet
facet normal 2.712577731878163e-11 1.191607468080391e-12 1
  outer loop
    vertex 8855.3427734375 15031.685546875 3500
    vertex 4079.760986328125 143.1754913330078 3500
    vertex 4999.48291015625 242.6156768798828 3500
  endloop
endfacet
facet normal 2.712577731878163e-11 1.191607468080391e-12 1
  outer loop
    vertex 8855.3427734375 15031.685546875 3500
    vertex 4999.48291015625 242.6156768798828 3500
    vertex 5910.72412109375 402.8761596679688 3500
  endloop
endfacet
facet normal 2.712577731878163e-11 1.191607468080391e-12 1
  outer loop
    vertex 8855.3427734375 15031.685546875 3500
    vertex 5910.72412109375 402.8761596679688 3500
    vertex 5980.6669921875 420.0260009765625 3500
  endloop
endfacet
facet normal 2.712577731878163e-11 1.191607468080391e-12 1
  outer loop
    vertex 8855.3427734375 15031.685546875 3500
    vertex 5980.6669921875 420.0260009765625 3500
    vertex 6809.53466796875 623.2623291015625 3500
  endloop
endfacet
facet normal 2.712577731878163e-11 1.191607468080391e-12 1
  outer loop
    vertex 8855.3427734375 15031.685546875 3500
    vertex 6809.53466796875 623.2623291015625 3500
    vertex 7692.01904296875 902.8189086914062 3500
  endloop
endfacet
facet normal 2.712577731878163e-11 1.191607468080391e-12 1
  outer loop
    vertex 8855.3427734375 15031.685546875 3500
    vertex 7692.01904296875 902.8189086914062 3500
    vertex 7955.7353515625 1006.036865234375 3500
  endloop
endfacet
facet normal 2.712577731878163e-11 1.191607468080391e-12 1
  outer loop
    vertex 8855.3427734375 15031.685546875 3500
    vertex 7955.7353515625 1006.036865234375 3500
    vertex 8554.3525390625 1240.334228515625 3500
  endloop
endfacet
facet normal 2.712577731878163e-11 1.191607468080391e-12 1
  outer loop
    vertex 8855.3427734375 15031.685546875 3500
    vertex 8554.3525390625 1240.334228515625 3500
    vertex 9392.796875 1634.345458984375 3500
  endloop
endfacet
facet normal 2.712577731878163e-11 1.191607468080391e-12 1
  outer loop
    vertex 8855.3427734375 15031.685546875 3500
    vertex 9392.796875 1634.345458984375 3500
    vertex 9655.3427734375 15031.685546875 3500
  endloop
endfacet
facet normal 2.712577731878163e-11 1.191607468080391e-12 1
  outer loop
    vertex 9655.3427734375 15031.685546875 3500
    vertex 9392.796875 1634.345458984375 3500
    vertex 9655.3427734375 14505 3500
  endloop
endfacet
facet normal 2.712577731878163e-11 1.191607468080391e-12 1
  outer loop
    vertex 9655.3427734375 14505 3500
    vertex 9392.796875 1634.345458984375 3500
    vertex 10203.71875 2083.144775390625 3500
  endloop
endfacet
facet normal 2.712577731878163e-11 1.191607468080391e-12 1
  outer loop
    vertex 9655.3427734375 14505 3500
    vertex 10203.71875 2083.144775390625 3500
    vertex 11084.529296875 14505 3500
  endloop
endfacet
facet normal 2.712577731878163e-11 1.191607468080391e-12 1
  outer loop
    vertex 11084.529296875 14505 3500
    vertex 10203.71875 2083.144775390625 3500
    vertex 10983.6025390625 2584.786865234375 3500
  endloop
endfacet
facet normal 2.712577731878163e-11 1.191607468080391e-12 1
  outer loop
    vertex 11084.529296875 14505 3500
    vertex 10983.6025390625 2584.786865234375 3500
    vertex 11074.26171875 2643.101806640625 3500
  endloop
endfacet
facet normal 2.712577731878163e-11 1.191607468080391e-12 1
  outer loop
    vertex 11084.529296875 14505 3500
    vertex 11074.26171875 2643.101806640625 3500
    vertex 11084.529296875 5231.7890625 3500
  endloop
endfacet
facet normal 2.712577731878163e-11 1.191607468080391e-12 1
  outer loop
    vertex 11084.529296875 5231.7890625 3500
    vertex 11074.26171875 2643.101806640625 3500
    vertex 11084.529296875 2643.101806640625 3500
  endloop
endfacet
facet normal 2.712577731878163e-11 1.191607468080391e-12 1
  outer loop
    vertex 11084.529296875 14505 3500
    vertex 11084.529296875 9232.4609375 3500
    vertex 11084.529296875 14426.548828125 3500
  endloop
endfacet
facet normal 2.712577731878163e-11 1.191607468080391e-12 1
  outer loop
    vertex 11084.529296875 9232.4609375 3500
    vertex 11084.529296875 14505 3500
    vertex 11084.529296875 5231.7890625 3500
  endloop
endfacet
facet normal 2.712577731878163e-11 1.191607468080391e-12 1
  outer loop
    vertex 11084.529296875 9232.4609375 3500
    vertex 11084.529296875 5231.7890625 3500
    vertex 11084.529296875 7820.47607421875 3500
  endloop
endfacet
facet normal 2.712577731878163e-11 1.191607468080391e-12 1
  outer loop
    vertex 11084.529296875 14426.548828125 3500
    vertex 11084.529296875 9232.4609375 3500
    vertex 11084.529296875 12056.4306640625 3500
  endloop
endfacet
facet normal -2.712577731878163e-11 -1.191607468080391e-12 -1
  outer loop
    vertex 106.9197082519531 3223.794921875 3100
    vertex 106.0973129272461 3183.06396484375 3100
    vertex 105.4115219116211 3183.05029296875 3100
  endloop
endfacet
facet normal -2.712577731878163e-11 -1.191607468080391e-12 -1
  outer loop
    vertex 106.0973129272461 3183.06396484375 3100
    vertex 106.9197082519531 3223.794921875 3100
    vertex 106.9130630493164 3141.216552734375 3100
  endloop
endfacet
facet normal -2.712577731878163e-11 -1.191607468080391e-12 -1
  outer loop
    vertex 106.9130630493164 3141.216552734375 3100
    vertex 111.8674011230469 2980.001708984375 3100
    vertex 106.6398849487305 3141.211181640625 3100
  endloop
endfacet
facet normal -2.712577731878163e-11 -1.191607468080391e-12 -1
  outer loop
    vertex 111.8674011230469 2980.001708984375 3100
    vertex 106.9130630493164 3141.216552734375 3100
    vertex 106.9197082519531 3223.794921875 3100
  endloop
endfacet
facet normal -2.712577731878163e-11 -1.191607468080391e-12 -1
  outer loop
    vertex 111.8674011230469 2980.001708984375 3100
    vertex 106.9197082519531 3223.794921875 3100
    vertex 175.7697143554688 5083.81982421875 3100
  endloop
endfacet
facet normal -2.712577731878163e-11 -1.191607468080391e-12 -1
  outer loop
    vertex 111.8674011230469 2980.001708984375 3100
    vertex 175.7697143554688 5083.81982421875 3100
    vertex 131.4259796142578 2779.662841796875 3100
  endloop
endfacet
facet normal -2.712577731878163e-11 -1.191607468080391e-12 -1
  outer loop
    vertex 131.4259796142578 2779.662841796875 3100
    vertex 175.7697143554688 5083.81982421875 3100
    vertex 163.9350891113281 2581.04296875 3100
  endloop
endfacet
facet normal -2.712577731878163e-11 -1.191607468080391e-12 -1
  outer loop
    vertex 163.9350891113281 2581.04296875 3100
    vertex 175.7697143554688 5083.81982421875 3100
    vertex 209.2555084228516 2384.992919921875 3100
  endloop
endfacet
facet normal -2.712577731878163e-11 -1.191607468080391e-12 -1
  outer loop
    vertex 209.2555084228516 2384.992919921875 3100
    vertex 175.7697143554688 5083.81982421875 3100
    vertex 179.6722412109375 5189.24853515625 3100
  endloop
endfacet
facet normal -2.712577731878163e-11 -1.191607468080391e-12 -1
  outer loop
    vertex 209.2555084228516 2384.992919921875 3100
    vertex 179.6722412109375 5189.24853515625 3100
    vertex 383.370849609375 7164.611328125 3100
  endloop
endfacet
facet normal -2.712577731878163e-11 -1.191607468080391e-12 -1
  outer loop
    vertex 209.2555084228516 2384.992919921875 3100
    vertex 383.370849609375 7164.611328125 3100
    vertex 247.6338195800781 2257.386474609375 3100
  endloop
endfacet
facet normal -2.712577731878163e-11 -1.191607468080391e-12 -1
  outer loop
    vertex 247.6338195800781 2257.386474609375 3100
    vertex 383.370849609375 7164.611328125 3100
    vertex 267.1931457519531 2192.352294921875 3100
  endloop
endfacet
facet normal -2.712577731878163e-11 -1.191607468080391e-12 -1
  outer loop
    vertex 267.1931457519531 2192.352294921875 3100
    vertex 383.370849609375 7164.611328125 3100
    vertex 337.4998474121094 2003.946411132812 3100
  endloop
endfacet
facet normal -2.712577731878163e-11 -1.191607468080391e-12 -1
  outer loop
    vertex 337.4998474121094 2003.946411132812 3100
    vertex 383.370849609375 7164.611328125 3100
    vertex 419.8745422363281 1820.581787109375 3100
  endloop
endfacet
facet normal -2.712577731878163e-11 -1.191607468080391e-12 -1
  outer loop
    vertex 419.8745422363281 1820.581787109375 3100
    vertex 383.370849609375 7164.611328125 3100
    vertex 385.7738037109375 7187.9140625 3100
  endloop
endfacet
facet normal -2.712577731878163e-11 -1.191607468080391e-12 -1
  outer loop
    vertex 419.8745422363281 1820.581787109375 3100
    vertex 385.7738037109375 7187.9140625 3100
    vertex 722.7417602539062 9168.412109375 3100
  endloop
endfacet
facet normal -2.712577731878163e-11 -1.191607468080391e-12 -1
  outer loop
    vertex 419.8745422363281 1820.581787109375 3100
    vertex 722.7417602539062 9168.412109375 3100
    vertex 513.9644165039062 1643.043823242188 3100
  endloop
endfacet
facet normal -2.712577731878163e-11 -1.191607468080391e-12 -1
  outer loop
    vertex 513.9644165039062 1643.043823242188 3100
    vertex 722.7417602539062 9168.412109375 3100
    vertex 619.3665161132812 1472.092895507812 3100
  endloop
endfacet
facet normal -2.712577731878163e-11 -1.191607468080391e-12 -1
  outer loop
    vertex 619.3665161132812 1472.092895507812 3100
    vertex 722.7417602539062 9168.412109375 3100
    vertex 683.0984497070312 1382.394775390625 3100
  endloop
endfacet
facet normal -2.712577731878163e-11 -1.191607468080391e-12 -1
  outer loop
    vertex 683.0984497070312 1382.394775390625 3100
    vertex 722.7417602539062 9168.412109375 3100
    vertex 735.6294555664062 1308.461059570312 3100
  endloop
endfacet
facet normal -2.712577731878163e-11 -1.191607468080391e-12 -1
  outer loop
    vertex 735.6294555664062 1308.461059570312 3100
    vertex 722.7417602539062 9168.412109375 3100
    vertex 1061.918701171875 10589.275390625 3100
  endloop
endfacet
facet normal -2.712577731878163e-11 -1.191607468080391e-12 -1
  outer loop
    vertex 735.6294555664062 1308.461059570312 3100
    vertex 1061.918701171875 10589.275390625 3100
    vertex 862.2553100585938 1152.849243164062 3100
  endloop
endfacet
facet normal -2.712577731878163e-11 -1.191607468080391e-12 -1
  outer loop
    vertex 862.2553100585938 1152.849243164062 3100
    vertex 1061.918701171875 10589.275390625 3100
    vertex 998.7017822265625 1005.923767089844 3100
  endloop
endfacet
facet normal -2.712577731878163e-11 -1.191607468080391e-12 -1
  outer loop
    vertex 998.7017822265625 1005.923767089844 3100
    vertex 1061.918701171875 10589.275390625 3100
    vertex 1144.384521484375 868.3139038085938 3100
  endloop
endfacet
facet normal -2.712577731878163e-11 -1.191607468080391e-12 -1
  outer loop
    vertex 1144.384521484375 868.3139038085938 3100
    vertex 1061.918701171875 10589.275390625 3100
    vertex 1189.094848632812 11122.03515625 3100
  endloop
endfacet
facet normal -2.712577731878163e-11 -1.191607468080391e-12 -1
  outer loop
    vertex 1144.384521484375 868.3139038085938 3100
    vertex 1189.094848632812 11122.03515625 3100
    vertex 1298.679565429688 740.6090087890625 3100
  endloop
endfacet
facet normal -2.712577731878163e-11 -1.191607468080391e-12 -1
  outer loop
    vertex 1298.679565429688 740.6090087890625 3100
    vertex 1189.094848632812 11122.03515625 3100
    vertex 1645.062866210938 12595.234375 3100
  endloop
endfacet
facet normal -2.712577731878163e-11 -1.191607468080391e-12 -1
  outer loop
    vertex 1298.679565429688 740.6090087890625 3100
    vertex 1645.062866210938 12595.234375 3100
    vertex 1369.90673828125 689.13427734375 3100
  endloop
endfacet
facet normal -2.712577731878163e-11 -1.191607468080391e-12 -1
  outer loop
    vertex 1369.90673828125 689.13427734375 3100
    vertex 1645.062866210938 12595.234375 3100
    vertex 1460.926147460938 623.3560180664062 3100
  endloop
endfacet
facet normal -2.712577731878163e-11 -1.191607468080391e-12 -1
  outer loop
    vertex 1460.926147460938 623.3560180664062 3100
    vertex 1645.062866210938 12595.234375 3100
    vertex 1630.429321289062 517.0570068359375 3100
  endloop
endfacet
facet normal -2.712577731878163e-11 -1.191607468080391e-12 -1
  outer loop
    vertex 1630.429321289062 517.0570068359375 3100
    vertex 1645.062866210938 12595.234375 3100
    vertex 1806.46337890625 422.1672973632812 3100
  endloop
endfacet
facet normal -2.712577731878163e-11 -1.191607468080391e-12 -1
  outer loop
    vertex 1806.46337890625 422.1672973632812 3100
    vertex 1645.062866210938 12595.234375 3100
    vertex 1782.782836914062 13040.197265625 3100
  endloop
endfacet
facet normal -2.712577731878163e-11 -1.191607468080391e-12 -1
  outer loop
    vertex 1806.46337890625 422.1672973632812 3100
    vertex 1782.782836914062 13040.197265625 3100
    vertex 2501.196044921875 14914.46484375 3100
  endloop
endfacet
facet normal -2.712577731878163e-11 -1.191607468080391e-12 -1
  outer loop
    vertex 1806.46337890625 422.1672973632812 3100
    vertex 2501.196044921875 14914.46484375 3100
    vertex 1988.274169921875 339.09326171875 3100
  endloop
endfacet
facet normal -2.712577731878163e-11 -1.191607468080391e-12 -1
  outer loop
    vertex 1988.274169921875 339.09326171875 3100
    vertex 2501.196044921875 14914.46484375 3100
    vertex 2175.083251953125 268.1907043457031 3100
  endloop
endfacet
facet normal -2.712577731878163e-11 -1.191607468080391e-12 -1
  outer loop
    vertex 2175.083251953125 268.1907043457031 3100
    vertex 2501.196044921875 14914.46484375 3100
    vertex 2237.3466796875 249.1448059082031 3100
  endloop
endfacet
facet normal -2.712577731878163e-11 -1.191607468080391e-12 -1
  outer loop
    vertex 2237.3466796875 249.1448059082031 3100
    vertex 2501.196044921875 14914.46484375 3100
    vertex 2314.9345703125 225.4753112792969 3100
  endloop
endfacet
facet normal -2.712577731878163e-11 -1.191607468080391e-12 -1
  outer loop
    vertex 2314.9345703125 225.4753112792969 3100
    vertex 2501.196044921875 14914.46484375 3100
    vertex 2393.122802734375 203.9101257324219 3100
  endloop
endfacet
facet normal -2.712577731878163e-11 -1.191607468080391e-12 -1
  outer loop
    vertex 2393.122802734375 203.9101257324219 3100
    vertex 2501.196044921875 14914.46484375 3100
    vertex 2471.85595703125 184.4647216796875 3100
  endloop
endfacet
facet normal -2.712577731878163e-11 -1.191607468080391e-12 -1
  outer loop
    vertex 2471.85595703125 184.4647216796875 3100
    vertex 2501.196044921875 14914.46484375 3100
    vertex 2551.0771484375 167.1530456542969 3100
  endloop
endfacet
facet normal -2.712577731878163e-11 -1.191607468080391e-12 -1
  outer loop
    vertex 2551.0771484375 167.1530456542969 3100
    vertex 2501.196044921875 14914.46484375 3100
    vertex 2546.126708984375 15031.685546875 3100
  endloop
endfacet
facet normal -2.712577731878163e-11 -1.191607468080391e-12 -1
  outer loop
    vertex 2551.0771484375 167.1530456542969 3100
    vertex 2546.126708984375 15031.685546875 3100
    vertex 2605.343017578125 15031.685546875 3100
  endloop
endfacet
facet normal -2.712577731878163e-11 -1.191607468080391e-12 -1
  outer loop
    vertex 2551.0771484375 167.1530456542969 3100
    vertex 2605.343017578125 15031.685546875 3100
    vertex 2630.729736328125 151.9875335693359 3100
  endloop
endfacet
facet normal -2.712577731878163e-11 -1.191607468080391e-12 -1
  outer loop
    vertex 2630.729736328125 151.9875335693359 3100
    vertex 2605.343017578125 15031.685546875 3100
    vertex 3455.343017578125 15031.685546875 3100
  endloop
endfacet
facet normal -2.712577731878163e-11 -1.191607468080391e-12 -1
  outer loop
    vertex 2630.729736328125 151.9875335693359 3100
    vertex 3455.343017578125 15031.685546875 3100
    vertex 2710.75634765625 138.9790496826172 3100
  endloop
endfacet
facet normal -2.712577731878163e-11 -1.191607468080391e-12 -1
  outer loop
    vertex 2710.75634765625 138.9790496826172 3100
    vertex 3455.343017578125 15031.685546875 3100
    vertex 2791.099609375 128.1369323730469 3100
  endloop
endfacet
facet normal -2.712577731878163e-11 -1.191607468080391e-12 -1
  outer loop
    vertex 2791.099609375 128.1369323730469 3100
    vertex 3455.343017578125 15031.685546875 3100
    vertex 2871.7021484375 119.4689559936523 3100
  endloop
endfacet
facet normal -2.712577731878163e-11 -1.191607468080391e-12 -1
  outer loop
    vertex 2871.7021484375 119.4689559936523 3100
    vertex 3455.343017578125 15031.685546875 3100
    vertex 2952.505859375 112.9813461303711 3100
  endloop
endfacet
facet normal -2.712577731878163e-11 -1.191607468080391e-12 -1
  outer loop
    vertex 2952.505859375 112.9813461303711 3100
    vertex 3455.343017578125 15031.685546875 3100
    vertex 3033.453125 108.6787567138672 3100
  endloop
endfacet
facet normal -2.712577731878163e-11 -1.191607468080391e-12 -1
  outer loop
    vertex 3033.453125 108.6787567138672 3100
    vertex 3455.343017578125 15031.685546875 3100
    vertex 3114.4853515625 106.5642776489258 3100
  endloop
endfacet
facet normal -2.712577731878163e-11 -1.191607468080391e-12 -1
  outer loop
    vertex 3114.4853515625 106.5642776489258 3100
    vertex 3455.343017578125 15031.685546875 3100
    vertex 3195.544677734375 106.6394195556641 3100
  endloop
endfacet
facet normal -2.712577731878163e-11 -1.191607468080391e-12 -1
  outer loop
    vertex 3195.544677734375 106.6394195556641 3100
    vertex 3455.343017578125 15031.685546875 3100
    vertex 4079.760986328125 143.1754913330078 3100
  endloop
endfacet
facet normal -2.712577731878163e-11 -1.191607468080391e-12 -1
  outer loop
    vertex 4079.760986328125 143.1754913330078 3100
    vertex 3455.343017578125 15031.685546875 3100
    vertex 8855.3427734375 15031.685546875 3100
  endloop
endfacet
facet normal -2.712577731878163e-11 -1.191607468080391e-12 -1
  outer loop
    vertex 4079.760986328125 143.1754913330078 3100
    vertex 8855.3427734375 15031.685546875 3100
    vertex 4999.48291015625 242.6156768798828 3100
  endloop
endfacet
facet normal -2.712577731878163e-11 -1.191607468080391e-12 -1
  outer loop
    vertex 4999.48291015625 242.6156768798828 3100
    vertex 8855.3427734375 15031.685546875 3100
    vertex 5910.72412109375 402.8761596679688 3100
  endloop
endfacet
facet normal -2.712577731878163e-11 -1.191607468080391e-12 -1
  outer loop
    vertex 5910.72412109375 402.8761596679688 3100
    vertex 8855.3427734375 15031.685546875 3100
    vertex 5980.6669921875 420.0260009765625 3100
  endloop
endfacet
facet normal -2.712577731878163e-11 -1.191607468080391e-12 -1
  outer loop
    vertex 5980.6669921875 420.0260009765625 3100
    vertex 8855.3427734375 15031.685546875 3100
    vertex 6809.53466796875 623.2623291015625 3100
  endloop
endfacet
facet normal -2.712577731878163e-11 -1.191607468080391e-12 -1
  outer loop
    vertex 6809.53466796875 623.2623291015625 3100
    vertex 8855.3427734375 15031.685546875 3100
    vertex 7692.01904296875 902.8189086914062 3100
  endloop
endfacet
facet normal -2.712577731878163e-11 -1.191607468080391e-12 -1
  outer loop
    vertex 7692.01904296875 902.8189086914062 3100
    vertex 8855.3427734375 15031.685546875 3100
    vertex 7955.7353515625 1006.036865234375 3100
  endloop
endfacet
facet normal -2.712577731878163e-11 -1.191607468080391e-12 -1
  outer loop
    vertex 7955.7353515625 1006.036865234375 3100
    vertex 8855.3427734375 15031.685546875 3100
    vertex 8554.3525390625 1240.334228515625 3100
  endloop
endfacet
facet normal -2.712577731878163e-11 -1.191607468080391e-12 -1
  outer loop
    vertex 8554.3525390625 1240.334228515625 3100
    vertex 8855.3427734375 15031.685546875 3100
    vertex 9392.796875 1634.345458984375 3100
  endloop
endfacet
facet normal -2.712577731878163e-11 -1.191607468080391e-12 -1
  outer loop
    vertex 9392.796875 1634.345458984375 3100
    vertex 8855.3427734375 15031.685546875 3100
    vertex 9655.3427734375 15031.685546875 3100
  endloop
endfacet
facet normal -2.712577731878163e-11 -1.191607468080391e-12 -1
  outer loop
    vertex 9392.796875 1634.345458984375 3100
    vertex 9655.3427734375 15031.685546875 3100
    vertex 9655.3427734375 14505 3100
  endloop
endfacet
facet normal -2.712577731878163e-11 -1.191607468080391e-12 -1
  outer loop
    vertex 9392.796875 1634.345458984375 3100
    vertex 9655.3427734375 14505 3100
    vertex 10203.71875 2083.144775390625 3100
  endloop
endfacet
facet normal -2.712577731878163e-11 -1.191607468080391e-12 -1
  outer loop
    vertex 10203.71875 2083.144775390625 3100
    vertex 9655.3427734375 14505 3100
    vertex 11084.529296875 14505 3100
  endloop
endfacet
facet normal -2.712577731878163e-11 -1.191607468080391e-12 -1
  outer loop
    vertex 10203.71875 2083.144775390625 3100
    vertex 11084.529296875 14505 3100
    vertex 10983.6025390625 2584.786865234375 3100
  endloop
endfacet
facet normal -2.712577731878163e-11 -1.191607468080391e-12 -1
  outer loop
    vertex 10983.6025390625 2584.786865234375 3100
    vertex 11084.529296875 14505 3100
    vertex 11074.26171875 2643.101806640625 3100
  endloop
endfacet
facet normal -2.712577731878163e-11 -1.191607468080391e-12 -1
  outer loop
    vertex 11074.26171875 2643.101806640625 3100
    vertex 11084.529296875 14505 3100
    vertex 11084.529296875 5231.7890625 3100
  endloop
endfacet
facet normal -2.712577731878163e-11 -1.191607468080391e-12 -1
  outer loop
    vertex 11074.26171875 2643.101806640625 3100
    vertex 11084.529296875 5231.7890625 3100
    vertex 11084.529296875 2643.101806640625 3100
  endloop
endfacet
facet normal -2.712577731878163e-11 -1.191607468080391e-12 -1
  outer loop
    vertex 11084.529296875 14505 3100
    vertex 11084.529296875 9232.4609375 3100
    vertex 11084.529296875 5231.7890625 3100
  endloop
endfacet
facet normal -2.712577731878163e-11 -1.191607468080391e-12 -1
  outer loop
    vertex 11084.529296875 9232.4609375 3100
    vertex 11084.529296875 14505 3100
    vertex 11084.529296875 14426.548828125 3100
  endloop
endfacet
facet normal -2.712577731878163e-11 -1.191607468080391e-12 -1
  outer loop
    vertex 11084.529296875 9232.4609375 3100
    vertex 11084.529296875 14426.548828125 3100
    vertex 11084.529296875 12056.4306640625 3100
  endloop
endfacet
facet normal -2.712577731878163e-11 -1.191607468080391e-12 -1
  outer loop
    vertex 11084.529296875 7820.47607421875 3100
    vertex 11084.529296875 5231.7890625 3100
    vertex 11084.529296875 9232.4609375 3100
  endloop
endfacet
facet normal 0.234340488910675 -0.9721545577049255 -5.217823569048097e-12
  outer loop
    vertex 6809.53466796875 623.2623291015625 3100
    vertex 5980.6669921875 420.0260009765625 3500
    vertex 5980.6669921875 420.0260009765625 3100
  endloop
endfacet
facet normal 0.234340488910675 -0.9721545577049255 -5.217823569048097e-12
  outer loop
    vertex 5980.6669921875 420.0260009765625 3500
    vertex 6809.53466796875 623.2623291015625 3100
    vertex 6809.53466796875 623.2623291015625 3500
  endloop
endfacet
facet normal 0.234340488910675 -0.9721545577049255 -5.217823569048097e-12
  outer loop
    vertex 5980.6669921875 420.0260009765625 3500
    vertex 5910.72412109375 402.8761596679688 3100
    vertex 5980.6669921875 420.0260009765625 3100
  endloop
endfacet
facet normal 0.234340488910675 -0.9721545577049255 -5.217823569048097e-12
  outer loop
    vertex 5910.72412109375 402.8761596679688 3100
    vertex 5980.6669921875 420.0260009765625 3500
    vertex 5910.72412109375 402.8761596679688 3500
  endloop
endfacet
facet normal 0.1703699082136154 -0.9853801727294922 -3.467078187047168e-12
  outer loop
    vertex 5910.72412109375 402.8761596679688 3500
    vertex 4999.48291015625 242.6156768798828 3100
    vertex 5910.72412109375 402.8761596679688 3100
  endloop
endfacet
facet normal 0.1703699082136154 -0.9853801727294922 -3.467078187047168e-12
  outer loop
    vertex 4999.48291015625 242.6156768798828 3100
    vertex 5910.72412109375 402.8761596679688 3500
    vertex 4999.48291015625 242.6156768798828 3500
  endloop
endfacet
facet normal 0.1056967675685883 -0.9943984150886536 -1.70220456653658e-12
  outer loop
    vertex 4999.48291015625 242.6156768798828 3500
    vertex 4079.760986328125 143.1754913330078 3100
    vertex 4999.48291015625 242.6156768798828 3100
  endloop
endfacet
facet normal 0.1056967675685883 -0.9943984150886536 -1.70220456653658e-12
  outer loop
    vertex 4079.760986328125 143.1754913330078 3100
    vertex 4999.48291015625 242.6156768798828 3500
    vertex 4079.760986328125 143.1754913330078 3500
  endloop
endfacet
facet normal 0.04058832302689552 -0.9991759657859802 6.950932613779964e-14
  outer loop
    vertex 4079.760986328125 143.1754913330078 3100
    vertex 3195.544677734375 106.6394195556641 3500
    vertex 3195.544677734375 106.6394195556641 3100
  endloop
endfacet
facet normal 0.04058832302689552 -0.9991759657859802 6.950932613779964e-14
  outer loop
    vertex 3195.544677734375 106.6394195556641 3500
    vertex 4079.760986328125 143.1754913330078 3100
    vertex 4079.760986328125 143.1754913330078 3500
  endloop
endfacet
facet normal 0.0009113307460211217 -0.9999995827674866 1.146743507443593e-12
  outer loop
    vertex 3195.544677734375 106.6394195556641 3500
    vertex 3114.4853515625 106.5642776489258 3100
    vertex 3195.544677734375 106.6394195556641 3100
  endloop
endfacet
facet normal 0.0009113307460211217 -0.9999995827674866 1.146743507443593e-12
  outer loop
    vertex 3114.4853515625 106.5642776489258 3100
    vertex 3195.544677734375 106.6394195556641 3500
    vertex 3114.4853515625 106.5642776489258 3500
  endloop
endfacet
facet normal -0.02564476989209652 -0.9996711015701294 1.866713597933889e-12
  outer loop
    vertex 3114.4853515625 106.5642776489258 3500
    vertex 3033.453125 108.6787567138672 3100
    vertex 3114.4853515625 106.5642776489258 3100
  endloop
endfacet
facet normal -0.02564476989209652 -0.9996711015701294 1.866713597933889e-12
  outer loop
    vertex 3033.453125 108.6787567138672 3100
    vertex 3114.4853515625 106.5642776489258 3500
    vertex 3033.453125 108.6787567138672 3500
  endloop
endfacet
facet normal -0.05218340456485748 -0.9986374974250793 2.585383730019375e-12
  outer loop
    vertex 3033.453125 108.6787567138672 3500
    vertex 2952.505859375 112.9813461303711 3100
    vertex 3033.453125 108.6787567138672 3100
  endloop
endfacet
facet normal -0.05218340456485748 -0.9986374974250793 2.585383730019375e-12
  outer loop
    vertex 2952.505859375 112.9813461303711 3100
    vertex 3033.453125 108.6787567138672 3500
    vertex 2952.505859375 112.9813461303711 3500
  endloop
endfacet
facet normal -0.07868649065494537 -0.996899425983429 3.302264494839391e-12
  outer loop
    vertex 2952.505859375 112.9813461303711 3500
    vertex 2871.7021484375 119.4689559936523 3100
    vertex 2952.505859375 112.9813461303711 3100
  endloop
endfacet
facet normal -0.07868649065494537 -0.996899425983429 3.302264494839391e-12
  outer loop
    vertex 2871.7021484375 119.4689559936523 3100
    vertex 2952.505859375 112.9813461303711 3500
    vertex 2871.7021484375 119.4689559936523 3500
  endloop
endfacet
facet normal -0.1051359623670578 -0.9944578409194946 4.016866700373711e-12
  outer loop
    vertex 2871.7021484375 119.4689559936523 3500
    vertex 2791.099609375 128.1369323730469 3100
    vertex 2871.7021484375 119.4689559936523 3100
  endloop
endfacet
facet normal -0.1051359623670578 -0.9944578409194946 4.016866700373711e-12
  outer loop
    vertex 2791.099609375 128.1369323730469 3100
    vertex 2871.7021484375 119.4689559936523 3500
    vertex 2791.099609375 128.1369323730469 3500
  endloop
endfacet
facet normal -0.1315137594938278 -0.9913143515586853 4.728702672485152e-12
  outer loop
    vertex 2791.099609375 128.1369323730469 3500
    vertex 2710.75634765625 138.9790496826172 3100
    vertex 2791.099609375 128.1369323730469 3100
  endloop
endfacet
facet normal -0.1315137594938278 -0.9913143515586853 4.728702672485152e-12
  outer loop
    vertex 2710.75634765625 138.9790496826172 3100
    vertex 2791.099609375 128.1369323730469 3500
    vertex 2710.75634765625 138.9790496826172 3500
  endloop
endfacet
facet normal -0.1578018963336945 -0.987470805644989 5.437286038079137e-12
  outer loop
    vertex 2710.75634765625 138.9790496826172 3500
    vertex 2630.729736328125 151.9875335693359 3100
    vertex 2710.75634765625 138.9790496826172 3100
  endloop
endfacet
facet normal -0.1578018963336945 -0.987470805644989 5.437286038079137e-12
  outer loop
    vertex 2630.729736328125 151.9875335693359 3100
    vertex 2710.75634765625 138.9790496826172 3500
    vertex 2630.729736328125 151.9875335693359 3500
  endloop
endfacet
facet normal -0.1839823424816132 -0.982929527759552 6.14213150826326e-12
  outer loop
    vertex 2630.729736328125 151.9875335693359 3500
    vertex 2551.0771484375 167.1530456542969 3100
    vertex 2630.729736328125 151.9875335693359 3100
  endloop
endfacet
facet normal -0.1839823424816132 -0.982929527759552 6.14213150826326e-12
  outer loop
    vertex 2551.0771484375 167.1530456542969 3100
    vertex 2630.729736328125 151.9875335693359 3500
    vertex 2551.0771484375 167.1530456542969 3500
  endloop
endfacet
facet normal -0.2100372016429901 -0.9776933789253235 6.842755528868594e-12
  outer loop
    vertex 2551.0771484375 167.1530456542969 3500
    vertex 2471.85595703125 184.4647216796875 3100
    vertex 2551.0771484375 167.1530456542969 3100
  endloop
endfacet
facet normal -0.2100372016429901 -0.9776933789253235 6.842755528868594e-12
  outer loop
    vertex 2471.85595703125 184.4647216796875 3100
    vertex 2551.0771484375 167.1530456542969 3500
    vertex 2471.85595703125 184.4647216796875 3500
  endloop
endfacet
facet normal -0.2359485477209091 -0.9717655777931213 7.538676280449685e-12
  outer loop
    vertex 2471.85595703125 184.4647216796875 3500
    vertex 2393.122802734375 203.9101257324219 3100
    vertex 2471.85595703125 184.4647216796875 3100
  endloop
endfacet
facet normal -0.2359485477209091 -0.9717655777931213 7.538676280449685e-12
  outer loop
    vertex 2393.122802734375 203.9101257324219 3100
    vertex 2471.85595703125 184.4647216796875 3500
    vertex 2393.122802734375 203.9101257324219 3500
  endloop
endfacet
facet normal -0.2616985738277435 -0.9651496410369873 8.229415413008034e-12
  outer loop
    vertex 2393.122802734375 203.9101257324219 3500
    vertex 2314.9345703125 225.4753112792969 3100
    vertex 2393.122802734375 203.9101257324219 3100
  endloop
endfacet
facet normal -0.2616985738277435 -0.9651496410369873 8.229415413008034e-12
  outer loop
    vertex 2314.9345703125 225.4753112792969 3100
    vertex 2393.122802734375 203.9101257324219 3500
    vertex 2314.9345703125 225.4753112792969 3500
  endloop
endfacet
facet normal -0.2872694730758667 -0.9578498005867004 8.914495010226009e-12
  outer loop
    vertex 2314.9345703125 225.4753112792969 3500
    vertex 2237.3466796875 249.1448059082031 3100
    vertex 2314.9345703125 225.4753112792969 3100
  endloop
endfacet
facet normal -0.2872694730758667 -0.9578498005867004 8.914495010226009e-12
  outer loop
    vertex 2237.3466796875 249.1448059082031 3100
    vertex 2314.9345703125 225.4753112792969 3500
    vertex 2237.3466796875 249.1448059082031 3500
  endloop
endfacet
facet normal -0.2879809737205505 -0.9576361179351807 8.933544876077448e-12
  outer loop
    vertex 2237.3466796875 249.1448059082031 3500
    vertex 2175.083251953125 268.1907043457031 3100
    vertex 2237.3466796875 249.1448059082031 3100
  endloop
endfacet
facet normal -0.2879809737205505 -0.9576361179351807 8.933544876077448e-12
  outer loop
    vertex 2175.083251953125 268.1907043457031 3100
    vertex 2237.3466796875 249.1448059082031 3500
    vertex 2175.083251953125 268.1907043457031 3500
  endloop
endfacet
facet normal -0.3495868742465973 -0.9369039535522461 1.058036557671782e-11
  outer loop
    vertex 2175.083251953125 268.1907043457031 3500
    vertex 1988.274169921875 339.09326171875 3100
    vertex 2175.083251953125 268.1907043457031 3100
  endloop
endfacet
facet normal -0.3495868742465973 -0.9369039535522461 1.058036557671782e-11
  outer loop
    vertex 1988.274169921875 339.09326171875 3100
    vertex 2175.083251953125 268.1907043457031 3500
    vertex 1988.274169921875 339.09326171875 3500
  endloop
endfacet
facet normal -0.4097590148448944 -0.9121938347816467 1.218363430977032e-11
  outer loop
    vertex 1988.274169921875 339.09326171875 3500
    vertex 1806.46337890625 422.1672973632812 3100
    vertex 1988.274169921875 339.09326171875 3100
  endloop
endfacet
facet normal -0.4097590148448944 -0.9121938347816467 1.218363430977032e-11
  outer loop
    vertex 1806.46337890625 422.1672973632812 3100
    vertex 1988.274169921875 339.09326171875 3500
    vertex 1806.46337890625 422.1672973632812 3500
  endloop
endfacet
facet normal -0.468245267868042 -0.8835985064506531 1.373662121550989e-11
  outer loop
    vertex 1806.46337890625 422.1672973632812 3500
    vertex 1630.429321289062 517.0570068359375 3100
    vertex 1806.46337890625 422.1672973632812 3100
  endloop
endfacet
facet normal -0.468245267868042 -0.8835985064506531 1.373662121550989e-11
  outer loop
    vertex 1630.429321289062 517.0570068359375 3100
    vertex 1806.46337890625 422.1672973632812 3500
    vertex 1630.429321289062 517.0570068359375 3500
  endloop
endfacet
facet normal -0.5247980952262878 -0.8512267470359802 1.523273868153652e-11
  outer loop
    vertex 1630.429321289062 517.0570068359375 3500
    vertex 1460.926147460938 623.3560180664062 3100
    vertex 1630.429321289062 517.0570068359375 3100
  endloop
endfacet
facet normal -0.5247980952262878 -0.8512267470359802 1.523273868153652e-11
  outer loop
    vertex 1460.926147460938 623.3560180664062 3100
    vertex 1630.429321289062 517.0570068359375 3500
    vertex 1460.926147460938 623.3560180664062 3500
  endloop
endfacet
facet normal -0.5791754722595215 -0.8152028918266296 1.66655664962656e-11
  outer loop
    vertex 1460.926147460938 623.3560180664062 3500
    vertex 1369.90673828125 689.13427734375 3100
    vertex 1460.926147460938 623.3560180664062 3100
  endloop
endfacet
facet normal -0.5791754722595215 -0.8152028918266296 1.66655664962656e-11
  outer loop
    vertex 1369.90673828125 689.13427734375 3100
    vertex 1460.926147460938 623.3560180664062 3500
    vertex 1369.90673828125 689.13427734375 3500
  endloop
endfacet
facet normal -0.5791754722595215 -0.8152028918266296 1.66655664962656e-11
  outer loop
    vertex 1369.90673828125 689.13427734375 3100
    vertex 1298.679565429688 740.6090087890625 3500
    vertex 1298.679565429688 740.6090087890625 3100
  endloop
endfacet
facet normal -0.5791754722595215 -0.8152028918266296 1.66655664962656e-11
  outer loop
    vertex 1298.679565429688 740.6090087890625 3500
    vertex 1369.90673828125 689.13427734375 3100
    vertex 1369.90673828125 689.13427734375 3500
  endloop
endfacet
facet normal -0.6311419010162354 -0.7756673693656921 1.802888220658883e-11
  outer loop
    vertex 1298.679565429688 740.6090087890625 3500
    vertex 1144.384521484375 868.3139038085938 3100
    vertex 1298.679565429688 740.6090087890625 3100
  endloop
endfacet
facet normal -0.6311419010162354 -0.7756673693656921 1.802888220658883e-11
  outer loop
    vertex 1144.384521484375 868.3139038085938 3100
    vertex 1298.679565429688 740.6090087890625 3500
    vertex 1144.384521484375 868.3139038085938 3500
  endloop
endfacet
facet normal -0.6804696917533875 -0.7327762246131897 1.931669234289668e-11
  outer loop
    vertex 1144.384521484375 868.3139038085938 3500
    vertex 998.7017822265625 1005.923767089844 3100
    vertex 1144.384521484375 868.3139038085938 3100
  endloop
endfacet
facet normal -0.6804696917533875 -0.7327762246131897 1.931669234289668e-11
  outer loop
    vertex 998.7017822265625 1005.923767089844 3100
    vertex 1144.384521484375 868.3139038085938 3500
    vertex 998.7017822265625 1005.923767089844 3500
  endloop
endfacet
facet normal -0.726939857006073 -0.6867011189460754 2.052325497048368e-11
  outer loop
    vertex 998.7017822265625 1005.923767089844 3500
    vertex 862.2553100585938 1152.849243164062 3100
    vertex 998.7017822265625 1005.923767089844 3100
  endloop
endfacet
facet normal -0.726939857006073 -0.6867011189460754 2.052325497048368e-11
  outer loop
    vertex 862.2553100585938 1152.849243164062 3100
    vertex 998.7017822265625 1005.923767089844 3500
    vertex 862.2553100585938 1152.849243164062 3500
  endloop
endfacet
facet normal -0.7703434228897095 -0.6376292109489441 2.164312479235875e-11
  outer loop
    vertex 862.2553100585938 1152.849243164062 3500
    vertex 735.6294555664062 1308.461059570312 3100
    vertex 862.2553100585938 1152.849243164062 3100
  endloop
endfacet
facet normal -0.7703434228897095 -0.6376292109489441 2.164312479235875e-11
  outer loop
    vertex 735.6294555664062 1308.461059570312 3100
    vertex 862.2553100585938 1152.849243164062 3500
    vertex 735.6294555664062 1308.461059570312 3500
  endloop
endfacet
facet normal -0.8104828000068665 -0.5857624411582947 2.267117570065036e-11
  outer loop
    vertex 735.6294555664062 1308.461059570312 3500
    vertex 683.0984497070312 1382.394775390625 3100
    vertex 735.6294555664062 1308.461059570312 3100
  endloop
endfacet
facet normal -0.8104828000068665 -0.5857624411582947 2.267117570065036e-11
  outer loop
    vertex 683.0984497070312 1382.394775390625 3100
    vertex 735.6294555664062 1308.461059570312 3500
    vertex 683.0984497070312 1382.394775390625 3500
  endloop
endfacet
facet normal -0.8104828000068665 -0.5857624411582947 2.267117570065036e-11
  outer loop
    vertex 683.0984497070312 1382.394775390625 3500
    vertex 619.3665161132812 1472.092895507812 3100
    vertex 683.0984497070312 1382.394775390625 3100
  endloop
endfacet
facet normal -0.8104828000068665 -0.5857624411582947 2.267117570065036e-11
  outer loop
    vertex 619.3665161132812 1472.092895507812 3100
    vertex 683.0984497070312 1382.394775390625 3500
    vertex 619.3665161132812 1472.092895507812 3500
  endloop
endfacet
facet normal -0.8471729159355164 -0.5313173532485962 2.360264240997001e-11
  outer loop
    vertex 619.3665161132812 1472.092895507812 3500
    vertex 513.9644165039062 1643.043823242188 3100
    vertex 619.3665161132812 1472.092895507812 3100
  endloop
endfacet
facet normal -0.8471729159355164 -0.5313173532485962 2.360264240997001e-11
  outer loop
    vertex 513.9644165039062 1643.043823242188 3100
    vertex 619.3665161132812 1472.092895507812 3500
    vertex 513.9644165039062 1643.043823242188 3500
  endloop
endfacet
facet normal -0.8802425861358643 -0.4745239913463593 2.443315168243476e-11
  outer loop
    vertex 513.9644165039062 1643.043823242188 3500
    vertex 419.8745422363281 1820.581787109375 3100
    vertex 513.9644165039062 1643.043823242188 3100
  endloop
endfacet
facet normal -0.8802425861358643 -0.4745239913463593 2.443315168243476e-11
  outer loop
    vertex 419.8745422363281 1820.581787109375 3100
    vertex 513.9644165039062 1643.043823242188 3500
    vertex 419.8745422363281 1820.581787109375 3500
  endloop
endfacet
facet normal -0.9095358848571777 -0.4156254529953003 2.515875875686024e-11
  outer loop
    vertex 419.8745422363281 1820.581787109375 3500
    vertex 337.4998474121094 2003.946411132812 3100
    vertex 419.8745422363281 1820.581787109375 3100
  endloop
endfacet
facet normal -0.9095358848571777 -0.4156254529953003 2.515875875686024e-11
  outer loop
    vertex 337.4998474121094 2003.946411132812 3100
    vertex 419.8745422363281 1820.581787109375 3500
    vertex 337.4998474121094 2003.946411132812 3500
  endloop
endfacet
facet normal -0.934913158416748 -0.3548766076564789 2.577597163488932e-11
  outer loop
    vertex 337.4998474121094 2003.946411132812 3500
    vertex 267.1931457519531 2192.352294921875 3100
    vertex 337.4998474121094 2003.946411132812 3100
  endloop
endfacet
facet normal -0.934913158416748 -0.3548766076564789 2.577597163488932e-11
  outer loop
    vertex 267.1931457519531 2192.352294921875 3100
    vertex 337.4998474121094 2003.946411132812 3500
    vertex 267.1931457519531 2192.352294921875 3500
  endloop
endfacet
facet normal -0.95625239610672 -0.2925429940223694 2.628179271435549e-11
  outer loop
    vertex 267.1931457519531 2192.352294921875 3500
    vertex 247.6338195800781 2257.386474609375 3100
    vertex 267.1931457519531 2192.352294921875 3100
  endloop
endfacet
facet normal -0.95625239610672 -0.2925429940223694 2.628179271435549e-11
  outer loop
    vertex 247.6338195800781 2257.386474609375 3100
    vertex 267.1931457519531 2192.352294921875 3500
    vertex 247.6338195800781 2257.386474609375 3500
  endloop
endfacet
facet normal -0.95625239610672 -0.2925429940223694 2.628179271435549e-11
  outer loop
    vertex 247.6338195800781 2257.386474609375 3500
    vertex 209.2555084228516 2384.992919921875 3100
    vertex 247.6338195800781 2257.386474609375 3100
  endloop
endfacet
facet normal -0.95625239610672 -0.2925429940223694 2.628179271435549e-11
  outer loop
    vertex 209.2555084228516 2384.992919921875 3100
    vertex 247.6338195800781 2257.386474609375 3500
    vertex 209.2555084228516 2384.992919921875 3500
  endloop
endfacet
facet normal -0.9734500646591187 -0.2288995087146759 2.667373787124117e-11
  outer loop
    vertex 209.2555084228516 2384.992919921875 3500
    vertex 163.9350891113281 2581.04296875 3100
    vertex 209.2555084228516 2384.992919921875 3100
  endloop
endfacet
facet normal -0.9734500646591187 -0.2288995087146759 2.667373787124117e-11
  outer loop
    vertex 163.9350891113281 2581.04296875 3100
    vertex 209.2555084228516 2384.992919921875 3500
    vertex 163.9350891113281 2581.04296875 3500
  endloop
endfacet
facet normal -0.9864222407341003 -0.1642288565635681 2.694985901108282e-11
  outer loop
    vertex 163.9350891113281 2581.04296875 3500
    vertex 131.4259796142578 2779.662841796875 3100
    vertex 163.9350891113281 2581.04296875 3100
  endloop
endfacet
facet normal -0.9864222407341003 -0.1642288565635681 2.694985901108282e-11
  outer loop
    vertex 131.4259796142578 2779.662841796875 3100
    vertex 163.9350891113281 2581.04296875 3500
    vertex 131.4259796142578 2779.662841796875 3500
  endloop
endfacet
facet normal -0.9951053261756897 -0.09882000833749771 2.710877008982315e-11
  outer loop
    vertex 131.4259796142578 2779.662841796875 3500
    vertex 111.8674011230469 2980.001708984375 3100
    vertex 131.4259796142578 2779.662841796875 3100
  endloop
endfacet
facet normal -0.9951053261756897 -0.09882000833749771 2.710877008982315e-11
  outer loop
    vertex 111.8674011230469 2980.001708984375 3100
    vertex 131.4259796142578 2779.662841796875 3500
    vertex 111.8674011230469 2980.001708984375 3500
  endloop
endfacet
facet normal -0.9994564652442932 -0.03296647593379021 2.71496523179815e-11
  outer loop
    vertex 111.8674011230469 2980.001708984375 3500
    vertex 106.6398849487305 3141.211181640625 3100
    vertex 111.8674011230469 2980.001708984375 3100
  endloop
endfacet
facet normal -0.9994564652442932 -0.03296647593379021 2.71496523179815e-11
  outer loop
    vertex 106.6398849487305 3141.211181640625 3100
    vertex 111.8674011230469 2980.001708984375 3500
    vertex 106.6398849487305 3141.211181640625 3500
  endloop
endfacet
facet normal -0.01948979683220387 0.9998100399971008 -6.425660784709075e-13
  outer loop
    vertex 106.6398849487305 3141.211181640625 3500
    vertex 106.9130630493164 3141.216552734375 3100
    vertex 106.6398849487305 3141.211181640625 3100
  endloop
endfacet
facet normal -0.01948979683220387 0.9998100399971008 -6.425660784709075e-13
  outer loop
    vertex 106.9130630493164 3141.216552734375 3100
    vertex 106.6398849487305 3141.211181640625 3500
    vertex 106.9130630493164 3141.216552734375 3500
  endloop
endfacet
facet normal -0.9998034834861755 -0.0198247879743576 2.714367099143633e-11
  outer loop
    vertex 106.9130630493164 3141.216552734375 3500
    vertex 106.0973129272461 3183.06396484375 3100
    vertex 106.9130630493164 3141.216552734375 3100
  endloop
endfacet
facet normal -0.9998034834861755 -0.0198247879743576 2.714367099143633e-11
  outer loop
    vertex 106.0973129272461 3183.06396484375 3100
    vertex 106.9130630493164 3141.216552734375 3500
    vertex 106.0973129272461 3183.06396484375 3500
  endloop
endfacet
facet normal 0.01948979683220387 -0.9998100399971008 6.425660784709075e-13
  outer loop
    vertex 106.0973129272461 3183.06396484375 3500
    vertex 105.4115219116211 3183.05029296875 3100
    vertex 106.0973129272461 3183.06396484375 3100
  endloop
endfacet
facet normal 0.01948979683220387 -0.9998100399971008 6.425660784709075e-13
  outer loop
    vertex 105.4115219116211 3183.05029296875 3100
    vertex 106.0973129272461 3183.06396484375 3500
    vertex 105.4115219116211 3183.05029296875 3500
  endloop
endfacet
facet normal -0.9992918968200684 0.03762544691562653 2.706249287165452e-11
  outer loop
    vertex 105.4115219116211 3183.05029296875 3500
    vertex 106.9197082519531 3223.794921875 3100
    vertex 105.4115219116211 3183.05029296875 3100
  endloop
endfacet
facet normal -0.9992918968200684 0.03762544691562653 2.706249287165452e-11
  outer loop
    vertex 106.9197082519531 3223.794921875 3100
    vertex 105.4115219116211 3183.05029296875 3500
    vertex 106.9197082519531 3223.794921875 3500
  endloop
endfacet
facet normal -0.9992918968200684 0.03762544691562653 2.706249287165452e-11
  outer loop
    vertex 106.9197082519531 3223.794921875 3500
    vertex 175.7697143554688 5083.81982421875 3100
    vertex 106.9197082519531 3223.794921875 3100
  endloop
endfacet
facet normal -0.9992918968200684 0.03762544691562653 2.706249287165452e-11
  outer loop
    vertex 175.7697143554688 5083.81982421875 3100
    vertex 106.9197082519531 3223.794921875 3500
    vertex 175.7697143554688 5083.81982421875 3500
  endloop
endfacet
facet normal -0.9992918968200684 0.03762544691562653 2.706249287165452e-11
  outer loop
    vertex 175.7697143554688 5083.81982421875 3500
    vertex 179.6722412109375 5189.24853515625 3100
    vertex 175.7697143554688 5083.81982421875 3100
  endloop
endfacet
facet normal -0.9992918968200684 0.03762544691562653 2.706249287165452e-11
  outer loop
    vertex 179.6722412109375 5189.24853515625 3100
    vertex 175.7697143554688 5083.81982421875 3500
    vertex 179.6722412109375 5189.24853515625 3500
  endloop
endfacet
facet normal -0.994543731212616 0.1043203845620155 2.685556464709915e-11
  outer loop
    vertex 179.6722412109375 5189.24853515625 3500
    vertex 383.370849609375 7164.611328125 3100
    vertex 179.6722412109375 5189.24853515625 3100
  endloop
endfacet
facet normal -0.994543731212616 0.1043203845620155 2.685556464709915e-11
  outer loop
    vertex 383.370849609375 7164.611328125 3100
    vertex 179.6722412109375 5189.24853515625 3500
    vertex 383.370849609375 7164.611328125 3500
  endloop
endfacet
facet normal -0.994543731212616 0.1043203845620155 2.685556464709915e-11
  outer loop
    vertex 383.370849609375 7164.611328125 3500
    vertex 385.7738037109375 7187.9140625 3100
    vertex 383.370849609375 7164.611328125 3100
  endloop
endfacet
facet normal -0.994543731212616 0.1043203845620155 2.685556464709915e-11
  outer loop
    vertex 385.7738037109375 7187.9140625 3100
    vertex 383.370849609375 7164.611328125 3500
    vertex 385.7738037109375 7187.9140625 3500
  endloop
endfacet
facet normal -0.9853518605232239 0.1705334931612015 2.652866121222175e-11
  outer loop
    vertex 385.7738037109375 7187.9140625 3500
    vertex 722.7417602539062 9168.412109375 3100
    vertex 385.7738037109375 7187.9140625 3100
  endloop
endfacet
facet normal -0.9853518605232239 0.1705334931612015 2.652866121222175e-11
  outer loop
    vertex 722.7417602539062 9168.412109375 3100
    vertex 385.7738037109375 7187.9140625 3500
    vertex 722.7417602539062 9168.412109375 3500
  endloop
endfacet
facet normal -0.9717627763748169 0.2359599024057388 2.608340279874888e-11
  outer loop
    vertex 722.7417602539062 9168.412109375 3500
    vertex 1061.918701171875 10589.275390625 3100
    vertex 722.7417602539062 9168.412109375 3100
  endloop
endfacet
facet normal -0.9717627763748169 0.2359599024057388 2.608340279874888e-11
  outer loop
    vertex 1061.918701171875 10589.275390625 3100
    vertex 722.7417602539062 9168.412109375 3500
    vertex 1061.918701171875 10589.275390625 3500
  endloop
endfacet
facet normal -0.9717627763748169 0.2359599024057388 2.608340279874888e-11
  outer loop
    vertex 1061.918701171875 10589.275390625 3500
    vertex 1189.094848632812 11122.03515625 3100
    vertex 1061.918701171875 10589.275390625 3100
  endloop
endfacet
facet normal -0.9717627763748169 0.2359599024057388 2.608340279874888e-11
  outer loop
    vertex 1189.094848632812 11122.03515625 3100
    vertex 1061.918701171875 10589.275390625 3500
    vertex 1189.094848632812 11122.03515625 3500
  endloop
endfacet
facet normal -0.9538449048995972 0.3002997040748596 2.55219942402185e-11
  outer loop
    vertex 1189.094848632812 11122.03515625 3500
    vertex 1645.062866210938 12595.234375 3100
    vertex 1189.094848632812 11122.03515625 3100
  endloop
endfacet
facet normal -0.9538449048995972 0.3002997040748596 2.55219942402185e-11
  outer loop
    vertex 1645.062866210938 12595.234375 3100
    vertex 1189.094848632812 11122.03515625 3500
    vertex 1645.062866210938 12595.234375 3500
  endloop
endfacet
facet normal -0.9538449048995972 0.3002997040748596 2.55219942402185e-11
  outer loop
    vertex 1645.062866210938 12595.234375 3500
    vertex 1782.782836914062 13040.197265625 3100
    vertex 1645.062866210938 12595.234375 3100
  endloop
endfacet
facet normal -0.9538449048995972 0.3002997040748596 2.55219942402185e-11
  outer loop
    vertex 1782.782836914062 13040.197265625 3100
    vertex 1645.062866210938 12595.234375 3500
    vertex 1782.782836914062 13040.197265625 3500
  endloop
endfacet
facet normal -0.9316878914833069 0.3632597029209137 2.484721282891567e-11
  outer loop
    vertex 1782.782836914062 13040.197265625 3500
    vertex 2501.196044921875 14914.46484375 3100
    vertex 1782.782836914062 13040.197265625 3100
  endloop
endfacet
facet normal -0.9316878914833069 0.3632597029209137 2.484721282891567e-11
  outer loop
    vertex 2501.196044921875 14914.46484375 3100
    vertex 1782.782836914062 13040.197265625 3500
    vertex 2501.196044921875 14914.46484375 3500
  endloop
endfacet
facet normal -0.9316878914833069 0.3632597029209137 2.484721282891567e-11
  outer loop
    vertex 2501.196044921875 14914.46484375 3500
    vertex 2546.126708984375 15031.685546875 3100
    vertex 2501.196044921875 14914.46484375 3100
  endloop
endfacet
facet normal -0.9316878914833069 0.3632597029209137 2.484721282891567e-11
  outer loop
    vertex 2546.126708984375 15031.685546875 3100
    vertex 2501.196044921875 14914.46484375 3500
    vertex 2546.126708984375 15031.685546875 3500
  endloop
endfacet
facet normal -7.784424146950464e-12 1 -1.171464509598652e-12
  outer loop
    vertex 2546.126708984375 15031.685546875 3500
    vertex 2605.343017578125 15031.685546875 3100
    vertex 2546.126708984375 15031.685546875 3100
  endloop
endfacet
facet normal -7.784424146950464e-12 1 -1.171464509598652e-12
  outer loop
    vertex 2605.343017578125 15031.685546875 3100
    vertex 2546.126708984375 15031.685546875 3500
    vertex 2605.343017578125 15031.685546875 3500
  endloop
endfacet
facet normal 0 1 -1.171464509598652e-12
  outer loop
    vertex 2605.343017578125 15031.685546875 3500
    vertex 3455.343017578125 15031.685546875 3100
    vertex 2605.343017578125 15031.685546875 3100
  endloop
endfacet
facet normal 0 1 -1.171464509598652e-12
  outer loop
    vertex 3455.343017578125 15031.685546875 3100
    vertex 2605.343017578125 15031.685546875 3500
    vertex 3455.343017578125 15031.685546875 3500
  endloop
endfacet
facet normal 0 1 -1.171464509598652e-12
  outer loop
    vertex 3455.343017578125 15031.685546875 3500
    vertex 8855.3427734375 15031.685546875 3100
    vertex 3455.343017578125 15031.685546875 3100
  endloop
endfacet
facet normal 0 1 -1.171464509598652e-12
  outer loop
    vertex 8855.3427734375 15031.685546875 3100
    vertex 3455.343017578125 15031.685546875 3500
    vertex 8855.3427734375 15031.685546875 3500
  endloop
endfacet
facet normal 7.229416175945358e-13 1 -1.171464509598652e-12
  outer loop
    vertex 8855.3427734375 15031.685546875 3500
    vertex 9655.3427734375 15031.685546875 3100
    vertex 8855.3427734375 15031.685546875 3100
  endloop
endfacet
facet normal 7.229416175945358e-13 1 -1.171464509598652e-12
  outer loop
    vertex 9655.3427734375 15031.685546875 3100
    vertex 8855.3427734375 15031.685546875 3500
    vertex 9655.3427734375 15031.685546875 3500
  endloop
endfacet
facet normal 1 3.6404573982901e-15 -2.712577731878163e-11
  outer loop
    vertex 9655.3427734375 15031.685546875 3100
    vertex 9655.3427734375 14505 3500
    vertex 9655.3427734375 14505 3100
  endloop
endfacet
facet normal 1 3.6404573982901e-15 -2.712577731878163e-11
  outer loop
    vertex 9655.3427734375 14505 3500
    vertex 9655.3427734375 15031.685546875 3100
    vertex 9655.3427734375 15031.685546875 3500
  endloop
endfacet
facet normal -8.654397185871299e-13 1 -1.171464509598652e-12
  outer loop
    vertex 9655.3427734375 14505 3100
    vertex 11084.529296875 14505 3500
    vertex 11084.529296875 14505 3100
  endloop
endfacet
facet normal -8.654397185871299e-13 1 -1.171464509598652e-12
  outer loop
    vertex 11084.529296875 14505 3500
    vertex 9655.3427734375 14505 3100
    vertex 9655.3427734375 14505 3500
  endloop
endfacet
facet normal 1 8.156080671950505e-11 -2.712577731878163e-11
  outer loop
    vertex 11084.529296875 14505 3100
    vertex 11084.529296875 14426.548828125 3500
    vertex 11084.529296875 14426.548828125 3100
  endloop
endfacet
facet normal 1 8.156080671950505e-11 -2.712577731878163e-11
  outer loop
    vertex 11084.529296875 14426.548828125 3500
    vertex 11084.529296875 14505 3100
    vertex 11084.529296875 14505 3500
  endloop
endfacet
facet normal 1 -1.003836770652189e-13 -2.712577731878163e-11
  outer loop
    vertex 11084.529296875 14426.548828125 3100
    vertex 11084.529296875 12056.4306640625 3500
    vertex 11084.529296875 12056.4306640625 3100
  endloop
endfacet
facet normal 1 -1.003836770652189e-13 -2.712577731878163e-11
  outer loop
    vertex 11084.529296875 12056.4306640625 3500
    vertex 11084.529296875 14426.548828125 3100
    vertex 11084.529296875 14426.548828125 3500
  endloop
endfacet
facet normal 1 -2.903004876417259e-12 -2.712577731878163e-11
  outer loop
    vertex 11084.529296875 12056.4306640625 3100
    vertex 11084.529296875 9232.4609375 3500
    vertex 11084.529296875 9232.4609375 3100
  endloop
endfacet
facet normal 1 -2.903004876417259e-12 -2.712577731878163e-11
  outer loop
    vertex 11084.529296875 9232.4609375 3500
    vertex 11084.529296875 12056.4306640625 3100
    vertex 11084.529296875 12056.4306640625 3500
  endloop
endfacet
facet normal 1 1.547210406122066e-23 -2.712577731878163e-11
  outer loop
    vertex 11084.529296875 9232.4609375 3100
    vertex 11084.529296875 7820.47607421875 3500
    vertex 11084.529296875 7820.47607421875 3100
  endloop
endfacet
facet normal 1 1.547210406122066e-23 -2.712577731878163e-11
  outer loop
    vertex 11084.529296875 7820.47607421875 3500
    vertex 11084.529296875 9232.4609375 3100
    vertex 11084.529296875 9232.4609375 3500
  endloop
endfacet
facet normal 1 -8.407882680014356e-13 -2.712577731878163e-11
  outer loop
    vertex 11084.529296875 7820.47607421875 3100
    vertex 11084.529296875 5231.7890625 3500
    vertex 11084.529296875 5231.7890625 3100
  endloop
endfacet
facet normal 1 -8.407882680014356e-13 -2.712577731878163e-11
  outer loop
    vertex 11084.529296875 5231.7890625 3500
    vertex 11084.529296875 7820.47607421875 3100
    vertex 11084.529296875 7820.47607421875 3500
  endloop
endfacet
facet normal 1 1.359898413495764e-12 -2.712577731878163e-11
  outer loop
    vertex 11084.529296875 5231.7890625 3100
    vertex 11084.529296875 2643.101806640625 3500
    vertex 11084.529296875 2643.101806640625 3100
  endloop
endfacet
facet normal 1 1.359898413495764e-12 -2.712577731878163e-11
  outer loop
    vertex 11084.529296875 2643.101806640625 3500
    vertex 11084.529296875 5231.7890625 3100
    vertex 11084.529296875 5231.7890625 3500
  endloop
endfacet
facet normal -8.086069772029076e-23 -1 1.171464509598652e-12
  outer loop
    vertex 11084.529296875 2643.101806640625 3100
    vertex 11074.26171875 2643.101806640625 3500
    vertex 11074.26171875 2643.101806640625 3100
  endloop
endfacet
facet normal -8.086069772029076e-23 -1 1.171464509598652e-12
  outer loop
    vertex 11074.26171875 2643.101806640625 3500
    vertex 11084.529296875 2643.101806640625 3100
    vertex 11084.529296875 2643.101806640625 3500
  endloop
endfacet
facet normal 0.5344609618186951 -0.8451931476593018 -1.350755531731584e-11
  outer loop
    vertex 11074.26171875 2643.101806640625 3100
    vertex 10983.6025390625 2584.786865234375 3500
    vertex 10983.6025390625 2584.786865234375 3100
  endloop
endfacet
facet normal 0.5344609618186951 -0.8451931476593018 -1.350755531731584e-11
  outer loop
    vertex 10983.6025390625 2584.786865234375 3500
    vertex 11074.26171875 2643.101806640625 3100
    vertex 11074.26171875 2643.101806640625 3500
  endloop
endfacet
facet normal 0.5344609618186951 -0.8451931476593018 -1.350755531731584e-11
  outer loop
    vertex 10983.6025390625 2584.786865234375 3500
    vertex 10203.71875 2083.144775390625 3100
    vertex 10983.6025390625 2584.786865234375 3100
  endloop
endfacet
facet normal 0.5344609618186951 -0.8451931476593018 -1.350755531731584e-11
  outer loop
    vertex 10203.71875 2083.144775390625 3100
    vertex 10983.6025390625 2584.786865234375 3500
    vertex 10203.71875 2083.144775390625 3500
  endloop
endfacet
facet normal 0.4779268205165863 -0.878399670124054 -1.193512302877231e-11
  outer loop
    vertex 10203.71875 2083.144775390625 3500
    vertex 9392.796875 1634.345458984375 3100
    vertex 10203.71875 2083.144775390625 3100
  endloop
endfacet
facet normal 0.4779268205165863 -0.878399670124054 -1.193512302877231e-11
  outer loop
    vertex 9392.796875 1634.345458984375 3100
    vertex 10203.71875 2083.144775390625 3500
    vertex 9392.796875 1634.345458984375 3500
  endloop
endfacet
facet normal 0.4193941950798035 -0.9078042507171631 -1.031293279940559e-11
  outer loop
    vertex 9392.796875 1634.345458984375 3500
    vertex 8554.3525390625 1240.334228515625 3100
    vertex 9392.796875 1634.345458984375 3100
  endloop
endfacet
facet normal 0.4193941950798035 -0.9078042507171631 -1.031293279940559e-11
  outer loop
    vertex 8554.3525390625 1240.334228515625 3100
    vertex 9392.796875 1634.345458984375 3500
    vertex 8554.3525390625 1240.334228515625 3500
  endloop
endfacet
facet normal 0.3591142296791077 -0.9332936406135559 -8.647932196736985e-12
  outer loop
    vertex 8554.3525390625 1240.334228515625 3500
    vertex 7955.7353515625 1006.036865234375 3100
    vertex 8554.3525390625 1240.334228515625 3100
  endloop
endfacet
facet normal 0.3591142296791077 -0.9332936406135559 -8.647932196736985e-12
  outer loop
    vertex 7955.7353515625 1006.036865234375 3100
    vertex 8554.3525390625 1240.334228515625 3500
    vertex 7955.7353515625 1006.036865234375 3500
  endloop
endfacet
facet normal 0.3591142296791077 -0.9332936406135559 -8.647932196736985e-12
  outer loop
    vertex 7955.7353515625 1006.036865234375 3100
    vertex 7692.01904296875 902.8189086914062 3500
    vertex 7692.01904296875 902.8189086914062 3100
  endloop
endfacet
facet normal 0.3591142296791077 -0.9332936406135559 -8.647932196736985e-12
  outer loop
    vertex 7692.01904296875 902.8189086914062 3500
    vertex 7955.7353515625 1006.036865234375 3100
    vertex 7955.7353515625 1006.036865234375 3500
  endloop
endfacet
facet normal 0.297342985868454 -0.9547707438468933 -6.947179810590232e-12
  outer loop
    vertex 7692.01904296875 902.8189086914062 3500
    vertex 6809.53466796875 623.2623291015625 3100
    vertex 7692.01904296875 902.8189086914062 3100
  endloop
endfacet
facet normal 0.297342985868454 -0.9547707438468933 -6.947179810590232e-12
  outer loop
    vertex 6809.53466796875 623.2623291015625 3100
    vertex 7692.01904296875 902.8189086914062 3500
    vertex 6809.53466796875 623.2623291015625 3500
  endloop
endfacet
endsolid com.sketchup.SketchUp.2019
