solid com.sketchup.SketchUp.2019
facet normal 2.366736944134481e-17 -2.741112106494958e-17 -1
  outer loop
    vertex 35955.34375 20004.25 3100
    vertex 27155.341796875 14305 3100
    vertex 27155.341796875 20004.25 3100
  endloop
endfacet
facet normal 2.366736944134481e-17 -2.741112106494958e-17 -1
  outer loop
    vertex 27155.341796875 14305 3100
    vertex 35955.34375 20004.25 3100
    vertex 35855.34375 19905 3100
  endloop
endfacet
facet normal 2.366736944134481e-17 -2.741112106494958e-17 -1
  outer loop
    vertex 35855.34375 19905 3100
    vertex 35955.34375 20004.25 3100
    vertex 35955.34375 19905 3100
  endloop
endfacet
facet normal 2.366736944134481e-17 -2.741112106494958e-17 -1
  outer loop
    vertex 35855.34375 14305 3100
    vertex 27155.341796875 14305 3100
    vertex 35855.34375 19905 3100
  endloop
endfacet
facet normal 0 -1 2.741112106494958e-17
  outer loop
    vertex 35855.34375 14305 3500
    vertex 27155.341796875 14305 3100
    vertex 35855.34375 14305 3100
  endloop
endfacet
facet normal 0 -1 2.741112106494958e-17
  outer loop
    vertex 27155.341796875 14305 3100
    vertex 35855.34375 14305 3500
    vertex 27155.341796875 14305 3500
  endloop
endfacet
facet normal -1 -1.479768675809737e-33 -2.336456012578507e-17
  outer loop
    vertex 27155.341796875 20004.25 3500
    vertex 27155.341796875 14305 3100
    vertex 27155.341796875 14305 3500
  endloop
endfacet
facet normal -1 -1.479768675809737e-33 -2.336456012578507e-17
  outer loop
    vertex 27155.341796875 14305 3100
    vertex 27155.341796875 20004.25 3500
    vertex 27155.341796875 20004.25 3100
  endloop
endfacet
facet normal 1.138912599282713e-33 1 -2.741112106494958e-17
  outer loop
    vertex 27155.341796875 20004.25 3500
    vertex 35955.34375 20004.25 3100
    vertex 27155.341796875 20004.25 3100
  endloop
endfacet
facet normal 1.138912599282713e-33 1 -2.741112106494958e-17
  outer loop
    vertex 35955.34375 20004.25 3100
    vertex 27155.341796875 20004.25 3500
    vertex 35955.34375 20004.25 3500
  endloop
endfacet
facet normal 1 0 2.336456012578507e-17
  outer loop
    vertex 35855.34375 19905 3100
    vertex 35855.34375 14305 3500
    vertex 35855.34375 14305 3100
  endloop
endfacet
facet normal 1 0 2.336456012578507e-17
  outer loop
    vertex 35855.34375 14305 3500
    vertex 35855.34375 19905 3100
    vertex 35855.34375 19905 3500
  endloop
endfacet
facet normal 0 -1 0
  outer loop
    vertex 35955.34375 19905 3500
    vertex 35855.34375 19905 3100
    vertex 35955.34375 19905 3100
  endloop
endfacet
facet normal 0 -1 0
  outer loop
    vertex 35855.34375 19905 3100
    vertex 35955.34375 19905 3500
    vertex 35855.34375 19905 3500
  endloop
endfacet
facet normal 1 0 2.336456012578507e-17
  outer loop
    vertex 35955.34375 20004.25 3100
    vertex 35955.34375 19905 3500
    vertex 35955.34375 19905 3100
  endloop
endfacet
facet normal 1 0 2.336456012578507e-17
  outer loop
    vertex 35955.34375 19905 3500
    vertex 35955.34375 20004.25 3100
    vertex 35955.34375 20004.25 3500
  endloop
endfacet
facet normal -2.366736944134481e-17 2.741112106494958e-17 1
  outer loop
    vertex 35855.34375 14305 3500
    vertex 27155.341796875 20004.25 3500
    vertex 27155.341796875 14305 3500
  endloop
endfacet
facet normal -2.366736944134481e-17 2.741112106494958e-17 1
  outer loop
    vertex 27155.341796875 20004.25 3500
    vertex 35855.34375 14305 3500
    vertex 35855.34375 19905 3500
  endloop
endfacet
facet normal -2.366736944134481e-17 2.741112106494958e-17 1
  outer loop
    vertex 27155.341796875 20004.25 3500
    vertex 35855.34375 19905 3500
    vertex 35955.34375 20004.25 3500
  endloop
endfacet
facet normal -2.366736944134481e-17 2.741112106494958e-17 1
  outer loop
    vertex 35955.34375 20004.25 3500
    vertex 35855.34375 19905 3500
    vertex 35955.34375 19905 3500
  endloop
endfacet
endsolid com.sketchup.SketchUp.2019
