solid com.sketchup.SketchUp.2019
facet normal -2.380413032486428e-13 5.850795108813811e-13 -1
  outer loop
    vertex 26955.34375 11055 3100
    vertex 26955.34375 10955 3100
    vertex 26854.490234375 11055 3100
  endloop
endfacet
facet normal -2.380413032486428e-13 5.850795108813811e-13 -1
  outer loop
    vertex 26854.490234375 11055 3100
    vertex 14755.3427734375 4354.07373046875 3100
    vertex 14755.3427734375 11055 3100
  endloop
endfacet
facet normal -2.380413032486428e-13 5.850795108813811e-13 -1
  outer loop
    vertex 14755.3427734375 4354.07373046875 3100
    vertex 26854.490234375 11055 3100
    vertex 26955.34375 4354.07373046875 3100
  endloop
endfacet
facet normal -2.380413032486428e-13 5.850795108813811e-13 -1
  outer loop
    vertex 26955.34375 4354.07373046875 3100
    vertex 26854.490234375 11055 3100
    vertex 26955.34375 10955 3100
  endloop
endfacet
facet normal 2.380413032486428e-13 -5.850795108813811e-13 1
  outer loop
    vertex 26955.34375 4354.07373046875 3500
    vertex 14755.3427734375 11055 3500
    vertex 14755.3427734375 4354.07373046875 3500
  endloop
endfacet
facet normal 2.380413032486428e-13 -5.850795108813811e-13 1
  outer loop
    vertex 14755.3427734375 11055 3500
    vertex 26955.34375 4354.07373046875 3500
    vertex 26854.490234375 11055 3500
  endloop
endfacet
facet normal 2.380413032486428e-13 -5.850795108813811e-13 1
  outer loop
    vertex 26854.490234375 11055 3500
    vertex 26955.34375 4354.07373046875 3500
    vertex 26955.34375 10955 3500
  endloop
endfacet
facet normal 2.380413032486428e-13 -5.850795108813811e-13 1
  outer loop
    vertex 26955.34375 11055 3500
    vertex 26854.490234375 11055 3500
    vertex 26955.34375 10955 3500
  endloop
endfacet
facet normal -7.159956797646392e-16 1 5.847482329075782e-13
  outer loop
    vertex 14755.3427734375 11055 3100
    vertex 26854.490234375 11055 3500
    vertex 26854.490234375 11055 3100
  endloop
endfacet
facet normal -7.159956797646392e-16 1 5.847482329075782e-13
  outer loop
    vertex 26854.490234375 11055 3500
    vertex 14755.3427734375 11055 3100
    vertex 14755.3427734375 11055 3500
  endloop
endfacet
facet normal -1 1.388672527100973e-26 2.380413032486428e-13
  outer loop
    vertex 14755.3427734375 11055 3500
    vertex 14755.3427734375 4354.07373046875 3100
    vertex 14755.3427734375 4354.07373046875 3500
  endloop
endfacet
facet normal -1 1.388672527100973e-26 2.380413032486428e-13
  outer loop
    vertex 14755.3427734375 4354.07373046875 3100
    vertex 14755.3427734375 11055 3500
    vertex 14755.3427734375 11055 3100
  endloop
endfacet
facet normal -5.917306656814028e-17 -1 -5.850795108813811e-13
  outer loop
    vertex 26955.34375 4354.07373046875 3500
    vertex 14755.3427734375 4354.07373046875 3100
    vertex 26955.34375 4354.07373046875 3100
  endloop
endfacet
facet normal -5.917306656814028e-17 -1 -5.850795108813811e-13
  outer loop
    vertex 14755.3427734375 4354.07373046875 3100
    vertex 26955.34375 4354.07373046875 3500
    vertex 14755.3427734375 4354.07373046875 3500
  endloop
endfacet
facet normal 1 8.749214011635298e-16 -2.380413032486428e-13
  outer loop
    vertex 26955.34375 4354.07373046875 3100
    vertex 26955.34375 10955 3500
    vertex 26955.34375 4354.07373046875 3500
  endloop
endfacet
facet normal 1 8.749214011635298e-16 -2.380413032486428e-13
  outer loop
    vertex 26955.34375 10955 3500
    vertex 26955.34375 4354.07373046875 3100
    vertex 26955.34375 10955 3100
  endloop
endfacet
facet normal 1 -5.775291540572464e-14 -2.380413032486428e-13
  outer loop
    vertex 26955.34375 10955 3100
    vertex 26955.34375 11055 3500
    vertex 26955.34375 10955 3500
  endloop
endfacet
facet normal 1 -5.775291540572464e-14 -2.380413032486428e-13
  outer loop
    vertex 26955.34375 11055 3500
    vertex 26955.34375 10955 3100
    vertex 26955.34375 11055 3100
  endloop
endfacet
facet normal 8.589679125316566e-14 1 5.847482329075782e-13
  outer loop
    vertex 26854.490234375 11055 3500
    vertex 26955.34375 11055 3100
    vertex 26854.490234375 11055 3100
  endloop
endfacet
facet normal 8.589679125316566e-14 1 5.847482329075782e-13
  outer loop
    vertex 26955.34375 11055 3100
    vertex 26854.490234375 11055 3500
    vertex 26955.34375 11055 3500
  endloop
endfacet
endsolid com.sketchup.SketchUp.2019
