solid com.sketchup.SketchUp.2019
facet normal 0 0 -1
  outer loop
    vertex 22655.466796875 16705 3100
    vertex 20855.34375 14305 3100
    vertex 20855.34375 16705 3100
  endloop
endfacet
facet normal 0 0 -1
  outer loop
    vertex 20855.34375 14305 3100
    vertex 22655.466796875 16705 3100
    vertex 27455.34375 14305 3100
  endloop
endfacet
facet normal 0 0 -1
  outer loop
    vertex 27455.34375 14305 3100
    vertex 22655.466796875 16705 3100
    vertex 27455.34375 16705 3100
  endloop
endfacet
facet normal -1 0 0
  outer loop
    vertex 20855.34375 16705 3500
    vertex 20855.34375 14305 3100
    vertex 20855.34375 14305 3500
  endloop
endfacet
facet normal -1 0 0
  outer loop
    vertex 20855.34375 14305 3100
    vertex 20855.34375 16705 3500
    vertex 20855.34375 16705 3100
  endloop
endfacet
facet normal 0 -1 0
  outer loop
    vertex 27455.34375 14305 3500
    vertex 20855.34375 14305 3100
    vertex 27455.34375 14305 3100
  endloop
endfacet
facet normal 0 -1 0
  outer loop
    vertex 20855.34375 14305 3100
    vertex 27455.34375 14305 3500
    vertex 20855.34375 14305 3500
  endloop
endfacet
facet normal 1 0 0
  outer loop
    vertex 27455.34375 16705 3100
    vertex 27455.34375 14305 3500
    vertex 27455.34375 14305 3100
  endloop
endfacet
facet normal 1 0 0
  outer loop
    vertex 27455.34375 14305 3500
    vertex 27455.34375 16705 3100
    vertex 27455.34375 16705 3500
  endloop
endfacet
facet normal 0 1 0
  outer loop
    vertex 20855.34375 16705 3500
    vertex 22655.466796875 16705 3100
    vertex 20855.34375 16705 3100
  endloop
endfacet
facet normal 0 1 0
  outer loop
    vertex 22655.466796875 16705 3100
    vertex 20855.34375 16705 3500
    vertex 22655.466796875 16705 3500
  endloop
endfacet
facet normal 0 0 1
  outer loop
    vertex 27455.34375 14305 3500
    vertex 20855.34375 16705 3500
    vertex 20855.34375 14305 3500
  endloop
endfacet
facet normal 0 0 1
  outer loop
    vertex 20855.34375 16705 3500
    vertex 27455.34375 14305 3500
    vertex 22655.466796875 16705 3500
  endloop
endfacet
facet normal 0 0 1
  outer loop
    vertex 22655.466796875 16705 3500
    vertex 27455.34375 14305 3500
    vertex 27455.34375 16705 3500
  endloop
endfacet
facet normal 4.451901493935859e-14 1 -1.160275128460949e-42
  outer loop
    vertex 22655.466796875 16705 3500
    vertex 27455.34375 16705 3100
    vertex 22655.466796875 16705 3100
  endloop
endfacet
facet normal 4.451901493935859e-14 1 -1.160275128460949e-42
  outer loop
    vertex 27455.34375 16705 3100
    vertex 22655.466796875 16705 3500
    vertex 27455.34375 16705 3500
  endloop
endfacet
endsolid com.sketchup.SketchUp.2019
