solid com.sketchup.SketchUp.2019
facet normal 6.08665000996142e-14 1.018041309889736e-13 -1
  outer loop
    vertex 39858.84375 11112.3837890625 3100
    vertex 26758.845703125 3273.084716796875 3100
    vertex 26758.845703125 11112.3837890625 3100
  endloop
endfacet
facet normal 6.08665000996142e-14 1.018041309889736e-13 -1
  outer loop
    vertex 26758.845703125 3273.084716796875 3100
    vertex 39858.84375 11112.3837890625 3100
    vertex 39858.84375 3273.084716796875 3100
  endloop
endfacet
facet normal -6.08665000996142e-14 -1.018041309889736e-13 1
  outer loop
    vertex 39858.84375 3273.084716796875 3500
    vertex 26758.845703125 11112.3837890625 3500
    vertex 26758.845703125 3273.084716796875 3500
  endloop
endfacet
facet normal -6.08665000996142e-14 -1.018041309889736e-13 1
  outer loop
    vertex 26758.845703125 11112.3837890625 3500
    vertex 39858.84375 3273.084716796875 3500
    vertex 39858.84375 11112.3837890625 3500
  endloop
endfacet
facet normal -1 5.605121185850778e-30 -6.08665000996142e-14
  outer loop
    vertex 26758.845703125 11112.3837890625 3500
    vertex 26758.845703125 3273.084716796875 3100
    vertex 26758.845703125 3273.084716796875 3500
  endloop
endfacet
facet normal -1 5.605121185850778e-30 -6.08665000996142e-14
  outer loop
    vertex 26758.845703125 3273.084716796875 3100
    vertex 26758.845703125 11112.3837890625 3500
    vertex 26758.845703125 11112.3837890625 3100
  endloop
endfacet
facet normal -1.239292316159245e-26 1 1.018041309889736e-13
  outer loop
    vertex 26758.845703125 11112.3837890625 3500
    vertex 39858.84375 11112.3837890625 3100
    vertex 26758.845703125 11112.3837890625 3100
  endloop
endfacet
facet normal -1.239292316159245e-26 1 1.018041309889736e-13
  outer loop
    vertex 39858.84375 11112.3837890625 3100
    vertex 26758.845703125 11112.3837890625 3500
    vertex 39858.84375 11112.3837890625 3500
  endloop
endfacet
facet normal 1 -1.238731793508231e-26 6.08665000996142e-14
  outer loop
    vertex 39858.84375 3273.084716796875 3100
    vertex 39858.84375 11112.3837890625 3500
    vertex 39858.84375 3273.084716796875 3500
  endloop
endfacet
facet normal 1 -1.238731793508231e-26 6.08665000996142e-14
  outer loop
    vertex 39858.84375 11112.3837890625 3500
    vertex 39858.84375 3273.084716796875 3100
    vertex 39858.84375 11112.3837890625 3100
  endloop
endfacet
facet normal -0 -1 -1.018041309889736e-13
  outer loop
    vertex 39858.84375 3273.084716796875 3500
    vertex 26758.845703125 3273.084716796875 3100
    vertex 39858.84375 3273.084716796875 3100
  endloop
endfacet
facet normal -0 -1 -1.018041309889736e-13
  outer loop
    vertex 26758.845703125 3273.084716796875 3100
    vertex 39858.84375 3273.084716796875 3500
    vertex 26758.845703125 3273.084716796875 3500
  endloop
endfacet
endsolid com.sketchup.SketchUp.2019
