solid com.sketchup.SketchUp.2019
facet normal 1.422350735455491e-13 2.172151347679119e-13 -1
  outer loop
    vertex 35858.84375 20022.576171875 3100
    vertex 27358.845703125 14362.3837890625 3100
    vertex 27358.845703125 20022.576171875 3100
  endloop
endfacet
facet normal 1.422350735455491e-13 2.172151347679119e-13 -1
  outer loop
    vertex 27358.845703125 14362.3837890625 3100
    vertex 35858.84375 20022.576171875 3100
    vertex 35858.84375 14362.3837890625 3100
  endloop
endfacet
facet normal -1.422350735455491e-13 -2.172151347679119e-13 1
  outer loop
    vertex 35858.84375 14362.3837890625 3500
    vertex 27358.845703125 20022.576171875 3500
    vertex 27358.845703125 14362.3837890625 3500
  endloop
endfacet
facet normal -1.422350735455491e-13 -2.172151347679119e-13 1
  outer loop
    vertex 27358.845703125 20022.576171875 3500
    vertex 35858.84375 14362.3837890625 3500
    vertex 35858.84375 20022.576171875 3500
  endloop
endfacet
facet normal -1 6.164348316754723e-26 -1.422350735455491e-13
  outer loop
    vertex 27358.845703125 20022.576171875 3500
    vertex 27358.845703125 14362.3837890625 3100
    vertex 27358.845703125 14362.3837890625 3500
  endloop
endfacet
facet normal -1 6.164348316754723e-26 -1.422350735455491e-13
  outer loop
    vertex 27358.845703125 14362.3837890625 3100
    vertex 27358.845703125 20022.576171875 3500
    vertex 27358.845703125 20022.576171875 3100
  endloop
endfacet
facet normal 6.179122202395315e-26 -1 -2.172151347679119e-13
  outer loop
    vertex 35858.84375 14362.3837890625 3100
    vertex 27358.845703125 14362.3837890625 3500
    vertex 27358.845703125 14362.3837890625 3100
  endloop
endfacet
facet normal 6.179122202395315e-26 -1 -2.172151347679119e-13
  outer loop
    vertex 27358.845703125 14362.3837890625 3500
    vertex 35858.84375 14362.3837890625 3100
    vertex 35858.84375 14362.3837890625 3500
  endloop
endfacet
facet normal 1 -1.477375323290859e-28 1.422350735455491e-13
  outer loop
    vertex 35858.84375 14362.3837890625 3100
    vertex 35858.84375 20022.576171875 3500
    vertex 35858.84375 14362.3837890625 3500
  endloop
endfacet
facet normal 1 -1.477375323290859e-28 1.422350735455491e-13
  outer loop
    vertex 35858.84375 20022.576171875 3500
    vertex 35858.84375 14362.3837890625 3100
    vertex 35858.84375 20022.576171875 3100
  endloop
endfacet
facet normal 0 1 2.172151347679119e-13
  outer loop
    vertex 27358.845703125 20022.576171875 3500
    vertex 35858.84375 20022.576171875 3100
    vertex 27358.845703125 20022.576171875 3100
  endloop
endfacet
facet normal 0 1 2.172151347679119e-13
  outer loop
    vertex 35858.84375 20022.576171875 3100
    vertex 27358.845703125 20022.576171875 3500
    vertex 35858.84375 20022.576171875 3500
  endloop
endfacet
endsolid com.sketchup.SketchUp.2019
