solid com.sketchup.SketchUp.2019
facet normal -5.503380862137419e-07 -8.493403242937347e-07 -1
  outer loop
    vertex 26758.845703125 11112.3837890625 3100
    vertex 14658.8447265625 3272.084716796875 3100.013427734375
    vertex 14658.8447265625 11112.3837890625 3100
  endloop
endfacet
facet normal -5.503380862137419e-07 -8.493403242937347e-07 -1
  outer loop
    vertex 14658.8447265625 3272.084716796875 3100.013427734375
    vertex 26758.845703125 11112.3837890625 3100
    vertex 26758.845703125 3272.084716796875 3100
  endloop
endfacet
facet normal 5.503380862137419e-07 8.493403242937347e-07 1
  outer loop
    vertex 26758.845703125 3272.085205078125 3500
    vertex 14658.8447265625 11112.384765625 3500
    vertex 14658.8447265625 3272.085205078125 3500.013427734375
  endloop
endfacet
facet normal 5.503380862137419e-07 8.493403242937347e-07 1
  outer loop
    vertex 14658.8447265625 11112.384765625 3500
    vertex 26758.845703125 3272.085205078125 3500
    vertex 26758.845703125 11112.384765625 3500
  endloop
endfacet
facet normal 1 5.681765074874144e-19 -5.503380862137419e-07
  outer loop
    vertex 26758.845703125 11112.3837890625 3100
    vertex 26758.845703125 3272.085205078125 3500
    vertex 26758.845703125 3272.084716796875 3100
  endloop
endfacet
facet normal 1 5.681765074874144e-19 -5.503380862137419e-07
  outer loop
    vertex 26758.845703125 3272.085205078125 3500
    vertex 26758.845703125 11112.3837890625 3100
    vertex 26758.845703125 11112.384765625 3500
  endloop
endfacet
facet normal 0 1 -8.493403242937347e-07
  outer loop
    vertex 14658.8447265625 11112.384765625 3500
    vertex 26758.845703125 11112.3837890625 3100
    vertex 14658.8447265625 11112.3837890625 3100
  endloop
endfacet
facet normal 0 1 -8.493403242937347e-07
  outer loop
    vertex 26758.845703125 11112.3837890625 3100
    vertex 14658.8447265625 11112.384765625 3500
    vertex 26758.845703125 11112.384765625 3500
  endloop
endfacet
facet normal -1 9.348492032573708e-13 5.503380862137419e-07
  outer loop
    vertex 14658.8447265625 3272.085205078125 3500.013427734375
    vertex 14658.8447265625 11112.3837890625 3100
    vertex 14658.8447265625 3272.084716796875 3100.013427734375
  endloop
endfacet
facet normal -1 9.348492032573708e-13 5.503380862137419e-07
  outer loop
    vertex 14658.8447265625 11112.3837890625 3100
    vertex 14658.8447265625 3272.085205078125 3500.013427734375
    vertex 14658.8447265625 11112.384765625 3500
  endloop
endfacet
facet normal 9.349082922757712e-13 -1 8.493403242937347e-07
  outer loop
    vertex 26758.845703125 3272.085205078125 3500
    vertex 14658.8447265625 3272.084716796875 3100.013427734375
    vertex 26758.845703125 3272.084716796875 3100
  endloop
endfacet
facet normal 9.349082922757712e-13 -1 8.493403242937347e-07
  outer loop
    vertex 14658.8447265625 3272.084716796875 3100.013427734375
    vertex 26758.845703125 3272.085205078125 3500
    vertex 14658.8447265625 3272.085205078125 3500.013427734375
  endloop
endfacet
endsolid com.sketchup.SketchUp.2019
