solid com.sketchup.SketchUp.2019
facet normal -0 -0 -1
  outer loop
    vertex 38858.84375 20022.529296875 3100
    vertex 35809.51953125 16063.529296875 3100
    vertex 35809.51953125 20022.529296875 3100
  endloop
endfacet
facet normal -0 -0 -1
  outer loop
    vertex 35809.51953125 16063.529296875 3100
    vertex 38858.84375 20022.529296875 3100
    vertex 38858.84375 16063.529296875 3100
  endloop
endfacet
facet normal 0 0 1
  outer loop
    vertex 38858.84375 16063.529296875 3500
    vertex 35809.51953125 20022.529296875 3500
    vertex 35809.51953125 16063.529296875 3500
  endloop
endfacet
facet normal 0 0 1
  outer loop
    vertex 35809.51953125 20022.529296875 3500
    vertex 38858.84375 16063.529296875 3500
    vertex 38858.84375 20022.529296875 3500
  endloop
endfacet
facet normal -1 0 0
  outer loop
    vertex 35809.51953125 20022.529296875 3500
    vertex 35809.51953125 16063.529296875 3100
    vertex 35809.51953125 16063.529296875 3500
  endloop
endfacet
facet normal -1 0 0
  outer loop
    vertex 35809.51953125 16063.529296875 3100
    vertex 35809.51953125 20022.529296875 3500
    vertex 35809.51953125 20022.529296875 3100
  endloop
endfacet
facet normal 0 -1 0
  outer loop
    vertex 38858.84375 16063.529296875 3500
    vertex 35809.51953125 16063.529296875 3100
    vertex 38858.84375 16063.529296875 3100
  endloop
endfacet
facet normal 0 -1 0
  outer loop
    vertex 35809.51953125 16063.529296875 3100
    vertex 38858.84375 16063.529296875 3500
    vertex 35809.51953125 16063.529296875 3500
  endloop
endfacet
facet normal 1 0 0
  outer loop
    vertex 38858.84375 20022.529296875 3100
    vertex 38858.84375 16063.529296875 3500
    vertex 38858.84375 16063.529296875 3100
  endloop
endfacet
facet normal 1 0 0
  outer loop
    vertex 38858.84375 16063.529296875 3500
    vertex 38858.84375 20022.529296875 3100
    vertex 38858.84375 20022.529296875 3500
  endloop
endfacet
facet normal 0 1 0
  outer loop
    vertex 35809.51953125 20022.529296875 3500
    vertex 38858.84375 20022.529296875 3100
    vertex 35809.51953125 20022.529296875 3100
  endloop
endfacet
facet normal 0 1 0
  outer loop
    vertex 38858.84375 20022.529296875 3100
    vertex 35809.51953125 20022.529296875 3500
    vertex 38858.84375 20022.529296875 3500
  endloop
endfacet
endsolid com.sketchup.SketchUp.2019
