solid com.sketchup.SketchUp.2019
facet normal 2.887129800166412e-16 -6.015928688096316e-16 -1
  outer loop
    vertex 27358.845703125 16762.384765625 1.279453726965585e-06
    vertex 22357.951171875 14362.3837890625 1.279453726965585e-06
    vertex 22357.951171875 16762.384765625 1.279450771107804e-06
  endloop
endfacet
facet normal 2.887129800166412e-16 -6.015928688096316e-16 -1
  outer loop
    vertex 22357.951171875 14362.3837890625 1.279453726965585e-06
    vertex 27358.845703125 16762.384765625 1.279453726965585e-06
    vertex 27358.845703125 14362.3837890625 1.279453726965585e-06
  endloop
endfacet
facet normal -2.887129800166412e-16 6.015928688096316e-16 1
  outer loop
    vertex 27358.845703125 14362.3837890625 550
    vertex 22357.951171875 16762.384765625 550
    vertex 22357.951171875 14362.3837890625 550
  endloop
endfacet
facet normal -2.887129800166412e-16 6.015928688096316e-16 1
  outer loop
    vertex 22357.951171875 16762.384765625 550
    vertex 27358.845703125 14362.3837890625 550
    vertex 27358.845703125 16762.384765625 550
  endloop
endfacet
facet normal 0 -1 6.015928688096316e-16
  outer loop
    vertex 27358.845703125 14362.3837890625 550
    vertex 22357.951171875 14362.3837890625 1.279453726965585e-06
    vertex 27358.845703125 14362.3837890625 1.279453726965585e-06
  endloop
endfacet
facet normal 0 -1 6.015928688096316e-16
  outer loop
    vertex 22357.951171875 14362.3837890625 1.279453726965585e-06
    vertex 27358.845703125 14362.3837890625 550
    vertex 22357.951171875 14362.3837890625 550
  endloop
endfacet
facet normal -1 -3.473753432174287e-31 -2.887129800166412e-16
  outer loop
    vertex 22357.951171875 16762.384765625 550
    vertex 22357.951171875 14362.3837890625 1.279453726965585e-06
    vertex 22357.951171875 14362.3837890625 550
  endloop
endfacet
facet normal -1 -3.473753432174287e-31 -2.887129800166412e-16
  outer loop
    vertex 22357.951171875 14362.3837890625 1.279453726965585e-06
    vertex 22357.951171875 16762.384765625 550
    vertex 22357.951171875 16762.384765625 1.279450771107804e-06
  endloop
endfacet
facet normal 3.473753432174287e-31 1 -6.015928688096316e-16
  outer loop
    vertex 22357.951171875 16762.384765625 550
    vertex 27358.845703125 16762.384765625 1.279453726965585e-06
    vertex 22357.951171875 16762.384765625 1.279450771107804e-06
  endloop
endfacet
facet normal 3.473753432174287e-31 1 -6.015928688096316e-16
  outer loop
    vertex 27358.845703125 16762.384765625 1.279453726965585e-06
    vertex 22357.951171875 16762.384765625 550
    vertex 27358.845703125 16762.384765625 550
  endloop
endfacet
facet normal 1 0 2.887129800166412e-16
  outer loop
    vertex 27358.845703125 16762.384765625 1.279453726965585e-06
    vertex 27358.845703125 14362.3837890625 550
    vertex 27358.845703125 14362.3837890625 1.279453726965585e-06
  endloop
endfacet
facet normal 1 0 2.887129800166412e-16
  outer loop
    vertex 27358.845703125 14362.3837890625 550
    vertex 27358.845703125 16762.384765625 1.279453726965585e-06
    vertex 27358.845703125 16762.384765625 550
  endloop
endfacet
facet normal -4.420604402099355e-17 -9.76904737113209e-17 -1
  outer loop
    vertex 27158.845703125 16762.384765625 550
    vertex 26858.845703125 16562.384765625 550
    vertex 26858.845703125 16762.384765625 550
  endloop
endfacet
facet normal -4.420604402099355e-17 -9.76904737113209e-17 -1
  outer loop
    vertex 26858.845703125 16562.384765625 550
    vertex 27158.845703125 16762.384765625 550
    vertex 27158.845703125 16562.384765625 550
  endloop
endfacet
facet normal -4.420604402099355e-17 -9.76904737113209e-17 -1
  outer loop
    vertex 27158.845703125 16562.384765625 550
    vertex 27158.845703125 16762.384765625 550
    vertex 27258.845703125 16762.384765625 550
  endloop
endfacet
facet normal -4.420604402099355e-17 -9.76904737113209e-17 -1
  outer loop
    vertex 27158.845703125 16562.384765625 550
    vertex 27258.845703125 16762.384765625 550
    vertex 27258.845703125 16562.384765625 550
  endloop
endfacet
facet normal 4.420604402099355e-17 9.76904737113209e-17 1
  outer loop
    vertex 27158.845703125 16562.384765625 3100
    vertex 26858.845703125 16762.384765625 3100
    vertex 26858.845703125 16562.384765625 3100
  endloop
endfacet
facet normal 4.420604402099355e-17 9.76904737113209e-17 1
  outer loop
    vertex 26858.845703125 16762.384765625 3100
    vertex 27158.845703125 16562.384765625 3100
    vertex 27158.845703125 16762.384765625 3100
  endloop
endfacet
facet normal 4.420604402099355e-17 9.76904737113209e-17 1
  outer loop
    vertex 27158.845703125 16762.384765625 3100
    vertex 27158.845703125 16562.384765625 3100
    vertex 27258.845703125 16762.384765625 3100
  endloop
endfacet
facet normal 4.420604402099355e-17 9.76904737113209e-17 1
  outer loop
    vertex 27258.845703125 16762.384765625 3100
    vertex 27158.845703125 16562.384765625 3100
    vertex 27258.845703125 16562.384765625 3100
  endloop
endfacet
facet normal -1.155058253904384e-12 -1 9.76904737113209e-17
  outer loop
    vertex 27258.845703125 16562.384765625 3100
    vertex 27158.845703125 16562.384765625 550
    vertex 27258.845703125 16562.384765625 550
  endloop
endfacet
facet normal -1.155058253904384e-12 -1 9.76904737113209e-17
  outer loop
    vertex 27158.845703125 16562.384765625 550
    vertex 27258.845703125 16562.384765625 3100
    vertex 27158.845703125 16562.384765625 3100
  endloop
endfacet
facet normal 3.850194360381642e-13 -1 9.76904737113209e-17
  outer loop
    vertex 27158.845703125 16562.384765625 550
    vertex 26858.845703125 16562.384765625 3100
    vertex 26858.845703125 16562.384765625 550
  endloop
endfacet
facet normal 3.850194360381642e-13 -1 9.76904737113209e-17
  outer loop
    vertex 26858.845703125 16562.384765625 3100
    vertex 27158.845703125 16562.384765625 550
    vertex 27158.845703125 16562.384765625 3100
  endloop
endfacet
facet normal -1 0 4.420604402099355e-17
  outer loop
    vertex 26858.845703125 16762.384765625 3100
    vertex 26858.845703125 16562.384765625 550
    vertex 26858.845703125 16562.384765625 3100
  endloop
endfacet
facet normal -1 0 4.420604402099355e-17
  outer loop
    vertex 26858.845703125 16562.384765625 550
    vertex 26858.845703125 16762.384765625 3100
    vertex 26858.845703125 16762.384765625 550
  endloop
endfacet
facet normal -7.892898032206552e-13 1 -9.76904737113209e-17
  outer loop
    vertex 26858.845703125 16762.384765625 3100
    vertex 27158.845703125 16762.384765625 550
    vertex 26858.845703125 16762.384765625 550
  endloop
endfacet
facet normal -7.892898032206552e-13 1 -9.76904737113209e-17
  outer loop
    vertex 27158.845703125 16762.384765625 550
    vertex 26858.845703125 16762.384765625 3100
    vertex 27158.845703125 16762.384765625 3100
  endloop
endfacet
facet normal 2.367869355451857e-12 1 -9.76904737113209e-17
  outer loop
    vertex 27158.845703125 16762.384765625 550
    vertex 27258.845703125 16762.384765625 3100
    vertex 27258.845703125 16762.384765625 550
  endloop
endfacet
facet normal 2.367869355451857e-12 1 -9.76904737113209e-17
  outer loop
    vertex 27258.845703125 16762.384765625 3100
    vertex 27158.845703125 16762.384765625 550
    vertex 27158.845703125 16762.384765625 3100
  endloop
endfacet
facet normal 1 -1.295552731659553e-32 -4.420604402099355e-17
  outer loop
    vertex 27258.845703125 16762.384765625 550
    vertex 27258.845703125 16562.384765625 3100
    vertex 27258.845703125 16562.384765625 550
  endloop
endfacet
facet normal 1 -1.295552731659553e-32 -4.420604402099355e-17
  outer loop
    vertex 27258.845703125 16562.384765625 3100
    vertex 27258.845703125 16762.384765625 550
    vertex 27258.845703125 16762.384765625 3100
  endloop
endfacet
facet normal -2.60953105708805e-15 -4.189314842836626e-14 -1
  outer loop
    vertex 22558.96875 16762.384765625 550
    vertex 21958.845703125 16562.384765625 550
    vertex 21958.845703125 16762.384765625 550
  endloop
endfacet
facet normal -2.60953105708805e-15 -4.189314842836626e-14 -1
  outer loop
    vertex 21958.845703125 16562.384765625 550
    vertex 22558.96875 16762.384765625 550
    vertex 22358.96875 16562.384765625 550
  endloop
endfacet
facet normal -2.60953105708805e-15 -4.189314842836626e-14 -1
  outer loop
    vertex 22358.96875 16562.384765625 550
    vertex 22558.96875 16762.384765625 550
    vertex 22358.96875 15462.3837890625 550
  endloop
endfacet
facet normal -2.60953105708805e-15 -4.189314842836626e-14 -1
  outer loop
    vertex 22358.96875 15462.3837890625 550
    vertex 22558.96875 16762.384765625 550
    vertex 22558.96875 15462.3837890625 550
  endloop
endfacet
facet normal -2.60953105708805e-15 -4.189314842836626e-14 -1
  outer loop
    vertex 22558.96875 15462.3837890625 550
    vertex 22558.96875 16762.384765625 550
    vertex 22558.96875 16562.384765625 550
  endloop
endfacet
facet normal -2.60953105708805e-15 -4.189314842836626e-14 -1
  outer loop
    vertex 22858.96875 16762.384765625 550
    vertex 22558.96875 16562.384765625 550
    vertex 22558.96875 16762.384765625 550
  endloop
endfacet
facet normal -2.60953105708805e-15 -4.189314842836626e-14 -1
  outer loop
    vertex 22558.96875 16562.384765625 550
    vertex 22858.96875 16762.384765625 550
    vertex 23958.96875 16562.384765625 550
  endloop
endfacet
facet normal -2.60953105708805e-15 -4.189314842836626e-14 -1
  outer loop
    vertex 23958.96875 16562.384765625 550
    vertex 22858.96875 16762.384765625 550
    vertex 23158.96875 16762.384765625 550
  endloop
endfacet
facet normal -2.60953105708805e-15 -4.189314842836626e-14 -1
  outer loop
    vertex 23958.96875 16562.384765625 550
    vertex 23158.96875 16762.384765625 550
    vertex 23458.96875 16762.384765625 550
  endloop
endfacet
facet normal -2.60953105708805e-15 -4.189314842836626e-14 -1
  outer loop
    vertex 23958.96875 16562.384765625 550
    vertex 23458.96875 16762.384765625 550
    vertex 23758.96875 16762.384765625 550
  endloop
endfacet
facet normal -2.60953105708805e-15 -4.189314842836626e-14 -1
  outer loop
    vertex 23958.96875 16562.384765625 550
    vertex 23758.96875 16762.384765625 550
    vertex 24058.96875 16762.384765625 550
  endloop
endfacet
facet normal -2.60953105708805e-15 -4.189314842836626e-14 -1
  outer loop
    vertex 23958.96875 16562.384765625 550
    vertex 24058.96875 16762.384765625 550
    vertex 24058.96875 15662.3837890625 550
  endloop
endfacet
facet normal -2.60953105708805e-15 -4.189314842836626e-14 -1
  outer loop
    vertex 24058.96875 15662.3837890625 550
    vertex 24058.96875 16762.384765625 550
    vertex 24058.96875 16562.384765625 550
  endloop
endfacet
facet normal -2.60953105708805e-15 -4.189314842836626e-14 -1
  outer loop
    vertex 24058.96875 16562.384765625 550
    vertex 24058.96875 16762.384765625 550
    vertex 24358.96875 16762.384765625 550
  endloop
endfacet
facet normal -2.60953105708805e-15 -4.189314842836626e-14 -1
  outer loop
    vertex 24058.96875 16562.384765625 550
    vertex 24358.96875 16762.384765625 550
    vertex 25458.96875 16562.384765625 550
  endloop
endfacet
facet normal -2.60953105708805e-15 -4.189314842836626e-14 -1
  outer loop
    vertex 25458.96875 16562.384765625 550
    vertex 24358.96875 16762.384765625 550
    vertex 24658.96875 16762.384765625 550
  endloop
endfacet
facet normal -2.60953105708805e-15 -4.189314842836626e-14 -1
  outer loop
    vertex 25458.96875 16562.384765625 550
    vertex 24658.96875 16762.384765625 550
    vertex 24958.96875 16762.384765625 550
  endloop
endfacet
facet normal -2.60953105708805e-15 -4.189314842836626e-14 -1
  outer loop
    vertex 25458.96875 16562.384765625 550
    vertex 24958.96875 16762.384765625 550
    vertex 25258.96875 16762.384765625 550
  endloop
endfacet
facet normal -2.60953105708805e-15 -4.189314842836626e-14 -1
  outer loop
    vertex 25458.96875 16562.384765625 550
    vertex 25258.96875 16762.384765625 550
    vertex 26858.845703125 16762.384765625 550
  endloop
endfacet
facet normal -2.60953105708805e-15 -4.189314842836626e-14 -1
  outer loop
    vertex 25458.96875 16562.384765625 550
    vertex 26858.845703125 16762.384765625 550
    vertex 25558.96875 16562.384765625 550
  endloop
endfacet
facet normal -2.60953105708805e-15 -4.189314842836626e-14 -1
  outer loop
    vertex 25558.96875 16562.384765625 550
    vertex 26858.845703125 16762.384765625 550
    vertex 26858.845703125 16562.384765625 550
  endloop
endfacet
facet normal -2.60953105708805e-15 -4.189314842836626e-14 -1
  outer loop
    vertex 25858.96875 16162.3837890625 550
    vertex 25558.96875 16062.3837890625 550
    vertex 25558.96875 16162.3837890625 550
  endloop
endfacet
facet normal -2.60953105708805e-15 -4.189314842836626e-14 -1
  outer loop
    vertex 25558.96875 16062.3837890625 550
    vertex 25858.96875 16162.3837890625 550
    vertex 25858.96875 16062.3837890625 550
  endloop
endfacet
facet normal -2.60953105708805e-15 -4.189314842836626e-14 -1
  outer loop
    vertex 25458.96875 16562.384765625 550
    vertex 25558.96875 15662.3837890625 550
    vertex 25458.96875 15662.3837890625 550
  endloop
endfacet
facet normal -2.60953105708805e-15 -4.189314842836626e-14 -1
  outer loop
    vertex 25558.96875 15662.3837890625 550
    vertex 25458.96875 16562.384765625 550
    vertex 25558.96875 16562.384765625 550
  endloop
endfacet
facet normal -2.60953105708805e-15 -4.189314842836626e-14 -1
  outer loop
    vertex 25558.96875 15662.3837890625 550
    vertex 25558.96875 16562.384765625 550
    vertex 25558.96875 16162.3837890625 550
  endloop
endfacet
facet normal -2.60953105708805e-15 -4.189314842836626e-14 -1
  outer loop
    vertex 25558.96875 15662.3837890625 550
    vertex 25558.96875 16162.3837890625 550
    vertex 25558.96875 16062.3837890625 550
  endloop
endfacet
facet normal -2.60953105708805e-15 -4.189314842836626e-14 -1
  outer loop
    vertex 24058.96875 15662.3837890625 550
    vertex 23958.96875 15662.3837890625 550
    vertex 23958.96875 16562.384765625 550
  endloop
endfacet
facet normal 2.60953105708805e-15 4.189314842836626e-14 1
  outer loop
    vertex 22558.96875 15462.3837890625 3100
    vertex 22358.96875 16562.384765625 3100
    vertex 22358.96875 15462.3837890625 3100
  endloop
endfacet
facet normal 2.60953105708805e-15 4.189314842836626e-14 1
  outer loop
    vertex 24058.96875 15662.3837890625 3100
    vertex 23958.96875 16562.384765625 3100
    vertex 23958.96875 15662.3837890625 3100
  endloop
endfacet
facet normal 2.60953105708805e-15 4.189314842836626e-14 1
  outer loop
    vertex 25558.96875 15662.3837890625 3100
    vertex 25458.96875 16562.384765625 3100
    vertex 25458.96875 15662.3837890625 3100
  endloop
endfacet
facet normal 2.60953105708805e-15 4.189314842836626e-14 1
  outer loop
    vertex 25858.96875 16062.3837890625 3100
    vertex 25558.96875 16162.3837890625 3100
    vertex 25558.96875 16062.3837890625 3100
  endloop
endfacet
facet normal 2.60953105708805e-15 4.189314842836626e-14 1
  outer loop
    vertex 25558.96875 16162.3837890625 3100
    vertex 25858.96875 16062.3837890625 3100
    vertex 25858.96875 16162.3837890625 3100
  endloop
endfacet
facet normal 2.60953105708805e-15 4.189314842836626e-14 1
  outer loop
    vertex 21958.845703125 16562.384765625 3100
    vertex 22558.96875 16762.384765625 3100
    vertex 21958.845703125 16762.384765625 3100
  endloop
endfacet
facet normal 2.60953105708805e-15 4.189314842836626e-14 1
  outer loop
    vertex 22558.96875 16762.384765625 3100
    vertex 21958.845703125 16562.384765625 3100
    vertex 22358.96875 16562.384765625 3100
  endloop
endfacet
facet normal 2.60953105708805e-15 4.189314842836626e-14 1
  outer loop
    vertex 22558.96875 16762.384765625 3100
    vertex 22358.96875 16562.384765625 3100
    vertex 22558.96875 15462.3837890625 3100
  endloop
endfacet
facet normal 2.60953105708805e-15 4.189314842836626e-14 1
  outer loop
    vertex 22558.96875 16762.384765625 3100
    vertex 22558.96875 15462.3837890625 3100
    vertex 22558.96875 16562.384765625 3100
  endloop
endfacet
facet normal 2.60953105708805e-15 4.189314842836626e-14 1
  outer loop
    vertex 22558.96875 16762.384765625 3100
    vertex 22558.96875 16562.384765625 3100
    vertex 23958.96875 16562.384765625 3100
  endloop
endfacet
facet normal 2.60953105708805e-15 4.189314842836626e-14 1
  outer loop
    vertex 22558.96875 16762.384765625 3100
    vertex 23958.96875 16562.384765625 3100
    vertex 22858.96875 16762.384765625 3100
  endloop
endfacet
facet normal 2.60953105708805e-15 4.189314842836626e-14 1
  outer loop
    vertex 22858.96875 16762.384765625 3100
    vertex 23958.96875 16562.384765625 3100
    vertex 23158.96875 16762.384765625 3100
  endloop
endfacet
facet normal 2.60953105708805e-15 4.189314842836626e-14 1
  outer loop
    vertex 23158.96875 16762.384765625 3100
    vertex 23958.96875 16562.384765625 3100
    vertex 23458.96875 16762.384765625 3100
  endloop
endfacet
facet normal 2.60953105708805e-15 4.189314842836626e-14 1
  outer loop
    vertex 23458.96875 16762.384765625 3100
    vertex 23958.96875 16562.384765625 3100
    vertex 23758.96875 16762.384765625 3100
  endloop
endfacet
facet normal 2.60953105708805e-15 4.189314842836626e-14 1
  outer loop
    vertex 23758.96875 16762.384765625 3100
    vertex 23958.96875 16562.384765625 3100
    vertex 24058.96875 16762.384765625 3100
  endloop
endfacet
facet normal 2.60953105708805e-15 4.189314842836626e-14 1
  outer loop
    vertex 24058.96875 16762.384765625 3100
    vertex 23958.96875 16562.384765625 3100
    vertex 24058.96875 15662.3837890625 3100
  endloop
endfacet
facet normal 2.60953105708805e-15 4.189314842836626e-14 1
  outer loop
    vertex 24058.96875 16762.384765625 3100
    vertex 24058.96875 15662.3837890625 3100
    vertex 24058.96875 16562.384765625 3100
  endloop
endfacet
facet normal 2.60953105708805e-15 4.189314842836626e-14 1
  outer loop
    vertex 24058.96875 16762.384765625 3100
    vertex 24058.96875 16562.384765625 3100
    vertex 25458.96875 16562.384765625 3100
  endloop
endfacet
facet normal 2.60953105708805e-15 4.189314842836626e-14 1
  outer loop
    vertex 24058.96875 16762.384765625 3100
    vertex 25458.96875 16562.384765625 3100
    vertex 24358.96875 16762.384765625 3100
  endloop
endfacet
facet normal 2.60953105708805e-15 4.189314842836626e-14 1
  outer loop
    vertex 24358.96875 16762.384765625 3100
    vertex 25458.96875 16562.384765625 3100
    vertex 24658.96875 16762.384765625 3100
  endloop
endfacet
facet normal 2.60953105708805e-15 4.189314842836626e-14 1
  outer loop
    vertex 24658.96875 16762.384765625 3100
    vertex 25458.96875 16562.384765625 3100
    vertex 24958.96875 16762.384765625 3100
  endloop
endfacet
facet normal 2.60953105708805e-15 4.189314842836626e-14 1
  outer loop
    vertex 24958.96875 16762.384765625 3100
    vertex 25458.96875 16562.384765625 3100
    vertex 25258.96875 16762.384765625 3100
  endloop
endfacet
facet normal 2.60953105708805e-15 4.189314842836626e-14 1
  outer loop
    vertex 25258.96875 16762.384765625 3100
    vertex 25458.96875 16562.384765625 3100
    vertex 26858.845703125 16762.384765625 3100
  endloop
endfacet
facet normal 2.60953105708805e-15 4.189314842836626e-14 1
  outer loop
    vertex 26858.845703125 16762.384765625 3100
    vertex 25458.96875 16562.384765625 3100
    vertex 25558.96875 16562.384765625 3100
  endloop
endfacet
facet normal 2.60953105708805e-15 4.189314842836626e-14 1
  outer loop
    vertex 25558.96875 16562.384765625 3100
    vertex 25458.96875 16562.384765625 3100
    vertex 25558.96875 15662.3837890625 3100
  endloop
endfacet
facet normal 2.60953105708805e-15 4.189314842836626e-14 1
  outer loop
    vertex 25558.96875 16562.384765625 3100
    vertex 25558.96875 15662.3837890625 3100
    vertex 25558.96875 16062.3837890625 3100
  endloop
endfacet
facet normal 2.60953105708805e-15 4.189314842836626e-14 1
  outer loop
    vertex 25558.96875 16562.384765625 3100
    vertex 25558.96875 16062.3837890625 3100
    vertex 25558.96875 16162.3837890625 3100
  endloop
endfacet
facet normal 2.60953105708805e-15 4.189314842836626e-14 1
  outer loop
    vertex 26858.845703125 16762.384765625 3100
    vertex 25558.96875 16562.384765625 3100
    vertex 26858.845703125 16562.384765625 3100
  endloop
endfacet
facet normal 1.480032323910793e-13 1 -4.189314842836626e-14
  outer loop
    vertex 25258.96875 16762.384765625 3100
    vertex 26858.845703125 16762.384765625 550
    vertex 25258.96875 16762.384765625 550
  endloop
endfacet
facet normal 1.480032323910793e-13 1 -4.189314842836626e-14
  outer loop
    vertex 26858.845703125 16762.384765625 550
    vertex 25258.96875 16762.384765625 3100
    vertex 26858.845703125 16762.384765625 3100
  endloop
endfacet
facet normal 1 0 -2.60953105708805e-15
  outer loop
    vertex 26858.845703125 16762.384765625 550
    vertex 26858.845703125 16562.384765625 3100
    vertex 26858.845703125 16562.384765625 550
  endloop
endfacet
facet normal 1 0 -2.60953105708805e-15
  outer loop
    vertex 26858.845703125 16562.384765625 3100
    vertex 26858.845703125 16762.384765625 550
    vertex 26858.845703125 16762.384765625 3100
  endloop
endfacet
facet normal -8.885905520509413e-14 -1 4.189314842836626e-14
  outer loop
    vertex 26858.845703125 16562.384765625 550
    vertex 25558.96875 16562.384765625 3100
    vertex 25558.96875 16562.384765625 550
  endloop
endfacet
facet normal -8.885905520509413e-14 -1 4.189314842836626e-14
  outer loop
    vertex 25558.96875 16562.384765625 3100
    vertex 26858.845703125 16562.384765625 550
    vertex 26858.845703125 16562.384765625 3100
  endloop
endfacet
facet normal 1 0 -2.60953105708805e-15
  outer loop
    vertex 25558.96875 16562.384765625 550
    vertex 25558.96875 16162.3837890625 3100
    vertex 25558.96875 16162.3837890625 550
  endloop
endfacet
facet normal 1 0 -2.60953105708805e-15
  outer loop
    vertex 25558.96875 16162.3837890625 3100
    vertex 25558.96875 16562.384765625 550
    vertex 25558.96875 16562.384765625 3100
  endloop
endfacet
facet normal 3.850194360381642e-13 1 -4.189314842836626e-14
  outer loop
    vertex 25558.96875 16162.3837890625 3100
    vertex 25858.96875 16162.3837890625 550
    vertex 25558.96875 16162.3837890625 550
  endloop
endfacet
facet normal 3.850194360381642e-13 1 -4.189314842836626e-14
  outer loop
    vertex 25858.96875 16162.3837890625 550
    vertex 25558.96875 16162.3837890625 3100
    vertex 25858.96875 16162.3837890625 3100
  endloop
endfacet
facet normal 1 -1.469113806053166e-28 -2.60953105708805e-15
  outer loop
    vertex 25858.96875 16162.3837890625 550
    vertex 25858.96875 16062.3837890625 3100
    vertex 25858.96875 16062.3837890625 550
  endloop
endfacet
facet normal 1 -1.469113806053166e-28 -2.60953105708805e-15
  outer loop
    vertex 25858.96875 16062.3837890625 3100
    vertex 25858.96875 16162.3837890625 550
    vertex 25858.96875 16162.3837890625 3100
  endloop
endfacet
facet normal -2.902832101216406e-27 -1 4.189314842836626e-14
  outer loop
    vertex 25858.96875 16062.3837890625 550
    vertex 25558.96875 16062.3837890625 3100
    vertex 25558.96875 16062.3837890625 550
  endloop
endfacet
facet normal -2.902832101216406e-27 -1 4.189314842836626e-14
  outer loop
    vertex 25558.96875 16062.3837890625 3100
    vertex 25858.96875 16062.3837890625 550
    vertex 25858.96875 16062.3837890625 3100
  endloop
endfacet
facet normal 1 -4.716212625583597e-27 -2.60953105708805e-15
  outer loop
    vertex 25558.96875 16062.3837890625 550
    vertex 25558.96875 15662.3837890625 3100
    vertex 25558.96875 15662.3837890625 550
  endloop
endfacet
facet normal 1 -4.716212625583597e-27 -2.60953105708805e-15
  outer loop
    vertex 25558.96875 15662.3837890625 3100
    vertex 25558.96875 16062.3837890625 550
    vertex 25558.96875 16062.3837890625 3100
  endloop
endfacet
facet normal -2.893090177482432e-25 -1 4.189314842836626e-14
  outer loop
    vertex 25558.96875 15662.3837890625 550
    vertex 25458.96875 15662.3837890625 3100
    vertex 25458.96875 15662.3837890625 550
  endloop
endfacet
facet normal -2.893090177482432e-25 -1 4.189314842836626e-14
  outer loop
    vertex 25458.96875 15662.3837890625 3100
    vertex 25558.96875 15662.3837890625 550
    vertex 25558.96875 15662.3837890625 3100
  endloop
endfacet
facet normal -1 1.283398029777033e-13 2.60953105708805e-15
  outer loop
    vertex 25458.96875 15662.3837890625 3100
    vertex 25458.96875 16562.384765625 550
    vertex 25458.96875 15662.3837890625 550
  endloop
endfacet
facet normal -1 1.283398029777033e-13 2.60953105708805e-15
  outer loop
    vertex 25458.96875 16562.384765625 550
    vertex 25458.96875 15662.3837890625 3100
    vertex 25458.96875 16562.384765625 3100
  endloop
endfacet
facet normal -1.553890073254308e-14 -1 4.189917252668714e-14
  outer loop
    vertex 25458.96875 16562.384765625 3100
    vertex 24058.96875 16562.384765625 550
    vertex 25458.96875 16562.384765625 550
  endloop
endfacet
facet normal -1.553890073254308e-14 -1 4.189917252668714e-14
  outer loop
    vertex 24058.96875 16562.384765625 550
    vertex 25458.96875 16562.384765625 3100
    vertex 24058.96875 16562.384765625 3100
  endloop
endfacet
facet normal 1 -1.053473375699741e-13 -2.264820199532835e-15
  outer loop
    vertex 24058.96875 16562.384765625 550
    vertex 24058.96875 15662.3837890625 3100
    vertex 24058.96875 15662.3837890625 550
  endloop
endfacet
facet normal 1 -1.053473375699741e-13 -2.264820199532835e-15
  outer loop
    vertex 24058.96875 15662.3837890625 3100
    vertex 24058.96875 16562.384765625 550
    vertex 24058.96875 16562.384765625 3100
  endloop
endfacet
facet normal -1.155058253904384e-12 -1 4.189314842836626e-14
  outer loop
    vertex 24058.96875 15662.3837890625 3100
    vertex 23958.96875 15662.3837890625 550
    vertex 24058.96875 15662.3837890625 550
  endloop
endfacet
facet normal -1.155058253904384e-12 -1 4.189314842836626e-14
  outer loop
    vertex 23958.96875 15662.3837890625 550
    vertex 24058.96875 15662.3837890625 3100
    vertex 23958.96875 15662.3837890625 3100
  endloop
endfacet
facet normal -1 1.026718450926681e-13 2.60953105708805e-15
  outer loop
    vertex 23958.96875 15662.3837890625 3100
    vertex 23958.96875 16562.384765625 550
    vertex 23958.96875 15662.3837890625 550
  endloop
endfacet
facet normal -1 1.026718450926681e-13 2.60953105708805e-15
  outer loop
    vertex 23958.96875 16562.384765625 550
    vertex 23958.96875 15662.3837890625 3100
    vertex 23958.96875 16562.384765625 3100
  endloop
endfacet
facet normal 1.709434353779344e-30 -1 4.189917252668714e-14
  outer loop
    vertex 23958.96875 16562.384765625 3100
    vertex 22558.96875 16562.384765625 550
    vertex 23958.96875 16562.384765625 550
  endloop
endfacet
facet normal 1.709434353779344e-30 -1 4.189917252668714e-14
  outer loop
    vertex 22558.96875 16562.384765625 550
    vertex 23958.96875 16562.384765625 3100
    vertex 22558.96875 16562.384765625 3100
  endloop
endfacet
facet normal 1 4.121202890668835e-14 -2.264820199532835e-15
  outer loop
    vertex 22558.96875 16562.384765625 550
    vertex 22558.96875 15462.3837890625 3100
    vertex 22558.96875 15462.3837890625 550
  endloop
endfacet
facet normal 1 4.121202890668835e-14 -2.264820199532835e-15
  outer loop
    vertex 22558.96875 15462.3837890625 3100
    vertex 22558.96875 16562.384765625 550
    vertex 22558.96875 16562.384765625 3100
  endloop
endfacet
facet normal 0 -1 4.189314842836626e-14
  outer loop
    vertex 22558.96875 15462.3837890625 3100
    vertex 22358.96875 15462.3837890625 550
    vertex 22558.96875 15462.3837890625 550
  endloop
endfacet
facet normal 0 -1 4.189314842836626e-14
  outer loop
    vertex 22358.96875 15462.3837890625 550
    vertex 22558.96875 15462.3837890625 3100
    vertex 22358.96875 15462.3837890625 3100
  endloop
endfacet
facet normal -1 0 2.60953105708805e-15
  outer loop
    vertex 22358.96875 15462.3837890625 3100
    vertex 22358.96875 16562.384765625 550
    vertex 22358.96875 15462.3837890625 550
  endloop
endfacet
facet normal -1 0 2.60953105708805e-15
  outer loop
    vertex 22358.96875 16562.384765625 550
    vertex 22358.96875 15462.3837890625 3100
    vertex 22358.96875 16562.384765625 3100
  endloop
endfacet
facet normal 0 -1 4.189314842836626e-14
  outer loop
    vertex 22358.96875 16562.384765625 3100
    vertex 21958.845703125 16562.384765625 550
    vertex 22358.96875 16562.384765625 550
  endloop
endfacet
facet normal 0 -1 4.189314842836626e-14
  outer loop
    vertex 21958.845703125 16562.384765625 550
    vertex 22358.96875 16562.384765625 3100
    vertex 21958.845703125 16562.384765625 3100
  endloop
endfacet
facet normal -1 -2.88764563476096e-13 2.60953105708805e-15
  outer loop
    vertex 21958.845703125 16562.384765625 3100
    vertex 21958.845703125 16762.384765625 550
    vertex 21958.845703125 16562.384765625 550
  endloop
endfacet
facet normal -1 -2.88764563476096e-13 2.60953105708805e-15
  outer loop
    vertex 21958.845703125 16762.384765625 550
    vertex 21958.845703125 16562.384765625 3100
    vertex 21958.845703125 16762.384765625 3100
  endloop
endfacet
facet normal 0 1 -4.189314842836626e-14
  outer loop
    vertex 21958.845703125 16762.384765625 3100
    vertex 22558.96875 16762.384765625 550
    vertex 21958.845703125 16762.384765625 550
  endloop
endfacet
facet normal 0 1 -4.189314842836626e-14
  outer loop
    vertex 22558.96875 16762.384765625 550
    vertex 21958.845703125 16762.384765625 3100
    vertex 22558.96875 16762.384765625 3100
  endloop
endfacet
facet normal 0 1 -4.189314842836626e-14
  outer loop
    vertex 22558.96875 16762.384765625 3100
    vertex 22858.96875 16762.384765625 550
    vertex 22558.96875 16762.384765625 550
  endloop
endfacet
facet normal 0 1 -4.189314842836626e-14
  outer loop
    vertex 22858.96875 16762.384765625 550
    vertex 22558.96875 16762.384765625 3100
    vertex 22858.96875 16762.384765625 3100
  endloop
endfacet
facet normal 0 1 -4.189314842836626e-14
  outer loop
    vertex 22858.96875 16762.384765625 3100
    vertex 23158.96875 16762.384765625 550
    vertex 22858.96875 16762.384765625 550
  endloop
endfacet
facet normal 0 1 -4.189314842836626e-14
  outer loop
    vertex 23158.96875 16762.384765625 550
    vertex 22858.96875 16762.384765625 3100
    vertex 23158.96875 16762.384765625 3100
  endloop
endfacet
facet normal 0 1 -4.189314842836626e-14
  outer loop
    vertex 23158.96875 16762.384765625 3100
    vertex 23458.96875 16762.384765625 550
    vertex 23158.96875 16762.384765625 550
  endloop
endfacet
facet normal 0 1 -4.189314842836626e-14
  outer loop
    vertex 23458.96875 16762.384765625 550
    vertex 23158.96875 16762.384765625 3100
    vertex 23458.96875 16762.384765625 3100
  endloop
endfacet
facet normal 0 1 -4.189314842836626e-14
  outer loop
    vertex 23458.96875 16762.384765625 3100
    vertex 23758.96875 16762.384765625 550
    vertex 23458.96875 16762.384765625 550
  endloop
endfacet
facet normal 0 1 -4.189314842836626e-14
  outer loop
    vertex 23758.96875 16762.384765625 550
    vertex 23458.96875 16762.384765625 3100
    vertex 23758.96875 16762.384765625 3100
  endloop
endfacet
facet normal -1.751838366211012e-12 1 -4.189314842836626e-14
  outer loop
    vertex 23758.96875 16762.384765625 3100
    vertex 24058.96875 16762.384765625 550
    vertex 23758.96875 16762.384765625 550
  endloop
endfacet
facet normal -1.751838366211012e-12 1 -4.189314842836626e-14
  outer loop
    vertex 24058.96875 16762.384765625 550
    vertex 23758.96875 16762.384765625 3100
    vertex 24058.96875 16762.384765625 3100
  endloop
endfacet
facet normal 0 1 -4.189314842836626e-14
  outer loop
    vertex 24058.96875 16762.384765625 3100
    vertex 24358.96875 16762.384765625 550
    vertex 24058.96875 16762.384765625 550
  endloop
endfacet
facet normal 0 1 -4.189314842836626e-14
  outer loop
    vertex 24358.96875 16762.384765625 550
    vertex 24058.96875 16762.384765625 3100
    vertex 24358.96875 16762.384765625 3100
  endloop
endfacet
facet normal 0 1 -4.189314842836626e-14
  outer loop
    vertex 24358.96875 16762.384765625 3100
    vertex 24658.96875 16762.384765625 550
    vertex 24358.96875 16762.384765625 550
  endloop
endfacet
facet normal 0 1 -4.189314842836626e-14
  outer loop
    vertex 24658.96875 16762.384765625 550
    vertex 24358.96875 16762.384765625 3100
    vertex 24658.96875 16762.384765625 3100
  endloop
endfacet
facet normal 0 1 -4.189314842836626e-14
  outer loop
    vertex 24658.96875 16762.384765625 3100
    vertex 24958.96875 16762.384765625 550
    vertex 24658.96875 16762.384765625 550
  endloop
endfacet
facet normal 0 1 -4.189314842836626e-14
  outer loop
    vertex 24958.96875 16762.384765625 550
    vertex 24658.96875 16762.384765625 3100
    vertex 24958.96875 16762.384765625 3100
  endloop
endfacet
facet normal 1.751838366211012e-12 1 -4.189314842836626e-14
  outer loop
    vertex 24958.96875 16762.384765625 550
    vertex 25258.96875 16762.384765625 3100
    vertex 25258.96875 16762.384765625 550
  endloop
endfacet
facet normal 1.751838366211012e-12 1 -4.189314842836626e-14
  outer loop
    vertex 25258.96875 16762.384765625 3100
    vertex 24958.96875 16762.384765625 550
    vertex 24958.96875 16762.384765625 3100
  endloop
endfacet
facet normal 0 0 -1
  outer loop
    vertex 22558.96875 14662.3837890625 550
    vertex 22358.96875 14562.3837890625 550
    vertex 22358.96875 14662.3837890625 550
  endloop
endfacet
facet normal 0 0 -1
  outer loop
    vertex 22358.96875 14562.3837890625 550
    vertex 22558.96875 14662.3837890625 550
    vertex 22558.96875 14562.3837890625 550
  endloop
endfacet
facet normal 0 0 -1
  outer loop
    vertex 22358.96875 14562.3837890625 550
    vertex 21358.845703125 14362.3837890625 550
    vertex 21358.845703125 14562.3837890625 550
  endloop
endfacet
facet normal 0 0 -1
  outer loop
    vertex 21358.845703125 14362.3837890625 550
    vertex 22358.96875 14562.3837890625 550
    vertex 26758.845703125 14362.3837890625 550
  endloop
endfacet
facet normal 0 0 -1
  outer loop
    vertex 26758.845703125 14362.3837890625 550
    vertex 22358.96875 14562.3837890625 550
    vertex 22558.96875 14562.3837890625 550
  endloop
endfacet
facet normal 0 0 -1
  outer loop
    vertex 26758.845703125 14362.3837890625 550
    vertex 22558.96875 14562.3837890625 550
    vertex 26758.845703125 14562.3837890625 550
  endloop
endfacet
facet normal 0 0 1
  outer loop
    vertex 26758.845703125 14362.3837890625 3100
    vertex 21358.845703125 14562.3837890625 3100
    vertex 21358.845703125 14362.3837890625 3100
  endloop
endfacet
facet normal 0 0 1
  outer loop
    vertex 21358.845703125 14562.3837890625 3100
    vertex 26758.845703125 14362.3837890625 3100
    vertex 22358.96875 14562.3837890625 3100
  endloop
endfacet
facet normal 0 0 1
  outer loop
    vertex 22358.96875 14562.3837890625 3100
    vertex 26758.845703125 14362.3837890625 3100
    vertex 22558.96875 14562.3837890625 3100
  endloop
endfacet
facet normal 0 0 1
  outer loop
    vertex 22558.96875 14562.3837890625 3100
    vertex 26758.845703125 14362.3837890625 3100
    vertex 26758.845703125 14562.3837890625 3100
  endloop
endfacet
facet normal 0 0 1
  outer loop
    vertex 22358.96875 14562.3837890625 3100
    vertex 22558.96875 14662.3837890625 3100
    vertex 22358.96875 14662.3837890625 3100
  endloop
endfacet
facet normal 0 0 1
  outer loop
    vertex 22558.96875 14662.3837890625 3100
    vertex 22358.96875 14562.3837890625 3100
    vertex 22558.96875 14562.3837890625 3100
  endloop
endfacet
facet normal 2.138996716295055e-14 -1 0
  outer loop
    vertex 26758.845703125 14362.3837890625 3100
    vertex 21358.845703125 14362.3837890625 550
    vertex 26758.845703125 14362.3837890625 550
  endloop
endfacet
facet normal 2.138996716295055e-14 -1 0
  outer loop
    vertex 21358.845703125 14362.3837890625 550
    vertex 26758.845703125 14362.3837890625 3100
    vertex 21358.845703125 14362.3837890625 3100
  endloop
endfacet
facet normal -1 0 0
  outer loop
    vertex 21358.845703125 14562.3837890625 3100
    vertex 21358.845703125 14362.3837890625 550
    vertex 21358.845703125 14362.3837890625 3100
  endloop
endfacet
facet normal -1 0 0
  outer loop
    vertex 21358.845703125 14362.3837890625 550
    vertex 21358.845703125 14562.3837890625 3100
    vertex 21358.845703125 14562.3837890625 550
  endloop
endfacet
facet normal 3.464748019738062e-13 1 0
  outer loop
    vertex 21358.845703125 14562.3837890625 3100
    vertex 22358.96875 14562.3837890625 550
    vertex 21358.845703125 14562.3837890625 550
  endloop
endfacet
facet normal 3.464748019738062e-13 1 0
  outer loop
    vertex 22358.96875 14562.3837890625 550
    vertex 21358.845703125 14562.3837890625 3100
    vertex 22358.96875 14562.3837890625 3100
  endloop
endfacet
facet normal -1 -2.021352052752889e-12 -0
  outer loop
    vertex 22358.96875 14662.3837890625 3100
    vertex 22358.96875 14562.3837890625 550
    vertex 22358.96875 14562.3837890625 3100
  endloop
endfacet
facet normal -1 -2.021352052752889e-12 -0
  outer loop
    vertex 22358.96875 14562.3837890625 550
    vertex 22358.96875 14662.3837890625 3100
    vertex 22358.96875 14662.3837890625 550
  endloop
endfacet
facet normal 0 1 0
  outer loop
    vertex 22358.96875 14662.3837890625 3100
    vertex 22558.96875 14662.3837890625 550
    vertex 22358.96875 14662.3837890625 550
  endloop
endfacet
facet normal 0 1 0
  outer loop
    vertex 22558.96875 14662.3837890625 550
    vertex 22358.96875 14662.3837890625 3100
    vertex 22558.96875 14662.3837890625 3100
  endloop
endfacet
facet normal 1 -1.21281120996769e-12 0
  outer loop
    vertex 22558.96875 14662.3837890625 550
    vertex 22558.96875 14562.3837890625 3100
    vertex 22558.96875 14562.3837890625 550
  endloop
endfacet
facet normal 1 -1.21281120996769e-12 0
  outer loop
    vertex 22558.96875 14562.3837890625 3100
    vertex 22558.96875 14662.3837890625 550
    vertex 22558.96875 14662.3837890625 3100
  endloop
endfacet
facet normal 0 1 0
  outer loop
    vertex 22558.96875 14562.3837890625 3100
    vertex 26758.845703125 14562.3837890625 550
    vertex 22558.96875 14562.3837890625 550
  endloop
endfacet
facet normal 0 1 0
  outer loop
    vertex 26758.845703125 14562.3837890625 550
    vertex 22558.96875 14562.3837890625 3100
    vertex 26758.845703125 14562.3837890625 3100
  endloop
endfacet
facet normal 1 0 0
  outer loop
    vertex 26758.845703125 14562.3837890625 550
    vertex 26758.845703125 14362.3837890625 3100
    vertex 26758.845703125 14362.3837890625 550
  endloop
endfacet
facet normal 1 0 0
  outer loop
    vertex 26758.845703125 14362.3837890625 3100
    vertex 26758.845703125 14562.3837890625 550
    vertex 26758.845703125 14562.3837890625 3100
  endloop
endfacet
facet normal 0 0 -1
  outer loop
    vertex 27158.845703125 14962.3837890625 550
    vertex 26758.845703125 14562.3837890625 550
    vertex 26758.845703125 14962.3837890625 550
  endloop
endfacet
facet normal 0 0 -1
  outer loop
    vertex 26758.845703125 14562.3837890625 550
    vertex 27158.845703125 14962.3837890625 550
    vertex 26758.845703125 14362.3837890625 550
  endloop
endfacet
facet normal 0 0 -1
  outer loop
    vertex 26758.845703125 14362.3837890625 550
    vertex 27158.845703125 14962.3837890625 550
    vertex 27358.845703125 14362.3837890625 550
  endloop
endfacet
facet normal 0 0 -1
  outer loop
    vertex 27358.845703125 14362.3837890625 550
    vertex 27158.845703125 14962.3837890625 550
    vertex 27358.845703125 14962.3837890625 550
  endloop
endfacet
facet normal 0 0 1
  outer loop
    vertex 27358.845703125 14362.3837890625 3100
    vertex 26758.845703125 14562.3837890625 3100
    vertex 26758.845703125 14362.3837890625 3100
  endloop
endfacet
facet normal 0 0 1
  outer loop
    vertex 26758.845703125 14562.3837890625 3100
    vertex 27358.845703125 14362.3837890625 3100
    vertex 27158.845703125 14962.3837890625 3100
  endloop
endfacet
facet normal 0 0 1
  outer loop
    vertex 27158.845703125 14962.3837890625 3100
    vertex 27358.845703125 14362.3837890625 3100
    vertex 27358.845703125 14962.3837890625 3100
  endloop
endfacet
facet normal 0 0 1
  outer loop
    vertex 27158.845703125 14962.3837890625 3100
    vertex 26758.845703125 14962.3837890625 3100
    vertex 26758.845703125 14562.3837890625 3100
  endloop
endfacet
facet normal 1 2.887645770286232e-14 0
  outer loop
    vertex 27358.845703125 14962.3837890625 550
    vertex 27358.845703125 14362.3837890625 3100
    vertex 27358.845703125 14362.3837890625 550
  endloop
endfacet
facet normal 1 2.887645770286232e-14 0
  outer loop
    vertex 27358.845703125 14362.3837890625 3100
    vertex 27358.845703125 14962.3837890625 550
    vertex 27358.845703125 14962.3837890625 3100
  endloop
endfacet
facet normal -2.021351971437726e-13 -1 -0
  outer loop
    vertex 27358.845703125 14362.3837890625 3100
    vertex 26758.845703125 14362.3837890625 550
    vertex 27358.845703125 14362.3837890625 550
  endloop
endfacet
facet normal -2.021351971437726e-13 -1 -0
  outer loop
    vertex 26758.845703125 14362.3837890625 550
    vertex 27358.845703125 14362.3837890625 3100
    vertex 26758.845703125 14362.3837890625 3100
  endloop
endfacet
facet normal -1 0 0
  outer loop
    vertex 26758.845703125 14562.3837890625 3100
    vertex 26758.845703125 14362.3837890625 550
    vertex 26758.845703125 14362.3837890625 3100
  endloop
endfacet
facet normal -1 0 0
  outer loop
    vertex 26758.845703125 14362.3837890625 550
    vertex 26758.845703125 14562.3837890625 3100
    vertex 26758.845703125 14562.3837890625 550
  endloop
endfacet
facet normal -1 -1.010675985718863e-13 -0
  outer loop
    vertex 26758.845703125 14962.3837890625 3100
    vertex 26758.845703125 14562.3837890625 550
    vertex 26758.845703125 14562.3837890625 3100
  endloop
endfacet
facet normal -1 -1.010675985718863e-13 -0
  outer loop
    vertex 26758.845703125 14562.3837890625 550
    vertex 26758.845703125 14962.3837890625 3100
    vertex 26758.845703125 14962.3837890625 550
  endloop
endfacet
facet normal -1.588205072013474e-13 1 0
  outer loop
    vertex 26758.845703125 14962.3837890625 3100
    vertex 27158.845703125 14962.3837890625 550
    vertex 26758.845703125 14962.3837890625 550
  endloop
endfacet
facet normal -1.588205072013474e-13 1 0
  outer loop
    vertex 27158.845703125 14962.3837890625 550
    vertex 26758.845703125 14962.3837890625 3100
    vertex 27158.845703125 14962.3837890625 3100
  endloop
endfacet
facet normal 0 1 0
  outer loop
    vertex 27158.845703125 14962.3837890625 3100
    vertex 27358.845703125 14962.3837890625 550
    vertex 27158.845703125 14962.3837890625 550
  endloop
endfacet
facet normal 0 1 0
  outer loop
    vertex 27358.845703125 14962.3837890625 550
    vertex 27158.845703125 14962.3837890625 3100
    vertex 27358.845703125 14962.3837890625 3100
  endloop
endfacet
facet normal 4.33699300431134e-14 -1.198928550026363e-16 -1
  outer loop
    vertex 27258.845703125 15616.9296875 550
    vertex 27158.845703125 15453.29296875 550
    vertex 27158.845703125 15616.9296875 550
  endloop
endfacet
facet normal 4.33699300431134e-14 -1.198928550026363e-16 -1
  outer loop
    vertex 27158.845703125 15453.29296875 550
    vertex 27258.845703125 15616.9296875 550
    vertex 27158.845703125 15412.3837890625 550
  endloop
endfacet
facet normal 4.33699300431134e-14 -1.198928550026363e-16 -1
  outer loop
    vertex 27158.845703125 16762.384765625 550
    vertex 27258.845703125 15698.748046875 550
    vertex 27158.845703125 15698.748046875 550
  endloop
endfacet
facet normal 4.33699300431134e-14 -1.198928550026363e-16 -1
  outer loop
    vertex 27258.845703125 15698.748046875 550
    vertex 27158.845703125 16762.384765625 550
    vertex 27358.845703125 16762.384765625 550
  endloop
endfacet
facet normal 4.33699300431134e-14 -1.198928550026363e-16 -1
  outer loop
    vertex 27258.845703125 15698.748046875 550
    vertex 27358.845703125 16762.384765625 550
    vertex 27258.845703125 15616.9296875 550
  endloop
endfacet
facet normal 4.33699300431134e-14 -1.198928550026363e-16 -1
  outer loop
    vertex 27158.845703125 15412.3837890625 550
    vertex 27358.845703125 14962.3837890625 550
    vertex 27158.845703125 14962.3837890625 550
  endloop
endfacet
facet normal 4.33699300431134e-14 -1.198928550026363e-16 -1
  outer loop
    vertex 27358.845703125 14962.3837890625 550
    vertex 27158.845703125 15412.3837890625 550
    vertex 27258.845703125 15616.9296875 550
  endloop
endfacet
facet normal 4.33699300431134e-14 -1.198928550026363e-16 -1
  outer loop
    vertex 27358.845703125 14962.3837890625 550
    vertex 27258.845703125 15616.9296875 550
    vertex 27358.845703125 16762.384765625 550
  endloop
endfacet
facet normal 4.33699300431134e-14 -1.198928550026363e-16 -1
  outer loop
    vertex 27358.845703125 14962.3837890625 550
    vertex 27358.845703125 16762.384765625 550
    vertex 27358.845703125 16230.6171875 550
  endloop
endfacet
facet normal 4.33699300431134e-14 -1.198928550026363e-16 -1
  outer loop
    vertex 27158.845703125 15453.29296875 550
    vertex 26858.96875 15412.3837890625 550
    vertex 26858.96875 15453.29296875 550
  endloop
endfacet
facet normal 4.33699300431134e-14 -1.198928550026363e-16 -1
  outer loop
    vertex 26858.96875 15412.3837890625 550
    vertex 27158.845703125 15453.29296875 550
    vertex 27158.845703125 15412.3837890625 550
  endloop
endfacet
facet normal -4.33699300431134e-14 1.198928550026363e-16 1
  outer loop
    vertex 27358.845703125 14962.3837890625 3100
    vertex 27158.845703125 15412.3837890625 3100
    vertex 27158.845703125 14962.3837890625 3100
  endloop
endfacet
facet normal -4.33699300431134e-14 1.198928550026363e-16 1
  outer loop
    vertex 27158.845703125 15412.3837890625 3100
    vertex 27358.845703125 14962.3837890625 3100
    vertex 27158.845703125 15453.29296875 3100
  endloop
endfacet
facet normal -4.33699300431134e-14 1.198928550026363e-16 1
  outer loop
    vertex 27158.845703125 15453.29296875 3100
    vertex 27358.845703125 14962.3837890625 3100
    vertex 27158.845703125 15616.9296875 3100
  endloop
endfacet
facet normal -4.33699300431134e-14 1.198928550026363e-16 1
  outer loop
    vertex 27158.845703125 15616.9296875 3100
    vertex 27358.845703125 14962.3837890625 3100
    vertex 27258.845703125 15616.9296875 3100
  endloop
endfacet
facet normal -4.33699300431134e-14 1.198928550026363e-16 1
  outer loop
    vertex 27258.845703125 15616.9296875 3100
    vertex 27358.845703125 14962.3837890625 3100
    vertex 27258.845703125 15698.748046875 3100
  endloop
endfacet
facet normal -4.33699300431134e-14 1.198928550026363e-16 1
  outer loop
    vertex 27258.845703125 15698.748046875 3100
    vertex 27158.845703125 16762.384765625 3100
    vertex 27158.845703125 15698.748046875 3100
  endloop
endfacet
facet normal -4.33699300431134e-14 1.198928550026363e-16 1
  outer loop
    vertex 27158.845703125 16762.384765625 3100
    vertex 27258.845703125 15698.748046875 3100
    vertex 27358.845703125 16762.384765625 3100
  endloop
endfacet
facet normal -4.33699300431134e-14 1.198928550026363e-16 1
  outer loop
    vertex 27358.845703125 16762.384765625 3100
    vertex 27258.845703125 15698.748046875 3100
    vertex 27358.845703125 14962.3837890625 3100
  endloop
endfacet
facet normal -4.33699300431134e-14 1.198928550026363e-16 1
  outer loop
    vertex 27358.845703125 16762.384765625 3100
    vertex 27358.845703125 14962.3837890625 3100
    vertex 27358.845703125 16230.6171875 3100
  endloop
endfacet
facet normal -4.33699300431134e-14 1.198928550026363e-16 1
  outer loop
    vertex 27158.845703125 15412.3837890625 3100
    vertex 26858.96875 15453.29296875 3100
    vertex 26858.96875 15412.3837890625 3100
  endloop
endfacet
facet normal -4.33699300431134e-14 1.198928550026363e-16 1
  outer loop
    vertex 26858.96875 15453.29296875 3100
    vertex 27158.845703125 15412.3837890625 3100
    vertex 27158.845703125 15453.29296875 3100
  endloop
endfacet
facet normal -1 1.181309553215798e-13 -4.33699300431134e-14
  outer loop
    vertex 27158.845703125 15412.3837890625 3100
    vertex 27158.845703125 14962.3837890625 550
    vertex 27158.845703125 14962.3837890625 3100
  endloop
endfacet
facet normal -1 1.181309553215798e-13 -4.33699300431134e-14
  outer loop
    vertex 27158.845703125 14962.3837890625 550
    vertex 27158.845703125 15412.3837890625 3100
    vertex 27158.845703125 15412.3837890625 550
  endloop
endfacet
facet normal -4.964017325036601e-29 -1 7.163968028047233e-16
  outer loop
    vertex 27158.845703125 15412.3837890625 550
    vertex 26858.96875 15412.3837890625 3100
    vertex 26858.96875 15412.3837890625 550
  endloop
endfacet
facet normal -4.964017325036601e-29 -1 7.163968028047233e-16
  outer loop
    vertex 26858.96875 15412.3837890625 3100
    vertex 27158.845703125 15412.3837890625 550
    vertex 27158.845703125 15412.3837890625 3100
  endloop
endfacet
facet normal -1 -2.304362659914689e-28 -4.33699300431134e-14
  outer loop
    vertex 26858.96875 15453.29296875 3100
    vertex 26858.96875 15412.3837890625 550
    vertex 26858.96875 15412.3837890625 3100
  endloop
endfacet
facet normal -1 -2.304362659914689e-28 -4.33699300431134e-14
  outer loop
    vertex 26858.96875 15412.3837890625 550
    vertex 26858.96875 15453.29296875 3100
    vertex 26858.96875 15453.29296875 550
  endloop
endfacet
facet normal 5.274296977066091e-29 1 -7.163968028047233e-16
  outer loop
    vertex 26858.96875 15453.29296875 3100
    vertex 27158.845703125 15453.29296875 550
    vertex 26858.96875 15453.29296875 550
  endloop
endfacet
facet normal 5.274296977066091e-29 1 -7.163968028047233e-16
  outer loop
    vertex 27158.845703125 15453.29296875 550
    vertex 26858.96875 15453.29296875 3100
    vertex 27158.845703125 15453.29296875 3100
  endloop
endfacet
facet normal -1 0 -4.33699300431134e-14
  outer loop
    vertex 27158.845703125 15616.9296875 3100
    vertex 27158.845703125 15453.29296875 550
    vertex 27158.845703125 15453.29296875 3100
  endloop
endfacet
facet normal -1 0 -4.33699300431134e-14
  outer loop
    vertex 27158.845703125 15453.29296875 550
    vertex 27158.845703125 15616.9296875 3100
    vertex 27158.845703125 15616.9296875 550
  endloop
endfacet
facet normal 2.823475828139799e-12 1 -7.163968028047233e-16
  outer loop
    vertex 27158.845703125 15616.9296875 550
    vertex 27258.845703125 15616.9296875 3100
    vertex 27258.845703125 15616.9296875 550
  endloop
endfacet
facet normal 2.823475828139799e-12 1 -7.163968028047233e-16
  outer loop
    vertex 27258.845703125 15616.9296875 3100
    vertex 27158.845703125 15616.9296875 550
    vertex 27158.845703125 15616.9296875 3100
  endloop
endfacet
facet normal -1 0 -4.33699300431134e-14
  outer loop
    vertex 27258.845703125 15698.748046875 3100
    vertex 27258.845703125 15616.9296875 550
    vertex 27258.845703125 15616.9296875 3100
  endloop
endfacet
facet normal -1 0 -4.33699300431134e-14
  outer loop
    vertex 27258.845703125 15616.9296875 550
    vertex 27258.845703125 15698.748046875 3100
    vertex 27258.845703125 15698.748046875 550
  endloop
endfacet
facet normal -5.788125187478066e-12 -1 7.163968028047233e-16
  outer loop
    vertex 27258.845703125 15698.748046875 3100
    vertex 27158.845703125 15698.748046875 550
    vertex 27258.845703125 15698.748046875 550
  endloop
endfacet
facet normal -5.788125187478066e-12 -1 7.163968028047233e-16
  outer loop
    vertex 27158.845703125 15698.748046875 550
    vertex 27258.845703125 15698.748046875 3100
    vertex 27158.845703125 15698.748046875 3100
  endloop
endfacet
facet normal 1 3.635149042809658e-15 4.33699300431134e-14
  outer loop
    vertex 27358.845703125 16762.384765625 550
    vertex 27358.845703125 16230.6171875 3100
    vertex 27358.845703125 16230.6171875 550
  endloop
endfacet
facet normal 1 3.635149042809658e-15 4.33699300431134e-14
  outer loop
    vertex 27358.845703125 16230.6171875 3100
    vertex 27358.845703125 16762.384765625 550
    vertex 27358.845703125 16762.384765625 3100
  endloop
endfacet
facet normal 1 -1.524208895288038e-15 4.33699300431134e-14
  outer loop
    vertex 27358.845703125 16230.6171875 550
    vertex 27358.845703125 14962.3837890625 3100
    vertex 27358.845703125 14962.3837890625 550
  endloop
endfacet
facet normal 1 -1.524208895288038e-15 4.33699300431134e-14
  outer loop
    vertex 27358.845703125 14962.3837890625 3100
    vertex 27358.845703125 16230.6171875 550
    vertex 27358.845703125 16230.6171875 3100
  endloop
endfacet
facet normal 0 -1 7.163968028047233e-16
  outer loop
    vertex 27358.845703125 14962.3837890625 3100
    vertex 27158.845703125 14962.3837890625 550
    vertex 27358.845703125 14962.3837890625 550
  endloop
endfacet
facet normal 0 -1 7.163968028047233e-16
  outer loop
    vertex 27158.845703125 14962.3837890625 550
    vertex 27358.845703125 14962.3837890625 3100
    vertex 27158.845703125 14962.3837890625 3100
  endloop
endfacet
facet normal -1 4.997848448572324e-14 -4.33699300431134e-14
  outer loop
    vertex 27158.845703125 16762.384765625 3100
    vertex 27158.845703125 15698.748046875 550
    vertex 27158.845703125 15698.748046875 3100
  endloop
endfacet
facet normal -1 4.997848448572324e-14 -4.33699300431134e-14
  outer loop
    vertex 27158.845703125 15698.748046875 550
    vertex 27158.845703125 16762.384765625 3100
    vertex 27158.845703125 16762.384765625 550
  endloop
endfacet
facet normal 0 1 -7.163968028047233e-16
  outer loop
    vertex 27158.845703125 16762.384765625 3100
    vertex 27358.845703125 16762.384765625 550
    vertex 27158.845703125 16762.384765625 550
  endloop
endfacet
facet normal 0 1 -7.163968028047233e-16
  outer loop
    vertex 27358.845703125 16762.384765625 550
    vertex 27158.845703125 16762.384765625 3100
    vertex 27358.845703125 16762.384765625 3100
  endloop
endfacet
endsolid com.sketchup.SketchUp.2019
