solid com.sketchup.SketchUp.2019
facet normal 2.887129800166412e-16 -6.015928688096316e-16 -1
  outer loop
    vertex 27358.845703125 16762.384765625 3100
    vertex 22357.951171875 14362.3837890625 3100
    vertex 22357.951171875 16762.384765625 3100
  endloop
endfacet
facet normal 2.887129800166412e-16 -6.015928688096316e-16 -1
  outer loop
    vertex 22357.951171875 14362.3837890625 3100
    vertex 27358.845703125 16762.384765625 3100
    vertex 27358.845703125 14362.3837890625 3100
  endloop
endfacet
facet normal -2.887129800166412e-16 6.015928688096316e-16 1
  outer loop
    vertex 27358.845703125 14362.3837890625 3500
    vertex 22357.951171875 16762.384765625 3500
    vertex 22357.951171875 14362.3837890625 3500
  endloop
endfacet
facet normal -2.887129800166412e-16 6.015928688096316e-16 1
  outer loop
    vertex 22357.951171875 16762.384765625 3500
    vertex 27358.845703125 14362.3837890625 3500
    vertex 27358.845703125 16762.384765625 3500
  endloop
endfacet
facet normal 0 -1 6.015928688096316e-16
  outer loop
    vertex 27358.845703125 14362.3837890625 3500
    vertex 22357.951171875 14362.3837890625 3100
    vertex 27358.845703125 14362.3837890625 3100
  endloop
endfacet
facet normal 0 -1 6.015928688096316e-16
  outer loop
    vertex 22357.951171875 14362.3837890625 3100
    vertex 27358.845703125 14362.3837890625 3500
    vertex 22357.951171875 14362.3837890625 3500
  endloop
endfacet
facet normal -1 -3.473753432174287e-31 -2.887129800166412e-16
  outer loop
    vertex 22357.951171875 16762.384765625 3500
    vertex 22357.951171875 14362.3837890625 3100
    vertex 22357.951171875 14362.3837890625 3500
  endloop
endfacet
facet normal -1 -3.473753432174287e-31 -2.887129800166412e-16
  outer loop
    vertex 22357.951171875 14362.3837890625 3100
    vertex 22357.951171875 16762.384765625 3500
    vertex 22357.951171875 16762.384765625 3100
  endloop
endfacet
facet normal 3.473753432174287e-31 1 -6.015928688096316e-16
  outer loop
    vertex 22357.951171875 16762.384765625 3500
    vertex 27358.845703125 16762.384765625 3100
    vertex 22357.951171875 16762.384765625 3100
  endloop
endfacet
facet normal 3.473753432174287e-31 1 -6.015928688096316e-16
  outer loop
    vertex 27358.845703125 16762.384765625 3100
    vertex 22357.951171875 16762.384765625 3500
    vertex 27358.845703125 16762.384765625 3500
  endloop
endfacet
facet normal 1 0 2.887129800166412e-16
  outer loop
    vertex 27358.845703125 16762.384765625 3100
    vertex 27358.845703125 14362.3837890625 3500
    vertex 27358.845703125 14362.3837890625 3100
  endloop
endfacet
facet normal 1 0 2.887129800166412e-16
  outer loop
    vertex 27358.845703125 14362.3837890625 3500
    vertex 27358.845703125 16762.384765625 3100
    vertex 27358.845703125 16762.384765625 3500
  endloop
endfacet
endsolid com.sketchup.SketchUp.2019
