solid com.sketchup.SketchUp.2019
facet normal 2.712577731878163e-11 1.198714196480599e-12 1
  outer loop
    vertex 24.66030311584473 3193.09814453125 3500
    vertex 25.48269653320312 3234.072021484375 3500
    vertex 23.97450828552246 3193.08447265625 3500
  endloop
endfacet
facet normal 2.712577731878163e-11 1.198714196480599e-12 1
  outer loop
    vertex 25.48269653320312 3234.072021484375 3500
    vertex 24.66030311584473 3193.09814453125 3500
    vertex 25.47604942321777 3151.001220703125 3500
  endloop
endfacet
facet normal 2.712577731878163e-11 1.198714196480599e-12 1
  outer loop
    vertex 30.43038558959961 2988.824951171875 3500
    vertex 25.47604942321777 3151.001220703125 3500
    vertex 25.20287322998047 3150.995849609375 3500
  endloop
endfacet
facet normal 2.712577731878163e-11 1.198714196480599e-12 1
  outer loop
    vertex 25.47604942321777 3151.001220703125 3500
    vertex 30.43038558959961 2988.824951171875 3500
    vertex 25.48269653320312 3234.072021484375 3500
  endloop
endfacet
facet normal 2.712577731878163e-11 1.198714196480599e-12 1
  outer loop
    vertex 25.48269653320312 3234.072021484375 3500
    vertex 30.43038558959961 2988.824951171875 3500
    vertex 94.33270263671875 5105.18994140625 3500
  endloop
endfacet
facet normal 2.712577731878163e-11 1.198714196480599e-12 1
  outer loop
    vertex 94.33270263671875 5105.18994140625 3500
    vertex 30.43038558959961 2988.824951171875 3500
    vertex 49.98896789550781 2787.291015625 3500
  endloop
endfacet
facet normal 2.712577731878163e-11 1.198714196480599e-12 1
  outer loop
    vertex 94.33270263671875 5105.18994140625 3500
    vertex 49.98896789550781 2787.291015625 3500
    vertex 82.49808502197266 2587.486572265625 3500
  endloop
endfacet
facet normal 2.712577731878163e-11 1.198714196480599e-12 1
  outer loop
    vertex 94.33270263671875 5105.18994140625 3500
    vertex 82.49808502197266 2587.486572265625 3500
    vertex 127.8184967041016 2390.267578125 3500
  endloop
endfacet
facet normal 2.712577731878163e-11 1.198714196480599e-12 1
  outer loop
    vertex 94.33270263671875 5105.18994140625 3500
    vertex 127.8184967041016 2390.267578125 3500
    vertex 98.23522186279297 5211.24755859375 3500
  endloop
endfacet
facet normal 2.712577731878163e-11 1.198714196480599e-12 1
  outer loop
    vertex 98.23522186279297 5211.24755859375 3500
    vertex 127.8184967041016 2390.267578125 3500
    vertex 301.9338073730469 7198.3916015625 3500
  endloop
endfacet
facet normal 2.712577731878163e-11 1.198714196480599e-12 1
  outer loop
    vertex 301.9338073730469 7198.3916015625 3500
    vertex 127.8184967041016 2390.267578125 3500
    vertex 166.1968078613281 2261.89990234375 3500
  endloop
endfacet
facet normal 2.712577731878163e-11 1.198714196480599e-12 1
  outer loop
    vertex 301.9338073730469 7198.3916015625 3500
    vertex 166.1968078613281 2261.89990234375 3500
    vertex 185.7561340332031 2196.47802734375 3500
  endloop
endfacet
facet normal 2.712577731878163e-11 1.198714196480599e-12 1
  outer loop
    vertex 301.9338073730469 7198.3916015625 3500
    vertex 185.7561340332031 2196.47802734375 3500
    vertex 256.0628356933594 2006.948364257812 3500
  endloop
endfacet
facet normal 2.712577731878163e-11 1.198714196480599e-12 1
  outer loop
    vertex 301.9338073730469 7198.3916015625 3500
    vertex 256.0628356933594 2006.948364257812 3500
    vertex 338.4375305175781 1822.490112304688 3500
  endloop
endfacet
facet normal 2.712577731878163e-11 1.198714196480599e-12 1
  outer loop
    vertex 301.9338073730469 7198.3916015625 3500
    vertex 338.4375305175781 1822.490112304688 3500
    vertex 304.3367614746094 7221.8330078125 3500
  endloop
endfacet
facet normal 2.712577731878163e-11 1.198714196480599e-12 1
  outer loop
    vertex 304.3367614746094 7221.8330078125 3500
    vertex 338.4375305175781 1822.490112304688 3500
    vertex 641.3047485351562 9214.142578125 3500
  endloop
endfacet
facet normal 2.712577731878163e-11 1.198714196480599e-12 1
  outer loop
    vertex 641.3047485351562 9214.142578125 3500
    vertex 338.4375305175781 1822.490112304688 3500
    vertex 432.5274047851562 1643.893432617188 3500
  endloop
endfacet
facet normal 2.712577731878163e-11 1.198714196480599e-12 1
  outer loop
    vertex 641.3047485351562 9214.142578125 3500
    vertex 432.5274047851562 1643.893432617188 3500
    vertex 537.9295043945312 1471.9228515625 3500
  endloop
endfacet
facet normal 2.712577731878163e-11 1.198714196480599e-12 1
  outer loop
    vertex 641.3047485351562 9214.142578125 3500
    vertex 537.9295043945312 1471.9228515625 3500
    vertex 601.6614379882812 1381.689819335938 3500
  endloop
endfacet
facet normal 2.712577731878163e-11 1.198714196480599e-12 1
  outer loop
    vertex 641.3047485351562 9214.142578125 3500
    vertex 601.6614379882812 1381.689819335938 3500
    vertex 654.1924438476562 1307.315185546875 3500
  endloop
endfacet
facet normal 2.712577731878163e-11 1.198714196480599e-12 1
  outer loop
    vertex 641.3047485351562 9214.142578125 3500
    vertex 654.1924438476562 1307.315185546875 3500
    vertex 980.4816284179688 10643.48046875 3500
  endloop
endfacet
facet normal 2.712577731878163e-11 1.198714196480599e-12 1
  outer loop
    vertex 980.4816284179688 10643.48046875 3500
    vertex 654.1924438476562 1307.315185546875 3500
    vertex 780.8182983398438 1150.775268554688 3500
  endloop
endfacet
facet normal 2.712577731878163e-11 1.198714196480599e-12 1
  outer loop
    vertex 980.4816284179688 10643.48046875 3500
    vertex 780.8182983398438 1150.775268554688 3500
    vertex 917.2647705078125 1002.973571777344 3500
  endloop
endfacet
facet normal 2.712577731878163e-11 1.198714196480599e-12 1
  outer loop
    vertex 980.4816284179688 10643.48046875 3500
    vertex 917.2647705078125 1002.973571777344 3500
    vertex 1062.947509765625 864.5430297851562 3500
  endloop
endfacet
facet normal 2.712577731878163e-11 1.198714196480599e-12 1
  outer loop
    vertex 980.4816284179688 10643.48046875 3500
    vertex 1062.947509765625 864.5430297851562 3500
    vertex 1107.657836914062 11179.41796875 3500
  endloop
endfacet
facet normal 2.712577731878163e-11 1.198714196480599e-12 1
  outer loop
    vertex 1107.657836914062 11179.41796875 3500
    vertex 1062.947509765625 864.5430297851562 3500
    vertex 1217.242553710938 736.0765380859375 3500
  endloop
endfacet
facet normal 2.712577731878163e-11 1.198714196480599e-12 1
  outer loop
    vertex 1107.657836914062 11179.41796875 3500
    vertex 1217.242553710938 736.0765380859375 3500
    vertex 1563.625854492188 12661.40234375 3500
  endloop
endfacet
facet normal 2.712577731878163e-11 1.198714196480599e-12 1
  outer loop
    vertex 1563.625854492188 12661.40234375 3500
    vertex 1217.242553710938 736.0765380859375 3500
    vertex 1288.4697265625 684.2947387695312 3500
  endloop
endfacet
facet normal 2.712577731878163e-11 1.198714196480599e-12 1
  outer loop
    vertex 1563.625854492188 12661.40234375 3500
    vertex 1288.4697265625 684.2947387695312 3500
    vertex 1379.489135742188 618.1242065429688 3500
  endloop
endfacet
facet normal 2.712577731878163e-11 1.198714196480599e-12 1
  outer loop
    vertex 1563.625854492188 12661.40234375 3500
    vertex 1379.489135742188 618.1242065429688 3500
    vertex 1548.992309570312 511.1912536621094 3500
  endloop
endfacet
facet normal 2.712577731878163e-11 1.198714196480599e-12 1
  outer loop
    vertex 1563.625854492188 12661.40234375 3500
    vertex 1548.992309570312 511.1912536621094 3500
    vertex 1725.0263671875 415.7356262207031 3500
  endloop
endfacet
facet normal 2.712577731878163e-11 1.198714196480599e-12 1
  outer loop
    vertex 1563.625854492188 12661.40234375 3500
    vertex 1725.0263671875 415.7356262207031 3500
    vertex 1701.345825195312 13109.01953125 3500
  endloop
endfacet
facet normal 2.712577731878163e-11 1.198714196480599e-12 1
  outer loop
    vertex 1701.345825195312 13109.01953125 3500
    vertex 1725.0263671875 415.7356262207031 3500
    vertex 2419.759033203125 14994.46484375 3500
  endloop
endfacet
facet normal 2.712577731878163e-11 1.198714196480599e-12 1
  outer loop
    vertex 2419.759033203125 14994.46484375 3500
    vertex 1725.0263671875 415.7356262207031 3500
    vertex 1906.837158203125 332.1661376953125 3500
  endloop
endfacet
facet normal 2.712577731878163e-11 1.198714196480599e-12 1
  outer loop
    vertex 2419.759033203125 14994.46484375 3500
    vertex 1906.837158203125 332.1661376953125 3500
    vertex 2093.646240234375 260.8406982421875 3500
  endloop
endfacet
facet normal 2.712577731878163e-11 1.198714196480599e-12 1
  outer loop
    vertex 2419.759033203125 14994.46484375 3500
    vertex 2093.646240234375 260.8406982421875 3500
    vertex 2155.90966796875 241.6812286376953 3500
  endloop
endfacet
facet normal 2.712577731878163e-11 1.198714196480599e-12 1
  outer loop
    vertex 2419.759033203125 14994.46484375 3500
    vertex 2155.90966796875 241.6812286376953 3500
    vertex 2233.49755859375 217.8705749511719 3500
  endloop
endfacet
facet normal 2.712577731878163e-11 1.198714196480599e-12 1
  outer loop
    vertex 2419.759033203125 14994.46484375 3500
    vertex 2233.49755859375 217.8705749511719 3500
    vertex 2311.685791015625 196.1767730712891 3500
  endloop
endfacet
facet normal 2.712577731878163e-11 1.198714196480599e-12 1
  outer loop
    vertex 2419.759033203125 14994.46484375 3500
    vertex 2311.685791015625 196.1767730712891 3500
    vertex 2390.4189453125 176.6153869628906 3500
  endloop
endfacet
facet normal 2.712577731878163e-11 1.198714196480599e-12 1
  outer loop
    vertex 2419.759033203125 14994.46484375 3500
    vertex 2390.4189453125 176.6153869628906 3500
    vertex 2469.64013671875 159.2004699707031 3500
  endloop
endfacet
facet normal 2.712577731878163e-11 1.198714196480599e-12 1
  outer loop
    vertex 2419.759033203125 14994.46484375 3500
    vertex 2469.64013671875 159.2004699707031 3500
    vertex 2464.689697265625 15112.3837890625 3500
  endloop
endfacet
facet normal 2.712577731878163e-11 1.198714196480599e-12 1
  outer loop
    vertex 2464.689697265625 15112.3837890625 3500
    vertex 2469.64013671875 159.2004699707031 3500
    vertex 2523.906005859375 15112.3837890625 3500
  endloop
endfacet
facet normal 2.712577731878163e-11 1.198714196480599e-12 1
  outer loop
    vertex 2523.906005859375 15112.3837890625 3500
    vertex 2469.64013671875 159.2004699707031 3500
    vertex 2549.292724609375 143.9445037841797 3500
  endloop
endfacet
facet normal 2.712577731878163e-11 1.198714196480599e-12 1
  outer loop
    vertex 2523.906005859375 15112.3837890625 3500
    vertex 2549.292724609375 143.9445037841797 3500
    vertex 3373.906005859375 15112.3837890625 3500
  endloop
endfacet
facet normal 2.712577731878163e-11 1.198714196480599e-12 1
  outer loop
    vertex 3373.906005859375 15112.3837890625 3500
    vertex 2549.292724609375 143.9445037841797 3500
    vertex 2629.3193359375 130.8584442138672 3500
  endloop
endfacet
facet normal 2.712577731878163e-11 1.198714196480599e-12 1
  outer loop
    vertex 3373.906005859375 15112.3837890625 3500
    vertex 2629.3193359375 130.8584442138672 3500
    vertex 2709.66259765625 119.95166015625 3500
  endloop
endfacet
facet normal 2.712577731878163e-11 1.198714196480599e-12 1
  outer loop
    vertex 3373.906005859375 15112.3837890625 3500
    vertex 2709.66259765625 119.95166015625 3500
    vertex 2790.26513671875 111.2319946289062 3500
  endloop
endfacet
facet normal 2.712577731878163e-11 1.198714196480599e-12 1
  outer loop
    vertex 3373.906005859375 15112.3837890625 3500
    vertex 2790.26513671875 111.2319946289062 3500
    vertex 2871.06884765625 104.705696105957 3500
  endloop
endfacet
facet normal 2.712577731878163e-11 1.198714196480599e-12 1
  outer loop
    vertex 3373.906005859375 15112.3837890625 3500
    vertex 2871.06884765625 104.705696105957 3500
    vertex 2952.01611328125 100.3774490356445 3500
  endloop
endfacet
facet normal 2.712577731878163e-11 1.198714196480599e-12 1
  outer loop
    vertex 3373.906005859375 15112.3837890625 3500
    vertex 2952.01611328125 100.3774490356445 3500
    vertex 3033.04833984375 98.25035858154297 3500
  endloop
endfacet
facet normal 2.712577731878163e-11 1.198714196480599e-12 1
  outer loop
    vertex 3373.906005859375 15112.3837890625 3500
    vertex 3033.04833984375 98.25035858154297 3500
    vertex 3114.107666015625 98.32594299316406 3500
  endloop
endfacet
facet normal 2.712577731878163e-11 1.198714196480599e-12 1
  outer loop
    vertex 3373.906005859375 15112.3837890625 3500
    vertex 3114.107666015625 98.32594299316406 3500
    vertex 3998.323974609375 135.0799102783203 3500
  endloop
endfacet
facet normal 2.712577731878163e-11 1.198714196480599e-12 1
  outer loop
    vertex 3373.906005859375 15112.3837890625 3500
    vertex 3998.323974609375 135.0799102783203 3500
    vertex 8768.1171875 15112.3837890625 3500
  endloop
endfacet
facet normal 2.712577731878163e-11 1.198714196480599e-12 1
  outer loop
    vertex 8768.1171875 15112.3837890625 3500
    vertex 3998.323974609375 135.0799102783203 3500
    vertex 4918.0458984375 235.1131591796875 3500
  endloop
endfacet
facet normal 2.712577731878163e-11 1.198714196480599e-12 1
  outer loop
    vertex 8768.1171875 15112.3837890625 3500
    vertex 4918.0458984375 235.1131591796875 3500
    vertex 5829.287109375 396.3294372558594 3500
  endloop
endfacet
facet normal 2.712577731878163e-11 1.198714196480599e-12 1
  outer loop
    vertex 8768.1171875 15112.3837890625 3500
    vertex 5829.287109375 396.3294372558594 3500
    vertex 5899.22998046875 413.58154296875 3500
  endloop
endfacet
facet normal 2.712577731878163e-11 1.198714196480599e-12 1
  outer loop
    vertex 8768.1171875 15112.3837890625 3500
    vertex 5899.22998046875 413.58154296875 3500
    vertex 6728.09765625 618.0299682617188 3500
  endloop
endfacet
facet normal 2.712577731878163e-11 1.198714196480599e-12 1
  outer loop
    vertex 8768.1171875 15112.3837890625 3500
    vertex 6728.09765625 618.0299682617188 3500
    vertex 7610.58203125 899.2538452148438 3500
  endloop
endfacet
facet normal 2.712577731878163e-11 1.198714196480599e-12 1
  outer loop
    vertex 8768.1171875 15112.3837890625 3500
    vertex 7610.58203125 899.2538452148438 3500
    vertex 7874.29833984375 1003.08740234375 3500
  endloop
endfacet
facet normal 2.712577731878163e-11 1.198714196480599e-12 1
  outer loop
    vertex 8768.1171875 15112.3837890625 3500
    vertex 7874.29833984375 1003.08740234375 3500
    vertex 8472.9150390625 1238.782104492188 3500
  endloop
endfacet
facet normal 2.712577731878163e-11 1.198714196480599e-12 1
  outer loop
    vertex 8768.1171875 15112.3837890625 3500
    vertex 8472.9150390625 1238.782104492188 3500
    vertex 8768.1171875 14362.3837890625 3500
  endloop
endfacet
facet normal 2.712577731878163e-11 1.198714196480599e-12 1
  outer loop
    vertex 8768.1171875 14362.3837890625 3500
    vertex 8472.9150390625 1238.782104492188 3500
    vertex 9311.3603515625 1635.143188476562 3500
  endloop
endfacet
facet normal 2.712577731878163e-11 1.198714196480599e-12 1
  outer loop
    vertex 8768.1171875 14362.3837890625 3500
    vertex 9311.3603515625 1635.143188476562 3500
    vertex 11003.091796875 14362.3837890625 3500
  endloop
endfacet
facet normal 2.712577731878163e-11 1.198714196480599e-12 1
  outer loop
    vertex 11003.091796875 14362.3837890625 3500
    vertex 9311.3603515625 1635.143188476562 3500
    vertex 10122.28125 2086.619140625 3500
  endloop
endfacet
facet normal 2.712577731878163e-11 1.198714196480599e-12 1
  outer loop
    vertex 11003.091796875 14362.3837890625 3500
    vertex 10122.28125 2086.619140625 3500
    vertex 10902.1650390625 2591.2529296875 3500
  endloop
endfacet
facet normal 2.712577731878163e-11 1.198714196480599e-12 1
  outer loop
    vertex 11003.091796875 14362.3837890625 3500
    vertex 10902.1650390625 2591.2529296875 3500
    vertex 10992.8251953125 2649.915771484375 3500
  endloop
endfacet
facet normal 2.712577731878163e-11 1.198714196480599e-12 1
  outer loop
    vertex 11003.091796875 14362.3837890625 3500
    vertex 10992.8251953125 2649.915771484375 3500
    vertex 11003.091796875 5254.04150390625 3500
  endloop
endfacet
facet normal 2.712577731878163e-11 1.198714196480599e-12 1
  outer loop
    vertex 11003.091796875 5254.04150390625 3500
    vertex 10992.8251953125 2649.915771484375 3500
    vertex 11003.091796875 2649.915771484375 3500
  endloop
endfacet
facet normal 2.712577731878163e-11 1.198714196480599e-12 1
  outer loop
    vertex 11003.091796875 14362.3837890625 3500
    vertex 11003.091796875 9278.5732421875 3500
    vertex 11003.091796875 12119.3857421875 3500
  endloop
endfacet
facet normal 2.712577731878163e-11 1.198714196480599e-12 1
  outer loop
    vertex 11003.091796875 9278.5732421875 3500
    vertex 11003.091796875 14362.3837890625 3500
    vertex 11003.091796875 5254.04150390625 3500
  endloop
endfacet
facet normal 2.712577731878163e-11 1.198714196480599e-12 1
  outer loop
    vertex 11003.091796875 9278.5732421875 3500
    vertex 11003.091796875 5254.04150390625 3500
    vertex 11003.091796875 7858.16748046875 3500
  endloop
endfacet
facet normal -2.712577731878163e-11 -1.198714196480599e-12 -1
  outer loop
    vertex 25.48269653320312 3234.072021484375 3100
    vertex 24.66030311584473 3193.09814453125 3100
    vertex 23.97450828552246 3193.08447265625 3100
  endloop
endfacet
facet normal -2.712577731878163e-11 -1.198714196480599e-12 -1
  outer loop
    vertex 24.66030311584473 3193.09814453125 3100
    vertex 25.48269653320312 3234.072021484375 3100
    vertex 25.47604942321777 3151.001220703125 3100
  endloop
endfacet
facet normal -2.712577731878163e-11 -1.198714196480599e-12 -1
  outer loop
    vertex 25.47604942321777 3151.001220703125 3100
    vertex 30.43038558959961 2988.824951171875 3100
    vertex 25.20287322998047 3150.995849609375 3100
  endloop
endfacet
facet normal -2.712577731878163e-11 -1.198714196480599e-12 -1
  outer loop
    vertex 30.43038558959961 2988.824951171875 3100
    vertex 25.47604942321777 3151.001220703125 3100
    vertex 25.48269653320312 3234.072021484375 3100
  endloop
endfacet
facet normal -2.712577731878163e-11 -1.198714196480599e-12 -1
  outer loop
    vertex 30.43038558959961 2988.824951171875 3100
    vertex 25.48269653320312 3234.072021484375 3100
    vertex 94.33270263671875 5105.18994140625 3100
  endloop
endfacet
facet normal -2.712577731878163e-11 -1.198714196480599e-12 -1
  outer loop
    vertex 30.43038558959961 2988.824951171875 3100
    vertex 94.33270263671875 5105.18994140625 3100
    vertex 49.98896789550781 2787.291015625 3100
  endloop
endfacet
facet normal -2.712577731878163e-11 -1.198714196480599e-12 -1
  outer loop
    vertex 49.98896789550781 2787.291015625 3100
    vertex 94.33270263671875 5105.18994140625 3100
    vertex 82.49808502197266 2587.486572265625 3100
  endloop
endfacet
facet normal -2.712577731878163e-11 -1.198714196480599e-12 -1
  outer loop
    vertex 82.49808502197266 2587.486572265625 3100
    vertex 94.33270263671875 5105.18994140625 3100
    vertex 127.8184967041016 2390.267578125 3100
  endloop
endfacet
facet normal -2.712577731878163e-11 -1.198714196480599e-12 -1
  outer loop
    vertex 127.8184967041016 2390.267578125 3100
    vertex 94.33270263671875 5105.18994140625 3100
    vertex 98.23522186279297 5211.24755859375 3100
  endloop
endfacet
facet normal -2.712577731878163e-11 -1.198714196480599e-12 -1
  outer loop
    vertex 127.8184967041016 2390.267578125 3100
    vertex 98.23522186279297 5211.24755859375 3100
    vertex 301.9338073730469 7198.3916015625 3100
  endloop
endfacet
facet normal -2.712577731878163e-11 -1.198714196480599e-12 -1
  outer loop
    vertex 127.8184967041016 2390.267578125 3100
    vertex 301.9338073730469 7198.3916015625 3100
    vertex 166.1968078613281 2261.89990234375 3100
  endloop
endfacet
facet normal -2.712577731878163e-11 -1.198714196480599e-12 -1
  outer loop
    vertex 166.1968078613281 2261.89990234375 3100
    vertex 301.9338073730469 7198.3916015625 3100
    vertex 185.7561340332031 2196.47802734375 3100
  endloop
endfacet
facet normal -2.712577731878163e-11 -1.198714196480599e-12 -1
  outer loop
    vertex 185.7561340332031 2196.47802734375 3100
    vertex 301.9338073730469 7198.3916015625 3100
    vertex 256.0628356933594 2006.948364257812 3100
  endloop
endfacet
facet normal -2.712577731878163e-11 -1.198714196480599e-12 -1
  outer loop
    vertex 256.0628356933594 2006.948364257812 3100
    vertex 301.9338073730469 7198.3916015625 3100
    vertex 338.4375305175781 1822.490112304688 3100
  endloop
endfacet
facet normal -2.712577731878163e-11 -1.198714196480599e-12 -1
  outer loop
    vertex 338.4375305175781 1822.490112304688 3100
    vertex 301.9338073730469 7198.3916015625 3100
    vertex 304.3367614746094 7221.8330078125 3100
  endloop
endfacet
facet normal -2.712577731878163e-11 -1.198714196480599e-12 -1
  outer loop
    vertex 338.4375305175781 1822.490112304688 3100
    vertex 304.3367614746094 7221.8330078125 3100
    vertex 641.3047485351562 9214.142578125 3100
  endloop
endfacet
facet normal -2.712577731878163e-11 -1.198714196480599e-12 -1
  outer loop
    vertex 338.4375305175781 1822.490112304688 3100
    vertex 641.3047485351562 9214.142578125 3100
    vertex 432.5274047851562 1643.893432617188 3100
  endloop
endfacet
facet normal -2.712577731878163e-11 -1.198714196480599e-12 -1
  outer loop
    vertex 432.5274047851562 1643.893432617188 3100
    vertex 641.3047485351562 9214.142578125 3100
    vertex 537.9295043945312 1471.9228515625 3100
  endloop
endfacet
facet normal -2.712577731878163e-11 -1.198714196480599e-12 -1
  outer loop
    vertex 537.9295043945312 1471.9228515625 3100
    vertex 641.3047485351562 9214.142578125 3100
    vertex 601.6614379882812 1381.689819335938 3100
  endloop
endfacet
facet normal -2.712577731878163e-11 -1.198714196480599e-12 -1
  outer loop
    vertex 601.6614379882812 1381.689819335938 3100
    vertex 641.3047485351562 9214.142578125 3100
    vertex 654.1924438476562 1307.315185546875 3100
  endloop
endfacet
facet normal -2.712577731878163e-11 -1.198714196480599e-12 -1
  outer loop
    vertex 654.1924438476562 1307.315185546875 3100
    vertex 641.3047485351562 9214.142578125 3100
    vertex 980.4816284179688 10643.48046875 3100
  endloop
endfacet
facet normal -2.712577731878163e-11 -1.198714196480599e-12 -1
  outer loop
    vertex 654.1924438476562 1307.315185546875 3100
    vertex 980.4816284179688 10643.48046875 3100
    vertex 780.8182983398438 1150.775268554688 3100
  endloop
endfacet
facet normal -2.712577731878163e-11 -1.198714196480599e-12 -1
  outer loop
    vertex 780.8182983398438 1150.775268554688 3100
    vertex 980.4816284179688 10643.48046875 3100
    vertex 917.2647705078125 1002.973571777344 3100
  endloop
endfacet
facet normal -2.712577731878163e-11 -1.198714196480599e-12 -1
  outer loop
    vertex 917.2647705078125 1002.973571777344 3100
    vertex 980.4816284179688 10643.48046875 3100
    vertex 1062.947509765625 864.5430297851562 3100
  endloop
endfacet
facet normal -2.712577731878163e-11 -1.198714196480599e-12 -1
  outer loop
    vertex 1062.947509765625 864.5430297851562 3100
    vertex 980.4816284179688 10643.48046875 3100
    vertex 1107.657836914062 11179.41796875 3100
  endloop
endfacet
facet normal -2.712577731878163e-11 -1.198714196480599e-12 -1
  outer loop
    vertex 1062.947509765625 864.5430297851562 3100
    vertex 1107.657836914062 11179.41796875 3100
    vertex 1217.242553710938 736.0765380859375 3100
  endloop
endfacet
facet normal -2.712577731878163e-11 -1.198714196480599e-12 -1
  outer loop
    vertex 1217.242553710938 736.0765380859375 3100
    vertex 1107.657836914062 11179.41796875 3100
    vertex 1563.625854492188 12661.40234375 3100
  endloop
endfacet
facet normal -2.712577731878163e-11 -1.198714196480599e-12 -1
  outer loop
    vertex 1217.242553710938 736.0765380859375 3100
    vertex 1563.625854492188 12661.40234375 3100
    vertex 1288.4697265625 684.2947387695312 3100
  endloop
endfacet
facet normal -2.712577731878163e-11 -1.198714196480599e-12 -1
  outer loop
    vertex 1288.4697265625 684.2947387695312 3100
    vertex 1563.625854492188 12661.40234375 3100
    vertex 1379.489135742188 618.1242065429688 3100
  endloop
endfacet
facet normal -2.712577731878163e-11 -1.198714196480599e-12 -1
  outer loop
    vertex 1379.489135742188 618.1242065429688 3100
    vertex 1563.625854492188 12661.40234375 3100
    vertex 1548.992309570312 511.1912536621094 3100
  endloop
endfacet
facet normal -2.712577731878163e-11 -1.198714196480599e-12 -1
  outer loop
    vertex 1548.992309570312 511.1912536621094 3100
    vertex 1563.625854492188 12661.40234375 3100
    vertex 1725.0263671875 415.7356262207031 3100
  endloop
endfacet
facet normal -2.712577731878163e-11 -1.198714196480599e-12 -1
  outer loop
    vertex 1725.0263671875 415.7356262207031 3100
    vertex 1563.625854492188 12661.40234375 3100
    vertex 1701.345825195312 13109.01953125 3100
  endloop
endfacet
facet normal -2.712577731878163e-11 -1.198714196480599e-12 -1
  outer loop
    vertex 1725.0263671875 415.7356262207031 3100
    vertex 1701.345825195312 13109.01953125 3100
    vertex 2419.759033203125 14994.46484375 3100
  endloop
endfacet
facet normal -2.712577731878163e-11 -1.198714196480599e-12 -1
  outer loop
    vertex 1725.0263671875 415.7356262207031 3100
    vertex 2419.759033203125 14994.46484375 3100
    vertex 1906.837158203125 332.1661376953125 3100
  endloop
endfacet
facet normal -2.712577731878163e-11 -1.198714196480599e-12 -1
  outer loop
    vertex 1906.837158203125 332.1661376953125 3100
    vertex 2419.759033203125 14994.46484375 3100
    vertex 2093.646240234375 260.8406982421875 3100
  endloop
endfacet
facet normal -2.712577731878163e-11 -1.198714196480599e-12 -1
  outer loop
    vertex 2093.646240234375 260.8406982421875 3100
    vertex 2419.759033203125 14994.46484375 3100
    vertex 2155.90966796875 241.6812286376953 3100
  endloop
endfacet
facet normal -2.712577731878163e-11 -1.198714196480599e-12 -1
  outer loop
    vertex 2155.90966796875 241.6812286376953 3100
    vertex 2419.759033203125 14994.46484375 3100
    vertex 2233.49755859375 217.8705749511719 3100
  endloop
endfacet
facet normal -2.712577731878163e-11 -1.198714196480599e-12 -1
  outer loop
    vertex 2233.49755859375 217.8705749511719 3100
    vertex 2419.759033203125 14994.46484375 3100
    vertex 2311.685791015625 196.1767730712891 3100
  endloop
endfacet
facet normal -2.712577731878163e-11 -1.198714196480599e-12 -1
  outer loop
    vertex 2311.685791015625 196.1767730712891 3100
    vertex 2419.759033203125 14994.46484375 3100
    vertex 2390.4189453125 176.6153869628906 3100
  endloop
endfacet
facet normal -2.712577731878163e-11 -1.198714196480599e-12 -1
  outer loop
    vertex 2390.4189453125 176.6153869628906 3100
    vertex 2419.759033203125 14994.46484375 3100
    vertex 2469.64013671875 159.2004699707031 3100
  endloop
endfacet
facet normal -2.712577731878163e-11 -1.198714196480599e-12 -1
  outer loop
    vertex 2469.64013671875 159.2004699707031 3100
    vertex 2419.759033203125 14994.46484375 3100
    vertex 2464.689697265625 15112.3837890625 3100
  endloop
endfacet
facet normal -2.712577731878163e-11 -1.198714196480599e-12 -1
  outer loop
    vertex 2469.64013671875 159.2004699707031 3100
    vertex 2464.689697265625 15112.3837890625 3100
    vertex 2523.906005859375 15112.3837890625 3100
  endloop
endfacet
facet normal -2.712577731878163e-11 -1.198714196480599e-12 -1
  outer loop
    vertex 2469.64013671875 159.2004699707031 3100
    vertex 2523.906005859375 15112.3837890625 3100
    vertex 2549.292724609375 143.9445037841797 3100
  endloop
endfacet
facet normal -2.712577731878163e-11 -1.198714196480599e-12 -1
  outer loop
    vertex 2549.292724609375 143.9445037841797 3100
    vertex 2523.906005859375 15112.3837890625 3100
    vertex 3373.906005859375 15112.3837890625 3100
  endloop
endfacet
facet normal -2.712577731878163e-11 -1.198714196480599e-12 -1
  outer loop
    vertex 2549.292724609375 143.9445037841797 3100
    vertex 3373.906005859375 15112.3837890625 3100
    vertex 2629.3193359375 130.8584442138672 3100
  endloop
endfacet
facet normal -2.712577731878163e-11 -1.198714196480599e-12 -1
  outer loop
    vertex 2629.3193359375 130.8584442138672 3100
    vertex 3373.906005859375 15112.3837890625 3100
    vertex 2709.66259765625 119.95166015625 3100
  endloop
endfacet
facet normal -2.712577731878163e-11 -1.198714196480599e-12 -1
  outer loop
    vertex 2709.66259765625 119.95166015625 3100
    vertex 3373.906005859375 15112.3837890625 3100
    vertex 2790.26513671875 111.2319946289062 3100
  endloop
endfacet
facet normal -2.712577731878163e-11 -1.198714196480599e-12 -1
  outer loop
    vertex 2790.26513671875 111.2319946289062 3100
    vertex 3373.906005859375 15112.3837890625 3100
    vertex 2871.06884765625 104.705696105957 3100
  endloop
endfacet
facet normal -2.712577731878163e-11 -1.198714196480599e-12 -1
  outer loop
    vertex 2871.06884765625 104.705696105957 3100
    vertex 3373.906005859375 15112.3837890625 3100
    vertex 2952.01611328125 100.3774490356445 3100
  endloop
endfacet
facet normal -2.712577731878163e-11 -1.198714196480599e-12 -1
  outer loop
    vertex 2952.01611328125 100.3774490356445 3100
    vertex 3373.906005859375 15112.3837890625 3100
    vertex 3033.04833984375 98.25035858154297 3100
  endloop
endfacet
facet normal -2.712577731878163e-11 -1.198714196480599e-12 -1
  outer loop
    vertex 3033.04833984375 98.25035858154297 3100
    vertex 3373.906005859375 15112.3837890625 3100
    vertex 3114.107666015625 98.32594299316406 3100
  endloop
endfacet
facet normal -2.712577731878163e-11 -1.198714196480599e-12 -1
  outer loop
    vertex 3114.107666015625 98.32594299316406 3100
    vertex 3373.906005859375 15112.3837890625 3100
    vertex 3998.323974609375 135.0799102783203 3100
  endloop
endfacet
facet normal -2.712577731878163e-11 -1.198714196480599e-12 -1
  outer loop
    vertex 3998.323974609375 135.0799102783203 3100
    vertex 3373.906005859375 15112.3837890625 3100
    vertex 8768.1171875 15112.3837890625 3100
  endloop
endfacet
facet normal -2.712577731878163e-11 -1.198714196480599e-12 -1
  outer loop
    vertex 3998.323974609375 135.0799102783203 3100
    vertex 8768.1171875 15112.3837890625 3100
    vertex 4918.0458984375 235.1131591796875 3100
  endloop
endfacet
facet normal -2.712577731878163e-11 -1.198714196480599e-12 -1
  outer loop
    vertex 4918.0458984375 235.1131591796875 3100
    vertex 8768.1171875 15112.3837890625 3100
    vertex 5829.287109375 396.3294372558594 3100
  endloop
endfacet
facet normal -2.712577731878163e-11 -1.198714196480599e-12 -1
  outer loop
    vertex 5829.287109375 396.3294372558594 3100
    vertex 8768.1171875 15112.3837890625 3100
    vertex 5899.22998046875 413.58154296875 3100
  endloop
endfacet
facet normal -2.712577731878163e-11 -1.198714196480599e-12 -1
  outer loop
    vertex 5899.22998046875 413.58154296875 3100
    vertex 8768.1171875 15112.3837890625 3100
    vertex 6728.09765625 618.0299682617188 3100
  endloop
endfacet
facet normal -2.712577731878163e-11 -1.198714196480599e-12 -1
  outer loop
    vertex 6728.09765625 618.0299682617188 3100
    vertex 8768.1171875 15112.3837890625 3100
    vertex 7610.58203125 899.2538452148438 3100
  endloop
endfacet
facet normal -2.712577731878163e-11 -1.198714196480599e-12 -1
  outer loop
    vertex 7610.58203125 899.2538452148438 3100
    vertex 8768.1171875 15112.3837890625 3100
    vertex 7874.29833984375 1003.08740234375 3100
  endloop
endfacet
facet normal -2.712577731878163e-11 -1.198714196480599e-12 -1
  outer loop
    vertex 7874.29833984375 1003.08740234375 3100
    vertex 8768.1171875 15112.3837890625 3100
    vertex 8472.9150390625 1238.782104492188 3100
  endloop
endfacet
facet normal -2.712577731878163e-11 -1.198714196480599e-12 -1
  outer loop
    vertex 8472.9150390625 1238.782104492188 3100
    vertex 8768.1171875 15112.3837890625 3100
    vertex 8768.1171875 14362.3837890625 3100
  endloop
endfacet
facet normal -2.712577731878163e-11 -1.198714196480599e-12 -1
  outer loop
    vertex 8472.9150390625 1238.782104492188 3100
    vertex 8768.1171875 14362.3837890625 3100
    vertex 9311.3603515625 1635.143188476562 3100
  endloop
endfacet
facet normal -2.712577731878163e-11 -1.198714196480599e-12 -1
  outer loop
    vertex 9311.3603515625 1635.143188476562 3100
    vertex 8768.1171875 14362.3837890625 3100
    vertex 11003.091796875 14362.3837890625 3100
  endloop
endfacet
facet normal -2.712577731878163e-11 -1.198714196480599e-12 -1
  outer loop
    vertex 9311.3603515625 1635.143188476562 3100
    vertex 11003.091796875 14362.3837890625 3100
    vertex 10122.28125 2086.619140625 3100
  endloop
endfacet
facet normal -2.712577731878163e-11 -1.198714196480599e-12 -1
  outer loop
    vertex 10122.28125 2086.619140625 3100
    vertex 11003.091796875 14362.3837890625 3100
    vertex 10902.1650390625 2591.2529296875 3100
  endloop
endfacet
facet normal -2.712577731878163e-11 -1.198714196480599e-12 -1
  outer loop
    vertex 10902.1650390625 2591.2529296875 3100
    vertex 11003.091796875 14362.3837890625 3100
    vertex 10992.8251953125 2649.915771484375 3100
  endloop
endfacet
facet normal -2.712577731878163e-11 -1.198714196480599e-12 -1
  outer loop
    vertex 10992.8251953125 2649.915771484375 3100
    vertex 11003.091796875 14362.3837890625 3100
    vertex 11003.091796875 5254.04150390625 3100
  endloop
endfacet
facet normal -2.712577731878163e-11 -1.198714196480599e-12 -1
  outer loop
    vertex 10992.8251953125 2649.915771484375 3100
    vertex 11003.091796875 5254.04150390625 3100
    vertex 11003.091796875 2649.915771484375 3100
  endloop
endfacet
facet normal -2.712577731878163e-11 -1.198714196480599e-12 -1
  outer loop
    vertex 11003.091796875 14362.3837890625 3100
    vertex 11003.091796875 9278.5732421875 3100
    vertex 11003.091796875 5254.04150390625 3100
  endloop
endfacet
facet normal -2.712577731878163e-11 -1.198714196480599e-12 -1
  outer loop
    vertex 11003.091796875 9278.5732421875 3100
    vertex 11003.091796875 14362.3837890625 3100
    vertex 11003.091796875 12119.3857421875 3100
  endloop
endfacet
facet normal -2.712577731878163e-11 -1.198714196480599e-12 -1
  outer loop
    vertex 11003.091796875 7858.16748046875 3100
    vertex 11003.091796875 5254.04150390625 3100
    vertex 11003.091796875 9278.5732421875 3100
  endloop
endfacet
facet normal 0.2330268323421478 -0.9724702835083008 -5.188573529157914e-12
  outer loop
    vertex 6728.09765625 618.0299682617188 3100
    vertex 5899.22998046875 413.58154296875 3500
    vertex 5899.22998046875 413.58154296875 3100
  endloop
endfacet
facet normal 0.2330268323421478 -0.9724702835083008 -5.188573529157914e-12
  outer loop
    vertex 5899.22998046875 413.58154296875 3500
    vertex 6728.09765625 618.0299682617188 3100
    vertex 6728.09765625 618.0299682617188 3500
  endloop
endfacet
facet normal 0.2330268323421478 -0.9724702835083008 -5.188573529157914e-12
  outer loop
    vertex 5899.22998046875 413.58154296875 3500
    vertex 5829.287109375 396.3294372558594 3100
    vertex 5899.22998046875 413.58154296875 3100
  endloop
endfacet
facet normal 0.2330268323421478 -0.9724702835083008 -5.188573529157914e-12
  outer loop
    vertex 5829.287109375 396.3294372558594 3100
    vertex 5899.22998046875 413.58154296875 3500
    vertex 5829.287109375 396.3294372558594 3500
  endloop
endfacet
facet normal 0.1693889200687408 -0.98554927110672 -3.447114772445192e-12
  outer loop
    vertex 5829.287109375 396.3294372558594 3500
    vertex 4918.0458984375 235.1131591796875 3100
    vertex 5829.287109375 396.3294372558594 3100
  endloop
endfacet
facet normal 0.1693889200687408 -0.98554927110672 -3.447114772445192e-12
  outer loop
    vertex 4918.0458984375 235.1131591796875 3100
    vertex 5829.287109375 396.3294372558594 3500
    vertex 4918.0458984375 235.1131591796875 3500
  endloop
endfacet
facet normal 0.1050770729780197 -0.994464099407196 -1.692224593959069e-12
  outer loop
    vertex 4918.0458984375 235.1131591796875 3500
    vertex 3998.323974609375 135.0799102783203 3100
    vertex 4918.0458984375 235.1131591796875 3100
  endloop
endfacet
facet normal 0.1050770729780197 -0.994464099407196 -1.692224593959069e-12
  outer loop
    vertex 3998.323974609375 135.0799102783203 3100
    vertex 4918.0458984375 235.1131591796875 3500
    vertex 3998.323974609375 135.0799102783203 3500
  endloop
endfacet
facet normal 0.04034808278083801 -0.9991856813430786 6.909790529465928e-14
  outer loop
    vertex 3998.323974609375 135.0799102783203 3100
    vertex 3114.107666015625 98.32594299316406 3500
    vertex 3114.107666015625 98.32594299316406 3100
  endloop
endfacet
facet normal 0.04034808278083801 -0.9991856813430786 6.909790529465928e-14
  outer loop
    vertex 3114.107666015625 98.32594299316406 3500
    vertex 3998.323974609375 135.0799102783203 3100
    vertex 3998.323974609375 135.0799102783203 3500
  endloop
endfacet
facet normal 0.0009059278527274728 -0.9999995827674866 1.139944909300805e-12
  outer loop
    vertex 3114.107666015625 98.32594299316406 3500
    vertex 3033.04833984375 98.25035858154297 3100
    vertex 3114.107666015625 98.32594299316406 3100
  endloop
endfacet
facet normal 0.0009059278527274728 -0.9999995827674866 1.139944909300805e-12
  outer loop
    vertex 3033.04833984375 98.25035858154297 3100
    vertex 3114.107666015625 98.32594299316406 3500
    vertex 3033.04833984375 98.25035858154297 3500
  endloop
endfacet
facet normal -0.0254928320646286 -0.9996749758720398 1.855653868412799e-12
  outer loop
    vertex 3033.04833984375 98.25035858154297 3500
    vertex 2952.01611328125 100.3774490356445 3100
    vertex 3033.04833984375 98.25035858154297 3100
  endloop
endfacet
facet normal -0.0254928320646286 -0.9996749758720398 1.855653868412799e-12
  outer loop
    vertex 2952.01611328125 100.3774490356445 3100
    vertex 3033.04833984375 98.25035858154297 3500
    vertex 2952.01611328125 100.3774490356445 3500
  endloop
endfacet
facet normal -0.05187486484646797 -0.9986535906791687 2.570097563589502e-12
  outer loop
    vertex 2952.01611328125 100.3774490356445 3500
    vertex 2871.06884765625 104.705696105957 3100
    vertex 2952.01611328125 100.3774490356445 3100
  endloop
endfacet
facet normal -0.05187486484646797 -0.9986535906791687 2.570097563589502e-12
  outer loop
    vertex 2871.06884765625 104.705696105957 3100
    vertex 2952.01611328125 100.3774490356445 3500
    vertex 2871.06884765625 104.705696105957 3500
  endloop
endfacet
facet normal -0.0782228484749794 -0.9969359040260315 3.282806752130663e-12
  outer loop
    vertex 2871.06884765625 104.705696105957 3500
    vertex 2790.26513671875 111.2319946289062 3100
    vertex 2871.06884765625 104.705696105957 3100
  endloop
endfacet
facet normal -0.0782228484749794 -0.9969359040260315 3.282806752130663e-12
  outer loop
    vertex 2790.26513671875 111.2319946289062 3100
    vertex 2871.06884765625 104.705696105957 3500
    vertex 2790.26513671875 111.2319946289062 3500
  endloop
endfacet
facet normal -0.1045194789767265 -0.9945228099822998 3.993313058697767e-12
  outer loop
    vertex 2790.26513671875 111.2319946289062 3500
    vertex 2709.66259765625 119.95166015625 3100
    vertex 2790.26513671875 111.2319946289062 3100
  endloop
endfacet
facet normal -0.1045194789767265 -0.9945228099822998 3.993313058697767e-12
  outer loop
    vertex 2709.66259765625 119.95166015625 3100
    vertex 2790.26513671875 111.2319946289062 3500
    vertex 2709.66259765625 119.95166015625 3500
  endloop
endfacet
facet normal -0.1307474374771118 -0.9914156794548035 4.701148758473606e-12
  outer loop
    vertex 2709.66259765625 119.95166015625 3500
    vertex 2629.3193359375 130.8584442138672 3100
    vertex 2709.66259765625 119.95166015625 3100
  endloop
endfacet
facet normal -0.1307474374771118 -0.9914156794548035 4.701148758473606e-12
  outer loop
    vertex 2629.3193359375 130.8584442138672 3100
    vertex 2709.66259765625 119.95166015625 3500
    vertex 2629.3193359375 130.8584442138672 3500
  endloop
endfacet
facet normal -0.1568894386291504 -0.9876161813735962 5.405846343481402e-12
  outer loop
    vertex 2629.3193359375 130.8584442138672 3500
    vertex 2549.292724609375 143.9445037841797 3100
    vertex 2629.3193359375 130.8584442138672 3100
  endloop
endfacet
facet normal -0.1568894386291504 -0.9876161813735962 5.405846343481402e-12
  outer loop
    vertex 2549.292724609375 143.9445037841797 3100
    vertex 2629.3193359375 130.8584442138672 3500
    vertex 2549.292724609375 143.9445037841797 3500
  endloop
endfacet
facet normal -0.1829281896352768 -0.9831262826919556 6.106939173106118e-12
  outer loop
    vertex 2549.292724609375 143.9445037841797 3500
    vertex 2469.64013671875 159.2004699707031 3100
    vertex 2549.292724609375 143.9445037841797 3100
  endloop
endfacet
facet normal -0.1829281896352768 -0.9831262826919556 6.106939173106118e-12
  outer loop
    vertex 2469.64013671875 159.2004699707031 3100
    vertex 2549.292724609375 143.9445037841797 3500
    vertex 2469.64013671875 159.2004699707031 3500
  endloop
endfacet
facet normal -0.2088464349508286 -0.9779484272003174 6.803961907775324e-12
  outer loop
    vertex 2469.64013671875 159.2004699707031 3500
    vertex 2390.4189453125 176.6153869628906 3100
    vertex 2469.64013671875 159.2004699707031 3100
  endloop
endfacet
facet normal -0.2088464349508286 -0.9779484272003174 6.803961907775324e-12
  outer loop
    vertex 2390.4189453125 176.6153869628906 3100
    vertex 2469.64013671875 159.2004699707031 3500
    vertex 2390.4189453125 176.6153869628906 3500
  endloop
endfacet
facet normal -0.2346269190311432 -0.9720854759216309 7.496450508959196e-12
  outer loop
    vertex 2390.4189453125 176.6153869628906 3500
    vertex 2311.685791015625 196.1767730712891 3100
    vertex 2390.4189453125 176.6153869628906 3100
  endloop
endfacet
facet normal -0.2346269190311432 -0.9720854759216309 7.496450508959196e-12
  outer loop
    vertex 2311.685791015625 196.1767730712891 3100
    vertex 2390.4189453125 176.6153869628906 3500
    vertex 2311.685791015625 196.1767730712891 3500
  endloop
endfacet
facet normal -0.2602524161338806 -0.9655405879020691 8.18394050444704e-12
  outer loop
    vertex 2311.685791015625 196.1767730712891 3500
    vertex 2233.49755859375 217.8705749511719 3100
    vertex 2311.685791015625 196.1767730712891 3100
  endloop
endfacet
facet normal -0.2602524161338806 -0.9655405879020691 8.18394050444704e-12
  outer loop
    vertex 2233.49755859375 217.8705749511719 3100
    vertex 2311.685791015625 196.1767730712891 3500
    vertex 2233.49755859375 217.8705749511719 3500
  endloop
endfacet
facet normal -0.2857057750225067 -0.9583173990249634 8.865970457794248e-12
  outer loop
    vertex 2233.49755859375 217.8705749511719 3500
    vertex 2155.90966796875 241.6812286376953 3100
    vertex 2233.49755859375 217.8705749511719 3100
  endloop
endfacet
facet normal -0.2857057750225067 -0.9583173990249634 8.865970457794248e-12
  outer loop
    vertex 2155.90966796875 241.6812286376953 3100
    vertex 2233.49755859375 217.8705749511719 3500
    vertex 2155.90966796875 241.6812286376953 3500
  endloop
endfacet
facet normal -0.2864140868186951 -0.9581059217453003 8.884937924280578e-12
  outer loop
    vertex 2155.90966796875 241.6812286376953 3500
    vertex 2093.646240234375 260.8406982421875 3100
    vertex 2155.90966796875 241.6812286376953 3100
  endloop
endfacet
facet normal -0.2864140868186951 -0.9581059217453003 8.884937924280578e-12
  outer loop
    vertex 2093.646240234375 260.8406982421875 3100
    vertex 2155.90966796875 241.6812286376953 3500
    vertex 2093.646240234375 260.8406982421875 3500
  endloop
endfacet
facet normal -0.3477656245231628 -0.937581479549408 1.052524473826866e-11
  outer loop
    vertex 2093.646240234375 260.8406982421875 3500
    vertex 1906.837158203125 332.1661376953125 3100
    vertex 2093.646240234375 260.8406982421875 3100
  endloop
endfacet
facet normal -0.3477656245231628 -0.937581479549408 1.052524473826866e-11
  outer loop
    vertex 1906.837158203125 332.1661376953125 3100
    vertex 2093.646240234375 260.8406982421875 3500
    vertex 1906.837158203125 332.1661376953125 3500
  endloop
endfacet
facet normal -0.407734602689743 -0.9131004810333252 1.21234411398774e-11
  outer loop
    vertex 1906.837158203125 332.1661376953125 3500
    vertex 1725.0263671875 415.7356262207031 3100
    vertex 1906.837158203125 332.1661376953125 3100
  endloop
endfacet
facet normal -0.407734602689743 -0.9131004810333252 1.21234411398774e-11
  outer loop
    vertex 1725.0263671875 415.7356262207031 3100
    vertex 1906.837158203125 332.1661376953125 3500
    vertex 1725.0263671875 415.7356262207031 3500
  endloop
endfacet
facet normal -0.4660736620426178 -0.8847458958625793 1.367291436321638e-11
  outer loop
    vertex 1725.0263671875 415.7356262207031 3500
    vertex 1548.992309570312 511.1912536621094 3100
    vertex 1725.0263671875 415.7356262207031 3100
  endloop
endfacet
facet normal -0.4660736620426178 -0.8847458958625793 1.367291436321638e-11
  outer loop
    vertex 1548.992309570312 511.1912536621094 3100
    vertex 1725.0263671875 415.7356262207031 3500
    vertex 1548.992309570312 511.1912536621094 3500
  endloop
endfacet
facet normal -0.5225381255149841 -0.8526158928871155 1.516714184801593e-11
  outer loop
    vertex 1548.992309570312 511.1912536621094 3500
    vertex 1379.489135742188 618.1242065429688 3100
    vertex 1548.992309570312 511.1912536621094 3100
  endloop
endfacet
facet normal -0.5225381255149841 -0.8526158928871155 1.516714184801593e-11
  outer loop
    vertex 1379.489135742188 618.1242065429688 3100
    vertex 1548.992309570312 511.1912536621094 3500
    vertex 1379.489135742188 618.1242065429688 3500
  endloop
endfacet
facet normal -0.576886773109436 -0.8168241381645203 1.659970945422362e-11
  outer loop
    vertex 1379.489135742188 618.1242065429688 3500
    vertex 1288.4697265625 684.2947387695312 3100
    vertex 1379.489135742188 618.1242065429688 3100
  endloop
endfacet
facet normal -0.576886773109436 -0.8168241381645203 1.659970945422362e-11
  outer loop
    vertex 1288.4697265625 684.2947387695312 3100
    vertex 1379.489135742188 618.1242065429688 3500
    vertex 1288.4697265625 684.2947387695312 3500
  endloop
endfacet
facet normal -0.576886773109436 -0.8168241381645203 1.659970945422362e-11
  outer loop
    vertex 1288.4697265625 684.2947387695312 3100
    vertex 1217.242553710938 736.0765380859375 3500
    vertex 1217.242553710938 736.0765380859375 3100
  endloop
endfacet
facet normal -0.576886773109436 -0.8168241381645203 1.659970945422362e-11
  outer loop
    vertex 1217.242553710938 736.0765380859375 3500
    vertex 1288.4697265625 684.2947387695312 3100
    vertex 1288.4697265625 684.2947387695312 3500
  endloop
endfacet
facet normal -0.6288826465606689 -0.7775002121925354 1.796434528911206e-11
  outer loop
    vertex 1217.242553710938 736.0765380859375 3500
    vertex 1062.947509765625 864.5430297851562 3100
    vertex 1217.242553710938 736.0765380859375 3100
  endloop
endfacet
facet normal -0.6288826465606689 -0.7775002121925354 1.796434528911206e-11
  outer loop
    vertex 1062.947509765625 864.5430297851562 3100
    vertex 1217.242553710938 736.0765380859375 3500
    vertex 1062.947509765625 864.5430297851562 3500
  endloop
endfacet
facet normal -0.6782945394515991 -0.7347900867462158 1.925494486076929e-11
  outer loop
    vertex 1062.947509765625 864.5430297851562 3500
    vertex 917.2647705078125 1002.973571777344 3100
    vertex 1062.947509765625 864.5430297851562 3100
  endloop
endfacet
facet normal -0.6782945394515991 -0.7347900867462158 1.925494486076929e-11
  outer loop
    vertex 917.2647705078125 1002.973571777344 3100
    vertex 1062.947509765625 864.5430297851562 3500
    vertex 917.2647705078125 1002.973571777344 3500
  endloop
endfacet
facet normal -0.7248979806900024 -0.6888562440872192 2.04656083746535e-11
  outer loop
    vertex 917.2647705078125 1002.973571777344 3500
    vertex 780.8182983398438 1150.775268554688 3100
    vertex 917.2647705078125 1002.973571777344 3100
  endloop
endfacet
facet normal -0.7248979806900024 -0.6888562440872192 2.04656083746535e-11
  outer loop
    vertex 780.8182983398438 1150.775268554688 3100
    vertex 917.2647705078125 1002.973571777344 3500
    vertex 780.8182983398438 1150.775268554688 3500
  endloop
endfacet
facet normal -0.7684767842292786 -0.6398776769638062 2.159067889750954e-11
  outer loop
    vertex 780.8182983398438 1150.775268554688 3500
    vertex 654.1924438476562 1307.315185546875 3100
    vertex 780.8182983398438 1150.775268554688 3100
  endloop
endfacet
facet normal -0.7684767842292786 -0.6398776769638062 2.159067889750954e-11
  outer loop
    vertex 654.1924438476562 1307.315185546875 3100
    vertex 780.8182983398438 1150.775268554688 3500
    vertex 654.1924438476562 1307.315185546875 3500
  endloop
endfacet
facet normal -0.8088244199752808 -0.5880501866340637 2.262478746017926e-11
  outer loop
    vertex 654.1924438476562 1307.315185546875 3500
    vertex 601.6614379882812 1381.689819335938 3100
    vertex 654.1924438476562 1307.315185546875 3100
  endloop
endfacet
facet normal -0.8088244199752808 -0.5880501866340637 2.262478746017926e-11
  outer loop
    vertex 601.6614379882812 1381.689819335938 3100
    vertex 654.1924438476562 1307.315185546875 3500
    vertex 601.6614379882812 1381.689819335938 3500
  endloop
endfacet
facet normal -0.8088244199752808 -0.5880501866340637 2.262478746017926e-11
  outer loop
    vertex 601.6614379882812 1381.689819335938 3500
    vertex 537.9295043945312 1471.9228515625 3100
    vertex 601.6614379882812 1381.689819335938 3100
  endloop
endfacet
facet normal -0.8088244199752808 -0.5880501866340637 2.262478746017926e-11
  outer loop
    vertex 537.9295043945312 1471.9228515625 3100
    vertex 601.6614379882812 1381.689819335938 3500
    vertex 537.9295043945312 1471.9228515625 3500
  endloop
endfacet
facet normal -0.8457459211349487 -0.533585786819458 2.356288775207105e-11
  outer loop
    vertex 537.9295043945312 1471.9228515625 3500
    vertex 432.5274047851562 1643.893432617188 3100
    vertex 537.9295043945312 1471.9228515625 3100
  endloop
endfacet
facet normal -0.8457459211349487 -0.533585786819458 2.356288775207105e-11
  outer loop
    vertex 432.5274047851562 1643.893432617188 3100
    vertex 537.9295043945312 1471.9228515625 3500
    vertex 432.5274047851562 1643.893432617188 3500
  endloop
endfacet
facet normal -0.8790593147277832 -0.4767123460769653 2.440030816286409e-11
  outer loop
    vertex 432.5274047851562 1643.893432617188 3500
    vertex 338.4375305175781 1822.490112304688 3100
    vertex 432.5274047851562 1643.893432617188 3100
  endloop
endfacet
facet normal -0.8790593147277832 -0.4767123460769653 2.440030816286409e-11
  outer loop
    vertex 338.4375305175781 1822.490112304688 3100
    vertex 432.5274047851562 1643.893432617188 3500
    vertex 338.4375305175781 1822.490112304688 3500
  endloop
endfacet
facet normal -0.908597469329834 -0.4176728427410126 2.51328020894892e-11
  outer loop
    vertex 338.4375305175781 1822.490112304688 3500
    vertex 256.0628356933594 2006.948364257812 3100
    vertex 338.4375305175781 1822.490112304688 3100
  endloop
endfacet
facet normal -0.908597469329834 -0.4176728427410126 2.51328020894892e-11
  outer loop
    vertex 256.0628356933594 2006.948364257812 3100
    vertex 338.4375305175781 1822.490112304688 3500
    vertex 256.0628356933594 2006.948364257812 3500
  endloop
endfacet
facet normal -0.9342096447944641 -0.3567244410514832 2.575657569170442e-11
  outer loop
    vertex 256.0628356933594 2006.948364257812 3500
    vertex 185.7561340332031 2196.47802734375 3100
    vertex 256.0628356933594 2006.948364257812 3100
  endloop
endfacet
facet normal -0.9342096447944641 -0.3567244410514832 2.575657569170442e-11
  outer loop
    vertex 185.7561340332031 2196.47802734375 3100
    vertex 256.0628356933594 2006.948364257812 3500
    vertex 185.7561340332031 2196.47802734375 3500
  endloop
endfacet
facet normal -0.9557632207870483 -0.294137179851532 2.626834860741667e-11
  outer loop
    vertex 185.7561340332031 2196.47802734375 3500
    vertex 166.1968078613281 2261.89990234375 3100
    vertex 185.7561340332031 2196.47802734375 3100
  endloop
endfacet
facet normal -0.9557632207870483 -0.294137179851532 2.626834860741667e-11
  outer loop
    vertex 166.1968078613281 2261.89990234375 3100
    vertex 185.7561340332031 2196.47802734375 3500
    vertex 166.1968078613281 2261.89990234375 3500
  endloop
endfacet
facet normal -0.9557632207870483 -0.294137179851532 2.626834860741667e-11
  outer loop
    vertex 166.1968078613281 2261.89990234375 3500
    vertex 127.8184967041016 2390.267578125 3100
    vertex 166.1968078613281 2261.89990234375 3100
  endloop
endfacet
facet normal -0.9557632207870483 -0.294137179851532 2.626834860741667e-11
  outer loop
    vertex 127.8184967041016 2390.267578125 3100
    vertex 166.1968078613281 2261.89990234375 3500
    vertex 127.8184967041016 2390.267578125 3500
  endloop
endfacet
facet normal -0.9731451272964478 -0.2301925271749496 2.666538170825739e-11
  outer loop
    vertex 127.8184967041016 2390.267578125 3500
    vertex 82.49808502197266 2587.486572265625 3100
    vertex 127.8184967041016 2390.267578125 3100
  endloop
endfacet
facet normal -0.9731451272964478 -0.2301925271749496 2.666538170825739e-11
  outer loop
    vertex 82.49808502197266 2587.486572265625 3100
    vertex 127.8184967041016 2390.267578125 3500
    vertex 82.49808502197266 2587.486572265625 3500
  endloop
endfacet
facet normal -0.9862631559371948 -0.1651816666126251 2.694551179405202e-11
  outer loop
    vertex 82.49808502197266 2587.486572265625 3500
    vertex 49.98896789550781 2787.291015625 3100
    vertex 82.49808502197266 2587.486572265625 3100
  endloop
endfacet
facet normal -0.9862631559371948 -0.1651816666126251 2.694551179405202e-11
  outer loop
    vertex 49.98896789550781 2787.291015625 3100
    vertex 82.49808502197266 2587.486572265625 3500
    vertex 49.98896789550781 2787.291015625 3500
  endloop
endfacet
facet normal -0.9950472116470337 -0.09940356016159058 2.710718628728959e-11
  outer loop
    vertex 49.98896789550781 2787.291015625 3500
    vertex 30.43038558959961 2988.824951171875 3100
    vertex 49.98896789550781 2787.291015625 3100
  endloop
endfacet
facet normal -0.9950472116470337 -0.09940356016159058 2.710718628728959e-11
  outer loop
    vertex 30.43038558959961 2988.824951171875 3100
    vertex 49.98896789550781 2787.291015625 3500
    vertex 30.43038558959961 2988.824951171875 3500
  endloop
endfacet
facet normal -0.9994499683380127 -0.03316286951303482 2.714947537618695e-11
  outer loop
    vertex 30.43038558959961 2988.824951171875 3500
    vertex 25.20287322998047 3150.995849609375 3100
    vertex 30.43038558959961 2988.824951171875 3100
  endloop
endfacet
facet normal -0.9994499683380127 -0.03316286951303482 2.714947537618695e-11
  outer loop
    vertex 25.20287322998047 3150.995849609375 3100
    vertex 30.43038558959961 2988.824951171875 3500
    vertex 25.20287322998047 3150.995849609375 3500
  endloop
endfacet
facet normal -0.01937429420650005 0.9998123049736023 -6.387579809703781e-13
  outer loop
    vertex 25.20287322998047 3150.995849609375 3500
    vertex 25.47604942321777 3151.001220703125 3100
    vertex 25.20287322998047 3150.995849609375 3100
  endloop
endfacet
facet normal -0.01937429420650005 0.9998123049736023 -6.387579809703781e-13
  outer loop
    vertex 25.47604942321777 3151.001220703125 3100
    vertex 25.20287322998047 3150.995849609375 3500
    vertex 25.47604942321777 3151.001220703125 3500
  endloop
endfacet
facet normal -0.9998010993003845 -0.01994297467172146 2.714360680666772e-11
  outer loop
    vertex 25.47604942321777 3151.001220703125 3500
    vertex 24.66030311584473 3193.09814453125 3100
    vertex 25.47604942321777 3151.001220703125 3100
  endloop
endfacet
facet normal -0.9998010993003845 -0.01994297467172146 2.714360680666772e-11
  outer loop
    vertex 24.66030311584473 3193.09814453125 3100
    vertex 25.47604942321777 3151.001220703125 3500
    vertex 24.66030311584473 3193.09814453125 3500
  endloop
endfacet
facet normal 0.01937429420650005 -0.9998123049736023 6.387579809703781e-13
  outer loop
    vertex 24.66030311584473 3193.09814453125 3500
    vertex 23.97450828552246 3193.08447265625 3100
    vertex 24.66030311584473 3193.09814453125 3100
  endloop
endfacet
facet normal 0.01937429420650005 -0.9998123049736023 6.387579809703781e-13
  outer loop
    vertex 23.97450828552246 3193.08447265625 3100
    vertex 24.66030311584473 3193.09814453125 3500
    vertex 23.97450828552246 3193.08447265625 3500
  endloop
endfacet
facet normal -0.9992834329605103 0.03784952312707901 2.706226388815569e-11
  outer loop
    vertex 23.97450828552246 3193.08447265625 3500
    vertex 25.48269653320312 3234.072021484375 3100
    vertex 23.97450828552246 3193.08447265625 3100
  endloop
endfacet
facet normal -0.9992834329605103 0.03784952312707901 2.706226388815569e-11
  outer loop
    vertex 25.48269653320312 3234.072021484375 3100
    vertex 23.97450828552246 3193.08447265625 3500
    vertex 25.48269653320312 3234.072021484375 3500
  endloop
endfacet
facet normal -0.9992834329605103 0.03784952312707901 2.706226388815569e-11
  outer loop
    vertex 25.48269653320312 3234.072021484375 3500
    vertex 94.33270263671875 5105.18994140625 3100
    vertex 25.48269653320312 3234.072021484375 3100
  endloop
endfacet
facet normal -0.9992834329605103 0.03784952312707901 2.706226388815569e-11
  outer loop
    vertex 94.33270263671875 5105.18994140625 3100
    vertex 25.48269653320312 3234.072021484375 3500
    vertex 94.33270263671875 5105.18994140625 3500
  endloop
endfacet
facet normal -0.9992834329605103 0.03784952312707901 2.706226388815569e-11
  outer loop
    vertex 94.33270263671875 5105.18994140625 3500
    vertex 98.23522186279297 5211.24755859375 3100
    vertex 94.33270263671875 5105.18994140625 3100
  endloop
endfacet
facet normal -0.9992834329605103 0.03784952312707901 2.706226388815569e-11
  outer loop
    vertex 98.23522186279297 5211.24755859375 3100
    vertex 94.33270263671875 5105.18994140625 3500
    vertex 98.23522186279297 5211.24755859375 3500
  endloop
endfacet
facet normal -0.9944790005683899 0.1049357205629349 2.685381604583537e-11
  outer loop
    vertex 98.23522186279297 5211.24755859375 3500
    vertex 301.9338073730469 7198.3916015625 3100
    vertex 98.23522186279297 5211.24755859375 3100
  endloop
endfacet
facet normal -0.9944790005683899 0.1049357205629349 2.685381604583537e-11
  outer loop
    vertex 301.9338073730469 7198.3916015625 3100
    vertex 98.23522186279297 5211.24755859375 3500
    vertex 301.9338073730469 7198.3916015625 3500
  endloop
endfacet
facet normal -0.9944790005683899 0.1049357205629349 2.685381604583537e-11
  outer loop
    vertex 301.9338073730469 7198.3916015625 3500
    vertex 304.3367614746094 7221.8330078125 3100
    vertex 301.9338073730469 7198.3916015625 3100
  endloop
endfacet
facet normal -0.9944790005683899 0.1049357205629349 2.685381604583537e-11
  outer loop
    vertex 304.3367614746094 7221.8330078125 3100
    vertex 301.9338073730469 7198.3916015625 3500
    vertex 304.3367614746094 7221.8330078125 3500
  endloop
endfacet
facet normal -0.9851804971694946 0.1715207099914551 2.652404858249913e-11
  outer loop
    vertex 304.3367614746094 7221.8330078125 3500
    vertex 641.3047485351562 9214.142578125 3100
    vertex 304.3367614746094 7221.8330078125 3100
  endloop
endfacet
facet normal -0.9851804971694946 0.1715207099914551 2.652404858249913e-11
  outer loop
    vertex 641.3047485351562 9214.142578125 3100
    vertex 304.3367614746094 7221.8330078125 3500
    vertex 641.3047485351562 9214.142578125 3500
  endloop
endfacet
facet normal -0.9714393019676208 0.2372881472110748 2.607472050775161e-11
  outer loop
    vertex 641.3047485351562 9214.142578125 3500
    vertex 980.4816284179688 10643.48046875 3100
    vertex 641.3047485351562 9214.142578125 3100
  endloop
endfacet
facet normal -0.9714393019676208 0.2372881472110748 2.607472050775161e-11
  outer loop
    vertex 980.4816284179688 10643.48046875 3100
    vertex 641.3047485351562 9214.142578125 3500
    vertex 980.4816284179688 10643.48046875 3500
  endloop
endfacet
facet normal -0.9714393019676208 0.2372881472110748 2.607472050775161e-11
  outer loop
    vertex 980.4816284179688 10643.48046875 3500
    vertex 1107.657836914062 11179.41796875 3100
    vertex 980.4816284179688 10643.48046875 3100
  endloop
endfacet
facet normal -0.9714393019676208 0.2372881472110748 2.607472050775161e-11
  outer loop
    vertex 1107.657836914062 11179.41796875 3100
    vertex 980.4816284179688 10643.48046875 3500
    vertex 1107.657836914062 11179.41796875 3500
  endloop
endfacet
facet normal -0.9533307552337646 0.3019278347492218 2.550823788305401e-11
  outer loop
    vertex 1107.657836914062 11179.41796875 3500
    vertex 1563.625854492188 12661.40234375 3100
    vertex 1107.657836914062 11179.41796875 3100
  endloop
endfacet
facet normal -0.9533307552337646 0.3019278347492218 2.550823788305401e-11
  outer loop
    vertex 1563.625854492188 12661.40234375 3100
    vertex 1107.657836914062 11179.41796875 3500
    vertex 1563.625854492188 12661.40234375 3500
  endloop
endfacet
facet normal -0.9533307552337646 0.3019278347492218 2.550823788305401e-11
  outer loop
    vertex 1563.625854492188 12661.40234375 3500
    vertex 1701.345825195312 13109.01953125 3100
    vertex 1563.625854492188 12661.40234375 3100
  endloop
endfacet
facet normal -0.9533307552337646 0.3019278347492218 2.550823788305401e-11
  outer loop
    vertex 1701.345825195312 13109.01953125 3100
    vertex 1563.625854492188 12661.40234375 3500
    vertex 1701.345825195312 13109.01953125 3500
  endloop
endfacet
facet normal -0.9309533834457397 0.3651380836963654 2.482762433142494e-11
  outer loop
    vertex 1701.345825195312 13109.01953125 3500
    vertex 2419.759033203125 14994.46484375 3100
    vertex 1701.345825195312 13109.01953125 3100
  endloop
endfacet
facet normal -0.9309533834457397 0.3651380836963654 2.482762433142494e-11
  outer loop
    vertex 2419.759033203125 14994.46484375 3100
    vertex 1701.345825195312 13109.01953125 3500
    vertex 2419.759033203125 14994.46484375 3500
  endloop
endfacet
facet normal -0.9309533834457397 0.3651380836963654 2.482762433142494e-11
  outer loop
    vertex 2419.759033203125 14994.46484375 3500
    vertex 2464.689697265625 15112.3837890625 3100
    vertex 2419.759033203125 14994.46484375 3100
  endloop
endfacet
facet normal -0.9309533834457397 0.3651380836963654 2.482762433142494e-11
  outer loop
    vertex 2464.689697265625 15112.3837890625 3100
    vertex 2419.759033203125 14994.46484375 3500
    vertex 2464.689697265625 15112.3837890625 3500
  endloop
endfacet
facet normal -7.738273563595577e-12 1 -1.164519327322144e-12
  outer loop
    vertex 2464.689697265625 15112.3837890625 3500
    vertex 2523.906005859375 15112.3837890625 3100
    vertex 2464.689697265625 15112.3837890625 3100
  endloop
endfacet
facet normal -7.738273563595577e-12 1 -1.164519327322144e-12
  outer loop
    vertex 2523.906005859375 15112.3837890625 3100
    vertex 2464.689697265625 15112.3837890625 3500
    vertex 2523.906005859375 15112.3837890625 3500
  endloop
endfacet
facet normal 0 1 -1.164519327322144e-12
  outer loop
    vertex 2523.906005859375 15112.3837890625 3500
    vertex 3373.906005859375 15112.3837890625 3100
    vertex 2523.906005859375 15112.3837890625 3100
  endloop
endfacet
facet normal 0 1 -1.164519327322144e-12
  outer loop
    vertex 3373.906005859375 15112.3837890625 3100
    vertex 2523.906005859375 15112.3837890625 3500
    vertex 3373.906005859375 15112.3837890625 3500
  endloop
endfacet
facet normal 0 1 -1.164519327322144e-12
  outer loop
    vertex 3373.906005859375 15112.3837890625 3500
    vertex 8768.1171875 15112.3837890625 3100
    vertex 3373.906005859375 15112.3837890625 3100
  endloop
endfacet
facet normal 0 1 -1.164519327322144e-12
  outer loop
    vertex 8768.1171875 15112.3837890625 3100
    vertex 3373.906005859375 15112.3837890625 3500
    vertex 8768.1171875 15112.3837890625 3500
  endloop
endfacet
facet normal 7.186556037763747e-13 1 -1.164519327322144e-12
  outer loop
    vertex 8768.1171875 15112.3837890625 3100
    vertex 8773.90625 15112.3837890625 3500
    vertex 8773.90625 15112.3837890625 3100
  endloop
endfacet
facet normal 7.186556037763747e-13 1 -1.164519327322144e-12
  outer loop
    vertex 8773.90625 15112.3837890625 3500
    vertex 8768.1171875 15112.3837890625 3100
    vertex 8768.1171875 15112.3837890625 3500
  endloop
endfacet
facet normal 1 3.662168970310596e-15 -2.712577731878163e-11
  outer loop
    vertex 8768.1171875 15112.3837890625 3100
    vertex 8768.1171875 14362.3837890625 3500
    vertex 8768.1171875 14362.3837890625 3100
  endloop
endfacet
facet normal 1 3.662168970310596e-15 -2.712577731878163e-11
  outer loop
    vertex 8768.1171875 14362.3837890625 3500
    vertex 8768.1171875 15112.3837890625 3100
    vertex 8768.1171875 15112.3837890625 3500
  endloop
endfacet
facet normal -8.603088944361681e-13 1 -1.164519327322144e-12
  outer loop
    vertex 8768.1171875 14362.3837890625 3100
    vertex 11003.091796875 14362.3837890625 3500
    vertex 11003.091796875 14362.3837890625 3100
  endloop
endfacet
facet normal -8.603088944361681e-13 1 -1.164519327322144e-12
  outer loop
    vertex 11003.091796875 14362.3837890625 3500
    vertex 8768.1171875 14362.3837890625 3100
    vertex 8768.1171875 14362.3837890625 3500
  endloop
endfacet
facet normal 1 -1.009823599523382e-13 -2.712577731878163e-11
  outer loop
    vertex 11003.091796875 14362.3837890625 3100
    vertex 11003.091796875 12119.3857421875 3500
    vertex 11003.091796875 12119.3857421875 3100
  endloop
endfacet
facet normal 1 -1.009823599523382e-13 -2.712577731878163e-11
  outer loop
    vertex 11003.091796875 12119.3857421875 3500
    vertex 11003.091796875 14362.3837890625 3100
    vertex 11003.091796875 14362.3837890625 3500
  endloop
endfacet
facet normal 1 -2.920318284069245e-12 -2.712577731878163e-11
  outer loop
    vertex 11003.091796875 12119.3857421875 3100
    vertex 11003.091796875 9278.5732421875 3500
    vertex 11003.091796875 9278.5732421875 3100
  endloop
endfacet
facet normal 1 -2.920318284069245e-12 -2.712577731878163e-11
  outer loop
    vertex 11003.091796875 9278.5732421875 3500
    vertex 11003.091796875 12119.3857421875 3100
    vertex 11003.091796875 12119.3857421875 3500
  endloop
endfacet
facet normal 1 1.556437869902618e-23 -2.712577731878163e-11
  outer loop
    vertex 11003.091796875 9278.5732421875 3100
    vertex 11003.091796875 7858.16748046875 3500
    vertex 11003.091796875 7858.16748046875 3100
  endloop
endfacet
facet normal 1 1.556437869902618e-23 -2.712577731878163e-11
  outer loop
    vertex 11003.091796875 7858.16748046875 3500
    vertex 11003.091796875 9278.5732421875 3100
    vertex 11003.091796875 9278.5732421875 3500
  endloop
endfacet
facet normal 1 -8.45802703049181e-13 -2.712577731878163e-11
  outer loop
    vertex 11003.091796875 7858.16748046875 3100
    vertex 11003.091796875 5254.04150390625 3500
    vertex 11003.091796875 5254.04150390625 3100
  endloop
endfacet
facet normal 1 -8.45802703049181e-13 -2.712577731878163e-11
  outer loop
    vertex 11003.091796875 5254.04150390625 3500
    vertex 11003.091796875 7858.16748046875 3100
    vertex 11003.091796875 7858.16748046875 3500
  endloop
endfacet
facet normal 1 1.368008787847041e-12 -2.712577731878163e-11
  outer loop
    vertex 11003.091796875 5254.04150390625 3100
    vertex 11003.091796875 2649.915771484375 3500
    vertex 11003.091796875 2649.915771484375 3100
  endloop
endfacet
facet normal 1 1.368008787847041e-12 -2.712577731878163e-11
  outer loop
    vertex 11003.091796875 2649.915771484375 3500
    vertex 11003.091796875 5254.04150390625 3100
    vertex 11003.091796875 5254.04150390625 3500
  endloop
endfacet
facet normal -8.038130379274433e-23 -1 1.164519327322144e-12
  outer loop
    vertex 11003.091796875 2649.915771484375 3100
    vertex 10992.8251953125 2649.915771484375 3500
    vertex 10992.8251953125 2649.915771484375 3100
  endloop
endfacet
facet normal -8.038130379274433e-23 -1 1.164519327322144e-12
  outer loop
    vertex 10992.8251953125 2649.915771484375 3500
    vertex 11003.091796875 2649.915771484375 3100
    vertex 11003.091796875 2649.915771484375 3500
  endloop
endfacet
facet normal 0.5321916937828064 -0.8466238975524902 -1.345020449183831e-11
  outer loop
    vertex 10992.8251953125 2649.915771484375 3100
    vertex 10902.1650390625 2591.2529296875 3500
    vertex 10902.1650390625 2591.2529296875 3100
  endloop
endfacet
facet normal 0.5321916937828064 -0.8466238975524902 -1.345020449183831e-11
  outer loop
    vertex 10902.1650390625 2591.2529296875 3500
    vertex 10992.8251953125 2649.915771484375 3100
    vertex 10992.8251953125 2649.915771484375 3500
  endloop
endfacet
facet normal 0.5321916937828064 -0.8466238975524902 -1.345020449183831e-11
  outer loop
    vertex 10902.1650390625 2591.2529296875 3500
    vertex 10122.28125 2086.619140625 3100
    vertex 10902.1650390625 2591.2529296875 3100
  endloop
endfacet
facet normal 0.5321916937828064 -0.8466238975524902 -1.345020449183831e-11
  outer loop
    vertex 10122.28125 2086.619140625 3100
    vertex 10902.1650390625 2591.2529296875 3500
    vertex 10122.28125 2086.619140625 3500
  endloop
endfacet
facet normal 0.475736141204834 -0.8795880675315857 -1.188041505451043e-11
  outer loop
    vertex 10122.28125 2086.619140625 3500
    vertex 9311.3603515625 1635.143188476562 3100
    vertex 10122.28125 2086.619140625 3100
  endloop
endfacet
facet normal 0.475736141204834 -0.8795880675315857 -1.188041505451043e-11
  outer loop
    vertex 9311.3603515625 1635.143188476562 3100
    vertex 10122.28125 2086.619140625 3500
    vertex 9311.3603515625 1635.143188476562 3500
  endloop
endfacet
facet normal 0.4173418879508972 -0.908749520778656 -1.026246709140421e-11
  outer loop
    vertex 9311.3603515625 1635.143188476562 3500
    vertex 8472.9150390625 1238.782104492188 3100
    vertex 9311.3603515625 1635.143188476562 3100
  endloop
endfacet
facet normal 0.4173418879508972 -0.908749520778656 -1.026246709140421e-11
  outer loop
    vertex 8472.9150390625 1238.782104492188 3100
    vertex 9311.3603515625 1635.143188476562 3500
    vertex 8472.9150390625 1238.782104492188 3500
  endloop
endfacet
facet normal 0.3572576344013214 -0.9340058565139771 -8.603223168590635e-12
  outer loop
    vertex 8472.9150390625 1238.782104492188 3500
    vertex 7874.29833984375 1003.08740234375 3100
    vertex 8472.9150390625 1238.782104492188 3100
  endloop
endfacet
facet normal 0.3572576344013214 -0.9340058565139771 -8.603223168590635e-12
  outer loop
    vertex 7874.29833984375 1003.08740234375 3100
    vertex 8472.9150390625 1238.782104492188 3500
    vertex 7874.29833984375 1003.08740234375 3500
  endloop
endfacet
facet normal 0.3572576344013214 -0.9340058565139771 -8.603223168590635e-12
  outer loop
    vertex 7874.29833984375 1003.08740234375 3100
    vertex 7610.58203125 899.2538452148438 3500
    vertex 7610.58203125 899.2538452148438 3100
  endloop
endfacet
facet normal 0.3572576344013214 -0.9340058565139771 -8.603223168590635e-12
  outer loop
    vertex 7610.58203125 899.2538452148438 3500
    vertex 7874.29833984375 1003.08740234375 3100
    vertex 7874.29833984375 1003.08740234375 3500
  endloop
endfacet
facet normal 0.2957347631454468 -0.9552701115608215 -6.909604832738836e-12
  outer loop
    vertex 7610.58203125 899.2538452148438 3500
    vertex 6728.09765625 618.0299682617188 3100
    vertex 7610.58203125 899.2538452148438 3100
  endloop
endfacet
facet normal 0.2957347631454468 -0.9552701115608215 -6.909604832738836e-12
  outer loop
    vertex 6728.09765625 618.0299682617188 3100
    vertex 7610.58203125 899.2538452148438 3500
    vertex 6728.09765625 618.0299682617188 3500
  endloop
endfacet
endsolid com.sketchup.SketchUp.2019
