solid com.sketchup.SketchUp.2019
facet normal -9.378994150210929e-07 8.494491225974343e-07 -1
  outer loop
    vertex 39858.84375 11112.3837890625 3100.013427734375
    vertex 32758.845703125 3273.084716796875 3100.013427734375
    vertex 32758.845703125 11112.3837890625 3100.013427734375
  endloop
endfacet
facet normal -9.378994150210929e-07 8.494491225974343e-07 -1
  outer loop
    vertex 32758.845703125 3273.084716796875 3100.013427734375
    vertex 39858.84375 11112.3837890625 3100.013427734375
    vertex 39858.84375 3273.084716796875 3100
  endloop
endfacet
facet normal 9.378994150210929e-07 -8.494491225974343e-07 1
  outer loop
    vertex 39858.84375 3273.08447265625 3499.99365234375
    vertex 32758.845703125 11112.3837890625 3500.0068359375
    vertex 32758.845703125 3273.08447265625 3500.0068359375
  endloop
endfacet
facet normal 9.378994150210929e-07 -8.494491225974343e-07 1
  outer loop
    vertex 32758.845703125 11112.3837890625 3500.0068359375
    vertex 39858.84375 3273.08447265625 3499.99365234375
    vertex 39858.84375 11112.3837890625 3500.0068359375
  endloop
endfacet
facet normal 0 1 8.494491225974343e-07
  outer loop
    vertex 32758.845703125 11112.3837890625 3500.0068359375
    vertex 39858.84375 11112.3837890625 3100.013427734375
    vertex 32758.845703125 11112.3837890625 3100.013427734375
  endloop
endfacet
facet normal 0 1 8.494491225974343e-07
  outer loop
    vertex 39858.84375 11112.3837890625 3100.013427734375
    vertex 32758.845703125 11112.3837890625 3500.0068359375
    vertex 39858.84375 11112.3837890625 3500.0068359375
  endloop
endfacet
facet normal 1 1.593395662809194e-12 -9.378994150210929e-07
  outer loop
    vertex 39858.84375 3273.084716796875 3100
    vertex 39858.84375 11112.3837890625 3500.0068359375
    vertex 39858.84375 3273.08447265625 3499.99365234375
  endloop
endfacet
facet normal 1 1.593395662809194e-12 -9.378994150210929e-07
  outer loop
    vertex 39858.84375 11112.3837890625 3500.0068359375
    vertex 39858.84375 3273.084716796875 3100
    vertex 39858.84375 11112.3837890625 3100.013427734375
  endloop
endfacet
facet normal -1.593395662809194e-12 -1 -8.494491225974343e-07
  outer loop
    vertex 39858.84375 3273.08447265625 3499.99365234375
    vertex 32758.845703125 3273.084716796875 3100.013427734375
    vertex 39858.84375 3273.084716796875 3100
  endloop
endfacet
facet normal -1.593395662809194e-12 -1 -8.494491225974343e-07
  outer loop
    vertex 32758.845703125 3273.084716796875 3100.013427734375
    vertex 39858.84375 3273.08447265625 3499.99365234375
    vertex 32758.845703125 3273.08447265625 3500.0068359375
  endloop
endfacet
facet normal -1 0 9.378994150210929e-07
  outer loop
    vertex 32758.845703125 11112.3837890625 3500.0068359375
    vertex 32758.845703125 3273.084716796875 3100.013427734375
    vertex 32758.845703125 3273.08447265625 3500.0068359375
  endloop
endfacet
facet normal -1 0 9.378994150210929e-07
  outer loop
    vertex 32758.845703125 3273.084716796875 3100.013427734375
    vertex 32758.845703125 11112.3837890625 3500.0068359375
    vertex 32758.845703125 11112.3837890625 3100.013427734375
  endloop
endfacet
endsolid com.sketchup.SketchUp.2019
