solid com.sketchup.SketchUp.2019
facet normal 1.090328169084387e-06 -8.493676659782068e-07 -1
  outer loop
    vertex 20766.2578125 11112.3837890625 3100
    vertex 14658.8447265625 3272.334716796875 3100
    vertex 14658.8447265625 11112.3837890625 3100
  endloop
endfacet
facet normal 1.090328169084387e-06 -8.493676659782068e-07 -1
  outer loop
    vertex 14658.8447265625 3272.334716796875 3100
    vertex 20766.2578125 11112.3837890625 3100
    vertex 20766.2578125 3272.334716796875 3100.013427734375
  endloop
endfacet
facet normal -1.090328169084387e-06 8.493676659782068e-07 1
  outer loop
    vertex 20766.2578125 3272.335205078125 3500.013427734375
    vertex 14658.8447265625 11112.384765625 3500
    vertex 14658.8447265625 3272.335205078125 3500
  endloop
endfacet
facet normal -1.090328169084387e-06 8.493676659782068e-07 1
  outer loop
    vertex 14658.8447265625 11112.384765625 3500
    vertex 20766.2578125 3272.335205078125 3500.013427734375
    vertex 20766.2578125 11112.384765625 3500
  endloop
endfacet
facet normal 0 1 -8.493676659782068e-07
  outer loop
    vertex 14658.8447265625 11112.384765625 3500
    vertex 20766.2578125 11112.3837890625 3100
    vertex 14658.8447265625 11112.3837890625 3100
  endloop
endfacet
facet normal 0 1 -8.493676659782068e-07
  outer loop
    vertex 20766.2578125 11112.3837890625 3100
    vertex 14658.8447265625 11112.384765625 3500
    vertex 20766.2578125 11112.384765625 3500
  endloop
endfacet
facet normal 1 1.852179000449983e-12 1.090328169084387e-06
  outer loop
    vertex 20766.2578125 11112.3837890625 3100
    vertex 20766.2578125 3272.335205078125 3500.013427734375
    vertex 20766.2578125 3272.334716796875 3100.013427734375
  endloop
endfacet
facet normal 1 1.852179000449983e-12 1.090328169084387e-06
  outer loop
    vertex 20766.2578125 3272.335205078125 3500.013427734375
    vertex 20766.2578125 11112.3837890625 3100
    vertex 20766.2578125 11112.384765625 3500
  endloop
endfacet
facet normal -1.852179000449983e-12 -1 8.493676659782068e-07
  outer loop
    vertex 20766.2578125 3272.334716796875 3100.013427734375
    vertex 14658.8447265625 3272.335205078125 3500
    vertex 14658.8447265625 3272.334716796875 3100
  endloop
endfacet
facet normal -1.852179000449983e-12 -1 8.493676659782068e-07
  outer loop
    vertex 14658.8447265625 3272.335205078125 3500
    vertex 20766.2578125 3272.334716796875 3100.013427734375
    vertex 20766.2578125 3272.335205078125 3500.013427734375
  endloop
endfacet
facet normal -1 0 -1.090328169084387e-06
  outer loop
    vertex 14658.8447265625 3272.335205078125 3500
    vertex 14658.8447265625 11112.3837890625 3100
    vertex 14658.8447265625 3272.334716796875 3100
  endloop
endfacet
facet normal -1 0 -1.090328169084387e-06
  outer loop
    vertex 14658.8447265625 11112.3837890625 3100
    vertex 14658.8447265625 3272.335205078125 3500
    vertex 14658.8447265625 11112.384765625 3500
  endloop
endfacet
endsolid com.sketchup.SketchUp.2019
