solid com.sketchup.SketchUp.2019
facet normal 2.110851930363652e-17 -3.222818750981744e-17 -1
  outer loop
    vertex 35858.84375 19962.384765625 3100
    vertex 27158.845703125 14362.3837890625 3100
    vertex 27158.845703125 19962.384765625 3100
  endloop
endfacet
facet normal 2.110851930363652e-17 -3.222818750981744e-17 -1
  outer loop
    vertex 27158.845703125 14362.3837890625 3100
    vertex 35858.84375 19962.384765625 3100
    vertex 35858.84375 14362.3837890625 3100
  endloop
endfacet
facet normal -2.110851930363652e-17 3.222818750981744e-17 1
  outer loop
    vertex 35858.84375 14362.3837890625 3500
    vertex 27158.845703125 19962.384765625 3500
    vertex 27158.845703125 14362.3837890625 3500
  endloop
endfacet
facet normal -2.110851930363652e-17 3.222818750981744e-17 1
  outer loop
    vertex 27158.845703125 19962.384765625 3500
    vertex 35858.84375 14362.3837890625 3500
    vertex 35858.84375 19962.384765625 3500
  endloop
endfacet
facet normal -1 -1.360578691424141e-33 -2.110851930363652e-17
  outer loop
    vertex 27158.845703125 19962.384765625 3500
    vertex 27158.845703125 14362.3837890625 3100
    vertex 27158.845703125 14362.3837890625 3500
  endloop
endfacet
facet normal -1 -1.360578691424141e-33 -2.110851930363652e-17
  outer loop
    vertex 27158.845703125 14362.3837890625 3100
    vertex 27158.845703125 19962.384765625 3500
    vertex 27158.845703125 19962.384765625 3100
  endloop
endfacet
facet normal 1.360578691424141e-33 1 -3.222818750981744e-17
  outer loop
    vertex 27158.845703125 19962.384765625 3500
    vertex 35858.84375 19962.384765625 3100
    vertex 27158.845703125 19962.384765625 3100
  endloop
endfacet
facet normal 1.360578691424141e-33 1 -3.222818750981744e-17
  outer loop
    vertex 35858.84375 19962.384765625 3100
    vertex 27158.845703125 19962.384765625 3500
    vertex 35858.84375 19962.384765625 3500
  endloop
endfacet
facet normal 1 0 2.110851930363652e-17
  outer loop
    vertex 35858.84375 19962.384765625 3100
    vertex 35858.84375 14362.3837890625 3500
    vertex 35858.84375 14362.3837890625 3100
  endloop
endfacet
facet normal 1 0 2.110851930363652e-17
  outer loop
    vertex 35858.84375 14362.3837890625 3500
    vertex 35858.84375 19962.384765625 3100
    vertex 35858.84375 19962.384765625 3500
  endloop
endfacet
facet normal 0 -1 3.222818750981744e-17
  outer loop
    vertex 35858.84375 14362.3837890625 3500
    vertex 27158.845703125 14362.3837890625 3100
    vertex 35858.84375 14362.3837890625 3100
  endloop
endfacet
facet normal 0 -1 3.222818750981744e-17
  outer loop
    vertex 27158.845703125 14362.3837890625 3100
    vertex 35858.84375 14362.3837890625 3500
    vertex 27158.845703125 14362.3837890625 3500
  endloop
endfacet
endsolid com.sketchup.SketchUp.2019
