solid com.sketchup.SketchUp.2019
facet normal -1.121855348173995e-06 8.494491225974343e-07 -1
  outer loop
    vertex 32758.845703125 11112.3837890625 3100.013427734375
    vertex 26823.06640625 3273.084716796875 3100.013427734375
    vertex 26823.06640625 11112.3837890625 3100.013427734375
  endloop
endfacet
facet normal -1.121855348173995e-06 8.494491225974343e-07 -1
  outer loop
    vertex 26823.06640625 3273.084716796875 3100.013427734375
    vertex 32758.845703125 11112.3837890625 3100.013427734375
    vertex 32758.845703125 3273.084716796875 3100
  endloop
endfacet
facet normal 1.121855348173995e-06 -8.494491225974343e-07 1
  outer loop
    vertex 32758.845703125 3273.08447265625 3500
    vertex 26823.06640625 11112.3837890625 3500.013427734375
    vertex 26823.06640625 3273.08447265625 3500.013427734375
  endloop
endfacet
facet normal 1.121855348173995e-06 -8.494491225974343e-07 1
  outer loop
    vertex 26823.06640625 11112.3837890625 3500.013427734375
    vertex 32758.845703125 3273.08447265625 3500
    vertex 32758.845703125 11112.3837890625 3500.013427734375
  endloop
endfacet
facet normal -1 0 1.121855348173995e-06
  outer loop
    vertex 26823.06640625 11112.3837890625 3500.013427734375
    vertex 26823.06640625 3273.084716796875 3100.013427734375
    vertex 26823.06640625 3273.08447265625 3500.013427734375
  endloop
endfacet
facet normal -1 0 1.121855348173995e-06
  outer loop
    vertex 26823.06640625 3273.084716796875 3100.013427734375
    vertex 26823.06640625 11112.3837890625 3500.013427734375
    vertex 26823.06640625 11112.3837890625 3100.013427734375
  endloop
endfacet
facet normal 0 1 8.494491225974343e-07
  outer loop
    vertex 26823.06640625 11112.3837890625 3500.013427734375
    vertex 32758.845703125 11112.3837890625 3100.013427734375
    vertex 26823.06640625 11112.3837890625 3100.013427734375
  endloop
endfacet
facet normal 0 1 8.494491225974343e-07
  outer loop
    vertex 32758.845703125 11112.3837890625 3100.013427734375
    vertex 26823.06640625 11112.3837890625 3500.013427734375
    vertex 32758.845703125 11112.3837890625 3500.013427734375
  endloop
endfacet
facet normal 1 1.90591813165053e-12 -1.121855348173995e-06
  outer loop
    vertex 32758.845703125 3273.084716796875 3100
    vertex 32758.845703125 11112.3837890625 3500.013427734375
    vertex 32758.845703125 3273.08447265625 3500
  endloop
endfacet
facet normal 1 1.90591813165053e-12 -1.121855348173995e-06
  outer loop
    vertex 32758.845703125 11112.3837890625 3500.013427734375
    vertex 32758.845703125 3273.084716796875 3100
    vertex 32758.845703125 11112.3837890625 3100.013427734375
  endloop
endfacet
facet normal -1.90591813165053e-12 -1 -8.494491225974343e-07
  outer loop
    vertex 32758.845703125 3273.08447265625 3500
    vertex 26823.06640625 3273.084716796875 3100.013427734375
    vertex 32758.845703125 3273.084716796875 3100
  endloop
endfacet
facet normal -1.90591813165053e-12 -1 -8.494491225974343e-07
  outer loop
    vertex 26823.06640625 3273.084716796875 3100.013427734375
    vertex 32758.845703125 3273.08447265625 3500
    vertex 26823.06640625 3273.08447265625 3500.013427734375
  endloop
endfacet
endsolid com.sketchup.SketchUp.2019
