solid com.sketchup.SketchUp.2019
facet normal -2.979751727983037e-17 2.301998976981998e-17 -1
  outer loop
    vertex 26823.06640625 11112.3837890625 3100.013427734375
    vertex 20766.2578125 3272.334716796875 3100.013427734375
    vertex 20766.2578125 11112.3837890625 3100.013427734375
  endloop
endfacet
facet normal -2.979751727983037e-17 2.301998976981998e-17 -1
  outer loop
    vertex 20766.2578125 3272.334716796875 3100.013427734375
    vertex 26823.06640625 11112.3837890625 3100.013427734375
    vertex 26823.06640625 3272.334716796875 3100.013427734375
  endloop
endfacet
facet normal 2.979751727983037e-17 -2.301998976981998e-17 1
  outer loop
    vertex 26823.06640625 3272.334716796875 3500.00390625
    vertex 20766.2578125 11112.3837890625 3500.00390625
    vertex 20766.2578125 3272.334716796875 3500.00390625
  endloop
endfacet
facet normal 2.979751727983037e-17 -2.301998976981998e-17 1
  outer loop
    vertex 20766.2578125 11112.3837890625 3500.00390625
    vertex 26823.06640625 3272.334716796875 3500.00390625
    vertex 26823.06640625 11112.3837890625 3500.00390625
  endloop
endfacet
facet normal -1 -1.371877212516459e-33 2.979751727983037e-17
  outer loop
    vertex 20766.2578125 11112.3837890625 3500.00390625
    vertex 20766.2578125 3272.334716796875 3100.013427734375
    vertex 20766.2578125 3272.334716796875 3500.00390625
  endloop
endfacet
facet normal -1 -1.371877212516459e-33 2.979751727983037e-17
  outer loop
    vertex 20766.2578125 3272.334716796875 3100.013427734375
    vertex 20766.2578125 11112.3837890625 3500.00390625
    vertex 20766.2578125 11112.3837890625 3100.013427734375
  endloop
endfacet
facet normal 1.371877212516459e-33 1 2.301998976981998e-17
  outer loop
    vertex 20766.2578125 11112.3837890625 3100.013427734375
    vertex 26823.06640625 11112.3837890625 3500.00390625
    vertex 26823.06640625 11112.3837890625 3100.013427734375
  endloop
endfacet
facet normal 1.371877212516459e-33 1 2.301998976981998e-17
  outer loop
    vertex 26823.06640625 11112.3837890625 3500.00390625
    vertex 20766.2578125 11112.3837890625 3100.013427734375
    vertex 20766.2578125 11112.3837890625 3500.00390625
  endloop
endfacet
facet normal 1 0 -2.979751727983037e-17
  outer loop
    vertex 26823.06640625 11112.3837890625 3100.013427734375
    vertex 26823.06640625 3272.334716796875 3500.00390625
    vertex 26823.06640625 3272.334716796875 3100.013427734375
  endloop
endfacet
facet normal 1 0 -2.979751727983037e-17
  outer loop
    vertex 26823.06640625 3272.334716796875 3500.00390625
    vertex 26823.06640625 11112.3837890625 3100.013427734375
    vertex 26823.06640625 11112.3837890625 3500.00390625
  endloop
endfacet
facet normal -0 -1 -2.301998976981998e-17
  outer loop
    vertex 26823.06640625 3272.334716796875 3500.00390625
    vertex 20766.2578125 3272.334716796875 3100.013427734375
    vertex 26823.06640625 3272.334716796875 3100.013427734375
  endloop
endfacet
facet normal -0 -1 -2.301998976981998e-17
  outer loop
    vertex 20766.2578125 3272.334716796875 3100.013427734375
    vertex 26823.06640625 3272.334716796875 3500.00390625
    vertex 20766.2578125 3272.334716796875 3500.00390625
  endloop
endfacet
endsolid com.sketchup.SketchUp.2019
