solid com.sketchup.SketchUp.2019
facet normal 9.883452776193735e-07 -9.953679409591132e-07 -1
  outer loop
    vertex 33140.71484375 9880.7255859375 3100.026611328125
    vertex 27140.71484375 3190.652099609375 3100.02734375
    vertex 27140.71484375 9880.7255859375 3100.01416015625
  endloop
endfacet
facet normal 9.883452776193735e-07 -9.953679409591132e-07 -1
  outer loop
    vertex 27140.71484375 3190.652099609375 3100.02734375
    vertex 33140.71484375 9880.7255859375 3100.026611328125
    vertex 33140.71484375 3190.652099609375 3100.026611328125
  endloop
endfacet
facet normal -9.883452776193735e-07 9.953679409591132e-07 1
  outer loop
    vertex 33140.71484375 3190.652587890625 3500.026611328125
    vertex 27140.71484375 9880.7255859375 3500.01416015625
    vertex 27140.71484375 3190.652587890625 3500.02734375
  endloop
endfacet
facet normal -9.883452776193735e-07 9.953679409591132e-07 1
  outer loop
    vertex 27140.71484375 9880.7255859375 3500.01416015625
    vertex 33140.71484375 3190.652587890625 3500.026611328125
    vertex 33140.71484375 9880.7255859375 3500.026611328125
  endloop
endfacet
facet normal -1 -1.967534425315054e-12 -9.883452776193735e-07
  outer loop
    vertex 27140.71484375 3190.652587890625 3500.02734375
    vertex 27140.71484375 9880.7255859375 3100.01416015625
    vertex 27140.71484375 3190.652099609375 3100.02734375
  endloop
endfacet
facet normal -1 -1.967534425315054e-12 -9.883452776193735e-07
  outer loop
    vertex 27140.71484375 9880.7255859375 3100.01416015625
    vertex 27140.71484375 3190.652587890625 3500.02734375
    vertex 27140.71484375 9880.7255859375 3500.01416015625
  endloop
endfacet
facet normal 1.967534425315054e-12 1 -9.953679409591132e-07
  outer loop
    vertex 27140.71484375 9880.7255859375 3500.01416015625
    vertex 33140.71484375 9880.7255859375 3100.026611328125
    vertex 27140.71484375 9880.7255859375 3100.01416015625
  endloop
endfacet
facet normal 1.967534425315054e-12 1 -9.953679409591132e-07
  outer loop
    vertex 33140.71484375 9880.7255859375 3100.026611328125
    vertex 27140.71484375 9880.7255859375 3500.01416015625
    vertex 33140.71484375 9880.7255859375 3500.026611328125
  endloop
endfacet
facet normal 1 0 9.883452776193735e-07
  outer loop
    vertex 33140.71484375 9880.7255859375 3100.026611328125
    vertex 33140.71484375 3190.652587890625 3500.026611328125
    vertex 33140.71484375 3190.652099609375 3100.026611328125
  endloop
endfacet
facet normal 1 0 9.883452776193735e-07
  outer loop
    vertex 33140.71484375 3190.652587890625 3500.026611328125
    vertex 33140.71484375 9880.7255859375 3100.026611328125
    vertex 33140.71484375 9880.7255859375 3500.026611328125
  endloop
endfacet
facet normal 0 -1 9.953679409591132e-07
  outer loop
    vertex 33140.71484375 3190.652587890625 3500.026611328125
    vertex 27140.71484375 3190.652099609375 3100.02734375
    vertex 33140.71484375 3190.652099609375 3100.026611328125
  endloop
endfacet
facet normal 0 -1 9.953679409591132e-07
  outer loop
    vertex 27140.71484375 3190.652099609375 3100.02734375
    vertex 33140.71484375 3190.652587890625 3500.026611328125
    vertex 27140.71484375 3190.652587890625 3500.02734375
  endloop
endfacet
endsolid com.sketchup.SketchUp.2019
