solid com.sketchup.SketchUp.2019
facet normal 2.958653328407014e-17 2.255973158774445e-17 -1
  outer loop
    vertex 33240.71484375 19940.888671875 3100.013427734375
    vertex 27140.71484375 11880.7255859375 3100.013427734375
    vertex 27140.71484375 19940.888671875 3100.013427734375
  endloop
endfacet
facet normal 2.958653328407014e-17 2.255973158774445e-17 -1
  outer loop
    vertex 27140.71484375 11880.7255859375 3100.013427734375
    vertex 33240.71484375 19940.888671875 3100.013427734375
    vertex 33240.71484375 11880.7255859375 3100.013427734375
  endloop
endfacet
facet normal -2.958653328407014e-17 -2.255973158774445e-17 1
  outer loop
    vertex 33240.71484375 11880.7255859375 3500.013427734375
    vertex 27140.71484375 19940.888671875 3500.013427734375
    vertex 27140.71484375 11880.7255859375 3500.013427734375
  endloop
endfacet
facet normal -2.958653328407014e-17 -2.255973158774445e-17 1
  outer loop
    vertex 27140.71484375 19940.888671875 3500.013427734375
    vertex 33240.71484375 11880.7255859375 3500.013427734375
    vertex 33240.71484375 19940.888671875 3500.013427734375
  endloop
endfacet
facet normal 1 0 2.958653328407014e-17
  outer loop
    vertex 33240.71484375 19940.888671875 3100.013427734375
    vertex 33240.71484375 11880.7255859375 3500.013427734375
    vertex 33240.71484375 11880.7255859375 3100.013427734375
  endloop
endfacet
facet normal 1 0 2.958653328407014e-17
  outer loop
    vertex 33240.71484375 11880.7255859375 3500.013427734375
    vertex 33240.71484375 19940.888671875 3100.013427734375
    vertex 33240.71484375 19940.888671875 3500.013427734375
  endloop
endfacet
facet normal 1.334928486334238e-33 -1 -2.255973158774445e-17
  outer loop
    vertex 33240.71484375 11880.7255859375 3100.013427734375
    vertex 27140.71484375 11880.7255859375 3500.013427734375
    vertex 27140.71484375 11880.7255859375 3100.013427734375
  endloop
endfacet
facet normal 1.334928486334238e-33 -1 -2.255973158774445e-17
  outer loop
    vertex 27140.71484375 11880.7255859375 3500.013427734375
    vertex 33240.71484375 11880.7255859375 3100.013427734375
    vertex 33240.71484375 11880.7255859375 3500.013427734375
  endloop
endfacet
facet normal -1 1.334928486334238e-33 -2.958653328407014e-17
  outer loop
    vertex 27140.71484375 19940.888671875 3500.013427734375
    vertex 27140.71484375 11880.7255859375 3100.013427734375
    vertex 27140.71484375 11880.7255859375 3500.013427734375
  endloop
endfacet
facet normal -1 1.334928486334238e-33 -2.958653328407014e-17
  outer loop
    vertex 27140.71484375 11880.7255859375 3100.013427734375
    vertex 27140.71484375 19940.888671875 3500.013427734375
    vertex 27140.71484375 19940.888671875 3100.013427734375
  endloop
endfacet
facet normal 0 1 2.255973158774445e-17
  outer loop
    vertex 27140.71484375 19940.888671875 3500.013427734375
    vertex 33240.71484375 19940.888671875 3100.013427734375
    vertex 27140.71484375 19940.888671875 3100.013427734375
  endloop
endfacet
facet normal 0 1 2.255973158774445e-17
  outer loop
    vertex 33240.71484375 19940.888671875 3100.013427734375
    vertex 27140.71484375 19940.888671875 3500.013427734375
    vertex 33240.71484375 19940.888671875 3500.013427734375
  endloop
endfacet
endsolid com.sketchup.SketchUp.2019
