solid com.sketchup.SketchUp.2019
facet normal -3.577038665100632e-16 5.09040119761996e-16 -1
  outer loop
    vertex 38790.71484375 19940.892578125 3100.013427734375
    vertex 33140.71484375 15980.7255859375 3100.013427734375
    vertex 33140.71484375 19940.892578125 3100.013427734375
  endloop
endfacet
facet normal -3.577038665100632e-16 5.09040119761996e-16 -1
  outer loop
    vertex 33140.71484375 15980.7255859375 3100.013427734375
    vertex 38790.71484375 19940.892578125 3100.013427734375
    vertex 38790.71484375 15980.7255859375 3100.013427734375
  endloop
endfacet
facet normal 3.577038665100632e-16 -5.09040119761996e-16 1
  outer loop
    vertex 38790.71484375 15980.7255859375 3500.013427734375
    vertex 33140.71484375 19940.892578125 3500.013427734375
    vertex 33140.71484375 15980.7255859375 3500.013427734375
  endloop
endfacet
facet normal 3.577038665100632e-16 -5.09040119761996e-16 1
  outer loop
    vertex 33140.71484375 19940.892578125 3500.013427734375
    vertex 38790.71484375 15980.7255859375 3500.013427734375
    vertex 38790.71484375 19940.892578125 3500.013427734375
  endloop
endfacet
facet normal 1 3.641712061700568e-31 -3.577038665100632e-16
  outer loop
    vertex 38790.71484375 19940.892578125 3100.013427734375
    vertex 38790.71484375 15980.7255859375 3500.013427734375
    vertex 38790.71484375 15980.7255859375 3100.013427734375
  endloop
endfacet
facet normal 1 3.641712061700568e-31 -3.577038665100632e-16
  outer loop
    vertex 38790.71484375 15980.7255859375 3500.013427734375
    vertex 38790.71484375 19940.892578125 3100.013427734375
    vertex 38790.71484375 19940.892578125 3500.013427734375
  endloop
endfacet
facet normal 0 1 5.09040119761996e-16
  outer loop
    vertex 33140.71484375 19940.892578125 3500.013427734375
    vertex 38790.71484375 19940.892578125 3100.013427734375
    vertex 33140.71484375 19940.892578125 3100.013427734375
  endloop
endfacet
facet normal 0 1 5.09040119761996e-16
  outer loop
    vertex 38790.71484375 19940.892578125 3100.013427734375
    vertex 33140.71484375 19940.892578125 3500.013427734375
    vertex 38790.71484375 19940.892578125 3500.013427734375
  endloop
endfacet
facet normal -1 0 3.577038665100632e-16
  outer loop
    vertex 33140.71484375 19940.892578125 3500.013427734375
    vertex 33140.71484375 15980.7255859375 3100.013427734375
    vertex 33140.71484375 15980.7255859375 3500.013427734375
  endloop
endfacet
facet normal -1 0 3.577038665100632e-16
  outer loop
    vertex 33140.71484375 15980.7255859375 3100.013427734375
    vertex 33140.71484375 19940.892578125 3500.013427734375
    vertex 33140.71484375 19940.892578125 3100.013427734375
  endloop
endfacet
facet normal -3.641712061700568e-31 -1 -5.09040119761996e-16
  outer loop
    vertex 38790.71484375 15980.7255859375 3500.013427734375
    vertex 33140.71484375 15980.7255859375 3100.013427734375
    vertex 38790.71484375 15980.7255859375 3100.013427734375
  endloop
endfacet
facet normal -3.641712061700568e-31 -1 -5.09040119761996e-16
  outer loop
    vertex 33140.71484375 15980.7255859375 3100.013427734375
    vertex 38790.71484375 15980.7255859375 3500.013427734375
    vertex 33140.71484375 15980.7255859375 3500.013427734375
  endloop
endfacet
endsolid com.sketchup.SketchUp.2019
