solid com.sketchup.SketchUp.2019
facet normal -1.786593020809582e-15 -8.33635765940758e-15 -1
  outer loop
    vertex 21940.71484375 16680.7265625 3100.013427734375
    vertex 22290.837890625 16480.7265625 3100.013427734375
    vertex 21940.71484375 16480.7265625 3100.013427734375
  endloop
endfacet
facet normal -1.786593020809582e-15 -8.33635765940758e-15 -1
  outer loop
    vertex 22290.837890625 16480.7265625 3100.013427734375
    vertex 21940.71484375 16680.7265625 3100.013427734375
    vertex 27240.71484375 16680.7265625 3100.013427734375
  endloop
endfacet
facet normal -1.786593020809582e-15 -8.33635765940758e-15 -1
  outer loop
    vertex 22290.837890625 16480.7265625 3100.013427734375
    vertex 27240.71484375 16680.7265625 3100.013427734375
    vertex 22290.837890625 14380.7255859375 3100.013427734375
  endloop
endfacet
facet normal -1.786593020809582e-15 -8.33635765940758e-15 -1
  outer loop
    vertex 22290.837890625 14380.7255859375 3100.013427734375
    vertex 27240.71484375 16680.7265625 3100.013427734375
    vertex 27240.71484375 14380.7255859375 3100.013427734375
  endloop
endfacet
facet normal 1.786593020809582e-15 8.33635765940758e-15 1
  outer loop
    vertex 22290.837890625 16480.7265625 3500.013427734375
    vertex 21940.71484375 16680.7265625 3500.013427734375
    vertex 21940.71484375 16480.7265625 3500.013427734375
  endloop
endfacet
facet normal 1.786593020809582e-15 8.33635765940758e-15 1
  outer loop
    vertex 21940.71484375 16680.7265625 3500.013427734375
    vertex 22290.837890625 16480.7265625 3500.013427734375
    vertex 27240.71484375 16680.7265625 3500.013427734375
  endloop
endfacet
facet normal 1.786593020809582e-15 8.33635765940758e-15 1
  outer loop
    vertex 27240.71484375 16680.7265625 3500.013427734375
    vertex 22290.837890625 16480.7265625 3500.013427734375
    vertex 22290.837890625 14380.7255859375 3500.013427734375
  endloop
endfacet
facet normal 1.786593020809582e-15 8.33635765940758e-15 1
  outer loop
    vertex 27240.71484375 16680.7265625 3500.013427734375
    vertex 22290.837890625 14380.7255859375 3500.013427734375
    vertex 27240.71484375 14380.7255859375 3500.013427734375
  endloop
endfacet
facet normal 0 1 -8.33635765940758e-15
  outer loop
    vertex 21940.71484375 16680.7265625 3100.013427734375
    vertex 27240.71484375 16680.7265625 3500.013427734375
    vertex 27240.71484375 16680.7265625 3100.013427734375
  endloop
endfacet
facet normal 0 1 -8.33635765940758e-15
  outer loop
    vertex 27240.71484375 16680.7265625 3500.013427734375
    vertex 21940.71484375 16680.7265625 3100.013427734375
    vertex 21940.71484375 16680.7265625 3500.013427734375
  endloop
endfacet
facet normal 2.978735636441319e-29 -1 8.33635765940758e-15
  outer loop
    vertex 27240.71484375 14380.7255859375 3500.013427734375
    vertex 22290.837890625 14380.7255859375 3100.013427734375
    vertex 27240.71484375 14380.7255859375 3100.013427734375
  endloop
endfacet
facet normal 2.978735636441319e-29 -1 8.33635765940758e-15
  outer loop
    vertex 22290.837890625 14380.7255859375 3100.013427734375
    vertex 27240.71484375 14380.7255859375 3500.013427734375
    vertex 22290.837890625 14380.7255859375 3500.013427734375
  endloop
endfacet
facet normal 1 -7.370067461011545e-30 -1.786593020809582e-15
  outer loop
    vertex 27240.71484375 16680.7265625 3100.013427734375
    vertex 27240.71484375 14380.7255859375 3500.013427734375
    vertex 27240.71484375 14380.7255859375 3100.013427734375
  endloop
endfacet
facet normal 1 -7.370067461011545e-30 -1.786593020809582e-15
  outer loop
    vertex 27240.71484375 14380.7255859375 3500.013427734375
    vertex 27240.71484375 16680.7265625 3100.013427734375
    vertex 27240.71484375 16680.7265625 3500.013427734375
  endloop
endfacet
facet normal -1 -1.485074948215023e-13 2.598881125494973e-13
  outer loop
    vertex 22290.837890625 14380.7255859375 3500.013427734375
    vertex 22290.837890625 16480.7265625 3100.013427734375
    vertex 22290.837890625 14380.7255859375 3100.013427734375
  endloop
endfacet
facet normal -1 -1.485074948215023e-13 2.598881125494973e-13
  outer loop
    vertex 22290.837890625 16480.7265625 3100.013427734375
    vertex 22290.837890625 14380.7255859375 3500.013427734375
    vertex 22290.837890625 16480.7265625 3500.013427734375
  endloop
endfacet
facet normal -1 1.559328621086875e-12 2.598881125494973e-13
  outer loop
    vertex 21940.71484375 16680.7265625 3500.013427734375
    vertex 21940.71484375 16480.7265625 3100.013427734375
    vertex 21940.71484375 16480.7265625 3500.013427734375
  endloop
endfacet
facet normal -1 1.559328621086875e-12 2.598881125494973e-13
  outer loop
    vertex 21940.71484375 16480.7265625 3100.013427734375
    vertex 21940.71484375 16680.7265625 3500.013427734375
    vertex 21940.71484375 16680.7265625 3100.013427734375
  endloop
endfacet
facet normal -1.559328621086875e-12 -1 8.105019729529727e-25
  outer loop
    vertex 22290.837890625 16480.7265625 3500.013427734375
    vertex 21940.71484375 16480.7265625 3100.013427734375
    vertex 22290.837890625 16480.7265625 3100.013427734375
  endloop
endfacet
facet normal -1.559328621086875e-12 -1 8.105019729529727e-25
  outer loop
    vertex 21940.71484375 16480.7265625 3100.013427734375
    vertex 22290.837890625 16480.7265625 3500.013427734375
    vertex 21940.71484375 16480.7265625 3500.013427734375
  endloop
endfacet
endsolid com.sketchup.SketchUp.2019
