solid com.sketchup.SketchUp.2019
facet normal 0 -1 0
  outer loop
    vertex 30400.421875 1750.017333984375 7450
    vertex 18313.0078125 1750.017333984375 7050
    vertex 30400.421875 1750.017333984375 7050
  endloop
endfacet
facet normal 0 -1 0
  outer loop
    vertex 18313.0078125 1750.017333984375 7050
    vertex 30400.421875 1750.017333984375 7450
    vertex 18313.0078125 1750.017333984375 7450
  endloop
endfacet
facet normal 1 0 5.449599494946776e-15
  outer loop
    vertex 30400.421875 9691.0849609375 7050
    vertex 30400.421875 1750.017333984375 7450
    vertex 30400.421875 1750.017333984375 7050
  endloop
endfacet
facet normal 1 0 5.449599494946776e-15
  outer loop
    vertex 30400.421875 1750.017333984375 7450
    vertex 30400.421875 9691.0849609375 7050
    vertex 30400.421875 9691.0849609375 7450
  endloop
endfacet
facet normal 0 1 0
  outer loop
    vertex 18300.421875 9691.0849609375 7450
    vertex 30400.421875 9691.0849609375 7050
    vertex 18300.421875 9691.0849609375 7050
  endloop
endfacet
facet normal 0 1 0
  outer loop
    vertex 30400.421875 9691.0849609375 7050
    vertex 18300.421875 9691.0849609375 7450
    vertex 30400.421875 9691.0849609375 7450
  endloop
endfacet
facet normal 3.41840411127736e-15 -1.576819699828779e-15 -1
  outer loop
    vertex 30400.421875 9691.0849609375 7050
    vertex 18309.16796875 7641.0908203125 7050
    vertex 18300.421875 9691.0849609375 7050
  endloop
endfacet
facet normal 3.41840411127736e-15 -1.576819699828779e-15 -1
  outer loop
    vertex 18309.16796875 7641.0908203125 7050
    vertex 30400.421875 9691.0849609375 7050
    vertex 18313.0078125 6741.1923828125 7050
  endloop
endfacet
facet normal 3.41840411127736e-15 -1.576819699828779e-15 -1
  outer loop
    vertex 18313.0078125 6741.1923828125 7050
    vertex 30400.421875 9691.0849609375 7050
    vertex 18313.0078125 1750.017333984375 7050
  endloop
endfacet
facet normal 3.41840411127736e-15 -1.576819699828779e-15 -1
  outer loop
    vertex 18313.0078125 1750.017333984375 7050
    vertex 30400.421875 9691.0849609375 7050
    vertex 30400.421875 1750.017333984375 7050
  endloop
endfacet
facet normal -3.09237647119797e-15 1.276369807778508e-15 1
  outer loop
    vertex 30400.421875 1750.017333984375 7450
    vertex 18313.0078125 6741.1923828125 7450
    vertex 18313.0078125 1750.017333984375 7450
  endloop
endfacet
facet normal -3.09237647119797e-15 1.276369807778508e-15 1
  outer loop
    vertex 18313.0078125 6741.1923828125 7450
    vertex 30400.421875 9691.0849609375 7450
    vertex 18300.421875 9691.0849609375 7450
  endloop
endfacet
facet normal -3.09237647119797e-15 1.276369807778508e-15 1
  outer loop
    vertex 30400.421875 9691.0849609375 7450
    vertex 18313.0078125 6741.1923828125 7450
    vertex 30400.421875 1750.017333984375 7450
  endloop
endfacet
facet normal 6.251113775918027e-12 -1.089392620979689e-14 1
  outer loop
    vertex 18313.0078125 6741.1923828125 7450
    vertex 18300.421875 9691.0849609375 7450
    vertex 18305.09765625 6741.1923828125 7450
  endloop
endfacet
facet normal 6.251113775918027e-12 2.241882250859657e-14 1
  outer loop
    vertex 18313.0078125 6741.1923828125 7450
    vertex 18305.09765625 6741.1923828125 7450
    vertex 18313.0078125 1750.017333984375 7450
  endloop
endfacet
facet normal -1.23136795898704e-11 -1.993343471784047e-14 -1
  outer loop
    vertex 18309.16796875 7641.0908203125 7050
    vertex 18313.0078125 1750.017333984375 7050
    vertex 18303.669921875 7641.0908203125 7050
  endloop
endfacet
facet normal -1.23136795898704e-11 -1.993343471784047e-14 -1
  outer loop
    vertex 18313.0078125 1750.017333984375 7050
    vertex 18309.16796875 7641.0908203125 7050
    vertex 18313.0078125 6741.1923828125 7050
  endloop
endfacet
facet normal -8.338619725267726e-12 -8.638266459830377e-15 -1
  outer loop
    vertex 18309.16796875 7641.0908203125 7050
    vertex 18303.669921875 7641.0908203125 7050
    vertex 18300.421875 9691.0849609375 7050
  endloop
endfacet
facet normal -0.9999987483024597 -0.001584943267516792 -5.495007237183184e-15
  outer loop
    vertex 18305.09765625 6741.1923828125 7450
    vertex 18313.0078125 1750.017333984375 7050
    vertex 18313.0078125 1750.017333984375 7450
  endloop
endfacet
facet normal -0.9999987483024597 -0.001584943267516792 -5.495007237183184e-15
  outer loop
    vertex 18313.0078125 1750.017333984375 7050
    vertex 18305.09765625 6741.1923828125 7450
    vertex 18303.669921875 7641.0908203125 7050
  endloop
endfacet
facet normal -0.9999987483024597 -0.001584943267516792 -5.495007237183184e-15
  outer loop
    vertex 18303.669921875 7641.0908203125 7050
    vertex 18305.09765625 6741.1923828125 7450
    vertex 18300.421875 9691.0849609375 7450
  endloop
endfacet
facet normal -0.9999987483024597 -0.001584943267516792 -5.495007237183184e-15
  outer loop
    vertex 18303.669921875 7641.0908203125 7050
    vertex 18300.421875 9691.0849609375 7450
    vertex 18300.421875 9691.0849609375 7050
  endloop
endfacet
endsolid com.sketchup.SketchUp.2019
