solid com.sketchup.SketchUp.2019
facet normal -7.139176402826131e-13 1 1.257071093811561e-14
  outer loop
    vertex 24700.421875 17355.275390625 7450
    vertex 27700.421875 17355.275390625 7050
    vertex 24700.421875 17355.275390625 7050
  endloop
endfacet
facet normal -7.139176402826131e-13 1 1.257071093811561e-14
  outer loop
    vertex 27700.421875 17355.275390625 7050
    vertex 24700.421875 17355.275390625 7450
    vertex 27700.421875 17355.275390625 7450
  endloop
endfacet
facet normal -1 -9.323530445956574e-13 4.100694190136735e-14
  outer loop
    vertex 24700.421875 17355.275390625 7450
    vertex 24700.421875 16691.083984375 7050
    vertex 24700.421875 16691.083984375 7450
  endloop
endfacet
facet normal -1 -9.323530445956574e-13 4.100694190136735e-14
  outer loop
    vertex 24700.421875 16691.083984375 7050
    vertex 24700.421875 17355.275390625 7450
    vertex 24700.421875 17355.275390625 7050
  endloop
endfacet
facet normal 5.006081608819636e-15 -1 -2.647008622762379e-14
  outer loop
    vertex 27700.421875 11691.0849609375 7450
    vertex 25508.11328125 11691.0849609375 7050
    vertex 27700.421875 11691.0849609375 7050
  endloop
endfacet
facet normal 5.006081608819636e-15 -1 -2.647008622762379e-14
  outer loop
    vertex 25508.11328125 11691.0849609375 7050
    vertex 27700.421875 11691.0849609375 7450
    vertex 25508.11328125 11691.0849609375 7450
  endloop
endfacet
facet normal -3.393372890081632e-14 1.409605888095947e-14 -1
  outer loop
    vertex 27700.421875 17355.275390625 7050
    vertex 24700.421875 16691.083984375 7050
    vertex 24700.421875 17355.275390625 7050
  endloop
endfacet
facet normal -3.393372890081632e-14 1.409605888095947e-14 -1
  outer loop
    vertex 24700.421875 16691.083984375 7050
    vertex 27700.421875 17355.275390625 7050
    vertex 24700.421875 12291.0849609375 7050
  endloop
endfacet
facet normal -3.393372890081632e-14 1.409605888095947e-14 -1
  outer loop
    vertex 24700.421875 12291.0849609375 7050
    vertex 27700.421875 17355.275390625 7050
    vertex 24700.421875 11691.0849609375 7050
  endloop
endfacet
facet normal -3.393372890081632e-14 1.409605888095947e-14 -1
  outer loop
    vertex 24700.421875 11691.0849609375 7050
    vertex 27700.421875 17355.275390625 7050
    vertex 25508.11328125 11691.0849609375 7050
  endloop
endfacet
facet normal -3.393372890081632e-14 1.409605888095947e-14 -1
  outer loop
    vertex 25508.11328125 11691.0849609375 7050
    vertex 27700.421875 17355.275390625 7050
    vertex 27700.421875 11691.0849609375 7050
  endloop
endfacet
facet normal 3.390200921100754e-14 -1.414819545292887e-14 1
  outer loop
    vertex 24700.421875 16691.083984375 7450
    vertex 27700.421875 17355.275390625 7450
    vertex 24700.421875 17355.275390625 7450
  endloop
endfacet
facet normal 3.390200921100754e-14 -1.414819545292887e-14 1
  outer loop
    vertex 27700.421875 17355.275390625 7450
    vertex 24700.421875 16691.083984375 7450
    vertex 24700.421875 12291.0849609375 7450
  endloop
endfacet
facet normal 3.390200921100754e-14 -1.414819545292887e-14 1
  outer loop
    vertex 27700.421875 17355.275390625 7450
    vertex 24700.421875 12291.0849609375 7450
    vertex 24700.421875 11691.0849609375 7450
  endloop
endfacet
facet normal 3.390200921100754e-14 -1.414819545292887e-14 1
  outer loop
    vertex 27700.421875 17355.275390625 7450
    vertex 24700.421875 11691.0849609375 7450
    vertex 25508.11328125 11691.0849609375 7450
  endloop
endfacet
facet normal 3.390200921100754e-14 -1.414819545292887e-14 1
  outer loop
    vertex 27700.421875 17355.275390625 7450
    vertex 25508.11328125 11691.0849609375 7450
    vertex 27700.421875 11691.0849609375 7450
  endloop
endfacet
facet normal 9.569941715437905e-15 -1 -3.248601406868716e-14
  outer loop
    vertex 25508.11328125 11691.0849609375 7050
    vertex 24700.421875 11691.0849609375 7450
    vertex 24700.421875 11691.0849609375 7050
  endloop
endfacet
facet normal 9.569941715437905e-15 -1 -3.248601406868716e-14
  outer loop
    vertex 24700.421875 11691.0849609375 7450
    vertex 25508.11328125 11691.0849609375 7050
    vertex 25508.11328125 11691.0849609375 7450
  endloop
endfacet
facet normal -1 -5.912539880435774e-13 4.100694190136735e-14
  outer loop
    vertex 24700.421875 12291.0849609375 7450
    vertex 24700.421875 11691.0849609375 7050
    vertex 24700.421875 11691.0849609375 7450
  endloop
endfacet
facet normal -1 -5.912539880435774e-13 4.100694190136735e-14
  outer loop
    vertex 24700.421875 11691.0849609375 7050
    vertex 24700.421875 12291.0849609375 7450
    vertex 24700.421875 12291.0849609375 7050
  endloop
endfacet
facet normal -1 -2.899690578796188e-14 4.100694190136735e-14
  outer loop
    vertex 24700.421875 16691.083984375 7450
    vertex 24700.421875 12291.0849609375 7050
    vertex 24700.421875 12291.0849609375 7450
  endloop
endfacet
facet normal -1 -2.899690578796188e-14 4.100694190136735e-14
  outer loop
    vertex 24700.421875 12291.0849609375 7050
    vertex 24700.421875 16691.083984375 7450
    vertex 24700.421875 16691.083984375 7050
  endloop
endfacet
facet normal 1 1.573360205513955e-15 -4.356608254490676e-14
  outer loop
    vertex 27700.421875 11691.0849609375 7050
    vertex 27700.421875 17355.275390625 7450
    vertex 27700.421875 11691.0849609375 7450
  endloop
endfacet
facet normal 1 1.573360205513955e-15 -4.356608254490676e-14
  outer loop
    vertex 27700.421875 17355.275390625 7450
    vertex 27700.421875 11691.0849609375 7050
    vertex 27700.421875 17355.275390625 7050
  endloop
endfacet
endsolid com.sketchup.SketchUp.2019
