solid com.sketchup.SketchUp.2019
facet normal -7.107968786363729e-27 1 5.276358980266758e-14
  outer loop
    vertex 30268.421875 9691.0849609375 7450
    vertex 36500 9691.0849609375 7050
    vertex 30268.421875 9691.0849609375 7050
  endloop
endfacet
facet normal -7.107968786363729e-27 1 5.276358980266758e-14
  outer loop
    vertex 36500 9691.0849609375 7050
    vertex 30268.421875 9691.0849609375 7450
    vertex 36500 9691.0849609375 7450
  endloop
endfacet
facet normal -1 0 -6.73567579208105e-14
  outer loop
    vertex 30268.421875 9691.0849609375 7450
    vertex 30268.421875 1749.998413085938 7050
    vertex 30268.421875 1749.998413085938 7450
  endloop
endfacet
facet normal -1 0 -6.73567579208105e-14
  outer loop
    vertex 30268.421875 1749.998413085938 7050
    vertex 30268.421875 9691.0849609375 7450
    vertex 30268.421875 9691.0849609375 7050
  endloop
endfacet
facet normal -6.73567579208105e-14 -5.276358980266758e-14 1
  outer loop
    vertex 36500 1749.998413085938 7450
    vertex 30268.421875 9691.0849609375 7450
    vertex 30268.421875 1749.998413085938 7450
  endloop
endfacet
facet normal -6.73567579208105e-14 -5.276358980266758e-14 1
  outer loop
    vertex 30268.421875 9691.0849609375 7450
    vertex 36500 1749.998413085938 7450
    vertex 36500 9691.0849609375 7450
  endloop
endfacet
facet normal -0 -1 -5.276358980266758e-14
  outer loop
    vertex 36500 1749.998413085938 7050
    vertex 30268.421875 1749.998413085938 7450
    vertex 30268.421875 1749.998413085938 7050
  endloop
endfacet
facet normal -0 -1 -5.276358980266758e-14
  outer loop
    vertex 30268.421875 1749.998413085938 7450
    vertex 36500 1749.998413085938 7050
    vertex 36500 1749.998413085938 7450
  endloop
endfacet
facet normal 1 -7.107968786363729e-27 6.73567579208105e-14
  outer loop
    vertex 36500 1749.998413085938 7050
    vertex 36500 9691.0849609375 7450
    vertex 36500 1749.998413085938 7450
  endloop
endfacet
facet normal 1 -7.107968786363729e-27 6.73567579208105e-14
  outer loop
    vertex 36500 9691.0849609375 7450
    vertex 36500 1749.998413085938 7050
    vertex 36500 9691.0849609375 7050
  endloop
endfacet
facet normal 6.73567579208105e-14 5.276358980266758e-14 -1
  outer loop
    vertex 36500 9691.0849609375 7050
    vertex 30268.421875 1749.998413085938 7050
    vertex 30268.421875 9691.0849609375 7050
  endloop
endfacet
facet normal 6.73567579208105e-14 5.276358980266758e-14 -1
  outer loop
    vertex 30268.421875 1749.998413085938 7050
    vertex 36500 9691.0849609375 7050
    vertex 36500 1749.998413085938 7050
  endloop
endfacet
endsolid com.sketchup.SketchUp.2019
