solid com.sketchup.SketchUp.2019
facet normal -4.219452275099934e-14 1.409605888095947e-14 -1
  outer loop
    vertex 30500.421875 17355.275390625 7050
    vertex 27500.421875 16691.083984375 7050
    vertex 27500.421875 17355.275390625 7050
  endloop
endfacet
facet normal -4.219452275099934e-14 1.409605888095947e-14 -1
  outer loop
    vertex 27500.421875 16691.083984375 7050
    vertex 30500.421875 17355.275390625 7050
    vertex 27500.421875 12291.0849609375 7050
  endloop
endfacet
facet normal -4.219452275099934e-14 1.409605888095947e-14 -1
  outer loop
    vertex 27500.421875 12291.0849609375 7050
    vertex 30500.421875 17355.275390625 7050
    vertex 27500.421875 11691.0849609375 7050
  endloop
endfacet
facet normal -4.219452275099934e-14 1.409605888095947e-14 -1
  outer loop
    vertex 27500.421875 11691.0849609375 7050
    vertex 30500.421875 17355.275390625 7050
    vertex 28308.11328125 11691.0849609375 7050
  endloop
endfacet
facet normal -4.219452275099934e-14 1.409605888095947e-14 -1
  outer loop
    vertex 28308.11328125 11691.0849609375 7050
    vertex 30500.421875 17355.275390625 7050
    vertex 30500.421875 11691.0849609375 7050
  endloop
endfacet
facet normal 4.215507812071161e-14 -1.414819545292887e-14 1
  outer loop
    vertex 27500.421875 16691.083984375 7450
    vertex 30500.421875 17355.275390625 7450
    vertex 27500.421875 17355.275390625 7450
  endloop
endfacet
facet normal 4.215507812071161e-14 -1.414819545292887e-14 1
  outer loop
    vertex 30500.421875 17355.275390625 7450
    vertex 27500.421875 16691.083984375 7450
    vertex 27500.421875 12291.0849609375 7450
  endloop
endfacet
facet normal 4.215507812071161e-14 -1.414819545292887e-14 1
  outer loop
    vertex 30500.421875 17355.275390625 7450
    vertex 27500.421875 12291.0849609375 7450
    vertex 27500.421875 11691.0849609375 7450
  endloop
endfacet
facet normal 4.215507812071161e-14 -1.414819545292887e-14 1
  outer loop
    vertex 30500.421875 17355.275390625 7450
    vertex 27500.421875 11691.0849609375 7450
    vertex 28308.11328125 11691.0849609375 7450
  endloop
endfacet
facet normal 4.215507812071161e-14 -1.414819545292887e-14 1
  outer loop
    vertex 30500.421875 17355.275390625 7450
    vertex 28308.11328125 11691.0849609375 7450
    vertex 30500.421875 11691.0849609375 7450
  endloop
endfacet
facet normal -8.877130801276945e-13 1 1.257071093811561e-14
  outer loop
    vertex 27500.421875 17355.275390625 7450
    vertex 30500.421875 17355.275390625 7050
    vertex 27500.421875 17355.275390625 7050
  endloop
endfacet
facet normal -8.877130801276945e-13 1 1.257071093811561e-14
  outer loop
    vertex 30500.421875 17355.275390625 7050
    vertex 27500.421875 17355.275390625 7450
    vertex 30500.421875 17355.275390625 7450
  endloop
endfacet
facet normal 1.189963892125803e-14 -1 -3.248601406868716e-14
  outer loop
    vertex 28308.11328125 11691.0849609375 7050
    vertex 27500.421875 11691.0849609375 7450
    vertex 27500.421875 11691.0849609375 7050
  endloop
endfacet
facet normal 1.189963892125803e-14 -1 -3.248601406868716e-14
  outer loop
    vertex 27500.421875 11691.0849609375 7450
    vertex 28308.11328125 11691.0849609375 7050
    vertex 28308.11328125 11691.0849609375 7450
  endloop
endfacet
facet normal 6.224757037945339e-15 -1 -2.647008622762379e-14
  outer loop
    vertex 30500.421875 11691.0849609375 7450
    vertex 28308.11328125 11691.0849609375 7050
    vertex 30500.421875 11691.0849609375 7050
  endloop
endfacet
facet normal 6.224757037945339e-15 -1 -2.647008622762379e-14
  outer loop
    vertex 28308.11328125 11691.0849609375 7050
    vertex 30500.421875 11691.0849609375 7450
    vertex 28308.11328125 11691.0849609375 7450
  endloop
endfacet
facet normal 1 1.265329686223114e-15 -3.503676908604876e-14
  outer loop
    vertex 30500.421875 11691.0849609375 7050
    vertex 30500.421875 17355.275390625 7450
    vertex 30500.421875 11691.0849609375 7450
  endloop
endfacet
facet normal 1 1.265329686223114e-15 -3.503676908604876e-14
  outer loop
    vertex 30500.421875 17355.275390625 7450
    vertex 30500.421875 11691.0849609375 7050
    vertex 30500.421875 17355.275390625 7050
  endloop
endfacet
facet normal -1 -2.331992665107179e-14 3.297865181894205e-14
  outer loop
    vertex 27500.421875 16691.083984375 7450
    vertex 27500.421875 12291.0849609375 7050
    vertex 27500.421875 12291.0849609375 7450
  endloop
endfacet
facet normal -1 -2.331992665107179e-14 3.297865181894205e-14
  outer loop
    vertex 27500.421875 12291.0849609375 7050
    vertex 27500.421875 16691.083984375 7450
    vertex 27500.421875 16691.083984375 7050
  endloop
endfacet
facet normal -1 -7.498181220887135e-13 3.297865181894205e-14
  outer loop
    vertex 27500.421875 17355.275390625 7450
    vertex 27500.421875 16691.083984375 7050
    vertex 27500.421875 16691.083984375 7450
  endloop
endfacet
facet normal -1 -7.498181220887135e-13 3.297865181894205e-14
  outer loop
    vertex 27500.421875 16691.083984375 7050
    vertex 27500.421875 17355.275390625 7450
    vertex 27500.421875 17355.275390625 7050
  endloop
endfacet
facet normal -1 -4.754989804678367e-13 3.297865181894205e-14
  outer loop
    vertex 27500.421875 12291.0849609375 7450
    vertex 27500.421875 11691.0849609375 7050
    vertex 27500.421875 11691.0849609375 7450
  endloop
endfacet
facet normal -1 -4.754989804678367e-13 3.297865181894205e-14
  outer loop
    vertex 27500.421875 11691.0849609375 7050
    vertex 27500.421875 12291.0849609375 7450
    vertex 27500.421875 12291.0849609375 7050
  endloop
endfacet
endsolid com.sketchup.SketchUp.2019
