solid com.sketchup.SketchUp.2019
facet normal -4.922700024305102e-14 1.409605888095947e-14 -1
  outer loop
    vertex 33800.42578125 17355.275390625 7050
    vertex 30300.421875 16691.083984375 7050
    vertex 30300.421875 17355.275390625 7050
  endloop
endfacet
facet normal -4.922700024305102e-14 1.409605888095947e-14 -1
  outer loop
    vertex 30300.421875 16691.083984375 7050
    vertex 33800.42578125 17355.275390625 7050
    vertex 30300.421875 12291.0849609375 7050
  endloop
endfacet
facet normal -4.922700024305102e-14 1.409605888095947e-14 -1
  outer loop
    vertex 30300.421875 12291.0849609375 7050
    vertex 33800.42578125 17355.275390625 7050
    vertex 30300.421875 11691.0849609375 7050
  endloop
endfacet
facet normal -4.922700024305102e-14 1.409605888095947e-14 -1
  outer loop
    vertex 30300.421875 11691.0849609375 7050
    vertex 33800.42578125 17355.275390625 7050
    vertex 31242.73046875 11691.0849609375 7050
  endloop
endfacet
facet normal -4.922700024305102e-14 1.409605888095947e-14 -1
  outer loop
    vertex 31242.73046875 11691.0849609375 7050
    vertex 33800.42578125 17355.275390625 7050
    vertex 33800.42578125 11691.0849609375 7050
  endloop
endfacet
facet normal -1.035666452771367e-12 1 1.257071093811561e-14
  outer loop
    vertex 30300.421875 17355.275390625 7450
    vertex 33800.42578125 17355.275390625 7050
    vertex 30300.421875 17355.275390625 7050
  endloop
endfacet
facet normal -1.035666452771367e-12 1 1.257071093811561e-14
  outer loop
    vertex 33800.42578125 17355.275390625 7050
    vertex 30300.421875 17355.275390625 7450
    vertex 33800.42578125 17355.275390625 7450
  endloop
endfacet
facet normal 1.38829276037384e-14 -1 -3.248601406868716e-14
  outer loop
    vertex 31242.73046875 11691.0849609375 7050
    vertex 30300.421875 11691.0849609375 7450
    vertex 30300.421875 11691.0849609375 7050
  endloop
endfacet
facet normal 1.38829276037384e-14 -1 -3.248601406868716e-14
  outer loop
    vertex 30300.421875 11691.0849609375 7450
    vertex 31242.73046875 11691.0849609375 7050
    vertex 31242.73046875 11691.0849609375 7450
  endloop
endfacet
facet normal 7.262225014599034e-15 -1 -2.647008622762379e-14
  outer loop
    vertex 33800.42578125 11691.0849609375 7450
    vertex 31242.73046875 11691.0849609375 7050
    vertex 33800.42578125 11691.0849609375 7050
  endloop
endfacet
facet normal 7.262225014599034e-15 -1 -2.647008622762379e-14
  outer loop
    vertex 31242.73046875 11691.0849609375 7050
    vertex 33800.42578125 11691.0849609375 7450
    vertex 31242.73046875 11691.0849609375 7450
  endloop
endfacet
facet normal 1 1.084567031927534e-15 -3.003148199413365e-14
  outer loop
    vertex 33800.42578125 11691.0849609375 7050
    vertex 33800.42578125 17355.275390625 7450
    vertex 33800.42578125 11691.0849609375 7450
  endloop
endfacet
facet normal 1 1.084567031927534e-15 -3.003148199413365e-14
  outer loop
    vertex 33800.42578125 17355.275390625 7450
    vertex 33800.42578125 11691.0849609375 7050
    vertex 33800.42578125 17355.275390625 7050
  endloop
endfacet
facet normal -1 -6.427005195402957e-13 2.826738341554606e-14
  outer loop
    vertex 30300.421875 17355.275390625 7450
    vertex 30300.421875 16691.083984375 7050
    vertex 30300.421875 16691.083984375 7450
  endloop
endfacet
facet normal -1 -6.427005195402957e-13 2.826738341554606e-14
  outer loop
    vertex 30300.421875 16691.083984375 7050
    vertex 30300.421875 17355.275390625 7450
    vertex 30300.421875 17355.275390625 7050
  endloop
endfacet
facet normal -1 -4.07570082284342e-13 2.826738341554606e-14
  outer loop
    vertex 30300.421875 12291.0849609375 7450
    vertex 30300.421875 11691.0849609375 7050
    vertex 30300.421875 11691.0849609375 7450
  endloop
endfacet
facet normal -1 -4.07570082284342e-13 2.826738341554606e-14
  outer loop
    vertex 30300.421875 11691.0849609375 7050
    vertex 30300.421875 12291.0849609375 7450
    vertex 30300.421875 12291.0849609375 7050
  endloop
endfacet
facet normal 4.91809792489608e-14 -1.414819545292887e-14 1
  outer loop
    vertex 30300.421875 16691.083984375 7450
    vertex 33800.42578125 17355.275390625 7450
    vertex 30300.421875 17355.275390625 7450
  endloop
endfacet
facet normal 4.91809792489608e-14 -1.414819545292887e-14 1
  outer loop
    vertex 33800.42578125 17355.275390625 7450
    vertex 30300.421875 16691.083984375 7450
    vertex 30300.421875 12291.0849609375 7450
  endloop
endfacet
facet normal 4.91809792489608e-14 -1.414819545292887e-14 1
  outer loop
    vertex 33800.42578125 17355.275390625 7450
    vertex 30300.421875 12291.0849609375 7450
    vertex 30300.421875 11691.0849609375 7450
  endloop
endfacet
facet normal 4.91809792489608e-14 -1.414819545292887e-14 1
  outer loop
    vertex 33800.42578125 17355.275390625 7450
    vertex 30300.421875 11691.0849609375 7450
    vertex 31242.73046875 11691.0849609375 7450
  endloop
endfacet
facet normal 4.91809792489608e-14 -1.414819545292887e-14 1
  outer loop
    vertex 33800.42578125 17355.275390625 7450
    vertex 31242.73046875 11691.0849609375 7450
    vertex 33800.42578125 11691.0849609375 7450
  endloop
endfacet
facet normal -1 -1.998848508314843e-14 2.826738341554606e-14
  outer loop
    vertex 30300.421875 16691.083984375 7450
    vertex 30300.421875 12291.0849609375 7050
    vertex 30300.421875 12291.0849609375 7450
  endloop
endfacet
facet normal -1 -1.998848508314843e-14 2.826738341554606e-14
  outer loop
    vertex 30300.421875 12291.0849609375 7050
    vertex 30300.421875 16691.083984375 7450
    vertex 30300.421875 16691.083984375 7050
  endloop
endfacet
endsolid com.sketchup.SketchUp.2019
