solid com.sketchup.SketchUp.2019
facet normal 9.883452776193735e-07 -9.953679409591132e-07 -1
  outer loop
    vertex 37518.671875 7654.00927734375 38549.984375
    vertex 30867.921875 963.9356689453125 38549.984375
    vertex 30867.921875 7654.00927734375 38549.97265625
  endloop
endfacet
facet normal 9.883452776193735e-07 -9.953679409591132e-07 -1
  outer loop
    vertex 30867.921875 963.9356689453125 38549.984375
    vertex 37518.671875 7654.00927734375 38549.984375
    vertex 37518.671875 963.9356689453125 38549.984375
  endloop
endfacet
facet normal -9.883452776193735e-07 9.953679409591132e-07 1
  outer loop
    vertex 37518.671875 963.93603515625 38949.984375
    vertex 30867.919921875 7654.009765625 38949.97265625
    vertex 30867.919921875 963.93603515625 38949.984375
  endloop
endfacet
facet normal -9.883452776193735e-07 9.953679409591132e-07 1
  outer loop
    vertex 30867.919921875 7654.009765625 38949.97265625
    vertex 37518.671875 963.93603515625 38949.984375
    vertex 37518.671875 7654.009765625 38949.984375
  endloop
endfacet
facet normal -1 -1.967534425315054e-12 -9.883452776193735e-07
  outer loop
    vertex 30867.919921875 963.93603515625 38949.984375
    vertex 30867.921875 7654.00927734375 38549.97265625
    vertex 30867.921875 963.9356689453125 38549.984375
  endloop
endfacet
facet normal -1 -1.967534425315054e-12 -9.883452776193735e-07
  outer loop
    vertex 30867.921875 7654.00927734375 38549.97265625
    vertex 30867.919921875 963.93603515625 38949.984375
    vertex 30867.919921875 7654.009765625 38949.97265625
  endloop
endfacet
facet normal 1.967534425315054e-12 1 -9.953679409591132e-07
  outer loop
    vertex 30867.919921875 7654.009765625 38949.97265625
    vertex 37518.671875 7654.00927734375 38549.984375
    vertex 30867.921875 7654.00927734375 38549.97265625
  endloop
endfacet
facet normal 1.967534425315054e-12 1 -9.953679409591132e-07
  outer loop
    vertex 37518.671875 7654.00927734375 38549.984375
    vertex 30867.919921875 7654.009765625 38949.97265625
    vertex 37518.671875 7654.009765625 38949.984375
  endloop
endfacet
facet normal 1 0 9.883452776193735e-07
  outer loop
    vertex 37518.671875 7654.00927734375 38549.984375
    vertex 37518.671875 963.93603515625 38949.984375
    vertex 37518.671875 963.9356689453125 38549.984375
  endloop
endfacet
facet normal 1 0 9.883452776193735e-07
  outer loop
    vertex 37518.671875 963.93603515625 38949.984375
    vertex 37518.671875 7654.00927734375 38549.984375
    vertex 37518.671875 7654.009765625 38949.984375
  endloop
endfacet
facet normal 0 -1 9.953679409591132e-07
  outer loop
    vertex 37518.671875 963.93603515625 38949.984375
    vertex 30867.921875 963.9356689453125 38549.984375
    vertex 37518.671875 963.9356689453125 38549.984375
  endloop
endfacet
facet normal 0 -1 9.953679409591132e-07
  outer loop
    vertex 30867.921875 963.9356689453125 38549.984375
    vertex 37518.671875 963.93603515625 38949.984375
    vertex 30867.919921875 963.93603515625 38949.984375
  endloop
endfacet
endsolid com.sketchup.SketchUp.2019
