solid com.sketchup.SketchUp.2019
facet normal 9.883452776193735e-07 -9.953679409591132e-07 -1
  outer loop
    vertex 18467.919921875 7714.17724609375 42049.98828125
    vertex 12517.9208984375 1024.103515625 42049.98828125
    vertex 12517.9208984375 7714.17724609375 42049.97265625
  endloop
endfacet
facet normal 9.883452776193735e-07 -9.953679409591132e-07 -1
  outer loop
    vertex 12517.9208984375 1024.103515625 42049.98828125
    vertex 18467.919921875 7714.17724609375 42049.98828125
    vertex 18467.919921875 1024.103515625 42049.98828125
  endloop
endfacet
facet normal -9.883452776193735e-07 9.953679409591132e-07 1
  outer loop
    vertex 18467.919921875 1024.103881835938 42449.98828125
    vertex 12517.9208984375 7714.177734375 42449.97265625
    vertex 12517.9208984375 1024.103881835938 42449.98828125
  endloop
endfacet
facet normal -9.883452776193735e-07 9.953679409591132e-07 1
  outer loop
    vertex 12517.9208984375 7714.177734375 42449.97265625
    vertex 18467.919921875 1024.103881835938 42449.98828125
    vertex 18467.919921875 7714.177734375 42449.98828125
  endloop
endfacet
facet normal -1 -1.967534425315054e-12 -9.883452776193735e-07
  outer loop
    vertex 12517.9208984375 1024.103881835938 42449.98828125
    vertex 12517.9208984375 7714.17724609375 42049.97265625
    vertex 12517.9208984375 1024.103515625 42049.98828125
  endloop
endfacet
facet normal -1 -1.967534425315054e-12 -9.883452776193735e-07
  outer loop
    vertex 12517.9208984375 7714.17724609375 42049.97265625
    vertex 12517.9208984375 1024.103881835938 42449.98828125
    vertex 12517.9208984375 7714.177734375 42449.97265625
  endloop
endfacet
facet normal 1.967534425315054e-12 1 -9.953679409591132e-07
  outer loop
    vertex 12517.9208984375 7714.177734375 42449.97265625
    vertex 18467.919921875 7714.17724609375 42049.98828125
    vertex 12517.9208984375 7714.17724609375 42049.97265625
  endloop
endfacet
facet normal 1.967534425315054e-12 1 -9.953679409591132e-07
  outer loop
    vertex 18467.919921875 7714.17724609375 42049.98828125
    vertex 12517.9208984375 7714.177734375 42449.97265625
    vertex 18467.919921875 7714.177734375 42449.98828125
  endloop
endfacet
facet normal 1 0 9.883452776193735e-07
  outer loop
    vertex 18467.919921875 7714.17724609375 42049.98828125
    vertex 18467.919921875 1024.103881835938 42449.98828125
    vertex 18467.919921875 1024.103515625 42049.98828125
  endloop
endfacet
facet normal 1 0 9.883452776193735e-07
  outer loop
    vertex 18467.919921875 1024.103881835938 42449.98828125
    vertex 18467.919921875 7714.17724609375 42049.98828125
    vertex 18467.919921875 7714.177734375 42449.98828125
  endloop
endfacet
facet normal 0 -1 9.953679409591132e-07
  outer loop
    vertex 18467.919921875 1024.103881835938 42449.98828125
    vertex 12517.9208984375 1024.103515625 42049.98828125
    vertex 18467.919921875 1024.103515625 42049.98828125
  endloop
endfacet
facet normal 0 -1 9.953679409591132e-07
  outer loop
    vertex 12517.9208984375 1024.103515625 42049.98828125
    vertex 18467.919921875 1024.103881835938 42449.98828125
    vertex 12517.9208984375 1024.103881835938 42449.98828125
  endloop
endfacet
endsolid com.sketchup.SketchUp.2019
