solid com.sketchup.SketchUp.2019
facet normal -3.577038665100632e-16 5.09040119761996e-16 -1
  outer loop
    vertex 36517.921875 17774.345703125 42049.97265625
    vertex 30867.921875 13814.1767578125 42049.97265625
    vertex 30867.921875 17774.345703125 42049.97265625
  endloop
endfacet
facet normal -3.577038665100632e-16 5.09040119761996e-16 -1
  outer loop
    vertex 30867.921875 13814.1767578125 42049.97265625
    vertex 36517.921875 17774.345703125 42049.97265625
    vertex 36517.921875 13814.1767578125 42049.97265625
  endloop
endfacet
facet normal 3.577038665100632e-16 -5.09040119761996e-16 1
  outer loop
    vertex 36517.921875 13814.1767578125 42449.97265625
    vertex 30867.921875 17774.345703125 42449.97265625
    vertex 30867.921875 13814.1767578125 42449.97265625
  endloop
endfacet
facet normal 3.577038665100632e-16 -5.09040119761996e-16 1
  outer loop
    vertex 30867.921875 17774.345703125 42449.97265625
    vertex 36517.921875 13814.1767578125 42449.97265625
    vertex 36517.921875 17774.345703125 42449.97265625
  endloop
endfacet
facet normal 1 3.641712061700568e-31 -3.577038665100632e-16
  outer loop
    vertex 36517.921875 17774.345703125 42049.97265625
    vertex 36517.921875 13814.1767578125 42449.97265625
    vertex 36517.921875 13814.1767578125 42049.97265625
  endloop
endfacet
facet normal 1 3.641712061700568e-31 -3.577038665100632e-16
  outer loop
    vertex 36517.921875 13814.1767578125 42449.97265625
    vertex 36517.921875 17774.345703125 42049.97265625
    vertex 36517.921875 17774.345703125 42449.97265625
  endloop
endfacet
facet normal 0 1 5.09040119761996e-16
  outer loop
    vertex 30867.921875 17774.345703125 42449.97265625
    vertex 36517.921875 17774.345703125 42049.97265625
    vertex 30867.921875 17774.345703125 42049.97265625
  endloop
endfacet
facet normal 0 1 5.09040119761996e-16
  outer loop
    vertex 36517.921875 17774.345703125 42049.97265625
    vertex 30867.921875 17774.345703125 42449.97265625
    vertex 36517.921875 17774.345703125 42449.97265625
  endloop
endfacet
facet normal -1 0 3.577038665100632e-16
  outer loop
    vertex 30867.921875 17774.345703125 42449.97265625
    vertex 30867.921875 13814.1767578125 42049.97265625
    vertex 30867.921875 13814.1767578125 42449.97265625
  endloop
endfacet
facet normal -1 0 3.577038665100632e-16
  outer loop
    vertex 30867.921875 13814.1767578125 42049.97265625
    vertex 30867.921875 17774.345703125 42449.97265625
    vertex 30867.921875 17774.345703125 42049.97265625
  endloop
endfacet
facet normal -3.641712061700568e-31 -1 -5.09040119761996e-16
  outer loop
    vertex 36517.921875 13814.1767578125 42449.97265625
    vertex 30867.921875 13814.1767578125 42049.97265625
    vertex 36517.921875 13814.1767578125 42049.97265625
  endloop
endfacet
facet normal -3.641712061700568e-31 -1 -5.09040119761996e-16
  outer loop
    vertex 30867.921875 13814.1767578125 42049.97265625
    vertex 36517.921875 13814.1767578125 42449.97265625
    vertex 30867.921875 13814.1767578125 42449.97265625
  endloop
endfacet
endsolid com.sketchup.SketchUp.2019
