solid com.sketchup.SketchUp.2019
facet normal 3.48656840287731e-07 -5.918727197240514e-07 -1
  outer loop
    vertex 37542.4453125 12416.5947265625 46599.95703125
    vertex 18443.197265625 966.5946655273438 46599.95703125
    vertex 18443.197265625 12416.5947265625 46599.95703125
  endloop
endfacet
facet normal 3.48656840287731e-07 -5.918727197240514e-07 -1
  outer loop
    vertex 18443.197265625 966.5946655273438 46599.95703125
    vertex 37542.4453125 12416.5947265625 46599.95703125
    vertex 37542.4453125 966.5946655273438 46599.97265625
  endloop
endfacet
facet normal -3.48656840287731e-07 5.918727197240514e-07 1
  outer loop
    vertex 37542.4453125 966.5949096679688 46999.97265625
    vertex 18443.197265625 12416.5947265625 46999.95703125
    vertex 18443.197265625 966.5949096679688 46999.95703125
  endloop
endfacet
facet normal -3.48656840287731e-07 5.918727197240514e-07 1
  outer loop
    vertex 18443.197265625 12416.5947265625 46999.95703125
    vertex 37542.4453125 966.5949096679688 46999.97265625
    vertex 37542.4453125 12416.5947265625 46999.95703125
  endloop
endfacet
facet normal -4.055620856507902e-13 -1 5.815795134367363e-07
  outer loop
    vertex 37542.4453125 966.5946655273438 46599.97265625
    vertex 18443.197265625 966.5949096679688 46999.95703125
    vertex 18443.197265625 966.5946655273438 46599.95703125
  endloop
endfacet
facet normal -4.055620856507902e-13 -1 5.815795134367363e-07
  outer loop
    vertex 18443.197265625 966.5949096679688 46999.95703125
    vertex 37542.4453125 966.5946655273438 46599.97265625
    vertex 37542.4453125 966.5949096679688 46999.97265625
  endloop
endfacet
facet normal -1 -4.365805958679462e-20 -3.48656840287731e-07
  outer loop
    vertex 18443.197265625 966.5949096679688 46999.95703125
    vertex 18443.197265625 12416.5947265625 46599.95703125
    vertex 18443.197265625 966.5946655273438 46599.95703125
  endloop
endfacet
facet normal -1 -4.365805958679462e-20 -3.48656840287731e-07
  outer loop
    vertex 18443.197265625 12416.5947265625 46599.95703125
    vertex 18443.197265625 966.5949096679688 46999.95703125
    vertex 18443.197265625 12416.5947265625 46999.95703125
  endloop
endfacet
facet normal 0 1 -5.815795134367363e-07
  outer loop
    vertex 18443.197265625 12416.5947265625 46999.95703125
    vertex 37542.4453125 12416.5947265625 46599.95703125
    vertex 18443.197265625 12416.5947265625 46599.95703125
  endloop
endfacet
facet normal 0 1 -5.815795134367363e-07
  outer loop
    vertex 37542.4453125 12416.5947265625 46599.95703125
    vertex 18443.197265625 12416.5947265625 46999.95703125
    vertex 37542.4453125 12416.5947265625 46999.95703125
  endloop
endfacet
facet normal 1 4.127209099653861e-13 3.48656840287731e-07
  outer loop
    vertex 37542.4453125 12416.5947265625 46599.95703125
    vertex 37542.4453125 966.5949096679688 46999.97265625
    vertex 37542.4453125 966.5946655273438 46599.97265625
  endloop
endfacet
facet normal 1 4.127209099653861e-13 3.48656840287731e-07
  outer loop
    vertex 37542.4453125 966.5949096679688 46999.97265625
    vertex 37542.4453125 12416.5947265625 46599.95703125
    vertex 37542.4453125 12416.5947265625 46999.95703125
  endloop
endfacet
endsolid com.sketchup.SketchUp.2019
