solid com.sketchup.SketchUp.2019
facet normal -2.712577731878163e-11 -1.198714196480599e-12 -1
  outer loop
    vertex -2346.01025390625 994.1986694335938 46599.97265625
    vertex -2346.832763671875 953.2247314453125 46599.97265625
    vertex -2347.5185546875 953.2110595703125 46599.97265625
  endloop
endfacet
facet normal -2.712577731878163e-11 -1.198714196480599e-12 -1
  outer loop
    vertex -2346.832763671875 953.2247314453125 46599.97265625
    vertex -2346.01025390625 994.1986694335938 46599.97265625
    vertex -2346.01708984375 911.1279907226562 46599.97265625
  endloop
endfacet
facet normal -2.712577731878163e-11 -1.198714196480599e-12 -1
  outer loop
    vertex -2346.01708984375 911.1279907226562 46599.97265625
    vertex -2341.062744140625 748.95166015625 46599.97265625
    vertex -2346.2900390625 911.12255859375 46599.97265625
  endloop
endfacet
facet normal -2.712577731878163e-11 -1.198714196480599e-12 -1
  outer loop
    vertex -2341.062744140625 748.95166015625 46599.97265625
    vertex -2346.01708984375 911.1279907226562 46599.97265625
    vertex -2346.01025390625 994.1986694335938 46599.97265625
  endloop
endfacet
facet normal -2.712577731878163e-11 -1.198714196480599e-12 -1
  outer loop
    vertex -2341.062744140625 748.95166015625 46599.97265625
    vertex -2346.01025390625 994.1986694335938 46599.97265625
    vertex -2277.160400390625 2865.316650390625 46599.97265625
  endloop
endfacet
facet normal -2.712577731878163e-11 -1.198714196480599e-12 -1
  outer loop
    vertex -2341.062744140625 748.95166015625 46599.97265625
    vertex -2277.160400390625 2865.316650390625 46599.97265625
    vertex -2321.504150390625 547.4177856445312 46599.97265625
  endloop
endfacet
facet normal -2.712577731878163e-11 -1.198714196480599e-12 -1
  outer loop
    vertex -2321.504150390625 547.4177856445312 46599.97265625
    vertex -2277.160400390625 2865.316650390625 46599.97265625
    vertex -2288.994873046875 347.6133728027344 46599.97265625
  endloop
endfacet
facet normal -2.712577731878163e-11 -1.198714196480599e-12 -1
  outer loop
    vertex -2288.994873046875 347.6133728027344 46599.97265625
    vertex -2277.160400390625 2865.316650390625 46599.97265625
    vertex -2243.674560546875 150.3941497802734 46599.97265625
  endloop
endfacet
facet normal -2.712577731878163e-11 -1.198714196480599e-12 -1
  outer loop
    vertex -2243.674560546875 150.3941497802734 46599.97265625
    vertex -2277.160400390625 2865.316650390625 46599.97265625
    vertex -2273.2578125 2971.37451171875 46599.97265625
  endloop
endfacet
facet normal -2.712577731878163e-11 -1.198714196480599e-12 -1
  outer loop
    vertex -2243.674560546875 150.3941497802734 46599.97265625
    vertex -2273.2578125 2971.37451171875 46599.97265625
    vertex -2069.55908203125 4958.51806640625 46599.97265625
  endloop
endfacet
facet normal -2.712577731878163e-11 -1.198714196480599e-12 -1
  outer loop
    vertex -2243.674560546875 150.3941497802734 46599.97265625
    vertex -2069.55908203125 4958.51806640625 46599.97265625
    vertex -2205.296142578125 22.02665710449219 46599.97265625
  endloop
endfacet
facet normal -2.712577731878163e-11 -1.198714196480599e-12 -1
  outer loop
    vertex -2205.296142578125 22.02665710449219 46599.97265625
    vertex -2069.55908203125 4958.51806640625 46599.97265625
    vertex -2185.73681640625 -43.39525985717773 46599.97265625
  endloop
endfacet
facet normal -2.712577731878163e-11 -1.198714196480599e-12 -1
  outer loop
    vertex -2185.73681640625 -43.39525985717773 46599.97265625
    vertex -2069.55908203125 4958.51806640625 46599.97265625
    vertex -2115.43017578125 -232.9249267578125 46599.97265625
  endloop
endfacet
facet normal -2.712577731878163e-11 -1.198714196480599e-12 -1
  outer loop
    vertex -2115.43017578125 -232.9249267578125 46599.97265625
    vertex -2069.55908203125 4958.51806640625 46599.97265625
    vertex -2033.055541992188 -417.3831481933594 46599.97265625
  endloop
endfacet
facet normal -2.712577731878163e-11 -1.198714196480599e-12 -1
  outer loop
    vertex -2033.055541992188 -417.3831481933594 46599.97265625
    vertex -2069.55908203125 4958.51806640625 46599.97265625
    vertex -2067.15625 4981.95947265625 46599.97265625
  endloop
endfacet
facet normal -2.712577731878163e-11 -1.198714196480599e-12 -1
  outer loop
    vertex -2033.055541992188 -417.3831481933594 46599.97265625
    vertex -2067.15625 4981.95947265625 46599.97265625
    vertex -1730.188232421875 6974.26904296875 46599.97265625
  endloop
endfacet
facet normal -2.712577731878163e-11 -1.198714196480599e-12 -1
  outer loop
    vertex -2033.055541992188 -417.3831481933594 46599.97265625
    vertex -1730.188232421875 6974.26904296875 46599.97265625
    vertex -1938.965576171875 -595.9799194335938 46599.97265625
  endloop
endfacet
facet normal -2.712577731878163e-11 -1.198714196480599e-12 -1
  outer loop
    vertex -1938.965576171875 -595.9799194335938 46599.97265625
    vertex -1730.188232421875 6974.26904296875 46599.97265625
    vertex -1833.5634765625 -767.9503784179688 46599.97265625
  endloop
endfacet
facet normal -2.712577731878163e-11 -1.198714196480599e-12 -1
  outer loop
    vertex -1833.5634765625 -767.9503784179688 46599.97265625
    vertex -1730.188232421875 6974.26904296875 46599.97265625
    vertex -1769.83154296875 -858.1834716796875 46599.97265625
  endloop
endfacet
facet normal -2.712577731878163e-11 -1.198714196480599e-12 -1
  outer loop
    vertex -1769.83154296875 -858.1834716796875 46599.97265625
    vertex -1730.188232421875 6974.26904296875 46599.97265625
    vertex -1717.300537109375 -932.55810546875 46599.97265625
  endloop
endfacet
facet normal -2.712577731878163e-11 -1.198714196480599e-12 -1
  outer loop
    vertex -1717.300537109375 -932.55810546875 46599.97265625
    vertex -1730.188232421875 6974.26904296875 46599.97265625
    vertex -1391.011352539062 8403.6064453125 46599.97265625
  endloop
endfacet
facet normal -2.712577731878163e-11 -1.198714196480599e-12 -1
  outer loop
    vertex -1717.300537109375 -932.55810546875 46599.97265625
    vertex -1391.011352539062 8403.6064453125 46599.97265625
    vertex -1590.674682617188 -1089.098022460938 46599.97265625
  endloop
endfacet
facet normal -2.712577731878163e-11 -1.198714196480599e-12 -1
  outer loop
    vertex -1590.674682617188 -1089.098022460938 46599.97265625
    vertex -1391.011352539062 8403.6064453125 46599.97265625
    vertex -1454.228271484375 -1236.899658203125 46599.97265625
  endloop
endfacet
facet normal -2.712577731878163e-11 -1.198714196480599e-12 -1
  outer loop
    vertex -1454.228271484375 -1236.899658203125 46599.97265625
    vertex -1391.011352539062 8403.6064453125 46599.97265625
    vertex -1308.545532226562 -1375.330322265625 46599.97265625
  endloop
endfacet
facet normal -2.712577731878163e-11 -1.198714196480599e-12 -1
  outer loop
    vertex -1308.545532226562 -1375.330322265625 46599.97265625
    vertex -1391.011352539062 8403.6064453125 46599.97265625
    vertex -1263.835205078125 8939.5439453125 46599.97265625
  endloop
endfacet
facet normal -2.712577731878163e-11 -1.198714196480599e-12 -1
  outer loop
    vertex -1308.545532226562 -1375.330322265625 46599.97265625
    vertex -1263.835205078125 8939.5439453125 46599.97265625
    vertex -1154.25048828125 -1503.796752929688 46599.97265625
  endloop
endfacet
facet normal -2.712577731878163e-11 -1.198714196480599e-12 -1
  outer loop
    vertex -1154.25048828125 -1503.796752929688 46599.97265625
    vertex -1263.835205078125 8939.5439453125 46599.97265625
    vertex -807.8671264648438 10421.529296875 46599.97265625
  endloop
endfacet
facet normal -2.712577731878163e-11 -1.198714196480599e-12 -1
  outer loop
    vertex -1154.25048828125 -1503.796752929688 46599.97265625
    vertex -807.8671264648438 10421.529296875 46599.97265625
    vertex -1083.023315429688 -1555.578491210938 46599.97265625
  endloop
endfacet
facet normal -2.712577731878163e-11 -1.198714196480599e-12 -1
  outer loop
    vertex -1083.023315429688 -1555.578491210938 46599.97265625
    vertex -807.8671264648438 10421.529296875 46599.97265625
    vertex -992.0039672851562 -1621.749145507812 46599.97265625
  endloop
endfacet
facet normal -2.712577731878163e-11 -1.198714196480599e-12 -1
  outer loop
    vertex -992.0039672851562 -1621.749145507812 46599.97265625
    vertex -807.8671264648438 10421.529296875 46599.97265625
    vertex -822.5006713867188 -1728.682006835938 46599.97265625
  endloop
endfacet
facet normal -2.712577731878163e-11 -1.198714196480599e-12 -1
  outer loop
    vertex -822.5006713867188 -1728.682006835938 46599.97265625
    vertex -807.8671264648438 10421.529296875 46599.97265625
    vertex -646.4666748046875 -1824.1376953125 46599.97265625
  endloop
endfacet
facet normal -2.712577731878163e-11 -1.198714196480599e-12 -1
  outer loop
    vertex -646.4666748046875 -1824.1376953125 46599.97265625
    vertex -807.8671264648438 10421.529296875 46599.97265625
    vertex -670.147216796875 10869.1455078125 46599.97265625
  endloop
endfacet
facet normal -2.712577731878163e-11 -1.198714196480599e-12 -1
  outer loop
    vertex -646.4666748046875 -1824.1376953125 46599.97265625
    vertex -670.147216796875 10869.1455078125 46599.97265625
    vertex 48.26594924926758 12754.591796875 46599.97265625
  endloop
endfacet
facet normal -2.712577731878163e-11 -1.198714196480599e-12 -1
  outer loop
    vertex -646.4666748046875 -1824.1376953125 46599.97265625
    vertex 48.26594924926758 12754.591796875 46599.97265625
    vertex -464.6558227539062 -1907.707153320312 46599.97265625
  endloop
endfacet
facet normal -2.712577731878163e-11 -1.198714196480599e-12 -1
  outer loop
    vertex -464.6558227539062 -1907.707153320312 46599.97265625
    vertex 48.26594924926758 12754.591796875 46599.97265625
    vertex -277.8467712402344 -1979.032592773438 46599.97265625
  endloop
endfacet
facet normal -2.712577731878163e-11 -1.198714196480599e-12 -1
  outer loop
    vertex -277.8467712402344 -1979.032592773438 46599.97265625
    vertex 48.26594924926758 12754.591796875 46599.97265625
    vertex -215.583251953125 -1998.192016601562 46599.97265625
  endloop
endfacet
facet normal -2.712577731878163e-11 -1.198714196480599e-12 -1
  outer loop
    vertex -215.583251953125 -1998.192016601562 46599.97265625
    vertex 48.26594924926758 12754.591796875 46599.97265625
    vertex -137.9955444335938 -2022.002685546875 46599.97265625
  endloop
endfacet
facet normal -2.712577731878163e-11 -1.198714196480599e-12 -1
  outer loop
    vertex -137.9955444335938 -2022.002685546875 46599.97265625
    vertex 48.26594924926758 12754.591796875 46599.97265625
    vertex -59.80712509155273 -2043.696533203125 46599.97265625
  endloop
endfacet
facet normal -2.712577731878163e-11 -1.198714196480599e-12 -1
  outer loop
    vertex -59.80712509155273 -2043.696533203125 46599.97265625
    vertex 48.26594924926758 12754.591796875 46599.97265625
    vertex 18.92593193054199 -2063.2578125 46599.97265625
  endloop
endfacet
facet normal -2.712577731878163e-11 -1.198714196480599e-12 -1
  outer loop
    vertex 18.92593193054199 -2063.2578125 46599.97265625
    vertex 48.26594924926758 12754.591796875 46599.97265625
    vertex 98.14712524414062 -2080.6728515625 46599.97265625
  endloop
endfacet
facet normal -2.712577731878163e-11 -1.198714196480599e-12 -1
  outer loop
    vertex 98.14712524414062 -2080.6728515625 46599.97265625
    vertex 48.26594924926758 12754.591796875 46599.97265625
    vertex 93.19677734375 12872.5107421875 46599.97265625
  endloop
endfacet
facet normal -2.712577731878163e-11 -1.198714196480599e-12 -1
  outer loop
    vertex 98.14712524414062 -2080.6728515625 46599.97265625
    vertex 93.19677734375 12872.5107421875 46599.97265625
    vertex 152.4130706787109 12872.5107421875 46599.97265625
  endloop
endfacet
facet normal -2.712577731878163e-11 -1.198714196480599e-12 -1
  outer loop
    vertex 98.14712524414062 -2080.6728515625 46599.97265625
    vertex 152.4130706787109 12872.5107421875 46599.97265625
    vertex 177.7996215820312 -2095.9287109375 46599.97265625
  endloop
endfacet
facet normal -2.712577731878163e-11 -1.198714196480599e-12 -1
  outer loop
    vertex 177.7996215820312 -2095.9287109375 46599.97265625
    vertex 152.4130706787109 12872.5107421875 46599.97265625
    vertex 1002.4130859375 12872.5107421875 46599.97265625
  endloop
endfacet
facet normal -2.712577731878163e-11 -1.198714196480599e-12 -1
  outer loop
    vertex 177.7996215820312 -2095.9287109375 46599.97265625
    vertex 1002.4130859375 12872.5107421875 46599.97265625
    vertex 257.8262939453125 -2109.014892578125 46599.97265625
  endloop
endfacet
facet normal -2.712577731878163e-11 -1.198714196480599e-12 -1
  outer loop
    vertex 257.8262939453125 -2109.014892578125 46599.97265625
    vertex 1002.4130859375 12872.5107421875 46599.97265625
    vertex 338.169677734375 -2119.921630859375 46599.97265625
  endloop
endfacet
facet normal -2.712577731878163e-11 -1.198714196480599e-12 -1
  outer loop
    vertex 338.169677734375 -2119.921630859375 46599.97265625
    vertex 1002.4130859375 12872.5107421875 46599.97265625
    vertex 418.7721862792969 -2128.641357421875 46599.97265625
  endloop
endfacet
facet normal -2.712577731878163e-11 -1.198714196480599e-12 -1
  outer loop
    vertex 418.7721862792969 -2128.641357421875 46599.97265625
    vertex 1002.4130859375 12872.5107421875 46599.97265625
    vertex 499.5759582519531 -2135.167724609375 46599.97265625
  endloop
endfacet
facet normal -2.712577731878163e-11 -1.198714196480599e-12 -1
  outer loop
    vertex 499.5759582519531 -2135.167724609375 46599.97265625
    vertex 1002.4130859375 12872.5107421875 46599.97265625
    vertex 580.5230102539062 -2139.495849609375 46599.97265625
  endloop
endfacet
facet normal -2.712577731878163e-11 -1.198714196480599e-12 -1
  outer loop
    vertex 580.5230102539062 -2139.495849609375 46599.97265625
    vertex 1002.4130859375 12872.5107421875 46599.97265625
    vertex 661.5552978515625 -2141.623046875 46599.97265625
  endloop
endfacet
facet normal -2.712577731878163e-11 -1.198714196480599e-12 -1
  outer loop
    vertex 661.5552978515625 -2141.623046875 46599.97265625
    vertex 1002.4130859375 12872.5107421875 46599.97265625
    vertex 742.6146240234375 -2141.54736328125 46599.97265625
  endloop
endfacet
facet normal -2.712577731878163e-11 -1.198714196480599e-12 -1
  outer loop
    vertex 742.6146240234375 -2141.54736328125 46599.97265625
    vertex 1002.4130859375 12872.5107421875 46599.97265625
    vertex 1626.8310546875 -2104.79345703125 46599.97265625
  endloop
endfacet
facet normal -2.712577731878163e-11 -1.198714196480599e-12 -1
  outer loop
    vertex 1626.8310546875 -2104.79345703125 46599.97265625
    vertex 1002.4130859375 12872.5107421875 46599.97265625
    vertex 6345.87451171875 12872.5107421875 46599.97265625
  endloop
endfacet
facet normal -2.712577731878163e-11 -1.198714196480599e-12 -1
  outer loop
    vertex 1626.8310546875 -2104.79345703125 46599.97265625
    vertex 6345.87451171875 12872.5107421875 46599.97265625
    vertex 2546.552978515625 -2004.760131835938 46599.97265625
  endloop
endfacet
facet normal -2.712577731878163e-11 -1.198714196480599e-12 -1
  outer loop
    vertex 2546.552978515625 -2004.760131835938 46599.97265625
    vertex 6345.87451171875 12872.5107421875 46599.97265625
    vertex 3457.7939453125 -1843.543823242188 46599.97265625
  endloop
endfacet
facet normal -2.712577731878163e-11 -1.198714196480599e-12 -1
  outer loop
    vertex 3457.7939453125 -1843.543823242188 46599.97265625
    vertex 6345.87451171875 12872.5107421875 46599.97265625
    vertex 3527.737060546875 -1826.291748046875 46599.97265625
  endloop
endfacet
facet normal -2.712577731878163e-11 -1.198714196480599e-12 -1
  outer loop
    vertex 3527.737060546875 -1826.291748046875 46599.97265625
    vertex 6345.87451171875 12872.5107421875 46599.97265625
    vertex 4356.6044921875 -1621.843383789062 46599.97265625
  endloop
endfacet
facet normal -2.712577731878163e-11 -1.198714196480599e-12 -1
  outer loop
    vertex 4356.6044921875 -1621.843383789062 46599.97265625
    vertex 6345.87451171875 12872.5107421875 46599.97265625
    vertex 5239.08935546875 -1340.619506835938 46599.97265625
  endloop
endfacet
facet normal -2.712577731878163e-11 -1.198714196480599e-12 -1
  outer loop
    vertex 5239.08935546875 -1340.619506835938 46599.97265625
    vertex 6345.87451171875 12872.5107421875 46599.97265625
    vertex 5502.80517578125 -1236.785888671875 46599.97265625
  endloop
endfacet
facet normal -2.712577731878163e-11 -1.198714196480599e-12 -1
  outer loop
    vertex 5502.80517578125 -1236.785888671875 46599.97265625
    vertex 6345.87451171875 12872.5107421875 46599.97265625
    vertex 6101.42236328125 -1001.091186523438 46599.97265625
  endloop
endfacet
facet normal -2.712577731878163e-11 -1.198714196480599e-12 -1
  outer loop
    vertex 6101.42236328125 -1001.091186523438 46599.97265625
    vertex 6345.87451171875 12872.5107421875 46599.97265625
    vertex 6345.87451171875 12137.638671875 46599.97265625
  endloop
endfacet
facet normal -2.712577731878163e-11 -1.198714196480599e-12 -1
  outer loop
    vertex 6101.42236328125 -1001.091186523438 46599.97265625
    vertex 6345.87451171875 12137.638671875 46599.97265625
    vertex 6939.86669921875 -604.7301025390625 46599.97265625
  endloop
endfacet
facet normal -2.712577731878163e-11 -1.198714196480599e-12 -1
  outer loop
    vertex 6939.86669921875 -604.7301025390625 46599.97265625
    vertex 6345.87451171875 12137.638671875 46599.97265625
    vertex 8631.599609375 12137.638671875 46599.97265625
  endloop
endfacet
facet normal -2.712577731878163e-11 -1.198714196480599e-12 -1
  outer loop
    vertex 6939.86669921875 -604.7301025390625 46599.97265625
    vertex 8631.599609375 12137.638671875 46599.97265625
    vertex 7750.78857421875 -153.2541961669922 46599.97265625
  endloop
endfacet
facet normal -2.712577731878163e-11 -1.198714196480599e-12 -1
  outer loop
    vertex 7750.78857421875 -153.2541961669922 46599.97265625
    vertex 8631.599609375 12137.638671875 46599.97265625
    vertex 8530.671875 351.3796691894531 46599.97265625
  endloop
endfacet
facet normal -2.712577731878163e-11 -1.198714196480599e-12 -1
  outer loop
    vertex 8530.671875 351.3796691894531 46599.97265625
    vertex 8631.599609375 12137.638671875 46599.97265625
    vertex 8621.33203125 410.0424499511719 46599.97265625
  endloop
endfacet
facet normal -2.712577731878163e-11 -1.198714196480599e-12 -1
  outer loop
    vertex 8621.33203125 410.0424499511719 46599.97265625
    vertex 8631.599609375 12137.638671875 46599.97265625
    vertex 8631.599609375 3014.16845703125 46599.97265625
  endloop
endfacet
facet normal -2.712577731878163e-11 -1.198714196480599e-12 -1
  outer loop
    vertex 8621.33203125 410.0424499511719 46599.97265625
    vertex 8631.599609375 3014.16845703125 46599.97265625
    vertex 8631.599609375 410.0424499511719 46599.97265625
  endloop
endfacet
facet normal -2.712577731878163e-11 -1.198714196480599e-12 -1
  outer loop
    vertex 8631.599609375 12137.638671875 46599.97265625
    vertex 8631.599609375 7038.7001953125 46599.97265625
    vertex 8631.599609375 3014.16845703125 46599.97265625
  endloop
endfacet
facet normal -2.712577731878163e-11 -1.198714196480599e-12 -1
  outer loop
    vertex 8631.599609375 7038.7001953125 46599.97265625
    vertex 8631.599609375 12137.638671875 46599.97265625
    vertex 8631.599609375 9879.5126953125 46599.97265625
  endloop
endfacet
facet normal -2.712577731878163e-11 -1.198714196480599e-12 -1
  outer loop
    vertex 8631.599609375 5618.29443359375 46599.97265625
    vertex 8631.599609375 3014.16845703125 46599.97265625
    vertex 8631.599609375 7038.7001953125 46599.97265625
  endloop
endfacet
facet normal 0.2330268323421478 -0.9724702835083008 -5.188573529157914e-12
  outer loop
    vertex 4356.6044921875 -1621.843383789062 46599.97265625
    vertex 3527.737060546875 -1826.291748046875 47099.95703125
    vertex 3527.737060546875 -1826.291748046875 46599.97265625
  endloop
endfacet
facet normal 0.2330268323421478 -0.9724702835083008 -5.188573529157914e-12
  outer loop
    vertex 3527.737060546875 -1826.291748046875 47099.95703125
    vertex 4356.6044921875 -1621.843383789062 46599.97265625
    vertex 4356.6044921875 -1621.843383789062 47099.95703125
  endloop
endfacet
facet normal 0.2330268323421478 -0.9724702835083008 -5.188573529157914e-12
  outer loop
    vertex 3527.737060546875 -1826.291748046875 47099.95703125
    vertex 3457.7939453125 -1843.543823242188 46599.97265625
    vertex 3527.737060546875 -1826.291748046875 46599.97265625
  endloop
endfacet
facet normal 0.2330268323421478 -0.9724702835083008 -5.188573529157914e-12
  outer loop
    vertex 3457.7939453125 -1843.543823242188 46599.97265625
    vertex 3527.737060546875 -1826.291748046875 47099.95703125
    vertex 3457.7939453125 -1843.543823242188 47099.95703125
  endloop
endfacet
facet normal 0.1693889200687408 -0.98554927110672 -3.447114772445192e-12
  outer loop
    vertex 3457.7939453125 -1843.543823242188 47099.95703125
    vertex 2546.552978515625 -2004.760131835938 46599.97265625
    vertex 3457.7939453125 -1843.543823242188 46599.97265625
  endloop
endfacet
facet normal 0.1693889200687408 -0.98554927110672 -3.447114772445192e-12
  outer loop
    vertex 2546.552978515625 -2004.760131835938 46599.97265625
    vertex 3457.7939453125 -1843.543823242188 47099.95703125
    vertex 2546.552978515625 -2004.760131835938 47099.95703125
  endloop
endfacet
facet normal 0.1050770729780197 -0.994464099407196 -1.692224593959069e-12
  outer loop
    vertex 2546.552978515625 -2004.760131835938 47099.95703125
    vertex 1626.8310546875 -2104.79345703125 46599.97265625
    vertex 2546.552978515625 -2004.760131835938 46599.97265625
  endloop
endfacet
facet normal 0.1050770729780197 -0.994464099407196 -1.692224593959069e-12
  outer loop
    vertex 1626.8310546875 -2104.79345703125 46599.97265625
    vertex 2546.552978515625 -2004.760131835938 47099.95703125
    vertex 1626.8310546875 -2104.79345703125 47099.95703125
  endloop
endfacet
facet normal 0.04034808278083801 -0.9991856813430786 6.909790529465928e-14
  outer loop
    vertex 1626.8310546875 -2104.79345703125 46599.97265625
    vertex 742.6146240234375 -2141.54736328125 47099.95703125
    vertex 742.6146240234375 -2141.54736328125 46599.97265625
  endloop
endfacet
facet normal 0.04034808278083801 -0.9991856813430786 6.909790529465928e-14
  outer loop
    vertex 742.6146240234375 -2141.54736328125 47099.95703125
    vertex 1626.8310546875 -2104.79345703125 46599.97265625
    vertex 1626.8310546875 -2104.79345703125 47099.95703125
  endloop
endfacet
facet normal 0.0009059278527274728 -0.9999995827674866 1.139944909300805e-12
  outer loop
    vertex 742.6146240234375 -2141.54736328125 47099.95703125
    vertex 661.5552978515625 -2141.623046875 46599.97265625
    vertex 742.6146240234375 -2141.54736328125 46599.97265625
  endloop
endfacet
facet normal 0.0009059278527274728 -0.9999995827674866 1.139944909300805e-12
  outer loop
    vertex 661.5552978515625 -2141.623046875 46599.97265625
    vertex 742.6146240234375 -2141.54736328125 47099.95703125
    vertex 661.5552978515625 -2141.623046875 47099.95703125
  endloop
endfacet
facet normal -0.0254928320646286 -0.9996749758720398 1.855653868412799e-12
  outer loop
    vertex 661.5552978515625 -2141.623046875 47099.95703125
    vertex 580.5230102539062 -2139.495849609375 46599.97265625
    vertex 661.5552978515625 -2141.623046875 46599.97265625
  endloop
endfacet
facet normal -0.0254928320646286 -0.9996749758720398 1.855653868412799e-12
  outer loop
    vertex 580.5230102539062 -2139.495849609375 46599.97265625
    vertex 661.5552978515625 -2141.623046875 47099.95703125
    vertex 580.5230102539062 -2139.495849609375 47099.95703125
  endloop
endfacet
facet normal -0.05187486484646797 -0.9986535906791687 2.570097563589502e-12
  outer loop
    vertex 580.5230102539062 -2139.495849609375 47099.95703125
    vertex 499.5759582519531 -2135.167724609375 46599.97265625
    vertex 580.5230102539062 -2139.495849609375 46599.97265625
  endloop
endfacet
facet normal -0.05187486484646797 -0.9986535906791687 2.570097563589502e-12
  outer loop
    vertex 499.5759582519531 -2135.167724609375 46599.97265625
    vertex 580.5230102539062 -2139.495849609375 47099.95703125
    vertex 499.5759582519531 -2135.167724609375 47099.95703125
  endloop
endfacet
facet normal -0.0782228484749794 -0.9969359040260315 3.282806752130663e-12
  outer loop
    vertex 499.5759582519531 -2135.167724609375 47099.95703125
    vertex 418.7721862792969 -2128.641357421875 46599.97265625
    vertex 499.5759582519531 -2135.167724609375 46599.97265625
  endloop
endfacet
facet normal -0.0782228484749794 -0.9969359040260315 3.282806752130663e-12
  outer loop
    vertex 418.7721862792969 -2128.641357421875 46599.97265625
    vertex 499.5759582519531 -2135.167724609375 47099.95703125
    vertex 418.7721862792969 -2128.641357421875 47099.95703125
  endloop
endfacet
facet normal -0.1045194789767265 -0.9945228099822998 3.993313058697767e-12
  outer loop
    vertex 418.7721862792969 -2128.641357421875 47099.95703125
    vertex 338.169677734375 -2119.921630859375 46599.97265625
    vertex 418.7721862792969 -2128.641357421875 46599.97265625
  endloop
endfacet
facet normal -0.1045194789767265 -0.9945228099822998 3.993313058697767e-12
  outer loop
    vertex 338.169677734375 -2119.921630859375 46599.97265625
    vertex 418.7721862792969 -2128.641357421875 47099.95703125
    vertex 338.169677734375 -2119.921630859375 47099.95703125
  endloop
endfacet
facet normal -0.1307474374771118 -0.9914156794548035 4.701148758473606e-12
  outer loop
    vertex 338.169677734375 -2119.921630859375 47099.95703125
    vertex 257.8262939453125 -2109.014892578125 46599.97265625
    vertex 338.169677734375 -2119.921630859375 46599.97265625
  endloop
endfacet
facet normal -0.1307474374771118 -0.9914156794548035 4.701148758473606e-12
  outer loop
    vertex 257.8262939453125 -2109.014892578125 46599.97265625
    vertex 338.169677734375 -2119.921630859375 47099.95703125
    vertex 257.8262939453125 -2109.014892578125 47099.95703125
  endloop
endfacet
facet normal -0.1568894386291504 -0.9876161813735962 5.405846343481402e-12
  outer loop
    vertex 257.8262939453125 -2109.014892578125 47099.95703125
    vertex 177.7996215820312 -2095.9287109375 46599.97265625
    vertex 257.8262939453125 -2109.014892578125 46599.97265625
  endloop
endfacet
facet normal -0.1568894386291504 -0.9876161813735962 5.405846343481402e-12
  outer loop
    vertex 177.7996215820312 -2095.9287109375 46599.97265625
    vertex 257.8262939453125 -2109.014892578125 47099.95703125
    vertex 177.7996215820312 -2095.9287109375 47099.95703125
  endloop
endfacet
facet normal -0.1829281896352768 -0.9831262826919556 6.106939173106118e-12
  outer loop
    vertex 177.7996215820312 -2095.9287109375 47099.95703125
    vertex 98.14712524414062 -2080.6728515625 46599.97265625
    vertex 177.7996215820312 -2095.9287109375 46599.97265625
  endloop
endfacet
facet normal -0.1829281896352768 -0.9831262826919556 6.106939173106118e-12
  outer loop
    vertex 98.14712524414062 -2080.6728515625 46599.97265625
    vertex 177.7996215820312 -2095.9287109375 47099.95703125
    vertex 98.14712524414062 -2080.6728515625 47099.95703125
  endloop
endfacet
facet normal -0.2088464349508286 -0.9779484272003174 6.803961907775324e-12
  outer loop
    vertex 98.14712524414062 -2080.6728515625 47099.95703125
    vertex 18.92593193054199 -2063.2578125 46599.97265625
    vertex 98.14712524414062 -2080.6728515625 46599.97265625
  endloop
endfacet
facet normal -0.2088464349508286 -0.9779484272003174 6.803961907775324e-12
  outer loop
    vertex 18.92593193054199 -2063.2578125 46599.97265625
    vertex 98.14712524414062 -2080.6728515625 47099.95703125
    vertex 18.92593193054199 -2063.2578125 47099.95703125
  endloop
endfacet
facet normal -0.2346269190311432 -0.9720854759216309 7.496450508959196e-12
  outer loop
    vertex 18.92593193054199 -2063.2578125 47099.95703125
    vertex -59.80712509155273 -2043.696533203125 46599.97265625
    vertex 18.92593193054199 -2063.2578125 46599.97265625
  endloop
endfacet
facet normal -0.2346269190311432 -0.9720854759216309 7.496450508959196e-12
  outer loop
    vertex -59.80712509155273 -2043.696533203125 46599.97265625
    vertex 18.92593193054199 -2063.2578125 47099.95703125
    vertex -59.80712509155273 -2043.696533203125 47099.95703125
  endloop
endfacet
facet normal -0.2602524161338806 -0.9655405879020691 8.18394050444704e-12
  outer loop
    vertex -59.80712509155273 -2043.696533203125 47099.95703125
    vertex -137.9955444335938 -2022.002685546875 46599.97265625
    vertex -59.80712509155273 -2043.696533203125 46599.97265625
  endloop
endfacet
facet normal -0.2602524161338806 -0.9655405879020691 8.18394050444704e-12
  outer loop
    vertex -137.9955444335938 -2022.002685546875 46599.97265625
    vertex -59.80712509155273 -2043.696533203125 47099.95703125
    vertex -137.9955444335938 -2022.002685546875 47099.95703125
  endloop
endfacet
facet normal -0.2857057750225067 -0.9583173990249634 8.865970457794248e-12
  outer loop
    vertex -137.9955444335938 -2022.002685546875 47099.95703125
    vertex -215.583251953125 -1998.192016601562 46599.97265625
    vertex -137.9955444335938 -2022.002685546875 46599.97265625
  endloop
endfacet
facet normal -0.2857057750225067 -0.9583173990249634 8.865970457794248e-12
  outer loop
    vertex -215.583251953125 -1998.192016601562 46599.97265625
    vertex -137.9955444335938 -2022.002685546875 47099.95703125
    vertex -215.583251953125 -1998.192016601562 47099.95703125
  endloop
endfacet
facet normal -0.2864140868186951 -0.9581059217453003 8.884937924280578e-12
  outer loop
    vertex -215.583251953125 -1998.192016601562 47099.95703125
    vertex -277.8467712402344 -1979.032592773438 46599.97265625
    vertex -215.583251953125 -1998.192016601562 46599.97265625
  endloop
endfacet
facet normal -0.2864140868186951 -0.9581059217453003 8.884937924280578e-12
  outer loop
    vertex -277.8467712402344 -1979.032592773438 46599.97265625
    vertex -215.583251953125 -1998.192016601562 47099.95703125
    vertex -277.8467712402344 -1979.032592773438 47099.95703125
  endloop
endfacet
facet normal -0.3477656245231628 -0.937581479549408 1.052524473826866e-11
  outer loop
    vertex -277.8467712402344 -1979.032592773438 47099.95703125
    vertex -464.6558227539062 -1907.707153320312 46599.97265625
    vertex -277.8467712402344 -1979.032592773438 46599.97265625
  endloop
endfacet
facet normal -0.3477656245231628 -0.937581479549408 1.052524473826866e-11
  outer loop
    vertex -464.6558227539062 -1907.707153320312 46599.97265625
    vertex -277.8467712402344 -1979.032592773438 47099.95703125
    vertex -464.6558227539062 -1907.707153320312 47099.95703125
  endloop
endfacet
facet normal -0.407734602689743 -0.9131004810333252 1.21234411398774e-11
  outer loop
    vertex -464.6558227539062 -1907.707153320312 47099.95703125
    vertex -646.4666748046875 -1824.1376953125 46599.97265625
    vertex -464.6558227539062 -1907.707153320312 46599.97265625
  endloop
endfacet
facet normal -0.407734602689743 -0.9131004810333252 1.21234411398774e-11
  outer loop
    vertex -646.4666748046875 -1824.1376953125 46599.97265625
    vertex -464.6558227539062 -1907.707153320312 47099.95703125
    vertex -646.4666748046875 -1824.1376953125 47099.95703125
  endloop
endfacet
facet normal -0.4660736620426178 -0.8847458958625793 1.367291436321638e-11
  outer loop
    vertex -646.4666748046875 -1824.1376953125 47099.95703125
    vertex -822.5006713867188 -1728.682006835938 46599.97265625
    vertex -646.4666748046875 -1824.1376953125 46599.97265625
  endloop
endfacet
facet normal -0.4660736620426178 -0.8847458958625793 1.367291436321638e-11
  outer loop
    vertex -822.5006713867188 -1728.682006835938 46599.97265625
    vertex -646.4666748046875 -1824.1376953125 47099.95703125
    vertex -822.5006713867188 -1728.682006835938 47099.95703125
  endloop
endfacet
facet normal -0.5225381255149841 -0.8526158928871155 1.516714184801593e-11
  outer loop
    vertex -822.5006713867188 -1728.682006835938 47099.95703125
    vertex -992.0039672851562 -1621.749145507812 46599.97265625
    vertex -822.5006713867188 -1728.682006835938 46599.97265625
  endloop
endfacet
facet normal -0.5225381255149841 -0.8526158928871155 1.516714184801593e-11
  outer loop
    vertex -992.0039672851562 -1621.749145507812 46599.97265625
    vertex -822.5006713867188 -1728.682006835938 47099.95703125
    vertex -992.0039672851562 -1621.749145507812 47099.95703125
  endloop
endfacet
facet normal -0.576886773109436 -0.8168241381645203 1.659970945422362e-11
  outer loop
    vertex -992.0039672851562 -1621.749145507812 47099.95703125
    vertex -1083.023315429688 -1555.578491210938 46599.97265625
    vertex -992.0039672851562 -1621.749145507812 46599.97265625
  endloop
endfacet
facet normal -0.576886773109436 -0.8168241381645203 1.659970945422362e-11
  outer loop
    vertex -1083.023315429688 -1555.578491210938 46599.97265625
    vertex -992.0039672851562 -1621.749145507812 47099.95703125
    vertex -1083.023315429688 -1555.578491210938 47099.95703125
  endloop
endfacet
facet normal -0.576886773109436 -0.8168241381645203 1.659970945422362e-11
  outer loop
    vertex -1083.023315429688 -1555.578491210938 46599.97265625
    vertex -1154.25048828125 -1503.796752929688 47099.95703125
    vertex -1154.25048828125 -1503.796752929688 46599.97265625
  endloop
endfacet
facet normal -0.576886773109436 -0.8168241381645203 1.659970945422362e-11
  outer loop
    vertex -1154.25048828125 -1503.796752929688 47099.95703125
    vertex -1083.023315429688 -1555.578491210938 46599.97265625
    vertex -1083.023315429688 -1555.578491210938 47099.95703125
  endloop
endfacet
facet normal -0.6288826465606689 -0.7775002121925354 1.796434528911206e-11
  outer loop
    vertex -1154.25048828125 -1503.796752929688 47099.95703125
    vertex -1308.545532226562 -1375.330322265625 46599.97265625
    vertex -1154.25048828125 -1503.796752929688 46599.97265625
  endloop
endfacet
facet normal -0.6288826465606689 -0.7775002121925354 1.796434528911206e-11
  outer loop
    vertex -1308.545532226562 -1375.330322265625 46599.97265625
    vertex -1154.25048828125 -1503.796752929688 47099.95703125
    vertex -1308.545532226562 -1375.330322265625 47099.95703125
  endloop
endfacet
facet normal -0.6782945394515991 -0.7347900867462158 1.925494486076929e-11
  outer loop
    vertex -1308.545532226562 -1375.330322265625 47099.95703125
    vertex -1454.228271484375 -1236.899658203125 46599.97265625
    vertex -1308.545532226562 -1375.330322265625 46599.97265625
  endloop
endfacet
facet normal -0.6782945394515991 -0.7347900867462158 1.925494486076929e-11
  outer loop
    vertex -1454.228271484375 -1236.899658203125 46599.97265625
    vertex -1308.545532226562 -1375.330322265625 47099.95703125
    vertex -1454.228271484375 -1236.899658203125 47099.95703125
  endloop
endfacet
facet normal -0.7248979806900024 -0.6888562440872192 2.04656083746535e-11
  outer loop
    vertex -1454.228271484375 -1236.899658203125 47099.95703125
    vertex -1590.674682617188 -1089.098022460938 46599.97265625
    vertex -1454.228271484375 -1236.899658203125 46599.97265625
  endloop
endfacet
facet normal -0.7248979806900024 -0.6888562440872192 2.04656083746535e-11
  outer loop
    vertex -1590.674682617188 -1089.098022460938 46599.97265625
    vertex -1454.228271484375 -1236.899658203125 47099.95703125
    vertex -1590.674682617188 -1089.098022460938 47099.95703125
  endloop
endfacet
facet normal -0.7684767842292786 -0.6398776769638062 2.159067889750954e-11
  outer loop
    vertex -1590.674682617188 -1089.098022460938 47099.95703125
    vertex -1717.300537109375 -932.55810546875 46599.97265625
    vertex -1590.674682617188 -1089.098022460938 46599.97265625
  endloop
endfacet
facet normal -0.7684767842292786 -0.6398776769638062 2.159067889750954e-11
  outer loop
    vertex -1717.300537109375 -932.55810546875 46599.97265625
    vertex -1590.674682617188 -1089.098022460938 47099.95703125
    vertex -1717.300537109375 -932.55810546875 47099.95703125
  endloop
endfacet
facet normal -0.8088244199752808 -0.5880501866340637 2.262478746017926e-11
  outer loop
    vertex -1717.300537109375 -932.55810546875 47099.95703125
    vertex -1769.83154296875 -858.1834716796875 46599.97265625
    vertex -1717.300537109375 -932.55810546875 46599.97265625
  endloop
endfacet
facet normal -0.8088244199752808 -0.5880501866340637 2.262478746017926e-11
  outer loop
    vertex -1769.83154296875 -858.1834716796875 46599.97265625
    vertex -1717.300537109375 -932.55810546875 47099.95703125
    vertex -1769.83154296875 -858.1834716796875 47099.95703125
  endloop
endfacet
facet normal -0.8088244199752808 -0.5880501866340637 2.262478746017926e-11
  outer loop
    vertex -1769.83154296875 -858.1834716796875 47099.95703125
    vertex -1833.5634765625 -767.9503784179688 46599.97265625
    vertex -1769.83154296875 -858.1834716796875 46599.97265625
  endloop
endfacet
facet normal -0.8088244199752808 -0.5880501866340637 2.262478746017926e-11
  outer loop
    vertex -1833.5634765625 -767.9503784179688 46599.97265625
    vertex -1769.83154296875 -858.1834716796875 47099.95703125
    vertex -1833.5634765625 -767.9503784179688 47099.95703125
  endloop
endfacet
facet normal -0.8457459211349487 -0.533585786819458 2.356288775207105e-11
  outer loop
    vertex -1833.5634765625 -767.9503784179688 47099.95703125
    vertex -1938.965576171875 -595.9799194335938 46599.97265625
    vertex -1833.5634765625 -767.9503784179688 46599.97265625
  endloop
endfacet
facet normal -0.8457459211349487 -0.533585786819458 2.356288775207105e-11
  outer loop
    vertex -1938.965576171875 -595.9799194335938 46599.97265625
    vertex -1833.5634765625 -767.9503784179688 47099.95703125
    vertex -1938.965576171875 -595.9799194335938 47099.95703125
  endloop
endfacet
facet normal -0.8790593147277832 -0.4767123460769653 2.440030816286409e-11
  outer loop
    vertex -1938.965576171875 -595.9799194335938 47099.95703125
    vertex -2033.055541992188 -417.3831481933594 46599.97265625
    vertex -1938.965576171875 -595.9799194335938 46599.97265625
  endloop
endfacet
facet normal -0.8790593147277832 -0.4767123460769653 2.440030816286409e-11
  outer loop
    vertex -2033.055541992188 -417.3831481933594 46599.97265625
    vertex -1938.965576171875 -595.9799194335938 47099.95703125
    vertex -2033.055541992188 -417.3831481933594 47099.95703125
  endloop
endfacet
facet normal -0.908597469329834 -0.4176728427410126 2.51328020894892e-11
  outer loop
    vertex -2033.055541992188 -417.3831481933594 47099.95703125
    vertex -2115.43017578125 -232.9249267578125 46599.97265625
    vertex -2033.055541992188 -417.3831481933594 46599.97265625
  endloop
endfacet
facet normal -0.908597469329834 -0.4176728427410126 2.51328020894892e-11
  outer loop
    vertex -2115.43017578125 -232.9249267578125 46599.97265625
    vertex -2033.055541992188 -417.3831481933594 47099.95703125
    vertex -2115.43017578125 -232.9249267578125 47099.95703125
  endloop
endfacet
facet normal -0.9342096447944641 -0.3567244410514832 2.575657569170442e-11
  outer loop
    vertex -2115.43017578125 -232.9249267578125 47099.95703125
    vertex -2185.73681640625 -43.39525985717773 46599.97265625
    vertex -2115.43017578125 -232.9249267578125 46599.97265625
  endloop
endfacet
facet normal -0.9342096447944641 -0.3567244410514832 2.575657569170442e-11
  outer loop
    vertex -2185.73681640625 -43.39525985717773 46599.97265625
    vertex -2115.43017578125 -232.9249267578125 47099.95703125
    vertex -2185.73681640625 -43.39525985717773 47099.95703125
  endloop
endfacet
facet normal -0.9557632207870483 -0.294137179851532 2.626834860741667e-11
  outer loop
    vertex -2185.73681640625 -43.39525985717773 47099.95703125
    vertex -2205.296142578125 22.02665710449219 46599.97265625
    vertex -2185.73681640625 -43.39525985717773 46599.97265625
  endloop
endfacet
facet normal -0.9557632207870483 -0.294137179851532 2.626834860741667e-11
  outer loop
    vertex -2205.296142578125 22.02665710449219 46599.97265625
    vertex -2185.73681640625 -43.39525985717773 47099.95703125
    vertex -2205.296142578125 22.02665710449219 47099.95703125
  endloop
endfacet
facet normal -0.9557632207870483 -0.294137179851532 2.626834860741667e-11
  outer loop
    vertex -2205.296142578125 22.02665710449219 47099.95703125
    vertex -2243.674560546875 150.3941497802734 46599.97265625
    vertex -2205.296142578125 22.02665710449219 46599.97265625
  endloop
endfacet
facet normal -0.9557632207870483 -0.294137179851532 2.626834860741667e-11
  outer loop
    vertex -2243.674560546875 150.3941497802734 46599.97265625
    vertex -2205.296142578125 22.02665710449219 47099.95703125
    vertex -2243.674560546875 150.3941497802734 47099.95703125
  endloop
endfacet
facet normal -0.9731451272964478 -0.2301925271749496 2.666538170825739e-11
  outer loop
    vertex -2243.674560546875 150.3941497802734 47099.95703125
    vertex -2288.994873046875 347.6133728027344 46599.97265625
    vertex -2243.674560546875 150.3941497802734 46599.97265625
  endloop
endfacet
facet normal -0.9731451272964478 -0.2301925271749496 2.666538170825739e-11
  outer loop
    vertex -2288.994873046875 347.6133728027344 46599.97265625
    vertex -2243.674560546875 150.3941497802734 47099.95703125
    vertex -2288.994873046875 347.6133728027344 47099.95703125
  endloop
endfacet
facet normal -0.9862631559371948 -0.1651816666126251 2.694551179405202e-11
  outer loop
    vertex -2288.994873046875 347.6133728027344 47099.95703125
    vertex -2321.504150390625 547.4177856445312 46599.97265625
    vertex -2288.994873046875 347.6133728027344 46599.97265625
  endloop
endfacet
facet normal -0.9862631559371948 -0.1651816666126251 2.694551179405202e-11
  outer loop
    vertex -2321.504150390625 547.4177856445312 46599.97265625
    vertex -2288.994873046875 347.6133728027344 47099.95703125
    vertex -2321.504150390625 547.4177856445312 47099.95703125
  endloop
endfacet
facet normal -0.9950472116470337 -0.09940356016159058 2.710718628728959e-11
  outer loop
    vertex -2321.504150390625 547.4177856445312 47099.95703125
    vertex -2341.062744140625 748.95166015625 46599.97265625
    vertex -2321.504150390625 547.4177856445312 46599.97265625
  endloop
endfacet
facet normal -0.9950472116470337 -0.09940356016159058 2.710718628728959e-11
  outer loop
    vertex -2341.062744140625 748.95166015625 46599.97265625
    vertex -2321.504150390625 547.4177856445312 47099.95703125
    vertex -2341.062744140625 748.95166015625 47099.95703125
  endloop
endfacet
facet normal -0.9994499683380127 -0.03316286951303482 2.714947537618695e-11
  outer loop
    vertex -2341.062744140625 748.95166015625 47099.95703125
    vertex -2346.2900390625 911.12255859375 46599.97265625
    vertex -2341.062744140625 748.95166015625 46599.97265625
  endloop
endfacet
facet normal -0.9994499683380127 -0.03316286951303482 2.714947537618695e-11
  outer loop
    vertex -2346.2900390625 911.12255859375 46599.97265625
    vertex -2341.062744140625 748.95166015625 47099.95703125
    vertex -2346.2900390625 911.12255859375 47099.95703125
  endloop
endfacet
facet normal -0.01937429420650005 0.9998123049736023 -6.387579809703781e-13
  outer loop
    vertex -2346.2900390625 911.12255859375 47099.95703125
    vertex -2346.01708984375 911.1279907226562 46599.97265625
    vertex -2346.2900390625 911.12255859375 46599.97265625
  endloop
endfacet
facet normal -0.01937429420650005 0.9998123049736023 -6.387579809703781e-13
  outer loop
    vertex -2346.01708984375 911.1279907226562 46599.97265625
    vertex -2346.2900390625 911.12255859375 47099.95703125
    vertex -2346.01708984375 911.1279907226562 47099.95703125
  endloop
endfacet
facet normal -0.9998010993003845 -0.01994297467172146 2.714360680666772e-11
  outer loop
    vertex -2346.01708984375 911.1279907226562 47099.95703125
    vertex -2346.832763671875 953.2247314453125 46599.97265625
    vertex -2346.01708984375 911.1279907226562 46599.97265625
  endloop
endfacet
facet normal -0.9998010993003845 -0.01994297467172146 2.714360680666772e-11
  outer loop
    vertex -2346.832763671875 953.2247314453125 46599.97265625
    vertex -2346.01708984375 911.1279907226562 47099.95703125
    vertex -2346.832763671875 953.2247314453125 47099.95703125
  endloop
endfacet
facet normal 0.01937429420650005 -0.9998123049736023 6.387579809703781e-13
  outer loop
    vertex -2346.832763671875 953.2247314453125 47099.95703125
    vertex -2347.5185546875 953.2110595703125 46599.97265625
    vertex -2346.832763671875 953.2247314453125 46599.97265625
  endloop
endfacet
facet normal 0.01937429420650005 -0.9998123049736023 6.387579809703781e-13
  outer loop
    vertex -2347.5185546875 953.2110595703125 46599.97265625
    vertex -2346.832763671875 953.2247314453125 47099.95703125
    vertex -2347.5185546875 953.2110595703125 47099.95703125
  endloop
endfacet
facet normal -0.9992834329605103 0.03784952312707901 2.706226388815569e-11
  outer loop
    vertex -2347.5185546875 953.2110595703125 47099.95703125
    vertex -2346.01025390625 994.1986694335938 46599.97265625
    vertex -2347.5185546875 953.2110595703125 46599.97265625
  endloop
endfacet
facet normal -0.9992834329605103 0.03784952312707901 2.706226388815569e-11
  outer loop
    vertex -2346.01025390625 994.1986694335938 46599.97265625
    vertex -2347.5185546875 953.2110595703125 47099.95703125
    vertex -2346.01025390625 994.1986694335938 47099.95703125
  endloop
endfacet
facet normal -0.9992834329605103 0.03784952312707901 2.706226388815569e-11
  outer loop
    vertex -2346.01025390625 994.1986694335938 47099.95703125
    vertex -2277.160400390625 2865.316650390625 46599.97265625
    vertex -2346.01025390625 994.1986694335938 46599.97265625
  endloop
endfacet
facet normal -0.9992834329605103 0.03784952312707901 2.706226388815569e-11
  outer loop
    vertex -2277.160400390625 2865.316650390625 46599.97265625
    vertex -2346.01025390625 994.1986694335938 47099.95703125
    vertex -2277.160400390625 2865.316650390625 47099.95703125
  endloop
endfacet
facet normal -0.9992834329605103 0.03784952312707901 2.706226388815569e-11
  outer loop
    vertex -2277.160400390625 2865.316650390625 47099.95703125
    vertex -2273.2578125 2971.37451171875 46599.97265625
    vertex -2277.160400390625 2865.316650390625 46599.97265625
  endloop
endfacet
facet normal -0.9992834329605103 0.03784952312707901 2.706226388815569e-11
  outer loop
    vertex -2273.2578125 2971.37451171875 46599.97265625
    vertex -2277.160400390625 2865.316650390625 47099.95703125
    vertex -2273.2578125 2971.37451171875 47099.95703125
  endloop
endfacet
facet normal -0.9944790005683899 0.1049357205629349 2.685381604583537e-11
  outer loop
    vertex -2273.2578125 2971.37451171875 47099.95703125
    vertex -2069.55908203125 4958.51806640625 46599.97265625
    vertex -2273.2578125 2971.37451171875 46599.97265625
  endloop
endfacet
facet normal -0.9944790005683899 0.1049357205629349 2.685381604583537e-11
  outer loop
    vertex -2069.55908203125 4958.51806640625 46599.97265625
    vertex -2273.2578125 2971.37451171875 47099.95703125
    vertex -2069.55908203125 4958.51806640625 47099.95703125
  endloop
endfacet
facet normal -0.9944790005683899 0.1049357205629349 2.685381604583537e-11
  outer loop
    vertex -2069.55908203125 4958.51806640625 47099.95703125
    vertex -2067.15625 4981.95947265625 46599.97265625
    vertex -2069.55908203125 4958.51806640625 46599.97265625
  endloop
endfacet
facet normal -0.9944790005683899 0.1049357205629349 2.685381604583537e-11
  outer loop
    vertex -2067.15625 4981.95947265625 46599.97265625
    vertex -2069.55908203125 4958.51806640625 47099.95703125
    vertex -2067.15625 4981.95947265625 47099.95703125
  endloop
endfacet
facet normal -0.9851804971694946 0.1715207099914551 2.652404858249913e-11
  outer loop
    vertex -2067.15625 4981.95947265625 47099.95703125
    vertex -1730.188232421875 6974.26904296875 46599.97265625
    vertex -2067.15625 4981.95947265625 46599.97265625
  endloop
endfacet
facet normal -0.9851804971694946 0.1715207099914551 2.652404858249913e-11
  outer loop
    vertex -1730.188232421875 6974.26904296875 46599.97265625
    vertex -2067.15625 4981.95947265625 47099.95703125
    vertex -1730.188232421875 6974.26904296875 47099.95703125
  endloop
endfacet
facet normal -0.9714393019676208 0.2372881472110748 2.607472050775161e-11
  outer loop
    vertex -1730.188232421875 6974.26904296875 47099.95703125
    vertex -1391.011352539062 8403.6064453125 46599.97265625
    vertex -1730.188232421875 6974.26904296875 46599.97265625
  endloop
endfacet
facet normal -0.9714393019676208 0.2372881472110748 2.607472050775161e-11
  outer loop
    vertex -1391.011352539062 8403.6064453125 46599.97265625
    vertex -1730.188232421875 6974.26904296875 47099.95703125
    vertex -1391.011352539062 8403.6064453125 47099.95703125
  endloop
endfacet
facet normal -0.9714393019676208 0.2372881472110748 2.607472050775161e-11
  outer loop
    vertex -1391.011352539062 8403.6064453125 47099.95703125
    vertex -1263.835205078125 8939.5439453125 46599.97265625
    vertex -1391.011352539062 8403.6064453125 46599.97265625
  endloop
endfacet
facet normal -0.9714393019676208 0.2372881472110748 2.607472050775161e-11
  outer loop
    vertex -1263.835205078125 8939.5439453125 46599.97265625
    vertex -1391.011352539062 8403.6064453125 47099.95703125
    vertex -1263.835205078125 8939.5439453125 47099.95703125
  endloop
endfacet
facet normal -0.9533307552337646 0.3019278347492218 2.550823788305401e-11
  outer loop
    vertex -1263.835205078125 8939.5439453125 47099.95703125
    vertex -807.8671264648438 10421.529296875 46599.97265625
    vertex -1263.835205078125 8939.5439453125 46599.97265625
  endloop
endfacet
facet normal -0.9533307552337646 0.3019278347492218 2.550823788305401e-11
  outer loop
    vertex -807.8671264648438 10421.529296875 46599.97265625
    vertex -1263.835205078125 8939.5439453125 47099.95703125
    vertex -807.8671264648438 10421.529296875 47099.95703125
  endloop
endfacet
facet normal -0.9533307552337646 0.3019278347492218 2.550823788305401e-11
  outer loop
    vertex -807.8671264648438 10421.529296875 47099.95703125
    vertex -670.147216796875 10869.1455078125 46599.97265625
    vertex -807.8671264648438 10421.529296875 46599.97265625
  endloop
endfacet
facet normal -0.9533307552337646 0.3019278347492218 2.550823788305401e-11
  outer loop
    vertex -670.147216796875 10869.1455078125 46599.97265625
    vertex -807.8671264648438 10421.529296875 47099.95703125
    vertex -670.147216796875 10869.1455078125 47099.95703125
  endloop
endfacet
facet normal -0.9309533834457397 0.3651380836963654 2.482762433142494e-11
  outer loop
    vertex -670.147216796875 10869.1455078125 47099.95703125
    vertex 48.26594924926758 12754.591796875 46599.97265625
    vertex -670.147216796875 10869.1455078125 46599.97265625
  endloop
endfacet
facet normal -0.9309533834457397 0.3651380836963654 2.482762433142494e-11
  outer loop
    vertex 48.26594924926758 12754.591796875 46599.97265625
    vertex -670.147216796875 10869.1455078125 47099.95703125
    vertex 48.26594924926758 12754.591796875 47099.95703125
  endloop
endfacet
facet normal -0.9309533834457397 0.3651380836963654 2.482762433142494e-11
  outer loop
    vertex 48.26594924926758 12754.591796875 47099.95703125
    vertex 93.19677734375 12872.5107421875 46599.97265625
    vertex 48.26594924926758 12754.591796875 46599.97265625
  endloop
endfacet
facet normal -0.9309533834457397 0.3651380836963654 2.482762433142494e-11
  outer loop
    vertex 93.19677734375 12872.5107421875 46599.97265625
    vertex 48.26594924926758 12754.591796875 47099.95703125
    vertex 93.19677734375 12872.5107421875 47099.95703125
  endloop
endfacet
facet normal -7.738273563595577e-12 1 -1.164519327322144e-12
  outer loop
    vertex 93.19677734375 12872.5107421875 47099.95703125
    vertex 152.4130706787109 12872.5107421875 46599.97265625
    vertex 93.19677734375 12872.5107421875 46599.97265625
  endloop
endfacet
facet normal -7.738273563595577e-12 1 -1.164519327322144e-12
  outer loop
    vertex 152.4130706787109 12872.5107421875 46599.97265625
    vertex 93.19677734375 12872.5107421875 47099.95703125
    vertex 152.4130706787109 12872.5107421875 47099.95703125
  endloop
endfacet
facet normal 0 1 -1.164519327322144e-12
  outer loop
    vertex 152.4130706787109 12872.5107421875 47099.95703125
    vertex 1002.4130859375 12872.5107421875 46599.97265625
    vertex 152.4130706787109 12872.5107421875 46599.97265625
  endloop
endfacet
facet normal 0 1 -1.164519327322144e-12
  outer loop
    vertex 1002.4130859375 12872.5107421875 46599.97265625
    vertex 152.4130706787109 12872.5107421875 47099.95703125
    vertex 1002.4130859375 12872.5107421875 47099.95703125
  endloop
endfacet
facet normal 0 1 -1.164519327322144e-12
  outer loop
    vertex 1002.4130859375 12872.5107421875 47099.95703125
    vertex 6345.87451171875 12872.5107421875 46599.97265625
    vertex 1002.4130859375 12872.5107421875 46599.97265625
  endloop
endfacet
facet normal 0 1 -1.164519327322144e-12
  outer loop
    vertex 6345.87451171875 12872.5107421875 46599.97265625
    vertex 1002.4130859375 12872.5107421875 47099.95703125
    vertex 6345.87451171875 12872.5107421875 46999.95703125
  endloop
endfacet
facet normal 0 1 -1.164519327322144e-12
  outer loop
    vertex 6345.87451171875 12872.5107421875 46999.95703125
    vertex 1002.4130859375 12872.5107421875 47099.95703125
    vertex 6345.87451171875 12872.5107421875 47099.95703125
  endloop
endfacet
facet normal 7.186556037763747e-13 1 -1.164519327322144e-12
  outer loop
    vertex 6345.87451171875 12872.5107421875 46599.97265625
    vertex 6402.4130859375 12872.5107421875 46999.97265625
    vertex 6402.4130859375 12872.5107421875 46599.97265625
  endloop
endfacet
facet normal 7.186556037763747e-13 1 -1.164519327322144e-12
  outer loop
    vertex 6402.4130859375 12872.5107421875 46999.97265625
    vertex 6345.87451171875 12872.5107421875 46599.97265625
    vertex 6345.87451171875 12872.5107421875 46999.95703125
  endloop
endfacet
facet normal -8.603088944361681e-13 1 -1.164519327322144e-12
  outer loop
    vertex 6345.87451171875 12137.638671875 46599.97265625
    vertex 8631.599609375 12137.638671875 47099.95703125
    vertex 8631.599609375 12137.638671875 46599.97265625
  endloop
endfacet
facet normal -8.603088944361681e-13 1 -1.164519327322144e-12
  outer loop
    vertex 8631.599609375 12137.638671875 47099.95703125
    vertex 6345.87451171875 12137.638671875 46599.97265625
    vertex 6345.87451171875 12137.638671875 47099.95703125
  endloop
endfacet
facet normal 1 -1.009823599523382e-13 -2.712577731878163e-11
  outer loop
    vertex 8631.599609375 12137.638671875 46599.97265625
    vertex 8631.599609375 9879.5126953125 47099.95703125
    vertex 8631.599609375 9879.5126953125 46599.97265625
  endloop
endfacet
facet normal 1 -1.009823599523382e-13 -2.712577731878163e-11
  outer loop
    vertex 8631.599609375 9879.5126953125 47099.95703125
    vertex 8631.599609375 12137.638671875 46599.97265625
    vertex 8631.599609375 12137.638671875 47099.95703125
  endloop
endfacet
facet normal 1 -2.920318284069245e-12 -2.712577731878163e-11
  outer loop
    vertex 8631.599609375 9879.5126953125 46599.97265625
    vertex 8631.599609375 7038.7001953125 47099.95703125
    vertex 8631.599609375 7038.7001953125 46599.97265625
  endloop
endfacet
facet normal 1 -2.920318284069245e-12 -2.712577731878163e-11
  outer loop
    vertex 8631.599609375 7038.7001953125 47099.95703125
    vertex 8631.599609375 9879.5126953125 46599.97265625
    vertex 8631.599609375 9879.5126953125 47099.95703125
  endloop
endfacet
facet normal 1 1.556437869902618e-23 -2.712577731878163e-11
  outer loop
    vertex 8631.599609375 7038.7001953125 46599.97265625
    vertex 8631.599609375 5618.29443359375 47099.95703125
    vertex 8631.599609375 5618.29443359375 46599.97265625
  endloop
endfacet
facet normal 1 1.556437869902618e-23 -2.712577731878163e-11
  outer loop
    vertex 8631.599609375 5618.29443359375 47099.95703125
    vertex 8631.599609375 7038.7001953125 46599.97265625
    vertex 8631.599609375 7038.7001953125 47099.95703125
  endloop
endfacet
facet normal 1 -8.45802703049181e-13 -2.712577731878163e-11
  outer loop
    vertex 8631.599609375 5618.29443359375 46599.97265625
    vertex 8631.599609375 3014.16845703125 47099.95703125
    vertex 8631.599609375 3014.16845703125 46599.97265625
  endloop
endfacet
facet normal 1 -8.45802703049181e-13 -2.712577731878163e-11
  outer loop
    vertex 8631.599609375 3014.16845703125 47099.95703125
    vertex 8631.599609375 5618.29443359375 46599.97265625
    vertex 8631.599609375 5618.29443359375 47099.95703125
  endloop
endfacet
facet normal 1 1.368008787847041e-12 -2.712577731878163e-11
  outer loop
    vertex 8631.599609375 3014.16845703125 46599.97265625
    vertex 8631.599609375 410.0424499511719 47099.95703125
    vertex 8631.599609375 410.0424499511719 46599.97265625
  endloop
endfacet
facet normal 1 1.368008787847041e-12 -2.712577731878163e-11
  outer loop
    vertex 8631.599609375 410.0424499511719 47099.95703125
    vertex 8631.599609375 3014.16845703125 46599.97265625
    vertex 8631.599609375 3014.16845703125 47099.95703125
  endloop
endfacet
facet normal -8.038130379274433e-23 -1 1.164519327322144e-12
  outer loop
    vertex 8631.599609375 410.0424499511719 46599.97265625
    vertex 8621.33203125 410.0424499511719 47099.95703125
    vertex 8621.33203125 410.0424499511719 46599.97265625
  endloop
endfacet
facet normal -8.038130379274433e-23 -1 1.164519327322144e-12
  outer loop
    vertex 8621.33203125 410.0424499511719 47099.95703125
    vertex 8631.599609375 410.0424499511719 46599.97265625
    vertex 8631.599609375 410.0424499511719 47099.95703125
  endloop
endfacet
facet normal 0.5321916937828064 -0.8466238975524902 -1.345020449183831e-11
  outer loop
    vertex 8621.33203125 410.0424499511719 46599.97265625
    vertex 8530.671875 351.3796691894531 47099.95703125
    vertex 8530.671875 351.3796691894531 46599.97265625
  endloop
endfacet
facet normal 0.5321916937828064 -0.8466238975524902 -1.345020449183831e-11
  outer loop
    vertex 8530.671875 351.3796691894531 47099.95703125
    vertex 8621.33203125 410.0424499511719 46599.97265625
    vertex 8621.33203125 410.0424499511719 47099.95703125
  endloop
endfacet
facet normal 0.5321916937828064 -0.8466238975524902 -1.345020449183831e-11
  outer loop
    vertex 8530.671875 351.3796691894531 47099.95703125
    vertex 7750.78857421875 -153.2541961669922 46599.97265625
    vertex 8530.671875 351.3796691894531 46599.97265625
  endloop
endfacet
facet normal 0.5321916937828064 -0.8466238975524902 -1.345020449183831e-11
  outer loop
    vertex 7750.78857421875 -153.2541961669922 46599.97265625
    vertex 8530.671875 351.3796691894531 47099.95703125
    vertex 7750.78857421875 -153.2541961669922 47099.95703125
  endloop
endfacet
facet normal 0.475736141204834 -0.8795880675315857 -1.188041505451043e-11
  outer loop
    vertex 7750.78857421875 -153.2541961669922 47099.95703125
    vertex 6939.86669921875 -604.7301025390625 46599.97265625
    vertex 7750.78857421875 -153.2541961669922 46599.97265625
  endloop
endfacet
facet normal 0.475736141204834 -0.8795880675315857 -1.188041505451043e-11
  outer loop
    vertex 6939.86669921875 -604.7301025390625 46599.97265625
    vertex 7750.78857421875 -153.2541961669922 47099.95703125
    vertex 6939.86669921875 -604.7301025390625 47099.95703125
  endloop
endfacet
facet normal 0.4173418879508972 -0.908749520778656 -1.026246709140421e-11
  outer loop
    vertex 6939.86669921875 -604.7301025390625 47099.95703125
    vertex 6101.42236328125 -1001.091186523438 46599.97265625
    vertex 6939.86669921875 -604.7301025390625 46599.97265625
  endloop
endfacet
facet normal 0.4173418879508972 -0.908749520778656 -1.026246709140421e-11
  outer loop
    vertex 6101.42236328125 -1001.091186523438 46599.97265625
    vertex 6939.86669921875 -604.7301025390625 47099.95703125
    vertex 6101.42236328125 -1001.091186523438 47099.95703125
  endloop
endfacet
facet normal 0.3572576344013214 -0.9340058565139771 -8.603223168590635e-12
  outer loop
    vertex 6101.42236328125 -1001.091186523438 47099.95703125
    vertex 5502.80517578125 -1236.785888671875 46599.97265625
    vertex 6101.42236328125 -1001.091186523438 46599.97265625
  endloop
endfacet
facet normal 0.3572576344013214 -0.9340058565139771 -8.603223168590635e-12
  outer loop
    vertex 5502.80517578125 -1236.785888671875 46599.97265625
    vertex 6101.42236328125 -1001.091186523438 47099.95703125
    vertex 5502.80517578125 -1236.785888671875 47099.95703125
  endloop
endfacet
facet normal 0.3572576344013214 -0.9340058565139771 -8.603223168590635e-12
  outer loop
    vertex 5502.80517578125 -1236.785888671875 46599.97265625
    vertex 5239.08935546875 -1340.619506835938 47099.95703125
    vertex 5239.08935546875 -1340.619506835938 46599.97265625
  endloop
endfacet
facet normal 0.3572576344013214 -0.9340058565139771 -8.603223168590635e-12
  outer loop
    vertex 5239.08935546875 -1340.619506835938 47099.95703125
    vertex 5502.80517578125 -1236.785888671875 46599.97265625
    vertex 5502.80517578125 -1236.785888671875 47099.95703125
  endloop
endfacet
facet normal 0.2957347631454468 -0.9552701115608215 -6.909604832738836e-12
  outer loop
    vertex 5239.08935546875 -1340.619506835938 47099.95703125
    vertex 4356.6044921875 -1621.843383789062 46599.97265625
    vertex 5239.08935546875 -1340.619506835938 46599.97265625
  endloop
endfacet
facet normal 0.2957347631454468 -0.9552701115608215 -6.909604832738836e-12
  outer loop
    vertex 4356.6044921875 -1621.843383789062 46599.97265625
    vertex 5239.08935546875 -1340.619506835938 47099.95703125
    vertex 4356.6044921875 -1621.843383789062 47099.95703125
  endloop
endfacet
facet normal 1 3.662168970310596e-15 -2.712577731878163e-11
  outer loop
    vertex 6345.87451171875 12872.5107421875 46599.97265625
    vertex 6345.87451171875 12137.638671875 47099.95703125
    vertex 6345.87451171875 12137.638671875 46599.97265625
  endloop
endfacet
facet normal 1 3.662168970310596e-15 -2.712577731878163e-11
  outer loop
    vertex 6345.87451171875 12137.638671875 47099.95703125
    vertex 6345.87451171875 12872.5107421875 46599.97265625
    vertex 6345.87451171875 12872.5107421875 46999.95703125
  endloop
endfacet
facet normal 1 3.662168970310596e-15 -2.712577731878163e-11
  outer loop
    vertex 6345.87451171875 12137.638671875 47099.95703125
    vertex 6345.87451171875 12872.5107421875 46999.95703125
    vertex 6345.87451171875 12872.5107421875 47099.95703125
  endloop
endfacet
facet normal 2.712577731878163e-11 1.198714196480599e-12 1
  outer loop
    vertex -2346.832763671875 953.2247314453125 47099.95703125
    vertex -2346.01025390625 994.1986694335938 47099.95703125
    vertex -2347.5185546875 953.2110595703125 47099.95703125
  endloop
endfacet
facet normal 2.712577731878163e-11 1.198714196480599e-12 1
  outer loop
    vertex -2346.01025390625 994.1986694335938 47099.95703125
    vertex -2346.832763671875 953.2247314453125 47099.95703125
    vertex -2346.01708984375 911.1279907226562 47099.95703125
  endloop
endfacet
facet normal 2.712577731878163e-11 1.198714196480599e-12 1
  outer loop
    vertex -2341.062744140625 748.95166015625 47099.95703125
    vertex -2346.01708984375 911.1279907226562 47099.95703125
    vertex -2346.2900390625 911.12255859375 47099.95703125
  endloop
endfacet
facet normal 2.712577731878163e-11 1.198714196480599e-12 1
  outer loop
    vertex -2346.01708984375 911.1279907226562 47099.95703125
    vertex -2341.062744140625 748.95166015625 47099.95703125
    vertex -2346.01025390625 994.1986694335938 47099.95703125
  endloop
endfacet
facet normal 2.712577731878163e-11 1.198714196480599e-12 1
  outer loop
    vertex -2346.01025390625 994.1986694335938 47099.95703125
    vertex -2341.062744140625 748.95166015625 47099.95703125
    vertex -2277.160400390625 2865.316650390625 47099.95703125
  endloop
endfacet
facet normal 2.712577731878163e-11 1.198714196480599e-12 1
  outer loop
    vertex -2277.160400390625 2865.316650390625 47099.95703125
    vertex -2341.062744140625 748.95166015625 47099.95703125
    vertex -2321.504150390625 547.4177856445312 47099.95703125
  endloop
endfacet
facet normal 2.712577731878163e-11 1.198714196480599e-12 1
  outer loop
    vertex -2277.160400390625 2865.316650390625 47099.95703125
    vertex -2321.504150390625 547.4177856445312 47099.95703125
    vertex -2288.994873046875 347.6133728027344 47099.95703125
  endloop
endfacet
facet normal 2.712577731878163e-11 1.198714196480599e-12 1
  outer loop
    vertex -2277.160400390625 2865.316650390625 47099.95703125
    vertex -2288.994873046875 347.6133728027344 47099.95703125
    vertex -2243.674560546875 150.3941497802734 47099.95703125
  endloop
endfacet
facet normal 2.712577731878163e-11 1.198714196480599e-12 1
  outer loop
    vertex -2277.160400390625 2865.316650390625 47099.95703125
    vertex -2243.674560546875 150.3941497802734 47099.95703125
    vertex -2273.2578125 2971.37451171875 47099.95703125
  endloop
endfacet
facet normal 2.712577731878163e-11 1.198714196480599e-12 1
  outer loop
    vertex -2273.2578125 2971.37451171875 47099.95703125
    vertex -2243.674560546875 150.3941497802734 47099.95703125
    vertex -2069.55908203125 4958.51806640625 47099.95703125
  endloop
endfacet
facet normal 2.712577731878163e-11 1.198714196480599e-12 1
  outer loop
    vertex -2069.55908203125 4958.51806640625 47099.95703125
    vertex -2243.674560546875 150.3941497802734 47099.95703125
    vertex -2205.296142578125 22.02665710449219 47099.95703125
  endloop
endfacet
facet normal 2.712577731878163e-11 1.198714196480599e-12 1
  outer loop
    vertex -2069.55908203125 4958.51806640625 47099.95703125
    vertex -2205.296142578125 22.02665710449219 47099.95703125
    vertex -2185.73681640625 -43.39525985717773 47099.95703125
  endloop
endfacet
facet normal 2.712577731878163e-11 1.198714196480599e-12 1
  outer loop
    vertex -2069.55908203125 4958.51806640625 47099.95703125
    vertex -2185.73681640625 -43.39525985717773 47099.95703125
    vertex -2115.43017578125 -232.9249267578125 47099.95703125
  endloop
endfacet
facet normal 2.712577731878163e-11 1.198714196480599e-12 1
  outer loop
    vertex -2069.55908203125 4958.51806640625 47099.95703125
    vertex -2115.43017578125 -232.9249267578125 47099.95703125
    vertex -2033.055541992188 -417.3831481933594 47099.95703125
  endloop
endfacet
facet normal 2.712577731878163e-11 1.198714196480599e-12 1
  outer loop
    vertex -2069.55908203125 4958.51806640625 47099.95703125
    vertex -2033.055541992188 -417.3831481933594 47099.95703125
    vertex -2067.15625 4981.95947265625 47099.95703125
  endloop
endfacet
facet normal 2.712577731878163e-11 1.198714196480599e-12 1
  outer loop
    vertex -2067.15625 4981.95947265625 47099.95703125
    vertex -2033.055541992188 -417.3831481933594 47099.95703125
    vertex -1730.188232421875 6974.26904296875 47099.95703125
  endloop
endfacet
facet normal 2.712577731878163e-11 1.198714196480599e-12 1
  outer loop
    vertex -1730.188232421875 6974.26904296875 47099.95703125
    vertex -2033.055541992188 -417.3831481933594 47099.95703125
    vertex -1938.965576171875 -595.9799194335938 47099.95703125
  endloop
endfacet
facet normal 2.712577731878163e-11 1.198714196480599e-12 1
  outer loop
    vertex -1730.188232421875 6974.26904296875 47099.95703125
    vertex -1938.965576171875 -595.9799194335938 47099.95703125
    vertex -1833.5634765625 -767.9503784179688 47099.95703125
  endloop
endfacet
facet normal 2.712577731878163e-11 1.198714196480599e-12 1
  outer loop
    vertex -1730.188232421875 6974.26904296875 47099.95703125
    vertex -1833.5634765625 -767.9503784179688 47099.95703125
    vertex -1769.83154296875 -858.1834716796875 47099.95703125
  endloop
endfacet
facet normal 2.712577731878163e-11 1.198714196480599e-12 1
  outer loop
    vertex -1730.188232421875 6974.26904296875 47099.95703125
    vertex -1769.83154296875 -858.1834716796875 47099.95703125
    vertex -1717.300537109375 -932.55810546875 47099.95703125
  endloop
endfacet
facet normal 2.712577731878163e-11 1.198714196480599e-12 1
  outer loop
    vertex -1730.188232421875 6974.26904296875 47099.95703125
    vertex -1717.300537109375 -932.55810546875 47099.95703125
    vertex -1391.011352539062 8403.6064453125 47099.95703125
  endloop
endfacet
facet normal 2.712577731878163e-11 1.198714196480599e-12 1
  outer loop
    vertex -1391.011352539062 8403.6064453125 47099.95703125
    vertex -1717.300537109375 -932.55810546875 47099.95703125
    vertex -1590.674682617188 -1089.098022460938 47099.95703125
  endloop
endfacet
facet normal 2.712577731878163e-11 1.198714196480599e-12 1
  outer loop
    vertex -1391.011352539062 8403.6064453125 47099.95703125
    vertex -1590.674682617188 -1089.098022460938 47099.95703125
    vertex -1454.228271484375 -1236.899658203125 47099.95703125
  endloop
endfacet
facet normal 2.712577731878163e-11 1.198714196480599e-12 1
  outer loop
    vertex -1391.011352539062 8403.6064453125 47099.95703125
    vertex -1454.228271484375 -1236.899658203125 47099.95703125
    vertex -1308.545532226562 -1375.330322265625 47099.95703125
  endloop
endfacet
facet normal 2.712577731878163e-11 1.198714196480599e-12 1
  outer loop
    vertex -1391.011352539062 8403.6064453125 47099.95703125
    vertex -1308.545532226562 -1375.330322265625 47099.95703125
    vertex -1263.835205078125 8939.5439453125 47099.95703125
  endloop
endfacet
facet normal 2.712577731878163e-11 1.198714196480599e-12 1
  outer loop
    vertex -1263.835205078125 8939.5439453125 47099.95703125
    vertex -1308.545532226562 -1375.330322265625 47099.95703125
    vertex -1154.25048828125 -1503.796752929688 47099.95703125
  endloop
endfacet
facet normal 2.712577731878163e-11 1.198714196480599e-12 1
  outer loop
    vertex -1263.835205078125 8939.5439453125 47099.95703125
    vertex -1154.25048828125 -1503.796752929688 47099.95703125
    vertex -807.8671264648438 10421.529296875 47099.95703125
  endloop
endfacet
facet normal 2.712577731878163e-11 1.198714196480599e-12 1
  outer loop
    vertex -807.8671264648438 10421.529296875 47099.95703125
    vertex -1154.25048828125 -1503.796752929688 47099.95703125
    vertex -1083.023315429688 -1555.578491210938 47099.95703125
  endloop
endfacet
facet normal 2.712577731878163e-11 1.198714196480599e-12 1
  outer loop
    vertex -807.8671264648438 10421.529296875 47099.95703125
    vertex -1083.023315429688 -1555.578491210938 47099.95703125
    vertex -992.0039672851562 -1621.749145507812 47099.95703125
  endloop
endfacet
facet normal 2.712577731878163e-11 1.198714196480599e-12 1
  outer loop
    vertex -807.8671264648438 10421.529296875 47099.95703125
    vertex -992.0039672851562 -1621.749145507812 47099.95703125
    vertex -822.5006713867188 -1728.682006835938 47099.95703125
  endloop
endfacet
facet normal 2.712577731878163e-11 1.198714196480599e-12 1
  outer loop
    vertex -807.8671264648438 10421.529296875 47099.95703125
    vertex -822.5006713867188 -1728.682006835938 47099.95703125
    vertex -646.4666748046875 -1824.1376953125 47099.95703125
  endloop
endfacet
facet normal 2.712577731878163e-11 1.198714196480599e-12 1
  outer loop
    vertex -807.8671264648438 10421.529296875 47099.95703125
    vertex -646.4666748046875 -1824.1376953125 47099.95703125
    vertex -670.147216796875 10869.1455078125 47099.95703125
  endloop
endfacet
facet normal 2.712577731878163e-11 1.198714196480599e-12 1
  outer loop
    vertex -670.147216796875 10869.1455078125 47099.95703125
    vertex -646.4666748046875 -1824.1376953125 47099.95703125
    vertex 48.26594924926758 12754.591796875 47099.95703125
  endloop
endfacet
facet normal 2.712577731878163e-11 1.198714196480599e-12 1
  outer loop
    vertex 48.26594924926758 12754.591796875 47099.95703125
    vertex -646.4666748046875 -1824.1376953125 47099.95703125
    vertex -464.6558227539062 -1907.707153320312 47099.95703125
  endloop
endfacet
facet normal 2.712577731878163e-11 1.198714196480599e-12 1
  outer loop
    vertex 48.26594924926758 12754.591796875 47099.95703125
    vertex -464.6558227539062 -1907.707153320312 47099.95703125
    vertex -277.8467712402344 -1979.032592773438 47099.95703125
  endloop
endfacet
facet normal 2.712577731878163e-11 1.198714196480599e-12 1
  outer loop
    vertex 48.26594924926758 12754.591796875 47099.95703125
    vertex -277.8467712402344 -1979.032592773438 47099.95703125
    vertex -215.583251953125 -1998.192016601562 47099.95703125
  endloop
endfacet
facet normal 2.712577731878163e-11 1.198714196480599e-12 1
  outer loop
    vertex 48.26594924926758 12754.591796875 47099.95703125
    vertex -215.583251953125 -1998.192016601562 47099.95703125
    vertex -137.9955444335938 -2022.002685546875 47099.95703125
  endloop
endfacet
facet normal 2.712577731878163e-11 1.198714196480599e-12 1
  outer loop
    vertex 48.26594924926758 12754.591796875 47099.95703125
    vertex -137.9955444335938 -2022.002685546875 47099.95703125
    vertex -59.80712509155273 -2043.696533203125 47099.95703125
  endloop
endfacet
facet normal 2.712577731878163e-11 1.198714196480599e-12 1
  outer loop
    vertex 48.26594924926758 12754.591796875 47099.95703125
    vertex -59.80712509155273 -2043.696533203125 47099.95703125
    vertex 18.92593193054199 -2063.2578125 47099.95703125
  endloop
endfacet
facet normal 2.712577731878163e-11 1.198714196480599e-12 1
  outer loop
    vertex 48.26594924926758 12754.591796875 47099.95703125
    vertex 18.92593193054199 -2063.2578125 47099.95703125
    vertex 98.14712524414062 -2080.6728515625 47099.95703125
  endloop
endfacet
facet normal 2.712577731878163e-11 1.198714196480599e-12 1
  outer loop
    vertex 48.26594924926758 12754.591796875 47099.95703125
    vertex 98.14712524414062 -2080.6728515625 47099.95703125
    vertex 93.19677734375 12872.5107421875 47099.95703125
  endloop
endfacet
facet normal 2.712577731878163e-11 1.198714196480599e-12 1
  outer loop
    vertex 93.19677734375 12872.5107421875 47099.95703125
    vertex 98.14712524414062 -2080.6728515625 47099.95703125
    vertex 152.4130706787109 12872.5107421875 47099.95703125
  endloop
endfacet
facet normal 2.712577731878163e-11 1.198714196480599e-12 1
  outer loop
    vertex 152.4130706787109 12872.5107421875 47099.95703125
    vertex 98.14712524414062 -2080.6728515625 47099.95703125
    vertex 177.7996215820312 -2095.9287109375 47099.95703125
  endloop
endfacet
facet normal 2.712577731878163e-11 1.198714196480599e-12 1
  outer loop
    vertex 152.4130706787109 12872.5107421875 47099.95703125
    vertex 177.7996215820312 -2095.9287109375 47099.95703125
    vertex 1002.4130859375 12872.5107421875 47099.95703125
  endloop
endfacet
facet normal 2.712577731878163e-11 1.198714196480599e-12 1
  outer loop
    vertex 1002.4130859375 12872.5107421875 47099.95703125
    vertex 177.7996215820312 -2095.9287109375 47099.95703125
    vertex 257.8262939453125 -2109.014892578125 47099.95703125
  endloop
endfacet
facet normal 2.712577731878163e-11 1.198714196480599e-12 1
  outer loop
    vertex 1002.4130859375 12872.5107421875 47099.95703125
    vertex 257.8262939453125 -2109.014892578125 47099.95703125
    vertex 338.169677734375 -2119.921630859375 47099.95703125
  endloop
endfacet
facet normal 2.712577731878163e-11 1.198714196480599e-12 1
  outer loop
    vertex 1002.4130859375 12872.5107421875 47099.95703125
    vertex 338.169677734375 -2119.921630859375 47099.95703125
    vertex 418.7721862792969 -2128.641357421875 47099.95703125
  endloop
endfacet
facet normal 2.712577731878163e-11 1.198714196480599e-12 1
  outer loop
    vertex 1002.4130859375 12872.5107421875 47099.95703125
    vertex 418.7721862792969 -2128.641357421875 47099.95703125
    vertex 499.5759582519531 -2135.167724609375 47099.95703125
  endloop
endfacet
facet normal 2.712577731878163e-11 1.198714196480599e-12 1
  outer loop
    vertex 1002.4130859375 12872.5107421875 47099.95703125
    vertex 499.5759582519531 -2135.167724609375 47099.95703125
    vertex 580.5230102539062 -2139.495849609375 47099.95703125
  endloop
endfacet
facet normal 2.712577731878163e-11 1.198714196480599e-12 1
  outer loop
    vertex 1002.4130859375 12872.5107421875 47099.95703125
    vertex 580.5230102539062 -2139.495849609375 47099.95703125
    vertex 661.5552978515625 -2141.623046875 47099.95703125
  endloop
endfacet
facet normal 2.712577731878163e-11 1.198714196480599e-12 1
  outer loop
    vertex 1002.4130859375 12872.5107421875 47099.95703125
    vertex 661.5552978515625 -2141.623046875 47099.95703125
    vertex 742.6146240234375 -2141.54736328125 47099.95703125
  endloop
endfacet
facet normal 2.712577731878163e-11 1.198714196480599e-12 1
  outer loop
    vertex 1002.4130859375 12872.5107421875 47099.95703125
    vertex 742.6146240234375 -2141.54736328125 47099.95703125
    vertex 1626.8310546875 -2104.79345703125 47099.95703125
  endloop
endfacet
facet normal 2.712577731878163e-11 1.198714196480599e-12 1
  outer loop
    vertex 1002.4130859375 12872.5107421875 47099.95703125
    vertex 1626.8310546875 -2104.79345703125 47099.95703125
    vertex 6345.87451171875 12872.5107421875 47099.95703125
  endloop
endfacet
facet normal 2.712577731878163e-11 1.198714196480599e-12 1
  outer loop
    vertex 6345.87451171875 12872.5107421875 47099.95703125
    vertex 1626.8310546875 -2104.79345703125 47099.95703125
    vertex 2546.552978515625 -2004.760131835938 47099.95703125
  endloop
endfacet
facet normal 2.712577731878163e-11 1.198714196480599e-12 1
  outer loop
    vertex 6345.87451171875 12872.5107421875 47099.95703125
    vertex 2546.552978515625 -2004.760131835938 47099.95703125
    vertex 3457.7939453125 -1843.543823242188 47099.95703125
  endloop
endfacet
facet normal 2.712577731878163e-11 1.198714196480599e-12 1
  outer loop
    vertex 6345.87451171875 12872.5107421875 47099.95703125
    vertex 3457.7939453125 -1843.543823242188 47099.95703125
    vertex 3527.737060546875 -1826.291748046875 47099.95703125
  endloop
endfacet
facet normal 2.712577731878163e-11 1.198714196480599e-12 1
  outer loop
    vertex 6345.87451171875 12872.5107421875 47099.95703125
    vertex 3527.737060546875 -1826.291748046875 47099.95703125
    vertex 4356.6044921875 -1621.843383789062 47099.95703125
  endloop
endfacet
facet normal 2.712577731878163e-11 1.198714196480599e-12 1
  outer loop
    vertex 6345.87451171875 12872.5107421875 47099.95703125
    vertex 4356.6044921875 -1621.843383789062 47099.95703125
    vertex 5239.08935546875 -1340.619506835938 47099.95703125
  endloop
endfacet
facet normal 2.712577731878163e-11 1.198714196480599e-12 1
  outer loop
    vertex 6345.87451171875 12872.5107421875 47099.95703125
    vertex 5239.08935546875 -1340.619506835938 47099.95703125
    vertex 5502.80517578125 -1236.785888671875 47099.95703125
  endloop
endfacet
facet normal 2.712577731878163e-11 1.198714196480599e-12 1
  outer loop
    vertex 6345.87451171875 12872.5107421875 47099.95703125
    vertex 5502.80517578125 -1236.785888671875 47099.95703125
    vertex 6101.42236328125 -1001.091186523438 47099.95703125
  endloop
endfacet
facet normal 2.712577731878163e-11 1.198714196480599e-12 1
  outer loop
    vertex 6345.87451171875 12872.5107421875 47099.95703125
    vertex 6101.42236328125 -1001.091186523438 47099.95703125
    vertex 6345.87451171875 12137.638671875 47099.95703125
  endloop
endfacet
facet normal 2.712577731878163e-11 1.198714196480599e-12 1
  outer loop
    vertex 6345.87451171875 12137.638671875 47099.95703125
    vertex 6101.42236328125 -1001.091186523438 47099.95703125
    vertex 6939.86669921875 -604.7301025390625 47099.95703125
  endloop
endfacet
facet normal 2.712577731878163e-11 1.198714196480599e-12 1
  outer loop
    vertex 6345.87451171875 12137.638671875 47099.95703125
    vertex 6939.86669921875 -604.7301025390625 47099.95703125
    vertex 8631.599609375 12137.638671875 47099.95703125
  endloop
endfacet
facet normal 2.712577731878163e-11 1.198714196480599e-12 1
  outer loop
    vertex 8631.599609375 12137.638671875 47099.95703125
    vertex 6939.86669921875 -604.7301025390625 47099.95703125
    vertex 7750.78857421875 -153.2541961669922 47099.95703125
  endloop
endfacet
facet normal 2.712577731878163e-11 1.198714196480599e-12 1
  outer loop
    vertex 8631.599609375 12137.638671875 47099.95703125
    vertex 7750.78857421875 -153.2541961669922 47099.95703125
    vertex 8530.671875 351.3796691894531 47099.95703125
  endloop
endfacet
facet normal 2.712577731878163e-11 1.198714196480599e-12 1
  outer loop
    vertex 8631.599609375 12137.638671875 47099.95703125
    vertex 8530.671875 351.3796691894531 47099.95703125
    vertex 8621.33203125 410.0424499511719 47099.95703125
  endloop
endfacet
facet normal 2.712577731878163e-11 1.198714196480599e-12 1
  outer loop
    vertex 8631.599609375 12137.638671875 47099.95703125
    vertex 8621.33203125 410.0424499511719 47099.95703125
    vertex 8631.599609375 3014.16845703125 47099.95703125
  endloop
endfacet
facet normal 2.712577731878163e-11 1.198714196480599e-12 1
  outer loop
    vertex 8631.599609375 3014.16845703125 47099.95703125
    vertex 8621.33203125 410.0424499511719 47099.95703125
    vertex 8631.599609375 410.0424499511719 47099.95703125
  endloop
endfacet
facet normal 2.712577731878163e-11 1.198714196480599e-12 1
  outer loop
    vertex 8631.599609375 12137.638671875 47099.95703125
    vertex 8631.599609375 7038.7001953125 47099.95703125
    vertex 8631.599609375 9879.5126953125 47099.95703125
  endloop
endfacet
facet normal 2.712577731878163e-11 1.198714196480599e-12 1
  outer loop
    vertex 8631.599609375 7038.7001953125 47099.95703125
    vertex 8631.599609375 12137.638671875 47099.95703125
    vertex 8631.599609375 3014.16845703125 47099.95703125
  endloop
endfacet
facet normal 2.712577731878163e-11 1.198714196480599e-12 1
  outer loop
    vertex 8631.599609375 7038.7001953125 47099.95703125
    vertex 8631.599609375 3014.16845703125 47099.95703125
    vertex 8631.599609375 5618.29443359375 47099.95703125
  endloop
endfacet
endsolid com.sketchup.SketchUp.2019
