solid com.sketchup.SketchUp.2019
facet normal 2.712577731878163e-11 1.191607468080391e-12 1
  outer loop
    vertex -2349.245849609375 534.0755004882812 10950
    vertex -2348.42333984375 574.8065185546875 10950
    vertex -2349.931640625 534.0618896484375 10950
  endloop
endfacet
facet normal 2.712577731878163e-11 1.191607468080391e-12 1
  outer loop
    vertex -2348.42333984375 574.8065185546875 10950
    vertex -2349.245849609375 534.0755004882812 10950
    vertex -2348.429931640625 492.2283020019531 10950
  endloop
endfacet
facet normal 2.712577731878163e-11 1.191607468080391e-12 1
  outer loop
    vertex -2343.475830078125 331.013427734375 10950
    vertex -2348.429931640625 492.2283020019531 10950
    vertex -2348.703125 492.222900390625 10950
  endloop
endfacet
facet normal 2.712577731878163e-11 1.191607468080391e-12 1
  outer loop
    vertex -2348.429931640625 492.2283020019531 10950
    vertex -2343.475830078125 331.013427734375 10950
    vertex -2348.42333984375 574.8065185546875 10950
  endloop
endfacet
facet normal 2.712577731878163e-11 1.191607468080391e-12 1
  outer loop
    vertex -2348.42333984375 574.8065185546875 10950
    vertex -2343.475830078125 331.013427734375 10950
    vertex -2279.573486328125 2434.83154296875 10950
  endloop
endfacet
facet normal 2.712577731878163e-11 1.191607468080391e-12 1
  outer loop
    vertex -2279.573486328125 2434.83154296875 10950
    vertex -2343.475830078125 331.013427734375 10950
    vertex -2323.917236328125 130.6743774414062 10950
  endloop
endfacet
facet normal 2.712577731878163e-11 1.191607468080391e-12 1
  outer loop
    vertex -2279.573486328125 2434.83154296875 10950
    vertex -2323.917236328125 130.6743774414062 10950
    vertex -2291.407958984375 -67.94544982910156 10950
  endloop
endfacet
facet normal 2.712577731878163e-11 1.191607468080391e-12 1
  outer loop
    vertex -2279.573486328125 2434.83154296875 10950
    vertex -2291.407958984375 -67.94544982910156 10950
    vertex -2246.087646484375 -263.9954528808594 10950
  endloop
endfacet
facet normal 2.712577731878163e-11 1.191607468080391e-12 1
  outer loop
    vertex -2279.573486328125 2434.83154296875 10950
    vertex -2246.087646484375 -263.9954528808594 10950
    vertex -2275.6708984375 2540.26025390625 10950
  endloop
endfacet
facet normal 2.712577731878163e-11 1.191607468080391e-12 1
  outer loop
    vertex -2275.6708984375 2540.26025390625 10950
    vertex -2246.087646484375 -263.9954528808594 10950
    vertex -2071.97216796875 4515.623046875 10950
  endloop
endfacet
facet normal 2.712577731878163e-11 1.191607468080391e-12 1
  outer loop
    vertex -2071.97216796875 4515.623046875 10950
    vertex -2246.087646484375 -263.9954528808594 10950
    vertex -2207.709228515625 -391.6018981933594 10950
  endloop
endfacet
facet normal 2.712577731878163e-11 1.191607468080391e-12 1
  outer loop
    vertex -2071.97216796875 4515.623046875 10950
    vertex -2207.709228515625 -391.6018981933594 10950
    vertex -2188.14990234375 -456.6359558105469 10950
  endloop
endfacet
facet normal 2.712577731878163e-11 1.191607468080391e-12 1
  outer loop
    vertex -2071.97216796875 4515.623046875 10950
    vertex -2188.14990234375 -456.6359558105469 10950
    vertex -2117.84326171875 -645.0419921875 10950
  endloop
endfacet
facet normal 2.712577731878163e-11 1.191607468080391e-12 1
  outer loop
    vertex -2071.97216796875 4515.623046875 10950
    vertex -2117.84326171875 -645.0419921875 10950
    vertex -2035.468627929688 -828.4066162109375 10950
  endloop
endfacet
facet normal 2.712577731878163e-11 1.191607468080391e-12 1
  outer loop
    vertex -2071.97216796875 4515.623046875 10950
    vertex -2035.468627929688 -828.4066162109375 10950
    vertex -2069.5693359375 4538.92578125 10950
  endloop
endfacet
facet normal 2.712577731878163e-11 1.191607468080391e-12 1
  outer loop
    vertex -2069.5693359375 4538.92578125 10950
    vertex -2035.468627929688 -828.4066162109375 10950
    vertex -1732.601318359375 6519.42333984375 10950
  endloop
endfacet
facet normal 2.712577731878163e-11 1.191607468080391e-12 1
  outer loop
    vertex -1732.601318359375 6519.42333984375 10950
    vertex -2035.468627929688 -828.4066162109375 10950
    vertex -1941.378662109375 -1005.944580078125 10950
  endloop
endfacet
facet normal 2.712577731878163e-11 1.191607468080391e-12 1
  outer loop
    vertex -1732.601318359375 6519.42333984375 10950
    vertex -1941.378662109375 -1005.944580078125 10950
    vertex -1835.9765625 -1176.8955078125 10950
  endloop
endfacet
facet normal 2.712577731878163e-11 1.191607468080391e-12 1
  outer loop
    vertex -1732.601318359375 6519.42333984375 10950
    vertex -1835.9765625 -1176.8955078125 10950
    vertex -1772.24462890625 -1266.593627929688 10950
  endloop
endfacet
facet normal 2.712577731878163e-11 1.191607468080391e-12 1
  outer loop
    vertex -1732.601318359375 6519.42333984375 10950
    vertex -1772.24462890625 -1266.593627929688 10950
    vertex -1719.713623046875 -1340.527221679688 10950
  endloop
endfacet
facet normal 2.712577731878163e-11 1.191607468080391e-12 1
  outer loop
    vertex -1732.601318359375 6519.42333984375 10950
    vertex -1719.713623046875 -1340.527221679688 10950
    vertex -1393.424438476562 7940.287109375 10950
  endloop
endfacet
facet normal 2.712577731878163e-11 1.191607468080391e-12 1
  outer loop
    vertex -1393.424438476562 7940.287109375 10950
    vertex -1719.713623046875 -1340.527221679688 10950
    vertex -1593.087768554688 -1496.13916015625 10950
  endloop
endfacet
facet normal 2.712577731878163e-11 1.191607468080391e-12 1
  outer loop
    vertex -1393.424438476562 7940.287109375 10950
    vertex -1593.087768554688 -1496.13916015625 10950
    vertex -1456.641357421875 -1643.064575195312 10950
  endloop
endfacet
facet normal 2.712577731878163e-11 1.191607468080391e-12 1
  outer loop
    vertex -1393.424438476562 7940.287109375 10950
    vertex -1456.641357421875 -1643.064575195312 10950
    vertex -1310.958618164062 -1780.674438476562 10950
  endloop
endfacet
facet normal 2.712577731878163e-11 1.191607468080391e-12 1
  outer loop
    vertex -1393.424438476562 7940.287109375 10950
    vertex -1310.958618164062 -1780.674438476562 10950
    vertex -1266.248291015625 8473.046875 10950
  endloop
endfacet
facet normal 2.712577731878163e-11 1.191607468080391e-12 1
  outer loop
    vertex -1266.248291015625 8473.046875 10950
    vertex -1310.958618164062 -1780.674438476562 10950
    vertex -1156.66357421875 -1908.37939453125 10950
  endloop
endfacet
facet normal 2.712577731878163e-11 1.191607468080391e-12 1
  outer loop
    vertex -1266.248291015625 8473.046875 10950
    vertex -1156.66357421875 -1908.37939453125 10950
    vertex -810.2802124023438 9946.24609375 10950
  endloop
endfacet
facet normal 2.712577731878163e-11 1.191607468080391e-12 1
  outer loop
    vertex -810.2802124023438 9946.24609375 10950
    vertex -1156.66357421875 -1908.37939453125 10950
    vertex -1085.436401367188 -1959.854125976562 10950
  endloop
endfacet
facet normal 2.712577731878163e-11 1.191607468080391e-12 1
  outer loop
    vertex -810.2802124023438 9946.24609375 10950
    vertex -1085.436401367188 -1959.854125976562 10950
    vertex -994.4169921875 -2025.63232421875 10950
  endloop
endfacet
facet normal 2.712577731878163e-11 1.191607468080391e-12 1
  outer loop
    vertex -810.2802124023438 9946.24609375 10950
    vertex -994.4169921875 -2025.63232421875 10950
    vertex -824.9137573242188 -2131.931396484375 10950
  endloop
endfacet
facet normal 2.712577731878163e-11 1.191607468080391e-12 1
  outer loop
    vertex -810.2802124023438 9946.24609375 10950
    vertex -824.9137573242188 -2131.931396484375 10950
    vertex -648.8797607421875 -2226.821044921875 10950
  endloop
endfacet
facet normal 2.712577731878163e-11 1.191607468080391e-12 1
  outer loop
    vertex -810.2802124023438 9946.24609375 10950
    vertex -648.8797607421875 -2226.821044921875 10950
    vertex -672.560302734375 10391.208984375 10950
  endloop
endfacet
facet normal 2.712577731878163e-11 1.191607468080391e-12 1
  outer loop
    vertex -672.560302734375 10391.208984375 10950
    vertex -648.8797607421875 -2226.821044921875 10950
    vertex 45.85287475585938 12265.4765625 10950
  endloop
endfacet
facet normal 2.712577731878163e-11 1.191607468080391e-12 1
  outer loop
    vertex 45.85287475585938 12265.4765625 10950
    vertex -648.8797607421875 -2226.821044921875 10950
    vertex -467.0689086914062 -2309.89501953125 10950
  endloop
endfacet
facet normal 2.712577731878163e-11 1.191607468080391e-12 1
  outer loop
    vertex 45.85287475585938 12265.4765625 10950
    vertex -467.0689086914062 -2309.89501953125 10950
    vertex -280.2598571777344 -2380.797607421875 10950
  endloop
endfacet
facet normal 2.712577731878163e-11 1.191607468080391e-12 1
  outer loop
    vertex 45.85287475585938 12265.4765625 10950
    vertex -280.2598571777344 -2380.797607421875 10950
    vertex -217.9963226318359 -2399.843505859375 10950
  endloop
endfacet
facet normal 2.712577731878163e-11 1.191607468080391e-12 1
  outer loop
    vertex 45.85287475585938 12265.4765625 10950
    vertex -217.9963226318359 -2399.843505859375 10950
    vertex -140.4086303710938 -2423.512939453125 10950
  endloop
endfacet
facet normal 2.712577731878163e-11 1.191607468080391e-12 1
  outer loop
    vertex 45.85287475585938 12265.4765625 10950
    vertex -140.4086303710938 -2423.512939453125 10950
    vertex -62.22019958496094 -2445.078125 10950
  endloop
endfacet
facet normal 2.712577731878163e-11 1.191607468080391e-12 1
  outer loop
    vertex 45.85287475585938 12265.4765625 10950
    vertex -62.22019958496094 -2445.078125 10950
    vertex 16.51285743713379 -2464.523681640625 10950
  endloop
endfacet
facet normal 2.712577731878163e-11 1.191607468080391e-12 1
  outer loop
    vertex 45.85287475585938 12265.4765625 10950
    vertex 16.51285743713379 -2464.523681640625 10950
    vertex 95.73405456542969 -2481.835205078125 10950
  endloop
endfacet
facet normal 2.712577731878163e-11 1.191607468080391e-12 1
  outer loop
    vertex 45.85287475585938 12265.4765625 10950
    vertex 95.73405456542969 -2481.835205078125 10950
    vertex 90.78369903564453 12382.6962890625 10950
  endloop
endfacet
facet normal 2.712577731878163e-11 1.191607468080391e-12 1
  outer loop
    vertex 90.78369903564453 12382.6962890625 10950
    vertex 95.73405456542969 -2481.835205078125 10950
    vertex 150 12382.6962890625 10950
  endloop
endfacet
facet normal 2.712577731878163e-11 1.191607468080391e-12 1
  outer loop
    vertex 150 12382.6962890625 10950
    vertex 95.73405456542969 -2481.835205078125 10950
    vertex 175.3865509033203 -2497.000732421875 10950
  endloop
endfacet
facet normal 2.712577731878163e-11 1.191607468080391e-12 1
  outer loop
    vertex 150 12382.6962890625 10950
    vertex 175.3865509033203 -2497.000732421875 10950
    vertex 1000 12382.6962890625 10950
  endloop
endfacet
facet normal 2.712577731878163e-11 1.191607468080391e-12 1
  outer loop
    vertex 1000 12382.6962890625 10950
    vertex 175.3865509033203 -2497.000732421875 10950
    vertex 255.4132080078125 -2510.00927734375 10950
  endloop
endfacet
facet normal 2.712577731878163e-11 1.191607468080391e-12 1
  outer loop
    vertex 1000 12382.6962890625 10950
    vertex 255.4132080078125 -2510.00927734375 10950
    vertex 335.7566223144531 -2520.851318359375 10950
  endloop
endfacet
facet normal 2.712577731878163e-11 1.191607468080391e-12 1
  outer loop
    vertex 1000 12382.6962890625 10950
    vertex 335.7566223144531 -2520.851318359375 10950
    vertex 416.3591003417969 -2529.519287109375 10950
  endloop
endfacet
facet normal 2.712577731878163e-11 1.191607468080391e-12 1
  outer loop
    vertex 1000 12382.6962890625 10950
    vertex 416.3591003417969 -2529.519287109375 10950
    vertex 497.1628723144531 -2536.007080078125 10950
  endloop
endfacet
facet normal 2.712577731878163e-11 1.191607468080391e-12 1
  outer loop
    vertex 1000 12382.6962890625 10950
    vertex 497.1628723144531 -2536.007080078125 10950
    vertex 578.1099243164062 -2540.3095703125 10950
  endloop
endfacet
facet normal 2.712577731878163e-11 1.191607468080391e-12 1
  outer loop
    vertex 1000 12382.6962890625 10950
    vertex 578.1099243164062 -2540.3095703125 10950
    vertex 659.1422119140625 -2542.424072265625 10950
  endloop
endfacet
facet normal 2.712577731878163e-11 1.191607468080391e-12 1
  outer loop
    vertex 1000 12382.6962890625 10950
    vertex 659.1422119140625 -2542.424072265625 10950
    vertex 740.2015991210938 -2542.348876953125 10950
  endloop
endfacet
facet normal 2.712577731878163e-11 1.191607468080391e-12 1
  outer loop
    vertex 1000 12382.6962890625 10950
    vertex 740.2015991210938 -2542.348876953125 10950
    vertex 1624.41796875 -2505.81298828125 10950
  endloop
endfacet
facet normal 2.712577731878163e-11 1.191607468080391e-12 1
  outer loop
    vertex 1000 12382.6962890625 10950
    vertex 1624.41796875 -2505.81298828125 10950
    vertex 6400 12382.6962890625 10950
  endloop
endfacet
facet normal 2.712577731878163e-11 1.191607468080391e-12 1
  outer loop
    vertex 6400 12382.6962890625 10950
    vertex 1624.41796875 -2505.81298828125 10950
    vertex 2544.139892578125 -2406.372802734375 10950
  endloop
endfacet
facet normal 2.712577731878163e-11 1.191607468080391e-12 1
  outer loop
    vertex 6400 12382.6962890625 10950
    vertex 2544.139892578125 -2406.372802734375 10950
    vertex 3455.380859375 -2246.1123046875 10950
  endloop
endfacet
facet normal 2.712577731878163e-11 1.191607468080391e-12 1
  outer loop
    vertex 6400 12382.6962890625 10950
    vertex 3455.380859375 -2246.1123046875 10950
    vertex 3525.323974609375 -2228.96240234375 10950
  endloop
endfacet
facet normal 2.712577731878163e-11 1.191607468080391e-12 1
  outer loop
    vertex 6400 12382.6962890625 10950
    vertex 3525.323974609375 -2228.96240234375 10950
    vertex 4354.19140625 -2025.72607421875 10950
  endloop
endfacet
facet normal 2.712577731878163e-11 1.191607468080391e-12 1
  outer loop
    vertex 6400 12382.6962890625 10950
    vertex 4354.19140625 -2025.72607421875 10950
    vertex 5236.67626953125 -1746.16943359375 10950
  endloop
endfacet
facet normal 2.712577731878163e-11 1.191607468080391e-12 1
  outer loop
    vertex 6400 12382.6962890625 10950
    vertex 5236.67626953125 -1746.16943359375 10950
    vertex 5500.39208984375 -1642.951416015625 10950
  endloop
endfacet
facet normal 2.712577731878163e-11 1.191607468080391e-12 1
  outer loop
    vertex 6400 12382.6962890625 10950
    vertex 5500.39208984375 -1642.951416015625 10950
    vertex 6099.00927734375 -1408.654052734375 10950
  endloop
endfacet
facet normal 2.712577731878163e-11 1.191607468080391e-12 1
  outer loop
    vertex 6400 12382.6962890625 10950
    vertex 6099.00927734375 -1408.654052734375 10950
    vertex 6937.45361328125 -1014.642883300781 10950
  endloop
endfacet
facet normal 2.712577731878163e-11 1.191607468080391e-12 1
  outer loop
    vertex 6400 12382.6962890625 10950
    vertex 6937.45361328125 -1014.642883300781 10950
    vertex 7200 12382.6962890625 10950
  endloop
endfacet
facet normal 2.712577731878163e-11 1.191607468080391e-12 1
  outer loop
    vertex 7200 12382.6962890625 10950
    vertex 6937.45361328125 -1014.642883300781 10950
    vertex 7200 11856.01171875 10950
  endloop
endfacet
facet normal 2.712577731878163e-11 1.191607468080391e-12 1
  outer loop
    vertex 7200 11856.01171875 10950
    vertex 6937.45361328125 -1014.642883300781 10950
    vertex 7748.37548828125 -565.8435668945312 10950
  endloop
endfacet
facet normal 2.712577731878163e-11 1.191607468080391e-12 1
  outer loop
    vertex 7200 11856.01171875 10950
    vertex 7748.37548828125 -565.8435668945312 10950
    vertex 8629.1865234375 11856.01171875 10950
  endloop
endfacet
facet normal 2.712577731878163e-11 1.191607468080391e-12 1
  outer loop
    vertex 8629.1865234375 11856.01171875 10950
    vertex 7748.37548828125 -565.8435668945312 10950
    vertex 8528.2587890625 -64.20147705078125 10950
  endloop
endfacet
facet normal 2.712577731878163e-11 1.191607468080391e-12 1
  outer loop
    vertex 8629.1865234375 11856.01171875 10950
    vertex 8528.2587890625 -64.20147705078125 10950
    vertex 8618.9189453125 -5.886493682861328 10950
  endloop
endfacet
facet normal 2.712577731878163e-11 1.191607468080391e-12 1
  outer loop
    vertex 8629.1865234375 11856.01171875 10950
    vertex 8618.9189453125 -5.886493682861328 10950
    vertex 8629.1865234375 2582.800537109375 10950
  endloop
endfacet
facet normal 2.712577731878163e-11 1.191607468080391e-12 1
  outer loop
    vertex 8629.1865234375 2582.800537109375 10950
    vertex 8618.9189453125 -5.886493682861328 10950
    vertex 8629.1865234375 -5.886493682861328 10950
  endloop
endfacet
facet normal 2.712577731878163e-11 1.191607468080391e-12 1
  outer loop
    vertex 8629.1865234375 11856.01171875 10950
    vertex 8629.1865234375 6583.47265625 10950
    vertex 8629.1865234375 11777.560546875 10950
  endloop
endfacet
facet normal 2.712577731878163e-11 1.191607468080391e-12 1
  outer loop
    vertex 8629.1865234375 6583.47265625 10950
    vertex 8629.1865234375 11856.01171875 10950
    vertex 8629.1865234375 2582.800537109375 10950
  endloop
endfacet
facet normal 2.712577731878163e-11 1.191607468080391e-12 1
  outer loop
    vertex 8629.1865234375 6583.47265625 10950
    vertex 8629.1865234375 2582.800537109375 10950
    vertex 8629.1865234375 5171.48779296875 10950
  endloop
endfacet
facet normal 2.712577731878163e-11 1.191607468080391e-12 1
  outer loop
    vertex 8629.1865234375 11777.560546875 10950
    vertex 8629.1865234375 6583.47265625 10950
    vertex 8629.1865234375 9407.4423828125 10950
  endloop
endfacet
facet normal -2.712577731878163e-11 -1.191607468080391e-12 -1
  outer loop
    vertex -2348.42333984375 574.8065185546875 10550
    vertex -2349.245849609375 534.0755004882812 10550
    vertex -2349.931640625 534.0618896484375 10550
  endloop
endfacet
facet normal -2.712577731878163e-11 -1.191607468080391e-12 -1
  outer loop
    vertex -2349.245849609375 534.0755004882812 10550
    vertex -2348.42333984375 574.8065185546875 10550
    vertex -2348.429931640625 492.2283020019531 10550
  endloop
endfacet
facet normal -2.712577731878163e-11 -1.191607468080391e-12 -1
  outer loop
    vertex -2348.429931640625 492.2283020019531 10550
    vertex -2343.475830078125 331.013427734375 10550
    vertex -2348.703125 492.222900390625 10550
  endloop
endfacet
facet normal -2.712577731878163e-11 -1.191607468080391e-12 -1
  outer loop
    vertex -2343.475830078125 331.013427734375 10550
    vertex -2348.429931640625 492.2283020019531 10550
    vertex -2348.42333984375 574.8065185546875 10550
  endloop
endfacet
facet normal -2.712577731878163e-11 -1.191607468080391e-12 -1
  outer loop
    vertex -2343.475830078125 331.013427734375 10550
    vertex -2348.42333984375 574.8065185546875 10550
    vertex -2279.573486328125 2434.83154296875 10550
  endloop
endfacet
facet normal -2.712577731878163e-11 -1.191607468080391e-12 -1
  outer loop
    vertex -2343.475830078125 331.013427734375 10550
    vertex -2279.573486328125 2434.83154296875 10550
    vertex -2323.917236328125 130.6743774414062 10550
  endloop
endfacet
facet normal -2.712577731878163e-11 -1.191607468080391e-12 -1
  outer loop
    vertex -2323.917236328125 130.6743774414062 10550
    vertex -2279.573486328125 2434.83154296875 10550
    vertex -2291.407958984375 -67.94544982910156 10550
  endloop
endfacet
facet normal -2.712577731878163e-11 -1.191607468080391e-12 -1
  outer loop
    vertex -2291.407958984375 -67.94544982910156 10550
    vertex -2279.573486328125 2434.83154296875 10550
    vertex -2246.087646484375 -263.9954528808594 10550
  endloop
endfacet
facet normal -2.712577731878163e-11 -1.191607468080391e-12 -1
  outer loop
    vertex -2246.087646484375 -263.9954528808594 10550
    vertex -2279.573486328125 2434.83154296875 10550
    vertex -2275.6708984375 2540.26025390625 10550
  endloop
endfacet
facet normal -2.712577731878163e-11 -1.191607468080391e-12 -1
  outer loop
    vertex -2246.087646484375 -263.9954528808594 10550
    vertex -2275.6708984375 2540.26025390625 10550
    vertex -2071.97216796875 4515.623046875 10550
  endloop
endfacet
facet normal -2.712577731878163e-11 -1.191607468080391e-12 -1
  outer loop
    vertex -2246.087646484375 -263.9954528808594 10550
    vertex -2071.97216796875 4515.623046875 10550
    vertex -2207.709228515625 -391.6018981933594 10550
  endloop
endfacet
facet normal -2.712577731878163e-11 -1.191607468080391e-12 -1
  outer loop
    vertex -2207.709228515625 -391.6018981933594 10550
    vertex -2071.97216796875 4515.623046875 10550
    vertex -2188.14990234375 -456.6359558105469 10550
  endloop
endfacet
facet normal -2.712577731878163e-11 -1.191607468080391e-12 -1
  outer loop
    vertex -2188.14990234375 -456.6359558105469 10550
    vertex -2071.97216796875 4515.623046875 10550
    vertex -2117.84326171875 -645.0419921875 10550
  endloop
endfacet
facet normal -2.712577731878163e-11 -1.191607468080391e-12 -1
  outer loop
    vertex -2117.84326171875 -645.0419921875 10550
    vertex -2071.97216796875 4515.623046875 10550
    vertex -2035.468627929688 -828.4066162109375 10550
  endloop
endfacet
facet normal -2.712577731878163e-11 -1.191607468080391e-12 -1
  outer loop
    vertex -2035.468627929688 -828.4066162109375 10550
    vertex -2071.97216796875 4515.623046875 10550
    vertex -2069.5693359375 4538.92578125 10550
  endloop
endfacet
facet normal -2.712577731878163e-11 -1.191607468080391e-12 -1
  outer loop
    vertex -2035.468627929688 -828.4066162109375 10550
    vertex -2069.5693359375 4538.92578125 10550
    vertex -1732.601318359375 6519.42333984375 10550
  endloop
endfacet
facet normal -2.712577731878163e-11 -1.191607468080391e-12 -1
  outer loop
    vertex -2035.468627929688 -828.4066162109375 10550
    vertex -1732.601318359375 6519.42333984375 10550
    vertex -1941.378662109375 -1005.944580078125 10550
  endloop
endfacet
facet normal -2.712577731878163e-11 -1.191607468080391e-12 -1
  outer loop
    vertex -1941.378662109375 -1005.944580078125 10550
    vertex -1732.601318359375 6519.42333984375 10550
    vertex -1835.9765625 -1176.8955078125 10550
  endloop
endfacet
facet normal -2.712577731878163e-11 -1.191607468080391e-12 -1
  outer loop
    vertex -1835.9765625 -1176.8955078125 10550
    vertex -1732.601318359375 6519.42333984375 10550
    vertex -1772.24462890625 -1266.593627929688 10550
  endloop
endfacet
facet normal -2.712577731878163e-11 -1.191607468080391e-12 -1
  outer loop
    vertex -1772.24462890625 -1266.593627929688 10550
    vertex -1732.601318359375 6519.42333984375 10550
    vertex -1719.713623046875 -1340.527221679688 10550
  endloop
endfacet
facet normal -2.712577731878163e-11 -1.191607468080391e-12 -1
  outer loop
    vertex -1719.713623046875 -1340.527221679688 10550
    vertex -1732.601318359375 6519.42333984375 10550
    vertex -1393.424438476562 7940.287109375 10550
  endloop
endfacet
facet normal -2.712577731878163e-11 -1.191607468080391e-12 -1
  outer loop
    vertex -1719.713623046875 -1340.527221679688 10550
    vertex -1393.424438476562 7940.287109375 10550
    vertex -1593.087768554688 -1496.13916015625 10550
  endloop
endfacet
facet normal -2.712577731878163e-11 -1.191607468080391e-12 -1
  outer loop
    vertex -1593.087768554688 -1496.13916015625 10550
    vertex -1393.424438476562 7940.287109375 10550
    vertex -1456.641357421875 -1643.064575195312 10550
  endloop
endfacet
facet normal -2.712577731878163e-11 -1.191607468080391e-12 -1
  outer loop
    vertex -1456.641357421875 -1643.064575195312 10550
    vertex -1393.424438476562 7940.287109375 10550
    vertex -1310.958618164062 -1780.674438476562 10550
  endloop
endfacet
facet normal -2.712577731878163e-11 -1.191607468080391e-12 -1
  outer loop
    vertex -1310.958618164062 -1780.674438476562 10550
    vertex -1393.424438476562 7940.287109375 10550
    vertex -1266.248291015625 8473.046875 10550
  endloop
endfacet
facet normal -2.712577731878163e-11 -1.191607468080391e-12 -1
  outer loop
    vertex -1310.958618164062 -1780.674438476562 10550
    vertex -1266.248291015625 8473.046875 10550
    vertex -1156.66357421875 -1908.37939453125 10550
  endloop
endfacet
facet normal -2.712577731878163e-11 -1.191607468080391e-12 -1
  outer loop
    vertex -1156.66357421875 -1908.37939453125 10550
    vertex -1266.248291015625 8473.046875 10550
    vertex -810.2802124023438 9946.24609375 10550
  endloop
endfacet
facet normal -2.712577731878163e-11 -1.191607468080391e-12 -1
  outer loop
    vertex -1156.66357421875 -1908.37939453125 10550
    vertex -810.2802124023438 9946.24609375 10550
    vertex -1085.436401367188 -1959.854125976562 10550
  endloop
endfacet
facet normal -2.712577731878163e-11 -1.191607468080391e-12 -1
  outer loop
    vertex -1085.436401367188 -1959.854125976562 10550
    vertex -810.2802124023438 9946.24609375 10550
    vertex -994.4169921875 -2025.63232421875 10550
  endloop
endfacet
facet normal -2.712577731878163e-11 -1.191607468080391e-12 -1
  outer loop
    vertex -994.4169921875 -2025.63232421875 10550
    vertex -810.2802124023438 9946.24609375 10550
    vertex -824.9137573242188 -2131.931396484375 10550
  endloop
endfacet
facet normal -2.712577731878163e-11 -1.191607468080391e-12 -1
  outer loop
    vertex -824.9137573242188 -2131.931396484375 10550
    vertex -810.2802124023438 9946.24609375 10550
    vertex -648.8797607421875 -2226.821044921875 10550
  endloop
endfacet
facet normal -2.712577731878163e-11 -1.191607468080391e-12 -1
  outer loop
    vertex -648.8797607421875 -2226.821044921875 10550
    vertex -810.2802124023438 9946.24609375 10550
    vertex -672.560302734375 10391.208984375 10550
  endloop
endfacet
facet normal -2.712577731878163e-11 -1.191607468080391e-12 -1
  outer loop
    vertex -648.8797607421875 -2226.821044921875 10550
    vertex -672.560302734375 10391.208984375 10550
    vertex 45.85287475585938 12265.4765625 10550
  endloop
endfacet
facet normal -2.712577731878163e-11 -1.191607468080391e-12 -1
  outer loop
    vertex -648.8797607421875 -2226.821044921875 10550
    vertex 45.85287475585938 12265.4765625 10550
    vertex -467.0689086914062 -2309.89501953125 10550
  endloop
endfacet
facet normal -2.712577731878163e-11 -1.191607468080391e-12 -1
  outer loop
    vertex -467.0689086914062 -2309.89501953125 10550
    vertex 45.85287475585938 12265.4765625 10550
    vertex -280.2598571777344 -2380.797607421875 10550
  endloop
endfacet
facet normal -2.712577731878163e-11 -1.191607468080391e-12 -1
  outer loop
    vertex -280.2598571777344 -2380.797607421875 10550
    vertex 45.85287475585938 12265.4765625 10550
    vertex -217.9963226318359 -2399.843505859375 10550
  endloop
endfacet
facet normal -2.712577731878163e-11 -1.191607468080391e-12 -1
  outer loop
    vertex -217.9963226318359 -2399.843505859375 10550
    vertex 45.85287475585938 12265.4765625 10550
    vertex -140.4086303710938 -2423.512939453125 10550
  endloop
endfacet
facet normal -2.712577731878163e-11 -1.191607468080391e-12 -1
  outer loop
    vertex -140.4086303710938 -2423.512939453125 10550
    vertex 45.85287475585938 12265.4765625 10550
    vertex -62.22019958496094 -2445.078125 10550
  endloop
endfacet
facet normal -2.712577731878163e-11 -1.191607468080391e-12 -1
  outer loop
    vertex -62.22019958496094 -2445.078125 10550
    vertex 45.85287475585938 12265.4765625 10550
    vertex 16.51285743713379 -2464.523681640625 10550
  endloop
endfacet
facet normal -2.712577731878163e-11 -1.191607468080391e-12 -1
  outer loop
    vertex 16.51285743713379 -2464.523681640625 10550
    vertex 45.85287475585938 12265.4765625 10550
    vertex 95.73405456542969 -2481.835205078125 10550
  endloop
endfacet
facet normal -2.712577731878163e-11 -1.191607468080391e-12 -1
  outer loop
    vertex 95.73405456542969 -2481.835205078125 10550
    vertex 45.85287475585938 12265.4765625 10550
    vertex 90.78369903564453 12382.6962890625 10550
  endloop
endfacet
facet normal -2.712577731878163e-11 -1.191607468080391e-12 -1
  outer loop
    vertex 95.73405456542969 -2481.835205078125 10550
    vertex 90.78369903564453 12382.6962890625 10550
    vertex 150 12382.6962890625 10550
  endloop
endfacet
facet normal -2.712577731878163e-11 -1.191607468080391e-12 -1
  outer loop
    vertex 95.73405456542969 -2481.835205078125 10550
    vertex 150 12382.6962890625 10550
    vertex 175.3865509033203 -2497.000732421875 10550
  endloop
endfacet
facet normal -2.712577731878163e-11 -1.191607468080391e-12 -1
  outer loop
    vertex 175.3865509033203 -2497.000732421875 10550
    vertex 150 12382.6962890625 10550
    vertex 1000 12382.6962890625 10550
  endloop
endfacet
facet normal -2.712577731878163e-11 -1.191607468080391e-12 -1
  outer loop
    vertex 175.3865509033203 -2497.000732421875 10550
    vertex 1000 12382.6962890625 10550
    vertex 255.4132080078125 -2510.00927734375 10550
  endloop
endfacet
facet normal -2.712577731878163e-11 -1.191607468080391e-12 -1
  outer loop
    vertex 255.4132080078125 -2510.00927734375 10550
    vertex 1000 12382.6962890625 10550
    vertex 335.7566223144531 -2520.851318359375 10550
  endloop
endfacet
facet normal -2.712577731878163e-11 -1.191607468080391e-12 -1
  outer loop
    vertex 335.7566223144531 -2520.851318359375 10550
    vertex 1000 12382.6962890625 10550
    vertex 416.3591003417969 -2529.519287109375 10550
  endloop
endfacet
facet normal -2.712577731878163e-11 -1.191607468080391e-12 -1
  outer loop
    vertex 416.3591003417969 -2529.519287109375 10550
    vertex 1000 12382.6962890625 10550
    vertex 497.1628723144531 -2536.007080078125 10550
  endloop
endfacet
facet normal -2.712577731878163e-11 -1.191607468080391e-12 -1
  outer loop
    vertex 497.1628723144531 -2536.007080078125 10550
    vertex 1000 12382.6962890625 10550
    vertex 578.1099243164062 -2540.3095703125 10550
  endloop
endfacet
facet normal -2.712577731878163e-11 -1.191607468080391e-12 -1
  outer loop
    vertex 578.1099243164062 -2540.3095703125 10550
    vertex 1000 12382.6962890625 10550
    vertex 659.1422119140625 -2542.424072265625 10550
  endloop
endfacet
facet normal -2.712577731878163e-11 -1.191607468080391e-12 -1
  outer loop
    vertex 659.1422119140625 -2542.424072265625 10550
    vertex 1000 12382.6962890625 10550
    vertex 740.2015991210938 -2542.348876953125 10550
  endloop
endfacet
facet normal -2.712577731878163e-11 -1.191607468080391e-12 -1
  outer loop
    vertex 740.2015991210938 -2542.348876953125 10550
    vertex 1000 12382.6962890625 10550
    vertex 1624.41796875 -2505.81298828125 10550
  endloop
endfacet
facet normal -2.712577731878163e-11 -1.191607468080391e-12 -1
  outer loop
    vertex 1624.41796875 -2505.81298828125 10550
    vertex 1000 12382.6962890625 10550
    vertex 6400 12382.6962890625 10550
  endloop
endfacet
facet normal -2.712577731878163e-11 -1.191607468080391e-12 -1
  outer loop
    vertex 1624.41796875 -2505.81298828125 10550
    vertex 6400 12382.6962890625 10550
    vertex 2544.139892578125 -2406.372802734375 10550
  endloop
endfacet
facet normal -2.712577731878163e-11 -1.191607468080391e-12 -1
  outer loop
    vertex 2544.139892578125 -2406.372802734375 10550
    vertex 6400 12382.6962890625 10550
    vertex 3455.380859375 -2246.1123046875 10550
  endloop
endfacet
facet normal -2.712577731878163e-11 -1.191607468080391e-12 -1
  outer loop
    vertex 3455.380859375 -2246.1123046875 10550
    vertex 6400 12382.6962890625 10550
    vertex 3525.323974609375 -2228.96240234375 10550
  endloop
endfacet
facet normal -2.712577731878163e-11 -1.191607468080391e-12 -1
  outer loop
    vertex 3525.323974609375 -2228.96240234375 10550
    vertex 6400 12382.6962890625 10550
    vertex 4354.19140625 -2025.72607421875 10550
  endloop
endfacet
facet normal -2.712577731878163e-11 -1.191607468080391e-12 -1
  outer loop
    vertex 4354.19140625 -2025.72607421875 10550
    vertex 6400 12382.6962890625 10550
    vertex 5236.67626953125 -1746.16943359375 10550
  endloop
endfacet
facet normal -2.712577731878163e-11 -1.191607468080391e-12 -1
  outer loop
    vertex 5236.67626953125 -1746.16943359375 10550
    vertex 6400 12382.6962890625 10550
    vertex 5500.39208984375 -1642.951416015625 10550
  endloop
endfacet
facet normal -2.712577731878163e-11 -1.191607468080391e-12 -1
  outer loop
    vertex 5500.39208984375 -1642.951416015625 10550
    vertex 6400 12382.6962890625 10550
    vertex 6099.00927734375 -1408.654052734375 10550
  endloop
endfacet
facet normal -2.712577731878163e-11 -1.191607468080391e-12 -1
  outer loop
    vertex 6099.00927734375 -1408.654052734375 10550
    vertex 6400 12382.6962890625 10550
    vertex 6937.45361328125 -1014.642883300781 10550
  endloop
endfacet
facet normal -2.712577731878163e-11 -1.191607468080391e-12 -1
  outer loop
    vertex 6937.45361328125 -1014.642883300781 10550
    vertex 6400 12382.6962890625 10550
    vertex 7200 12382.6962890625 10550
  endloop
endfacet
facet normal -2.712577731878163e-11 -1.191607468080391e-12 -1
  outer loop
    vertex 6937.45361328125 -1014.642883300781 10550
    vertex 7200 12382.6962890625 10550
    vertex 7200 11856.01171875 10550
  endloop
endfacet
facet normal -2.712577731878163e-11 -1.191607468080391e-12 -1
  outer loop
    vertex 6937.45361328125 -1014.642883300781 10550
    vertex 7200 11856.01171875 10550
    vertex 7748.37548828125 -565.8435668945312 10550
  endloop
endfacet
facet normal -2.712577731878163e-11 -1.191607468080391e-12 -1
  outer loop
    vertex 7748.37548828125 -565.8435668945312 10550
    vertex 7200 11856.01171875 10550
    vertex 8629.1865234375 11856.01171875 10550
  endloop
endfacet
facet normal -2.712577731878163e-11 -1.191607468080391e-12 -1
  outer loop
    vertex 7748.37548828125 -565.8435668945312 10550
    vertex 8629.1865234375 11856.01171875 10550
    vertex 8528.2587890625 -64.20147705078125 10550
  endloop
endfacet
facet normal -2.712577731878163e-11 -1.191607468080391e-12 -1
  outer loop
    vertex 8528.2587890625 -64.20147705078125 10550
    vertex 8629.1865234375 11856.01171875 10550
    vertex 8618.9189453125 -5.886493682861328 10550
  endloop
endfacet
facet normal -2.712577731878163e-11 -1.191607468080391e-12 -1
  outer loop
    vertex 8618.9189453125 -5.886493682861328 10550
    vertex 8629.1865234375 11856.01171875 10550
    vertex 8629.1865234375 2582.800537109375 10550
  endloop
endfacet
facet normal -2.712577731878163e-11 -1.191607468080391e-12 -1
  outer loop
    vertex 8618.9189453125 -5.886493682861328 10550
    vertex 8629.1865234375 2582.800537109375 10550
    vertex 8629.1865234375 -5.886493682861328 10550
  endloop
endfacet
facet normal -2.712577731878163e-11 -1.191607468080391e-12 -1
  outer loop
    vertex 8629.1865234375 11856.01171875 10550
    vertex 8629.1865234375 6583.47265625 10550
    vertex 8629.1865234375 2582.800537109375 10550
  endloop
endfacet
facet normal -2.712577731878163e-11 -1.191607468080391e-12 -1
  outer loop
    vertex 8629.1865234375 6583.47265625 10550
    vertex 8629.1865234375 11856.01171875 10550
    vertex 8629.1865234375 11777.560546875 10550
  endloop
endfacet
facet normal -2.712577731878163e-11 -1.191607468080391e-12 -1
  outer loop
    vertex 8629.1865234375 6583.47265625 10550
    vertex 8629.1865234375 11777.560546875 10550
    vertex 8629.1865234375 9407.4423828125 10550
  endloop
endfacet
facet normal -2.712577731878163e-11 -1.191607468080391e-12 -1
  outer loop
    vertex 8629.1865234375 5171.48779296875 10550
    vertex 8629.1865234375 2582.800537109375 10550
    vertex 8629.1865234375 6583.47265625 10550
  endloop
endfacet
facet normal 0.234340488910675 -0.9721545577049255 -5.217823569048097e-12
  outer loop
    vertex 4354.19140625 -2025.72607421875 10550
    vertex 3525.323974609375 -2228.96240234375 10950
    vertex 3525.323974609375 -2228.96240234375 10550
  endloop
endfacet
facet normal 0.234340488910675 -0.9721545577049255 -5.217823569048097e-12
  outer loop
    vertex 3525.323974609375 -2228.96240234375 10950
    vertex 4354.19140625 -2025.72607421875 10550
    vertex 4354.19140625 -2025.72607421875 10950
  endloop
endfacet
facet normal 0.234340488910675 -0.9721545577049255 -5.217823569048097e-12
  outer loop
    vertex 3525.323974609375 -2228.96240234375 10950
    vertex 3455.380859375 -2246.1123046875 10550
    vertex 3525.323974609375 -2228.96240234375 10550
  endloop
endfacet
facet normal 0.234340488910675 -0.9721545577049255 -5.217823569048097e-12
  outer loop
    vertex 3455.380859375 -2246.1123046875 10550
    vertex 3525.323974609375 -2228.96240234375 10950
    vertex 3455.380859375 -2246.1123046875 10950
  endloop
endfacet
facet normal 0.1703699082136154 -0.9853801727294922 -3.467078187047168e-12
  outer loop
    vertex 3455.380859375 -2246.1123046875 10950
    vertex 2544.139892578125 -2406.372802734375 10550
    vertex 3455.380859375 -2246.1123046875 10550
  endloop
endfacet
facet normal 0.1703699082136154 -0.9853801727294922 -3.467078187047168e-12
  outer loop
    vertex 2544.139892578125 -2406.372802734375 10550
    vertex 3455.380859375 -2246.1123046875 10950
    vertex 2544.139892578125 -2406.372802734375 10950
  endloop
endfacet
facet normal 0.1056967675685883 -0.9943984150886536 -1.70220456653658e-12
  outer loop
    vertex 2544.139892578125 -2406.372802734375 10950
    vertex 1624.41796875 -2505.81298828125 10550
    vertex 2544.139892578125 -2406.372802734375 10550
  endloop
endfacet
facet normal 0.1056967675685883 -0.9943984150886536 -1.70220456653658e-12
  outer loop
    vertex 1624.41796875 -2505.81298828125 10550
    vertex 2544.139892578125 -2406.372802734375 10950
    vertex 1624.41796875 -2505.81298828125 10950
  endloop
endfacet
facet normal 0.04058832302689552 -0.9991759657859802 6.950932613779964e-14
  outer loop
    vertex 1624.41796875 -2505.81298828125 10550
    vertex 740.2015991210938 -2542.348876953125 10950
    vertex 740.2015991210938 -2542.348876953125 10550
  endloop
endfacet
facet normal 0.04058832302689552 -0.9991759657859802 6.950932613779964e-14
  outer loop
    vertex 740.2015991210938 -2542.348876953125 10950
    vertex 1624.41796875 -2505.81298828125 10550
    vertex 1624.41796875 -2505.81298828125 10950
  endloop
endfacet
facet normal 0.0009113307460211217 -0.9999995827674866 1.146743507443593e-12
  outer loop
    vertex 740.2015991210938 -2542.348876953125 10950
    vertex 659.1422119140625 -2542.424072265625 10550
    vertex 740.2015991210938 -2542.348876953125 10550
  endloop
endfacet
facet normal 0.0009113307460211217 -0.9999995827674866 1.146743507443593e-12
  outer loop
    vertex 659.1422119140625 -2542.424072265625 10550
    vertex 740.2015991210938 -2542.348876953125 10950
    vertex 659.1422119140625 -2542.424072265625 10950
  endloop
endfacet
facet normal -0.02564476989209652 -0.9996711015701294 1.866713597933889e-12
  outer loop
    vertex 659.1422119140625 -2542.424072265625 10950
    vertex 578.1099243164062 -2540.3095703125 10550
    vertex 659.1422119140625 -2542.424072265625 10550
  endloop
endfacet
facet normal -0.02564476989209652 -0.9996711015701294 1.866713597933889e-12
  outer loop
    vertex 578.1099243164062 -2540.3095703125 10550
    vertex 659.1422119140625 -2542.424072265625 10950
    vertex 578.1099243164062 -2540.3095703125 10950
  endloop
endfacet
facet normal -0.05218340456485748 -0.9986374974250793 2.585383730019375e-12
  outer loop
    vertex 578.1099243164062 -2540.3095703125 10950
    vertex 497.1628723144531 -2536.007080078125 10550
    vertex 578.1099243164062 -2540.3095703125 10550
  endloop
endfacet
facet normal -0.05218340456485748 -0.9986374974250793 2.585383730019375e-12
  outer loop
    vertex 497.1628723144531 -2536.007080078125 10550
    vertex 578.1099243164062 -2540.3095703125 10950
    vertex 497.1628723144531 -2536.007080078125 10950
  endloop
endfacet
facet normal -0.07868649065494537 -0.996899425983429 3.302264494839391e-12
  outer loop
    vertex 497.1628723144531 -2536.007080078125 10950
    vertex 416.3591003417969 -2529.519287109375 10550
    vertex 497.1628723144531 -2536.007080078125 10550
  endloop
endfacet
facet normal -0.07868649065494537 -0.996899425983429 3.302264494839391e-12
  outer loop
    vertex 416.3591003417969 -2529.519287109375 10550
    vertex 497.1628723144531 -2536.007080078125 10950
    vertex 416.3591003417969 -2529.519287109375 10950
  endloop
endfacet
facet normal -0.1051359623670578 -0.9944578409194946 4.016866700373711e-12
  outer loop
    vertex 416.3591003417969 -2529.519287109375 10950
    vertex 335.7566223144531 -2520.851318359375 10550
    vertex 416.3591003417969 -2529.519287109375 10550
  endloop
endfacet
facet normal -0.1051359623670578 -0.9944578409194946 4.016866700373711e-12
  outer loop
    vertex 335.7566223144531 -2520.851318359375 10550
    vertex 416.3591003417969 -2529.519287109375 10950
    vertex 335.7566223144531 -2520.851318359375 10950
  endloop
endfacet
facet normal -0.1315137594938278 -0.9913143515586853 4.728702672485152e-12
  outer loop
    vertex 335.7566223144531 -2520.851318359375 10950
    vertex 255.4132080078125 -2510.00927734375 10550
    vertex 335.7566223144531 -2520.851318359375 10550
  endloop
endfacet
facet normal -0.1315137594938278 -0.9913143515586853 4.728702672485152e-12
  outer loop
    vertex 255.4132080078125 -2510.00927734375 10550
    vertex 335.7566223144531 -2520.851318359375 10950
    vertex 255.4132080078125 -2510.00927734375 10950
  endloop
endfacet
facet normal -0.1578018963336945 -0.987470805644989 5.437286038079137e-12
  outer loop
    vertex 255.4132080078125 -2510.00927734375 10950
    vertex 175.3865509033203 -2497.000732421875 10550
    vertex 255.4132080078125 -2510.00927734375 10550
  endloop
endfacet
facet normal -0.1578018963336945 -0.987470805644989 5.437286038079137e-12
  outer loop
    vertex 175.3865509033203 -2497.000732421875 10550
    vertex 255.4132080078125 -2510.00927734375 10950
    vertex 175.3865509033203 -2497.000732421875 10950
  endloop
endfacet
facet normal -0.1839823424816132 -0.982929527759552 6.14213150826326e-12
  outer loop
    vertex 175.3865509033203 -2497.000732421875 10950
    vertex 95.73405456542969 -2481.835205078125 10550
    vertex 175.3865509033203 -2497.000732421875 10550
  endloop
endfacet
facet normal -0.1839823424816132 -0.982929527759552 6.14213150826326e-12
  outer loop
    vertex 95.73405456542969 -2481.835205078125 10550
    vertex 175.3865509033203 -2497.000732421875 10950
    vertex 95.73405456542969 -2481.835205078125 10950
  endloop
endfacet
facet normal -0.2100372016429901 -0.9776933789253235 6.842755528868594e-12
  outer loop
    vertex 95.73405456542969 -2481.835205078125 10950
    vertex 16.51285743713379 -2464.523681640625 10550
    vertex 95.73405456542969 -2481.835205078125 10550
  endloop
endfacet
facet normal -0.2100372016429901 -0.9776933789253235 6.842755528868594e-12
  outer loop
    vertex 16.51285743713379 -2464.523681640625 10550
    vertex 95.73405456542969 -2481.835205078125 10950
    vertex 16.51285743713379 -2464.523681640625 10950
  endloop
endfacet
facet normal -0.2359485477209091 -0.9717655777931213 7.538676280449685e-12
  outer loop
    vertex 16.51285743713379 -2464.523681640625 10950
    vertex -62.22019958496094 -2445.078125 10550
    vertex 16.51285743713379 -2464.523681640625 10550
  endloop
endfacet
facet normal -0.2359485477209091 -0.9717655777931213 7.538676280449685e-12
  outer loop
    vertex -62.22019958496094 -2445.078125 10550
    vertex 16.51285743713379 -2464.523681640625 10950
    vertex -62.22019958496094 -2445.078125 10950
  endloop
endfacet
facet normal -0.2616985738277435 -0.9651496410369873 8.229415413008034e-12
  outer loop
    vertex -62.22019958496094 -2445.078125 10950
    vertex -140.4086303710938 -2423.512939453125 10550
    vertex -62.22019958496094 -2445.078125 10550
  endloop
endfacet
facet normal -0.2616985738277435 -0.9651496410369873 8.229415413008034e-12
  outer loop
    vertex -140.4086303710938 -2423.512939453125 10550
    vertex -62.22019958496094 -2445.078125 10950
    vertex -140.4086303710938 -2423.512939453125 10950
  endloop
endfacet
facet normal -0.2872694730758667 -0.9578498005867004 8.914495010226009e-12
  outer loop
    vertex -140.4086303710938 -2423.512939453125 10950
    vertex -217.9963226318359 -2399.843505859375 10550
    vertex -140.4086303710938 -2423.512939453125 10550
  endloop
endfacet
facet normal -0.2872694730758667 -0.9578498005867004 8.914495010226009e-12
  outer loop
    vertex -217.9963226318359 -2399.843505859375 10550
    vertex -140.4086303710938 -2423.512939453125 10950
    vertex -217.9963226318359 -2399.843505859375 10950
  endloop
endfacet
facet normal -0.2879809737205505 -0.9576361179351807 8.933544876077448e-12
  outer loop
    vertex -217.9963226318359 -2399.843505859375 10950
    vertex -280.2598571777344 -2380.797607421875 10550
    vertex -217.9963226318359 -2399.843505859375 10550
  endloop
endfacet
facet normal -0.2879809737205505 -0.9576361179351807 8.933544876077448e-12
  outer loop
    vertex -280.2598571777344 -2380.797607421875 10550
    vertex -217.9963226318359 -2399.843505859375 10950
    vertex -280.2598571777344 -2380.797607421875 10950
  endloop
endfacet
facet normal -0.3495868742465973 -0.9369039535522461 1.058036557671782e-11
  outer loop
    vertex -280.2598571777344 -2380.797607421875 10950
    vertex -467.0689086914062 -2309.89501953125 10550
    vertex -280.2598571777344 -2380.797607421875 10550
  endloop
endfacet
facet normal -0.3495868742465973 -0.9369039535522461 1.058036557671782e-11
  outer loop
    vertex -467.0689086914062 -2309.89501953125 10550
    vertex -280.2598571777344 -2380.797607421875 10950
    vertex -467.0689086914062 -2309.89501953125 10950
  endloop
endfacet
facet normal -0.4097590148448944 -0.9121938347816467 1.218363430977032e-11
  outer loop
    vertex -467.0689086914062 -2309.89501953125 10950
    vertex -648.8797607421875 -2226.821044921875 10550
    vertex -467.0689086914062 -2309.89501953125 10550
  endloop
endfacet
facet normal -0.4097590148448944 -0.9121938347816467 1.218363430977032e-11
  outer loop
    vertex -648.8797607421875 -2226.821044921875 10550
    vertex -467.0689086914062 -2309.89501953125 10950
    vertex -648.8797607421875 -2226.821044921875 10950
  endloop
endfacet
facet normal -0.468245267868042 -0.8835985064506531 1.373662121550989e-11
  outer loop
    vertex -648.8797607421875 -2226.821044921875 10950
    vertex -824.9137573242188 -2131.931396484375 10550
    vertex -648.8797607421875 -2226.821044921875 10550
  endloop
endfacet
facet normal -0.468245267868042 -0.8835985064506531 1.373662121550989e-11
  outer loop
    vertex -824.9137573242188 -2131.931396484375 10550
    vertex -648.8797607421875 -2226.821044921875 10950
    vertex -824.9137573242188 -2131.931396484375 10950
  endloop
endfacet
facet normal -0.5247980952262878 -0.8512267470359802 1.523273868153652e-11
  outer loop
    vertex -824.9137573242188 -2131.931396484375 10950
    vertex -994.4169921875 -2025.63232421875 10550
    vertex -824.9137573242188 -2131.931396484375 10550
  endloop
endfacet
facet normal -0.5247980952262878 -0.8512267470359802 1.523273868153652e-11
  outer loop
    vertex -994.4169921875 -2025.63232421875 10550
    vertex -824.9137573242188 -2131.931396484375 10950
    vertex -994.4169921875 -2025.63232421875 10950
  endloop
endfacet
facet normal -0.5791754722595215 -0.8152028918266296 1.66655664962656e-11
  outer loop
    vertex -994.4169921875 -2025.63232421875 10950
    vertex -1085.436401367188 -1959.854125976562 10550
    vertex -994.4169921875 -2025.63232421875 10550
  endloop
endfacet
facet normal -0.5791754722595215 -0.8152028918266296 1.66655664962656e-11
  outer loop
    vertex -1085.436401367188 -1959.854125976562 10550
    vertex -994.4169921875 -2025.63232421875 10950
    vertex -1085.436401367188 -1959.854125976562 10950
  endloop
endfacet
facet normal -0.5791754722595215 -0.8152028918266296 1.66655664962656e-11
  outer loop
    vertex -1085.436401367188 -1959.854125976562 10550
    vertex -1156.66357421875 -1908.37939453125 10950
    vertex -1156.66357421875 -1908.37939453125 10550
  endloop
endfacet
facet normal -0.5791754722595215 -0.8152028918266296 1.66655664962656e-11
  outer loop
    vertex -1156.66357421875 -1908.37939453125 10950
    vertex -1085.436401367188 -1959.854125976562 10550
    vertex -1085.436401367188 -1959.854125976562 10950
  endloop
endfacet
facet normal -0.6311419010162354 -0.7756673693656921 1.802888220658883e-11
  outer loop
    vertex -1156.66357421875 -1908.37939453125 10950
    vertex -1310.958618164062 -1780.674438476562 10550
    vertex -1156.66357421875 -1908.37939453125 10550
  endloop
endfacet
facet normal -0.6311419010162354 -0.7756673693656921 1.802888220658883e-11
  outer loop
    vertex -1310.958618164062 -1780.674438476562 10550
    vertex -1156.66357421875 -1908.37939453125 10950
    vertex -1310.958618164062 -1780.674438476562 10950
  endloop
endfacet
facet normal -0.6804696917533875 -0.7327762246131897 1.931669234289668e-11
  outer loop
    vertex -1310.958618164062 -1780.674438476562 10950
    vertex -1456.641357421875 -1643.064575195312 10550
    vertex -1310.958618164062 -1780.674438476562 10550
  endloop
endfacet
facet normal -0.6804696917533875 -0.7327762246131897 1.931669234289668e-11
  outer loop
    vertex -1456.641357421875 -1643.064575195312 10550
    vertex -1310.958618164062 -1780.674438476562 10950
    vertex -1456.641357421875 -1643.064575195312 10950
  endloop
endfacet
facet normal -0.726939857006073 -0.6867011189460754 2.052325497048368e-11
  outer loop
    vertex -1456.641357421875 -1643.064575195312 10950
    vertex -1593.087768554688 -1496.13916015625 10550
    vertex -1456.641357421875 -1643.064575195312 10550
  endloop
endfacet
facet normal -0.726939857006073 -0.6867011189460754 2.052325497048368e-11
  outer loop
    vertex -1593.087768554688 -1496.13916015625 10550
    vertex -1456.641357421875 -1643.064575195312 10950
    vertex -1593.087768554688 -1496.13916015625 10950
  endloop
endfacet
facet normal -0.7703434228897095 -0.6376292109489441 2.164312479235875e-11
  outer loop
    vertex -1593.087768554688 -1496.13916015625 10950
    vertex -1719.713623046875 -1340.527221679688 10550
    vertex -1593.087768554688 -1496.13916015625 10550
  endloop
endfacet
facet normal -0.7703434228897095 -0.6376292109489441 2.164312479235875e-11
  outer loop
    vertex -1719.713623046875 -1340.527221679688 10550
    vertex -1593.087768554688 -1496.13916015625 10950
    vertex -1719.713623046875 -1340.527221679688 10950
  endloop
endfacet
facet normal -0.8104828000068665 -0.5857624411582947 2.267117570065036e-11
  outer loop
    vertex -1719.713623046875 -1340.527221679688 10950
    vertex -1772.24462890625 -1266.593627929688 10550
    vertex -1719.713623046875 -1340.527221679688 10550
  endloop
endfacet
facet normal -0.8104828000068665 -0.5857624411582947 2.267117570065036e-11
  outer loop
    vertex -1772.24462890625 -1266.593627929688 10550
    vertex -1719.713623046875 -1340.527221679688 10950
    vertex -1772.24462890625 -1266.593627929688 10950
  endloop
endfacet
facet normal -0.8104828000068665 -0.5857624411582947 2.267117570065036e-11
  outer loop
    vertex -1772.24462890625 -1266.593627929688 10950
    vertex -1835.9765625 -1176.8955078125 10550
    vertex -1772.24462890625 -1266.593627929688 10550
  endloop
endfacet
facet normal -0.8104828000068665 -0.5857624411582947 2.267117570065036e-11
  outer loop
    vertex -1835.9765625 -1176.8955078125 10550
    vertex -1772.24462890625 -1266.593627929688 10950
    vertex -1835.9765625 -1176.8955078125 10950
  endloop
endfacet
facet normal -0.8471729159355164 -0.5313173532485962 2.360264240997001e-11
  outer loop
    vertex -1835.9765625 -1176.8955078125 10950
    vertex -1941.378662109375 -1005.944580078125 10550
    vertex -1835.9765625 -1176.8955078125 10550
  endloop
endfacet
facet normal -0.8471729159355164 -0.5313173532485962 2.360264240997001e-11
  outer loop
    vertex -1941.378662109375 -1005.944580078125 10550
    vertex -1835.9765625 -1176.8955078125 10950
    vertex -1941.378662109375 -1005.944580078125 10950
  endloop
endfacet
facet normal -0.8802425861358643 -0.4745239913463593 2.443315168243476e-11
  outer loop
    vertex -1941.378662109375 -1005.944580078125 10950
    vertex -2035.468627929688 -828.4066162109375 10550
    vertex -1941.378662109375 -1005.944580078125 10550
  endloop
endfacet
facet normal -0.8802425861358643 -0.4745239913463593 2.443315168243476e-11
  outer loop
    vertex -2035.468627929688 -828.4066162109375 10550
    vertex -1941.378662109375 -1005.944580078125 10950
    vertex -2035.468627929688 -828.4066162109375 10950
  endloop
endfacet
facet normal -0.9095358848571777 -0.4156254529953003 2.515875875686024e-11
  outer loop
    vertex -2035.468627929688 -828.4066162109375 10950
    vertex -2117.84326171875 -645.0419921875 10550
    vertex -2035.468627929688 -828.4066162109375 10550
  endloop
endfacet
facet normal -0.9095358848571777 -0.4156254529953003 2.515875875686024e-11
  outer loop
    vertex -2117.84326171875 -645.0419921875 10550
    vertex -2035.468627929688 -828.4066162109375 10950
    vertex -2117.84326171875 -645.0419921875 10950
  endloop
endfacet
facet normal -0.934913158416748 -0.3548766076564789 2.577597163488932e-11
  outer loop
    vertex -2117.84326171875 -645.0419921875 10950
    vertex -2188.14990234375 -456.6359558105469 10550
    vertex -2117.84326171875 -645.0419921875 10550
  endloop
endfacet
facet normal -0.934913158416748 -0.3548766076564789 2.577597163488932e-11
  outer loop
    vertex -2188.14990234375 -456.6359558105469 10550
    vertex -2117.84326171875 -645.0419921875 10950
    vertex -2188.14990234375 -456.6359558105469 10950
  endloop
endfacet
facet normal -0.95625239610672 -0.2925429940223694 2.628179271435549e-11
  outer loop
    vertex -2188.14990234375 -456.6359558105469 10950
    vertex -2207.709228515625 -391.6018981933594 10550
    vertex -2188.14990234375 -456.6359558105469 10550
  endloop
endfacet
facet normal -0.95625239610672 -0.2925429940223694 2.628179271435549e-11
  outer loop
    vertex -2207.709228515625 -391.6018981933594 10550
    vertex -2188.14990234375 -456.6359558105469 10950
    vertex -2207.709228515625 -391.6018981933594 10950
  endloop
endfacet
facet normal -0.95625239610672 -0.2925429940223694 2.628179271435549e-11
  outer loop
    vertex -2207.709228515625 -391.6018981933594 10950
    vertex -2246.087646484375 -263.9954528808594 10550
    vertex -2207.709228515625 -391.6018981933594 10550
  endloop
endfacet
facet normal -0.95625239610672 -0.2925429940223694 2.628179271435549e-11
  outer loop
    vertex -2246.087646484375 -263.9954528808594 10550
    vertex -2207.709228515625 -391.6018981933594 10950
    vertex -2246.087646484375 -263.9954528808594 10950
  endloop
endfacet
facet normal -0.9734500646591187 -0.2288995087146759 2.667373787124117e-11
  outer loop
    vertex -2246.087646484375 -263.9954528808594 10950
    vertex -2291.407958984375 -67.94544982910156 10550
    vertex -2246.087646484375 -263.9954528808594 10550
  endloop
endfacet
facet normal -0.9734500646591187 -0.2288995087146759 2.667373787124117e-11
  outer loop
    vertex -2291.407958984375 -67.94544982910156 10550
    vertex -2246.087646484375 -263.9954528808594 10950
    vertex -2291.407958984375 -67.94544982910156 10950
  endloop
endfacet
facet normal -0.9864222407341003 -0.1642288565635681 2.694985901108282e-11
  outer loop
    vertex -2291.407958984375 -67.94544982910156 10950
    vertex -2323.917236328125 130.6743774414062 10550
    vertex -2291.407958984375 -67.94544982910156 10550
  endloop
endfacet
facet normal -0.9864222407341003 -0.1642288565635681 2.694985901108282e-11
  outer loop
    vertex -2323.917236328125 130.6743774414062 10550
    vertex -2291.407958984375 -67.94544982910156 10950
    vertex -2323.917236328125 130.6743774414062 10950
  endloop
endfacet
facet normal -0.9951053261756897 -0.09882000833749771 2.710877008982315e-11
  outer loop
    vertex -2323.917236328125 130.6743774414062 10950
    vertex -2343.475830078125 331.013427734375 10550
    vertex -2323.917236328125 130.6743774414062 10550
  endloop
endfacet
facet normal -0.9951053261756897 -0.09882000833749771 2.710877008982315e-11
  outer loop
    vertex -2343.475830078125 331.013427734375 10550
    vertex -2323.917236328125 130.6743774414062 10950
    vertex -2343.475830078125 331.013427734375 10950
  endloop
endfacet
facet normal -0.9994564652442932 -0.03296647593379021 2.71496523179815e-11
  outer loop
    vertex -2343.475830078125 331.013427734375 10950
    vertex -2348.703125 492.222900390625 10550
    vertex -2343.475830078125 331.013427734375 10550
  endloop
endfacet
facet normal -0.9994564652442932 -0.03296647593379021 2.71496523179815e-11
  outer loop
    vertex -2348.703125 492.222900390625 10550
    vertex -2343.475830078125 331.013427734375 10950
    vertex -2348.703125 492.222900390625 10950
  endloop
endfacet
facet normal -0.01948979683220387 0.9998100399971008 -6.425660784709075e-13
  outer loop
    vertex -2348.703125 492.222900390625 10950
    vertex -2348.429931640625 492.2283020019531 10550
    vertex -2348.703125 492.222900390625 10550
  endloop
endfacet
facet normal -0.01948979683220387 0.9998100399971008 -6.425660784709075e-13
  outer loop
    vertex -2348.429931640625 492.2283020019531 10550
    vertex -2348.703125 492.222900390625 10950
    vertex -2348.429931640625 492.2283020019531 10950
  endloop
endfacet
facet normal -0.9998034834861755 -0.0198247879743576 2.714367099143633e-11
  outer loop
    vertex -2348.429931640625 492.2283020019531 10950
    vertex -2349.245849609375 534.0755004882812 10550
    vertex -2348.429931640625 492.2283020019531 10550
  endloop
endfacet
facet normal -0.9998034834861755 -0.0198247879743576 2.714367099143633e-11
  outer loop
    vertex -2349.245849609375 534.0755004882812 10550
    vertex -2348.429931640625 492.2283020019531 10950
    vertex -2349.245849609375 534.0755004882812 10950
  endloop
endfacet
facet normal 0.01948979683220387 -0.9998100399971008 6.425660784709075e-13
  outer loop
    vertex -2349.245849609375 534.0755004882812 10950
    vertex -2349.931640625 534.0618896484375 10550
    vertex -2349.245849609375 534.0755004882812 10550
  endloop
endfacet
facet normal 0.01948979683220387 -0.9998100399971008 6.425660784709075e-13
  outer loop
    vertex -2349.931640625 534.0618896484375 10550
    vertex -2349.245849609375 534.0755004882812 10950
    vertex -2349.931640625 534.0618896484375 10950
  endloop
endfacet
facet normal -0.9992918968200684 0.03762544691562653 2.706249287165452e-11
  outer loop
    vertex -2349.931640625 534.0618896484375 10950
    vertex -2348.42333984375 574.8065185546875 10550
    vertex -2349.931640625 534.0618896484375 10550
  endloop
endfacet
facet normal -0.9992918968200684 0.03762544691562653 2.706249287165452e-11
  outer loop
    vertex -2348.42333984375 574.8065185546875 10550
    vertex -2349.931640625 534.0618896484375 10950
    vertex -2348.42333984375 574.8065185546875 10950
  endloop
endfacet
facet normal -0.9992918968200684 0.03762544691562653 2.706249287165452e-11
  outer loop
    vertex -2348.42333984375 574.8065185546875 10950
    vertex -2279.573486328125 2434.83154296875 10550
    vertex -2348.42333984375 574.8065185546875 10550
  endloop
endfacet
facet normal -0.9992918968200684 0.03762544691562653 2.706249287165452e-11
  outer loop
    vertex -2279.573486328125 2434.83154296875 10550
    vertex -2348.42333984375 574.8065185546875 10950
    vertex -2279.573486328125 2434.83154296875 10950
  endloop
endfacet
facet normal -0.9992918968200684 0.03762544691562653 2.706249287165452e-11
  outer loop
    vertex -2279.573486328125 2434.83154296875 10950
    vertex -2275.6708984375 2540.26025390625 10550
    vertex -2279.573486328125 2434.83154296875 10550
  endloop
endfacet
facet normal -0.9992918968200684 0.03762544691562653 2.706249287165452e-11
  outer loop
    vertex -2275.6708984375 2540.26025390625 10550
    vertex -2279.573486328125 2434.83154296875 10950
    vertex -2275.6708984375 2540.26025390625 10950
  endloop
endfacet
facet normal -0.994543731212616 0.1043203845620155 2.685556464709915e-11
  outer loop
    vertex -2275.6708984375 2540.26025390625 10950
    vertex -2071.97216796875 4515.623046875 10550
    vertex -2275.6708984375 2540.26025390625 10550
  endloop
endfacet
facet normal -0.994543731212616 0.1043203845620155 2.685556464709915e-11
  outer loop
    vertex -2071.97216796875 4515.623046875 10550
    vertex -2275.6708984375 2540.26025390625 10950
    vertex -2071.97216796875 4515.623046875 10950
  endloop
endfacet
facet normal -0.994543731212616 0.1043203845620155 2.685556464709915e-11
  outer loop
    vertex -2071.97216796875 4515.623046875 10950
    vertex -2069.5693359375 4538.92578125 10550
    vertex -2071.97216796875 4515.623046875 10550
  endloop
endfacet
facet normal -0.994543731212616 0.1043203845620155 2.685556464709915e-11
  outer loop
    vertex -2069.5693359375 4538.92578125 10550
    vertex -2071.97216796875 4515.623046875 10950
    vertex -2069.5693359375 4538.92578125 10950
  endloop
endfacet
facet normal -0.9853518605232239 0.1705334931612015 2.652866121222175e-11
  outer loop
    vertex -2069.5693359375 4538.92578125 10950
    vertex -1732.601318359375 6519.42333984375 10550
    vertex -2069.5693359375 4538.92578125 10550
  endloop
endfacet
facet normal -0.9853518605232239 0.1705334931612015 2.652866121222175e-11
  outer loop
    vertex -1732.601318359375 6519.42333984375 10550
    vertex -2069.5693359375 4538.92578125 10950
    vertex -1732.601318359375 6519.42333984375 10950
  endloop
endfacet
facet normal -0.9717627763748169 0.2359599024057388 2.608340279874888e-11
  outer loop
    vertex -1732.601318359375 6519.42333984375 10950
    vertex -1393.424438476562 7940.287109375 10550
    vertex -1732.601318359375 6519.42333984375 10550
  endloop
endfacet
facet normal -0.9717627763748169 0.2359599024057388 2.608340279874888e-11
  outer loop
    vertex -1393.424438476562 7940.287109375 10550
    vertex -1732.601318359375 6519.42333984375 10950
    vertex -1393.424438476562 7940.287109375 10950
  endloop
endfacet
facet normal -0.9717627763748169 0.2359599024057388 2.608340279874888e-11
  outer loop
    vertex -1393.424438476562 7940.287109375 10950
    vertex -1266.248291015625 8473.046875 10550
    vertex -1393.424438476562 7940.287109375 10550
  endloop
endfacet
facet normal -0.9717627763748169 0.2359599024057388 2.608340279874888e-11
  outer loop
    vertex -1266.248291015625 8473.046875 10550
    vertex -1393.424438476562 7940.287109375 10950
    vertex -1266.248291015625 8473.046875 10950
  endloop
endfacet
facet normal -0.9538449048995972 0.3002997040748596 2.55219942402185e-11
  outer loop
    vertex -1266.248291015625 8473.046875 10950
    vertex -810.2802124023438 9946.24609375 10550
    vertex -1266.248291015625 8473.046875 10550
  endloop
endfacet
facet normal -0.9538449048995972 0.3002997040748596 2.55219942402185e-11
  outer loop
    vertex -810.2802124023438 9946.24609375 10550
    vertex -1266.248291015625 8473.046875 10950
    vertex -810.2802124023438 9946.24609375 10950
  endloop
endfacet
facet normal -0.9538449048995972 0.3002997040748596 2.55219942402185e-11
  outer loop
    vertex -810.2802124023438 9946.24609375 10950
    vertex -672.560302734375 10391.208984375 10550
    vertex -810.2802124023438 9946.24609375 10550
  endloop
endfacet
facet normal -0.9538449048995972 0.3002997040748596 2.55219942402185e-11
  outer loop
    vertex -672.560302734375 10391.208984375 10550
    vertex -810.2802124023438 9946.24609375 10950
    vertex -672.560302734375 10391.208984375 10950
  endloop
endfacet
facet normal -0.9316878914833069 0.3632597029209137 2.484721282891567e-11
  outer loop
    vertex -672.560302734375 10391.208984375 10950
    vertex 45.85287475585938 12265.4765625 10550
    vertex -672.560302734375 10391.208984375 10550
  endloop
endfacet
facet normal -0.9316878914833069 0.3632597029209137 2.484721282891567e-11
  outer loop
    vertex 45.85287475585938 12265.4765625 10550
    vertex -672.560302734375 10391.208984375 10950
    vertex 45.85287475585938 12265.4765625 10950
  endloop
endfacet
facet normal -0.9316878914833069 0.3632597029209137 2.484721282891567e-11
  outer loop
    vertex 45.85287475585938 12265.4765625 10950
    vertex 90.78369903564453 12382.6962890625 10550
    vertex 45.85287475585938 12265.4765625 10550
  endloop
endfacet
facet normal -0.9316878914833069 0.3632597029209137 2.484721282891567e-11
  outer loop
    vertex 90.78369903564453 12382.6962890625 10550
    vertex 45.85287475585938 12265.4765625 10950
    vertex 90.78369903564453 12382.6962890625 10950
  endloop
endfacet
facet normal -7.784424146950464e-12 1 -1.171464509598652e-12
  outer loop
    vertex 90.78369903564453 12382.6962890625 10950
    vertex 150 12382.6962890625 10550
    vertex 90.78369903564453 12382.6962890625 10550
  endloop
endfacet
facet normal -7.784424146950464e-12 1 -1.171464509598652e-12
  outer loop
    vertex 150 12382.6962890625 10550
    vertex 90.78369903564453 12382.6962890625 10950
    vertex 150 12382.6962890625 10950
  endloop
endfacet
facet normal 0 1 -1.171464509598652e-12
  outer loop
    vertex 150 12382.6962890625 10950
    vertex 1000 12382.6962890625 10550
    vertex 150 12382.6962890625 10550
  endloop
endfacet
facet normal 0 1 -1.171464509598652e-12
  outer loop
    vertex 1000 12382.6962890625 10550
    vertex 150 12382.6962890625 10950
    vertex 1000 12382.6962890625 10950
  endloop
endfacet
facet normal 0 1 -1.171464509598652e-12
  outer loop
    vertex 1000 12382.6962890625 10950
    vertex 6400 12382.6962890625 10550
    vertex 1000 12382.6962890625 10550
  endloop
endfacet
facet normal 0 1 -1.171464509598652e-12
  outer loop
    vertex 6400 12382.6962890625 10550
    vertex 1000 12382.6962890625 10950
    vertex 6400 12382.6962890625 10950
  endloop
endfacet
facet normal 7.229416175945358e-13 1 -1.171464509598652e-12
  outer loop
    vertex 6400 12382.6962890625 10950
    vertex 7200 12382.6962890625 10550
    vertex 6400 12382.6962890625 10550
  endloop
endfacet
facet normal 7.229416175945358e-13 1 -1.171464509598652e-12
  outer loop
    vertex 7200 12382.6962890625 10550
    vertex 6400 12382.6962890625 10950
    vertex 7200 12382.6962890625 10950
  endloop
endfacet
facet normal 1 3.6404573982901e-15 -2.712577731878163e-11
  outer loop
    vertex 7200 12382.6962890625 10550
    vertex 7200 11856.01171875 10950
    vertex 7200 11856.01171875 10550
  endloop
endfacet
facet normal 1 3.6404573982901e-15 -2.712577731878163e-11
  outer loop
    vertex 7200 11856.01171875 10950
    vertex 7200 12382.6962890625 10550
    vertex 7200 12382.6962890625 10950
  endloop
endfacet
facet normal -8.654397185871299e-13 1 -1.171464509598652e-12
  outer loop
    vertex 7200 11856.01171875 10550
    vertex 8629.1865234375 11856.01171875 10950
    vertex 8629.1865234375 11856.01171875 10550
  endloop
endfacet
facet normal -8.654397185871299e-13 1 -1.171464509598652e-12
  outer loop
    vertex 8629.1865234375 11856.01171875 10950
    vertex 7200 11856.01171875 10550
    vertex 7200 11856.01171875 10950
  endloop
endfacet
facet normal 1 8.156080671950505e-11 -2.712577731878163e-11
  outer loop
    vertex 8629.1865234375 11856.01171875 10550
    vertex 8629.1865234375 11777.560546875 10950
    vertex 8629.1865234375 11777.560546875 10550
  endloop
endfacet
facet normal 1 8.156080671950505e-11 -2.712577731878163e-11
  outer loop
    vertex 8629.1865234375 11777.560546875 10950
    vertex 8629.1865234375 11856.01171875 10550
    vertex 8629.1865234375 11856.01171875 10950
  endloop
endfacet
facet normal 1 -1.003836770652189e-13 -2.712577731878163e-11
  outer loop
    vertex 8629.1865234375 11777.560546875 10550
    vertex 8629.1865234375 9407.4423828125 10950
    vertex 8629.1865234375 9407.4423828125 10550
  endloop
endfacet
facet normal 1 -1.003836770652189e-13 -2.712577731878163e-11
  outer loop
    vertex 8629.1865234375 9407.4423828125 10950
    vertex 8629.1865234375 11777.560546875 10550
    vertex 8629.1865234375 11777.560546875 10950
  endloop
endfacet
facet normal 1 -2.903004876417259e-12 -2.712577731878163e-11
  outer loop
    vertex 8629.1865234375 9407.4423828125 10550
    vertex 8629.1865234375 6583.47265625 10950
    vertex 8629.1865234375 6583.47265625 10550
  endloop
endfacet
facet normal 1 -2.903004876417259e-12 -2.712577731878163e-11
  outer loop
    vertex 8629.1865234375 6583.47265625 10950
    vertex 8629.1865234375 9407.4423828125 10550
    vertex 8629.1865234375 9407.4423828125 10950
  endloop
endfacet
facet normal 1 1.547210406122066e-23 -2.712577731878163e-11
  outer loop
    vertex 8629.1865234375 6583.47265625 10550
    vertex 8629.1865234375 5171.48779296875 10950
    vertex 8629.1865234375 5171.48779296875 10550
  endloop
endfacet
facet normal 1 1.547210406122066e-23 -2.712577731878163e-11
  outer loop
    vertex 8629.1865234375 5171.48779296875 10950
    vertex 8629.1865234375 6583.47265625 10550
    vertex 8629.1865234375 6583.47265625 10950
  endloop
endfacet
facet normal 1 -8.407882680014356e-13 -2.712577731878163e-11
  outer loop
    vertex 8629.1865234375 5171.48779296875 10550
    vertex 8629.1865234375 2582.800537109375 10950
    vertex 8629.1865234375 2582.800537109375 10550
  endloop
endfacet
facet normal 1 -8.407882680014356e-13 -2.712577731878163e-11
  outer loop
    vertex 8629.1865234375 2582.800537109375 10950
    vertex 8629.1865234375 5171.48779296875 10550
    vertex 8629.1865234375 5171.48779296875 10950
  endloop
endfacet
facet normal 1 1.359898413495764e-12 -2.712577731878163e-11
  outer loop
    vertex 8629.1865234375 2582.800537109375 10550
    vertex 8629.1865234375 -5.886493682861328 10950
    vertex 8629.1865234375 -5.886493682861328 10550
  endloop
endfacet
facet normal 1 1.359898413495764e-12 -2.712577731878163e-11
  outer loop
    vertex 8629.1865234375 -5.886493682861328 10950
    vertex 8629.1865234375 2582.800537109375 10550
    vertex 8629.1865234375 2582.800537109375 10950
  endloop
endfacet
facet normal -8.086069772029076e-23 -1 1.171464509598652e-12
  outer loop
    vertex 8629.1865234375 -5.886493682861328 10550
    vertex 8618.9189453125 -5.886493682861328 10950
    vertex 8618.9189453125 -5.886493682861328 10550
  endloop
endfacet
facet normal -8.086069772029076e-23 -1 1.171464509598652e-12
  outer loop
    vertex 8618.9189453125 -5.886493682861328 10950
    vertex 8629.1865234375 -5.886493682861328 10550
    vertex 8629.1865234375 -5.886493682861328 10950
  endloop
endfacet
facet normal 0.5344609618186951 -0.8451931476593018 -1.350755531731584e-11
  outer loop
    vertex 8618.9189453125 -5.886493682861328 10550
    vertex 8528.2587890625 -64.20147705078125 10950
    vertex 8528.2587890625 -64.20147705078125 10550
  endloop
endfacet
facet normal 0.5344609618186951 -0.8451931476593018 -1.350755531731584e-11
  outer loop
    vertex 8528.2587890625 -64.20147705078125 10950
    vertex 8618.9189453125 -5.886493682861328 10550
    vertex 8618.9189453125 -5.886493682861328 10950
  endloop
endfacet
facet normal 0.5344609618186951 -0.8451931476593018 -1.350755531731584e-11
  outer loop
    vertex 8528.2587890625 -64.20147705078125 10950
    vertex 7748.37548828125 -565.8435668945312 10550
    vertex 8528.2587890625 -64.20147705078125 10550
  endloop
endfacet
facet normal 0.5344609618186951 -0.8451931476593018 -1.350755531731584e-11
  outer loop
    vertex 7748.37548828125 -565.8435668945312 10550
    vertex 8528.2587890625 -64.20147705078125 10950
    vertex 7748.37548828125 -565.8435668945312 10950
  endloop
endfacet
facet normal 0.4779268205165863 -0.878399670124054 -1.193512302877231e-11
  outer loop
    vertex 7748.37548828125 -565.8435668945312 10950
    vertex 6937.45361328125 -1014.642883300781 10550
    vertex 7748.37548828125 -565.8435668945312 10550
  endloop
endfacet
facet normal 0.4779268205165863 -0.878399670124054 -1.193512302877231e-11
  outer loop
    vertex 6937.45361328125 -1014.642883300781 10550
    vertex 7748.37548828125 -565.8435668945312 10950
    vertex 6937.45361328125 -1014.642883300781 10950
  endloop
endfacet
facet normal 0.4193941950798035 -0.9078042507171631 -1.031293279940559e-11
  outer loop
    vertex 6937.45361328125 -1014.642883300781 10950
    vertex 6099.00927734375 -1408.654052734375 10550
    vertex 6937.45361328125 -1014.642883300781 10550
  endloop
endfacet
facet normal 0.4193941950798035 -0.9078042507171631 -1.031293279940559e-11
  outer loop
    vertex 6099.00927734375 -1408.654052734375 10550
    vertex 6937.45361328125 -1014.642883300781 10950
    vertex 6099.00927734375 -1408.654052734375 10950
  endloop
endfacet
facet normal 0.3591142296791077 -0.9332936406135559 -8.647932196736985e-12
  outer loop
    vertex 6099.00927734375 -1408.654052734375 10950
    vertex 5500.39208984375 -1642.951416015625 10550
    vertex 6099.00927734375 -1408.654052734375 10550
  endloop
endfacet
facet normal 0.3591142296791077 -0.9332936406135559 -8.647932196736985e-12
  outer loop
    vertex 5500.39208984375 -1642.951416015625 10550
    vertex 6099.00927734375 -1408.654052734375 10950
    vertex 5500.39208984375 -1642.951416015625 10950
  endloop
endfacet
facet normal 0.3591142296791077 -0.9332936406135559 -8.647932196736985e-12
  outer loop
    vertex 5500.39208984375 -1642.951416015625 10550
    vertex 5236.67626953125 -1746.16943359375 10950
    vertex 5236.67626953125 -1746.16943359375 10550
  endloop
endfacet
facet normal 0.3591142296791077 -0.9332936406135559 -8.647932196736985e-12
  outer loop
    vertex 5236.67626953125 -1746.16943359375 10950
    vertex 5500.39208984375 -1642.951416015625 10550
    vertex 5500.39208984375 -1642.951416015625 10950
  endloop
endfacet
facet normal 0.297342985868454 -0.9547707438468933 -6.947179810590232e-12
  outer loop
    vertex 5236.67626953125 -1746.16943359375 10950
    vertex 4354.19140625 -2025.72607421875 10550
    vertex 5236.67626953125 -1746.16943359375 10550
  endloop
endfacet
facet normal 0.297342985868454 -0.9547707438468933 -6.947179810590232e-12
  outer loop
    vertex 4354.19140625 -2025.72607421875 10550
    vertex 5236.67626953125 -1746.16943359375 10950
    vertex 4354.19140625 -2025.72607421875 10950
  endloop
endfacet
endsolid com.sketchup.SketchUp.2019
