solid com.sketchup.SketchUp.2019
facet normal -2.380413032486428e-13 5.850795108813811e-13 -1
  outer loop
    vertex 24500 8406.01171875 10550
    vertex 24500 8306.01171875 10550
    vertex 24399.146484375 8406.01171875 10550
  endloop
endfacet
facet normal -2.380413032486428e-13 5.850795108813811e-13 -1
  outer loop
    vertex 24399.146484375 8406.01171875 10550
    vertex 12300 1705.085571289062 10550
    vertex 12300 8406.01171875 10550
  endloop
endfacet
facet normal -2.380413032486428e-13 5.850795108813811e-13 -1
  outer loop
    vertex 12300 1705.085571289062 10550
    vertex 24399.146484375 8406.01171875 10550
    vertex 24500 1705.085571289062 10550
  endloop
endfacet
facet normal -2.380413032486428e-13 5.850795108813811e-13 -1
  outer loop
    vertex 24500 1705.085571289062 10550
    vertex 24399.146484375 8406.01171875 10550
    vertex 24500 8306.01171875 10550
  endloop
endfacet
facet normal 2.380413032486428e-13 -5.850795108813811e-13 1
  outer loop
    vertex 24500 1705.085571289062 10950
    vertex 12300 8406.01171875 10950
    vertex 12300 1705.085571289062 10950
  endloop
endfacet
facet normal 2.380413032486428e-13 -5.850795108813811e-13 1
  outer loop
    vertex 12300 8406.01171875 10950
    vertex 24500 1705.085571289062 10950
    vertex 24399.146484375 8406.01171875 10950
  endloop
endfacet
facet normal 2.380413032486428e-13 -5.850795108813811e-13 1
  outer loop
    vertex 24399.146484375 8406.01171875 10950
    vertex 24500 1705.085571289062 10950
    vertex 24500 8306.01171875 10950
  endloop
endfacet
facet normal 2.380413032486428e-13 -5.850795108813811e-13 1
  outer loop
    vertex 24500 8406.01171875 10950
    vertex 24399.146484375 8406.01171875 10950
    vertex 24500 8306.01171875 10950
  endloop
endfacet
facet normal -7.159956797646392e-16 1 5.847482329075782e-13
  outer loop
    vertex 12300 8406.01171875 10550
    vertex 24399.146484375 8406.01171875 10950
    vertex 24399.146484375 8406.01171875 10550
  endloop
endfacet
facet normal -7.159956797646392e-16 1 5.847482329075782e-13
  outer loop
    vertex 24399.146484375 8406.01171875 10950
    vertex 12300 8406.01171875 10550
    vertex 12300 8406.01171875 10950
  endloop
endfacet
facet normal -1 1.388672527100973e-26 2.380413032486428e-13
  outer loop
    vertex 12300 8406.01171875 10950
    vertex 12300 1705.085571289062 10550
    vertex 12300 1705.085571289062 10950
  endloop
endfacet
facet normal -1 1.388672527100973e-26 2.380413032486428e-13
  outer loop
    vertex 12300 1705.085571289062 10550
    vertex 12300 8406.01171875 10950
    vertex 12300 8406.01171875 10550
  endloop
endfacet
facet normal -5.917306656814028e-17 -1 -5.850795108813811e-13
  outer loop
    vertex 24500 1705.085571289062 10950
    vertex 12300 1705.085571289062 10550
    vertex 24500 1705.085571289062 10550
  endloop
endfacet
facet normal -5.917306656814028e-17 -1 -5.850795108813811e-13
  outer loop
    vertex 12300 1705.085571289062 10550
    vertex 24500 1705.085571289062 10950
    vertex 12300 1705.085571289062 10950
  endloop
endfacet
facet normal 1 8.749214011635298e-16 -2.380413032486428e-13
  outer loop
    vertex 24500 1705.085571289062 10550
    vertex 24500 8306.01171875 10950
    vertex 24500 1705.085571289062 10950
  endloop
endfacet
facet normal 1 8.749214011635298e-16 -2.380413032486428e-13
  outer loop
    vertex 24500 8306.01171875 10950
    vertex 24500 1705.085571289062 10550
    vertex 24500 8306.01171875 10550
  endloop
endfacet
facet normal 1 -5.775291540572464e-14 -2.380413032486428e-13
  outer loop
    vertex 24500 8306.01171875 10550
    vertex 24500 8406.01171875 10950
    vertex 24500 8306.01171875 10950
  endloop
endfacet
facet normal 1 -5.775291540572464e-14 -2.380413032486428e-13
  outer loop
    vertex 24500 8406.01171875 10950
    vertex 24500 8306.01171875 10550
    vertex 24500 8406.01171875 10550
  endloop
endfacet
facet normal 8.589679125316566e-14 1 5.847482329075782e-13
  outer loop
    vertex 24399.146484375 8406.01171875 10950
    vertex 24500 8406.01171875 10550
    vertex 24399.146484375 8406.01171875 10550
  endloop
endfacet
facet normal 8.589679125316566e-14 1 5.847482329075782e-13
  outer loop
    vertex 24500 8406.01171875 10550
    vertex 24399.146484375 8406.01171875 10950
    vertex 24500 8406.01171875 10950
  endloop
endfacet
endsolid com.sketchup.SketchUp.2019
