solid com.sketchup.SketchUp.2019
facet normal -6.435210003763459e-11 1.12166664845148e-10 -1
  outer loop
    vertex 36450 8406.01171875 10550
    vertex 24500 8306.123046875 10550
    vertex 24500 8406.01171875 10550
  endloop
endfacet
facet normal -6.435210003763459e-11 1.12166664845148e-10 -1
  outer loop
    vertex 24500 8306.123046875 10550
    vertex 24400 1708.35498046875 10550
    vertex 24400 8306.123046875 10550
  endloop
endfacet
facet normal -6.435210003763459e-11 1.12166664845148e-10 -1
  outer loop
    vertex 24400 1708.35498046875 10550
    vertex 24500 8306.123046875 10550
    vertex 36450 1708.35498046875 10550
  endloop
endfacet
facet normal -6.435210003763459e-11 1.12166664845148e-10 -1
  outer loop
    vertex 36450 1708.35498046875 10550
    vertex 24500 8306.123046875 10550
    vertex 36450 8406.01171875 10550
  endloop
endfacet
facet normal 6.435210003763459e-11 -1.12166664845148e-10 1
  outer loop
    vertex 36450 1708.35498046875 10950
    vertex 24400 8306.123046875 10950
    vertex 24400 1708.35498046875 10950
  endloop
endfacet
facet normal 6.435210003763459e-11 -1.12166664845148e-10 1
  outer loop
    vertex 24400 8306.123046875 10950
    vertex 36450 1708.35498046875 10950
    vertex 24500 8306.123046875 10950
  endloop
endfacet
facet normal 6.435210003763459e-11 -1.12166664845148e-10 1
  outer loop
    vertex 24500 8306.123046875 10950
    vertex 36450 1708.35498046875 10950
    vertex 24500 8406.01171875 10950
  endloop
endfacet
facet normal 6.435210003763459e-11 -1.12166664845148e-10 1
  outer loop
    vertex 24500 8406.01171875 10950
    vertex 36450 1708.35498046875 10950
    vertex 36450 8406.01171875 10950
  endloop
endfacet
facet normal 6.316446448661485e-17 -1 -1.126677570684187e-10
  outer loop
    vertex 36450 1708.35498046875 10950
    vertex 24400 1708.35498046875 10550
    vertex 36450 1708.35498046875 10550
  endloop
endfacet
facet normal 6.316446448661485e-17 -1 -1.126677570684187e-10
  outer loop
    vertex 24400 1708.35498046875 10550
    vertex 36450 1708.35498046875 10950
    vertex 24400 1708.35498046875 10950
  endloop
endfacet
facet normal 1 1.525641420476434e-20 -5.909533279391255e-11
  outer loop
    vertex 36450 1708.35498046875 10550
    vertex 36450 8406.01171875 10950
    vertex 36450 1708.35498046875 10950
  endloop
endfacet
facet normal 1 1.525641420476434e-20 -5.909533279391255e-11
  outer loop
    vertex 36450 8406.01171875 10950
    vertex 36450 1708.35498046875 10550
    vertex 36450 8406.01171875 10550
  endloop
endfacet
facet normal 0 1 1.126677570684187e-10
  outer loop
    vertex 24500 8406.01171875 10950
    vertex 36450 8406.01171875 10550
    vertex 24500 8406.01171875 10550
  endloop
endfacet
facet normal 0 1 1.126677570684187e-10
  outer loop
    vertex 36450 8406.01171875 10550
    vertex 24500 8406.01171875 10950
    vertex 36450 8406.01171875 10950
  endloop
endfacet
facet normal -1 -2.791222438866799e-23 5.909533279391255e-11
  outer loop
    vertex 24500 8406.01171875 10950
    vertex 24500 8306.123046875 10550
    vertex 24500 8306.123046875 10950
  endloop
endfacet
facet normal -1 -2.791222438866799e-23 5.909533279391255e-11
  outer loop
    vertex 24500 8306.123046875 10550
    vertex 24500 8406.01171875 10950
    vertex 24500 8406.01171875 10550
  endloop
endfacet
facet normal -1 -6.065373533224142e-23 5.909533279391255e-11
  outer loop
    vertex 24400 8306.123046875 10950
    vertex 24400 1708.35498046875 10550
    vertex 24400 1708.35498046875 10950
  endloop
endfacet
facet normal -1 -6.065373533224142e-23 5.909533279391255e-11
  outer loop
    vertex 24400 1708.35498046875 10550
    vertex 24400 8306.123046875 10950
    vertex 24400 8306.123046875 10550
  endloop
endfacet
facet normal 7.184238911227073e-21 1 1.126704909926168e-10
  outer loop
    vertex 24400 8306.123046875 10550
    vertex 24500 8306.123046875 10950
    vertex 24500 8306.123046875 10550
  endloop
endfacet
facet normal 7.184238911227073e-21 1 1.126704909926168e-10
  outer loop
    vertex 24500 8306.123046875 10950
    vertex 24400 8306.123046875 10550
    vertex 24400 8306.123046875 10950
  endloop
endfacet
endsolid com.sketchup.SketchUp.2019
