solid com.sketchup.SketchUp.2019
facet normal 2.591289355535981e-15 1.367197256591705e-15 -1
  outer loop
    vertex 33400 17355.26171875 10550
    vertex 33400 13356.01171875 10550
    vertex 33400 17256.01171875 10550
  endloop
endfacet
facet normal 2.591289355535981e-15 1.367197256591705e-15 -1
  outer loop
    vertex 33400 13356.01171875 10550
    vertex 33400 17355.26171875 10550
    vertex 36500 17355.26171875 10550
  endloop
endfacet
facet normal 2.591289355535981e-15 1.367197256591705e-15 -1
  outer loop
    vertex 33400 13356.01171875 10550
    vertex 36500 17355.26171875 10550
    vertex 33500 13356.01171875 10550
  endloop
endfacet
facet normal 2.591289355535981e-15 1.367197256591705e-15 -1
  outer loop
    vertex 33500 13356.01171875 10550
    vertex 36500 17355.26171875 10550
    vertex 36500 13356.01171875 10550
  endloop
endfacet
facet normal -2.591289355535981e-15 -1.367197256591705e-15 1
  outer loop
    vertex 33400 13356.01171875 10950
    vertex 33400 17355.26171875 10950
    vertex 33400 17256.01171875 10950
  endloop
endfacet
facet normal -2.591289355535981e-15 -1.367197256591705e-15 1
  outer loop
    vertex 33400 17355.26171875 10950
    vertex 33400 13356.01171875 10950
    vertex 33500 13356.01171875 10950
  endloop
endfacet
facet normal -2.591289355535981e-15 -1.367197256591705e-15 1
  outer loop
    vertex 33400 17355.26171875 10950
    vertex 33500 13356.01171875 10950
    vertex 36500 17355.26171875 10950
  endloop
endfacet
facet normal -2.591289355535981e-15 -1.367197256591705e-15 1
  outer loop
    vertex 36500 17355.26171875 10950
    vertex 33500 13356.01171875 10950
    vertex 36500 13356.01171875 10950
  endloop
endfacet
facet normal -1 8.146506472878068e-13 -2.591289355535981e-15
  outer loop
    vertex 33400 17355.26171875 10950
    vertex 33400 17256.01171875 10550
    vertex 33400 17256.01171875 10950
  endloop
endfacet
facet normal -1 8.146506472878068e-13 -2.591289355535981e-15
  outer loop
    vertex 33400 17256.01171875 10550
    vertex 33400 17355.26171875 10950
    vertex 33400 17355.26171875 10550
  endloop
endfacet
facet normal -1 -2.073181578667038e-14 -2.591289355535981e-15
  outer loop
    vertex 33400 17256.01171875 10950
    vertex 33400 13356.01171875 10550
    vertex 33400 13356.01171875 10950
  endloop
endfacet
facet normal -1 -2.073181578667038e-14 -2.591289355535981e-15
  outer loop
    vertex 33400 13356.01171875 10550
    vertex 33400 17256.01171875 10950
    vertex 33400 17256.01171875 10550
  endloop
endfacet
facet normal 0 -1 -1.367197256591705e-15
  outer loop
    vertex 33500 13356.01171875 10950
    vertex 33400 13356.01171875 10550
    vertex 33500 13356.01171875 10550
  endloop
endfacet
facet normal 0 -1 -1.367197256591705e-15
  outer loop
    vertex 33400 13356.01171875 10550
    vertex 33500 13356.01171875 10950
    vertex 33400 13356.01171875 10950
  endloop
endfacet
facet normal 0 -1 -1.367197256591705e-15
  outer loop
    vertex 36500 13356.01171875 10950
    vertex 33500 13356.01171875 10550
    vertex 36500 13356.01171875 10550
  endloop
endfacet
facet normal 0 -1 -1.367197256591705e-15
  outer loop
    vertex 33500 13356.01171875 10550
    vertex 36500 13356.01171875 10950
    vertex 33500 13356.01171875 10950
  endloop
endfacet
facet normal 1 -1.029067702709849e-29 2.591289355535981e-15
  outer loop
    vertex 36500 17355.26171875 10550
    vertex 36500 13356.01171875 10950
    vertex 36500 13356.01171875 10550
  endloop
endfacet
facet normal 1 -1.029067702709849e-29 2.591289355535981e-15
  outer loop
    vertex 36500 13356.01171875 10950
    vertex 36500 17355.26171875 10550
    vertex 36500 17355.26171875 10950
  endloop
endfacet
facet normal -7.00448307553293e-30 1 1.367197256591705e-15
  outer loop
    vertex 33400 17355.26171875 10950
    vertex 36500 17355.26171875 10550
    vertex 33400 17355.26171875 10550
  endloop
endfacet
facet normal -7.00448307553293e-30 1 1.367197256591705e-15
  outer loop
    vertex 36500 17355.26171875 10550
    vertex 33400 17355.26171875 10950
    vertex 36500 17355.26171875 10950
  endloop
endfacet
endsolid com.sketchup.SketchUp.2019
