solid com.sketchup.SketchUp.2019
facet normal 2.712577731878163e-11 1.198714196480599e-12 1
  outer loop
    vertex -2334.1845703125 584.9760131835938 14450
    vertex -2333.362060546875 625.9498901367188 14450
    vertex -2334.870361328125 584.9622802734375 14450
  endloop
endfacet
facet normal 2.712577731878163e-11 1.198714196480599e-12 1
  outer loop
    vertex -2333.362060546875 625.9498901367188 14450
    vertex -2334.1845703125 584.9760131835938 14450
    vertex -2333.36865234375 542.8792114257812 14450
  endloop
endfacet
facet normal 2.712577731878163e-11 1.198714196480599e-12 1
  outer loop
    vertex -2328.414306640625 380.702880859375 14450
    vertex -2333.36865234375 542.8792114257812 14450
    vertex -2333.641845703125 542.873779296875 14450
  endloop
endfacet
facet normal 2.712577731878163e-11 1.198714196480599e-12 1
  outer loop
    vertex -2333.36865234375 542.8792114257812 14450
    vertex -2328.414306640625 380.702880859375 14450
    vertex -2333.362060546875 625.9498901367188 14450
  endloop
endfacet
facet normal 2.712577731878163e-11 1.198714196480599e-12 1
  outer loop
    vertex -2333.362060546875 625.9498901367188 14450
    vertex -2328.414306640625 380.702880859375 14450
    vertex -2264.511962890625 2497.06787109375 14450
  endloop
endfacet
facet normal 2.712577731878163e-11 1.198714196480599e-12 1
  outer loop
    vertex -2264.511962890625 2497.06787109375 14450
    vertex -2328.414306640625 380.702880859375 14450
    vertex -2308.855712890625 179.1690063476562 14450
  endloop
endfacet
facet normal 2.712577731878163e-11 1.198714196480599e-12 1
  outer loop
    vertex -2264.511962890625 2497.06787109375 14450
    vertex -2308.855712890625 179.1690063476562 14450
    vertex -2276.3466796875 -20.63538932800293 14450
  endloop
endfacet
facet normal 2.712577731878163e-11 1.198714196480599e-12 1
  outer loop
    vertex -2264.511962890625 2497.06787109375 14450
    vertex -2276.3466796875 -20.63538932800293 14450
    vertex -2231.0263671875 -217.8546142578125 14450
  endloop
endfacet
facet normal 2.712577731878163e-11 1.198714196480599e-12 1
  outer loop
    vertex -2264.511962890625 2497.06787109375 14450
    vertex -2231.0263671875 -217.8546142578125 14450
    vertex -2260.609619140625 2603.125732421875 14450
  endloop
endfacet
facet normal 2.712577731878163e-11 1.198714196480599e-12 1
  outer loop
    vertex -2260.609619140625 2603.125732421875 14450
    vertex -2231.0263671875 -217.8546142578125 14450
    vertex -2056.910888671875 4590.26953125 14450
  endloop
endfacet
facet normal 2.712577731878163e-11 1.198714196480599e-12 1
  outer loop
    vertex -2056.910888671875 4590.26953125 14450
    vertex -2231.0263671875 -217.8546142578125 14450
    vertex -2192.64794921875 -346.2221069335938 14450
  endloop
endfacet
facet normal 2.712577731878163e-11 1.198714196480599e-12 1
  outer loop
    vertex -2056.910888671875 4590.26953125 14450
    vertex -2192.64794921875 -346.2221069335938 14450
    vertex -2173.088623046875 -411.6440124511719 14450
  endloop
endfacet
facet normal 2.712577731878163e-11 1.198714196480599e-12 1
  outer loop
    vertex -2056.910888671875 4590.26953125 14450
    vertex -2173.088623046875 -411.6440124511719 14450
    vertex -2102.781982421875 -601.1737060546875 14450
  endloop
endfacet
facet normal 2.712577731878163e-11 1.198714196480599e-12 1
  outer loop
    vertex -2056.910888671875 4590.26953125 14450
    vertex -2102.781982421875 -601.1737060546875 14450
    vertex -2020.4072265625 -785.6318969726562 14450
  endloop
endfacet
facet normal 2.712577731878163e-11 1.198714196480599e-12 1
  outer loop
    vertex -2056.910888671875 4590.26953125 14450
    vertex -2020.4072265625 -785.6318969726562 14450
    vertex -2054.508056640625 4613.7109375 14450
  endloop
endfacet
facet normal 2.712577731878163e-11 1.198714196480599e-12 1
  outer loop
    vertex -2054.508056640625 4613.7109375 14450
    vertex -2020.4072265625 -785.6318969726562 14450
    vertex -1717.5400390625 6606.02001953125 14450
  endloop
endfacet
facet normal 2.712577731878163e-11 1.198714196480599e-12 1
  outer loop
    vertex -1717.5400390625 6606.02001953125 14450
    vertex -2020.4072265625 -785.6318969726562 14450
    vertex -1926.3173828125 -964.2286987304688 14450
  endloop
endfacet
facet normal 2.712577731878163e-11 1.198714196480599e-12 1
  outer loop
    vertex -1717.5400390625 6606.02001953125 14450
    vertex -1926.3173828125 -964.2286987304688 14450
    vertex -1820.915283203125 -1136.19921875 14450
  endloop
endfacet
facet normal 2.712577731878163e-11 1.198714196480599e-12 1
  outer loop
    vertex -1717.5400390625 6606.02001953125 14450
    vertex -1820.915283203125 -1136.19921875 14450
    vertex -1757.183349609375 -1226.432250976562 14450
  endloop
endfacet
facet normal 2.712577731878163e-11 1.198714196480599e-12 1
  outer loop
    vertex -1717.5400390625 6606.02001953125 14450
    vertex -1757.183349609375 -1226.432250976562 14450
    vertex -1704.65234375 -1300.806884765625 14450
  endloop
endfacet
facet normal 2.712577731878163e-11 1.198714196480599e-12 1
  outer loop
    vertex -1717.5400390625 6606.02001953125 14450
    vertex -1704.65234375 -1300.806884765625 14450
    vertex -1378.363159179688 8035.35791015625 14450
  endloop
endfacet
facet normal 2.712577731878163e-11 1.198714196480599e-12 1
  outer loop
    vertex -1378.363159179688 8035.35791015625 14450
    vertex -1704.65234375 -1300.806884765625 14450
    vertex -1578.026489257812 -1457.346801757812 14450
  endloop
endfacet
facet normal 2.712577731878163e-11 1.198714196480599e-12 1
  outer loop
    vertex -1378.363159179688 8035.35791015625 14450
    vertex -1578.026489257812 -1457.346801757812 14450
    vertex -1441.579956054688 -1605.1484375 14450
  endloop
endfacet
facet normal 2.712577731878163e-11 1.198714196480599e-12 1
  outer loop
    vertex -1378.363159179688 8035.35791015625 14450
    vertex -1441.579956054688 -1605.1484375 14450
    vertex -1295.897338867188 -1743.578979492188 14450
  endloop
endfacet
facet normal 2.712577731878163e-11 1.198714196480599e-12 1
  outer loop
    vertex -1378.363159179688 8035.35791015625 14450
    vertex -1295.897338867188 -1743.578979492188 14450
    vertex -1251.18701171875 8571.2958984375 14450
  endloop
endfacet
facet normal 2.712577731878163e-11 1.198714196480599e-12 1
  outer loop
    vertex -1251.18701171875 8571.2958984375 14450
    vertex -1295.897338867188 -1743.578979492188 14450
    vertex -1141.602294921875 -1872.045532226562 14450
  endloop
endfacet
facet normal 2.712577731878163e-11 1.198714196480599e-12 1
  outer loop
    vertex -1251.18701171875 8571.2958984375 14450
    vertex -1141.602294921875 -1872.045532226562 14450
    vertex -795.2188720703125 10053.2802734375 14450
  endloop
endfacet
facet normal 2.712577731878163e-11 1.198714196480599e-12 1
  outer loop
    vertex -795.2188720703125 10053.2802734375 14450
    vertex -1141.602294921875 -1872.045532226562 14450
    vertex -1070.375122070312 -1923.827270507812 14450
  endloop
endfacet
facet normal 2.712577731878163e-11 1.198714196480599e-12 1
  outer loop
    vertex -795.2188720703125 10053.2802734375 14450
    vertex -1070.375122070312 -1923.827270507812 14450
    vertex -979.355712890625 -1989.997924804688 14450
  endloop
endfacet
facet normal 2.712577731878163e-11 1.198714196480599e-12 1
  outer loop
    vertex -795.2188720703125 10053.2802734375 14450
    vertex -979.355712890625 -1989.997924804688 14450
    vertex -809.8524169921875 -2096.930908203125 14450
  endloop
endfacet
facet normal 2.712577731878163e-11 1.198714196480599e-12 1
  outer loop
    vertex -795.2188720703125 10053.2802734375 14450
    vertex -809.8524169921875 -2096.930908203125 14450
    vertex -633.8184204101562 -2192.386474609375 14450
  endloop
endfacet
facet normal 2.712577731878163e-11 1.198714196480599e-12 1
  outer loop
    vertex -795.2188720703125 10053.2802734375 14450
    vertex -633.8184204101562 -2192.386474609375 14450
    vertex -657.4989624023438 10500.8974609375 14450
  endloop
endfacet
facet normal 2.712577731878163e-11 1.198714196480599e-12 1
  outer loop
    vertex -657.4989624023438 10500.8974609375 14450
    vertex -633.8184204101562 -2192.386474609375 14450
    vertex 60.91419219970703 12386.3427734375 14450
  endloop
endfacet
facet normal 2.712577731878163e-11 1.198714196480599e-12 1
  outer loop
    vertex 60.91419219970703 12386.3427734375 14450
    vertex -633.8184204101562 -2192.386474609375 14450
    vertex -452.0075988769531 -2275.955810546875 14450
  endloop
endfacet
facet normal 2.712577731878163e-11 1.198714196480599e-12 1
  outer loop
    vertex 60.91419219970703 12386.3427734375 14450
    vertex -452.0075988769531 -2275.955810546875 14450
    vertex -265.1985473632812 -2347.28125 14450
  endloop
endfacet
facet normal 2.712577731878163e-11 1.198714196480599e-12 1
  outer loop
    vertex 60.91419219970703 12386.3427734375 14450
    vertex -265.1985473632812 -2347.28125 14450
    vertex -202.9350128173828 -2366.44091796875 14450
  endloop
endfacet
facet normal 2.712577731878163e-11 1.198714196480599e-12 1
  outer loop
    vertex 60.91419219970703 12386.3427734375 14450
    vertex -202.9350128173828 -2366.44091796875 14450
    vertex -125.3473052978516 -2390.25146484375 14450
  endloop
endfacet
facet normal 2.712577731878163e-11 1.198714196480599e-12 1
  outer loop
    vertex 60.91419219970703 12386.3427734375 14450
    vertex -125.3473052978516 -2390.25146484375 14450
    vertex -47.15888214111328 -2411.9453125 14450
  endloop
endfacet
facet normal 2.712577731878163e-11 1.198714196480599e-12 1
  outer loop
    vertex 60.91419219970703 12386.3427734375 14450
    vertex -47.15888214111328 -2411.9453125 14450
    vertex 31.57417488098145 -2431.506591796875 14450
  endloop
endfacet
facet normal 2.712577731878163e-11 1.198714196480599e-12 1
  outer loop
    vertex 60.91419219970703 12386.3427734375 14450
    vertex 31.57417488098145 -2431.506591796875 14450
    vertex 110.7953720092773 -2448.921630859375 14450
  endloop
endfacet
facet normal 2.712577731878163e-11 1.198714196480599e-12 1
  outer loop
    vertex 60.91419219970703 12386.3427734375 14450
    vertex 110.7953720092773 -2448.921630859375 14450
    vertex 105.8450164794922 12504.26171875 14450
  endloop
endfacet
facet normal 2.712577731878163e-11 1.198714196480599e-12 1
  outer loop
    vertex 105.8450164794922 12504.26171875 14450
    vertex 110.7953720092773 -2448.921630859375 14450
    vertex 165.0613098144531 12504.26171875 14450
  endloop
endfacet
facet normal 2.712577731878163e-11 1.198714196480599e-12 1
  outer loop
    vertex 165.0613098144531 12504.26171875 14450
    vertex 110.7953720092773 -2448.921630859375 14450
    vertex 190.4478759765625 -2464.177490234375 14450
  endloop
endfacet
facet normal 2.712577731878163e-11 1.198714196480599e-12 1
  outer loop
    vertex 165.0613098144531 12504.26171875 14450
    vertex 190.4478759765625 -2464.177490234375 14450
    vertex 1015.061340332031 12504.26171875 14450
  endloop
endfacet
facet normal 2.712577731878163e-11 1.198714196480599e-12 1
  outer loop
    vertex 1015.061340332031 12504.26171875 14450
    vertex 190.4478759765625 -2464.177490234375 14450
    vertex 270.4745178222656 -2477.263671875 14450
  endloop
endfacet
facet normal 2.712577731878163e-11 1.198714196480599e-12 1
  outer loop
    vertex 1015.061340332031 12504.26171875 14450
    vertex 270.4745178222656 -2477.263671875 14450
    vertex 350.8179321289062 -2488.17041015625 14450
  endloop
endfacet
facet normal 2.712577731878163e-11 1.198714196480599e-12 1
  outer loop
    vertex 1015.061340332031 12504.26171875 14450
    vertex 350.8179321289062 -2488.17041015625 14450
    vertex 431.42041015625 -2496.89013671875 14450
  endloop
endfacet
facet normal 2.712577731878163e-11 1.198714196480599e-12 1
  outer loop
    vertex 1015.061340332031 12504.26171875 14450
    vertex 431.42041015625 -2496.89013671875 14450
    vertex 512.2241821289062 -2503.416259765625 14450
  endloop
endfacet
facet normal 2.712577731878163e-11 1.198714196480599e-12 1
  outer loop
    vertex 1015.061340332031 12504.26171875 14450
    vertex 512.2241821289062 -2503.416259765625 14450
    vertex 593.1712646484375 -2507.74462890625 14450
  endloop
endfacet
facet normal 2.712577731878163e-11 1.198714196480599e-12 1
  outer loop
    vertex 1015.061340332031 12504.26171875 14450
    vertex 593.1712646484375 -2507.74462890625 14450
    vertex 674.2035522460938 -2509.871826171875 14450
  endloop
endfacet
facet normal 2.712577731878163e-11 1.198714196480599e-12 1
  outer loop
    vertex 1015.061340332031 12504.26171875 14450
    vertex 674.2035522460938 -2509.871826171875 14450
    vertex 755.2628784179688 -2509.796142578125 14450
  endloop
endfacet
facet normal 2.712577731878163e-11 1.198714196480599e-12 1
  outer loop
    vertex 1015.061340332031 12504.26171875 14450
    vertex 755.2628784179688 -2509.796142578125 14450
    vertex 1639.479248046875 -2473.042236328125 14450
  endloop
endfacet
facet normal 2.712577731878163e-11 1.198714196480599e-12 1
  outer loop
    vertex 1015.061340332031 12504.26171875 14450
    vertex 1639.479248046875 -2473.042236328125 14450
    vertex 6409.27294921875 12504.26171875 14450
  endloop
endfacet
facet normal 2.712577731878163e-11 1.198714196480599e-12 1
  outer loop
    vertex 6409.27294921875 12504.26171875 14450
    vertex 1639.479248046875 -2473.042236328125 14450
    vertex 2559.201171875 -2373.009033203125 14450
  endloop
endfacet
facet normal 2.712577731878163e-11 1.198714196480599e-12 1
  outer loop
    vertex 6409.27294921875 12504.26171875 14450
    vertex 2559.201171875 -2373.009033203125 14450
    vertex 3470.4423828125 -2211.792724609375 14450
  endloop
endfacet
facet normal 2.712577731878163e-11 1.198714196480599e-12 1
  outer loop
    vertex 6409.27294921875 12504.26171875 14450
    vertex 3470.4423828125 -2211.792724609375 14450
    vertex 3540.38525390625 -2194.54052734375 14450
  endloop
endfacet
facet normal 2.712577731878163e-11 1.198714196480599e-12 1
  outer loop
    vertex 6409.27294921875 12504.26171875 14450
    vertex 3540.38525390625 -2194.54052734375 14450
    vertex 4369.2529296875 -1990.092163085938 14450
  endloop
endfacet
facet normal 2.712577731878163e-11 1.198714196480599e-12 1
  outer loop
    vertex 6409.27294921875 12504.26171875 14450
    vertex 4369.2529296875 -1990.092163085938 14450
    vertex 5251.7373046875 -1708.868286132812 14450
  endloop
endfacet
facet normal 2.712577731878163e-11 1.198714196480599e-12 1
  outer loop
    vertex 6409.27294921875 12504.26171875 14450
    vertex 5251.7373046875 -1708.868286132812 14450
    vertex 5515.45361328125 -1605.03466796875 14450
  endloop
endfacet
facet normal 2.712577731878163e-11 1.198714196480599e-12 1
  outer loop
    vertex 6409.27294921875 12504.26171875 14450
    vertex 5515.45361328125 -1605.03466796875 14450
    vertex 6114.07080078125 -1369.339965820312 14450
  endloop
endfacet
facet normal 2.712577731878163e-11 1.198714196480599e-12 1
  outer loop
    vertex 6409.27294921875 12504.26171875 14450
    vertex 6114.07080078125 -1369.339965820312 14450
    vertex 6409.27294921875 11754.26171875 14450
  endloop
endfacet
facet normal 2.712577731878163e-11 1.198714196480599e-12 1
  outer loop
    vertex 6409.27294921875 11754.26171875 14450
    vertex 6114.07080078125 -1369.339965820312 14450
    vertex 6952.51513671875 -972.9788818359375 14450
  endloop
endfacet
facet normal 2.712577731878163e-11 1.198714196480599e-12 1
  outer loop
    vertex 6409.27294921875 11754.26171875 14450
    vertex 6952.51513671875 -972.9788818359375 14450
    vertex 8644.2470703125 11754.26171875 14450
  endloop
endfacet
facet normal 2.712577731878163e-11 1.198714196480599e-12 1
  outer loop
    vertex 8644.2470703125 11754.26171875 14450
    vertex 6952.51513671875 -972.9788818359375 14450
    vertex 7763.4365234375 -521.5029296875 14450
  endloop
endfacet
facet normal 2.712577731878163e-11 1.198714196480599e-12 1
  outer loop
    vertex 8644.2470703125 11754.26171875 14450
    vertex 7763.4365234375 -521.5029296875 14450
    vertex 8543.3203125 -16.86908340454102 14450
  endloop
endfacet
facet normal 2.712577731878163e-11 1.198714196480599e-12 1
  outer loop
    vertex 8644.2470703125 11754.26171875 14450
    vertex 8543.3203125 -16.86908340454102 14450
    vertex 8633.98046875 41.79368591308594 14450
  endloop
endfacet
facet normal 2.712577731878163e-11 1.198714196480599e-12 1
  outer loop
    vertex 8644.2470703125 11754.26171875 14450
    vertex 8633.98046875 41.79368591308594 14450
    vertex 8644.2470703125 2645.919677734375 14450
  endloop
endfacet
facet normal 2.712577731878163e-11 1.198714196480599e-12 1
  outer loop
    vertex 8644.2470703125 2645.919677734375 14450
    vertex 8633.98046875 41.79368591308594 14450
    vertex 8644.2470703125 41.79368591308594 14450
  endloop
endfacet
facet normal 2.712577731878163e-11 1.198714196480599e-12 1
  outer loop
    vertex 8644.2470703125 11754.26171875 14450
    vertex 8644.2470703125 6670.45166015625 14450
    vertex 8644.2470703125 9511.263671875 14450
  endloop
endfacet
facet normal 2.712577731878163e-11 1.198714196480599e-12 1
  outer loop
    vertex 8644.2470703125 6670.45166015625 14450
    vertex 8644.2470703125 11754.26171875 14450
    vertex 8644.2470703125 2645.919677734375 14450
  endloop
endfacet
facet normal 2.712577731878163e-11 1.198714196480599e-12 1
  outer loop
    vertex 8644.2470703125 6670.45166015625 14450
    vertex 8644.2470703125 2645.919677734375 14450
    vertex 8644.2470703125 5250.04541015625 14450
  endloop
endfacet
facet normal -2.712577731878163e-11 -1.198714196480599e-12 -1
  outer loop
    vertex -2333.362060546875 625.9498901367188 14050
    vertex -2334.1845703125 584.9760131835938 14050
    vertex -2334.870361328125 584.9622802734375 14050
  endloop
endfacet
facet normal -2.712577731878163e-11 -1.198714196480599e-12 -1
  outer loop
    vertex -2334.1845703125 584.9760131835938 14050
    vertex -2333.362060546875 625.9498901367188 14050
    vertex -2333.36865234375 542.8792114257812 14050
  endloop
endfacet
facet normal -2.712577731878163e-11 -1.198714196480599e-12 -1
  outer loop
    vertex -2333.36865234375 542.8792114257812 14050
    vertex -2328.414306640625 380.702880859375 14050
    vertex -2333.641845703125 542.873779296875 14050
  endloop
endfacet
facet normal -2.712577731878163e-11 -1.198714196480599e-12 -1
  outer loop
    vertex -2328.414306640625 380.702880859375 14050
    vertex -2333.36865234375 542.8792114257812 14050
    vertex -2333.362060546875 625.9498901367188 14050
  endloop
endfacet
facet normal -2.712577731878163e-11 -1.198714196480599e-12 -1
  outer loop
    vertex -2328.414306640625 380.702880859375 14050
    vertex -2333.362060546875 625.9498901367188 14050
    vertex -2264.511962890625 2497.06787109375 14050
  endloop
endfacet
facet normal -2.712577731878163e-11 -1.198714196480599e-12 -1
  outer loop
    vertex -2328.414306640625 380.702880859375 14050
    vertex -2264.511962890625 2497.06787109375 14050
    vertex -2308.855712890625 179.1690063476562 14050
  endloop
endfacet
facet normal -2.712577731878163e-11 -1.198714196480599e-12 -1
  outer loop
    vertex -2308.855712890625 179.1690063476562 14050
    vertex -2264.511962890625 2497.06787109375 14050
    vertex -2276.3466796875 -20.63538932800293 14050
  endloop
endfacet
facet normal -2.712577731878163e-11 -1.198714196480599e-12 -1
  outer loop
    vertex -2276.3466796875 -20.63538932800293 14050
    vertex -2264.511962890625 2497.06787109375 14050
    vertex -2231.0263671875 -217.8546142578125 14050
  endloop
endfacet
facet normal -2.712577731878163e-11 -1.198714196480599e-12 -1
  outer loop
    vertex -2231.0263671875 -217.8546142578125 14050
    vertex -2264.511962890625 2497.06787109375 14050
    vertex -2260.609619140625 2603.125732421875 14050
  endloop
endfacet
facet normal -2.712577731878163e-11 -1.198714196480599e-12 -1
  outer loop
    vertex -2231.0263671875 -217.8546142578125 14050
    vertex -2260.609619140625 2603.125732421875 14050
    vertex -2056.910888671875 4590.26953125 14050
  endloop
endfacet
facet normal -2.712577731878163e-11 -1.198714196480599e-12 -1
  outer loop
    vertex -2231.0263671875 -217.8546142578125 14050
    vertex -2056.910888671875 4590.26953125 14050
    vertex -2192.64794921875 -346.2221069335938 14050
  endloop
endfacet
facet normal -2.712577731878163e-11 -1.198714196480599e-12 -1
  outer loop
    vertex -2192.64794921875 -346.2221069335938 14050
    vertex -2056.910888671875 4590.26953125 14050
    vertex -2173.088623046875 -411.6440124511719 14050
  endloop
endfacet
facet normal -2.712577731878163e-11 -1.198714196480599e-12 -1
  outer loop
    vertex -2173.088623046875 -411.6440124511719 14050
    vertex -2056.910888671875 4590.26953125 14050
    vertex -2102.781982421875 -601.1737060546875 14050
  endloop
endfacet
facet normal -2.712577731878163e-11 -1.198714196480599e-12 -1
  outer loop
    vertex -2102.781982421875 -601.1737060546875 14050
    vertex -2056.910888671875 4590.26953125 14050
    vertex -2020.4072265625 -785.6318969726562 14050
  endloop
endfacet
facet normal -2.712577731878163e-11 -1.198714196480599e-12 -1
  outer loop
    vertex -2020.4072265625 -785.6318969726562 14050
    vertex -2056.910888671875 4590.26953125 14050
    vertex -2054.508056640625 4613.7109375 14050
  endloop
endfacet
facet normal -2.712577731878163e-11 -1.198714196480599e-12 -1
  outer loop
    vertex -2020.4072265625 -785.6318969726562 14050
    vertex -2054.508056640625 4613.7109375 14050
    vertex -1717.5400390625 6606.02001953125 14050
  endloop
endfacet
facet normal -2.712577731878163e-11 -1.198714196480599e-12 -1
  outer loop
    vertex -2020.4072265625 -785.6318969726562 14050
    vertex -1717.5400390625 6606.02001953125 14050
    vertex -1926.3173828125 -964.2286987304688 14050
  endloop
endfacet
facet normal -2.712577731878163e-11 -1.198714196480599e-12 -1
  outer loop
    vertex -1926.3173828125 -964.2286987304688 14050
    vertex -1717.5400390625 6606.02001953125 14050
    vertex -1820.915283203125 -1136.19921875 14050
  endloop
endfacet
facet normal -2.712577731878163e-11 -1.198714196480599e-12 -1
  outer loop
    vertex -1820.915283203125 -1136.19921875 14050
    vertex -1717.5400390625 6606.02001953125 14050
    vertex -1757.183349609375 -1226.432250976562 14050
  endloop
endfacet
facet normal -2.712577731878163e-11 -1.198714196480599e-12 -1
  outer loop
    vertex -1757.183349609375 -1226.432250976562 14050
    vertex -1717.5400390625 6606.02001953125 14050
    vertex -1704.65234375 -1300.806884765625 14050
  endloop
endfacet
facet normal -2.712577731878163e-11 -1.198714196480599e-12 -1
  outer loop
    vertex -1704.65234375 -1300.806884765625 14050
    vertex -1717.5400390625 6606.02001953125 14050
    vertex -1378.363159179688 8035.35791015625 14050
  endloop
endfacet
facet normal -2.712577731878163e-11 -1.198714196480599e-12 -1
  outer loop
    vertex -1704.65234375 -1300.806884765625 14050
    vertex -1378.363159179688 8035.35791015625 14050
    vertex -1578.026489257812 -1457.346801757812 14050
  endloop
endfacet
facet normal -2.712577731878163e-11 -1.198714196480599e-12 -1
  outer loop
    vertex -1578.026489257812 -1457.346801757812 14050
    vertex -1378.363159179688 8035.35791015625 14050
    vertex -1441.579956054688 -1605.1484375 14050
  endloop
endfacet
facet normal -2.712577731878163e-11 -1.198714196480599e-12 -1
  outer loop
    vertex -1441.579956054688 -1605.1484375 14050
    vertex -1378.363159179688 8035.35791015625 14050
    vertex -1295.897338867188 -1743.578979492188 14050
  endloop
endfacet
facet normal -2.712577731878163e-11 -1.198714196480599e-12 -1
  outer loop
    vertex -1295.897338867188 -1743.578979492188 14050
    vertex -1378.363159179688 8035.35791015625 14050
    vertex -1251.18701171875 8571.2958984375 14050
  endloop
endfacet
facet normal -2.712577731878163e-11 -1.198714196480599e-12 -1
  outer loop
    vertex -1295.897338867188 -1743.578979492188 14050
    vertex -1251.18701171875 8571.2958984375 14050
    vertex -1141.602294921875 -1872.045532226562 14050
  endloop
endfacet
facet normal -2.712577731878163e-11 -1.198714196480599e-12 -1
  outer loop
    vertex -1141.602294921875 -1872.045532226562 14050
    vertex -1251.18701171875 8571.2958984375 14050
    vertex -795.2188720703125 10053.2802734375 14050
  endloop
endfacet
facet normal -2.712577731878163e-11 -1.198714196480599e-12 -1
  outer loop
    vertex -1141.602294921875 -1872.045532226562 14050
    vertex -795.2188720703125 10053.2802734375 14050
    vertex -1070.375122070312 -1923.827270507812 14050
  endloop
endfacet
facet normal -2.712577731878163e-11 -1.198714196480599e-12 -1
  outer loop
    vertex -1070.375122070312 -1923.827270507812 14050
    vertex -795.2188720703125 10053.2802734375 14050
    vertex -979.355712890625 -1989.997924804688 14050
  endloop
endfacet
facet normal -2.712577731878163e-11 -1.198714196480599e-12 -1
  outer loop
    vertex -979.355712890625 -1989.997924804688 14050
    vertex -795.2188720703125 10053.2802734375 14050
    vertex -809.8524169921875 -2096.930908203125 14050
  endloop
endfacet
facet normal -2.712577731878163e-11 -1.198714196480599e-12 -1
  outer loop
    vertex -809.8524169921875 -2096.930908203125 14050
    vertex -795.2188720703125 10053.2802734375 14050
    vertex -633.8184204101562 -2192.386474609375 14050
  endloop
endfacet
facet normal -2.712577731878163e-11 -1.198714196480599e-12 -1
  outer loop
    vertex -633.8184204101562 -2192.386474609375 14050
    vertex -795.2188720703125 10053.2802734375 14050
    vertex -657.4989624023438 10500.8974609375 14050
  endloop
endfacet
facet normal -2.712577731878163e-11 -1.198714196480599e-12 -1
  outer loop
    vertex -633.8184204101562 -2192.386474609375 14050
    vertex -657.4989624023438 10500.8974609375 14050
    vertex 60.91419219970703 12386.3427734375 14050
  endloop
endfacet
facet normal -2.712577731878163e-11 -1.198714196480599e-12 -1
  outer loop
    vertex -633.8184204101562 -2192.386474609375 14050
    vertex 60.91419219970703 12386.3427734375 14050
    vertex -452.0075988769531 -2275.955810546875 14050
  endloop
endfacet
facet normal -2.712577731878163e-11 -1.198714196480599e-12 -1
  outer loop
    vertex -452.0075988769531 -2275.955810546875 14050
    vertex 60.91419219970703 12386.3427734375 14050
    vertex -265.1985473632812 -2347.28125 14050
  endloop
endfacet
facet normal -2.712577731878163e-11 -1.198714196480599e-12 -1
  outer loop
    vertex -265.1985473632812 -2347.28125 14050
    vertex 60.91419219970703 12386.3427734375 14050
    vertex -202.9350128173828 -2366.44091796875 14050
  endloop
endfacet
facet normal -2.712577731878163e-11 -1.198714196480599e-12 -1
  outer loop
    vertex -202.9350128173828 -2366.44091796875 14050
    vertex 60.91419219970703 12386.3427734375 14050
    vertex -125.3473052978516 -2390.25146484375 14050
  endloop
endfacet
facet normal -2.712577731878163e-11 -1.198714196480599e-12 -1
  outer loop
    vertex -125.3473052978516 -2390.25146484375 14050
    vertex 60.91419219970703 12386.3427734375 14050
    vertex -47.15888214111328 -2411.9453125 14050
  endloop
endfacet
facet normal -2.712577731878163e-11 -1.198714196480599e-12 -1
  outer loop
    vertex -47.15888214111328 -2411.9453125 14050
    vertex 60.91419219970703 12386.3427734375 14050
    vertex 31.57417488098145 -2431.506591796875 14050
  endloop
endfacet
facet normal -2.712577731878163e-11 -1.198714196480599e-12 -1
  outer loop
    vertex 31.57417488098145 -2431.506591796875 14050
    vertex 60.91419219970703 12386.3427734375 14050
    vertex 110.7953720092773 -2448.921630859375 14050
  endloop
endfacet
facet normal -2.712577731878163e-11 -1.198714196480599e-12 -1
  outer loop
    vertex 110.7953720092773 -2448.921630859375 14050
    vertex 60.91419219970703 12386.3427734375 14050
    vertex 105.8450164794922 12504.26171875 14050
  endloop
endfacet
facet normal -2.712577731878163e-11 -1.198714196480599e-12 -1
  outer loop
    vertex 110.7953720092773 -2448.921630859375 14050
    vertex 105.8450164794922 12504.26171875 14050
    vertex 165.0613098144531 12504.26171875 14050
  endloop
endfacet
facet normal -2.712577731878163e-11 -1.198714196480599e-12 -1
  outer loop
    vertex 110.7953720092773 -2448.921630859375 14050
    vertex 165.0613098144531 12504.26171875 14050
    vertex 190.4478759765625 -2464.177490234375 14050
  endloop
endfacet
facet normal -2.712577731878163e-11 -1.198714196480599e-12 -1
  outer loop
    vertex 190.4478759765625 -2464.177490234375 14050
    vertex 165.0613098144531 12504.26171875 14050
    vertex 1015.061340332031 12504.26171875 14050
  endloop
endfacet
facet normal -2.712577731878163e-11 -1.198714196480599e-12 -1
  outer loop
    vertex 190.4478759765625 -2464.177490234375 14050
    vertex 1015.061340332031 12504.26171875 14050
    vertex 270.4745178222656 -2477.263671875 14050
  endloop
endfacet
facet normal -2.712577731878163e-11 -1.198714196480599e-12 -1
  outer loop
    vertex 270.4745178222656 -2477.263671875 14050
    vertex 1015.061340332031 12504.26171875 14050
    vertex 350.8179321289062 -2488.17041015625 14050
  endloop
endfacet
facet normal -2.712577731878163e-11 -1.198714196480599e-12 -1
  outer loop
    vertex 350.8179321289062 -2488.17041015625 14050
    vertex 1015.061340332031 12504.26171875 14050
    vertex 431.42041015625 -2496.89013671875 14050
  endloop
endfacet
facet normal -2.712577731878163e-11 -1.198714196480599e-12 -1
  outer loop
    vertex 431.42041015625 -2496.89013671875 14050
    vertex 1015.061340332031 12504.26171875 14050
    vertex 512.2241821289062 -2503.416259765625 14050
  endloop
endfacet
facet normal -2.712577731878163e-11 -1.198714196480599e-12 -1
  outer loop
    vertex 512.2241821289062 -2503.416259765625 14050
    vertex 1015.061340332031 12504.26171875 14050
    vertex 593.1712646484375 -2507.74462890625 14050
  endloop
endfacet
facet normal -2.712577731878163e-11 -1.198714196480599e-12 -1
  outer loop
    vertex 593.1712646484375 -2507.74462890625 14050
    vertex 1015.061340332031 12504.26171875 14050
    vertex 674.2035522460938 -2509.871826171875 14050
  endloop
endfacet
facet normal -2.712577731878163e-11 -1.198714196480599e-12 -1
  outer loop
    vertex 674.2035522460938 -2509.871826171875 14050
    vertex 1015.061340332031 12504.26171875 14050
    vertex 755.2628784179688 -2509.796142578125 14050
  endloop
endfacet
facet normal -2.712577731878163e-11 -1.198714196480599e-12 -1
  outer loop
    vertex 755.2628784179688 -2509.796142578125 14050
    vertex 1015.061340332031 12504.26171875 14050
    vertex 1639.479248046875 -2473.042236328125 14050
  endloop
endfacet
facet normal -2.712577731878163e-11 -1.198714196480599e-12 -1
  outer loop
    vertex 1639.479248046875 -2473.042236328125 14050
    vertex 1015.061340332031 12504.26171875 14050
    vertex 6409.27294921875 12504.26171875 14050
  endloop
endfacet
facet normal -2.712577731878163e-11 -1.198714196480599e-12 -1
  outer loop
    vertex 1639.479248046875 -2473.042236328125 14050
    vertex 6409.27294921875 12504.26171875 14050
    vertex 2559.201171875 -2373.009033203125 14050
  endloop
endfacet
facet normal -2.712577731878163e-11 -1.198714196480599e-12 -1
  outer loop
    vertex 2559.201171875 -2373.009033203125 14050
    vertex 6409.27294921875 12504.26171875 14050
    vertex 3470.4423828125 -2211.792724609375 14050
  endloop
endfacet
facet normal -2.712577731878163e-11 -1.198714196480599e-12 -1
  outer loop
    vertex 3470.4423828125 -2211.792724609375 14050
    vertex 6409.27294921875 12504.26171875 14050
    vertex 3540.38525390625 -2194.54052734375 14050
  endloop
endfacet
facet normal -2.712577731878163e-11 -1.198714196480599e-12 -1
  outer loop
    vertex 3540.38525390625 -2194.54052734375 14050
    vertex 6409.27294921875 12504.26171875 14050
    vertex 4369.2529296875 -1990.092163085938 14050
  endloop
endfacet
facet normal -2.712577731878163e-11 -1.198714196480599e-12 -1
  outer loop
    vertex 4369.2529296875 -1990.092163085938 14050
    vertex 6409.27294921875 12504.26171875 14050
    vertex 5251.7373046875 -1708.868286132812 14050
  endloop
endfacet
facet normal -2.712577731878163e-11 -1.198714196480599e-12 -1
  outer loop
    vertex 5251.7373046875 -1708.868286132812 14050
    vertex 6409.27294921875 12504.26171875 14050
    vertex 5515.45361328125 -1605.03466796875 14050
  endloop
endfacet
facet normal -2.712577731878163e-11 -1.198714196480599e-12 -1
  outer loop
    vertex 5515.45361328125 -1605.03466796875 14050
    vertex 6409.27294921875 12504.26171875 14050
    vertex 6114.07080078125 -1369.339965820312 14050
  endloop
endfacet
facet normal -2.712577731878163e-11 -1.198714196480599e-12 -1
  outer loop
    vertex 6114.07080078125 -1369.339965820312 14050
    vertex 6409.27294921875 12504.26171875 14050
    vertex 6409.27294921875 11754.26171875 14050
  endloop
endfacet
facet normal -2.712577731878163e-11 -1.198714196480599e-12 -1
  outer loop
    vertex 6114.07080078125 -1369.339965820312 14050
    vertex 6409.27294921875 11754.26171875 14050
    vertex 6952.51513671875 -972.9788818359375 14050
  endloop
endfacet
facet normal -2.712577731878163e-11 -1.198714196480599e-12 -1
  outer loop
    vertex 6952.51513671875 -972.9788818359375 14050
    vertex 6409.27294921875 11754.26171875 14050
    vertex 8644.2470703125 11754.26171875 14050
  endloop
endfacet
facet normal -2.712577731878163e-11 -1.198714196480599e-12 -1
  outer loop
    vertex 6952.51513671875 -972.9788818359375 14050
    vertex 8644.2470703125 11754.26171875 14050
    vertex 7763.4365234375 -521.5029296875 14050
  endloop
endfacet
facet normal -2.712577731878163e-11 -1.198714196480599e-12 -1
  outer loop
    vertex 7763.4365234375 -521.5029296875 14050
    vertex 8644.2470703125 11754.26171875 14050
    vertex 8543.3203125 -16.86908340454102 14050
  endloop
endfacet
facet normal -2.712577731878163e-11 -1.198714196480599e-12 -1
  outer loop
    vertex 8543.3203125 -16.86908340454102 14050
    vertex 8644.2470703125 11754.26171875 14050
    vertex 8633.98046875 41.79368591308594 14050
  endloop
endfacet
facet normal -2.712577731878163e-11 -1.198714196480599e-12 -1
  outer loop
    vertex 8633.98046875 41.79368591308594 14050
    vertex 8644.2470703125 11754.26171875 14050
    vertex 8644.2470703125 2645.919677734375 14050
  endloop
endfacet
facet normal -2.712577731878163e-11 -1.198714196480599e-12 -1
  outer loop
    vertex 8633.98046875 41.79368591308594 14050
    vertex 8644.2470703125 2645.919677734375 14050
    vertex 8644.2470703125 41.79368591308594 14050
  endloop
endfacet
facet normal -2.712577731878163e-11 -1.198714196480599e-12 -1
  outer loop
    vertex 8644.2470703125 11754.26171875 14050
    vertex 8644.2470703125 6670.45166015625 14050
    vertex 8644.2470703125 2645.919677734375 14050
  endloop
endfacet
facet normal -2.712577731878163e-11 -1.198714196480599e-12 -1
  outer loop
    vertex 8644.2470703125 6670.45166015625 14050
    vertex 8644.2470703125 11754.26171875 14050
    vertex 8644.2470703125 9511.263671875 14050
  endloop
endfacet
facet normal -2.712577731878163e-11 -1.198714196480599e-12 -1
  outer loop
    vertex 8644.2470703125 5250.04541015625 14050
    vertex 8644.2470703125 2645.919677734375 14050
    vertex 8644.2470703125 6670.45166015625 14050
  endloop
endfacet
facet normal 0.2330268323421478 -0.9724702835083008 -5.188573529157914e-12
  outer loop
    vertex 4369.2529296875 -1990.092163085938 14050
    vertex 3540.38525390625 -2194.54052734375 14450
    vertex 3540.38525390625 -2194.54052734375 14050
  endloop
endfacet
facet normal 0.2330268323421478 -0.9724702835083008 -5.188573529157914e-12
  outer loop
    vertex 3540.38525390625 -2194.54052734375 14450
    vertex 4369.2529296875 -1990.092163085938 14050
    vertex 4369.2529296875 -1990.092163085938 14450
  endloop
endfacet
facet normal 0.2330268323421478 -0.9724702835083008 -5.188573529157914e-12
  outer loop
    vertex 3540.38525390625 -2194.54052734375 14450
    vertex 3470.4423828125 -2211.792724609375 14050
    vertex 3540.38525390625 -2194.54052734375 14050
  endloop
endfacet
facet normal 0.2330268323421478 -0.9724702835083008 -5.188573529157914e-12
  outer loop
    vertex 3470.4423828125 -2211.792724609375 14050
    vertex 3540.38525390625 -2194.54052734375 14450
    vertex 3470.4423828125 -2211.792724609375 14450
  endloop
endfacet
facet normal 0.1693889200687408 -0.98554927110672 -3.447114772445192e-12
  outer loop
    vertex 3470.4423828125 -2211.792724609375 14450
    vertex 2559.201171875 -2373.009033203125 14050
    vertex 3470.4423828125 -2211.792724609375 14050
  endloop
endfacet
facet normal 0.1693889200687408 -0.98554927110672 -3.447114772445192e-12
  outer loop
    vertex 2559.201171875 -2373.009033203125 14050
    vertex 3470.4423828125 -2211.792724609375 14450
    vertex 2559.201171875 -2373.009033203125 14450
  endloop
endfacet
facet normal 0.1050770729780197 -0.994464099407196 -1.692224593959069e-12
  outer loop
    vertex 2559.201171875 -2373.009033203125 14450
    vertex 1639.479248046875 -2473.042236328125 14050
    vertex 2559.201171875 -2373.009033203125 14050
  endloop
endfacet
facet normal 0.1050770729780197 -0.994464099407196 -1.692224593959069e-12
  outer loop
    vertex 1639.479248046875 -2473.042236328125 14050
    vertex 2559.201171875 -2373.009033203125 14450
    vertex 1639.479248046875 -2473.042236328125 14450
  endloop
endfacet
facet normal 0.04034808278083801 -0.9991856813430786 6.909790529465928e-14
  outer loop
    vertex 1639.479248046875 -2473.042236328125 14050
    vertex 755.2628784179688 -2509.796142578125 14450
    vertex 755.2628784179688 -2509.796142578125 14050
  endloop
endfacet
facet normal 0.04034808278083801 -0.9991856813430786 6.909790529465928e-14
  outer loop
    vertex 755.2628784179688 -2509.796142578125 14450
    vertex 1639.479248046875 -2473.042236328125 14050
    vertex 1639.479248046875 -2473.042236328125 14450
  endloop
endfacet
facet normal 0.0009059278527274728 -0.9999995827674866 1.139944909300805e-12
  outer loop
    vertex 755.2628784179688 -2509.796142578125 14450
    vertex 674.2035522460938 -2509.871826171875 14050
    vertex 755.2628784179688 -2509.796142578125 14050
  endloop
endfacet
facet normal 0.0009059278527274728 -0.9999995827674866 1.139944909300805e-12
  outer loop
    vertex 674.2035522460938 -2509.871826171875 14050
    vertex 755.2628784179688 -2509.796142578125 14450
    vertex 674.2035522460938 -2509.871826171875 14450
  endloop
endfacet
facet normal -0.0254928320646286 -0.9996749758720398 1.855653868412799e-12
  outer loop
    vertex 674.2035522460938 -2509.871826171875 14450
    vertex 593.1712646484375 -2507.74462890625 14050
    vertex 674.2035522460938 -2509.871826171875 14050
  endloop
endfacet
facet normal -0.0254928320646286 -0.9996749758720398 1.855653868412799e-12
  outer loop
    vertex 593.1712646484375 -2507.74462890625 14050
    vertex 674.2035522460938 -2509.871826171875 14450
    vertex 593.1712646484375 -2507.74462890625 14450
  endloop
endfacet
facet normal -0.05187486484646797 -0.9986535906791687 2.570097563589502e-12
  outer loop
    vertex 593.1712646484375 -2507.74462890625 14450
    vertex 512.2241821289062 -2503.416259765625 14050
    vertex 593.1712646484375 -2507.74462890625 14050
  endloop
endfacet
facet normal -0.05187486484646797 -0.9986535906791687 2.570097563589502e-12
  outer loop
    vertex 512.2241821289062 -2503.416259765625 14050
    vertex 593.1712646484375 -2507.74462890625 14450
    vertex 512.2241821289062 -2503.416259765625 14450
  endloop
endfacet
facet normal -0.0782228484749794 -0.9969359040260315 3.282806752130663e-12
  outer loop
    vertex 512.2241821289062 -2503.416259765625 14450
    vertex 431.42041015625 -2496.89013671875 14050
    vertex 512.2241821289062 -2503.416259765625 14050
  endloop
endfacet
facet normal -0.0782228484749794 -0.9969359040260315 3.282806752130663e-12
  outer loop
    vertex 431.42041015625 -2496.89013671875 14050
    vertex 512.2241821289062 -2503.416259765625 14450
    vertex 431.42041015625 -2496.89013671875 14450
  endloop
endfacet
facet normal -0.1045194789767265 -0.9945228099822998 3.993313058697767e-12
  outer loop
    vertex 431.42041015625 -2496.89013671875 14450
    vertex 350.8179321289062 -2488.17041015625 14050
    vertex 431.42041015625 -2496.89013671875 14050
  endloop
endfacet
facet normal -0.1045194789767265 -0.9945228099822998 3.993313058697767e-12
  outer loop
    vertex 350.8179321289062 -2488.17041015625 14050
    vertex 431.42041015625 -2496.89013671875 14450
    vertex 350.8179321289062 -2488.17041015625 14450
  endloop
endfacet
facet normal -0.1307474374771118 -0.9914156794548035 4.701148758473606e-12
  outer loop
    vertex 350.8179321289062 -2488.17041015625 14450
    vertex 270.4745178222656 -2477.263671875 14050
    vertex 350.8179321289062 -2488.17041015625 14050
  endloop
endfacet
facet normal -0.1307474374771118 -0.9914156794548035 4.701148758473606e-12
  outer loop
    vertex 270.4745178222656 -2477.263671875 14050
    vertex 350.8179321289062 -2488.17041015625 14450
    vertex 270.4745178222656 -2477.263671875 14450
  endloop
endfacet
facet normal -0.1568894386291504 -0.9876161813735962 5.405846343481402e-12
  outer loop
    vertex 270.4745178222656 -2477.263671875 14450
    vertex 190.4478759765625 -2464.177490234375 14050
    vertex 270.4745178222656 -2477.263671875 14050
  endloop
endfacet
facet normal -0.1568894386291504 -0.9876161813735962 5.405846343481402e-12
  outer loop
    vertex 190.4478759765625 -2464.177490234375 14050
    vertex 270.4745178222656 -2477.263671875 14450
    vertex 190.4478759765625 -2464.177490234375 14450
  endloop
endfacet
facet normal -0.1829281896352768 -0.9831262826919556 6.106939173106118e-12
  outer loop
    vertex 190.4478759765625 -2464.177490234375 14450
    vertex 110.7953720092773 -2448.921630859375 14050
    vertex 190.4478759765625 -2464.177490234375 14050
  endloop
endfacet
facet normal -0.1829281896352768 -0.9831262826919556 6.106939173106118e-12
  outer loop
    vertex 110.7953720092773 -2448.921630859375 14050
    vertex 190.4478759765625 -2464.177490234375 14450
    vertex 110.7953720092773 -2448.921630859375 14450
  endloop
endfacet
facet normal -0.2088464349508286 -0.9779484272003174 6.803961907775324e-12
  outer loop
    vertex 110.7953720092773 -2448.921630859375 14450
    vertex 31.57417488098145 -2431.506591796875 14050
    vertex 110.7953720092773 -2448.921630859375 14050
  endloop
endfacet
facet normal -0.2088464349508286 -0.9779484272003174 6.803961907775324e-12
  outer loop
    vertex 31.57417488098145 -2431.506591796875 14050
    vertex 110.7953720092773 -2448.921630859375 14450
    vertex 31.57417488098145 -2431.506591796875 14450
  endloop
endfacet
facet normal -0.2346269190311432 -0.9720854759216309 7.496450508959196e-12
  outer loop
    vertex 31.57417488098145 -2431.506591796875 14450
    vertex -47.15888214111328 -2411.9453125 14050
    vertex 31.57417488098145 -2431.506591796875 14050
  endloop
endfacet
facet normal -0.2346269190311432 -0.9720854759216309 7.496450508959196e-12
  outer loop
    vertex -47.15888214111328 -2411.9453125 14050
    vertex 31.57417488098145 -2431.506591796875 14450
    vertex -47.15888214111328 -2411.9453125 14450
  endloop
endfacet
facet normal -0.2602524161338806 -0.9655405879020691 8.18394050444704e-12
  outer loop
    vertex -47.15888214111328 -2411.9453125 14450
    vertex -125.3473052978516 -2390.25146484375 14050
    vertex -47.15888214111328 -2411.9453125 14050
  endloop
endfacet
facet normal -0.2602524161338806 -0.9655405879020691 8.18394050444704e-12
  outer loop
    vertex -125.3473052978516 -2390.25146484375 14050
    vertex -47.15888214111328 -2411.9453125 14450
    vertex -125.3473052978516 -2390.25146484375 14450
  endloop
endfacet
facet normal -0.2857057750225067 -0.9583173990249634 8.865970457794248e-12
  outer loop
    vertex -125.3473052978516 -2390.25146484375 14450
    vertex -202.9350128173828 -2366.44091796875 14050
    vertex -125.3473052978516 -2390.25146484375 14050
  endloop
endfacet
facet normal -0.2857057750225067 -0.9583173990249634 8.865970457794248e-12
  outer loop
    vertex -202.9350128173828 -2366.44091796875 14050
    vertex -125.3473052978516 -2390.25146484375 14450
    vertex -202.9350128173828 -2366.44091796875 14450
  endloop
endfacet
facet normal -0.2864140868186951 -0.9581059217453003 8.884937924280578e-12
  outer loop
    vertex -202.9350128173828 -2366.44091796875 14450
    vertex -265.1985473632812 -2347.28125 14050
    vertex -202.9350128173828 -2366.44091796875 14050
  endloop
endfacet
facet normal -0.2864140868186951 -0.9581059217453003 8.884937924280578e-12
  outer loop
    vertex -265.1985473632812 -2347.28125 14050
    vertex -202.9350128173828 -2366.44091796875 14450
    vertex -265.1985473632812 -2347.28125 14450
  endloop
endfacet
facet normal -0.3477656245231628 -0.937581479549408 1.052524473826866e-11
  outer loop
    vertex -265.1985473632812 -2347.28125 14450
    vertex -452.0075988769531 -2275.955810546875 14050
    vertex -265.1985473632812 -2347.28125 14050
  endloop
endfacet
facet normal -0.3477656245231628 -0.937581479549408 1.052524473826866e-11
  outer loop
    vertex -452.0075988769531 -2275.955810546875 14050
    vertex -265.1985473632812 -2347.28125 14450
    vertex -452.0075988769531 -2275.955810546875 14450
  endloop
endfacet
facet normal -0.407734602689743 -0.9131004810333252 1.21234411398774e-11
  outer loop
    vertex -452.0075988769531 -2275.955810546875 14450
    vertex -633.8184204101562 -2192.386474609375 14050
    vertex -452.0075988769531 -2275.955810546875 14050
  endloop
endfacet
facet normal -0.407734602689743 -0.9131004810333252 1.21234411398774e-11
  outer loop
    vertex -633.8184204101562 -2192.386474609375 14050
    vertex -452.0075988769531 -2275.955810546875 14450
    vertex -633.8184204101562 -2192.386474609375 14450
  endloop
endfacet
facet normal -0.4660736620426178 -0.8847458958625793 1.367291436321638e-11
  outer loop
    vertex -633.8184204101562 -2192.386474609375 14450
    vertex -809.8524169921875 -2096.930908203125 14050
    vertex -633.8184204101562 -2192.386474609375 14050
  endloop
endfacet
facet normal -0.4660736620426178 -0.8847458958625793 1.367291436321638e-11
  outer loop
    vertex -809.8524169921875 -2096.930908203125 14050
    vertex -633.8184204101562 -2192.386474609375 14450
    vertex -809.8524169921875 -2096.930908203125 14450
  endloop
endfacet
facet normal -0.5225381255149841 -0.8526158928871155 1.516714184801593e-11
  outer loop
    vertex -809.8524169921875 -2096.930908203125 14450
    vertex -979.355712890625 -1989.997924804688 14050
    vertex -809.8524169921875 -2096.930908203125 14050
  endloop
endfacet
facet normal -0.5225381255149841 -0.8526158928871155 1.516714184801593e-11
  outer loop
    vertex -979.355712890625 -1989.997924804688 14050
    vertex -809.8524169921875 -2096.930908203125 14450
    vertex -979.355712890625 -1989.997924804688 14450
  endloop
endfacet
facet normal -0.576886773109436 -0.8168241381645203 1.659970945422362e-11
  outer loop
    vertex -979.355712890625 -1989.997924804688 14450
    vertex -1070.375122070312 -1923.827270507812 14050
    vertex -979.355712890625 -1989.997924804688 14050
  endloop
endfacet
facet normal -0.576886773109436 -0.8168241381645203 1.659970945422362e-11
  outer loop
    vertex -1070.375122070312 -1923.827270507812 14050
    vertex -979.355712890625 -1989.997924804688 14450
    vertex -1070.375122070312 -1923.827270507812 14450
  endloop
endfacet
facet normal -0.576886773109436 -0.8168241381645203 1.659970945422362e-11
  outer loop
    vertex -1070.375122070312 -1923.827270507812 14050
    vertex -1141.602294921875 -1872.045532226562 14450
    vertex -1141.602294921875 -1872.045532226562 14050
  endloop
endfacet
facet normal -0.576886773109436 -0.8168241381645203 1.659970945422362e-11
  outer loop
    vertex -1141.602294921875 -1872.045532226562 14450
    vertex -1070.375122070312 -1923.827270507812 14050
    vertex -1070.375122070312 -1923.827270507812 14450
  endloop
endfacet
facet normal -0.6288826465606689 -0.7775002121925354 1.796434528911206e-11
  outer loop
    vertex -1141.602294921875 -1872.045532226562 14450
    vertex -1295.897338867188 -1743.578979492188 14050
    vertex -1141.602294921875 -1872.045532226562 14050
  endloop
endfacet
facet normal -0.6288826465606689 -0.7775002121925354 1.796434528911206e-11
  outer loop
    vertex -1295.897338867188 -1743.578979492188 14050
    vertex -1141.602294921875 -1872.045532226562 14450
    vertex -1295.897338867188 -1743.578979492188 14450
  endloop
endfacet
facet normal -0.6782945394515991 -0.7347900867462158 1.925494486076929e-11
  outer loop
    vertex -1295.897338867188 -1743.578979492188 14450
    vertex -1441.579956054688 -1605.1484375 14050
    vertex -1295.897338867188 -1743.578979492188 14050
  endloop
endfacet
facet normal -0.6782945394515991 -0.7347900867462158 1.925494486076929e-11
  outer loop
    vertex -1441.579956054688 -1605.1484375 14050
    vertex -1295.897338867188 -1743.578979492188 14450
    vertex -1441.579956054688 -1605.1484375 14450
  endloop
endfacet
facet normal -0.7248979806900024 -0.6888562440872192 2.04656083746535e-11
  outer loop
    vertex -1441.579956054688 -1605.1484375 14450
    vertex -1578.026489257812 -1457.346801757812 14050
    vertex -1441.579956054688 -1605.1484375 14050
  endloop
endfacet
facet normal -0.7248979806900024 -0.6888562440872192 2.04656083746535e-11
  outer loop
    vertex -1578.026489257812 -1457.346801757812 14050
    vertex -1441.579956054688 -1605.1484375 14450
    vertex -1578.026489257812 -1457.346801757812 14450
  endloop
endfacet
facet normal -0.7684767842292786 -0.6398776769638062 2.159067889750954e-11
  outer loop
    vertex -1578.026489257812 -1457.346801757812 14450
    vertex -1704.65234375 -1300.806884765625 14050
    vertex -1578.026489257812 -1457.346801757812 14050
  endloop
endfacet
facet normal -0.7684767842292786 -0.6398776769638062 2.159067889750954e-11
  outer loop
    vertex -1704.65234375 -1300.806884765625 14050
    vertex -1578.026489257812 -1457.346801757812 14450
    vertex -1704.65234375 -1300.806884765625 14450
  endloop
endfacet
facet normal -0.8088244199752808 -0.5880501866340637 2.262478746017926e-11
  outer loop
    vertex -1704.65234375 -1300.806884765625 14450
    vertex -1757.183349609375 -1226.432250976562 14050
    vertex -1704.65234375 -1300.806884765625 14050
  endloop
endfacet
facet normal -0.8088244199752808 -0.5880501866340637 2.262478746017926e-11
  outer loop
    vertex -1757.183349609375 -1226.432250976562 14050
    vertex -1704.65234375 -1300.806884765625 14450
    vertex -1757.183349609375 -1226.432250976562 14450
  endloop
endfacet
facet normal -0.8088244199752808 -0.5880501866340637 2.262478746017926e-11
  outer loop
    vertex -1757.183349609375 -1226.432250976562 14450
    vertex -1820.915283203125 -1136.19921875 14050
    vertex -1757.183349609375 -1226.432250976562 14050
  endloop
endfacet
facet normal -0.8088244199752808 -0.5880501866340637 2.262478746017926e-11
  outer loop
    vertex -1820.915283203125 -1136.19921875 14050
    vertex -1757.183349609375 -1226.432250976562 14450
    vertex -1820.915283203125 -1136.19921875 14450
  endloop
endfacet
facet normal -0.8457459211349487 -0.533585786819458 2.356288775207105e-11
  outer loop
    vertex -1820.915283203125 -1136.19921875 14450
    vertex -1926.3173828125 -964.2286987304688 14050
    vertex -1820.915283203125 -1136.19921875 14050
  endloop
endfacet
facet normal -0.8457459211349487 -0.533585786819458 2.356288775207105e-11
  outer loop
    vertex -1926.3173828125 -964.2286987304688 14050
    vertex -1820.915283203125 -1136.19921875 14450
    vertex -1926.3173828125 -964.2286987304688 14450
  endloop
endfacet
facet normal -0.8790593147277832 -0.4767123460769653 2.440030816286409e-11
  outer loop
    vertex -1926.3173828125 -964.2286987304688 14450
    vertex -2020.4072265625 -785.6318969726562 14050
    vertex -1926.3173828125 -964.2286987304688 14050
  endloop
endfacet
facet normal -0.8790593147277832 -0.4767123460769653 2.440030816286409e-11
  outer loop
    vertex -2020.4072265625 -785.6318969726562 14050
    vertex -1926.3173828125 -964.2286987304688 14450
    vertex -2020.4072265625 -785.6318969726562 14450
  endloop
endfacet
facet normal -0.908597469329834 -0.4176728427410126 2.51328020894892e-11
  outer loop
    vertex -2020.4072265625 -785.6318969726562 14450
    vertex -2102.781982421875 -601.1737060546875 14050
    vertex -2020.4072265625 -785.6318969726562 14050
  endloop
endfacet
facet normal -0.908597469329834 -0.4176728427410126 2.51328020894892e-11
  outer loop
    vertex -2102.781982421875 -601.1737060546875 14050
    vertex -2020.4072265625 -785.6318969726562 14450
    vertex -2102.781982421875 -601.1737060546875 14450
  endloop
endfacet
facet normal -0.9342096447944641 -0.3567244410514832 2.575657569170442e-11
  outer loop
    vertex -2102.781982421875 -601.1737060546875 14450
    vertex -2173.088623046875 -411.6440124511719 14050
    vertex -2102.781982421875 -601.1737060546875 14050
  endloop
endfacet
facet normal -0.9342096447944641 -0.3567244410514832 2.575657569170442e-11
  outer loop
    vertex -2173.088623046875 -411.6440124511719 14050
    vertex -2102.781982421875 -601.1737060546875 14450
    vertex -2173.088623046875 -411.6440124511719 14450
  endloop
endfacet
facet normal -0.9557632207870483 -0.294137179851532 2.626834860741667e-11
  outer loop
    vertex -2173.088623046875 -411.6440124511719 14450
    vertex -2192.64794921875 -346.2221069335938 14050
    vertex -2173.088623046875 -411.6440124511719 14050
  endloop
endfacet
facet normal -0.9557632207870483 -0.294137179851532 2.626834860741667e-11
  outer loop
    vertex -2192.64794921875 -346.2221069335938 14050
    vertex -2173.088623046875 -411.6440124511719 14450
    vertex -2192.64794921875 -346.2221069335938 14450
  endloop
endfacet
facet normal -0.9557632207870483 -0.294137179851532 2.626834860741667e-11
  outer loop
    vertex -2192.64794921875 -346.2221069335938 14450
    vertex -2231.0263671875 -217.8546142578125 14050
    vertex -2192.64794921875 -346.2221069335938 14050
  endloop
endfacet
facet normal -0.9557632207870483 -0.294137179851532 2.626834860741667e-11
  outer loop
    vertex -2231.0263671875 -217.8546142578125 14050
    vertex -2192.64794921875 -346.2221069335938 14450
    vertex -2231.0263671875 -217.8546142578125 14450
  endloop
endfacet
facet normal -0.9731451272964478 -0.2301925271749496 2.666538170825739e-11
  outer loop
    vertex -2231.0263671875 -217.8546142578125 14450
    vertex -2276.3466796875 -20.63538932800293 14050
    vertex -2231.0263671875 -217.8546142578125 14050
  endloop
endfacet
facet normal -0.9731451272964478 -0.2301925271749496 2.666538170825739e-11
  outer loop
    vertex -2276.3466796875 -20.63538932800293 14050
    vertex -2231.0263671875 -217.8546142578125 14450
    vertex -2276.3466796875 -20.63538932800293 14450
  endloop
endfacet
facet normal -0.9862631559371948 -0.1651816666126251 2.694551179405202e-11
  outer loop
    vertex -2276.3466796875 -20.63538932800293 14450
    vertex -2308.855712890625 179.1690063476562 14050
    vertex -2276.3466796875 -20.63538932800293 14050
  endloop
endfacet
facet normal -0.9862631559371948 -0.1651816666126251 2.694551179405202e-11
  outer loop
    vertex -2308.855712890625 179.1690063476562 14050
    vertex -2276.3466796875 -20.63538932800293 14450
    vertex -2308.855712890625 179.1690063476562 14450
  endloop
endfacet
facet normal -0.9950472116470337 -0.09940356016159058 2.710718628728959e-11
  outer loop
    vertex -2308.855712890625 179.1690063476562 14450
    vertex -2328.414306640625 380.702880859375 14050
    vertex -2308.855712890625 179.1690063476562 14050
  endloop
endfacet
facet normal -0.9950472116470337 -0.09940356016159058 2.710718628728959e-11
  outer loop
    vertex -2328.414306640625 380.702880859375 14050
    vertex -2308.855712890625 179.1690063476562 14450
    vertex -2328.414306640625 380.702880859375 14450
  endloop
endfacet
facet normal -0.9994499683380127 -0.03316286951303482 2.714947537618695e-11
  outer loop
    vertex -2328.414306640625 380.702880859375 14450
    vertex -2333.641845703125 542.873779296875 14050
    vertex -2328.414306640625 380.702880859375 14050
  endloop
endfacet
facet normal -0.9994499683380127 -0.03316286951303482 2.714947537618695e-11
  outer loop
    vertex -2333.641845703125 542.873779296875 14050
    vertex -2328.414306640625 380.702880859375 14450
    vertex -2333.641845703125 542.873779296875 14450
  endloop
endfacet
facet normal -0.01937429420650005 0.9998123049736023 -6.387579809703781e-13
  outer loop
    vertex -2333.641845703125 542.873779296875 14450
    vertex -2333.36865234375 542.8792114257812 14050
    vertex -2333.641845703125 542.873779296875 14050
  endloop
endfacet
facet normal -0.01937429420650005 0.9998123049736023 -6.387579809703781e-13
  outer loop
    vertex -2333.36865234375 542.8792114257812 14050
    vertex -2333.641845703125 542.873779296875 14450
    vertex -2333.36865234375 542.8792114257812 14450
  endloop
endfacet
facet normal -0.9998010993003845 -0.01994297467172146 2.714360680666772e-11
  outer loop
    vertex -2333.36865234375 542.8792114257812 14450
    vertex -2334.1845703125 584.9760131835938 14050
    vertex -2333.36865234375 542.8792114257812 14050
  endloop
endfacet
facet normal -0.9998010993003845 -0.01994297467172146 2.714360680666772e-11
  outer loop
    vertex -2334.1845703125 584.9760131835938 14050
    vertex -2333.36865234375 542.8792114257812 14450
    vertex -2334.1845703125 584.9760131835938 14450
  endloop
endfacet
facet normal 0.01937429420650005 -0.9998123049736023 6.387579809703781e-13
  outer loop
    vertex -2334.1845703125 584.9760131835938 14450
    vertex -2334.870361328125 584.9622802734375 14050
    vertex -2334.1845703125 584.9760131835938 14050
  endloop
endfacet
facet normal 0.01937429420650005 -0.9998123049736023 6.387579809703781e-13
  outer loop
    vertex -2334.870361328125 584.9622802734375 14050
    vertex -2334.1845703125 584.9760131835938 14450
    vertex -2334.870361328125 584.9622802734375 14450
  endloop
endfacet
facet normal -0.9992834329605103 0.03784952312707901 2.706226388815569e-11
  outer loop
    vertex -2334.870361328125 584.9622802734375 14450
    vertex -2333.362060546875 625.9498901367188 14050
    vertex -2334.870361328125 584.9622802734375 14050
  endloop
endfacet
facet normal -0.9992834329605103 0.03784952312707901 2.706226388815569e-11
  outer loop
    vertex -2333.362060546875 625.9498901367188 14050
    vertex -2334.870361328125 584.9622802734375 14450
    vertex -2333.362060546875 625.9498901367188 14450
  endloop
endfacet
facet normal -0.9992834329605103 0.03784952312707901 2.706226388815569e-11
  outer loop
    vertex -2333.362060546875 625.9498901367188 14450
    vertex -2264.511962890625 2497.06787109375 14050
    vertex -2333.362060546875 625.9498901367188 14050
  endloop
endfacet
facet normal -0.9992834329605103 0.03784952312707901 2.706226388815569e-11
  outer loop
    vertex -2264.511962890625 2497.06787109375 14050
    vertex -2333.362060546875 625.9498901367188 14450
    vertex -2264.511962890625 2497.06787109375 14450
  endloop
endfacet
facet normal -0.9992834329605103 0.03784952312707901 2.706226388815569e-11
  outer loop
    vertex -2264.511962890625 2497.06787109375 14450
    vertex -2260.609619140625 2603.125732421875 14050
    vertex -2264.511962890625 2497.06787109375 14050
  endloop
endfacet
facet normal -0.9992834329605103 0.03784952312707901 2.706226388815569e-11
  outer loop
    vertex -2260.609619140625 2603.125732421875 14050
    vertex -2264.511962890625 2497.06787109375 14450
    vertex -2260.609619140625 2603.125732421875 14450
  endloop
endfacet
facet normal -0.9944790005683899 0.1049357205629349 2.685381604583537e-11
  outer loop
    vertex -2260.609619140625 2603.125732421875 14450
    vertex -2056.910888671875 4590.26953125 14050
    vertex -2260.609619140625 2603.125732421875 14050
  endloop
endfacet
facet normal -0.9944790005683899 0.1049357205629349 2.685381604583537e-11
  outer loop
    vertex -2056.910888671875 4590.26953125 14050
    vertex -2260.609619140625 2603.125732421875 14450
    vertex -2056.910888671875 4590.26953125 14450
  endloop
endfacet
facet normal -0.9944790005683899 0.1049357205629349 2.685381604583537e-11
  outer loop
    vertex -2056.910888671875 4590.26953125 14450
    vertex -2054.508056640625 4613.7109375 14050
    vertex -2056.910888671875 4590.26953125 14050
  endloop
endfacet
facet normal -0.9944790005683899 0.1049357205629349 2.685381604583537e-11
  outer loop
    vertex -2054.508056640625 4613.7109375 14050
    vertex -2056.910888671875 4590.26953125 14450
    vertex -2054.508056640625 4613.7109375 14450
  endloop
endfacet
facet normal -0.9851804971694946 0.1715207099914551 2.652404858249913e-11
  outer loop
    vertex -2054.508056640625 4613.7109375 14450
    vertex -1717.5400390625 6606.02001953125 14050
    vertex -2054.508056640625 4613.7109375 14050
  endloop
endfacet
facet normal -0.9851804971694946 0.1715207099914551 2.652404858249913e-11
  outer loop
    vertex -1717.5400390625 6606.02001953125 14050
    vertex -2054.508056640625 4613.7109375 14450
    vertex -1717.5400390625 6606.02001953125 14450
  endloop
endfacet
facet normal -0.9714393019676208 0.2372881472110748 2.607472050775161e-11
  outer loop
    vertex -1717.5400390625 6606.02001953125 14450
    vertex -1378.363159179688 8035.35791015625 14050
    vertex -1717.5400390625 6606.02001953125 14050
  endloop
endfacet
facet normal -0.9714393019676208 0.2372881472110748 2.607472050775161e-11
  outer loop
    vertex -1378.363159179688 8035.35791015625 14050
    vertex -1717.5400390625 6606.02001953125 14450
    vertex -1378.363159179688 8035.35791015625 14450
  endloop
endfacet
facet normal -0.9714393019676208 0.2372881472110748 2.607472050775161e-11
  outer loop
    vertex -1378.363159179688 8035.35791015625 14450
    vertex -1251.18701171875 8571.2958984375 14050
    vertex -1378.363159179688 8035.35791015625 14050
  endloop
endfacet
facet normal -0.9714393019676208 0.2372881472110748 2.607472050775161e-11
  outer loop
    vertex -1251.18701171875 8571.2958984375 14050
    vertex -1378.363159179688 8035.35791015625 14450
    vertex -1251.18701171875 8571.2958984375 14450
  endloop
endfacet
facet normal -0.9533307552337646 0.3019278347492218 2.550823788305401e-11
  outer loop
    vertex -1251.18701171875 8571.2958984375 14450
    vertex -795.2188720703125 10053.2802734375 14050
    vertex -1251.18701171875 8571.2958984375 14050
  endloop
endfacet
facet normal -0.9533307552337646 0.3019278347492218 2.550823788305401e-11
  outer loop
    vertex -795.2188720703125 10053.2802734375 14050
    vertex -1251.18701171875 8571.2958984375 14450
    vertex -795.2188720703125 10053.2802734375 14450
  endloop
endfacet
facet normal -0.9533307552337646 0.3019278347492218 2.550823788305401e-11
  outer loop
    vertex -795.2188720703125 10053.2802734375 14450
    vertex -657.4989624023438 10500.8974609375 14050
    vertex -795.2188720703125 10053.2802734375 14050
  endloop
endfacet
facet normal -0.9533307552337646 0.3019278347492218 2.550823788305401e-11
  outer loop
    vertex -657.4989624023438 10500.8974609375 14050
    vertex -795.2188720703125 10053.2802734375 14450
    vertex -657.4989624023438 10500.8974609375 14450
  endloop
endfacet
facet normal -0.9309533834457397 0.3651380836963654 2.482762433142494e-11
  outer loop
    vertex -657.4989624023438 10500.8974609375 14450
    vertex 60.91419219970703 12386.3427734375 14050
    vertex -657.4989624023438 10500.8974609375 14050
  endloop
endfacet
facet normal -0.9309533834457397 0.3651380836963654 2.482762433142494e-11
  outer loop
    vertex 60.91419219970703 12386.3427734375 14050
    vertex -657.4989624023438 10500.8974609375 14450
    vertex 60.91419219970703 12386.3427734375 14450
  endloop
endfacet
facet normal -0.9309533834457397 0.3651380836963654 2.482762433142494e-11
  outer loop
    vertex 60.91419219970703 12386.3427734375 14450
    vertex 105.8450164794922 12504.26171875 14050
    vertex 60.91419219970703 12386.3427734375 14050
  endloop
endfacet
facet normal -0.9309533834457397 0.3651380836963654 2.482762433142494e-11
  outer loop
    vertex 105.8450164794922 12504.26171875 14050
    vertex 60.91419219970703 12386.3427734375 14450
    vertex 105.8450164794922 12504.26171875 14450
  endloop
endfacet
facet normal -7.738273563595577e-12 1 -1.164519327322144e-12
  outer loop
    vertex 105.8450164794922 12504.26171875 14450
    vertex 165.0613098144531 12504.26171875 14050
    vertex 105.8450164794922 12504.26171875 14050
  endloop
endfacet
facet normal -7.738273563595577e-12 1 -1.164519327322144e-12
  outer loop
    vertex 165.0613098144531 12504.26171875 14050
    vertex 105.8450164794922 12504.26171875 14450
    vertex 165.0613098144531 12504.26171875 14450
  endloop
endfacet
facet normal 0 1 -1.164519327322144e-12
  outer loop
    vertex 165.0613098144531 12504.26171875 14450
    vertex 1015.061340332031 12504.26171875 14050
    vertex 165.0613098144531 12504.26171875 14050
  endloop
endfacet
facet normal 0 1 -1.164519327322144e-12
  outer loop
    vertex 1015.061340332031 12504.26171875 14050
    vertex 165.0613098144531 12504.26171875 14450
    vertex 1015.061340332031 12504.26171875 14450
  endloop
endfacet
facet normal 0 1 -1.164519327322144e-12
  outer loop
    vertex 1015.061340332031 12504.26171875 14450
    vertex 6409.27294921875 12504.26171875 14050
    vertex 1015.061340332031 12504.26171875 14050
  endloop
endfacet
facet normal 0 1 -1.164519327322144e-12
  outer loop
    vertex 6409.27294921875 12504.26171875 14050
    vertex 1015.061340332031 12504.26171875 14450
    vertex 6409.27294921875 12504.26171875 14450
  endloop
endfacet
facet normal 7.186556037763747e-13 1 -1.164519327322144e-12
  outer loop
    vertex 6409.27294921875 12504.26171875 14050
    vertex 6415.0615234375 12504.26171875 14450
    vertex 6415.0615234375 12504.26171875 14050
  endloop
endfacet
facet normal 7.186556037763747e-13 1 -1.164519327322144e-12
  outer loop
    vertex 6415.0615234375 12504.26171875 14450
    vertex 6409.27294921875 12504.26171875 14050
    vertex 6409.27294921875 12504.26171875 14450
  endloop
endfacet
facet normal 1 3.662168970310596e-15 -2.712577731878163e-11
  outer loop
    vertex 6409.27294921875 12504.26171875 14050
    vertex 6409.27294921875 11754.26171875 14450
    vertex 6409.27294921875 11754.26171875 14050
  endloop
endfacet
facet normal 1 3.662168970310596e-15 -2.712577731878163e-11
  outer loop
    vertex 6409.27294921875 11754.26171875 14450
    vertex 6409.27294921875 12504.26171875 14050
    vertex 6409.27294921875 12504.26171875 14450
  endloop
endfacet
facet normal -8.603088944361681e-13 1 -1.164519327322144e-12
  outer loop
    vertex 6409.27294921875 11754.26171875 14050
    vertex 8644.2470703125 11754.26171875 14450
    vertex 8644.2470703125 11754.26171875 14050
  endloop
endfacet
facet normal -8.603088944361681e-13 1 -1.164519327322144e-12
  outer loop
    vertex 8644.2470703125 11754.26171875 14450
    vertex 6409.27294921875 11754.26171875 14050
    vertex 6409.27294921875 11754.26171875 14450
  endloop
endfacet
facet normal 1 -1.009823599523382e-13 -2.712577731878163e-11
  outer loop
    vertex 8644.2470703125 11754.26171875 14050
    vertex 8644.2470703125 9511.263671875 14450
    vertex 8644.2470703125 9511.263671875 14050
  endloop
endfacet
facet normal 1 -1.009823599523382e-13 -2.712577731878163e-11
  outer loop
    vertex 8644.2470703125 9511.263671875 14450
    vertex 8644.2470703125 11754.26171875 14050
    vertex 8644.2470703125 11754.26171875 14450
  endloop
endfacet
facet normal 1 -2.920318284069245e-12 -2.712577731878163e-11
  outer loop
    vertex 8644.2470703125 9511.263671875 14050
    vertex 8644.2470703125 6670.45166015625 14450
    vertex 8644.2470703125 6670.45166015625 14050
  endloop
endfacet
facet normal 1 -2.920318284069245e-12 -2.712577731878163e-11
  outer loop
    vertex 8644.2470703125 6670.45166015625 14450
    vertex 8644.2470703125 9511.263671875 14050
    vertex 8644.2470703125 9511.263671875 14450
  endloop
endfacet
facet normal 1 1.556437869902618e-23 -2.712577731878163e-11
  outer loop
    vertex 8644.2470703125 6670.45166015625 14050
    vertex 8644.2470703125 5250.04541015625 14450
    vertex 8644.2470703125 5250.04541015625 14050
  endloop
endfacet
facet normal 1 1.556437869902618e-23 -2.712577731878163e-11
  outer loop
    vertex 8644.2470703125 5250.04541015625 14450
    vertex 8644.2470703125 6670.45166015625 14050
    vertex 8644.2470703125 6670.45166015625 14450
  endloop
endfacet
facet normal 1 -8.45802703049181e-13 -2.712577731878163e-11
  outer loop
    vertex 8644.2470703125 5250.04541015625 14050
    vertex 8644.2470703125 2645.919677734375 14450
    vertex 8644.2470703125 2645.919677734375 14050
  endloop
endfacet
facet normal 1 -8.45802703049181e-13 -2.712577731878163e-11
  outer loop
    vertex 8644.2470703125 2645.919677734375 14450
    vertex 8644.2470703125 5250.04541015625 14050
    vertex 8644.2470703125 5250.04541015625 14450
  endloop
endfacet
facet normal 1 1.368008787847041e-12 -2.712577731878163e-11
  outer loop
    vertex 8644.2470703125 2645.919677734375 14050
    vertex 8644.2470703125 41.79368591308594 14450
    vertex 8644.2470703125 41.79368591308594 14050
  endloop
endfacet
facet normal 1 1.368008787847041e-12 -2.712577731878163e-11
  outer loop
    vertex 8644.2470703125 41.79368591308594 14450
    vertex 8644.2470703125 2645.919677734375 14050
    vertex 8644.2470703125 2645.919677734375 14450
  endloop
endfacet
facet normal -8.038130379274433e-23 -1 1.164519327322144e-12
  outer loop
    vertex 8644.2470703125 41.79368591308594 14050
    vertex 8633.98046875 41.79368591308594 14450
    vertex 8633.98046875 41.79368591308594 14050
  endloop
endfacet
facet normal -8.038130379274433e-23 -1 1.164519327322144e-12
  outer loop
    vertex 8633.98046875 41.79368591308594 14450
    vertex 8644.2470703125 41.79368591308594 14050
    vertex 8644.2470703125 41.79368591308594 14450
  endloop
endfacet
facet normal 0.5321916937828064 -0.8466238975524902 -1.345020449183831e-11
  outer loop
    vertex 8633.98046875 41.79368591308594 14050
    vertex 8543.3203125 -16.86908340454102 14450
    vertex 8543.3203125 -16.86908340454102 14050
  endloop
endfacet
facet normal 0.5321916937828064 -0.8466238975524902 -1.345020449183831e-11
  outer loop
    vertex 8543.3203125 -16.86908340454102 14450
    vertex 8633.98046875 41.79368591308594 14050
    vertex 8633.98046875 41.79368591308594 14450
  endloop
endfacet
facet normal 0.5321916937828064 -0.8466238975524902 -1.345020449183831e-11
  outer loop
    vertex 8543.3203125 -16.86908340454102 14450
    vertex 7763.4365234375 -521.5029296875 14050
    vertex 8543.3203125 -16.86908340454102 14050
  endloop
endfacet
facet normal 0.5321916937828064 -0.8466238975524902 -1.345020449183831e-11
  outer loop
    vertex 7763.4365234375 -521.5029296875 14050
    vertex 8543.3203125 -16.86908340454102 14450
    vertex 7763.4365234375 -521.5029296875 14450
  endloop
endfacet
facet normal 0.475736141204834 -0.8795880675315857 -1.188041505451043e-11
  outer loop
    vertex 7763.4365234375 -521.5029296875 14450
    vertex 6952.51513671875 -972.9788818359375 14050
    vertex 7763.4365234375 -521.5029296875 14050
  endloop
endfacet
facet normal 0.475736141204834 -0.8795880675315857 -1.188041505451043e-11
  outer loop
    vertex 6952.51513671875 -972.9788818359375 14050
    vertex 7763.4365234375 -521.5029296875 14450
    vertex 6952.51513671875 -972.9788818359375 14450
  endloop
endfacet
facet normal 0.4173418879508972 -0.908749520778656 -1.026246709140421e-11
  outer loop
    vertex 6952.51513671875 -972.9788818359375 14450
    vertex 6114.07080078125 -1369.339965820312 14050
    vertex 6952.51513671875 -972.9788818359375 14050
  endloop
endfacet
facet normal 0.4173418879508972 -0.908749520778656 -1.026246709140421e-11
  outer loop
    vertex 6114.07080078125 -1369.339965820312 14050
    vertex 6952.51513671875 -972.9788818359375 14450
    vertex 6114.07080078125 -1369.339965820312 14450
  endloop
endfacet
facet normal 0.3572576344013214 -0.9340058565139771 -8.603223168590635e-12
  outer loop
    vertex 6114.07080078125 -1369.339965820312 14450
    vertex 5515.45361328125 -1605.03466796875 14050
    vertex 6114.07080078125 -1369.339965820312 14050
  endloop
endfacet
facet normal 0.3572576344013214 -0.9340058565139771 -8.603223168590635e-12
  outer loop
    vertex 5515.45361328125 -1605.03466796875 14050
    vertex 6114.07080078125 -1369.339965820312 14450
    vertex 5515.45361328125 -1605.03466796875 14450
  endloop
endfacet
facet normal 0.3572576344013214 -0.9340058565139771 -8.603223168590635e-12
  outer loop
    vertex 5515.45361328125 -1605.03466796875 14050
    vertex 5251.7373046875 -1708.868286132812 14450
    vertex 5251.7373046875 -1708.868286132812 14050
  endloop
endfacet
facet normal 0.3572576344013214 -0.9340058565139771 -8.603223168590635e-12
  outer loop
    vertex 5251.7373046875 -1708.868286132812 14450
    vertex 5515.45361328125 -1605.03466796875 14050
    vertex 5515.45361328125 -1605.03466796875 14450
  endloop
endfacet
facet normal 0.2957347631454468 -0.9552701115608215 -6.909604832738836e-12
  outer loop
    vertex 5251.7373046875 -1708.868286132812 14450
    vertex 4369.2529296875 -1990.092163085938 14050
    vertex 5251.7373046875 -1708.868286132812 14050
  endloop
endfacet
facet normal 0.2957347631454468 -0.9552701115608215 -6.909604832738836e-12
  outer loop
    vertex 4369.2529296875 -1990.092163085938 14050
    vertex 5251.7373046875 -1708.868286132812 14450
    vertex 4369.2529296875 -1990.092163085938 14450
  endloop
endfacet
endsolid com.sketchup.SketchUp.2019
