solid com.sketchup.SketchUp.2019
facet normal -5.503380862137419e-07 -8.493403242937347e-07 -1
  outer loop
    vertex 24400 8504.26171875 14050
    vertex 12300 663.9627685546875 14050.013671875
    vertex 12300 8504.26171875 14050
  endloop
endfacet
facet normal -5.503380862137419e-07 -8.493403242937347e-07 -1
  outer loop
    vertex 12300 663.9627685546875 14050.013671875
    vertex 24400 8504.26171875 14050
    vertex 24400 663.9627685546875 14050
  endloop
endfacet
facet normal 5.503380862137419e-07 8.493403242937347e-07 1
  outer loop
    vertex 24400 663.9630737304688 14450
    vertex 12300 8504.2626953125 14450
    vertex 12300 663.9630737304688 14450.013671875
  endloop
endfacet
facet normal 5.503380862137419e-07 8.493403242937347e-07 1
  outer loop
    vertex 12300 8504.2626953125 14450
    vertex 24400 663.9630737304688 14450
    vertex 24400 8504.2626953125 14450
  endloop
endfacet
facet normal 1 5.681765074874144e-19 -5.503380862137419e-07
  outer loop
    vertex 24400 8504.26171875 14050
    vertex 24400 663.9630737304688 14450
    vertex 24400 663.9627685546875 14050
  endloop
endfacet
facet normal 1 5.681765074874144e-19 -5.503380862137419e-07
  outer loop
    vertex 24400 663.9630737304688 14450
    vertex 24400 8504.26171875 14050
    vertex 24400 8504.2626953125 14450
  endloop
endfacet
facet normal 0 1 -8.493403242937347e-07
  outer loop
    vertex 12300 8504.2626953125 14450
    vertex 24400 8504.26171875 14050
    vertex 12300 8504.26171875 14050
  endloop
endfacet
facet normal 0 1 -8.493403242937347e-07
  outer loop
    vertex 24400 8504.26171875 14050
    vertex 12300 8504.2626953125 14450
    vertex 24400 8504.2626953125 14450
  endloop
endfacet
facet normal -1 9.348492032573708e-13 5.503380862137419e-07
  outer loop
    vertex 12300 663.9630737304688 14450.013671875
    vertex 12300 8504.26171875 14050
    vertex 12300 663.9627685546875 14050.013671875
  endloop
endfacet
facet normal -1 9.348492032573708e-13 5.503380862137419e-07
  outer loop
    vertex 12300 8504.26171875 14050
    vertex 12300 663.9630737304688 14450.013671875
    vertex 12300 8504.2626953125 14450
  endloop
endfacet
facet normal 9.349082922757712e-13 -1 8.493403242937347e-07
  outer loop
    vertex 24400 663.9630737304688 14450
    vertex 12300 663.9627685546875 14050.013671875
    vertex 24400 663.9627685546875 14050
  endloop
endfacet
facet normal 9.349082922757712e-13 -1 8.493403242937347e-07
  outer loop
    vertex 12300 663.9627685546875 14050.013671875
    vertex 24400 663.9630737304688 14450
    vertex 12300 663.9630737304688 14450.013671875
  endloop
endfacet
endsolid com.sketchup.SketchUp.2019
