solid com.sketchup.SketchUp.2019
facet normal 1.422350735455491e-13 2.172151347679119e-13 -1
  outer loop
    vertex 33500 17414.453125 14050
    vertex 25000 11754.26171875 14050
    vertex 25000 17414.453125 14050
  endloop
endfacet
facet normal 1.422350735455491e-13 2.172151347679119e-13 -1
  outer loop
    vertex 25000 11754.26171875 14050
    vertex 33500 17414.453125 14050
    vertex 33500 11754.26171875 14050
  endloop
endfacet
facet normal -1.422350735455491e-13 -2.172151347679119e-13 1
  outer loop
    vertex 33500 11754.26171875 14450
    vertex 25000 17414.453125 14450
    vertex 25000 11754.26171875 14450
  endloop
endfacet
facet normal -1.422350735455491e-13 -2.172151347679119e-13 1
  outer loop
    vertex 25000 17414.453125 14450
    vertex 33500 11754.26171875 14450
    vertex 33500 17414.453125 14450
  endloop
endfacet
facet normal -1 6.164348316754723e-26 -1.422350735455491e-13
  outer loop
    vertex 25000 17414.453125 14450
    vertex 25000 11754.26171875 14050
    vertex 25000 11754.26171875 14450
  endloop
endfacet
facet normal -1 6.164348316754723e-26 -1.422350735455491e-13
  outer loop
    vertex 25000 11754.26171875 14050
    vertex 25000 17414.453125 14450
    vertex 25000 17414.453125 14050
  endloop
endfacet
facet normal 6.179122202395315e-26 -1 -2.172151347679119e-13
  outer loop
    vertex 33500 11754.26171875 14050
    vertex 25000 11754.26171875 14450
    vertex 25000 11754.26171875 14050
  endloop
endfacet
facet normal 6.179122202395315e-26 -1 -2.172151347679119e-13
  outer loop
    vertex 25000 11754.26171875 14450
    vertex 33500 11754.26171875 14050
    vertex 33500 11754.26171875 14450
  endloop
endfacet
facet normal 1 -1.477375323290859e-28 1.422350735455491e-13
  outer loop
    vertex 33500 11754.26171875 14050
    vertex 33500 17414.453125 14450
    vertex 33500 11754.26171875 14450
  endloop
endfacet
facet normal 1 -1.477375323290859e-28 1.422350735455491e-13
  outer loop
    vertex 33500 17414.453125 14450
    vertex 33500 11754.26171875 14050
    vertex 33500 17414.453125 14050
  endloop
endfacet
facet normal 0 1 2.172151347679119e-13
  outer loop
    vertex 25000 17414.453125 14450
    vertex 33500 17414.453125 14050
    vertex 25000 17414.453125 14050
  endloop
endfacet
facet normal 0 1 2.172151347679119e-13
  outer loop
    vertex 33500 17414.453125 14050
    vertex 25000 17414.453125 14450
    vertex 33500 17414.453125 14450
  endloop
endfacet
endsolid com.sketchup.SketchUp.2019
