solid com.sketchup.SketchUp.2019
facet normal 6.08665000996142e-14 1.018041309889736e-13 -1
  outer loop
    vertex 37500 8504.26171875 14050
    vertex 24400 664.9627075195312 14050
    vertex 24400 8504.26171875 14050
  endloop
endfacet
facet normal 6.08665000996142e-14 1.018041309889736e-13 -1
  outer loop
    vertex 24400 664.9627075195312 14050
    vertex 37500 8504.26171875 14050
    vertex 37500 664.9627075195312 14050
  endloop
endfacet
facet normal -6.08665000996142e-14 -1.018041309889736e-13 1
  outer loop
    vertex 37500 664.9627075195312 14450
    vertex 24400 8504.26171875 14450
    vertex 24400 664.9627075195312 14450
  endloop
endfacet
facet normal -6.08665000996142e-14 -1.018041309889736e-13 1
  outer loop
    vertex 24400 8504.26171875 14450
    vertex 37500 664.9627075195312 14450
    vertex 37500 8504.26171875 14450
  endloop
endfacet
facet normal -1 5.605121185850778e-30 -6.08665000996142e-14
  outer loop
    vertex 24400 8504.26171875 14450
    vertex 24400 664.9627075195312 14050
    vertex 24400 664.9627075195312 14450
  endloop
endfacet
facet normal -1 5.605121185850778e-30 -6.08665000996142e-14
  outer loop
    vertex 24400 664.9627075195312 14050
    vertex 24400 8504.26171875 14450
    vertex 24400 8504.26171875 14050
  endloop
endfacet
facet normal -1.239292316159245e-26 1 1.018041309889736e-13
  outer loop
    vertex 24400 8504.26171875 14450
    vertex 37500 8504.26171875 14050
    vertex 24400 8504.26171875 14050
  endloop
endfacet
facet normal -1.239292316159245e-26 1 1.018041309889736e-13
  outer loop
    vertex 37500 8504.26171875 14050
    vertex 24400 8504.26171875 14450
    vertex 37500 8504.26171875 14450
  endloop
endfacet
facet normal 1 -1.238731793508231e-26 6.08665000996142e-14
  outer loop
    vertex 37500 664.9627075195312 14050
    vertex 37500 8504.26171875 14450
    vertex 37500 664.9627075195312 14450
  endloop
endfacet
facet normal 1 -1.238731793508231e-26 6.08665000996142e-14
  outer loop
    vertex 37500 8504.26171875 14450
    vertex 37500 664.9627075195312 14050
    vertex 37500 8504.26171875 14050
  endloop
endfacet
facet normal -0 -1 -1.018041309889736e-13
  outer loop
    vertex 37500 664.9627075195312 14450
    vertex 24400 664.9627075195312 14050
    vertex 37500 664.9627075195312 14050
  endloop
endfacet
facet normal -0 -1 -1.018041309889736e-13
  outer loop
    vertex 24400 664.9627075195312 14050
    vertex 37500 664.9627075195312 14450
    vertex 24400 664.9627075195312 14450
  endloop
endfacet
endsolid com.sketchup.SketchUp.2019
