solid com.sketchup.SketchUp.2019
facet normal 2.712577731878163e-11 1.198714196480599e-12 1
  outer loop
    vertex -2352.105712890625 644.1681518554688 17950
    vertex -2351.283447265625 685.14208984375 17950
    vertex -2352.79150390625 644.1544799804688 17950
  endloop
endfacet
facet normal 2.712577731878163e-11 1.198714196480599e-12 1
  outer loop
    vertex -2351.283447265625 685.14208984375 17950
    vertex -2352.105712890625 644.1681518554688 17950
    vertex -2351.2900390625 602.0714111328125 17950
  endloop
endfacet
facet normal 2.712577731878163e-11 1.198714196480599e-12 1
  outer loop
    vertex -2346.335693359375 439.8950805664062 17950
    vertex -2351.2900390625 602.0714111328125 17950
    vertex -2351.563232421875 602.0659790039062 17950
  endloop
endfacet
facet normal 2.712577731878163e-11 1.198714196480599e-12 1
  outer loop
    vertex -2351.2900390625 602.0714111328125 17950
    vertex -2346.335693359375 439.8950805664062 17950
    vertex -2351.283447265625 685.14208984375 17950
  endloop
endfacet
facet normal 2.712577731878163e-11 1.198714196480599e-12 1
  outer loop
    vertex -2351.283447265625 685.14208984375 17950
    vertex -2346.335693359375 439.8950805664062 17950
    vertex -2282.433349609375 2556.26025390625 17950
  endloop
endfacet
facet normal 2.712577731878163e-11 1.198714196480599e-12 1
  outer loop
    vertex -2282.433349609375 2556.26025390625 17950
    vertex -2346.335693359375 439.8950805664062 17950
    vertex -2326.777099609375 238.3611907958984 17950
  endloop
endfacet
facet normal 2.712577731878163e-11 1.198714196480599e-12 1
  outer loop
    vertex -2282.433349609375 2556.26025390625 17950
    vertex -2326.777099609375 238.3611907958984 17950
    vertex -2294.26806640625 38.55679702758789 17950
  endloop
endfacet
facet normal 2.712577731878163e-11 1.198714196480599e-12 1
  outer loop
    vertex -2282.433349609375 2556.26025390625 17950
    vertex -2294.26806640625 38.55679702758789 17950
    vertex -2248.947509765625 -158.6624145507812 17950
  endloop
endfacet
facet normal 2.712577731878163e-11 1.198714196480599e-12 1
  outer loop
    vertex -2282.433349609375 2556.26025390625 17950
    vertex -2248.947509765625 -158.6624145507812 17950
    vertex -2278.53076171875 2662.31787109375 17950
  endloop
endfacet
facet normal 2.712577731878163e-11 1.198714196480599e-12 1
  outer loop
    vertex -2278.53076171875 2662.31787109375 17950
    vertex -2248.947509765625 -158.6624145507812 17950
    vertex -2074.832275390625 4649.46142578125 17950
  endloop
endfacet
facet normal 2.712577731878163e-11 1.198714196480599e-12 1
  outer loop
    vertex -2074.832275390625 4649.46142578125 17950
    vertex -2248.947509765625 -158.6624145507812 17950
    vertex -2210.5693359375 -287.0299072265625 17950
  endloop
endfacet
facet normal 2.712577731878163e-11 1.198714196480599e-12 1
  outer loop
    vertex -2074.832275390625 4649.46142578125 17950
    vertex -2210.5693359375 -287.0299072265625 17950
    vertex -2191.010009765625 -352.4518432617188 17950
  endloop
endfacet
facet normal 2.712577731878163e-11 1.198714196480599e-12 1
  outer loop
    vertex -2074.832275390625 4649.46142578125 17950
    vertex -2191.010009765625 -352.4518432617188 17950
    vertex -2120.703125 -541.9815063476562 17950
  endloop
endfacet
facet normal 2.712577731878163e-11 1.198714196480599e-12 1
  outer loop
    vertex -2074.832275390625 4649.46142578125 17950
    vertex -2120.703125 -541.9815063476562 17950
    vertex -2038.328491210938 -726.439697265625 17950
  endloop
endfacet
facet normal 2.712577731878163e-11 1.198714196480599e-12 1
  outer loop
    vertex -2074.832275390625 4649.46142578125 17950
    vertex -2038.328491210938 -726.439697265625 17950
    vertex -2072.42919921875 4672.9033203125 17950
  endloop
endfacet
facet normal 2.712577731878163e-11 1.198714196480599e-12 1
  outer loop
    vertex -2072.42919921875 4672.9033203125 17950
    vertex -2038.328491210938 -726.439697265625 17950
    vertex -1735.461303710938 6665.21240234375 17950
  endloop
endfacet
facet normal 2.712577731878163e-11 1.198714196480599e-12 1
  outer loop
    vertex -1735.461303710938 6665.21240234375 17950
    vertex -2038.328491210938 -726.439697265625 17950
    vertex -1944.238647460938 -905.0364990234375 17950
  endloop
endfacet
facet normal 2.712577731878163e-11 1.198714196480599e-12 1
  outer loop
    vertex -1735.461303710938 6665.21240234375 17950
    vertex -1944.238647460938 -905.0364990234375 17950
    vertex -1838.836547851562 -1077.006958007812 17950
  endloop
endfacet
facet normal 2.712577731878163e-11 1.198714196480599e-12 1
  outer loop
    vertex -1735.461303710938 6665.21240234375 17950
    vertex -1838.836547851562 -1077.006958007812 17950
    vertex -1775.104614257812 -1167.239990234375 17950
  endloop
endfacet
facet normal 2.712577731878163e-11 1.198714196480599e-12 1
  outer loop
    vertex -1735.461303710938 6665.21240234375 17950
    vertex -1775.104614257812 -1167.239990234375 17950
    vertex -1722.573608398438 -1241.614624023438 17950
  endloop
endfacet
facet normal 2.712577731878163e-11 1.198714196480599e-12 1
  outer loop
    vertex -1735.461303710938 6665.21240234375 17950
    vertex -1722.573608398438 -1241.614624023438 17950
    vertex -1396.284423828125 8094.55029296875 17950
  endloop
endfacet
facet normal 2.712577731878163e-11 1.198714196480599e-12 1
  outer loop
    vertex -1396.284423828125 8094.55029296875 17950
    vertex -1722.573608398438 -1241.614624023438 17950
    vertex -1595.94775390625 -1398.154541015625 17950
  endloop
endfacet
facet normal 2.712577731878163e-11 1.198714196480599e-12 1
  outer loop
    vertex -1396.284423828125 8094.55029296875 17950
    vertex -1595.94775390625 -1398.154541015625 17950
    vertex -1459.501342773438 -1545.956298828125 17950
  endloop
endfacet
facet normal 2.712577731878163e-11 1.198714196480599e-12 1
  outer loop
    vertex -1396.284423828125 8094.55029296875 17950
    vertex -1459.501342773438 -1545.956298828125 17950
    vertex -1313.818603515625 -1684.386840820312 17950
  endloop
endfacet
facet normal 2.712577731878163e-11 1.198714196480599e-12 1
  outer loop
    vertex -1396.284423828125 8094.55029296875 17950
    vertex -1313.818603515625 -1684.386840820312 17950
    vertex -1269.108276367188 8630.4873046875 17950
  endloop
endfacet
facet normal 2.712577731878163e-11 1.198714196480599e-12 1
  outer loop
    vertex -1269.108276367188 8630.4873046875 17950
    vertex -1313.818603515625 -1684.386840820312 17950
    vertex -1159.523559570312 -1812.853393554688 17950
  endloop
endfacet
facet normal 2.712577731878163e-11 1.198714196480599e-12 1
  outer loop
    vertex -1269.108276367188 8630.4873046875 17950
    vertex -1159.523559570312 -1812.853393554688 17950
    vertex -813.14013671875 10112.47265625 17950
  endloop
endfacet
facet normal 2.712577731878163e-11 1.198714196480599e-12 1
  outer loop
    vertex -813.14013671875 10112.47265625 17950
    vertex -1159.523559570312 -1812.853393554688 17950
    vertex -1088.29638671875 -1864.635131835938 17950
  endloop
endfacet
facet normal 2.712577731878163e-11 1.198714196480599e-12 1
  outer loop
    vertex -813.14013671875 10112.47265625 17950
    vertex -1088.29638671875 -1864.635131835938 17950
    vertex -997.2769775390625 -1930.8056640625 17950
  endloop
endfacet
facet normal 2.712577731878163e-11 1.198714196480599e-12 1
  outer loop
    vertex -813.14013671875 10112.47265625 17950
    vertex -997.2769775390625 -1930.8056640625 17950
    vertex -827.7737426757812 -2037.738647460938 17950
  endloop
endfacet
facet normal 2.712577731878163e-11 1.198714196480599e-12 1
  outer loop
    vertex -813.14013671875 10112.47265625 17950
    vertex -827.7737426757812 -2037.738647460938 17950
    vertex -651.73974609375 -2133.1943359375 17950
  endloop
endfacet
facet normal 2.712577731878163e-11 1.198714196480599e-12 1
  outer loop
    vertex -813.14013671875 10112.47265625 17950
    vertex -651.73974609375 -2133.1943359375 17950
    vertex -675.4202270507812 10560.08984375 17950
  endloop
endfacet
facet normal 2.712577731878163e-11 1.198714196480599e-12 1
  outer loop
    vertex -675.4202270507812 10560.08984375 17950
    vertex -651.73974609375 -2133.1943359375 17950
    vertex 42.9929084777832 12445.53515625 17950
  endloop
endfacet
facet normal 2.712577731878163e-11 1.198714196480599e-12 1
  outer loop
    vertex 42.9929084777832 12445.53515625 17950
    vertex -651.73974609375 -2133.1943359375 17950
    vertex -469.9288635253906 -2216.763671875 17950
  endloop
endfacet
facet normal 2.712577731878163e-11 1.198714196480599e-12 1
  outer loop
    vertex 42.9929084777832 12445.53515625 17950
    vertex -469.9288635253906 -2216.763671875 17950
    vertex -283.1198120117188 -2288.089111328125 17950
  endloop
endfacet
facet normal 2.712577731878163e-11 1.198714196480599e-12 1
  outer loop
    vertex 42.9929084777832 12445.53515625 17950
    vertex -283.1198120117188 -2288.089111328125 17950
    vertex -220.8562927246094 -2307.24853515625 17950
  endloop
endfacet
facet normal 2.712577731878163e-11 1.198714196480599e-12 1
  outer loop
    vertex 42.9929084777832 12445.53515625 17950
    vertex -220.8562927246094 -2307.24853515625 17950
    vertex -143.2685852050781 -2331.059326171875 17950
  endloop
endfacet
facet normal 2.712577731878163e-11 1.198714196480599e-12 1
  outer loop
    vertex 42.9929084777832 12445.53515625 17950
    vertex -143.2685852050781 -2331.059326171875 17950
    vertex -65.08016204833984 -2352.753173828125 17950
  endloop
endfacet
facet normal 2.712577731878163e-11 1.198714196480599e-12 1
  outer loop
    vertex 42.9929084777832 12445.53515625 17950
    vertex -65.08016204833984 -2352.753173828125 17950
    vertex 13.65289115905762 -2372.314453125 17950
  endloop
endfacet
facet normal 2.712577731878163e-11 1.198714196480599e-12 1
  outer loop
    vertex 42.9929084777832 12445.53515625 17950
    vertex 13.65289115905762 -2372.314453125 17950
    vertex 92.87408447265625 -2389.7294921875 17950
  endloop
endfacet
facet normal 2.712577731878163e-11 1.198714196480599e-12 1
  outer loop
    vertex 42.9929084777832 12445.53515625 17950
    vertex 92.87408447265625 -2389.7294921875 17950
    vertex 87.92373657226562 12563.4541015625 17950
  endloop
endfacet
facet normal 2.712577731878163e-11 1.198714196480599e-12 1
  outer loop
    vertex 87.92373657226562 12563.4541015625 17950
    vertex 92.87408447265625 -2389.7294921875 17950
    vertex 147.1400299072266 12563.4541015625 17950
  endloop
endfacet
facet normal 2.712577731878163e-11 1.198714196480599e-12 1
  outer loop
    vertex 147.1400299072266 12563.4541015625 17950
    vertex 92.87408447265625 -2389.7294921875 17950
    vertex 172.5265808105469 -2404.9853515625 17950
  endloop
endfacet
facet normal 2.712577731878163e-11 1.198714196480599e-12 1
  outer loop
    vertex 147.1400299072266 12563.4541015625 17950
    vertex 172.5265808105469 -2404.9853515625 17950
    vertex 997.1400146484375 12563.4541015625 17950
  endloop
endfacet
facet normal 2.712577731878163e-11 1.198714196480599e-12 1
  outer loop
    vertex 997.1400146484375 12563.4541015625 17950
    vertex 172.5265808105469 -2404.9853515625 17950
    vertex 252.5532379150391 -2418.071533203125 17950
  endloop
endfacet
facet normal 2.712577731878163e-11 1.198714196480599e-12 1
  outer loop
    vertex 997.1400146484375 12563.4541015625 17950
    vertex 252.5532379150391 -2418.071533203125 17950
    vertex 332.8966369628906 -2428.978271484375 17950
  endloop
endfacet
facet normal 2.712577731878163e-11 1.198714196480599e-12 1
  outer loop
    vertex 997.1400146484375 12563.4541015625 17950
    vertex 332.8966369628906 -2428.978271484375 17950
    vertex 413.4991455078125 -2437.697998046875 17950
  endloop
endfacet
facet normal 2.712577731878163e-11 1.198714196480599e-12 1
  outer loop
    vertex 997.1400146484375 12563.4541015625 17950
    vertex 413.4991455078125 -2437.697998046875 17950
    vertex 494.3029174804688 -2444.22412109375 17950
  endloop
endfacet
facet normal 2.712577731878163e-11 1.198714196480599e-12 1
  outer loop
    vertex 997.1400146484375 12563.4541015625 17950
    vertex 494.3029174804688 -2444.22412109375 17950
    vertex 575.2499389648438 -2448.552490234375 17950
  endloop
endfacet
facet normal 2.712577731878163e-11 1.198714196480599e-12 1
  outer loop
    vertex 997.1400146484375 12563.4541015625 17950
    vertex 575.2499389648438 -2448.552490234375 17950
    vertex 656.2822265625 -2450.679443359375 17950
  endloop
endfacet
facet normal 2.712577731878163e-11 1.198714196480599e-12 1
  outer loop
    vertex 997.1400146484375 12563.4541015625 17950
    vertex 656.2822265625 -2450.679443359375 17950
    vertex 737.3416137695312 -2450.60400390625 17950
  endloop
endfacet
facet normal 2.712577731878163e-11 1.198714196480599e-12 1
  outer loop
    vertex 997.1400146484375 12563.4541015625 17950
    vertex 737.3416137695312 -2450.60400390625 17950
    vertex 1621.557983398438 -2413.849853515625 17950
  endloop
endfacet
facet normal 2.712577731878163e-11 1.198714196480599e-12 1
  outer loop
    vertex 997.1400146484375 12563.4541015625 17950
    vertex 1621.557983398438 -2413.849853515625 17950
    vertex 6391.3515625 12563.4541015625 17950
  endloop
endfacet
facet normal 2.712577731878163e-11 1.198714196480599e-12 1
  outer loop
    vertex 6391.3515625 12563.4541015625 17950
    vertex 1621.557983398438 -2413.849853515625 17950
    vertex 2541.27978515625 -2313.816650390625 17950
  endloop
endfacet
facet normal 2.712577731878163e-11 1.198714196480599e-12 1
  outer loop
    vertex 6391.3515625 12563.4541015625 17950
    vertex 2541.27978515625 -2313.816650390625 17950
    vertex 3452.52099609375 -2152.600341796875 17950
  endloop
endfacet
facet normal 2.712577731878163e-11 1.198714196480599e-12 1
  outer loop
    vertex 6391.3515625 12563.4541015625 17950
    vertex 3452.52099609375 -2152.600341796875 17950
    vertex 3522.4638671875 -2135.348388671875 17950
  endloop
endfacet
facet normal 2.712577731878163e-11 1.198714196480599e-12 1
  outer loop
    vertex 6391.3515625 12563.4541015625 17950
    vertex 3522.4638671875 -2135.348388671875 17950
    vertex 4351.33154296875 -1930.89990234375 17950
  endloop
endfacet
facet normal 2.712577731878163e-11 1.198714196480599e-12 1
  outer loop
    vertex 6391.3515625 12563.4541015625 17950
    vertex 4351.33154296875 -1930.89990234375 17950
    vertex 5233.81591796875 -1649.676025390625 17950
  endloop
endfacet
facet normal 2.712577731878163e-11 1.198714196480599e-12 1
  outer loop
    vertex 6391.3515625 12563.4541015625 17950
    vertex 5233.81591796875 -1649.676025390625 17950
    vertex 5497.5322265625 -1545.842529296875 17950
  endloop
endfacet
facet normal 2.712577731878163e-11 1.198714196480599e-12 1
  outer loop
    vertex 6391.3515625 12563.4541015625 17950
    vertex 5497.5322265625 -1545.842529296875 17950
    vertex 6096.1494140625 -1310.147705078125 17950
  endloop
endfacet
facet normal 2.712577731878163e-11 1.198714196480599e-12 1
  outer loop
    vertex 6391.3515625 12563.4541015625 17950
    vertex 6096.1494140625 -1310.147705078125 17950
    vertex 6391.3515625 11813.4541015625 17950
  endloop
endfacet
facet normal 2.712577731878163e-11 1.198714196480599e-12 1
  outer loop
    vertex 6391.3515625 11813.4541015625 17950
    vertex 6096.1494140625 -1310.147705078125 17950
    vertex 6934.59375 -913.7866821289062 17950
  endloop
endfacet
facet normal 2.712577731878163e-11 1.198714196480599e-12 1
  outer loop
    vertex 6391.3515625 11813.4541015625 17950
    vertex 6934.59375 -913.7866821289062 17950
    vertex 8626.326171875 11813.4541015625 17950
  endloop
endfacet
facet normal 2.712577731878163e-11 1.198714196480599e-12 1
  outer loop
    vertex 8626.326171875 11813.4541015625 17950
    vertex 6934.59375 -913.7866821289062 17950
    vertex 7745.51513671875 -462.3107604980469 17950
  endloop
endfacet
facet normal 2.712577731878163e-11 1.198714196480599e-12 1
  outer loop
    vertex 8626.326171875 11813.4541015625 17950
    vertex 7745.51513671875 -462.3107604980469 17950
    vertex 8525.3994140625 42.32310485839844 17950
  endloop
endfacet
facet normal 2.712577731878163e-11 1.198714196480599e-12 1
  outer loop
    vertex 8626.326171875 11813.4541015625 17950
    vertex 8525.3994140625 42.32310485839844 17950
    vertex 8616.0595703125 100.9858779907227 17950
  endloop
endfacet
facet normal 2.712577731878163e-11 1.198714196480599e-12 1
  outer loop
    vertex 8626.326171875 11813.4541015625 17950
    vertex 8616.0595703125 100.9858779907227 17950
    vertex 8626.326171875 2705.11181640625 17950
  endloop
endfacet
facet normal 2.712577731878163e-11 1.198714196480599e-12 1
  outer loop
    vertex 8626.326171875 2705.11181640625 17950
    vertex 8616.0595703125 100.9858779907227 17950
    vertex 8626.326171875 100.9858779907227 17950
  endloop
endfacet
facet normal 2.712577731878163e-11 1.198714196480599e-12 1
  outer loop
    vertex 8626.326171875 11813.4541015625 17950
    vertex 8626.326171875 6729.6435546875 17950
    vertex 8626.326171875 9570.4560546875 17950
  endloop
endfacet
facet normal 2.712577731878163e-11 1.198714196480599e-12 1
  outer loop
    vertex 8626.326171875 6729.6435546875 17950
    vertex 8626.326171875 11813.4541015625 17950
    vertex 8626.326171875 2705.11181640625 17950
  endloop
endfacet
facet normal 2.712577731878163e-11 1.198714196480599e-12 1
  outer loop
    vertex 8626.326171875 6729.6435546875 17950
    vertex 8626.326171875 2705.11181640625 17950
    vertex 8626.326171875 5309.23779296875 17950
  endloop
endfacet
facet normal -2.712577731878163e-11 -1.198714196480599e-12 -1
  outer loop
    vertex -2351.283447265625 685.14208984375 17550
    vertex -2352.105712890625 644.1681518554688 17550
    vertex -2352.79150390625 644.1544799804688 17550
  endloop
endfacet
facet normal -2.712577731878163e-11 -1.198714196480599e-12 -1
  outer loop
    vertex -2352.105712890625 644.1681518554688 17550
    vertex -2351.283447265625 685.14208984375 17550
    vertex -2351.2900390625 602.0714111328125 17550
  endloop
endfacet
facet normal -2.712577731878163e-11 -1.198714196480599e-12 -1
  outer loop
    vertex -2351.2900390625 602.0714111328125 17550
    vertex -2346.335693359375 439.8950805664062 17550
    vertex -2351.563232421875 602.0659790039062 17550
  endloop
endfacet
facet normal -2.712577731878163e-11 -1.198714196480599e-12 -1
  outer loop
    vertex -2346.335693359375 439.8950805664062 17550
    vertex -2351.2900390625 602.0714111328125 17550
    vertex -2351.283447265625 685.14208984375 17550
  endloop
endfacet
facet normal -2.712577731878163e-11 -1.198714196480599e-12 -1
  outer loop
    vertex -2346.335693359375 439.8950805664062 17550
    vertex -2351.283447265625 685.14208984375 17550
    vertex -2282.433349609375 2556.26025390625 17550
  endloop
endfacet
facet normal -2.712577731878163e-11 -1.198714196480599e-12 -1
  outer loop
    vertex -2346.335693359375 439.8950805664062 17550
    vertex -2282.433349609375 2556.26025390625 17550
    vertex -2326.777099609375 238.3611907958984 17550
  endloop
endfacet
facet normal -2.712577731878163e-11 -1.198714196480599e-12 -1
  outer loop
    vertex -2326.777099609375 238.3611907958984 17550
    vertex -2282.433349609375 2556.26025390625 17550
    vertex -2294.26806640625 38.55679702758789 17550
  endloop
endfacet
facet normal -2.712577731878163e-11 -1.198714196480599e-12 -1
  outer loop
    vertex -2294.26806640625 38.55679702758789 17550
    vertex -2282.433349609375 2556.26025390625 17550
    vertex -2248.947509765625 -158.6624145507812 17550
  endloop
endfacet
facet normal -2.712577731878163e-11 -1.198714196480599e-12 -1
  outer loop
    vertex -2248.947509765625 -158.6624145507812 17550
    vertex -2282.433349609375 2556.26025390625 17550
    vertex -2278.53076171875 2662.31787109375 17550
  endloop
endfacet
facet normal -2.712577731878163e-11 -1.198714196480599e-12 -1
  outer loop
    vertex -2248.947509765625 -158.6624145507812 17550
    vertex -2278.53076171875 2662.31787109375 17550
    vertex -2074.832275390625 4649.46142578125 17550
  endloop
endfacet
facet normal -2.712577731878163e-11 -1.198714196480599e-12 -1
  outer loop
    vertex -2248.947509765625 -158.6624145507812 17550
    vertex -2074.832275390625 4649.46142578125 17550
    vertex -2210.5693359375 -287.0299072265625 17550
  endloop
endfacet
facet normal -2.712577731878163e-11 -1.198714196480599e-12 -1
  outer loop
    vertex -2210.5693359375 -287.0299072265625 17550
    vertex -2074.832275390625 4649.46142578125 17550
    vertex -2191.010009765625 -352.4518432617188 17550
  endloop
endfacet
facet normal -2.712577731878163e-11 -1.198714196480599e-12 -1
  outer loop
    vertex -2191.010009765625 -352.4518432617188 17550
    vertex -2074.832275390625 4649.46142578125 17550
    vertex -2120.703125 -541.9815063476562 17550
  endloop
endfacet
facet normal -2.712577731878163e-11 -1.198714196480599e-12 -1
  outer loop
    vertex -2120.703125 -541.9815063476562 17550
    vertex -2074.832275390625 4649.46142578125 17550
    vertex -2038.328491210938 -726.439697265625 17550
  endloop
endfacet
facet normal -2.712577731878163e-11 -1.198714196480599e-12 -1
  outer loop
    vertex -2038.328491210938 -726.439697265625 17550
    vertex -2074.832275390625 4649.46142578125 17550
    vertex -2072.42919921875 4672.9033203125 17550
  endloop
endfacet
facet normal -2.712577731878163e-11 -1.198714196480599e-12 -1
  outer loop
    vertex -2038.328491210938 -726.439697265625 17550
    vertex -2072.42919921875 4672.9033203125 17550
    vertex -1735.461303710938 6665.21240234375 17550
  endloop
endfacet
facet normal -2.712577731878163e-11 -1.198714196480599e-12 -1
  outer loop
    vertex -2038.328491210938 -726.439697265625 17550
    vertex -1735.461303710938 6665.21240234375 17550
    vertex -1944.238647460938 -905.0364990234375 17550
  endloop
endfacet
facet normal -2.712577731878163e-11 -1.198714196480599e-12 -1
  outer loop
    vertex -1944.238647460938 -905.0364990234375 17550
    vertex -1735.461303710938 6665.21240234375 17550
    vertex -1838.836547851562 -1077.006958007812 17550
  endloop
endfacet
facet normal -2.712577731878163e-11 -1.198714196480599e-12 -1
  outer loop
    vertex -1838.836547851562 -1077.006958007812 17550
    vertex -1735.461303710938 6665.21240234375 17550
    vertex -1775.104614257812 -1167.239990234375 17550
  endloop
endfacet
facet normal -2.712577731878163e-11 -1.198714196480599e-12 -1
  outer loop
    vertex -1775.104614257812 -1167.239990234375 17550
    vertex -1735.461303710938 6665.21240234375 17550
    vertex -1722.573608398438 -1241.614624023438 17550
  endloop
endfacet
facet normal -2.712577731878163e-11 -1.198714196480599e-12 -1
  outer loop
    vertex -1722.573608398438 -1241.614624023438 17550
    vertex -1735.461303710938 6665.21240234375 17550
    vertex -1396.284423828125 8094.55029296875 17550
  endloop
endfacet
facet normal -2.712577731878163e-11 -1.198714196480599e-12 -1
  outer loop
    vertex -1722.573608398438 -1241.614624023438 17550
    vertex -1396.284423828125 8094.55029296875 17550
    vertex -1595.94775390625 -1398.154541015625 17550
  endloop
endfacet
facet normal -2.712577731878163e-11 -1.198714196480599e-12 -1
  outer loop
    vertex -1595.94775390625 -1398.154541015625 17550
    vertex -1396.284423828125 8094.55029296875 17550
    vertex -1459.501342773438 -1545.956298828125 17550
  endloop
endfacet
facet normal -2.712577731878163e-11 -1.198714196480599e-12 -1
  outer loop
    vertex -1459.501342773438 -1545.956298828125 17550
    vertex -1396.284423828125 8094.55029296875 17550
    vertex -1313.818603515625 -1684.386840820312 17550
  endloop
endfacet
facet normal -2.712577731878163e-11 -1.198714196480599e-12 -1
  outer loop
    vertex -1313.818603515625 -1684.386840820312 17550
    vertex -1396.284423828125 8094.55029296875 17550
    vertex -1269.108276367188 8630.4873046875 17550
  endloop
endfacet
facet normal -2.712577731878163e-11 -1.198714196480599e-12 -1
  outer loop
    vertex -1313.818603515625 -1684.386840820312 17550
    vertex -1269.108276367188 8630.4873046875 17550
    vertex -1159.523559570312 -1812.853393554688 17550
  endloop
endfacet
facet normal -2.712577731878163e-11 -1.198714196480599e-12 -1
  outer loop
    vertex -1159.523559570312 -1812.853393554688 17550
    vertex -1269.108276367188 8630.4873046875 17550
    vertex -813.14013671875 10112.47265625 17550
  endloop
endfacet
facet normal -2.712577731878163e-11 -1.198714196480599e-12 -1
  outer loop
    vertex -1159.523559570312 -1812.853393554688 17550
    vertex -813.14013671875 10112.47265625 17550
    vertex -1088.29638671875 -1864.635131835938 17550
  endloop
endfacet
facet normal -2.712577731878163e-11 -1.198714196480599e-12 -1
  outer loop
    vertex -1088.29638671875 -1864.635131835938 17550
    vertex -813.14013671875 10112.47265625 17550
    vertex -997.2769775390625 -1930.8056640625 17550
  endloop
endfacet
facet normal -2.712577731878163e-11 -1.198714196480599e-12 -1
  outer loop
    vertex -997.2769775390625 -1930.8056640625 17550
    vertex -813.14013671875 10112.47265625 17550
    vertex -827.7737426757812 -2037.738647460938 17550
  endloop
endfacet
facet normal -2.712577731878163e-11 -1.198714196480599e-12 -1
  outer loop
    vertex -827.7737426757812 -2037.738647460938 17550
    vertex -813.14013671875 10112.47265625 17550
    vertex -651.73974609375 -2133.1943359375 17550
  endloop
endfacet
facet normal -2.712577731878163e-11 -1.198714196480599e-12 -1
  outer loop
    vertex -651.73974609375 -2133.1943359375 17550
    vertex -813.14013671875 10112.47265625 17550
    vertex -675.4202270507812 10560.08984375 17550
  endloop
endfacet
facet normal -2.712577731878163e-11 -1.198714196480599e-12 -1
  outer loop
    vertex -651.73974609375 -2133.1943359375 17550
    vertex -675.4202270507812 10560.08984375 17550
    vertex 42.9929084777832 12445.53515625 17550
  endloop
endfacet
facet normal -2.712577731878163e-11 -1.198714196480599e-12 -1
  outer loop
    vertex -651.73974609375 -2133.1943359375 17550
    vertex 42.9929084777832 12445.53515625 17550
    vertex -469.9288635253906 -2216.763671875 17550
  endloop
endfacet
facet normal -2.712577731878163e-11 -1.198714196480599e-12 -1
  outer loop
    vertex -469.9288635253906 -2216.763671875 17550
    vertex 42.9929084777832 12445.53515625 17550
    vertex -283.1198120117188 -2288.089111328125 17550
  endloop
endfacet
facet normal -2.712577731878163e-11 -1.198714196480599e-12 -1
  outer loop
    vertex -283.1198120117188 -2288.089111328125 17550
    vertex 42.9929084777832 12445.53515625 17550
    vertex -220.8562927246094 -2307.24853515625 17550
  endloop
endfacet
facet normal -2.712577731878163e-11 -1.198714196480599e-12 -1
  outer loop
    vertex -220.8562927246094 -2307.24853515625 17550
    vertex 42.9929084777832 12445.53515625 17550
    vertex -143.2685852050781 -2331.059326171875 17550
  endloop
endfacet
facet normal -2.712577731878163e-11 -1.198714196480599e-12 -1
  outer loop
    vertex -143.2685852050781 -2331.059326171875 17550
    vertex 42.9929084777832 12445.53515625 17550
    vertex -65.08016204833984 -2352.753173828125 17550
  endloop
endfacet
facet normal -2.712577731878163e-11 -1.198714196480599e-12 -1
  outer loop
    vertex -65.08016204833984 -2352.753173828125 17550
    vertex 42.9929084777832 12445.53515625 17550
    vertex 13.65289115905762 -2372.314453125 17550
  endloop
endfacet
facet normal -2.712577731878163e-11 -1.198714196480599e-12 -1
  outer loop
    vertex 13.65289115905762 -2372.314453125 17550
    vertex 42.9929084777832 12445.53515625 17550
    vertex 92.87408447265625 -2389.7294921875 17550
  endloop
endfacet
facet normal -2.712577731878163e-11 -1.198714196480599e-12 -1
  outer loop
    vertex 92.87408447265625 -2389.7294921875 17550
    vertex 42.9929084777832 12445.53515625 17550
    vertex 87.92373657226562 12563.4541015625 17550
  endloop
endfacet
facet normal -2.712577731878163e-11 -1.198714196480599e-12 -1
  outer loop
    vertex 92.87408447265625 -2389.7294921875 17550
    vertex 87.92373657226562 12563.4541015625 17550
    vertex 147.1400299072266 12563.4541015625 17550
  endloop
endfacet
facet normal -2.712577731878163e-11 -1.198714196480599e-12 -1
  outer loop
    vertex 92.87408447265625 -2389.7294921875 17550
    vertex 147.1400299072266 12563.4541015625 17550
    vertex 172.5265808105469 -2404.9853515625 17550
  endloop
endfacet
facet normal -2.712577731878163e-11 -1.198714196480599e-12 -1
  outer loop
    vertex 172.5265808105469 -2404.9853515625 17550
    vertex 147.1400299072266 12563.4541015625 17550
    vertex 997.1400146484375 12563.4541015625 17550
  endloop
endfacet
facet normal -2.712577731878163e-11 -1.198714196480599e-12 -1
  outer loop
    vertex 172.5265808105469 -2404.9853515625 17550
    vertex 997.1400146484375 12563.4541015625 17550
    vertex 252.5532379150391 -2418.071533203125 17550
  endloop
endfacet
facet normal -2.712577731878163e-11 -1.198714196480599e-12 -1
  outer loop
    vertex 252.5532379150391 -2418.071533203125 17550
    vertex 997.1400146484375 12563.4541015625 17550
    vertex 332.8966369628906 -2428.978271484375 17550
  endloop
endfacet
facet normal -2.712577731878163e-11 -1.198714196480599e-12 -1
  outer loop
    vertex 332.8966369628906 -2428.978271484375 17550
    vertex 997.1400146484375 12563.4541015625 17550
    vertex 413.4991455078125 -2437.697998046875 17550
  endloop
endfacet
facet normal -2.712577731878163e-11 -1.198714196480599e-12 -1
  outer loop
    vertex 413.4991455078125 -2437.697998046875 17550
    vertex 997.1400146484375 12563.4541015625 17550
    vertex 494.3029174804688 -2444.22412109375 17550
  endloop
endfacet
facet normal -2.712577731878163e-11 -1.198714196480599e-12 -1
  outer loop
    vertex 494.3029174804688 -2444.22412109375 17550
    vertex 997.1400146484375 12563.4541015625 17550
    vertex 575.2499389648438 -2448.552490234375 17550
  endloop
endfacet
facet normal -2.712577731878163e-11 -1.198714196480599e-12 -1
  outer loop
    vertex 575.2499389648438 -2448.552490234375 17550
    vertex 997.1400146484375 12563.4541015625 17550
    vertex 656.2822265625 -2450.679443359375 17550
  endloop
endfacet
facet normal -2.712577731878163e-11 -1.198714196480599e-12 -1
  outer loop
    vertex 656.2822265625 -2450.679443359375 17550
    vertex 997.1400146484375 12563.4541015625 17550
    vertex 737.3416137695312 -2450.60400390625 17550
  endloop
endfacet
facet normal -2.712577731878163e-11 -1.198714196480599e-12 -1
  outer loop
    vertex 737.3416137695312 -2450.60400390625 17550
    vertex 997.1400146484375 12563.4541015625 17550
    vertex 1621.557983398438 -2413.849853515625 17550
  endloop
endfacet
facet normal -2.712577731878163e-11 -1.198714196480599e-12 -1
  outer loop
    vertex 1621.557983398438 -2413.849853515625 17550
    vertex 997.1400146484375 12563.4541015625 17550
    vertex 6391.3515625 12563.4541015625 17550
  endloop
endfacet
facet normal -2.712577731878163e-11 -1.198714196480599e-12 -1
  outer loop
    vertex 1621.557983398438 -2413.849853515625 17550
    vertex 6391.3515625 12563.4541015625 17550
    vertex 2541.27978515625 -2313.816650390625 17550
  endloop
endfacet
facet normal -2.712577731878163e-11 -1.198714196480599e-12 -1
  outer loop
    vertex 2541.27978515625 -2313.816650390625 17550
    vertex 6391.3515625 12563.4541015625 17550
    vertex 3452.52099609375 -2152.600341796875 17550
  endloop
endfacet
facet normal -2.712577731878163e-11 -1.198714196480599e-12 -1
  outer loop
    vertex 3452.52099609375 -2152.600341796875 17550
    vertex 6391.3515625 12563.4541015625 17550
    vertex 3522.4638671875 -2135.348388671875 17550
  endloop
endfacet
facet normal -2.712577731878163e-11 -1.198714196480599e-12 -1
  outer loop
    vertex 3522.4638671875 -2135.348388671875 17550
    vertex 6391.3515625 12563.4541015625 17550
    vertex 4351.33154296875 -1930.89990234375 17550
  endloop
endfacet
facet normal -2.712577731878163e-11 -1.198714196480599e-12 -1
  outer loop
    vertex 4351.33154296875 -1930.89990234375 17550
    vertex 6391.3515625 12563.4541015625 17550
    vertex 5233.81591796875 -1649.676025390625 17550
  endloop
endfacet
facet normal -2.712577731878163e-11 -1.198714196480599e-12 -1
  outer loop
    vertex 5233.81591796875 -1649.676025390625 17550
    vertex 6391.3515625 12563.4541015625 17550
    vertex 5497.5322265625 -1545.842529296875 17550
  endloop
endfacet
facet normal -2.712577731878163e-11 -1.198714196480599e-12 -1
  outer loop
    vertex 5497.5322265625 -1545.842529296875 17550
    vertex 6391.3515625 12563.4541015625 17550
    vertex 6096.1494140625 -1310.147705078125 17550
  endloop
endfacet
facet normal -2.712577731878163e-11 -1.198714196480599e-12 -1
  outer loop
    vertex 6096.1494140625 -1310.147705078125 17550
    vertex 6391.3515625 12563.4541015625 17550
    vertex 6391.3515625 11813.4541015625 17550
  endloop
endfacet
facet normal -2.712577731878163e-11 -1.198714196480599e-12 -1
  outer loop
    vertex 6096.1494140625 -1310.147705078125 17550
    vertex 6391.3515625 11813.4541015625 17550
    vertex 6934.59375 -913.7866821289062 17550
  endloop
endfacet
facet normal -2.712577731878163e-11 -1.198714196480599e-12 -1
  outer loop
    vertex 6934.59375 -913.7866821289062 17550
    vertex 6391.3515625 11813.4541015625 17550
    vertex 8626.326171875 11813.4541015625 17550
  endloop
endfacet
facet normal -2.712577731878163e-11 -1.198714196480599e-12 -1
  outer loop
    vertex 6934.59375 -913.7866821289062 17550
    vertex 8626.326171875 11813.4541015625 17550
    vertex 7745.51513671875 -462.3107604980469 17550
  endloop
endfacet
facet normal -2.712577731878163e-11 -1.198714196480599e-12 -1
  outer loop
    vertex 7745.51513671875 -462.3107604980469 17550
    vertex 8626.326171875 11813.4541015625 17550
    vertex 8525.3994140625 42.32310485839844 17550
  endloop
endfacet
facet normal -2.712577731878163e-11 -1.198714196480599e-12 -1
  outer loop
    vertex 8525.3994140625 42.32310485839844 17550
    vertex 8626.326171875 11813.4541015625 17550
    vertex 8616.0595703125 100.9858779907227 17550
  endloop
endfacet
facet normal -2.712577731878163e-11 -1.198714196480599e-12 -1
  outer loop
    vertex 8616.0595703125 100.9858779907227 17550
    vertex 8626.326171875 11813.4541015625 17550
    vertex 8626.326171875 2705.11181640625 17550
  endloop
endfacet
facet normal -2.712577731878163e-11 -1.198714196480599e-12 -1
  outer loop
    vertex 8616.0595703125 100.9858779907227 17550
    vertex 8626.326171875 2705.11181640625 17550
    vertex 8626.326171875 100.9858779907227 17550
  endloop
endfacet
facet normal -2.712577731878163e-11 -1.198714196480599e-12 -1
  outer loop
    vertex 8626.326171875 11813.4541015625 17550
    vertex 8626.326171875 6729.6435546875 17550
    vertex 8626.326171875 2705.11181640625 17550
  endloop
endfacet
facet normal -2.712577731878163e-11 -1.198714196480599e-12 -1
  outer loop
    vertex 8626.326171875 6729.6435546875 17550
    vertex 8626.326171875 11813.4541015625 17550
    vertex 8626.326171875 9570.4560546875 17550
  endloop
endfacet
facet normal -2.712577731878163e-11 -1.198714196480599e-12 -1
  outer loop
    vertex 8626.326171875 5309.23779296875 17550
    vertex 8626.326171875 2705.11181640625 17550
    vertex 8626.326171875 6729.6435546875 17550
  endloop
endfacet
facet normal 0.2330268323421478 -0.9724702835083008 -5.188573529157914e-12
  outer loop
    vertex 4351.33154296875 -1930.89990234375 17550
    vertex 3522.4638671875 -2135.348388671875 17950
    vertex 3522.4638671875 -2135.348388671875 17550
  endloop
endfacet
facet normal 0.2330268323421478 -0.9724702835083008 -5.188573529157914e-12
  outer loop
    vertex 3522.4638671875 -2135.348388671875 17950
    vertex 4351.33154296875 -1930.89990234375 17550
    vertex 4351.33154296875 -1930.89990234375 17950
  endloop
endfacet
facet normal 0.2330268323421478 -0.9724702835083008 -5.188573529157914e-12
  outer loop
    vertex 3522.4638671875 -2135.348388671875 17950
    vertex 3452.52099609375 -2152.600341796875 17550
    vertex 3522.4638671875 -2135.348388671875 17550
  endloop
endfacet
facet normal 0.2330268323421478 -0.9724702835083008 -5.188573529157914e-12
  outer loop
    vertex 3452.52099609375 -2152.600341796875 17550
    vertex 3522.4638671875 -2135.348388671875 17950
    vertex 3452.52099609375 -2152.600341796875 17950
  endloop
endfacet
facet normal 0.1693889200687408 -0.98554927110672 -3.447114772445192e-12
  outer loop
    vertex 3452.52099609375 -2152.600341796875 17950
    vertex 2541.27978515625 -2313.816650390625 17550
    vertex 3452.52099609375 -2152.600341796875 17550
  endloop
endfacet
facet normal 0.1693889200687408 -0.98554927110672 -3.447114772445192e-12
  outer loop
    vertex 2541.27978515625 -2313.816650390625 17550
    vertex 3452.52099609375 -2152.600341796875 17950
    vertex 2541.27978515625 -2313.816650390625 17950
  endloop
endfacet
facet normal 0.1050770729780197 -0.994464099407196 -1.692224593959069e-12
  outer loop
    vertex 2541.27978515625 -2313.816650390625 17950
    vertex 1621.557983398438 -2413.849853515625 17550
    vertex 2541.27978515625 -2313.816650390625 17550
  endloop
endfacet
facet normal 0.1050770729780197 -0.994464099407196 -1.692224593959069e-12
  outer loop
    vertex 1621.557983398438 -2413.849853515625 17550
    vertex 2541.27978515625 -2313.816650390625 17950
    vertex 1621.557983398438 -2413.849853515625 17950
  endloop
endfacet
facet normal 0.04034808278083801 -0.9991856813430786 6.909790529465928e-14
  outer loop
    vertex 1621.557983398438 -2413.849853515625 17550
    vertex 737.3416137695312 -2450.60400390625 17950
    vertex 737.3416137695312 -2450.60400390625 17550
  endloop
endfacet
facet normal 0.04034808278083801 -0.9991856813430786 6.909790529465928e-14
  outer loop
    vertex 737.3416137695312 -2450.60400390625 17950
    vertex 1621.557983398438 -2413.849853515625 17550
    vertex 1621.557983398438 -2413.849853515625 17950
  endloop
endfacet
facet normal 0.0009059278527274728 -0.9999995827674866 1.139944909300805e-12
  outer loop
    vertex 737.3416137695312 -2450.60400390625 17950
    vertex 656.2822265625 -2450.679443359375 17550
    vertex 737.3416137695312 -2450.60400390625 17550
  endloop
endfacet
facet normal 0.0009059278527274728 -0.9999995827674866 1.139944909300805e-12
  outer loop
    vertex 656.2822265625 -2450.679443359375 17550
    vertex 737.3416137695312 -2450.60400390625 17950
    vertex 656.2822265625 -2450.679443359375 17950
  endloop
endfacet
facet normal -0.0254928320646286 -0.9996749758720398 1.855653868412799e-12
  outer loop
    vertex 656.2822265625 -2450.679443359375 17950
    vertex 575.2499389648438 -2448.552490234375 17550
    vertex 656.2822265625 -2450.679443359375 17550
  endloop
endfacet
facet normal -0.0254928320646286 -0.9996749758720398 1.855653868412799e-12
  outer loop
    vertex 575.2499389648438 -2448.552490234375 17550
    vertex 656.2822265625 -2450.679443359375 17950
    vertex 575.2499389648438 -2448.552490234375 17950
  endloop
endfacet
facet normal -0.05187486484646797 -0.9986535906791687 2.570097563589502e-12
  outer loop
    vertex 575.2499389648438 -2448.552490234375 17950
    vertex 494.3029174804688 -2444.22412109375 17550
    vertex 575.2499389648438 -2448.552490234375 17550
  endloop
endfacet
facet normal -0.05187486484646797 -0.9986535906791687 2.570097563589502e-12
  outer loop
    vertex 494.3029174804688 -2444.22412109375 17550
    vertex 575.2499389648438 -2448.552490234375 17950
    vertex 494.3029174804688 -2444.22412109375 17950
  endloop
endfacet
facet normal -0.0782228484749794 -0.9969359040260315 3.282806752130663e-12
  outer loop
    vertex 494.3029174804688 -2444.22412109375 17950
    vertex 413.4991455078125 -2437.697998046875 17550
    vertex 494.3029174804688 -2444.22412109375 17550
  endloop
endfacet
facet normal -0.0782228484749794 -0.9969359040260315 3.282806752130663e-12
  outer loop
    vertex 413.4991455078125 -2437.697998046875 17550
    vertex 494.3029174804688 -2444.22412109375 17950
    vertex 413.4991455078125 -2437.697998046875 17950
  endloop
endfacet
facet normal -0.1045194789767265 -0.9945228099822998 3.993313058697767e-12
  outer loop
    vertex 413.4991455078125 -2437.697998046875 17950
    vertex 332.8966369628906 -2428.978271484375 17550
    vertex 413.4991455078125 -2437.697998046875 17550
  endloop
endfacet
facet normal -0.1045194789767265 -0.9945228099822998 3.993313058697767e-12
  outer loop
    vertex 332.8966369628906 -2428.978271484375 17550
    vertex 413.4991455078125 -2437.697998046875 17950
    vertex 332.8966369628906 -2428.978271484375 17950
  endloop
endfacet
facet normal -0.1307474374771118 -0.9914156794548035 4.701148758473606e-12
  outer loop
    vertex 332.8966369628906 -2428.978271484375 17950
    vertex 252.5532379150391 -2418.071533203125 17550
    vertex 332.8966369628906 -2428.978271484375 17550
  endloop
endfacet
facet normal -0.1307474374771118 -0.9914156794548035 4.701148758473606e-12
  outer loop
    vertex 252.5532379150391 -2418.071533203125 17550
    vertex 332.8966369628906 -2428.978271484375 17950
    vertex 252.5532379150391 -2418.071533203125 17950
  endloop
endfacet
facet normal -0.1568894386291504 -0.9876161813735962 5.405846343481402e-12
  outer loop
    vertex 252.5532379150391 -2418.071533203125 17950
    vertex 172.5265808105469 -2404.9853515625 17550
    vertex 252.5532379150391 -2418.071533203125 17550
  endloop
endfacet
facet normal -0.1568894386291504 -0.9876161813735962 5.405846343481402e-12
  outer loop
    vertex 172.5265808105469 -2404.9853515625 17550
    vertex 252.5532379150391 -2418.071533203125 17950
    vertex 172.5265808105469 -2404.9853515625 17950
  endloop
endfacet
facet normal -0.1829281896352768 -0.9831262826919556 6.106939173106118e-12
  outer loop
    vertex 172.5265808105469 -2404.9853515625 17950
    vertex 92.87408447265625 -2389.7294921875 17550
    vertex 172.5265808105469 -2404.9853515625 17550
  endloop
endfacet
facet normal -0.1829281896352768 -0.9831262826919556 6.106939173106118e-12
  outer loop
    vertex 92.87408447265625 -2389.7294921875 17550
    vertex 172.5265808105469 -2404.9853515625 17950
    vertex 92.87408447265625 -2389.7294921875 17950
  endloop
endfacet
facet normal -0.2088464349508286 -0.9779484272003174 6.803961907775324e-12
  outer loop
    vertex 92.87408447265625 -2389.7294921875 17950
    vertex 13.65289115905762 -2372.314453125 17550
    vertex 92.87408447265625 -2389.7294921875 17550
  endloop
endfacet
facet normal -0.2088464349508286 -0.9779484272003174 6.803961907775324e-12
  outer loop
    vertex 13.65289115905762 -2372.314453125 17550
    vertex 92.87408447265625 -2389.7294921875 17950
    vertex 13.65289115905762 -2372.314453125 17950
  endloop
endfacet
facet normal -0.2346269190311432 -0.9720854759216309 7.496450508959196e-12
  outer loop
    vertex 13.65289115905762 -2372.314453125 17950
    vertex -65.08016204833984 -2352.753173828125 17550
    vertex 13.65289115905762 -2372.314453125 17550
  endloop
endfacet
facet normal -0.2346269190311432 -0.9720854759216309 7.496450508959196e-12
  outer loop
    vertex -65.08016204833984 -2352.753173828125 17550
    vertex 13.65289115905762 -2372.314453125 17950
    vertex -65.08016204833984 -2352.753173828125 17950
  endloop
endfacet
facet normal -0.2602524161338806 -0.9655405879020691 8.18394050444704e-12
  outer loop
    vertex -65.08016204833984 -2352.753173828125 17950
    vertex -143.2685852050781 -2331.059326171875 17550
    vertex -65.08016204833984 -2352.753173828125 17550
  endloop
endfacet
facet normal -0.2602524161338806 -0.9655405879020691 8.18394050444704e-12
  outer loop
    vertex -143.2685852050781 -2331.059326171875 17550
    vertex -65.08016204833984 -2352.753173828125 17950
    vertex -143.2685852050781 -2331.059326171875 17950
  endloop
endfacet
facet normal -0.2857057750225067 -0.9583173990249634 8.865970457794248e-12
  outer loop
    vertex -143.2685852050781 -2331.059326171875 17950
    vertex -220.8562927246094 -2307.24853515625 17550
    vertex -143.2685852050781 -2331.059326171875 17550
  endloop
endfacet
facet normal -0.2857057750225067 -0.9583173990249634 8.865970457794248e-12
  outer loop
    vertex -220.8562927246094 -2307.24853515625 17550
    vertex -143.2685852050781 -2331.059326171875 17950
    vertex -220.8562927246094 -2307.24853515625 17950
  endloop
endfacet
facet normal -0.2864140868186951 -0.9581059217453003 8.884937924280578e-12
  outer loop
    vertex -220.8562927246094 -2307.24853515625 17950
    vertex -283.1198120117188 -2288.089111328125 17550
    vertex -220.8562927246094 -2307.24853515625 17550
  endloop
endfacet
facet normal -0.2864140868186951 -0.9581059217453003 8.884937924280578e-12
  outer loop
    vertex -283.1198120117188 -2288.089111328125 17550
    vertex -220.8562927246094 -2307.24853515625 17950
    vertex -283.1198120117188 -2288.089111328125 17950
  endloop
endfacet
facet normal -0.3477656245231628 -0.937581479549408 1.052524473826866e-11
  outer loop
    vertex -283.1198120117188 -2288.089111328125 17950
    vertex -469.9288635253906 -2216.763671875 17550
    vertex -283.1198120117188 -2288.089111328125 17550
  endloop
endfacet
facet normal -0.3477656245231628 -0.937581479549408 1.052524473826866e-11
  outer loop
    vertex -469.9288635253906 -2216.763671875 17550
    vertex -283.1198120117188 -2288.089111328125 17950
    vertex -469.9288635253906 -2216.763671875 17950
  endloop
endfacet
facet normal -0.407734602689743 -0.9131004810333252 1.21234411398774e-11
  outer loop
    vertex -469.9288635253906 -2216.763671875 17950
    vertex -651.73974609375 -2133.1943359375 17550
    vertex -469.9288635253906 -2216.763671875 17550
  endloop
endfacet
facet normal -0.407734602689743 -0.9131004810333252 1.21234411398774e-11
  outer loop
    vertex -651.73974609375 -2133.1943359375 17550
    vertex -469.9288635253906 -2216.763671875 17950
    vertex -651.73974609375 -2133.1943359375 17950
  endloop
endfacet
facet normal -0.4660736620426178 -0.8847458958625793 1.367291436321638e-11
  outer loop
    vertex -651.73974609375 -2133.1943359375 17950
    vertex -827.7737426757812 -2037.738647460938 17550
    vertex -651.73974609375 -2133.1943359375 17550
  endloop
endfacet
facet normal -0.4660736620426178 -0.8847458958625793 1.367291436321638e-11
  outer loop
    vertex -827.7737426757812 -2037.738647460938 17550
    vertex -651.73974609375 -2133.1943359375 17950
    vertex -827.7737426757812 -2037.738647460938 17950
  endloop
endfacet
facet normal -0.5225381255149841 -0.8526158928871155 1.516714184801593e-11
  outer loop
    vertex -827.7737426757812 -2037.738647460938 17950
    vertex -997.2769775390625 -1930.8056640625 17550
    vertex -827.7737426757812 -2037.738647460938 17550
  endloop
endfacet
facet normal -0.5225381255149841 -0.8526158928871155 1.516714184801593e-11
  outer loop
    vertex -997.2769775390625 -1930.8056640625 17550
    vertex -827.7737426757812 -2037.738647460938 17950
    vertex -997.2769775390625 -1930.8056640625 17950
  endloop
endfacet
facet normal -0.576886773109436 -0.8168241381645203 1.659970945422362e-11
  outer loop
    vertex -997.2769775390625 -1930.8056640625 17950
    vertex -1088.29638671875 -1864.635131835938 17550
    vertex -997.2769775390625 -1930.8056640625 17550
  endloop
endfacet
facet normal -0.576886773109436 -0.8168241381645203 1.659970945422362e-11
  outer loop
    vertex -1088.29638671875 -1864.635131835938 17550
    vertex -997.2769775390625 -1930.8056640625 17950
    vertex -1088.29638671875 -1864.635131835938 17950
  endloop
endfacet
facet normal -0.576886773109436 -0.8168241381645203 1.659970945422362e-11
  outer loop
    vertex -1088.29638671875 -1864.635131835938 17550
    vertex -1159.523559570312 -1812.853393554688 17950
    vertex -1159.523559570312 -1812.853393554688 17550
  endloop
endfacet
facet normal -0.576886773109436 -0.8168241381645203 1.659970945422362e-11
  outer loop
    vertex -1159.523559570312 -1812.853393554688 17950
    vertex -1088.29638671875 -1864.635131835938 17550
    vertex -1088.29638671875 -1864.635131835938 17950
  endloop
endfacet
facet normal -0.6288826465606689 -0.7775002121925354 1.796434528911206e-11
  outer loop
    vertex -1159.523559570312 -1812.853393554688 17950
    vertex -1313.818603515625 -1684.386840820312 17550
    vertex -1159.523559570312 -1812.853393554688 17550
  endloop
endfacet
facet normal -0.6288826465606689 -0.7775002121925354 1.796434528911206e-11
  outer loop
    vertex -1313.818603515625 -1684.386840820312 17550
    vertex -1159.523559570312 -1812.853393554688 17950
    vertex -1313.818603515625 -1684.386840820312 17950
  endloop
endfacet
facet normal -0.6782945394515991 -0.7347900867462158 1.925494486076929e-11
  outer loop
    vertex -1313.818603515625 -1684.386840820312 17950
    vertex -1459.501342773438 -1545.956298828125 17550
    vertex -1313.818603515625 -1684.386840820312 17550
  endloop
endfacet
facet normal -0.6782945394515991 -0.7347900867462158 1.925494486076929e-11
  outer loop
    vertex -1459.501342773438 -1545.956298828125 17550
    vertex -1313.818603515625 -1684.386840820312 17950
    vertex -1459.501342773438 -1545.956298828125 17950
  endloop
endfacet
facet normal -0.7248979806900024 -0.6888562440872192 2.04656083746535e-11
  outer loop
    vertex -1459.501342773438 -1545.956298828125 17950
    vertex -1595.94775390625 -1398.154541015625 17550
    vertex -1459.501342773438 -1545.956298828125 17550
  endloop
endfacet
facet normal -0.7248979806900024 -0.6888562440872192 2.04656083746535e-11
  outer loop
    vertex -1595.94775390625 -1398.154541015625 17550
    vertex -1459.501342773438 -1545.956298828125 17950
    vertex -1595.94775390625 -1398.154541015625 17950
  endloop
endfacet
facet normal -0.7684767842292786 -0.6398776769638062 2.159067889750954e-11
  outer loop
    vertex -1595.94775390625 -1398.154541015625 17950
    vertex -1722.573608398438 -1241.614624023438 17550
    vertex -1595.94775390625 -1398.154541015625 17550
  endloop
endfacet
facet normal -0.7684767842292786 -0.6398776769638062 2.159067889750954e-11
  outer loop
    vertex -1722.573608398438 -1241.614624023438 17550
    vertex -1595.94775390625 -1398.154541015625 17950
    vertex -1722.573608398438 -1241.614624023438 17950
  endloop
endfacet
facet normal -0.8088244199752808 -0.5880501866340637 2.262478746017926e-11
  outer loop
    vertex -1722.573608398438 -1241.614624023438 17950
    vertex -1775.104614257812 -1167.239990234375 17550
    vertex -1722.573608398438 -1241.614624023438 17550
  endloop
endfacet
facet normal -0.8088244199752808 -0.5880501866340637 2.262478746017926e-11
  outer loop
    vertex -1775.104614257812 -1167.239990234375 17550
    vertex -1722.573608398438 -1241.614624023438 17950
    vertex -1775.104614257812 -1167.239990234375 17950
  endloop
endfacet
facet normal -0.8088244199752808 -0.5880501866340637 2.262478746017926e-11
  outer loop
    vertex -1775.104614257812 -1167.239990234375 17950
    vertex -1838.836547851562 -1077.006958007812 17550
    vertex -1775.104614257812 -1167.239990234375 17550
  endloop
endfacet
facet normal -0.8088244199752808 -0.5880501866340637 2.262478746017926e-11
  outer loop
    vertex -1838.836547851562 -1077.006958007812 17550
    vertex -1775.104614257812 -1167.239990234375 17950
    vertex -1838.836547851562 -1077.006958007812 17950
  endloop
endfacet
facet normal -0.8457459211349487 -0.533585786819458 2.356288775207105e-11
  outer loop
    vertex -1838.836547851562 -1077.006958007812 17950
    vertex -1944.238647460938 -905.0364990234375 17550
    vertex -1838.836547851562 -1077.006958007812 17550
  endloop
endfacet
facet normal -0.8457459211349487 -0.533585786819458 2.356288775207105e-11
  outer loop
    vertex -1944.238647460938 -905.0364990234375 17550
    vertex -1838.836547851562 -1077.006958007812 17950
    vertex -1944.238647460938 -905.0364990234375 17950
  endloop
endfacet
facet normal -0.8790593147277832 -0.4767123460769653 2.440030816286409e-11
  outer loop
    vertex -1944.238647460938 -905.0364990234375 17950
    vertex -2038.328491210938 -726.439697265625 17550
    vertex -1944.238647460938 -905.0364990234375 17550
  endloop
endfacet
facet normal -0.8790593147277832 -0.4767123460769653 2.440030816286409e-11
  outer loop
    vertex -2038.328491210938 -726.439697265625 17550
    vertex -1944.238647460938 -905.0364990234375 17950
    vertex -2038.328491210938 -726.439697265625 17950
  endloop
endfacet
facet normal -0.908597469329834 -0.4176728427410126 2.51328020894892e-11
  outer loop
    vertex -2038.328491210938 -726.439697265625 17950
    vertex -2120.703125 -541.9815063476562 17550
    vertex -2038.328491210938 -726.439697265625 17550
  endloop
endfacet
facet normal -0.908597469329834 -0.4176728427410126 2.51328020894892e-11
  outer loop
    vertex -2120.703125 -541.9815063476562 17550
    vertex -2038.328491210938 -726.439697265625 17950
    vertex -2120.703125 -541.9815063476562 17950
  endloop
endfacet
facet normal -0.9342096447944641 -0.3567244410514832 2.575657569170442e-11
  outer loop
    vertex -2120.703125 -541.9815063476562 17950
    vertex -2191.010009765625 -352.4518432617188 17550
    vertex -2120.703125 -541.9815063476562 17550
  endloop
endfacet
facet normal -0.9342096447944641 -0.3567244410514832 2.575657569170442e-11
  outer loop
    vertex -2191.010009765625 -352.4518432617188 17550
    vertex -2120.703125 -541.9815063476562 17950
    vertex -2191.010009765625 -352.4518432617188 17950
  endloop
endfacet
facet normal -0.9557632207870483 -0.294137179851532 2.626834860741667e-11
  outer loop
    vertex -2191.010009765625 -352.4518432617188 17950
    vertex -2210.5693359375 -287.0299072265625 17550
    vertex -2191.010009765625 -352.4518432617188 17550
  endloop
endfacet
facet normal -0.9557632207870483 -0.294137179851532 2.626834860741667e-11
  outer loop
    vertex -2210.5693359375 -287.0299072265625 17550
    vertex -2191.010009765625 -352.4518432617188 17950
    vertex -2210.5693359375 -287.0299072265625 17950
  endloop
endfacet
facet normal -0.9557632207870483 -0.294137179851532 2.626834860741667e-11
  outer loop
    vertex -2210.5693359375 -287.0299072265625 17950
    vertex -2248.947509765625 -158.6624145507812 17550
    vertex -2210.5693359375 -287.0299072265625 17550
  endloop
endfacet
facet normal -0.9557632207870483 -0.294137179851532 2.626834860741667e-11
  outer loop
    vertex -2248.947509765625 -158.6624145507812 17550
    vertex -2210.5693359375 -287.0299072265625 17950
    vertex -2248.947509765625 -158.6624145507812 17950
  endloop
endfacet
facet normal -0.9731451272964478 -0.2301925271749496 2.666538170825739e-11
  outer loop
    vertex -2248.947509765625 -158.6624145507812 17950
    vertex -2294.26806640625 38.55679702758789 17550
    vertex -2248.947509765625 -158.6624145507812 17550
  endloop
endfacet
facet normal -0.9731451272964478 -0.2301925271749496 2.666538170825739e-11
  outer loop
    vertex -2294.26806640625 38.55679702758789 17550
    vertex -2248.947509765625 -158.6624145507812 17950
    vertex -2294.26806640625 38.55679702758789 17950
  endloop
endfacet
facet normal -0.9862631559371948 -0.1651816666126251 2.694551179405202e-11
  outer loop
    vertex -2294.26806640625 38.55679702758789 17950
    vertex -2326.777099609375 238.3611907958984 17550
    vertex -2294.26806640625 38.55679702758789 17550
  endloop
endfacet
facet normal -0.9862631559371948 -0.1651816666126251 2.694551179405202e-11
  outer loop
    vertex -2326.777099609375 238.3611907958984 17550
    vertex -2294.26806640625 38.55679702758789 17950
    vertex -2326.777099609375 238.3611907958984 17950
  endloop
endfacet
facet normal -0.9950472116470337 -0.09940356016159058 2.710718628728959e-11
  outer loop
    vertex -2326.777099609375 238.3611907958984 17950
    vertex -2346.335693359375 439.8950805664062 17550
    vertex -2326.777099609375 238.3611907958984 17550
  endloop
endfacet
facet normal -0.9950472116470337 -0.09940356016159058 2.710718628728959e-11
  outer loop
    vertex -2346.335693359375 439.8950805664062 17550
    vertex -2326.777099609375 238.3611907958984 17950
    vertex -2346.335693359375 439.8950805664062 17950
  endloop
endfacet
facet normal -0.9994499683380127 -0.03316286951303482 2.714947537618695e-11
  outer loop
    vertex -2346.335693359375 439.8950805664062 17950
    vertex -2351.563232421875 602.0659790039062 17550
    vertex -2346.335693359375 439.8950805664062 17550
  endloop
endfacet
facet normal -0.9994499683380127 -0.03316286951303482 2.714947537618695e-11
  outer loop
    vertex -2351.563232421875 602.0659790039062 17550
    vertex -2346.335693359375 439.8950805664062 17950
    vertex -2351.563232421875 602.0659790039062 17950
  endloop
endfacet
facet normal -0.01937429420650005 0.9998123049736023 -6.387579809703781e-13
  outer loop
    vertex -2351.563232421875 602.0659790039062 17950
    vertex -2351.2900390625 602.0714111328125 17550
    vertex -2351.563232421875 602.0659790039062 17550
  endloop
endfacet
facet normal -0.01937429420650005 0.9998123049736023 -6.387579809703781e-13
  outer loop
    vertex -2351.2900390625 602.0714111328125 17550
    vertex -2351.563232421875 602.0659790039062 17950
    vertex -2351.2900390625 602.0714111328125 17950
  endloop
endfacet
facet normal -0.9998010993003845 -0.01994297467172146 2.714360680666772e-11
  outer loop
    vertex -2351.2900390625 602.0714111328125 17950
    vertex -2352.105712890625 644.1681518554688 17550
    vertex -2351.2900390625 602.0714111328125 17550
  endloop
endfacet
facet normal -0.9998010993003845 -0.01994297467172146 2.714360680666772e-11
  outer loop
    vertex -2352.105712890625 644.1681518554688 17550
    vertex -2351.2900390625 602.0714111328125 17950
    vertex -2352.105712890625 644.1681518554688 17950
  endloop
endfacet
facet normal 0.01937429420650005 -0.9998123049736023 6.387579809703781e-13
  outer loop
    vertex -2352.105712890625 644.1681518554688 17950
    vertex -2352.79150390625 644.1544799804688 17550
    vertex -2352.105712890625 644.1681518554688 17550
  endloop
endfacet
facet normal 0.01937429420650005 -0.9998123049736023 6.387579809703781e-13
  outer loop
    vertex -2352.79150390625 644.1544799804688 17550
    vertex -2352.105712890625 644.1681518554688 17950
    vertex -2352.79150390625 644.1544799804688 17950
  endloop
endfacet
facet normal -0.9992834329605103 0.03784952312707901 2.706226388815569e-11
  outer loop
    vertex -2352.79150390625 644.1544799804688 17950
    vertex -2351.283447265625 685.14208984375 17550
    vertex -2352.79150390625 644.1544799804688 17550
  endloop
endfacet
facet normal -0.9992834329605103 0.03784952312707901 2.706226388815569e-11
  outer loop
    vertex -2351.283447265625 685.14208984375 17550
    vertex -2352.79150390625 644.1544799804688 17950
    vertex -2351.283447265625 685.14208984375 17950
  endloop
endfacet
facet normal -0.9992834329605103 0.03784952312707901 2.706226388815569e-11
  outer loop
    vertex -2351.283447265625 685.14208984375 17950
    vertex -2282.433349609375 2556.26025390625 17550
    vertex -2351.283447265625 685.14208984375 17550
  endloop
endfacet
facet normal -0.9992834329605103 0.03784952312707901 2.706226388815569e-11
  outer loop
    vertex -2282.433349609375 2556.26025390625 17550
    vertex -2351.283447265625 685.14208984375 17950
    vertex -2282.433349609375 2556.26025390625 17950
  endloop
endfacet
facet normal -0.9992834329605103 0.03784952312707901 2.706226388815569e-11
  outer loop
    vertex -2282.433349609375 2556.26025390625 17950
    vertex -2278.53076171875 2662.31787109375 17550
    vertex -2282.433349609375 2556.26025390625 17550
  endloop
endfacet
facet normal -0.9992834329605103 0.03784952312707901 2.706226388815569e-11
  outer loop
    vertex -2278.53076171875 2662.31787109375 17550
    vertex -2282.433349609375 2556.26025390625 17950
    vertex -2278.53076171875 2662.31787109375 17950
  endloop
endfacet
facet normal -0.9944790005683899 0.1049357205629349 2.685381604583537e-11
  outer loop
    vertex -2278.53076171875 2662.31787109375 17950
    vertex -2074.832275390625 4649.46142578125 17550
    vertex -2278.53076171875 2662.31787109375 17550
  endloop
endfacet
facet normal -0.9944790005683899 0.1049357205629349 2.685381604583537e-11
  outer loop
    vertex -2074.832275390625 4649.46142578125 17550
    vertex -2278.53076171875 2662.31787109375 17950
    vertex -2074.832275390625 4649.46142578125 17950
  endloop
endfacet
facet normal -0.9944790005683899 0.1049357205629349 2.685381604583537e-11
  outer loop
    vertex -2074.832275390625 4649.46142578125 17950
    vertex -2072.42919921875 4672.9033203125 17550
    vertex -2074.832275390625 4649.46142578125 17550
  endloop
endfacet
facet normal -0.9944790005683899 0.1049357205629349 2.685381604583537e-11
  outer loop
    vertex -2072.42919921875 4672.9033203125 17550
    vertex -2074.832275390625 4649.46142578125 17950
    vertex -2072.42919921875 4672.9033203125 17950
  endloop
endfacet
facet normal -0.9851804971694946 0.1715207099914551 2.652404858249913e-11
  outer loop
    vertex -2072.42919921875 4672.9033203125 17950
    vertex -1735.461303710938 6665.21240234375 17550
    vertex -2072.42919921875 4672.9033203125 17550
  endloop
endfacet
facet normal -0.9851804971694946 0.1715207099914551 2.652404858249913e-11
  outer loop
    vertex -1735.461303710938 6665.21240234375 17550
    vertex -2072.42919921875 4672.9033203125 17950
    vertex -1735.461303710938 6665.21240234375 17950
  endloop
endfacet
facet normal -0.9714393019676208 0.2372881472110748 2.607472050775161e-11
  outer loop
    vertex -1735.461303710938 6665.21240234375 17950
    vertex -1396.284423828125 8094.55029296875 17550
    vertex -1735.461303710938 6665.21240234375 17550
  endloop
endfacet
facet normal -0.9714393019676208 0.2372881472110748 2.607472050775161e-11
  outer loop
    vertex -1396.284423828125 8094.55029296875 17550
    vertex -1735.461303710938 6665.21240234375 17950
    vertex -1396.284423828125 8094.55029296875 17950
  endloop
endfacet
facet normal -0.9714393019676208 0.2372881472110748 2.607472050775161e-11
  outer loop
    vertex -1396.284423828125 8094.55029296875 17950
    vertex -1269.108276367188 8630.4873046875 17550
    vertex -1396.284423828125 8094.55029296875 17550
  endloop
endfacet
facet normal -0.9714393019676208 0.2372881472110748 2.607472050775161e-11
  outer loop
    vertex -1269.108276367188 8630.4873046875 17550
    vertex -1396.284423828125 8094.55029296875 17950
    vertex -1269.108276367188 8630.4873046875 17950
  endloop
endfacet
facet normal -0.9533307552337646 0.3019278347492218 2.550823788305401e-11
  outer loop
    vertex -1269.108276367188 8630.4873046875 17950
    vertex -813.14013671875 10112.47265625 17550
    vertex -1269.108276367188 8630.4873046875 17550
  endloop
endfacet
facet normal -0.9533307552337646 0.3019278347492218 2.550823788305401e-11
  outer loop
    vertex -813.14013671875 10112.47265625 17550
    vertex -1269.108276367188 8630.4873046875 17950
    vertex -813.14013671875 10112.47265625 17950
  endloop
endfacet
facet normal -0.9533307552337646 0.3019278347492218 2.550823788305401e-11
  outer loop
    vertex -813.14013671875 10112.47265625 17950
    vertex -675.4202270507812 10560.08984375 17550
    vertex -813.14013671875 10112.47265625 17550
  endloop
endfacet
facet normal -0.9533307552337646 0.3019278347492218 2.550823788305401e-11
  outer loop
    vertex -675.4202270507812 10560.08984375 17550
    vertex -813.14013671875 10112.47265625 17950
    vertex -675.4202270507812 10560.08984375 17950
  endloop
endfacet
facet normal -0.9309533834457397 0.3651380836963654 2.482762433142494e-11
  outer loop
    vertex -675.4202270507812 10560.08984375 17950
    vertex 42.9929084777832 12445.53515625 17550
    vertex -675.4202270507812 10560.08984375 17550
  endloop
endfacet
facet normal -0.9309533834457397 0.3651380836963654 2.482762433142494e-11
  outer loop
    vertex 42.9929084777832 12445.53515625 17550
    vertex -675.4202270507812 10560.08984375 17950
    vertex 42.9929084777832 12445.53515625 17950
  endloop
endfacet
facet normal -0.9309533834457397 0.3651380836963654 2.482762433142494e-11
  outer loop
    vertex 42.9929084777832 12445.53515625 17950
    vertex 87.92373657226562 12563.4541015625 17550
    vertex 42.9929084777832 12445.53515625 17550
  endloop
endfacet
facet normal -0.9309533834457397 0.3651380836963654 2.482762433142494e-11
  outer loop
    vertex 87.92373657226562 12563.4541015625 17550
    vertex 42.9929084777832 12445.53515625 17950
    vertex 87.92373657226562 12563.4541015625 17950
  endloop
endfacet
facet normal -7.738273563595577e-12 1 -1.164519327322144e-12
  outer loop
    vertex 87.92373657226562 12563.4541015625 17950
    vertex 147.1400299072266 12563.4541015625 17550
    vertex 87.92373657226562 12563.4541015625 17550
  endloop
endfacet
facet normal -7.738273563595577e-12 1 -1.164519327322144e-12
  outer loop
    vertex 147.1400299072266 12563.4541015625 17550
    vertex 87.92373657226562 12563.4541015625 17950
    vertex 147.1400299072266 12563.4541015625 17950
  endloop
endfacet
facet normal 0 1 -1.164519327322144e-12
  outer loop
    vertex 147.1400299072266 12563.4541015625 17950
    vertex 997.1400146484375 12563.4541015625 17550
    vertex 147.1400299072266 12563.4541015625 17550
  endloop
endfacet
facet normal 0 1 -1.164519327322144e-12
  outer loop
    vertex 997.1400146484375 12563.4541015625 17550
    vertex 147.1400299072266 12563.4541015625 17950
    vertex 997.1400146484375 12563.4541015625 17950
  endloop
endfacet
facet normal 0 1 -1.164519327322144e-12
  outer loop
    vertex 997.1400146484375 12563.4541015625 17950
    vertex 6391.3515625 12563.4541015625 17550
    vertex 997.1400146484375 12563.4541015625 17550
  endloop
endfacet
facet normal 0 1 -1.164519327322144e-12
  outer loop
    vertex 6391.3515625 12563.4541015625 17550
    vertex 997.1400146484375 12563.4541015625 17950
    vertex 6391.3515625 12563.4541015625 17950
  endloop
endfacet
facet normal 7.186556037763747e-13 1 -1.164519327322144e-12
  outer loop
    vertex 6391.3515625 12563.4541015625 17550
    vertex 6397.14013671875 12563.4541015625 17950
    vertex 6397.14013671875 12563.4541015625 17550
  endloop
endfacet
facet normal 7.186556037763747e-13 1 -1.164519327322144e-12
  outer loop
    vertex 6397.14013671875 12563.4541015625 17950
    vertex 6391.3515625 12563.4541015625 17550
    vertex 6391.3515625 12563.4541015625 17950
  endloop
endfacet
facet normal 1 3.662168970310596e-15 -2.712577731878163e-11
  outer loop
    vertex 6391.3515625 12563.4541015625 17550
    vertex 6391.3515625 11813.4541015625 17950
    vertex 6391.3515625 11813.4541015625 17550
  endloop
endfacet
facet normal 1 3.662168970310596e-15 -2.712577731878163e-11
  outer loop
    vertex 6391.3515625 11813.4541015625 17950
    vertex 6391.3515625 12563.4541015625 17550
    vertex 6391.3515625 12563.4541015625 17950
  endloop
endfacet
facet normal -8.603088944361681e-13 1 -1.164519327322144e-12
  outer loop
    vertex 6391.3515625 11813.4541015625 17550
    vertex 8626.326171875 11813.4541015625 17950
    vertex 8626.326171875 11813.4541015625 17550
  endloop
endfacet
facet normal -8.603088944361681e-13 1 -1.164519327322144e-12
  outer loop
    vertex 8626.326171875 11813.4541015625 17950
    vertex 6391.3515625 11813.4541015625 17550
    vertex 6391.3515625 11813.4541015625 17950
  endloop
endfacet
facet normal 1 -1.009823599523382e-13 -2.712577731878163e-11
  outer loop
    vertex 8626.326171875 11813.4541015625 17550
    vertex 8626.326171875 9570.4560546875 17950
    vertex 8626.326171875 9570.4560546875 17550
  endloop
endfacet
facet normal 1 -1.009823599523382e-13 -2.712577731878163e-11
  outer loop
    vertex 8626.326171875 9570.4560546875 17950
    vertex 8626.326171875 11813.4541015625 17550
    vertex 8626.326171875 11813.4541015625 17950
  endloop
endfacet
facet normal 1 -2.920318284069245e-12 -2.712577731878163e-11
  outer loop
    vertex 8626.326171875 9570.4560546875 17550
    vertex 8626.326171875 6729.6435546875 17950
    vertex 8626.326171875 6729.6435546875 17550
  endloop
endfacet
facet normal 1 -2.920318284069245e-12 -2.712577731878163e-11
  outer loop
    vertex 8626.326171875 6729.6435546875 17950
    vertex 8626.326171875 9570.4560546875 17550
    vertex 8626.326171875 9570.4560546875 17950
  endloop
endfacet
facet normal 1 1.556437869902618e-23 -2.712577731878163e-11
  outer loop
    vertex 8626.326171875 6729.6435546875 17550
    vertex 8626.326171875 5309.23779296875 17950
    vertex 8626.326171875 5309.23779296875 17550
  endloop
endfacet
facet normal 1 1.556437869902618e-23 -2.712577731878163e-11
  outer loop
    vertex 8626.326171875 5309.23779296875 17950
    vertex 8626.326171875 6729.6435546875 17550
    vertex 8626.326171875 6729.6435546875 17950
  endloop
endfacet
facet normal 1 -8.45802703049181e-13 -2.712577731878163e-11
  outer loop
    vertex 8626.326171875 5309.23779296875 17550
    vertex 8626.326171875 2705.11181640625 17950
    vertex 8626.326171875 2705.11181640625 17550
  endloop
endfacet
facet normal 1 -8.45802703049181e-13 -2.712577731878163e-11
  outer loop
    vertex 8626.326171875 2705.11181640625 17950
    vertex 8626.326171875 5309.23779296875 17550
    vertex 8626.326171875 5309.23779296875 17950
  endloop
endfacet
facet normal 1 1.368008787847041e-12 -2.712577731878163e-11
  outer loop
    vertex 8626.326171875 2705.11181640625 17550
    vertex 8626.326171875 100.9858779907227 17950
    vertex 8626.326171875 100.9858779907227 17550
  endloop
endfacet
facet normal 1 1.368008787847041e-12 -2.712577731878163e-11
  outer loop
    vertex 8626.326171875 100.9858779907227 17950
    vertex 8626.326171875 2705.11181640625 17550
    vertex 8626.326171875 2705.11181640625 17950
  endloop
endfacet
facet normal -8.038130379274433e-23 -1 1.164519327322144e-12
  outer loop
    vertex 8626.326171875 100.9858779907227 17550
    vertex 8616.0595703125 100.9858779907227 17950
    vertex 8616.0595703125 100.9858779907227 17550
  endloop
endfacet
facet normal -8.038130379274433e-23 -1 1.164519327322144e-12
  outer loop
    vertex 8616.0595703125 100.9858779907227 17950
    vertex 8626.326171875 100.9858779907227 17550
    vertex 8626.326171875 100.9858779907227 17950
  endloop
endfacet
facet normal 0.5321916937828064 -0.8466238975524902 -1.345020449183831e-11
  outer loop
    vertex 8616.0595703125 100.9858779907227 17550
    vertex 8525.3994140625 42.32310485839844 17950
    vertex 8525.3994140625 42.32310485839844 17550
  endloop
endfacet
facet normal 0.5321916937828064 -0.8466238975524902 -1.345020449183831e-11
  outer loop
    vertex 8525.3994140625 42.32310485839844 17950
    vertex 8616.0595703125 100.9858779907227 17550
    vertex 8616.0595703125 100.9858779907227 17950
  endloop
endfacet
facet normal 0.5321916937828064 -0.8466238975524902 -1.345020449183831e-11
  outer loop
    vertex 8525.3994140625 42.32310485839844 17950
    vertex 7745.51513671875 -462.3107604980469 17550
    vertex 8525.3994140625 42.32310485839844 17550
  endloop
endfacet
facet normal 0.5321916937828064 -0.8466238975524902 -1.345020449183831e-11
  outer loop
    vertex 7745.51513671875 -462.3107604980469 17550
    vertex 8525.3994140625 42.32310485839844 17950
    vertex 7745.51513671875 -462.3107604980469 17950
  endloop
endfacet
facet normal 0.475736141204834 -0.8795880675315857 -1.188041505451043e-11
  outer loop
    vertex 7745.51513671875 -462.3107604980469 17950
    vertex 6934.59375 -913.7866821289062 17550
    vertex 7745.51513671875 -462.3107604980469 17550
  endloop
endfacet
facet normal 0.475736141204834 -0.8795880675315857 -1.188041505451043e-11
  outer loop
    vertex 6934.59375 -913.7866821289062 17550
    vertex 7745.51513671875 -462.3107604980469 17950
    vertex 6934.59375 -913.7866821289062 17950
  endloop
endfacet
facet normal 0.4173418879508972 -0.908749520778656 -1.026246709140421e-11
  outer loop
    vertex 6934.59375 -913.7866821289062 17950
    vertex 6096.1494140625 -1310.147705078125 17550
    vertex 6934.59375 -913.7866821289062 17550
  endloop
endfacet
facet normal 0.4173418879508972 -0.908749520778656 -1.026246709140421e-11
  outer loop
    vertex 6096.1494140625 -1310.147705078125 17550
    vertex 6934.59375 -913.7866821289062 17950
    vertex 6096.1494140625 -1310.147705078125 17950
  endloop
endfacet
facet normal 0.3572576344013214 -0.9340058565139771 -8.603223168590635e-12
  outer loop
    vertex 6096.1494140625 -1310.147705078125 17950
    vertex 5497.5322265625 -1545.842529296875 17550
    vertex 6096.1494140625 -1310.147705078125 17550
  endloop
endfacet
facet normal 0.3572576344013214 -0.9340058565139771 -8.603223168590635e-12
  outer loop
    vertex 5497.5322265625 -1545.842529296875 17550
    vertex 6096.1494140625 -1310.147705078125 17950
    vertex 5497.5322265625 -1545.842529296875 17950
  endloop
endfacet
facet normal 0.3572576344013214 -0.9340058565139771 -8.603223168590635e-12
  outer loop
    vertex 5497.5322265625 -1545.842529296875 17550
    vertex 5233.81591796875 -1649.676025390625 17950
    vertex 5233.81591796875 -1649.676025390625 17550
  endloop
endfacet
facet normal 0.3572576344013214 -0.9340058565139771 -8.603223168590635e-12
  outer loop
    vertex 5233.81591796875 -1649.676025390625 17950
    vertex 5497.5322265625 -1545.842529296875 17550
    vertex 5497.5322265625 -1545.842529296875 17950
  endloop
endfacet
facet normal 0.2957347631454468 -0.9552701115608215 -6.909604832738836e-12
  outer loop
    vertex 5233.81591796875 -1649.676025390625 17950
    vertex 4351.33154296875 -1930.89990234375 17550
    vertex 5233.81591796875 -1649.676025390625 17550
  endloop
endfacet
facet normal 0.2957347631454468 -0.9552701115608215 -6.909604832738836e-12
  outer loop
    vertex 4351.33154296875 -1930.89990234375 17550
    vertex 5233.81591796875 -1649.676025390625 17950
    vertex 4351.33154296875 -1930.89990234375 17950
  endloop
endfacet
endsolid com.sketchup.SketchUp.2019
