solid com.sketchup.SketchUp.2019
facet normal -5.503380862137419e-07 -8.493403242937347e-07 -1
  outer loop
    vertex 24382.078125 8563.4541015625 17550
    vertex 12282.0791015625 723.1549072265625 17550.013671875
    vertex 12282.0791015625 8563.4541015625 17550
  endloop
endfacet
facet normal -5.503380862137419e-07 -8.493403242937347e-07 -1
  outer loop
    vertex 12282.0791015625 723.1549072265625 17550.013671875
    vertex 24382.078125 8563.4541015625 17550
    vertex 24382.078125 723.1549072265625 17550
  endloop
endfacet
facet normal 5.503380862137419e-07 8.493403242937347e-07 1
  outer loop
    vertex 24382.078125 723.1552734375 17950
    vertex 12282.0791015625 8563.4541015625 17950
    vertex 12282.0791015625 723.1552734375 17950.013671875
  endloop
endfacet
facet normal 5.503380862137419e-07 8.493403242937347e-07 1
  outer loop
    vertex 12282.0791015625 8563.4541015625 17950
    vertex 24382.078125 723.1552734375 17950
    vertex 24382.078125 8563.4541015625 17950
  endloop
endfacet
facet normal 1 5.681765074874144e-19 -5.503380862137419e-07
  outer loop
    vertex 24382.078125 8563.4541015625 17550
    vertex 24382.078125 723.1552734375 17950
    vertex 24382.078125 723.1549072265625 17550
  endloop
endfacet
facet normal 1 5.681765074874144e-19 -5.503380862137419e-07
  outer loop
    vertex 24382.078125 723.1552734375 17950
    vertex 24382.078125 8563.4541015625 17550
    vertex 24382.078125 8563.4541015625 17950
  endloop
endfacet
facet normal 0 1 -8.493403242937347e-07
  outer loop
    vertex 12282.0791015625 8563.4541015625 17950
    vertex 24382.078125 8563.4541015625 17550
    vertex 12282.0791015625 8563.4541015625 17550
  endloop
endfacet
facet normal 0 1 -8.493403242937347e-07
  outer loop
    vertex 24382.078125 8563.4541015625 17550
    vertex 12282.0791015625 8563.4541015625 17950
    vertex 24382.078125 8563.4541015625 17950
  endloop
endfacet
facet normal -1 9.348492032573708e-13 5.503380862137419e-07
  outer loop
    vertex 12282.0791015625 723.1552734375 17950.013671875
    vertex 12282.0791015625 8563.4541015625 17550
    vertex 12282.0791015625 723.1549072265625 17550.013671875
  endloop
endfacet
facet normal -1 9.348492032573708e-13 5.503380862137419e-07
  outer loop
    vertex 12282.0791015625 8563.4541015625 17550
    vertex 12282.0791015625 723.1552734375 17950.013671875
    vertex 12282.0791015625 8563.4541015625 17950
  endloop
endfacet
facet normal 9.349082922757712e-13 -1 8.493403242937347e-07
  outer loop
    vertex 24382.078125 723.1552734375 17950
    vertex 12282.0791015625 723.1549072265625 17550.013671875
    vertex 24382.078125 723.1549072265625 17550
  endloop
endfacet
facet normal 9.349082922757712e-13 -1 8.493403242937347e-07
  outer loop
    vertex 12282.0791015625 723.1549072265625 17550.013671875
    vertex 24382.078125 723.1552734375 17950
    vertex 12282.0791015625 723.1552734375 17950.013671875
  endloop
endfacet
endsolid com.sketchup.SketchUp.2019
