solid com.sketchup.SketchUp.2019
facet normal 1.422350735455491e-13 2.172151347679119e-13 -1
  outer loop
    vertex 33482.078125 17473.646484375 17550
    vertex 24982.078125 11813.4541015625 17550
    vertex 24982.078125 17473.646484375 17550
  endloop
endfacet
facet normal 1.422350735455491e-13 2.172151347679119e-13 -1
  outer loop
    vertex 24982.078125 11813.4541015625 17550
    vertex 33482.078125 17473.646484375 17550
    vertex 33482.078125 11813.4541015625 17550
  endloop
endfacet
facet normal -1.422350735455491e-13 -2.172151347679119e-13 1
  outer loop
    vertex 33482.078125 11813.4541015625 17950
    vertex 24982.078125 17473.646484375 17950
    vertex 24982.078125 11813.4541015625 17950
  endloop
endfacet
facet normal -1.422350735455491e-13 -2.172151347679119e-13 1
  outer loop
    vertex 24982.078125 17473.646484375 17950
    vertex 33482.078125 11813.4541015625 17950
    vertex 33482.078125 17473.646484375 17950
  endloop
endfacet
facet normal -1 6.164348316754723e-26 -1.422350735455491e-13
  outer loop
    vertex 24982.078125 17473.646484375 17950
    vertex 24982.078125 11813.4541015625 17550
    vertex 24982.078125 11813.4541015625 17950
  endloop
endfacet
facet normal -1 6.164348316754723e-26 -1.422350735455491e-13
  outer loop
    vertex 24982.078125 11813.4541015625 17550
    vertex 24982.078125 17473.646484375 17950
    vertex 24982.078125 17473.646484375 17550
  endloop
endfacet
facet normal 6.179122202395315e-26 -1 -2.172151347679119e-13
  outer loop
    vertex 33482.078125 11813.4541015625 17550
    vertex 24982.078125 11813.4541015625 17950
    vertex 24982.078125 11813.4541015625 17550
  endloop
endfacet
facet normal 6.179122202395315e-26 -1 -2.172151347679119e-13
  outer loop
    vertex 24982.078125 11813.4541015625 17950
    vertex 33482.078125 11813.4541015625 17550
    vertex 33482.078125 11813.4541015625 17950
  endloop
endfacet
facet normal 1 -1.477375323290859e-28 1.422350735455491e-13
  outer loop
    vertex 33482.078125 11813.4541015625 17550
    vertex 33482.078125 17473.646484375 17950
    vertex 33482.078125 11813.4541015625 17950
  endloop
endfacet
facet normal 1 -1.477375323290859e-28 1.422350735455491e-13
  outer loop
    vertex 33482.078125 17473.646484375 17950
    vertex 33482.078125 11813.4541015625 17550
    vertex 33482.078125 17473.646484375 17550
  endloop
endfacet
facet normal 0 1 2.172151347679119e-13
  outer loop
    vertex 24982.078125 17473.646484375 17950
    vertex 33482.078125 17473.646484375 17550
    vertex 24982.078125 17473.646484375 17550
  endloop
endfacet
facet normal 0 1 2.172151347679119e-13
  outer loop
    vertex 33482.078125 17473.646484375 17550
    vertex 24982.078125 17473.646484375 17950
    vertex 33482.078125 17473.646484375 17950
  endloop
endfacet
endsolid com.sketchup.SketchUp.2019
