solid com.sketchup.SketchUp.2019
facet normal 6.08665000996142e-14 1.018041309889736e-13 -1
  outer loop
    vertex 37482.078125 8563.4541015625 17550
    vertex 24382.078125 724.1549072265625 17550
    vertex 24382.078125 8563.4541015625 17550
  endloop
endfacet
facet normal 6.08665000996142e-14 1.018041309889736e-13 -1
  outer loop
    vertex 24382.078125 724.1549072265625 17550
    vertex 37482.078125 8563.4541015625 17550
    vertex 37482.078125 724.1549072265625 17550
  endloop
endfacet
facet normal -6.08665000996142e-14 -1.018041309889736e-13 1
  outer loop
    vertex 37482.078125 724.1549072265625 17950
    vertex 24382.078125 8563.4541015625 17950
    vertex 24382.078125 724.1549072265625 17950
  endloop
endfacet
facet normal -6.08665000996142e-14 -1.018041309889736e-13 1
  outer loop
    vertex 24382.078125 8563.4541015625 17950
    vertex 37482.078125 724.1549072265625 17950
    vertex 37482.078125 8563.4541015625 17950
  endloop
endfacet
facet normal -1 5.605121185850778e-30 -6.08665000996142e-14
  outer loop
    vertex 24382.078125 8563.4541015625 17950
    vertex 24382.078125 724.1549072265625 17550
    vertex 24382.078125 724.1549072265625 17950
  endloop
endfacet
facet normal -1 5.605121185850778e-30 -6.08665000996142e-14
  outer loop
    vertex 24382.078125 724.1549072265625 17550
    vertex 24382.078125 8563.4541015625 17950
    vertex 24382.078125 8563.4541015625 17550
  endloop
endfacet
facet normal -1.239292316159245e-26 1 1.018041309889736e-13
  outer loop
    vertex 24382.078125 8563.4541015625 17950
    vertex 37482.078125 8563.4541015625 17550
    vertex 24382.078125 8563.4541015625 17550
  endloop
endfacet
facet normal -1.239292316159245e-26 1 1.018041309889736e-13
  outer loop
    vertex 37482.078125 8563.4541015625 17550
    vertex 24382.078125 8563.4541015625 17950
    vertex 37482.078125 8563.4541015625 17950
  endloop
endfacet
facet normal 1 -1.238731793508231e-26 6.08665000996142e-14
  outer loop
    vertex 37482.078125 724.1549072265625 17550
    vertex 37482.078125 8563.4541015625 17950
    vertex 37482.078125 724.1549072265625 17950
  endloop
endfacet
facet normal 1 -1.238731793508231e-26 6.08665000996142e-14
  outer loop
    vertex 37482.078125 8563.4541015625 17950
    vertex 37482.078125 724.1549072265625 17550
    vertex 37482.078125 8563.4541015625 17550
  endloop
endfacet
facet normal -0 -1 -1.018041309889736e-13
  outer loop
    vertex 37482.078125 724.1549072265625 17950
    vertex 24382.078125 724.1549072265625 17550
    vertex 37482.078125 724.1549072265625 17550
  endloop
endfacet
facet normal -0 -1 -1.018041309889736e-13
  outer loop
    vertex 24382.078125 724.1549072265625 17550
    vertex 37482.078125 724.1549072265625 17950
    vertex 24382.078125 724.1549072265625 17950
  endloop
endfacet
endsolid com.sketchup.SketchUp.2019
