solid com.sketchup.SketchUp.2019
facet normal -0 -0 -1
  outer loop
    vertex 36482.078125 17473.599609375 17550
    vertex 33432.75390625 13514.599609375 17550
    vertex 33432.75390625 17473.599609375 17550
  endloop
endfacet
facet normal -0 -0 -1
  outer loop
    vertex 33432.75390625 13514.599609375 17550
    vertex 36482.078125 17473.599609375 17550
    vertex 36482.078125 13514.599609375 17550
  endloop
endfacet
facet normal 0 0 1
  outer loop
    vertex 36482.078125 13514.599609375 17950
    vertex 33432.75390625 17473.599609375 17950
    vertex 33432.75390625 13514.599609375 17950
  endloop
endfacet
facet normal 0 0 1
  outer loop
    vertex 33432.75390625 17473.599609375 17950
    vertex 36482.078125 13514.599609375 17950
    vertex 36482.078125 17473.599609375 17950
  endloop
endfacet
facet normal -1 0 0
  outer loop
    vertex 33432.75390625 17473.599609375 17950
    vertex 33432.75390625 13514.599609375 17550
    vertex 33432.75390625 13514.599609375 17950
  endloop
endfacet
facet normal -1 0 0
  outer loop
    vertex 33432.75390625 13514.599609375 17550
    vertex 33432.75390625 17473.599609375 17950
    vertex 33432.75390625 17473.599609375 17550
  endloop
endfacet
facet normal 0 -1 0
  outer loop
    vertex 36482.078125 13514.599609375 17950
    vertex 33432.75390625 13514.599609375 17550
    vertex 36482.078125 13514.599609375 17550
  endloop
endfacet
facet normal 0 -1 0
  outer loop
    vertex 33432.75390625 13514.599609375 17550
    vertex 36482.078125 13514.599609375 17950
    vertex 33432.75390625 13514.599609375 17950
  endloop
endfacet
facet normal 1 0 0
  outer loop
    vertex 36482.078125 17473.599609375 17550
    vertex 36482.078125 13514.599609375 17950
    vertex 36482.078125 13514.599609375 17550
  endloop
endfacet
facet normal 1 0 0
  outer loop
    vertex 36482.078125 13514.599609375 17950
    vertex 36482.078125 17473.599609375 17550
    vertex 36482.078125 17473.599609375 17950
  endloop
endfacet
facet normal 0 1 0
  outer loop
    vertex 33432.75390625 17473.599609375 17950
    vertex 36482.078125 17473.599609375 17550
    vertex 33432.75390625 17473.599609375 17550
  endloop
endfacet
facet normal 0 1 0
  outer loop
    vertex 36482.078125 17473.599609375 17550
    vertex 33432.75390625 17473.599609375 17950
    vertex 36482.078125 17473.599609375 17950
  endloop
endfacet
endsolid com.sketchup.SketchUp.2019
