solid com.sketchup.SketchUp.2019
facet normal 1.090328169084387e-06 -8.493676659782068e-07 -1
  outer loop
    vertex 18407.412109375 8563.4072265625 21049.986328125
    vertex 12300 723.3580932617188 21049.986328125
    vertex 12300 8563.4072265625 21049.986328125
  endloop
endfacet
facet normal 1.090328169084387e-06 -8.493676659782068e-07 -1
  outer loop
    vertex 12300 723.3580932617188 21049.986328125
    vertex 18407.412109375 8563.4072265625 21049.986328125
    vertex 18407.412109375 723.3580932617188 21050
  endloop
endfacet
facet normal -1.090328169084387e-06 8.493676659782068e-07 1
  outer loop
    vertex 18407.412109375 723.3584594726562 21450
    vertex 12300 8563.4072265625 21449.986328125
    vertex 12300 723.3584594726562 21449.986328125
  endloop
endfacet
facet normal -1.090328169084387e-06 8.493676659782068e-07 1
  outer loop
    vertex 12300 8563.4072265625 21449.986328125
    vertex 18407.412109375 723.3584594726562 21450
    vertex 18407.412109375 8563.4072265625 21449.986328125
  endloop
endfacet
facet normal 0 1 -8.493676659782068e-07
  outer loop
    vertex 12300 8563.4072265625 21449.986328125
    vertex 18407.412109375 8563.4072265625 21049.986328125
    vertex 12300 8563.4072265625 21049.986328125
  endloop
endfacet
facet normal 0 1 -8.493676659782068e-07
  outer loop
    vertex 18407.412109375 8563.4072265625 21049.986328125
    vertex 12300 8563.4072265625 21449.986328125
    vertex 18407.412109375 8563.4072265625 21449.986328125
  endloop
endfacet
facet normal 1 1.852179000449983e-12 1.090328169084387e-06
  outer loop
    vertex 18407.412109375 8563.4072265625 21049.986328125
    vertex 18407.412109375 723.3584594726562 21450
    vertex 18407.412109375 723.3580932617188 21050
  endloop
endfacet
facet normal 1 1.852179000449983e-12 1.090328169084387e-06
  outer loop
    vertex 18407.412109375 723.3584594726562 21450
    vertex 18407.412109375 8563.4072265625 21049.986328125
    vertex 18407.412109375 8563.4072265625 21449.986328125
  endloop
endfacet
facet normal -1.852179000449983e-12 -1 8.493676659782068e-07
  outer loop
    vertex 18407.412109375 723.3580932617188 21050
    vertex 12300 723.3584594726562 21449.986328125
    vertex 12300 723.3580932617188 21049.986328125
  endloop
endfacet
facet normal -1.852179000449983e-12 -1 8.493676659782068e-07
  outer loop
    vertex 12300 723.3584594726562 21449.986328125
    vertex 18407.412109375 723.3580932617188 21050
    vertex 18407.412109375 723.3584594726562 21450
  endloop
endfacet
facet normal -1 0 -1.090328169084387e-06
  outer loop
    vertex 12300 723.3584594726562 21449.986328125
    vertex 12300 8563.4072265625 21049.986328125
    vertex 12300 723.3580932617188 21049.986328125
  endloop
endfacet
facet normal -1 0 -1.090328169084387e-06
  outer loop
    vertex 12300 8563.4072265625 21049.986328125
    vertex 12300 723.3584594726562 21449.986328125
    vertex 12300 8563.4072265625 21449.986328125
  endloop
endfacet
endsolid com.sketchup.SketchUp.2019
