solid com.sketchup.SketchUp.2019
facet normal 2.110851930363652e-17 -3.222818750981744e-17 -1
  outer loop
    vertex 33500 17413.408203125 21049.986328125
    vertex 24800 11813.4072265625 21049.986328125
    vertex 24800 17413.408203125 21049.986328125
  endloop
endfacet
facet normal 2.110851930363652e-17 -3.222818750981744e-17 -1
  outer loop
    vertex 24800 11813.4072265625 21049.986328125
    vertex 33500 17413.408203125 21049.986328125
    vertex 33500 11813.4072265625 21049.986328125
  endloop
endfacet
facet normal -2.110851930363652e-17 3.222818750981744e-17 1
  outer loop
    vertex 33500 11813.4072265625 21449.986328125
    vertex 24800 17413.408203125 21449.986328125
    vertex 24800 11813.4072265625 21449.986328125
  endloop
endfacet
facet normal -2.110851930363652e-17 3.222818750981744e-17 1
  outer loop
    vertex 24800 17413.408203125 21449.986328125
    vertex 33500 11813.4072265625 21449.986328125
    vertex 33500 17413.408203125 21449.986328125
  endloop
endfacet
facet normal -1 -1.360578691424141e-33 -2.110851930363652e-17
  outer loop
    vertex 24800 17413.408203125 21449.986328125
    vertex 24800 11813.4072265625 21049.986328125
    vertex 24800 11813.4072265625 21449.986328125
  endloop
endfacet
facet normal -1 -1.360578691424141e-33 -2.110851930363652e-17
  outer loop
    vertex 24800 11813.4072265625 21049.986328125
    vertex 24800 17413.408203125 21449.986328125
    vertex 24800 17413.408203125 21049.986328125
  endloop
endfacet
facet normal 1.360578691424141e-33 1 -3.222818750981744e-17
  outer loop
    vertex 24800 17413.408203125 21449.986328125
    vertex 33500 17413.408203125 21049.986328125
    vertex 24800 17413.408203125 21049.986328125
  endloop
endfacet
facet normal 1.360578691424141e-33 1 -3.222818750981744e-17
  outer loop
    vertex 33500 17413.408203125 21049.986328125
    vertex 24800 17413.408203125 21449.986328125
    vertex 33500 17413.408203125 21449.986328125
  endloop
endfacet
facet normal 1 0 2.110851930363652e-17
  outer loop
    vertex 33500 17413.408203125 21049.986328125
    vertex 33500 11813.4072265625 21449.986328125
    vertex 33500 11813.4072265625 21049.986328125
  endloop
endfacet
facet normal 1 0 2.110851930363652e-17
  outer loop
    vertex 33500 11813.4072265625 21449.986328125
    vertex 33500 17413.408203125 21049.986328125
    vertex 33500 17413.408203125 21449.986328125
  endloop
endfacet
facet normal 0 -1 3.222818750981744e-17
  outer loop
    vertex 33500 11813.4072265625 21449.986328125
    vertex 24800 11813.4072265625 21049.986328125
    vertex 33500 11813.4072265625 21049.986328125
  endloop
endfacet
facet normal 0 -1 3.222818750981744e-17
  outer loop
    vertex 24800 11813.4072265625 21049.986328125
    vertex 33500 11813.4072265625 21449.986328125
    vertex 24800 11813.4072265625 21449.986328125
  endloop
endfacet
endsolid com.sketchup.SketchUp.2019
