solid com.sketchup.SketchUp.2019
facet normal -2.979751727983037e-17 2.301998976981998e-17 -1
  outer loop
    vertex 24464.220703125 8563.4072265625 21050
    vertex 18407.412109375 723.3580932617188 21050
    vertex 18407.412109375 8563.4072265625 21050
  endloop
endfacet
facet normal -2.979751727983037e-17 2.301998976981998e-17 -1
  outer loop
    vertex 18407.412109375 723.3580932617188 21050
    vertex 24464.220703125 8563.4072265625 21050
    vertex 24464.220703125 723.3580932617188 21050
  endloop
endfacet
facet normal 2.979751727983037e-17 -2.301998976981998e-17 1
  outer loop
    vertex 24464.220703125 723.3580932617188 21449.990234375
    vertex 18407.412109375 8563.4072265625 21449.990234375
    vertex 18407.412109375 723.3580932617188 21449.990234375
  endloop
endfacet
facet normal 2.979751727983037e-17 -2.301998976981998e-17 1
  outer loop
    vertex 18407.412109375 8563.4072265625 21449.990234375
    vertex 24464.220703125 723.3580932617188 21449.990234375
    vertex 24464.220703125 8563.4072265625 21449.990234375
  endloop
endfacet
facet normal -1 -1.371877212516459e-33 2.979751727983037e-17
  outer loop
    vertex 18407.412109375 8563.4072265625 21449.990234375
    vertex 18407.412109375 723.3580932617188 21050
    vertex 18407.412109375 723.3580932617188 21449.990234375
  endloop
endfacet
facet normal -1 -1.371877212516459e-33 2.979751727983037e-17
  outer loop
    vertex 18407.412109375 723.3580932617188 21050
    vertex 18407.412109375 8563.4072265625 21449.990234375
    vertex 18407.412109375 8563.4072265625 21050
  endloop
endfacet
facet normal 1.371877212516459e-33 1 2.301998976981998e-17
  outer loop
    vertex 18407.412109375 8563.4072265625 21050
    vertex 24464.220703125 8563.4072265625 21449.990234375
    vertex 24464.220703125 8563.4072265625 21050
  endloop
endfacet
facet normal 1.371877212516459e-33 1 2.301998976981998e-17
  outer loop
    vertex 24464.220703125 8563.4072265625 21449.990234375
    vertex 18407.412109375 8563.4072265625 21050
    vertex 18407.412109375 8563.4072265625 21449.990234375
  endloop
endfacet
facet normal 1 0 -2.979751727983037e-17
  outer loop
    vertex 24464.220703125 8563.4072265625 21050
    vertex 24464.220703125 723.3580932617188 21449.990234375
    vertex 24464.220703125 723.3580932617188 21050
  endloop
endfacet
facet normal 1 0 -2.979751727983037e-17
  outer loop
    vertex 24464.220703125 723.3580932617188 21449.990234375
    vertex 24464.220703125 8563.4072265625 21050
    vertex 24464.220703125 8563.4072265625 21449.990234375
  endloop
endfacet
facet normal -0 -1 -2.301998976981998e-17
  outer loop
    vertex 24464.220703125 723.3580932617188 21449.990234375
    vertex 18407.412109375 723.3580932617188 21050
    vertex 24464.220703125 723.3580932617188 21050
  endloop
endfacet
facet normal -0 -1 -2.301998976981998e-17
  outer loop
    vertex 18407.412109375 723.3580932617188 21050
    vertex 24464.220703125 723.3580932617188 21449.990234375
    vertex 18407.412109375 723.3580932617188 21449.990234375
  endloop
endfacet
endsolid com.sketchup.SketchUp.2019
