solid com.sketchup.SketchUp.2019
facet normal -0 -0 -1
  outer loop
    vertex 36500 17473.552734375 21049.986328125
    vertex 33450.67578125 13514.552734375 21049.986328125
    vertex 33450.67578125 17473.552734375 21049.986328125
  endloop
endfacet
facet normal -0 -0 -1
  outer loop
    vertex 33450.67578125 13514.552734375 21049.986328125
    vertex 36500 17473.552734375 21049.986328125
    vertex 36500 13514.552734375 21049.986328125
  endloop
endfacet
facet normal 0 0 1
  outer loop
    vertex 36500 13514.552734375 21449.986328125
    vertex 33450.67578125 17473.552734375 21449.986328125
    vertex 33450.67578125 13514.552734375 21449.986328125
  endloop
endfacet
facet normal 0 0 1
  outer loop
    vertex 33450.67578125 17473.552734375 21449.986328125
    vertex 36500 13514.552734375 21449.986328125
    vertex 36500 17473.552734375 21449.986328125
  endloop
endfacet
facet normal -1 0 0
  outer loop
    vertex 33450.67578125 17473.552734375 21449.986328125
    vertex 33450.67578125 13514.552734375 21049.986328125
    vertex 33450.67578125 13514.552734375 21449.986328125
  endloop
endfacet
facet normal -1 0 0
  outer loop
    vertex 33450.67578125 13514.552734375 21049.986328125
    vertex 33450.67578125 17473.552734375 21449.986328125
    vertex 33450.67578125 17473.552734375 21049.986328125
  endloop
endfacet
facet normal 0 -1 0
  outer loop
    vertex 36500 13514.552734375 21449.986328125
    vertex 33450.67578125 13514.552734375 21049.986328125
    vertex 36500 13514.552734375 21049.986328125
  endloop
endfacet
facet normal 0 -1 0
  outer loop
    vertex 33450.67578125 13514.552734375 21049.986328125
    vertex 36500 13514.552734375 21449.986328125
    vertex 33450.67578125 13514.552734375 21449.986328125
  endloop
endfacet
facet normal 1 0 0
  outer loop
    vertex 36500 17473.552734375 21049.986328125
    vertex 36500 13514.552734375 21449.986328125
    vertex 36500 13514.552734375 21049.986328125
  endloop
endfacet
facet normal 1 0 0
  outer loop
    vertex 36500 13514.552734375 21449.986328125
    vertex 36500 17473.552734375 21049.986328125
    vertex 36500 17473.552734375 21449.986328125
  endloop
endfacet
facet normal 0 1 0
  outer loop
    vertex 33450.67578125 17473.552734375 21449.986328125
    vertex 36500 17473.552734375 21049.986328125
    vertex 33450.67578125 17473.552734375 21049.986328125
  endloop
endfacet
facet normal 0 1 0
  outer loop
    vertex 36500 17473.552734375 21049.986328125
    vertex 33450.67578125 17473.552734375 21449.986328125
    vertex 36500 17473.552734375 21449.986328125
  endloop
endfacet
endsolid com.sketchup.SketchUp.2019
