solid com.sketchup.SketchUp.2019
facet normal -1.121855348173995e-06 8.494491225974343e-07 -1
  outer loop
    vertex 30400 8563.4072265625 21050
    vertex 24464.220703125 724.1080932617188 21050
    vertex 24464.220703125 8563.4072265625 21050
  endloop
endfacet
facet normal -1.121855348173995e-06 8.494491225974343e-07 -1
  outer loop
    vertex 24464.220703125 724.1080932617188 21050
    vertex 30400 8563.4072265625 21050
    vertex 30400 724.1080932617188 21049.986328125
  endloop
endfacet
facet normal 1.121855348173995e-06 -8.494491225974343e-07 1
  outer loop
    vertex 30400 724.1077270507812 21449.986328125
    vertex 24464.220703125 8563.4072265625 21450
    vertex 24464.220703125 724.1077270507812 21450
  endloop
endfacet
facet normal 1.121855348173995e-06 -8.494491225974343e-07 1
  outer loop
    vertex 24464.220703125 8563.4072265625 21450
    vertex 30400 724.1077270507812 21449.986328125
    vertex 30400 8563.4072265625 21450
  endloop
endfacet
facet normal -1 0 1.121855348173995e-06
  outer loop
    vertex 24464.220703125 8563.4072265625 21450
    vertex 24464.220703125 724.1080932617188 21050
    vertex 24464.220703125 724.1077270507812 21450
  endloop
endfacet
facet normal -1 0 1.121855348173995e-06
  outer loop
    vertex 24464.220703125 724.1080932617188 21050
    vertex 24464.220703125 8563.4072265625 21450
    vertex 24464.220703125 8563.4072265625 21050
  endloop
endfacet
facet normal 0 1 8.494491225974343e-07
  outer loop
    vertex 24464.220703125 8563.4072265625 21450
    vertex 30400 8563.4072265625 21050
    vertex 24464.220703125 8563.4072265625 21050
  endloop
endfacet
facet normal 0 1 8.494491225974343e-07
  outer loop
    vertex 30400 8563.4072265625 21050
    vertex 24464.220703125 8563.4072265625 21450
    vertex 30400 8563.4072265625 21450
  endloop
endfacet
facet normal 1 1.90591813165053e-12 -1.121855348173995e-06
  outer loop
    vertex 30400 724.1080932617188 21049.986328125
    vertex 30400 8563.4072265625 21450
    vertex 30400 724.1077270507812 21449.986328125
  endloop
endfacet
facet normal 1 1.90591813165053e-12 -1.121855348173995e-06
  outer loop
    vertex 30400 8563.4072265625 21450
    vertex 30400 724.1080932617188 21049.986328125
    vertex 30400 8563.4072265625 21050
  endloop
endfacet
facet normal -1.90591813165053e-12 -1 -8.494491225974343e-07
  outer loop
    vertex 30400 724.1077270507812 21449.986328125
    vertex 24464.220703125 724.1080932617188 21050
    vertex 30400 724.1080932617188 21049.986328125
  endloop
endfacet
facet normal -1.90591813165053e-12 -1 -8.494491225974343e-07
  outer loop
    vertex 24464.220703125 724.1080932617188 21050
    vertex 30400 724.1077270507812 21449.986328125
    vertex 24464.220703125 724.1077270507812 21450
  endloop
endfacet
endsolid com.sketchup.SketchUp.2019
