solid com.sketchup.SketchUp.2019
facet normal -9.378994150210929e-07 8.494491225974343e-07 -1
  outer loop
    vertex 37500 8563.4072265625 21050
    vertex 30400 724.1080932617188 21050
    vertex 30400 8563.4072265625 21050
  endloop
endfacet
facet normal -9.378994150210929e-07 8.494491225974343e-07 -1
  outer loop
    vertex 30400 724.1080932617188 21050
    vertex 37500 8563.4072265625 21050
    vertex 37500 724.1080932617188 21049.986328125
  endloop
endfacet
facet normal 9.378994150210929e-07 -8.494491225974343e-07 1
  outer loop
    vertex 37500 724.1077270507812 21449.98046875
    vertex 30400 8563.4072265625 21449.9921875
    vertex 30400 724.1077270507812 21449.9921875
  endloop
endfacet
facet normal 9.378994150210929e-07 -8.494491225974343e-07 1
  outer loop
    vertex 30400 8563.4072265625 21449.9921875
    vertex 37500 724.1077270507812 21449.98046875
    vertex 37500 8563.4072265625 21449.9921875
  endloop
endfacet
facet normal 0 1 8.494491225974343e-07
  outer loop
    vertex 30400 8563.4072265625 21449.9921875
    vertex 37500 8563.4072265625 21050
    vertex 30400 8563.4072265625 21050
  endloop
endfacet
facet normal 0 1 8.494491225974343e-07
  outer loop
    vertex 37500 8563.4072265625 21050
    vertex 30400 8563.4072265625 21449.9921875
    vertex 37500 8563.4072265625 21449.9921875
  endloop
endfacet
facet normal 1 1.593395662809194e-12 -9.378994150210929e-07
  outer loop
    vertex 37500 724.1080932617188 21049.986328125
    vertex 37500 8563.4072265625 21449.9921875
    vertex 37500 724.1077270507812 21449.98046875
  endloop
endfacet
facet normal 1 1.593395662809194e-12 -9.378994150210929e-07
  outer loop
    vertex 37500 8563.4072265625 21449.9921875
    vertex 37500 724.1080932617188 21049.986328125
    vertex 37500 8563.4072265625 21050
  endloop
endfacet
facet normal -1.593395662809194e-12 -1 -8.494491225974343e-07
  outer loop
    vertex 37500 724.1077270507812 21449.98046875
    vertex 30400 724.1080932617188 21050
    vertex 37500 724.1080932617188 21049.986328125
  endloop
endfacet
facet normal -1.593395662809194e-12 -1 -8.494491225974343e-07
  outer loop
    vertex 30400 724.1080932617188 21050
    vertex 37500 724.1077270507812 21449.98046875
    vertex 30400 724.1077270507812 21449.9921875
  endloop
endfacet
facet normal -1 0 9.378994150210929e-07
  outer loop
    vertex 30400 8563.4072265625 21449.9921875
    vertex 30400 724.1080932617188 21050
    vertex 30400 724.1077270507812 21449.9921875
  endloop
endfacet
facet normal -1 0 9.378994150210929e-07
  outer loop
    vertex 30400 724.1080932617188 21050
    vertex 30400 8563.4072265625 21449.9921875
    vertex 30400 8563.4072265625 21050
  endloop
endfacet
endsolid com.sketchup.SketchUp.2019
