solid com.sketchup.SketchUp.2019
facet normal 2.712577731878163e-11 1.198714196480599e-12 1
  outer loop
    vertex -2316.26318359375 644.0745239257812 24949.97265625
    vertex -2315.44091796875 685.0484008789062 24949.97265625
    vertex -2316.948974609375 644.0608520507812 24949.97265625
  endloop
endfacet
facet normal 2.712577731878163e-11 1.198714196480599e-12 1
  outer loop
    vertex -2315.44091796875 685.0484008789062 24949.97265625
    vertex -2316.26318359375 644.0745239257812 24949.97265625
    vertex -2315.447509765625 601.9777221679688 24949.97265625
  endloop
endfacet
facet normal 2.712577731878163e-11 1.198714196480599e-12 1
  outer loop
    vertex -2310.4931640625 439.8013916015625 24949.97265625
    vertex -2315.447509765625 601.9777221679688 24949.97265625
    vertex -2315.720703125 601.9722900390625 24949.97265625
  endloop
endfacet
facet normal 2.712577731878163e-11 1.198714196480599e-12 1
  outer loop
    vertex -2315.447509765625 601.9777221679688 24949.97265625
    vertex -2310.4931640625 439.8013916015625 24949.97265625
    vertex -2315.44091796875 685.0484008789062 24949.97265625
  endloop
endfacet
facet normal 2.712577731878163e-11 1.198714196480599e-12 1
  outer loop
    vertex -2315.44091796875 685.0484008789062 24949.97265625
    vertex -2310.4931640625 439.8013916015625 24949.97265625
    vertex -2246.5908203125 2556.16650390625 24949.97265625
  endloop
endfacet
facet normal 2.712577731878163e-11 1.198714196480599e-12 1
  outer loop
    vertex -2246.5908203125 2556.16650390625 24949.97265625
    vertex -2310.4931640625 439.8013916015625 24949.97265625
    vertex -2290.9345703125 238.2675170898438 24949.97265625
  endloop
endfacet
facet normal 2.712577731878163e-11 1.198714196480599e-12 1
  outer loop
    vertex -2246.5908203125 2556.16650390625 24949.97265625
    vertex -2290.9345703125 238.2675170898438 24949.97265625
    vertex -2258.42529296875 38.46312713623047 24949.97265625
  endloop
endfacet
facet normal 2.712577731878163e-11 1.198714196480599e-12 1
  outer loop
    vertex -2246.5908203125 2556.16650390625 24949.97265625
    vertex -2258.42529296875 38.46312713623047 24949.97265625
    vertex -2213.10498046875 -158.7560882568359 24949.97265625
  endloop
endfacet
facet normal 2.712577731878163e-11 1.198714196480599e-12 1
  outer loop
    vertex -2246.5908203125 2556.16650390625 24949.97265625
    vertex -2213.10498046875 -158.7560882568359 24949.97265625
    vertex -2242.688232421875 2662.22412109375 24949.97265625
  endloop
endfacet
facet normal 2.712577731878163e-11 1.198714196480599e-12 1
  outer loop
    vertex -2242.688232421875 2662.22412109375 24949.97265625
    vertex -2213.10498046875 -158.7560882568359 24949.97265625
    vertex -2038.989624023438 4649.36767578125 24949.97265625
  endloop
endfacet
facet normal 2.712577731878163e-11 1.198714196480599e-12 1
  outer loop
    vertex -2038.989624023438 4649.36767578125 24949.97265625
    vertex -2213.10498046875 -158.7560882568359 24949.97265625
    vertex -2174.726806640625 -287.1235961914062 24949.97265625
  endloop
endfacet
facet normal 2.712577731878163e-11 1.198714196480599e-12 1
  outer loop
    vertex -2038.989624023438 4649.36767578125 24949.97265625
    vertex -2174.726806640625 -287.1235961914062 24949.97265625
    vertex -2155.16748046875 -352.5455017089844 24949.97265625
  endloop
endfacet
facet normal 2.712577731878163e-11 1.198714196480599e-12 1
  outer loop
    vertex -2038.989624023438 4649.36767578125 24949.97265625
    vertex -2155.16748046875 -352.5455017089844 24949.97265625
    vertex -2084.860595703125 -542.0751953125 24949.97265625
  endloop
endfacet
facet normal 2.712577731878163e-11 1.198714196480599e-12 1
  outer loop
    vertex -2038.989624023438 4649.36767578125 24949.97265625
    vertex -2084.860595703125 -542.0751953125 24949.97265625
    vertex -2002.485961914062 -726.5333862304688 24949.97265625
  endloop
endfacet
facet normal 2.712577731878163e-11 1.198714196480599e-12 1
  outer loop
    vertex -2038.989624023438 4649.36767578125 24949.97265625
    vertex -2002.485961914062 -726.5333862304688 24949.97265625
    vertex -2036.586669921875 4672.8095703125 24949.97265625
  endloop
endfacet
facet normal 2.712577731878163e-11 1.198714196480599e-12 1
  outer loop
    vertex -2036.586669921875 4672.8095703125 24949.97265625
    vertex -2002.485961914062 -726.5333862304688 24949.97265625
    vertex -1699.618774414062 6665.11865234375 24949.97265625
  endloop
endfacet
facet normal 2.712577731878163e-11 1.198714196480599e-12 1
  outer loop
    vertex -1699.618774414062 6665.11865234375 24949.97265625
    vertex -2002.485961914062 -726.5333862304688 24949.97265625
    vertex -1908.396118164062 -905.1301879882812 24949.97265625
  endloop
endfacet
facet normal 2.712577731878163e-11 1.198714196480599e-12 1
  outer loop
    vertex -1699.618774414062 6665.11865234375 24949.97265625
    vertex -1908.396118164062 -905.1301879882812 24949.97265625
    vertex -1802.994018554688 -1077.1005859375 24949.97265625
  endloop
endfacet
facet normal 2.712577731878163e-11 1.198714196480599e-12 1
  outer loop
    vertex -1699.618774414062 6665.11865234375 24949.97265625
    vertex -1802.994018554688 -1077.1005859375 24949.97265625
    vertex -1739.262084960938 -1167.333740234375 24949.97265625
  endloop
endfacet
facet normal 2.712577731878163e-11 1.198714196480599e-12 1
  outer loop
    vertex -1699.618774414062 6665.11865234375 24949.97265625
    vertex -1739.262084960938 -1167.333740234375 24949.97265625
    vertex -1686.731079101562 -1241.708374023438 24949.97265625
  endloop
endfacet
facet normal 2.712577731878163e-11 1.198714196480599e-12 1
  outer loop
    vertex -1699.618774414062 6665.11865234375 24949.97265625
    vertex -1686.731079101562 -1241.708374023438 24949.97265625
    vertex -1360.44189453125 8094.45654296875 24949.97265625
  endloop
endfacet
facet normal 2.712577731878163e-11 1.198714196480599e-12 1
  outer loop
    vertex -1360.44189453125 8094.45654296875 24949.97265625
    vertex -1686.731079101562 -1241.708374023438 24949.97265625
    vertex -1560.105224609375 -1398.248291015625 24949.97265625
  endloop
endfacet
facet normal 2.712577731878163e-11 1.198714196480599e-12 1
  outer loop
    vertex -1360.44189453125 8094.45654296875 24949.97265625
    vertex -1560.105224609375 -1398.248291015625 24949.97265625
    vertex -1423.65869140625 -1546.049926757812 24949.97265625
  endloop
endfacet
facet normal 2.712577731878163e-11 1.198714196480599e-12 1
  outer loop
    vertex -1360.44189453125 8094.45654296875 24949.97265625
    vertex -1423.65869140625 -1546.049926757812 24949.97265625
    vertex -1277.97607421875 -1684.48046875 24949.97265625
  endloop
endfacet
facet normal 2.712577731878163e-11 1.198714196480599e-12 1
  outer loop
    vertex -1360.44189453125 8094.45654296875 24949.97265625
    vertex -1277.97607421875 -1684.48046875 24949.97265625
    vertex -1233.265747070312 8630.3935546875 24949.97265625
  endloop
endfacet
facet normal 2.712577731878163e-11 1.198714196480599e-12 1
  outer loop
    vertex -1233.265747070312 8630.3935546875 24949.97265625
    vertex -1277.97607421875 -1684.48046875 24949.97265625
    vertex -1123.681030273438 -1812.947021484375 24949.97265625
  endloop
endfacet
facet normal 2.712577731878163e-11 1.198714196480599e-12 1
  outer loop
    vertex -1233.265747070312 8630.3935546875 24949.97265625
    vertex -1123.681030273438 -1812.947021484375 24949.97265625
    vertex -777.297607421875 10112.37890625 24949.97265625
  endloop
endfacet
facet normal 2.712577731878163e-11 1.198714196480599e-12 1
  outer loop
    vertex -777.297607421875 10112.37890625 24949.97265625
    vertex -1123.681030273438 -1812.947021484375 24949.97265625
    vertex -1052.453857421875 -1864.728759765625 24949.97265625
  endloop
endfacet
facet normal 2.712577731878163e-11 1.198714196480599e-12 1
  outer loop
    vertex -777.297607421875 10112.37890625 24949.97265625
    vertex -1052.453857421875 -1864.728759765625 24949.97265625
    vertex -961.4343872070312 -1930.8994140625 24949.97265625
  endloop
endfacet
facet normal 2.712577731878163e-11 1.198714196480599e-12 1
  outer loop
    vertex -777.297607421875 10112.37890625 24949.97265625
    vertex -961.4343872070312 -1930.8994140625 24949.97265625
    vertex -791.93115234375 -2037.832275390625 24949.97265625
  endloop
endfacet
facet normal 2.712577731878163e-11 1.198714196480599e-12 1
  outer loop
    vertex -777.297607421875 10112.37890625 24949.97265625
    vertex -791.93115234375 -2037.832275390625 24949.97265625
    vertex -615.8971557617188 -2133.287841796875 24949.97265625
  endloop
endfacet
facet normal 2.712577731878163e-11 1.198714196480599e-12 1
  outer loop
    vertex -777.297607421875 10112.37890625 24949.97265625
    vertex -615.8971557617188 -2133.287841796875 24949.97265625
    vertex -639.5776977539062 10559.99609375 24949.97265625
  endloop
endfacet
facet normal 2.712577731878163e-11 1.198714196480599e-12 1
  outer loop
    vertex -639.5776977539062 10559.99609375 24949.97265625
    vertex -615.8971557617188 -2133.287841796875 24949.97265625
    vertex 78.83547973632812 12445.44140625 24949.97265625
  endloop
endfacet
facet normal 2.712577731878163e-11 1.198714196480599e-12 1
  outer loop
    vertex 78.83547973632812 12445.44140625 24949.97265625
    vertex -615.8971557617188 -2133.287841796875 24949.97265625
    vertex -434.0863037109375 -2216.857421875 24949.97265625
  endloop
endfacet
facet normal 2.712577731878163e-11 1.198714196480599e-12 1
  outer loop
    vertex 78.83547973632812 12445.44140625 24949.97265625
    vertex -434.0863037109375 -2216.857421875 24949.97265625
    vertex -247.2772521972656 -2288.182861328125 24949.97265625
  endloop
endfacet
facet normal 2.712577731878163e-11 1.198714196480599e-12 1
  outer loop
    vertex 78.83547973632812 12445.44140625 24949.97265625
    vertex -247.2772521972656 -2288.182861328125 24949.97265625
    vertex -185.0137176513672 -2307.34228515625 24949.97265625
  endloop
endfacet
facet normal 2.712577731878163e-11 1.198714196480599e-12 1
  outer loop
    vertex 78.83547973632812 12445.44140625 24949.97265625
    vertex -185.0137176513672 -2307.34228515625 24949.97265625
    vertex -107.426025390625 -2331.153076171875 24949.97265625
  endloop
endfacet
facet normal 2.712577731878163e-11 1.198714196480599e-12 1
  outer loop
    vertex 78.83547973632812 12445.44140625 24949.97265625
    vertex -107.426025390625 -2331.153076171875 24949.97265625
    vertex -29.23759651184082 -2352.8466796875 24949.97265625
  endloop
endfacet
facet normal 2.712577731878163e-11 1.198714196480599e-12 1
  outer loop
    vertex 78.83547973632812 12445.44140625 24949.97265625
    vertex -29.23759651184082 -2352.8466796875 24949.97265625
    vertex 49.49546051025391 -2372.408203125 24949.97265625
  endloop
endfacet
facet normal 2.712577731878163e-11 1.198714196480599e-12 1
  outer loop
    vertex 78.83547973632812 12445.44140625 24949.97265625
    vertex 49.49546051025391 -2372.408203125 24949.97265625
    vertex 128.7166595458984 -2389.822998046875 24949.97265625
  endloop
endfacet
facet normal 2.712577731878163e-11 1.198714196480599e-12 1
  outer loop
    vertex 78.83547973632812 12445.44140625 24949.97265625
    vertex 128.7166595458984 -2389.822998046875 24949.97265625
    vertex 123.7663040161133 12563.3603515625 24949.97265625
  endloop
endfacet
facet normal 2.712577731878163e-11 1.198714196480599e-12 1
  outer loop
    vertex 123.7663040161133 12563.3603515625 24949.97265625
    vertex 128.7166595458984 -2389.822998046875 24949.97265625
    vertex 182.9826049804688 12563.3603515625 24949.97265625
  endloop
endfacet
facet normal 2.712577731878163e-11 1.198714196480599e-12 1
  outer loop
    vertex 182.9826049804688 12563.3603515625 24949.97265625
    vertex 128.7166595458984 -2389.822998046875 24949.97265625
    vertex 208.3691558837891 -2405.0791015625 24949.97265625
  endloop
endfacet
facet normal 2.712577731878163e-11 1.198714196480599e-12 1
  outer loop
    vertex 182.9826049804688 12563.3603515625 24949.97265625
    vertex 208.3691558837891 -2405.0791015625 24949.97265625
    vertex 1032.982543945312 12563.3603515625 24949.97265625
  endloop
endfacet
facet normal 2.712577731878163e-11 1.198714196480599e-12 1
  outer loop
    vertex 1032.982543945312 12563.3603515625 24949.97265625
    vertex 208.3691558837891 -2405.0791015625 24949.97265625
    vertex 288.3958129882812 -2418.1650390625 24949.97265625
  endloop
endfacet
facet normal 2.712577731878163e-11 1.198714196480599e-12 1
  outer loop
    vertex 1032.982543945312 12563.3603515625 24949.97265625
    vertex 288.3958129882812 -2418.1650390625 24949.97265625
    vertex 368.7391967773438 -2429.07177734375 24949.97265625
  endloop
endfacet
facet normal 2.712577731878163e-11 1.198714196480599e-12 1
  outer loop
    vertex 1032.982543945312 12563.3603515625 24949.97265625
    vertex 368.7391967773438 -2429.07177734375 24949.97265625
    vertex 449.3417053222656 -2437.79150390625 24949.97265625
  endloop
endfacet
facet normal 2.712577731878163e-11 1.198714196480599e-12 1
  outer loop
    vertex 1032.982543945312 12563.3603515625 24949.97265625
    vertex 449.3417053222656 -2437.79150390625 24949.97265625
    vertex 530.1454467773438 -2444.31787109375 24949.97265625
  endloop
endfacet
facet normal 2.712577731878163e-11 1.198714196480599e-12 1
  outer loop
    vertex 1032.982543945312 12563.3603515625 24949.97265625
    vertex 530.1454467773438 -2444.31787109375 24949.97265625
    vertex 611.092529296875 -2448.64599609375 24949.97265625
  endloop
endfacet
facet normal 2.712577731878163e-11 1.198714196480599e-12 1
  outer loop
    vertex 1032.982543945312 12563.3603515625 24949.97265625
    vertex 611.092529296875 -2448.64599609375 24949.97265625
    vertex 692.1248168945312 -2450.773193359375 24949.97265625
  endloop
endfacet
facet normal 2.712577731878163e-11 1.198714196480599e-12 1
  outer loop
    vertex 1032.982543945312 12563.3603515625 24949.97265625
    vertex 692.1248168945312 -2450.773193359375 24949.97265625
    vertex 773.1842041015625 -2450.697509765625 24949.97265625
  endloop
endfacet
facet normal 2.712577731878163e-11 1.198714196480599e-12 1
  outer loop
    vertex 1032.982543945312 12563.3603515625 24949.97265625
    vertex 773.1842041015625 -2450.697509765625 24949.97265625
    vertex 1657.400512695312 -2413.943603515625 24949.97265625
  endloop
endfacet
facet normal 2.712577731878163e-11 1.198714196480599e-12 1
  outer loop
    vertex 1032.982543945312 12563.3603515625 24949.97265625
    vertex 1657.400512695312 -2413.943603515625 24949.97265625
    vertex 6427.1943359375 12563.3603515625 24949.97265625
  endloop
endfacet
facet normal 2.712577731878163e-11 1.198714196480599e-12 1
  outer loop
    vertex 6427.1943359375 12563.3603515625 24949.97265625
    vertex 1657.400512695312 -2413.943603515625 24949.97265625
    vertex 2577.12255859375 -2313.910400390625 24949.97265625
  endloop
endfacet
facet normal 2.712577731878163e-11 1.198714196480599e-12 1
  outer loop
    vertex 6427.1943359375 12563.3603515625 24949.97265625
    vertex 2577.12255859375 -2313.910400390625 24949.97265625
    vertex 3488.363525390625 -2152.694091796875 24949.97265625
  endloop
endfacet
facet normal 2.712577731878163e-11 1.198714196480599e-12 1
  outer loop
    vertex 6427.1943359375 12563.3603515625 24949.97265625
    vertex 3488.363525390625 -2152.694091796875 24949.97265625
    vertex 3558.306640625 -2135.44189453125 24949.97265625
  endloop
endfacet
facet normal 2.712577731878163e-11 1.198714196480599e-12 1
  outer loop
    vertex 6427.1943359375 12563.3603515625 24949.97265625
    vertex 3558.306640625 -2135.44189453125 24949.97265625
    vertex 4387.17431640625 -1930.993530273438 24949.97265625
  endloop
endfacet
facet normal 2.712577731878163e-11 1.198714196480599e-12 1
  outer loop
    vertex 6427.1943359375 12563.3603515625 24949.97265625
    vertex 4387.17431640625 -1930.993530273438 24949.97265625
    vertex 5269.65869140625 -1649.769775390625 24949.97265625
  endloop
endfacet
facet normal 2.712577731878163e-11 1.198714196480599e-12 1
  outer loop
    vertex 6427.1943359375 12563.3603515625 24949.97265625
    vertex 5269.65869140625 -1649.769775390625 24949.97265625
    vertex 5533.375 -1545.936157226562 24949.97265625
  endloop
endfacet
facet normal 2.712577731878163e-11 1.198714196480599e-12 1
  outer loop
    vertex 6427.1943359375 12563.3603515625 24949.97265625
    vertex 5533.375 -1545.936157226562 24949.97265625
    vertex 6131.9921875 -1310.241455078125 24949.97265625
  endloop
endfacet
facet normal 2.712577731878163e-11 1.198714196480599e-12 1
  outer loop
    vertex 6427.1943359375 12563.3603515625 24949.97265625
    vertex 6131.9921875 -1310.241455078125 24949.97265625
    vertex 6427.1943359375 11813.3603515625 24949.97265625
  endloop
endfacet
facet normal 2.712577731878163e-11 1.198714196480599e-12 1
  outer loop
    vertex 6427.1943359375 11813.3603515625 24949.97265625
    vertex 6131.9921875 -1310.241455078125 24949.97265625
    vertex 6970.4365234375 -913.88037109375 24949.97265625
  endloop
endfacet
facet normal 2.712577731878163e-11 1.198714196480599e-12 1
  outer loop
    vertex 6427.1943359375 11813.3603515625 24949.97265625
    vertex 6970.4365234375 -913.88037109375 24949.97265625
    vertex 8662.1689453125 11813.3603515625 24949.97265625
  endloop
endfacet
facet normal 2.712577731878163e-11 1.198714196480599e-12 1
  outer loop
    vertex 8662.1689453125 11813.3603515625 24949.97265625
    vertex 6970.4365234375 -913.88037109375 24949.97265625
    vertex 7781.35791015625 -462.4044494628906 24949.97265625
  endloop
endfacet
facet normal 2.712577731878163e-11 1.198714196480599e-12 1
  outer loop
    vertex 8662.1689453125 11813.3603515625 24949.97265625
    vertex 7781.35791015625 -462.4044494628906 24949.97265625
    vertex 8561.2412109375 42.22943115234375 24949.97265625
  endloop
endfacet
facet normal 2.712577731878163e-11 1.198714196480599e-12 1
  outer loop
    vertex 8662.1689453125 11813.3603515625 24949.97265625
    vertex 8561.2412109375 42.22943115234375 24949.97265625
    vertex 8651.9013671875 100.892204284668 24949.97265625
  endloop
endfacet
facet normal 2.712577731878163e-11 1.198714196480599e-12 1
  outer loop
    vertex 8662.1689453125 11813.3603515625 24949.97265625
    vertex 8651.9013671875 100.892204284668 24949.97265625
    vertex 8662.1689453125 2705.01806640625 24949.97265625
  endloop
endfacet
facet normal 2.712577731878163e-11 1.198714196480599e-12 1
  outer loop
    vertex 8662.1689453125 2705.01806640625 24949.97265625
    vertex 8651.9013671875 100.892204284668 24949.97265625
    vertex 8662.1689453125 100.892204284668 24949.97265625
  endloop
endfacet
facet normal 2.712577731878163e-11 1.198714196480599e-12 1
  outer loop
    vertex 8662.1689453125 11813.3603515625 24949.97265625
    vertex 8662.1689453125 6729.55029296875 24949.97265625
    vertex 8662.1689453125 9570.3623046875 24949.97265625
  endloop
endfacet
facet normal 2.712577731878163e-11 1.198714196480599e-12 1
  outer loop
    vertex 8662.1689453125 6729.55029296875 24949.97265625
    vertex 8662.1689453125 11813.3603515625 24949.97265625
    vertex 8662.1689453125 2705.01806640625 24949.97265625
  endloop
endfacet
facet normal 2.712577731878163e-11 1.198714196480599e-12 1
  outer loop
    vertex 8662.1689453125 6729.55029296875 24949.97265625
    vertex 8662.1689453125 2705.01806640625 24949.97265625
    vertex 8662.1689453125 5309.14404296875 24949.97265625
  endloop
endfacet
facet normal -2.712577731878163e-11 -1.198714196480599e-12 -1
  outer loop
    vertex -2315.44091796875 685.0484008789062 24549.97265625
    vertex -2316.26318359375 644.0745239257812 24549.97265625
    vertex -2316.948974609375 644.0608520507812 24549.97265625
  endloop
endfacet
facet normal -2.712577731878163e-11 -1.198714196480599e-12 -1
  outer loop
    vertex -2316.26318359375 644.0745239257812 24549.97265625
    vertex -2315.44091796875 685.0484008789062 24549.97265625
    vertex -2315.447509765625 601.9777221679688 24549.97265625
  endloop
endfacet
facet normal -2.712577731878163e-11 -1.198714196480599e-12 -1
  outer loop
    vertex -2315.447509765625 601.9777221679688 24549.97265625
    vertex -2310.4931640625 439.8013916015625 24549.97265625
    vertex -2315.720703125 601.9722900390625 24549.97265625
  endloop
endfacet
facet normal -2.712577731878163e-11 -1.198714196480599e-12 -1
  outer loop
    vertex -2310.4931640625 439.8013916015625 24549.97265625
    vertex -2315.447509765625 601.9777221679688 24549.97265625
    vertex -2315.44091796875 685.0484008789062 24549.97265625
  endloop
endfacet
facet normal -2.712577731878163e-11 -1.198714196480599e-12 -1
  outer loop
    vertex -2310.4931640625 439.8013916015625 24549.97265625
    vertex -2315.44091796875 685.0484008789062 24549.97265625
    vertex -2246.5908203125 2556.16650390625 24549.97265625
  endloop
endfacet
facet normal -2.712577731878163e-11 -1.198714196480599e-12 -1
  outer loop
    vertex -2310.4931640625 439.8013916015625 24549.97265625
    vertex -2246.5908203125 2556.16650390625 24549.97265625
    vertex -2290.9345703125 238.2675170898438 24549.97265625
  endloop
endfacet
facet normal -2.712577731878163e-11 -1.198714196480599e-12 -1
  outer loop
    vertex -2290.9345703125 238.2675170898438 24549.97265625
    vertex -2246.5908203125 2556.16650390625 24549.97265625
    vertex -2258.42529296875 38.46312713623047 24549.97265625
  endloop
endfacet
facet normal -2.712577731878163e-11 -1.198714196480599e-12 -1
  outer loop
    vertex -2258.42529296875 38.46312713623047 24549.97265625
    vertex -2246.5908203125 2556.16650390625 24549.97265625
    vertex -2213.10498046875 -158.7560882568359 24549.97265625
  endloop
endfacet
facet normal -2.712577731878163e-11 -1.198714196480599e-12 -1
  outer loop
    vertex -2213.10498046875 -158.7560882568359 24549.97265625
    vertex -2246.5908203125 2556.16650390625 24549.97265625
    vertex -2242.688232421875 2662.22412109375 24549.97265625
  endloop
endfacet
facet normal -2.712577731878163e-11 -1.198714196480599e-12 -1
  outer loop
    vertex -2213.10498046875 -158.7560882568359 24549.97265625
    vertex -2242.688232421875 2662.22412109375 24549.97265625
    vertex -2038.989624023438 4649.36767578125 24549.97265625
  endloop
endfacet
facet normal -2.712577731878163e-11 -1.198714196480599e-12 -1
  outer loop
    vertex -2213.10498046875 -158.7560882568359 24549.97265625
    vertex -2038.989624023438 4649.36767578125 24549.97265625
    vertex -2174.726806640625 -287.1235961914062 24549.97265625
  endloop
endfacet
facet normal -2.712577731878163e-11 -1.198714196480599e-12 -1
  outer loop
    vertex -2174.726806640625 -287.1235961914062 24549.97265625
    vertex -2038.989624023438 4649.36767578125 24549.97265625
    vertex -2155.16748046875 -352.5455017089844 24549.97265625
  endloop
endfacet
facet normal -2.712577731878163e-11 -1.198714196480599e-12 -1
  outer loop
    vertex -2155.16748046875 -352.5455017089844 24549.97265625
    vertex -2038.989624023438 4649.36767578125 24549.97265625
    vertex -2084.860595703125 -542.0751953125 24549.97265625
  endloop
endfacet
facet normal -2.712577731878163e-11 -1.198714196480599e-12 -1
  outer loop
    vertex -2084.860595703125 -542.0751953125 24549.97265625
    vertex -2038.989624023438 4649.36767578125 24549.97265625
    vertex -2002.485961914062 -726.5333862304688 24549.97265625
  endloop
endfacet
facet normal -2.712577731878163e-11 -1.198714196480599e-12 -1
  outer loop
    vertex -2002.485961914062 -726.5333862304688 24549.97265625
    vertex -2038.989624023438 4649.36767578125 24549.97265625
    vertex -2036.586669921875 4672.8095703125 24549.97265625
  endloop
endfacet
facet normal -2.712577731878163e-11 -1.198714196480599e-12 -1
  outer loop
    vertex -2002.485961914062 -726.5333862304688 24549.97265625
    vertex -2036.586669921875 4672.8095703125 24549.97265625
    vertex -1699.618774414062 6665.11865234375 24549.97265625
  endloop
endfacet
facet normal -2.712577731878163e-11 -1.198714196480599e-12 -1
  outer loop
    vertex -2002.485961914062 -726.5333862304688 24549.97265625
    vertex -1699.618774414062 6665.11865234375 24549.97265625
    vertex -1908.396118164062 -905.1301879882812 24549.97265625
  endloop
endfacet
facet normal -2.712577731878163e-11 -1.198714196480599e-12 -1
  outer loop
    vertex -1908.396118164062 -905.1301879882812 24549.97265625
    vertex -1699.618774414062 6665.11865234375 24549.97265625
    vertex -1802.994018554688 -1077.1005859375 24549.97265625
  endloop
endfacet
facet normal -2.712577731878163e-11 -1.198714196480599e-12 -1
  outer loop
    vertex -1802.994018554688 -1077.1005859375 24549.97265625
    vertex -1699.618774414062 6665.11865234375 24549.97265625
    vertex -1739.262084960938 -1167.333740234375 24549.97265625
  endloop
endfacet
facet normal -2.712577731878163e-11 -1.198714196480599e-12 -1
  outer loop
    vertex -1739.262084960938 -1167.333740234375 24549.97265625
    vertex -1699.618774414062 6665.11865234375 24549.97265625
    vertex -1686.731079101562 -1241.708374023438 24549.97265625
  endloop
endfacet
facet normal -2.712577731878163e-11 -1.198714196480599e-12 -1
  outer loop
    vertex -1686.731079101562 -1241.708374023438 24549.97265625
    vertex -1699.618774414062 6665.11865234375 24549.97265625
    vertex -1360.44189453125 8094.45654296875 24549.97265625
  endloop
endfacet
facet normal -2.712577731878163e-11 -1.198714196480599e-12 -1
  outer loop
    vertex -1686.731079101562 -1241.708374023438 24549.97265625
    vertex -1360.44189453125 8094.45654296875 24549.97265625
    vertex -1560.105224609375 -1398.248291015625 24549.97265625
  endloop
endfacet
facet normal -2.712577731878163e-11 -1.198714196480599e-12 -1
  outer loop
    vertex -1560.105224609375 -1398.248291015625 24549.97265625
    vertex -1360.44189453125 8094.45654296875 24549.97265625
    vertex -1423.65869140625 -1546.049926757812 24549.97265625
  endloop
endfacet
facet normal -2.712577731878163e-11 -1.198714196480599e-12 -1
  outer loop
    vertex -1423.65869140625 -1546.049926757812 24549.97265625
    vertex -1360.44189453125 8094.45654296875 24549.97265625
    vertex -1277.97607421875 -1684.48046875 24549.97265625
  endloop
endfacet
facet normal -2.712577731878163e-11 -1.198714196480599e-12 -1
  outer loop
    vertex -1277.97607421875 -1684.48046875 24549.97265625
    vertex -1360.44189453125 8094.45654296875 24549.97265625
    vertex -1233.265747070312 8630.3935546875 24549.97265625
  endloop
endfacet
facet normal -2.712577731878163e-11 -1.198714196480599e-12 -1
  outer loop
    vertex -1277.97607421875 -1684.48046875 24549.97265625
    vertex -1233.265747070312 8630.3935546875 24549.97265625
    vertex -1123.681030273438 -1812.947021484375 24549.97265625
  endloop
endfacet
facet normal -2.712577731878163e-11 -1.198714196480599e-12 -1
  outer loop
    vertex -1123.681030273438 -1812.947021484375 24549.97265625
    vertex -1233.265747070312 8630.3935546875 24549.97265625
    vertex -777.297607421875 10112.37890625 24549.97265625
  endloop
endfacet
facet normal -2.712577731878163e-11 -1.198714196480599e-12 -1
  outer loop
    vertex -1123.681030273438 -1812.947021484375 24549.97265625
    vertex -777.297607421875 10112.37890625 24549.97265625
    vertex -1052.453857421875 -1864.728759765625 24549.97265625
  endloop
endfacet
facet normal -2.712577731878163e-11 -1.198714196480599e-12 -1
  outer loop
    vertex -1052.453857421875 -1864.728759765625 24549.97265625
    vertex -777.297607421875 10112.37890625 24549.97265625
    vertex -961.4343872070312 -1930.8994140625 24549.97265625
  endloop
endfacet
facet normal -2.712577731878163e-11 -1.198714196480599e-12 -1
  outer loop
    vertex -961.4343872070312 -1930.8994140625 24549.97265625
    vertex -777.297607421875 10112.37890625 24549.97265625
    vertex -791.93115234375 -2037.832275390625 24549.97265625
  endloop
endfacet
facet normal -2.712577731878163e-11 -1.198714196480599e-12 -1
  outer loop
    vertex -791.93115234375 -2037.832275390625 24549.97265625
    vertex -777.297607421875 10112.37890625 24549.97265625
    vertex -615.8971557617188 -2133.287841796875 24549.97265625
  endloop
endfacet
facet normal -2.712577731878163e-11 -1.198714196480599e-12 -1
  outer loop
    vertex -615.8971557617188 -2133.287841796875 24549.97265625
    vertex -777.297607421875 10112.37890625 24549.97265625
    vertex -639.5776977539062 10559.99609375 24549.97265625
  endloop
endfacet
facet normal -2.712577731878163e-11 -1.198714196480599e-12 -1
  outer loop
    vertex -615.8971557617188 -2133.287841796875 24549.97265625
    vertex -639.5776977539062 10559.99609375 24549.97265625
    vertex 78.83547973632812 12445.44140625 24549.97265625
  endloop
endfacet
facet normal -2.712577731878163e-11 -1.198714196480599e-12 -1
  outer loop
    vertex -615.8971557617188 -2133.287841796875 24549.97265625
    vertex 78.83547973632812 12445.44140625 24549.97265625
    vertex -434.0863037109375 -2216.857421875 24549.97265625
  endloop
endfacet
facet normal -2.712577731878163e-11 -1.198714196480599e-12 -1
  outer loop
    vertex -434.0863037109375 -2216.857421875 24549.97265625
    vertex 78.83547973632812 12445.44140625 24549.97265625
    vertex -247.2772521972656 -2288.182861328125 24549.97265625
  endloop
endfacet
facet normal -2.712577731878163e-11 -1.198714196480599e-12 -1
  outer loop
    vertex -247.2772521972656 -2288.182861328125 24549.97265625
    vertex 78.83547973632812 12445.44140625 24549.97265625
    vertex -185.0137176513672 -2307.34228515625 24549.97265625
  endloop
endfacet
facet normal -2.712577731878163e-11 -1.198714196480599e-12 -1
  outer loop
    vertex -185.0137176513672 -2307.34228515625 24549.97265625
    vertex 78.83547973632812 12445.44140625 24549.97265625
    vertex -107.426025390625 -2331.153076171875 24549.97265625
  endloop
endfacet
facet normal -2.712577731878163e-11 -1.198714196480599e-12 -1
  outer loop
    vertex -107.426025390625 -2331.153076171875 24549.97265625
    vertex 78.83547973632812 12445.44140625 24549.97265625
    vertex -29.23759651184082 -2352.8466796875 24549.97265625
  endloop
endfacet
facet normal -2.712577731878163e-11 -1.198714196480599e-12 -1
  outer loop
    vertex -29.23759651184082 -2352.8466796875 24549.97265625
    vertex 78.83547973632812 12445.44140625 24549.97265625
    vertex 49.49546051025391 -2372.408203125 24549.97265625
  endloop
endfacet
facet normal -2.712577731878163e-11 -1.198714196480599e-12 -1
  outer loop
    vertex 49.49546051025391 -2372.408203125 24549.97265625
    vertex 78.83547973632812 12445.44140625 24549.97265625
    vertex 128.7166595458984 -2389.822998046875 24549.97265625
  endloop
endfacet
facet normal -2.712577731878163e-11 -1.198714196480599e-12 -1
  outer loop
    vertex 128.7166595458984 -2389.822998046875 24549.97265625
    vertex 78.83547973632812 12445.44140625 24549.97265625
    vertex 123.7663040161133 12563.3603515625 24549.97265625
  endloop
endfacet
facet normal -2.712577731878163e-11 -1.198714196480599e-12 -1
  outer loop
    vertex 128.7166595458984 -2389.822998046875 24549.97265625
    vertex 123.7663040161133 12563.3603515625 24549.97265625
    vertex 182.9826049804688 12563.3603515625 24549.97265625
  endloop
endfacet
facet normal -2.712577731878163e-11 -1.198714196480599e-12 -1
  outer loop
    vertex 128.7166595458984 -2389.822998046875 24549.97265625
    vertex 182.9826049804688 12563.3603515625 24549.97265625
    vertex 208.3691558837891 -2405.0791015625 24549.97265625
  endloop
endfacet
facet normal -2.712577731878163e-11 -1.198714196480599e-12 -1
  outer loop
    vertex 208.3691558837891 -2405.0791015625 24549.97265625
    vertex 182.9826049804688 12563.3603515625 24549.97265625
    vertex 1032.982543945312 12563.3603515625 24549.97265625
  endloop
endfacet
facet normal -2.712577731878163e-11 -1.198714196480599e-12 -1
  outer loop
    vertex 208.3691558837891 -2405.0791015625 24549.97265625
    vertex 1032.982543945312 12563.3603515625 24549.97265625
    vertex 288.3958129882812 -2418.1650390625 24549.97265625
  endloop
endfacet
facet normal -2.712577731878163e-11 -1.198714196480599e-12 -1
  outer loop
    vertex 288.3958129882812 -2418.1650390625 24549.97265625
    vertex 1032.982543945312 12563.3603515625 24549.97265625
    vertex 368.7391967773438 -2429.07177734375 24549.97265625
  endloop
endfacet
facet normal -2.712577731878163e-11 -1.198714196480599e-12 -1
  outer loop
    vertex 368.7391967773438 -2429.07177734375 24549.97265625
    vertex 1032.982543945312 12563.3603515625 24549.97265625
    vertex 449.3417053222656 -2437.79150390625 24549.97265625
  endloop
endfacet
facet normal -2.712577731878163e-11 -1.198714196480599e-12 -1
  outer loop
    vertex 449.3417053222656 -2437.79150390625 24549.97265625
    vertex 1032.982543945312 12563.3603515625 24549.97265625
    vertex 530.1454467773438 -2444.31787109375 24549.97265625
  endloop
endfacet
facet normal -2.712577731878163e-11 -1.198714196480599e-12 -1
  outer loop
    vertex 530.1454467773438 -2444.31787109375 24549.97265625
    vertex 1032.982543945312 12563.3603515625 24549.97265625
    vertex 611.092529296875 -2448.64599609375 24549.97265625
  endloop
endfacet
facet normal -2.712577731878163e-11 -1.198714196480599e-12 -1
  outer loop
    vertex 611.092529296875 -2448.64599609375 24549.97265625
    vertex 1032.982543945312 12563.3603515625 24549.97265625
    vertex 692.1248168945312 -2450.773193359375 24549.97265625
  endloop
endfacet
facet normal -2.712577731878163e-11 -1.198714196480599e-12 -1
  outer loop
    vertex 692.1248168945312 -2450.773193359375 24549.97265625
    vertex 1032.982543945312 12563.3603515625 24549.97265625
    vertex 773.1842041015625 -2450.697509765625 24549.97265625
  endloop
endfacet
facet normal -2.712577731878163e-11 -1.198714196480599e-12 -1
  outer loop
    vertex 773.1842041015625 -2450.697509765625 24549.97265625
    vertex 1032.982543945312 12563.3603515625 24549.97265625
    vertex 1657.400512695312 -2413.943603515625 24549.97265625
  endloop
endfacet
facet normal -2.712577731878163e-11 -1.198714196480599e-12 -1
  outer loop
    vertex 1657.400512695312 -2413.943603515625 24549.97265625
    vertex 1032.982543945312 12563.3603515625 24549.97265625
    vertex 6427.1943359375 12563.3603515625 24549.97265625
  endloop
endfacet
facet normal -2.712577731878163e-11 -1.198714196480599e-12 -1
  outer loop
    vertex 1657.400512695312 -2413.943603515625 24549.97265625
    vertex 6427.1943359375 12563.3603515625 24549.97265625
    vertex 2577.12255859375 -2313.910400390625 24549.97265625
  endloop
endfacet
facet normal -2.712577731878163e-11 -1.198714196480599e-12 -1
  outer loop
    vertex 2577.12255859375 -2313.910400390625 24549.97265625
    vertex 6427.1943359375 12563.3603515625 24549.97265625
    vertex 3488.363525390625 -2152.694091796875 24549.97265625
  endloop
endfacet
facet normal -2.712577731878163e-11 -1.198714196480599e-12 -1
  outer loop
    vertex 3488.363525390625 -2152.694091796875 24549.97265625
    vertex 6427.1943359375 12563.3603515625 24549.97265625
    vertex 3558.306640625 -2135.44189453125 24549.97265625
  endloop
endfacet
facet normal -2.712577731878163e-11 -1.198714196480599e-12 -1
  outer loop
    vertex 3558.306640625 -2135.44189453125 24549.97265625
    vertex 6427.1943359375 12563.3603515625 24549.97265625
    vertex 4387.17431640625 -1930.993530273438 24549.97265625
  endloop
endfacet
facet normal -2.712577731878163e-11 -1.198714196480599e-12 -1
  outer loop
    vertex 4387.17431640625 -1930.993530273438 24549.97265625
    vertex 6427.1943359375 12563.3603515625 24549.97265625
    vertex 5269.65869140625 -1649.769775390625 24549.97265625
  endloop
endfacet
facet normal -2.712577731878163e-11 -1.198714196480599e-12 -1
  outer loop
    vertex 5269.65869140625 -1649.769775390625 24549.97265625
    vertex 6427.1943359375 12563.3603515625 24549.97265625
    vertex 5533.375 -1545.936157226562 24549.97265625
  endloop
endfacet
facet normal -2.712577731878163e-11 -1.198714196480599e-12 -1
  outer loop
    vertex 5533.375 -1545.936157226562 24549.97265625
    vertex 6427.1943359375 12563.3603515625 24549.97265625
    vertex 6131.9921875 -1310.241455078125 24549.97265625
  endloop
endfacet
facet normal -2.712577731878163e-11 -1.198714196480599e-12 -1
  outer loop
    vertex 6131.9921875 -1310.241455078125 24549.97265625
    vertex 6427.1943359375 12563.3603515625 24549.97265625
    vertex 6427.1943359375 11813.3603515625 24549.97265625
  endloop
endfacet
facet normal -2.712577731878163e-11 -1.198714196480599e-12 -1
  outer loop
    vertex 6131.9921875 -1310.241455078125 24549.97265625
    vertex 6427.1943359375 11813.3603515625 24549.97265625
    vertex 6970.4365234375 -913.88037109375 24549.97265625
  endloop
endfacet
facet normal -2.712577731878163e-11 -1.198714196480599e-12 -1
  outer loop
    vertex 6970.4365234375 -913.88037109375 24549.97265625
    vertex 6427.1943359375 11813.3603515625 24549.97265625
    vertex 8662.1689453125 11813.3603515625 24549.97265625
  endloop
endfacet
facet normal -2.712577731878163e-11 -1.198714196480599e-12 -1
  outer loop
    vertex 6970.4365234375 -913.88037109375 24549.97265625
    vertex 8662.1689453125 11813.3603515625 24549.97265625
    vertex 7781.35791015625 -462.4044494628906 24549.97265625
  endloop
endfacet
facet normal -2.712577731878163e-11 -1.198714196480599e-12 -1
  outer loop
    vertex 7781.35791015625 -462.4044494628906 24549.97265625
    vertex 8662.1689453125 11813.3603515625 24549.97265625
    vertex 8561.2412109375 42.22943115234375 24549.97265625
  endloop
endfacet
facet normal -2.712577731878163e-11 -1.198714196480599e-12 -1
  outer loop
    vertex 8561.2412109375 42.22943115234375 24549.97265625
    vertex 8662.1689453125 11813.3603515625 24549.97265625
    vertex 8651.9013671875 100.892204284668 24549.97265625
  endloop
endfacet
facet normal -2.712577731878163e-11 -1.198714196480599e-12 -1
  outer loop
    vertex 8651.9013671875 100.892204284668 24549.97265625
    vertex 8662.1689453125 11813.3603515625 24549.97265625
    vertex 8662.1689453125 2705.01806640625 24549.97265625
  endloop
endfacet
facet normal -2.712577731878163e-11 -1.198714196480599e-12 -1
  outer loop
    vertex 8651.9013671875 100.892204284668 24549.97265625
    vertex 8662.1689453125 2705.01806640625 24549.97265625
    vertex 8662.1689453125 100.892204284668 24549.97265625
  endloop
endfacet
facet normal -2.712577731878163e-11 -1.198714196480599e-12 -1
  outer loop
    vertex 8662.1689453125 11813.3603515625 24549.97265625
    vertex 8662.1689453125 6729.55029296875 24549.97265625
    vertex 8662.1689453125 2705.01806640625 24549.97265625
  endloop
endfacet
facet normal -2.712577731878163e-11 -1.198714196480599e-12 -1
  outer loop
    vertex 8662.1689453125 6729.55029296875 24549.97265625
    vertex 8662.1689453125 11813.3603515625 24549.97265625
    vertex 8662.1689453125 9570.3623046875 24549.97265625
  endloop
endfacet
facet normal -2.712577731878163e-11 -1.198714196480599e-12 -1
  outer loop
    vertex 8662.1689453125 5309.14404296875 24549.97265625
    vertex 8662.1689453125 2705.01806640625 24549.97265625
    vertex 8662.1689453125 6729.55029296875 24549.97265625
  endloop
endfacet
facet normal 0.2330268323421478 -0.9724702835083008 -5.188573529157914e-12
  outer loop
    vertex 4387.17431640625 -1930.993530273438 24549.97265625
    vertex 3558.306640625 -2135.44189453125 24949.97265625
    vertex 3558.306640625 -2135.44189453125 24549.97265625
  endloop
endfacet
facet normal 0.2330268323421478 -0.9724702835083008 -5.188573529157914e-12
  outer loop
    vertex 3558.306640625 -2135.44189453125 24949.97265625
    vertex 4387.17431640625 -1930.993530273438 24549.97265625
    vertex 4387.17431640625 -1930.993530273438 24949.97265625
  endloop
endfacet
facet normal 0.2330268323421478 -0.9724702835083008 -5.188573529157914e-12
  outer loop
    vertex 3558.306640625 -2135.44189453125 24949.97265625
    vertex 3488.363525390625 -2152.694091796875 24549.97265625
    vertex 3558.306640625 -2135.44189453125 24549.97265625
  endloop
endfacet
facet normal 0.2330268323421478 -0.9724702835083008 -5.188573529157914e-12
  outer loop
    vertex 3488.363525390625 -2152.694091796875 24549.97265625
    vertex 3558.306640625 -2135.44189453125 24949.97265625
    vertex 3488.363525390625 -2152.694091796875 24949.97265625
  endloop
endfacet
facet normal 0.1693889200687408 -0.98554927110672 -3.447114772445192e-12
  outer loop
    vertex 3488.363525390625 -2152.694091796875 24949.97265625
    vertex 2577.12255859375 -2313.910400390625 24549.97265625
    vertex 3488.363525390625 -2152.694091796875 24549.97265625
  endloop
endfacet
facet normal 0.1693889200687408 -0.98554927110672 -3.447114772445192e-12
  outer loop
    vertex 2577.12255859375 -2313.910400390625 24549.97265625
    vertex 3488.363525390625 -2152.694091796875 24949.97265625
    vertex 2577.12255859375 -2313.910400390625 24949.97265625
  endloop
endfacet
facet normal 0.1050770729780197 -0.994464099407196 -1.692224593959069e-12
  outer loop
    vertex 2577.12255859375 -2313.910400390625 24949.97265625
    vertex 1657.400512695312 -2413.943603515625 24549.97265625
    vertex 2577.12255859375 -2313.910400390625 24549.97265625
  endloop
endfacet
facet normal 0.1050770729780197 -0.994464099407196 -1.692224593959069e-12
  outer loop
    vertex 1657.400512695312 -2413.943603515625 24549.97265625
    vertex 2577.12255859375 -2313.910400390625 24949.97265625
    vertex 1657.400512695312 -2413.943603515625 24949.97265625
  endloop
endfacet
facet normal 0.04034808278083801 -0.9991856813430786 6.909790529465928e-14
  outer loop
    vertex 1657.400512695312 -2413.943603515625 24549.97265625
    vertex 773.1842041015625 -2450.697509765625 24949.97265625
    vertex 773.1842041015625 -2450.697509765625 24549.97265625
  endloop
endfacet
facet normal 0.04034808278083801 -0.9991856813430786 6.909790529465928e-14
  outer loop
    vertex 773.1842041015625 -2450.697509765625 24949.97265625
    vertex 1657.400512695312 -2413.943603515625 24549.97265625
    vertex 1657.400512695312 -2413.943603515625 24949.97265625
  endloop
endfacet
facet normal 0.0009059278527274728 -0.9999995827674866 1.139944909300805e-12
  outer loop
    vertex 773.1842041015625 -2450.697509765625 24949.97265625
    vertex 692.1248168945312 -2450.773193359375 24549.97265625
    vertex 773.1842041015625 -2450.697509765625 24549.97265625
  endloop
endfacet
facet normal 0.0009059278527274728 -0.9999995827674866 1.139944909300805e-12
  outer loop
    vertex 692.1248168945312 -2450.773193359375 24549.97265625
    vertex 773.1842041015625 -2450.697509765625 24949.97265625
    vertex 692.1248168945312 -2450.773193359375 24949.97265625
  endloop
endfacet
facet normal -0.0254928320646286 -0.9996749758720398 1.855653868412799e-12
  outer loop
    vertex 692.1248168945312 -2450.773193359375 24949.97265625
    vertex 611.092529296875 -2448.64599609375 24549.97265625
    vertex 692.1248168945312 -2450.773193359375 24549.97265625
  endloop
endfacet
facet normal -0.0254928320646286 -0.9996749758720398 1.855653868412799e-12
  outer loop
    vertex 611.092529296875 -2448.64599609375 24549.97265625
    vertex 692.1248168945312 -2450.773193359375 24949.97265625
    vertex 611.092529296875 -2448.64599609375 24949.97265625
  endloop
endfacet
facet normal -0.05187486484646797 -0.9986535906791687 2.570097563589502e-12
  outer loop
    vertex 611.092529296875 -2448.64599609375 24949.97265625
    vertex 530.1454467773438 -2444.31787109375 24549.97265625
    vertex 611.092529296875 -2448.64599609375 24549.97265625
  endloop
endfacet
facet normal -0.05187486484646797 -0.9986535906791687 2.570097563589502e-12
  outer loop
    vertex 530.1454467773438 -2444.31787109375 24549.97265625
    vertex 611.092529296875 -2448.64599609375 24949.97265625
    vertex 530.1454467773438 -2444.31787109375 24949.97265625
  endloop
endfacet
facet normal -0.0782228484749794 -0.9969359040260315 3.282806752130663e-12
  outer loop
    vertex 530.1454467773438 -2444.31787109375 24949.97265625
    vertex 449.3417053222656 -2437.79150390625 24549.97265625
    vertex 530.1454467773438 -2444.31787109375 24549.97265625
  endloop
endfacet
facet normal -0.0782228484749794 -0.9969359040260315 3.282806752130663e-12
  outer loop
    vertex 449.3417053222656 -2437.79150390625 24549.97265625
    vertex 530.1454467773438 -2444.31787109375 24949.97265625
    vertex 449.3417053222656 -2437.79150390625 24949.97265625
  endloop
endfacet
facet normal -0.1045194789767265 -0.9945228099822998 3.993313058697767e-12
  outer loop
    vertex 449.3417053222656 -2437.79150390625 24949.97265625
    vertex 368.7391967773438 -2429.07177734375 24549.97265625
    vertex 449.3417053222656 -2437.79150390625 24549.97265625
  endloop
endfacet
facet normal -0.1045194789767265 -0.9945228099822998 3.993313058697767e-12
  outer loop
    vertex 368.7391967773438 -2429.07177734375 24549.97265625
    vertex 449.3417053222656 -2437.79150390625 24949.97265625
    vertex 368.7391967773438 -2429.07177734375 24949.97265625
  endloop
endfacet
facet normal -0.1307474374771118 -0.9914156794548035 4.701148758473606e-12
  outer loop
    vertex 368.7391967773438 -2429.07177734375 24949.97265625
    vertex 288.3958129882812 -2418.1650390625 24549.97265625
    vertex 368.7391967773438 -2429.07177734375 24549.97265625
  endloop
endfacet
facet normal -0.1307474374771118 -0.9914156794548035 4.701148758473606e-12
  outer loop
    vertex 288.3958129882812 -2418.1650390625 24549.97265625
    vertex 368.7391967773438 -2429.07177734375 24949.97265625
    vertex 288.3958129882812 -2418.1650390625 24949.97265625
  endloop
endfacet
facet normal -0.1568894386291504 -0.9876161813735962 5.405846343481402e-12
  outer loop
    vertex 288.3958129882812 -2418.1650390625 24949.97265625
    vertex 208.3691558837891 -2405.0791015625 24549.97265625
    vertex 288.3958129882812 -2418.1650390625 24549.97265625
  endloop
endfacet
facet normal -0.1568894386291504 -0.9876161813735962 5.405846343481402e-12
  outer loop
    vertex 208.3691558837891 -2405.0791015625 24549.97265625
    vertex 288.3958129882812 -2418.1650390625 24949.97265625
    vertex 208.3691558837891 -2405.0791015625 24949.97265625
  endloop
endfacet
facet normal -0.1829281896352768 -0.9831262826919556 6.106939173106118e-12
  outer loop
    vertex 208.3691558837891 -2405.0791015625 24949.97265625
    vertex 128.7166595458984 -2389.822998046875 24549.97265625
    vertex 208.3691558837891 -2405.0791015625 24549.97265625
  endloop
endfacet
facet normal -0.1829281896352768 -0.9831262826919556 6.106939173106118e-12
  outer loop
    vertex 128.7166595458984 -2389.822998046875 24549.97265625
    vertex 208.3691558837891 -2405.0791015625 24949.97265625
    vertex 128.7166595458984 -2389.822998046875 24949.97265625
  endloop
endfacet
facet normal -0.2088464349508286 -0.9779484272003174 6.803961907775324e-12
  outer loop
    vertex 128.7166595458984 -2389.822998046875 24949.97265625
    vertex 49.49546051025391 -2372.408203125 24549.97265625
    vertex 128.7166595458984 -2389.822998046875 24549.97265625
  endloop
endfacet
facet normal -0.2088464349508286 -0.9779484272003174 6.803961907775324e-12
  outer loop
    vertex 49.49546051025391 -2372.408203125 24549.97265625
    vertex 128.7166595458984 -2389.822998046875 24949.97265625
    vertex 49.49546051025391 -2372.408203125 24949.97265625
  endloop
endfacet
facet normal -0.2346269190311432 -0.9720854759216309 7.496450508959196e-12
  outer loop
    vertex 49.49546051025391 -2372.408203125 24949.97265625
    vertex -29.23759651184082 -2352.8466796875 24549.97265625
    vertex 49.49546051025391 -2372.408203125 24549.97265625
  endloop
endfacet
facet normal -0.2346269190311432 -0.9720854759216309 7.496450508959196e-12
  outer loop
    vertex -29.23759651184082 -2352.8466796875 24549.97265625
    vertex 49.49546051025391 -2372.408203125 24949.97265625
    vertex -29.23759651184082 -2352.8466796875 24949.97265625
  endloop
endfacet
facet normal -0.2602524161338806 -0.9655405879020691 8.18394050444704e-12
  outer loop
    vertex -29.23759651184082 -2352.8466796875 24949.97265625
    vertex -107.426025390625 -2331.153076171875 24549.97265625
    vertex -29.23759651184082 -2352.8466796875 24549.97265625
  endloop
endfacet
facet normal -0.2602524161338806 -0.9655405879020691 8.18394050444704e-12
  outer loop
    vertex -107.426025390625 -2331.153076171875 24549.97265625
    vertex -29.23759651184082 -2352.8466796875 24949.97265625
    vertex -107.426025390625 -2331.153076171875 24949.97265625
  endloop
endfacet
facet normal -0.2857057750225067 -0.9583173990249634 8.865970457794248e-12
  outer loop
    vertex -107.426025390625 -2331.153076171875 24949.97265625
    vertex -185.0137176513672 -2307.34228515625 24549.97265625
    vertex -107.426025390625 -2331.153076171875 24549.97265625
  endloop
endfacet
facet normal -0.2857057750225067 -0.9583173990249634 8.865970457794248e-12
  outer loop
    vertex -185.0137176513672 -2307.34228515625 24549.97265625
    vertex -107.426025390625 -2331.153076171875 24949.97265625
    vertex -185.0137176513672 -2307.34228515625 24949.97265625
  endloop
endfacet
facet normal -0.2864140868186951 -0.9581059217453003 8.884937924280578e-12
  outer loop
    vertex -185.0137176513672 -2307.34228515625 24949.97265625
    vertex -247.2772521972656 -2288.182861328125 24549.97265625
    vertex -185.0137176513672 -2307.34228515625 24549.97265625
  endloop
endfacet
facet normal -0.2864140868186951 -0.9581059217453003 8.884937924280578e-12
  outer loop
    vertex -247.2772521972656 -2288.182861328125 24549.97265625
    vertex -185.0137176513672 -2307.34228515625 24949.97265625
    vertex -247.2772521972656 -2288.182861328125 24949.97265625
  endloop
endfacet
facet normal -0.3477656245231628 -0.937581479549408 1.052524473826866e-11
  outer loop
    vertex -247.2772521972656 -2288.182861328125 24949.97265625
    vertex -434.0863037109375 -2216.857421875 24549.97265625
    vertex -247.2772521972656 -2288.182861328125 24549.97265625
  endloop
endfacet
facet normal -0.3477656245231628 -0.937581479549408 1.052524473826866e-11
  outer loop
    vertex -434.0863037109375 -2216.857421875 24549.97265625
    vertex -247.2772521972656 -2288.182861328125 24949.97265625
    vertex -434.0863037109375 -2216.857421875 24949.97265625
  endloop
endfacet
facet normal -0.407734602689743 -0.9131004810333252 1.21234411398774e-11
  outer loop
    vertex -434.0863037109375 -2216.857421875 24949.97265625
    vertex -615.8971557617188 -2133.287841796875 24549.97265625
    vertex -434.0863037109375 -2216.857421875 24549.97265625
  endloop
endfacet
facet normal -0.407734602689743 -0.9131004810333252 1.21234411398774e-11
  outer loop
    vertex -615.8971557617188 -2133.287841796875 24549.97265625
    vertex -434.0863037109375 -2216.857421875 24949.97265625
    vertex -615.8971557617188 -2133.287841796875 24949.97265625
  endloop
endfacet
facet normal -0.4660736620426178 -0.8847458958625793 1.367291436321638e-11
  outer loop
    vertex -615.8971557617188 -2133.287841796875 24949.97265625
    vertex -791.93115234375 -2037.832275390625 24549.97265625
    vertex -615.8971557617188 -2133.287841796875 24549.97265625
  endloop
endfacet
facet normal -0.4660736620426178 -0.8847458958625793 1.367291436321638e-11
  outer loop
    vertex -791.93115234375 -2037.832275390625 24549.97265625
    vertex -615.8971557617188 -2133.287841796875 24949.97265625
    vertex -791.93115234375 -2037.832275390625 24949.97265625
  endloop
endfacet
facet normal -0.5225381255149841 -0.8526158928871155 1.516714184801593e-11
  outer loop
    vertex -791.93115234375 -2037.832275390625 24949.97265625
    vertex -961.4343872070312 -1930.8994140625 24549.97265625
    vertex -791.93115234375 -2037.832275390625 24549.97265625
  endloop
endfacet
facet normal -0.5225381255149841 -0.8526158928871155 1.516714184801593e-11
  outer loop
    vertex -961.4343872070312 -1930.8994140625 24549.97265625
    vertex -791.93115234375 -2037.832275390625 24949.97265625
    vertex -961.4343872070312 -1930.8994140625 24949.97265625
  endloop
endfacet
facet normal -0.576886773109436 -0.8168241381645203 1.659970945422362e-11
  outer loop
    vertex -961.4343872070312 -1930.8994140625 24949.97265625
    vertex -1052.453857421875 -1864.728759765625 24549.97265625
    vertex -961.4343872070312 -1930.8994140625 24549.97265625
  endloop
endfacet
facet normal -0.576886773109436 -0.8168241381645203 1.659970945422362e-11
  outer loop
    vertex -1052.453857421875 -1864.728759765625 24549.97265625
    vertex -961.4343872070312 -1930.8994140625 24949.97265625
    vertex -1052.453857421875 -1864.728759765625 24949.97265625
  endloop
endfacet
facet normal -0.576886773109436 -0.8168241381645203 1.659970945422362e-11
  outer loop
    vertex -1052.453857421875 -1864.728759765625 24549.97265625
    vertex -1123.681030273438 -1812.947021484375 24949.97265625
    vertex -1123.681030273438 -1812.947021484375 24549.97265625
  endloop
endfacet
facet normal -0.576886773109436 -0.8168241381645203 1.659970945422362e-11
  outer loop
    vertex -1123.681030273438 -1812.947021484375 24949.97265625
    vertex -1052.453857421875 -1864.728759765625 24549.97265625
    vertex -1052.453857421875 -1864.728759765625 24949.97265625
  endloop
endfacet
facet normal -0.6288826465606689 -0.7775002121925354 1.796434528911206e-11
  outer loop
    vertex -1123.681030273438 -1812.947021484375 24949.97265625
    vertex -1277.97607421875 -1684.48046875 24549.97265625
    vertex -1123.681030273438 -1812.947021484375 24549.97265625
  endloop
endfacet
facet normal -0.6288826465606689 -0.7775002121925354 1.796434528911206e-11
  outer loop
    vertex -1277.97607421875 -1684.48046875 24549.97265625
    vertex -1123.681030273438 -1812.947021484375 24949.97265625
    vertex -1277.97607421875 -1684.48046875 24949.97265625
  endloop
endfacet
facet normal -0.6782945394515991 -0.7347900867462158 1.925494486076929e-11
  outer loop
    vertex -1277.97607421875 -1684.48046875 24949.97265625
    vertex -1423.65869140625 -1546.049926757812 24549.97265625
    vertex -1277.97607421875 -1684.48046875 24549.97265625
  endloop
endfacet
facet normal -0.6782945394515991 -0.7347900867462158 1.925494486076929e-11
  outer loop
    vertex -1423.65869140625 -1546.049926757812 24549.97265625
    vertex -1277.97607421875 -1684.48046875 24949.97265625
    vertex -1423.65869140625 -1546.049926757812 24949.97265625
  endloop
endfacet
facet normal -0.7248979806900024 -0.6888562440872192 2.04656083746535e-11
  outer loop
    vertex -1423.65869140625 -1546.049926757812 24949.97265625
    vertex -1560.105224609375 -1398.248291015625 24549.97265625
    vertex -1423.65869140625 -1546.049926757812 24549.97265625
  endloop
endfacet
facet normal -0.7248979806900024 -0.6888562440872192 2.04656083746535e-11
  outer loop
    vertex -1560.105224609375 -1398.248291015625 24549.97265625
    vertex -1423.65869140625 -1546.049926757812 24949.97265625
    vertex -1560.105224609375 -1398.248291015625 24949.97265625
  endloop
endfacet
facet normal -0.7684767842292786 -0.6398776769638062 2.159067889750954e-11
  outer loop
    vertex -1560.105224609375 -1398.248291015625 24949.97265625
    vertex -1686.731079101562 -1241.708374023438 24549.97265625
    vertex -1560.105224609375 -1398.248291015625 24549.97265625
  endloop
endfacet
facet normal -0.7684767842292786 -0.6398776769638062 2.159067889750954e-11
  outer loop
    vertex -1686.731079101562 -1241.708374023438 24549.97265625
    vertex -1560.105224609375 -1398.248291015625 24949.97265625
    vertex -1686.731079101562 -1241.708374023438 24949.97265625
  endloop
endfacet
facet normal -0.8088244199752808 -0.5880501866340637 2.262478746017926e-11
  outer loop
    vertex -1686.731079101562 -1241.708374023438 24949.97265625
    vertex -1739.262084960938 -1167.333740234375 24549.97265625
    vertex -1686.731079101562 -1241.708374023438 24549.97265625
  endloop
endfacet
facet normal -0.8088244199752808 -0.5880501866340637 2.262478746017926e-11
  outer loop
    vertex -1739.262084960938 -1167.333740234375 24549.97265625
    vertex -1686.731079101562 -1241.708374023438 24949.97265625
    vertex -1739.262084960938 -1167.333740234375 24949.97265625
  endloop
endfacet
facet normal -0.8088244199752808 -0.5880501866340637 2.262478746017926e-11
  outer loop
    vertex -1739.262084960938 -1167.333740234375 24949.97265625
    vertex -1802.994018554688 -1077.1005859375 24549.97265625
    vertex -1739.262084960938 -1167.333740234375 24549.97265625
  endloop
endfacet
facet normal -0.8088244199752808 -0.5880501866340637 2.262478746017926e-11
  outer loop
    vertex -1802.994018554688 -1077.1005859375 24549.97265625
    vertex -1739.262084960938 -1167.333740234375 24949.97265625
    vertex -1802.994018554688 -1077.1005859375 24949.97265625
  endloop
endfacet
facet normal -0.8457459211349487 -0.533585786819458 2.356288775207105e-11
  outer loop
    vertex -1802.994018554688 -1077.1005859375 24949.97265625
    vertex -1908.396118164062 -905.1301879882812 24549.97265625
    vertex -1802.994018554688 -1077.1005859375 24549.97265625
  endloop
endfacet
facet normal -0.8457459211349487 -0.533585786819458 2.356288775207105e-11
  outer loop
    vertex -1908.396118164062 -905.1301879882812 24549.97265625
    vertex -1802.994018554688 -1077.1005859375 24949.97265625
    vertex -1908.396118164062 -905.1301879882812 24949.97265625
  endloop
endfacet
facet normal -0.8790593147277832 -0.4767123460769653 2.440030816286409e-11
  outer loop
    vertex -1908.396118164062 -905.1301879882812 24949.97265625
    vertex -2002.485961914062 -726.5333862304688 24549.97265625
    vertex -1908.396118164062 -905.1301879882812 24549.97265625
  endloop
endfacet
facet normal -0.8790593147277832 -0.4767123460769653 2.440030816286409e-11
  outer loop
    vertex -2002.485961914062 -726.5333862304688 24549.97265625
    vertex -1908.396118164062 -905.1301879882812 24949.97265625
    vertex -2002.485961914062 -726.5333862304688 24949.97265625
  endloop
endfacet
facet normal -0.908597469329834 -0.4176728427410126 2.51328020894892e-11
  outer loop
    vertex -2002.485961914062 -726.5333862304688 24949.97265625
    vertex -2084.860595703125 -542.0751953125 24549.97265625
    vertex -2002.485961914062 -726.5333862304688 24549.97265625
  endloop
endfacet
facet normal -0.908597469329834 -0.4176728427410126 2.51328020894892e-11
  outer loop
    vertex -2084.860595703125 -542.0751953125 24549.97265625
    vertex -2002.485961914062 -726.5333862304688 24949.97265625
    vertex -2084.860595703125 -542.0751953125 24949.97265625
  endloop
endfacet
facet normal -0.9342096447944641 -0.3567244410514832 2.575657569170442e-11
  outer loop
    vertex -2084.860595703125 -542.0751953125 24949.97265625
    vertex -2155.16748046875 -352.5455017089844 24549.97265625
    vertex -2084.860595703125 -542.0751953125 24549.97265625
  endloop
endfacet
facet normal -0.9342096447944641 -0.3567244410514832 2.575657569170442e-11
  outer loop
    vertex -2155.16748046875 -352.5455017089844 24549.97265625
    vertex -2084.860595703125 -542.0751953125 24949.97265625
    vertex -2155.16748046875 -352.5455017089844 24949.97265625
  endloop
endfacet
facet normal -0.9557632207870483 -0.294137179851532 2.626834860741667e-11
  outer loop
    vertex -2155.16748046875 -352.5455017089844 24949.97265625
    vertex -2174.726806640625 -287.1235961914062 24549.97265625
    vertex -2155.16748046875 -352.5455017089844 24549.97265625
  endloop
endfacet
facet normal -0.9557632207870483 -0.294137179851532 2.626834860741667e-11
  outer loop
    vertex -2174.726806640625 -287.1235961914062 24549.97265625
    vertex -2155.16748046875 -352.5455017089844 24949.97265625
    vertex -2174.726806640625 -287.1235961914062 24949.97265625
  endloop
endfacet
facet normal -0.9557632207870483 -0.294137179851532 2.626834860741667e-11
  outer loop
    vertex -2174.726806640625 -287.1235961914062 24949.97265625
    vertex -2213.10498046875 -158.7560882568359 24549.97265625
    vertex -2174.726806640625 -287.1235961914062 24549.97265625
  endloop
endfacet
facet normal -0.9557632207870483 -0.294137179851532 2.626834860741667e-11
  outer loop
    vertex -2213.10498046875 -158.7560882568359 24549.97265625
    vertex -2174.726806640625 -287.1235961914062 24949.97265625
    vertex -2213.10498046875 -158.7560882568359 24949.97265625
  endloop
endfacet
facet normal -0.9731451272964478 -0.2301925271749496 2.666538170825739e-11
  outer loop
    vertex -2213.10498046875 -158.7560882568359 24949.97265625
    vertex -2258.42529296875 38.46312713623047 24549.97265625
    vertex -2213.10498046875 -158.7560882568359 24549.97265625
  endloop
endfacet
facet normal -0.9731451272964478 -0.2301925271749496 2.666538170825739e-11
  outer loop
    vertex -2258.42529296875 38.46312713623047 24549.97265625
    vertex -2213.10498046875 -158.7560882568359 24949.97265625
    vertex -2258.42529296875 38.46312713623047 24949.97265625
  endloop
endfacet
facet normal -0.9862631559371948 -0.1651816666126251 2.694551179405202e-11
  outer loop
    vertex -2258.42529296875 38.46312713623047 24949.97265625
    vertex -2290.9345703125 238.2675170898438 24549.97265625
    vertex -2258.42529296875 38.46312713623047 24549.97265625
  endloop
endfacet
facet normal -0.9862631559371948 -0.1651816666126251 2.694551179405202e-11
  outer loop
    vertex -2290.9345703125 238.2675170898438 24549.97265625
    vertex -2258.42529296875 38.46312713623047 24949.97265625
    vertex -2290.9345703125 238.2675170898438 24949.97265625
  endloop
endfacet
facet normal -0.9950472116470337 -0.09940356016159058 2.710718628728959e-11
  outer loop
    vertex -2290.9345703125 238.2675170898438 24949.97265625
    vertex -2310.4931640625 439.8013916015625 24549.97265625
    vertex -2290.9345703125 238.2675170898438 24549.97265625
  endloop
endfacet
facet normal -0.9950472116470337 -0.09940356016159058 2.710718628728959e-11
  outer loop
    vertex -2310.4931640625 439.8013916015625 24549.97265625
    vertex -2290.9345703125 238.2675170898438 24949.97265625
    vertex -2310.4931640625 439.8013916015625 24949.97265625
  endloop
endfacet
facet normal -0.9994499683380127 -0.03316286951303482 2.714947537618695e-11
  outer loop
    vertex -2310.4931640625 439.8013916015625 24949.97265625
    vertex -2315.720703125 601.9722900390625 24549.97265625
    vertex -2310.4931640625 439.8013916015625 24549.97265625
  endloop
endfacet
facet normal -0.9994499683380127 -0.03316286951303482 2.714947537618695e-11
  outer loop
    vertex -2315.720703125 601.9722900390625 24549.97265625
    vertex -2310.4931640625 439.8013916015625 24949.97265625
    vertex -2315.720703125 601.9722900390625 24949.97265625
  endloop
endfacet
facet normal -0.01937429420650005 0.9998123049736023 -6.387579809703781e-13
  outer loop
    vertex -2315.720703125 601.9722900390625 24949.97265625
    vertex -2315.447509765625 601.9777221679688 24549.97265625
    vertex -2315.720703125 601.9722900390625 24549.97265625
  endloop
endfacet
facet normal -0.01937429420650005 0.9998123049736023 -6.387579809703781e-13
  outer loop
    vertex -2315.447509765625 601.9777221679688 24549.97265625
    vertex -2315.720703125 601.9722900390625 24949.97265625
    vertex -2315.447509765625 601.9777221679688 24949.97265625
  endloop
endfacet
facet normal -0.9998010993003845 -0.01994297467172146 2.714360680666772e-11
  outer loop
    vertex -2315.447509765625 601.9777221679688 24949.97265625
    vertex -2316.26318359375 644.0745239257812 24549.97265625
    vertex -2315.447509765625 601.9777221679688 24549.97265625
  endloop
endfacet
facet normal -0.9998010993003845 -0.01994297467172146 2.714360680666772e-11
  outer loop
    vertex -2316.26318359375 644.0745239257812 24549.97265625
    vertex -2315.447509765625 601.9777221679688 24949.97265625
    vertex -2316.26318359375 644.0745239257812 24949.97265625
  endloop
endfacet
facet normal 0.01937429420650005 -0.9998123049736023 6.387579809703781e-13
  outer loop
    vertex -2316.26318359375 644.0745239257812 24949.97265625
    vertex -2316.948974609375 644.0608520507812 24549.97265625
    vertex -2316.26318359375 644.0745239257812 24549.97265625
  endloop
endfacet
facet normal 0.01937429420650005 -0.9998123049736023 6.387579809703781e-13
  outer loop
    vertex -2316.948974609375 644.0608520507812 24549.97265625
    vertex -2316.26318359375 644.0745239257812 24949.97265625
    vertex -2316.948974609375 644.0608520507812 24949.97265625
  endloop
endfacet
facet normal -0.9992834329605103 0.03784952312707901 2.706226388815569e-11
  outer loop
    vertex -2316.948974609375 644.0608520507812 24949.97265625
    vertex -2315.44091796875 685.0484008789062 24549.97265625
    vertex -2316.948974609375 644.0608520507812 24549.97265625
  endloop
endfacet
facet normal -0.9992834329605103 0.03784952312707901 2.706226388815569e-11
  outer loop
    vertex -2315.44091796875 685.0484008789062 24549.97265625
    vertex -2316.948974609375 644.0608520507812 24949.97265625
    vertex -2315.44091796875 685.0484008789062 24949.97265625
  endloop
endfacet
facet normal -0.9992834329605103 0.03784952312707901 2.706226388815569e-11
  outer loop
    vertex -2315.44091796875 685.0484008789062 24949.97265625
    vertex -2246.5908203125 2556.16650390625 24549.97265625
    vertex -2315.44091796875 685.0484008789062 24549.97265625
  endloop
endfacet
facet normal -0.9992834329605103 0.03784952312707901 2.706226388815569e-11
  outer loop
    vertex -2246.5908203125 2556.16650390625 24549.97265625
    vertex -2315.44091796875 685.0484008789062 24949.97265625
    vertex -2246.5908203125 2556.16650390625 24949.97265625
  endloop
endfacet
facet normal -0.9992834329605103 0.03784952312707901 2.706226388815569e-11
  outer loop
    vertex -2246.5908203125 2556.16650390625 24949.97265625
    vertex -2242.688232421875 2662.22412109375 24549.97265625
    vertex -2246.5908203125 2556.16650390625 24549.97265625
  endloop
endfacet
facet normal -0.9992834329605103 0.03784952312707901 2.706226388815569e-11
  outer loop
    vertex -2242.688232421875 2662.22412109375 24549.97265625
    vertex -2246.5908203125 2556.16650390625 24949.97265625
    vertex -2242.688232421875 2662.22412109375 24949.97265625
  endloop
endfacet
facet normal -0.9944790005683899 0.1049357205629349 2.685381604583537e-11
  outer loop
    vertex -2242.688232421875 2662.22412109375 24949.97265625
    vertex -2038.989624023438 4649.36767578125 24549.97265625
    vertex -2242.688232421875 2662.22412109375 24549.97265625
  endloop
endfacet
facet normal -0.9944790005683899 0.1049357205629349 2.685381604583537e-11
  outer loop
    vertex -2038.989624023438 4649.36767578125 24549.97265625
    vertex -2242.688232421875 2662.22412109375 24949.97265625
    vertex -2038.989624023438 4649.36767578125 24949.97265625
  endloop
endfacet
facet normal -0.9944790005683899 0.1049357205629349 2.685381604583537e-11
  outer loop
    vertex -2038.989624023438 4649.36767578125 24949.97265625
    vertex -2036.586669921875 4672.8095703125 24549.97265625
    vertex -2038.989624023438 4649.36767578125 24549.97265625
  endloop
endfacet
facet normal -0.9944790005683899 0.1049357205629349 2.685381604583537e-11
  outer loop
    vertex -2036.586669921875 4672.8095703125 24549.97265625
    vertex -2038.989624023438 4649.36767578125 24949.97265625
    vertex -2036.586669921875 4672.8095703125 24949.97265625
  endloop
endfacet
facet normal -0.9851804971694946 0.1715207099914551 2.652404858249913e-11
  outer loop
    vertex -2036.586669921875 4672.8095703125 24949.97265625
    vertex -1699.618774414062 6665.11865234375 24549.97265625
    vertex -2036.586669921875 4672.8095703125 24549.97265625
  endloop
endfacet
facet normal -0.9851804971694946 0.1715207099914551 2.652404858249913e-11
  outer loop
    vertex -1699.618774414062 6665.11865234375 24549.97265625
    vertex -2036.586669921875 4672.8095703125 24949.97265625
    vertex -1699.618774414062 6665.11865234375 24949.97265625
  endloop
endfacet
facet normal -0.9714393019676208 0.2372881472110748 2.607472050775161e-11
  outer loop
    vertex -1699.618774414062 6665.11865234375 24949.97265625
    vertex -1360.44189453125 8094.45654296875 24549.97265625
    vertex -1699.618774414062 6665.11865234375 24549.97265625
  endloop
endfacet
facet normal -0.9714393019676208 0.2372881472110748 2.607472050775161e-11
  outer loop
    vertex -1360.44189453125 8094.45654296875 24549.97265625
    vertex -1699.618774414062 6665.11865234375 24949.97265625
    vertex -1360.44189453125 8094.45654296875 24949.97265625
  endloop
endfacet
facet normal -0.9714393019676208 0.2372881472110748 2.607472050775161e-11
  outer loop
    vertex -1360.44189453125 8094.45654296875 24949.97265625
    vertex -1233.265747070312 8630.3935546875 24549.97265625
    vertex -1360.44189453125 8094.45654296875 24549.97265625
  endloop
endfacet
facet normal -0.9714393019676208 0.2372881472110748 2.607472050775161e-11
  outer loop
    vertex -1233.265747070312 8630.3935546875 24549.97265625
    vertex -1360.44189453125 8094.45654296875 24949.97265625
    vertex -1233.265747070312 8630.3935546875 24949.97265625
  endloop
endfacet
facet normal -0.9533307552337646 0.3019278347492218 2.550823788305401e-11
  outer loop
    vertex -1233.265747070312 8630.3935546875 24949.97265625
    vertex -777.297607421875 10112.37890625 24549.97265625
    vertex -1233.265747070312 8630.3935546875 24549.97265625
  endloop
endfacet
facet normal -0.9533307552337646 0.3019278347492218 2.550823788305401e-11
  outer loop
    vertex -777.297607421875 10112.37890625 24549.97265625
    vertex -1233.265747070312 8630.3935546875 24949.97265625
    vertex -777.297607421875 10112.37890625 24949.97265625
  endloop
endfacet
facet normal -0.9533307552337646 0.3019278347492218 2.550823788305401e-11
  outer loop
    vertex -777.297607421875 10112.37890625 24949.97265625
    vertex -639.5776977539062 10559.99609375 24549.97265625
    vertex -777.297607421875 10112.37890625 24549.97265625
  endloop
endfacet
facet normal -0.9533307552337646 0.3019278347492218 2.550823788305401e-11
  outer loop
    vertex -639.5776977539062 10559.99609375 24549.97265625
    vertex -777.297607421875 10112.37890625 24949.97265625
    vertex -639.5776977539062 10559.99609375 24949.97265625
  endloop
endfacet
facet normal -0.9309533834457397 0.3651380836963654 2.482762433142494e-11
  outer loop
    vertex -639.5776977539062 10559.99609375 24949.97265625
    vertex 78.83547973632812 12445.44140625 24549.97265625
    vertex -639.5776977539062 10559.99609375 24549.97265625
  endloop
endfacet
facet normal -0.9309533834457397 0.3651380836963654 2.482762433142494e-11
  outer loop
    vertex 78.83547973632812 12445.44140625 24549.97265625
    vertex -639.5776977539062 10559.99609375 24949.97265625
    vertex 78.83547973632812 12445.44140625 24949.97265625
  endloop
endfacet
facet normal -0.9309533834457397 0.3651380836963654 2.482762433142494e-11
  outer loop
    vertex 78.83547973632812 12445.44140625 24949.97265625
    vertex 123.7663040161133 12563.3603515625 24549.97265625
    vertex 78.83547973632812 12445.44140625 24549.97265625
  endloop
endfacet
facet normal -0.9309533834457397 0.3651380836963654 2.482762433142494e-11
  outer loop
    vertex 123.7663040161133 12563.3603515625 24549.97265625
    vertex 78.83547973632812 12445.44140625 24949.97265625
    vertex 123.7663040161133 12563.3603515625 24949.97265625
  endloop
endfacet
facet normal -7.738273563595577e-12 1 -1.164519327322144e-12
  outer loop
    vertex 123.7663040161133 12563.3603515625 24949.97265625
    vertex 182.9826049804688 12563.3603515625 24549.97265625
    vertex 123.7663040161133 12563.3603515625 24549.97265625
  endloop
endfacet
facet normal -7.738273563595577e-12 1 -1.164519327322144e-12
  outer loop
    vertex 182.9826049804688 12563.3603515625 24549.97265625
    vertex 123.7663040161133 12563.3603515625 24949.97265625
    vertex 182.9826049804688 12563.3603515625 24949.97265625
  endloop
endfacet
facet normal 0 1 -1.164519327322144e-12
  outer loop
    vertex 182.9826049804688 12563.3603515625 24949.97265625
    vertex 1032.982543945312 12563.3603515625 24549.97265625
    vertex 182.9826049804688 12563.3603515625 24549.97265625
  endloop
endfacet
facet normal 0 1 -1.164519327322144e-12
  outer loop
    vertex 1032.982543945312 12563.3603515625 24549.97265625
    vertex 182.9826049804688 12563.3603515625 24949.97265625
    vertex 1032.982543945312 12563.3603515625 24949.97265625
  endloop
endfacet
facet normal 0 1 -1.164519327322144e-12
  outer loop
    vertex 1032.982543945312 12563.3603515625 24949.97265625
    vertex 6427.1943359375 12563.3603515625 24549.97265625
    vertex 1032.982543945312 12563.3603515625 24549.97265625
  endloop
endfacet
facet normal 0 1 -1.164519327322144e-12
  outer loop
    vertex 6427.1943359375 12563.3603515625 24549.97265625
    vertex 1032.982543945312 12563.3603515625 24949.97265625
    vertex 6427.1943359375 12563.3603515625 24949.97265625
  endloop
endfacet
facet normal 7.186556037763747e-13 1 -1.164519327322144e-12
  outer loop
    vertex 6427.1943359375 12563.3603515625 24549.97265625
    vertex 6432.982421875 12563.3603515625 24949.97265625
    vertex 6432.982421875 12563.3603515625 24549.97265625
  endloop
endfacet
facet normal 7.186556037763747e-13 1 -1.164519327322144e-12
  outer loop
    vertex 6432.982421875 12563.3603515625 24949.97265625
    vertex 6427.1943359375 12563.3603515625 24549.97265625
    vertex 6427.1943359375 12563.3603515625 24949.97265625
  endloop
endfacet
facet normal 1 3.662168970310596e-15 -2.712577731878163e-11
  outer loop
    vertex 6427.1943359375 12563.3603515625 24549.97265625
    vertex 6427.1943359375 11813.3603515625 24949.97265625
    vertex 6427.1943359375 11813.3603515625 24549.97265625
  endloop
endfacet
facet normal 1 3.662168970310596e-15 -2.712577731878163e-11
  outer loop
    vertex 6427.1943359375 11813.3603515625 24949.97265625
    vertex 6427.1943359375 12563.3603515625 24549.97265625
    vertex 6427.1943359375 12563.3603515625 24949.97265625
  endloop
endfacet
facet normal -8.603088944361681e-13 1 -1.164519327322144e-12
  outer loop
    vertex 6427.1943359375 11813.3603515625 24549.97265625
    vertex 8662.1689453125 11813.3603515625 24949.97265625
    vertex 8662.1689453125 11813.3603515625 24549.97265625
  endloop
endfacet
facet normal -8.603088944361681e-13 1 -1.164519327322144e-12
  outer loop
    vertex 8662.1689453125 11813.3603515625 24949.97265625
    vertex 6427.1943359375 11813.3603515625 24549.97265625
    vertex 6427.1943359375 11813.3603515625 24949.97265625
  endloop
endfacet
facet normal 1 -1.009823599523382e-13 -2.712577731878163e-11
  outer loop
    vertex 8662.1689453125 11813.3603515625 24549.97265625
    vertex 8662.1689453125 9570.3623046875 24949.97265625
    vertex 8662.1689453125 9570.3623046875 24549.97265625
  endloop
endfacet
facet normal 1 -1.009823599523382e-13 -2.712577731878163e-11
  outer loop
    vertex 8662.1689453125 9570.3623046875 24949.97265625
    vertex 8662.1689453125 11813.3603515625 24549.97265625
    vertex 8662.1689453125 11813.3603515625 24949.97265625
  endloop
endfacet
facet normal 1 -2.920318284069245e-12 -2.712577731878163e-11
  outer loop
    vertex 8662.1689453125 9570.3623046875 24549.97265625
    vertex 8662.1689453125 6729.55029296875 24949.97265625
    vertex 8662.1689453125 6729.55029296875 24549.97265625
  endloop
endfacet
facet normal 1 -2.920318284069245e-12 -2.712577731878163e-11
  outer loop
    vertex 8662.1689453125 6729.55029296875 24949.97265625
    vertex 8662.1689453125 9570.3623046875 24549.97265625
    vertex 8662.1689453125 9570.3623046875 24949.97265625
  endloop
endfacet
facet normal 1 1.556437869902618e-23 -2.712577731878163e-11
  outer loop
    vertex 8662.1689453125 6729.55029296875 24549.97265625
    vertex 8662.1689453125 5309.14404296875 24949.97265625
    vertex 8662.1689453125 5309.14404296875 24549.97265625
  endloop
endfacet
facet normal 1 1.556437869902618e-23 -2.712577731878163e-11
  outer loop
    vertex 8662.1689453125 5309.14404296875 24949.97265625
    vertex 8662.1689453125 6729.55029296875 24549.97265625
    vertex 8662.1689453125 6729.55029296875 24949.97265625
  endloop
endfacet
facet normal 1 -8.45802703049181e-13 -2.712577731878163e-11
  outer loop
    vertex 8662.1689453125 5309.14404296875 24549.97265625
    vertex 8662.1689453125 2705.01806640625 24949.97265625
    vertex 8662.1689453125 2705.01806640625 24549.97265625
  endloop
endfacet
facet normal 1 -8.45802703049181e-13 -2.712577731878163e-11
  outer loop
    vertex 8662.1689453125 2705.01806640625 24949.97265625
    vertex 8662.1689453125 5309.14404296875 24549.97265625
    vertex 8662.1689453125 5309.14404296875 24949.97265625
  endloop
endfacet
facet normal 1 1.368008787847041e-12 -2.712577731878163e-11
  outer loop
    vertex 8662.1689453125 2705.01806640625 24549.97265625
    vertex 8662.1689453125 100.892204284668 24949.97265625
    vertex 8662.1689453125 100.892204284668 24549.97265625
  endloop
endfacet
facet normal 1 1.368008787847041e-12 -2.712577731878163e-11
  outer loop
    vertex 8662.1689453125 100.892204284668 24949.97265625
    vertex 8662.1689453125 2705.01806640625 24549.97265625
    vertex 8662.1689453125 2705.01806640625 24949.97265625
  endloop
endfacet
facet normal -8.038130379274433e-23 -1 1.164519327322144e-12
  outer loop
    vertex 8662.1689453125 100.892204284668 24549.97265625
    vertex 8651.9013671875 100.892204284668 24949.97265625
    vertex 8651.9013671875 100.892204284668 24549.97265625
  endloop
endfacet
facet normal -8.038130379274433e-23 -1 1.164519327322144e-12
  outer loop
    vertex 8651.9013671875 100.892204284668 24949.97265625
    vertex 8662.1689453125 100.892204284668 24549.97265625
    vertex 8662.1689453125 100.892204284668 24949.97265625
  endloop
endfacet
facet normal 0.5321916937828064 -0.8466238975524902 -1.345020449183831e-11
  outer loop
    vertex 8651.9013671875 100.892204284668 24549.97265625
    vertex 8561.2412109375 42.22943115234375 24949.97265625
    vertex 8561.2412109375 42.22943115234375 24549.97265625
  endloop
endfacet
facet normal 0.5321916937828064 -0.8466238975524902 -1.345020449183831e-11
  outer loop
    vertex 8561.2412109375 42.22943115234375 24949.97265625
    vertex 8651.9013671875 100.892204284668 24549.97265625
    vertex 8651.9013671875 100.892204284668 24949.97265625
  endloop
endfacet
facet normal 0.5321916937828064 -0.8466238975524902 -1.345020449183831e-11
  outer loop
    vertex 8561.2412109375 42.22943115234375 24949.97265625
    vertex 7781.35791015625 -462.4044494628906 24549.97265625
    vertex 8561.2412109375 42.22943115234375 24549.97265625
  endloop
endfacet
facet normal 0.5321916937828064 -0.8466238975524902 -1.345020449183831e-11
  outer loop
    vertex 7781.35791015625 -462.4044494628906 24549.97265625
    vertex 8561.2412109375 42.22943115234375 24949.97265625
    vertex 7781.35791015625 -462.4044494628906 24949.97265625
  endloop
endfacet
facet normal 0.475736141204834 -0.8795880675315857 -1.188041505451043e-11
  outer loop
    vertex 7781.35791015625 -462.4044494628906 24949.97265625
    vertex 6970.4365234375 -913.88037109375 24549.97265625
    vertex 7781.35791015625 -462.4044494628906 24549.97265625
  endloop
endfacet
facet normal 0.475736141204834 -0.8795880675315857 -1.188041505451043e-11
  outer loop
    vertex 6970.4365234375 -913.88037109375 24549.97265625
    vertex 7781.35791015625 -462.4044494628906 24949.97265625
    vertex 6970.4365234375 -913.88037109375 24949.97265625
  endloop
endfacet
facet normal 0.4173418879508972 -0.908749520778656 -1.026246709140421e-11
  outer loop
    vertex 6970.4365234375 -913.88037109375 24949.97265625
    vertex 6131.9921875 -1310.241455078125 24549.97265625
    vertex 6970.4365234375 -913.88037109375 24549.97265625
  endloop
endfacet
facet normal 0.4173418879508972 -0.908749520778656 -1.026246709140421e-11
  outer loop
    vertex 6131.9921875 -1310.241455078125 24549.97265625
    vertex 6970.4365234375 -913.88037109375 24949.97265625
    vertex 6131.9921875 -1310.241455078125 24949.97265625
  endloop
endfacet
facet normal 0.3572576344013214 -0.9340058565139771 -8.603223168590635e-12
  outer loop
    vertex 6131.9921875 -1310.241455078125 24949.97265625
    vertex 5533.375 -1545.936157226562 24549.97265625
    vertex 6131.9921875 -1310.241455078125 24549.97265625
  endloop
endfacet
facet normal 0.3572576344013214 -0.9340058565139771 -8.603223168590635e-12
  outer loop
    vertex 5533.375 -1545.936157226562 24549.97265625
    vertex 6131.9921875 -1310.241455078125 24949.97265625
    vertex 5533.375 -1545.936157226562 24949.97265625
  endloop
endfacet
facet normal 0.3572576344013214 -0.9340058565139771 -8.603223168590635e-12
  outer loop
    vertex 5533.375 -1545.936157226562 24549.97265625
    vertex 5269.65869140625 -1649.769775390625 24949.97265625
    vertex 5269.65869140625 -1649.769775390625 24549.97265625
  endloop
endfacet
facet normal 0.3572576344013214 -0.9340058565139771 -8.603223168590635e-12
  outer loop
    vertex 5269.65869140625 -1649.769775390625 24949.97265625
    vertex 5533.375 -1545.936157226562 24549.97265625
    vertex 5533.375 -1545.936157226562 24949.97265625
  endloop
endfacet
facet normal 0.2957347631454468 -0.9552701115608215 -6.909604832738836e-12
  outer loop
    vertex 5269.65869140625 -1649.769775390625 24949.97265625
    vertex 4387.17431640625 -1930.993530273438 24549.97265625
    vertex 5269.65869140625 -1649.769775390625 24549.97265625
  endloop
endfacet
facet normal 0.2957347631454468 -0.9552701115608215 -6.909604832738836e-12
  outer loop
    vertex 4387.17431640625 -1930.993530273438 24549.97265625
    vertex 5269.65869140625 -1649.769775390625 24949.97265625
    vertex 4387.17431640625 -1930.993530273438 24949.97265625
  endloop
endfacet
endsolid com.sketchup.SketchUp.2019
