solid com.sketchup.SketchUp.2019
facet normal 1.090328169084387e-06 -8.493676659782068e-07 -1
  outer loop
    vertex 18425.333984375 8563.3603515625 24549.96484375
    vertex 12317.9208984375 723.3114013671875 24549.96484375
    vertex 12317.9208984375 8563.3603515625 24549.96484375
  endloop
endfacet
facet normal 1.090328169084387e-06 -8.493676659782068e-07 -1
  outer loop
    vertex 12317.9208984375 723.3114013671875 24549.96484375
    vertex 18425.333984375 8563.3603515625 24549.96484375
    vertex 18425.333984375 723.3114013671875 24549.978515625
  endloop
endfacet
facet normal -1.090328169084387e-06 8.493676659782068e-07 1
  outer loop
    vertex 18425.333984375 723.3117065429688 24949.978515625
    vertex 12317.9208984375 8563.361328125 24949.96484375
    vertex 12317.9208984375 723.3117065429688 24949.96484375
  endloop
endfacet
facet normal -1.090328169084387e-06 8.493676659782068e-07 1
  outer loop
    vertex 12317.9208984375 8563.361328125 24949.96484375
    vertex 18425.333984375 723.3117065429688 24949.978515625
    vertex 18425.333984375 8563.361328125 24949.96484375
  endloop
endfacet
facet normal 0 1 -8.493676659782068e-07
  outer loop
    vertex 12317.9208984375 8563.361328125 24949.96484375
    vertex 18425.333984375 8563.3603515625 24549.96484375
    vertex 12317.9208984375 8563.3603515625 24549.96484375
  endloop
endfacet
facet normal 0 1 -8.493676659782068e-07
  outer loop
    vertex 18425.333984375 8563.3603515625 24549.96484375
    vertex 12317.9208984375 8563.361328125 24949.96484375
    vertex 18425.333984375 8563.361328125 24949.96484375
  endloop
endfacet
facet normal 1 1.852179000449983e-12 1.090328169084387e-06
  outer loop
    vertex 18425.333984375 8563.3603515625 24549.96484375
    vertex 18425.333984375 723.3117065429688 24949.978515625
    vertex 18425.333984375 723.3114013671875 24549.978515625
  endloop
endfacet
facet normal 1 1.852179000449983e-12 1.090328169084387e-06
  outer loop
    vertex 18425.333984375 723.3117065429688 24949.978515625
    vertex 18425.333984375 8563.3603515625 24549.96484375
    vertex 18425.333984375 8563.361328125 24949.96484375
  endloop
endfacet
facet normal -1.852179000449983e-12 -1 8.493676659782068e-07
  outer loop
    vertex 18425.333984375 723.3114013671875 24549.978515625
    vertex 12317.9208984375 723.3117065429688 24949.96484375
    vertex 12317.9208984375 723.3114013671875 24549.96484375
  endloop
endfacet
facet normal -1.852179000449983e-12 -1 8.493676659782068e-07
  outer loop
    vertex 12317.9208984375 723.3117065429688 24949.96484375
    vertex 18425.333984375 723.3114013671875 24549.978515625
    vertex 18425.333984375 723.3117065429688 24949.978515625
  endloop
endfacet
facet normal -1 0 -1.090328169084387e-06
  outer loop
    vertex 12317.9208984375 723.3117065429688 24949.96484375
    vertex 12317.9208984375 8563.3603515625 24549.96484375
    vertex 12317.9208984375 723.3114013671875 24549.96484375
  endloop
endfacet
facet normal -1 0 -1.090328169084387e-06
  outer loop
    vertex 12317.9208984375 8563.3603515625 24549.96484375
    vertex 12317.9208984375 723.3117065429688 24949.96484375
    vertex 12317.9208984375 8563.361328125 24949.96484375
  endloop
endfacet
endsolid com.sketchup.SketchUp.2019
