solid com.sketchup.SketchUp.2019
facet normal 2.110851930363652e-17 -3.222818750981744e-17 -1
  outer loop
    vertex 33517.921875 17413.361328125 24549.97265625
    vertex 24817.921875 11813.3603515625 24549.97265625
    vertex 24817.921875 17413.361328125 24549.97265625
  endloop
endfacet
facet normal 2.110851930363652e-17 -3.222818750981744e-17 -1
  outer loop
    vertex 24817.921875 11813.3603515625 24549.97265625
    vertex 33517.921875 17413.361328125 24549.97265625
    vertex 33517.921875 11813.3603515625 24549.97265625
  endloop
endfacet
facet normal -2.110851930363652e-17 3.222818750981744e-17 1
  outer loop
    vertex 33517.921875 11813.3603515625 24949.97265625
    vertex 24817.921875 17413.361328125 24949.97265625
    vertex 24817.921875 11813.3603515625 24949.97265625
  endloop
endfacet
facet normal -2.110851930363652e-17 3.222818750981744e-17 1
  outer loop
    vertex 24817.921875 17413.361328125 24949.97265625
    vertex 33517.921875 11813.3603515625 24949.97265625
    vertex 33517.921875 17413.361328125 24949.97265625
  endloop
endfacet
facet normal -1 -1.360578691424141e-33 -2.110851930363652e-17
  outer loop
    vertex 24817.921875 17413.361328125 24949.97265625
    vertex 24817.921875 11813.3603515625 24549.97265625
    vertex 24817.921875 11813.3603515625 24949.97265625
  endloop
endfacet
facet normal -1 -1.360578691424141e-33 -2.110851930363652e-17
  outer loop
    vertex 24817.921875 11813.3603515625 24549.97265625
    vertex 24817.921875 17413.361328125 24949.97265625
    vertex 24817.921875 17413.361328125 24549.97265625
  endloop
endfacet
facet normal 1.360578691424141e-33 1 -3.222818750981744e-17
  outer loop
    vertex 24817.921875 17413.361328125 24949.97265625
    vertex 33517.921875 17413.361328125 24549.97265625
    vertex 24817.921875 17413.361328125 24549.97265625
  endloop
endfacet
facet normal 1.360578691424141e-33 1 -3.222818750981744e-17
  outer loop
    vertex 33517.921875 17413.361328125 24549.97265625
    vertex 24817.921875 17413.361328125 24949.97265625
    vertex 33517.921875 17413.361328125 24949.97265625
  endloop
endfacet
facet normal 1 0 2.110851930363652e-17
  outer loop
    vertex 33517.921875 17413.361328125 24549.97265625
    vertex 33517.921875 11813.3603515625 24949.97265625
    vertex 33517.921875 11813.3603515625 24549.97265625
  endloop
endfacet
facet normal 1 0 2.110851930363652e-17
  outer loop
    vertex 33517.921875 11813.3603515625 24949.97265625
    vertex 33517.921875 17413.361328125 24549.97265625
    vertex 33517.921875 17413.361328125 24949.97265625
  endloop
endfacet
facet normal 0 -1 3.222818750981744e-17
  outer loop
    vertex 33517.921875 11813.3603515625 24949.97265625
    vertex 24817.921875 11813.3603515625 24549.97265625
    vertex 33517.921875 11813.3603515625 24549.97265625
  endloop
endfacet
facet normal 0 -1 3.222818750981744e-17
  outer loop
    vertex 24817.921875 11813.3603515625 24549.97265625
    vertex 33517.921875 11813.3603515625 24949.97265625
    vertex 24817.921875 11813.3603515625 24949.97265625
  endloop
endfacet
endsolid com.sketchup.SketchUp.2019
