solid com.sketchup.SketchUp.2019
facet normal -2.979751727983037e-17 2.301998976981998e-17 -1
  outer loop
    vertex 24482.142578125 8563.3603515625 24549.984375
    vertex 18425.333984375 723.311279296875 24549.984375
    vertex 18425.333984375 8563.3603515625 24549.984375
  endloop
endfacet
facet normal -2.979751727983037e-17 2.301998976981998e-17 -1
  outer loop
    vertex 18425.333984375 723.311279296875 24549.984375
    vertex 24482.142578125 8563.3603515625 24549.984375
    vertex 24482.142578125 723.311279296875 24549.984375
  endloop
endfacet
facet normal 2.979751727983037e-17 -2.301998976981998e-17 1
  outer loop
    vertex 24482.142578125 723.311279296875 24949.9765625
    vertex 18425.333984375 8563.3603515625 24949.9765625
    vertex 18425.333984375 723.311279296875 24949.9765625
  endloop
endfacet
facet normal 2.979751727983037e-17 -2.301998976981998e-17 1
  outer loop
    vertex 18425.333984375 8563.3603515625 24949.9765625
    vertex 24482.142578125 723.311279296875 24949.9765625
    vertex 24482.142578125 8563.3603515625 24949.9765625
  endloop
endfacet
facet normal -1 -1.371877212516459e-33 2.979751727983037e-17
  outer loop
    vertex 18425.333984375 8563.3603515625 24949.9765625
    vertex 18425.333984375 723.311279296875 24549.984375
    vertex 18425.333984375 723.311279296875 24949.9765625
  endloop
endfacet
facet normal -1 -1.371877212516459e-33 2.979751727983037e-17
  outer loop
    vertex 18425.333984375 723.311279296875 24549.984375
    vertex 18425.333984375 8563.3603515625 24949.9765625
    vertex 18425.333984375 8563.3603515625 24549.984375
  endloop
endfacet
facet normal 1.371877212516459e-33 1 2.301998976981998e-17
  outer loop
    vertex 18425.333984375 8563.3603515625 24549.984375
    vertex 24482.142578125 8563.3603515625 24949.9765625
    vertex 24482.142578125 8563.3603515625 24549.984375
  endloop
endfacet
facet normal 1.371877212516459e-33 1 2.301998976981998e-17
  outer loop
    vertex 24482.142578125 8563.3603515625 24949.9765625
    vertex 18425.333984375 8563.3603515625 24549.984375
    vertex 18425.333984375 8563.3603515625 24949.9765625
  endloop
endfacet
facet normal 1 0 -2.979751727983037e-17
  outer loop
    vertex 24482.142578125 8563.3603515625 24549.984375
    vertex 24482.142578125 723.311279296875 24949.9765625
    vertex 24482.142578125 723.311279296875 24549.984375
  endloop
endfacet
facet normal 1 0 -2.979751727983037e-17
  outer loop
    vertex 24482.142578125 723.311279296875 24949.9765625
    vertex 24482.142578125 8563.3603515625 24549.984375
    vertex 24482.142578125 8563.3603515625 24949.9765625
  endloop
endfacet
facet normal -0 -1 -2.301998976981998e-17
  outer loop
    vertex 24482.142578125 723.311279296875 24949.9765625
    vertex 18425.333984375 723.311279296875 24549.984375
    vertex 24482.142578125 723.311279296875 24549.984375
  endloop
endfacet
facet normal -0 -1 -2.301998976981998e-17
  outer loop
    vertex 18425.333984375 723.311279296875 24549.984375
    vertex 24482.142578125 723.311279296875 24949.9765625
    vertex 18425.333984375 723.311279296875 24949.9765625
  endloop
endfacet
endsolid com.sketchup.SketchUp.2019
