solid com.sketchup.SketchUp.2019
facet normal -0 -0 -1
  outer loop
    vertex 36517.921875 17473.505859375 24549.97265625
    vertex 33468.59765625 13514.505859375 24549.97265625
    vertex 33468.59765625 17473.505859375 24549.97265625
  endloop
endfacet
facet normal -0 -0 -1
  outer loop
    vertex 33468.59765625 13514.505859375 24549.97265625
    vertex 36517.921875 17473.505859375 24549.97265625
    vertex 36517.921875 13514.505859375 24549.97265625
  endloop
endfacet
facet normal 0 0 1
  outer loop
    vertex 36517.921875 13514.505859375 24949.97265625
    vertex 33468.59765625 17473.505859375 24949.97265625
    vertex 33468.59765625 13514.505859375 24949.97265625
  endloop
endfacet
facet normal 0 0 1
  outer loop
    vertex 33468.59765625 17473.505859375 24949.97265625
    vertex 36517.921875 13514.505859375 24949.97265625
    vertex 36517.921875 17473.505859375 24949.97265625
  endloop
endfacet
facet normal -1 0 0
  outer loop
    vertex 33468.59765625 17473.505859375 24949.97265625
    vertex 33468.59765625 13514.505859375 24549.97265625
    vertex 33468.59765625 13514.505859375 24949.97265625
  endloop
endfacet
facet normal -1 0 0
  outer loop
    vertex 33468.59765625 13514.505859375 24549.97265625
    vertex 33468.59765625 17473.505859375 24949.97265625
    vertex 33468.59765625 17473.505859375 24549.97265625
  endloop
endfacet
facet normal 0 -1 0
  outer loop
    vertex 36517.921875 13514.505859375 24949.97265625
    vertex 33468.59765625 13514.505859375 24549.97265625
    vertex 36517.921875 13514.505859375 24549.97265625
  endloop
endfacet
facet normal 0 -1 0
  outer loop
    vertex 33468.59765625 13514.505859375 24549.97265625
    vertex 36517.921875 13514.505859375 24949.97265625
    vertex 33468.59765625 13514.505859375 24949.97265625
  endloop
endfacet
facet normal 1 0 0
  outer loop
    vertex 36517.921875 17473.505859375 24549.97265625
    vertex 36517.921875 13514.505859375 24949.97265625
    vertex 36517.921875 13514.505859375 24549.97265625
  endloop
endfacet
facet normal 1 0 0
  outer loop
    vertex 36517.921875 13514.505859375 24949.97265625
    vertex 36517.921875 17473.505859375 24549.97265625
    vertex 36517.921875 17473.505859375 24949.97265625
  endloop
endfacet
facet normal 0 1 0
  outer loop
    vertex 33468.59765625 17473.505859375 24949.97265625
    vertex 36517.921875 17473.505859375 24549.97265625
    vertex 33468.59765625 17473.505859375 24549.97265625
  endloop
endfacet
facet normal 0 1 0
  outer loop
    vertex 36517.921875 17473.505859375 24549.97265625
    vertex 33468.59765625 17473.505859375 24949.97265625
    vertex 36517.921875 17473.505859375 24949.97265625
  endloop
endfacet
endsolid com.sketchup.SketchUp.2019
