solid com.sketchup.SketchUp.2019
facet normal -1.121855348173995e-06 8.494491225974343e-07 -1
  outer loop
    vertex 30417.921875 8563.3603515625 24549.984375
    vertex 24482.142578125 724.061279296875 24549.984375
    vertex 24482.142578125 8563.3603515625 24549.984375
  endloop
endfacet
facet normal -1.121855348173995e-06 8.494491225974343e-07 -1
  outer loop
    vertex 24482.142578125 724.061279296875 24549.984375
    vertex 30417.921875 8563.3603515625 24549.984375
    vertex 30417.921875 724.061279296875 24549.97265625
  endloop
endfacet
facet normal 1.121855348173995e-06 -8.494491225974343e-07 1
  outer loop
    vertex 30417.921875 724.0609130859375 24949.97265625
    vertex 24482.142578125 8563.3603515625 24949.984375
    vertex 24482.142578125 724.0609130859375 24949.984375
  endloop
endfacet
facet normal 1.121855348173995e-06 -8.494491225974343e-07 1
  outer loop
    vertex 24482.142578125 8563.3603515625 24949.984375
    vertex 30417.921875 724.0609130859375 24949.97265625
    vertex 30417.921875 8563.3603515625 24949.984375
  endloop
endfacet
facet normal -1 0 1.121855348173995e-06
  outer loop
    vertex 24482.142578125 8563.3603515625 24949.984375
    vertex 24482.142578125 724.061279296875 24549.984375
    vertex 24482.142578125 724.0609130859375 24949.984375
  endloop
endfacet
facet normal -1 0 1.121855348173995e-06
  outer loop
    vertex 24482.142578125 724.061279296875 24549.984375
    vertex 24482.142578125 8563.3603515625 24949.984375
    vertex 24482.142578125 8563.3603515625 24549.984375
  endloop
endfacet
facet normal 0 1 8.494491225974343e-07
  outer loop
    vertex 24482.142578125 8563.3603515625 24949.984375
    vertex 30417.921875 8563.3603515625 24549.984375
    vertex 24482.142578125 8563.3603515625 24549.984375
  endloop
endfacet
facet normal 0 1 8.494491225974343e-07
  outer loop
    vertex 30417.921875 8563.3603515625 24549.984375
    vertex 24482.142578125 8563.3603515625 24949.984375
    vertex 30417.921875 8563.3603515625 24949.984375
  endloop
endfacet
facet normal 1 1.90591813165053e-12 -1.121855348173995e-06
  outer loop
    vertex 30417.921875 724.061279296875 24549.97265625
    vertex 30417.921875 8563.3603515625 24949.984375
    vertex 30417.921875 724.0609130859375 24949.97265625
  endloop
endfacet
facet normal 1 1.90591813165053e-12 -1.121855348173995e-06
  outer loop
    vertex 30417.921875 8563.3603515625 24949.984375
    vertex 30417.921875 724.061279296875 24549.97265625
    vertex 30417.921875 8563.3603515625 24549.984375
  endloop
endfacet
facet normal -1.90591813165053e-12 -1 -8.494491225974343e-07
  outer loop
    vertex 30417.921875 724.0609130859375 24949.97265625
    vertex 24482.142578125 724.061279296875 24549.984375
    vertex 30417.921875 724.061279296875 24549.97265625
  endloop
endfacet
facet normal -1.90591813165053e-12 -1 -8.494491225974343e-07
  outer loop
    vertex 24482.142578125 724.061279296875 24549.984375
    vertex 30417.921875 724.0609130859375 24949.97265625
    vertex 24482.142578125 724.0609130859375 24949.984375
  endloop
endfacet
endsolid com.sketchup.SketchUp.2019
