solid com.sketchup.SketchUp.2019
facet normal -9.378994150210929e-07 8.494491225974343e-07 -1
  outer loop
    vertex 37517.921875 8563.3603515625 24549.984375
    vertex 30417.921875 724.061279296875 24549.984375
    vertex 30417.921875 8563.3603515625 24549.984375
  endloop
endfacet
facet normal -9.378994150210929e-07 8.494491225974343e-07 -1
  outer loop
    vertex 30417.921875 724.061279296875 24549.984375
    vertex 37517.921875 8563.3603515625 24549.984375
    vertex 37517.921875 724.061279296875 24549.97265625
  endloop
endfacet
facet normal 9.378994150210929e-07 -8.494491225974343e-07 1
  outer loop
    vertex 37517.921875 724.0609130859375 24949.96484375
    vertex 30417.921875 8563.3603515625 24949.978515625
    vertex 30417.921875 724.0609130859375 24949.978515625
  endloop
endfacet
facet normal 9.378994150210929e-07 -8.494491225974343e-07 1
  outer loop
    vertex 30417.921875 8563.3603515625 24949.978515625
    vertex 37517.921875 724.0609130859375 24949.96484375
    vertex 37517.921875 8563.3603515625 24949.978515625
  endloop
endfacet
facet normal 0 1 8.494491225974343e-07
  outer loop
    vertex 30417.921875 8563.3603515625 24949.978515625
    vertex 37517.921875 8563.3603515625 24549.984375
    vertex 30417.921875 8563.3603515625 24549.984375
  endloop
endfacet
facet normal 0 1 8.494491225974343e-07
  outer loop
    vertex 37517.921875 8563.3603515625 24549.984375
    vertex 30417.921875 8563.3603515625 24949.978515625
    vertex 37517.921875 8563.3603515625 24949.978515625
  endloop
endfacet
facet normal 1 1.593395662809194e-12 -9.378994150210929e-07
  outer loop
    vertex 37517.921875 724.061279296875 24549.97265625
    vertex 37517.921875 8563.3603515625 24949.978515625
    vertex 37517.921875 724.0609130859375 24949.96484375
  endloop
endfacet
facet normal 1 1.593395662809194e-12 -9.378994150210929e-07
  outer loop
    vertex 37517.921875 8563.3603515625 24949.978515625
    vertex 37517.921875 724.061279296875 24549.97265625
    vertex 37517.921875 8563.3603515625 24549.984375
  endloop
endfacet
facet normal -1.593395662809194e-12 -1 -8.494491225974343e-07
  outer loop
    vertex 37517.921875 724.0609130859375 24949.96484375
    vertex 30417.921875 724.061279296875 24549.984375
    vertex 37517.921875 724.061279296875 24549.97265625
  endloop
endfacet
facet normal -1.593395662809194e-12 -1 -8.494491225974343e-07
  outer loop
    vertex 30417.921875 724.061279296875 24549.984375
    vertex 37517.921875 724.0609130859375 24949.96484375
    vertex 30417.921875 724.0609130859375 24949.978515625
  endloop
endfacet
facet normal -1 0 9.378994150210929e-07
  outer loop
    vertex 30417.921875 8563.3603515625 24949.978515625
    vertex 30417.921875 724.061279296875 24549.984375
    vertex 30417.921875 724.0609130859375 24949.978515625
  endloop
endfacet
facet normal -1 0 9.378994150210929e-07
  outer loop
    vertex 30417.921875 724.061279296875 24549.984375
    vertex 30417.921875 8563.3603515625 24949.978515625
    vertex 30417.921875 8563.3603515625 24549.984375
  endloop
endfacet
endsolid com.sketchup.SketchUp.2019
