solid com.sketchup.SketchUp.2019
facet normal 9.883452776193735e-07 -9.953679409591132e-07 -1
  outer loop
    vertex 30867.921875 7473.50537109375 28049.986328125
    vertex 24867.921875 783.4319458007812 28049.986328125
    vertex 24867.921875 7473.50537109375 28049.97265625
  endloop
endfacet
facet normal 9.883452776193735e-07 -9.953679409591132e-07 -1
  outer loop
    vertex 24867.921875 783.4319458007812 28049.986328125
    vertex 30867.921875 7473.50537109375 28049.986328125
    vertex 30867.921875 783.4319458007812 28049.986328125
  endloop
endfacet
facet normal -9.883452776193735e-07 9.953679409591132e-07 1
  outer loop
    vertex 30867.919921875 783.432373046875 28449.986328125
    vertex 24867.919921875 7473.505859375 28449.97265625
    vertex 24867.919921875 783.432373046875 28449.986328125
  endloop
endfacet
facet normal -9.883452776193735e-07 9.953679409591132e-07 1
  outer loop
    vertex 24867.919921875 7473.505859375 28449.97265625
    vertex 30867.919921875 783.432373046875 28449.986328125
    vertex 30867.919921875 7473.505859375 28449.986328125
  endloop
endfacet
facet normal -1 -1.967534425315054e-12 -9.883452776193735e-07
  outer loop
    vertex 24867.919921875 783.432373046875 28449.986328125
    vertex 24867.921875 7473.50537109375 28049.97265625
    vertex 24867.921875 783.4319458007812 28049.986328125
  endloop
endfacet
facet normal -1 -1.967534425315054e-12 -9.883452776193735e-07
  outer loop
    vertex 24867.921875 7473.50537109375 28049.97265625
    vertex 24867.919921875 783.432373046875 28449.986328125
    vertex 24867.919921875 7473.505859375 28449.97265625
  endloop
endfacet
facet normal 1.967534425315054e-12 1 -9.953679409591132e-07
  outer loop
    vertex 24867.919921875 7473.505859375 28449.97265625
    vertex 30867.921875 7473.50537109375 28049.986328125
    vertex 24867.921875 7473.50537109375 28049.97265625
  endloop
endfacet
facet normal 1.967534425315054e-12 1 -9.953679409591132e-07
  outer loop
    vertex 30867.921875 7473.50537109375 28049.986328125
    vertex 24867.919921875 7473.505859375 28449.97265625
    vertex 30867.919921875 7473.505859375 28449.986328125
  endloop
endfacet
facet normal 1 0 9.883452776193735e-07
  outer loop
    vertex 30867.921875 7473.50537109375 28049.986328125
    vertex 30867.919921875 783.432373046875 28449.986328125
    vertex 30867.921875 783.4319458007812 28049.986328125
  endloop
endfacet
facet normal 1 0 9.883452776193735e-07
  outer loop
    vertex 30867.919921875 783.432373046875 28449.986328125
    vertex 30867.921875 7473.50537109375 28049.986328125
    vertex 30867.919921875 7473.505859375 28449.986328125
  endloop
endfacet
facet normal 0 -1 9.953679409591132e-07
  outer loop
    vertex 30867.919921875 783.432373046875 28449.986328125
    vertex 24867.921875 783.4319458007812 28049.986328125
    vertex 30867.921875 783.4319458007812 28049.986328125
  endloop
endfacet
facet normal 0 -1 9.953679409591132e-07
  outer loop
    vertex 24867.921875 783.4319458007812 28049.986328125
    vertex 30867.919921875 783.432373046875 28449.986328125
    vertex 24867.919921875 783.432373046875 28449.986328125
  endloop
endfacet
endsolid com.sketchup.SketchUp.2019
