solid com.sketchup.SketchUp.2019
facet normal -2.712577731878163e-11 -1.198714196480599e-12 -1
  outer loop
    vertex -2264.69091796875 790.2335205078125 31549.984375
    vertex -2265.51318359375 749.2595825195312 31549.984375
    vertex -2266.198974609375 749.2459106445312 31549.984375
  endloop
endfacet
facet normal -2.712577731878163e-11 -1.198714196480599e-12 -1
  outer loop
    vertex -2265.51318359375 749.2595825195312 31549.984375
    vertex -2264.69091796875 790.2335205078125 31549.984375
    vertex -2264.697509765625 707.162841796875 31549.984375
  endloop
endfacet
facet normal -2.712577731878163e-11 -1.198714196480599e-12 -1
  outer loop
    vertex -2264.697509765625 707.162841796875 31549.984375
    vertex -2259.7431640625 544.9865112304688 31549.984375
    vertex -2264.970703125 707.1574096679688 31549.984375
  endloop
endfacet
facet normal -2.712577731878163e-11 -1.198714196480599e-12 -1
  outer loop
    vertex -2259.7431640625 544.9865112304688 31549.984375
    vertex -2264.697509765625 707.162841796875 31549.984375
    vertex -2264.69091796875 790.2335205078125 31549.984375
  endloop
endfacet
facet normal -2.712577731878163e-11 -1.198714196480599e-12 -1
  outer loop
    vertex -2259.7431640625 544.9865112304688 31549.984375
    vertex -2264.69091796875 790.2335205078125 31549.984375
    vertex -2195.8408203125 2661.3515625 31549.984375
  endloop
endfacet
facet normal -2.712577731878163e-11 -1.198714196480599e-12 -1
  outer loop
    vertex -2259.7431640625 544.9865112304688 31549.984375
    vertex -2195.8408203125 2661.3515625 31549.984375
    vertex -2240.1845703125 343.4526062011719 31549.984375
  endloop
endfacet
facet normal -2.712577731878163e-11 -1.198714196480599e-12 -1
  outer loop
    vertex -2240.1845703125 343.4526062011719 31549.984375
    vertex -2195.8408203125 2661.3515625 31549.984375
    vertex -2207.67529296875 143.6482238769531 31549.984375
  endloop
endfacet
facet normal -2.712577731878163e-11 -1.198714196480599e-12 -1
  outer loop
    vertex -2207.67529296875 143.6482238769531 31549.984375
    vertex -2195.8408203125 2661.3515625 31549.984375
    vertex -2162.35498046875 -53.57099914550781 31549.984375
  endloop
endfacet
facet normal -2.712577731878163e-11 -1.198714196480599e-12 -1
  outer loop
    vertex -2162.35498046875 -53.57099914550781 31549.984375
    vertex -2195.8408203125 2661.3515625 31549.984375
    vertex -2191.938232421875 2767.4091796875 31549.984375
  endloop
endfacet
facet normal -2.712577731878163e-11 -1.198714196480599e-12 -1
  outer loop
    vertex -2162.35498046875 -53.57099914550781 31549.984375
    vertex -2191.938232421875 2767.4091796875 31549.984375
    vertex -1988.239624023438 4754.552734375 31549.984375
  endloop
endfacet
facet normal -2.712577731878163e-11 -1.198714196480599e-12 -1
  outer loop
    vertex -2162.35498046875 -53.57099914550781 31549.984375
    vertex -1988.239624023438 4754.552734375 31549.984375
    vertex -2123.976806640625 -181.9384918212891 31549.984375
  endloop
endfacet
facet normal -2.712577731878163e-11 -1.198714196480599e-12 -1
  outer loop
    vertex -2123.976806640625 -181.9384918212891 31549.984375
    vertex -1988.239624023438 4754.552734375 31549.984375
    vertex -2104.41748046875 -247.3604125976562 31549.984375
  endloop
endfacet
facet normal -2.712577731878163e-11 -1.198714196480599e-12 -1
  outer loop
    vertex -2104.41748046875 -247.3604125976562 31549.984375
    vertex -1988.239624023438 4754.552734375 31549.984375
    vertex -2034.110595703125 -436.8900756835938 31549.984375
  endloop
endfacet
facet normal -2.712577731878163e-11 -1.198714196480599e-12 -1
  outer loop
    vertex -2034.110595703125 -436.8900756835938 31549.984375
    vertex -1988.239624023438 4754.552734375 31549.984375
    vertex -1951.735961914062 -621.3482666015625 31549.984375
  endloop
endfacet
facet normal -2.712577731878163e-11 -1.198714196480599e-12 -1
  outer loop
    vertex -1951.735961914062 -621.3482666015625 31549.984375
    vertex -1988.239624023438 4754.552734375 31549.984375
    vertex -1985.836669921875 4777.99462890625 31549.984375
  endloop
endfacet
facet normal -2.712577731878163e-11 -1.198714196480599e-12 -1
  outer loop
    vertex -1951.735961914062 -621.3482666015625 31549.984375
    vertex -1985.836669921875 4777.99462890625 31549.984375
    vertex -1648.868774414062 6770.3037109375 31549.984375
  endloop
endfacet
facet normal -2.712577731878163e-11 -1.198714196480599e-12 -1
  outer loop
    vertex -1951.735961914062 -621.3482666015625 31549.984375
    vertex -1648.868774414062 6770.3037109375 31549.984375
    vertex -1857.646118164062 -799.945068359375 31549.984375
  endloop
endfacet
facet normal -2.712577731878163e-11 -1.198714196480599e-12 -1
  outer loop
    vertex -1857.646118164062 -799.945068359375 31549.984375
    vertex -1648.868774414062 6770.3037109375 31549.984375
    vertex -1752.244018554688 -971.91552734375 31549.984375
  endloop
endfacet
facet normal -2.712577731878163e-11 -1.198714196480599e-12 -1
  outer loop
    vertex -1752.244018554688 -971.91552734375 31549.984375
    vertex -1648.868774414062 6770.3037109375 31549.984375
    vertex -1688.512084960938 -1062.148681640625 31549.984375
  endloop
endfacet
facet normal -2.712577731878163e-11 -1.198714196480599e-12 -1
  outer loop
    vertex -1688.512084960938 -1062.148681640625 31549.984375
    vertex -1648.868774414062 6770.3037109375 31549.984375
    vertex -1635.981079101562 -1136.523193359375 31549.984375
  endloop
endfacet
facet normal -2.712577731878163e-11 -1.198714196480599e-12 -1
  outer loop
    vertex -1635.981079101562 -1136.523193359375 31549.984375
    vertex -1648.868774414062 6770.3037109375 31549.984375
    vertex -1309.69189453125 8199.6416015625 31549.984375
  endloop
endfacet
facet normal -2.712577731878163e-11 -1.198714196480599e-12 -1
  outer loop
    vertex -1635.981079101562 -1136.523193359375 31549.984375
    vertex -1309.69189453125 8199.6416015625 31549.984375
    vertex -1509.355224609375 -1293.063110351562 31549.984375
  endloop
endfacet
facet normal -2.712577731878163e-11 -1.198714196480599e-12 -1
  outer loop
    vertex -1509.355224609375 -1293.063110351562 31549.984375
    vertex -1309.69189453125 8199.6416015625 31549.984375
    vertex -1372.90869140625 -1440.864868164062 31549.984375
  endloop
endfacet
facet normal -2.712577731878163e-11 -1.198714196480599e-12 -1
  outer loop
    vertex -1372.90869140625 -1440.864868164062 31549.984375
    vertex -1309.69189453125 8199.6416015625 31549.984375
    vertex -1227.22607421875 -1579.29541015625 31549.984375
  endloop
endfacet
facet normal -2.712577731878163e-11 -1.198714196480599e-12 -1
  outer loop
    vertex -1227.22607421875 -1579.29541015625 31549.984375
    vertex -1309.69189453125 8199.6416015625 31549.984375
    vertex -1182.515747070312 8735.5791015625 31549.984375
  endloop
endfacet
facet normal -2.712577731878163e-11 -1.198714196480599e-12 -1
  outer loop
    vertex -1227.22607421875 -1579.29541015625 31549.984375
    vertex -1182.515747070312 8735.5791015625 31549.984375
    vertex -1072.931030273438 -1707.761962890625 31549.984375
  endloop
endfacet
facet normal -2.712577731878163e-11 -1.198714196480599e-12 -1
  outer loop
    vertex -1072.931030273438 -1707.761962890625 31549.984375
    vertex -1182.515747070312 8735.5791015625 31549.984375
    vertex -726.547607421875 10217.564453125 31549.984375
  endloop
endfacet
facet normal -2.712577731878163e-11 -1.198714196480599e-12 -1
  outer loop
    vertex -1072.931030273438 -1707.761962890625 31549.984375
    vertex -726.547607421875 10217.564453125 31549.984375
    vertex -1001.703796386719 -1759.543701171875 31549.984375
  endloop
endfacet
facet normal -2.712577731878163e-11 -1.198714196480599e-12 -1
  outer loop
    vertex -1001.703796386719 -1759.543701171875 31549.984375
    vertex -726.547607421875 10217.564453125 31549.984375
    vertex -910.6843872070312 -1825.714233398438 31549.984375
  endloop
endfacet
facet normal -2.712577731878163e-11 -1.198714196480599e-12 -1
  outer loop
    vertex -910.6843872070312 -1825.714233398438 31549.984375
    vertex -726.547607421875 10217.564453125 31549.984375
    vertex -741.18115234375 -1932.647216796875 31549.984375
  endloop
endfacet
facet normal -2.712577731878163e-11 -1.198714196480599e-12 -1
  outer loop
    vertex -741.18115234375 -1932.647216796875 31549.984375
    vertex -726.547607421875 10217.564453125 31549.984375
    vertex -565.1471557617188 -2028.102783203125 31549.984375
  endloop
endfacet
facet normal -2.712577731878163e-11 -1.198714196480599e-12 -1
  outer loop
    vertex -565.1471557617188 -2028.102783203125 31549.984375
    vertex -726.547607421875 10217.564453125 31549.984375
    vertex -588.8276977539062 10665.1806640625 31549.984375
  endloop
endfacet
facet normal -2.712577731878163e-11 -1.198714196480599e-12 -1
  outer loop
    vertex -565.1471557617188 -2028.102783203125 31549.984375
    vertex -588.8276977539062 10665.1806640625 31549.984375
    vertex 129.5854797363281 12550.626953125 31549.984375
  endloop
endfacet
facet normal -2.712577731878163e-11 -1.198714196480599e-12 -1
  outer loop
    vertex -565.1471557617188 -2028.102783203125 31549.984375
    vertex 129.5854797363281 12550.626953125 31549.984375
    vertex -383.3363037109375 -2111.67236328125 31549.984375
  endloop
endfacet
facet normal -2.712577731878163e-11 -1.198714196480599e-12 -1
  outer loop
    vertex -383.3363037109375 -2111.67236328125 31549.984375
    vertex 129.5854797363281 12550.626953125 31549.984375
    vertex -196.5272521972656 -2182.997802734375 31549.984375
  endloop
endfacet
facet normal -2.712577731878163e-11 -1.198714196480599e-12 -1
  outer loop
    vertex -196.5272521972656 -2182.997802734375 31549.984375
    vertex 129.5854797363281 12550.626953125 31549.984375
    vertex -134.2637176513672 -2202.1572265625 31549.984375
  endloop
endfacet
facet normal -2.712577731878163e-11 -1.198714196480599e-12 -1
  outer loop
    vertex -134.2637176513672 -2202.1572265625 31549.984375
    vertex 129.5854797363281 12550.626953125 31549.984375
    vertex -56.67602157592773 -2225.9677734375 31549.984375
  endloop
endfacet
facet normal -2.712577731878163e-11 -1.198714196480599e-12 -1
  outer loop
    vertex -56.67602157592773 -2225.9677734375 31549.984375
    vertex 129.5854797363281 12550.626953125 31549.984375
    vertex 21.51240348815918 -2247.66162109375 31549.984375
  endloop
endfacet
facet normal -2.712577731878163e-11 -1.198714196480599e-12 -1
  outer loop
    vertex 21.51240348815918 -2247.66162109375 31549.984375
    vertex 129.5854797363281 12550.626953125 31549.984375
    vertex 100.2454605102539 -2267.22314453125 31549.984375
  endloop
endfacet
facet normal -2.712577731878163e-11 -1.198714196480599e-12 -1
  outer loop
    vertex 100.2454605102539 -2267.22314453125 31549.984375
    vertex 129.5854797363281 12550.626953125 31549.984375
    vertex 179.4666595458984 -2284.637939453125 31549.984375
  endloop
endfacet
facet normal -2.712577731878163e-11 -1.198714196480599e-12 -1
  outer loop
    vertex 179.4666595458984 -2284.637939453125 31549.984375
    vertex 129.5854797363281 12550.626953125 31549.984375
    vertex 174.5162963867188 12668.5458984375 31549.984375
  endloop
endfacet
facet normal -2.712577731878163e-11 -1.198714196480599e-12 -1
  outer loop
    vertex 179.4666595458984 -2284.637939453125 31549.984375
    vertex 174.5162963867188 12668.5458984375 31549.984375
    vertex 233.7326049804688 12668.5458984375 31549.984375
  endloop
endfacet
facet normal -2.712577731878163e-11 -1.198714196480599e-12 -1
  outer loop
    vertex 179.4666595458984 -2284.637939453125 31549.984375
    vertex 233.7326049804688 12668.5458984375 31549.984375
    vertex 259.1191711425781 -2299.89404296875 31549.984375
  endloop
endfacet
facet normal -2.712577731878163e-11 -1.198714196480599e-12 -1
  outer loop
    vertex 259.1191711425781 -2299.89404296875 31549.984375
    vertex 233.7326049804688 12668.5458984375 31549.984375
    vertex 1083.732543945312 12668.5458984375 31549.984375
  endloop
endfacet
facet normal -2.712577731878163e-11 -1.198714196480599e-12 -1
  outer loop
    vertex 259.1191711425781 -2299.89404296875 31549.984375
    vertex 1083.732543945312 12668.5458984375 31549.984375
    vertex 339.1458129882812 -2312.97998046875 31549.984375
  endloop
endfacet
facet normal -2.712577731878163e-11 -1.198714196480599e-12 -1
  outer loop
    vertex 339.1458129882812 -2312.97998046875 31549.984375
    vertex 1083.732543945312 12668.5458984375 31549.984375
    vertex 419.4891967773438 -2323.88671875 31549.984375
  endloop
endfacet
facet normal -2.712577731878163e-11 -1.198714196480599e-12 -1
  outer loop
    vertex 419.4891967773438 -2323.88671875 31549.984375
    vertex 1083.732543945312 12668.5458984375 31549.984375
    vertex 500.0917053222656 -2332.6064453125 31549.984375
  endloop
endfacet
facet normal -2.712577731878163e-11 -1.198714196480599e-12 -1
  outer loop
    vertex 500.0917053222656 -2332.6064453125 31549.984375
    vertex 1083.732543945312 12668.5458984375 31549.984375
    vertex 580.8954467773438 -2339.1328125 31549.984375
  endloop
endfacet
facet normal -2.712577731878163e-11 -1.198714196480599e-12 -1
  outer loop
    vertex 580.8954467773438 -2339.1328125 31549.984375
    vertex 1083.732543945312 12668.5458984375 31549.984375
    vertex 661.842529296875 -2343.4609375 31549.984375
  endloop
endfacet
facet normal -2.712577731878163e-11 -1.198714196480599e-12 -1
  outer loop
    vertex 661.842529296875 -2343.4609375 31549.984375
    vertex 1083.732543945312 12668.5458984375 31549.984375
    vertex 742.8748168945312 -2345.588134765625 31549.984375
  endloop
endfacet
facet normal -2.712577731878163e-11 -1.198714196480599e-12 -1
  outer loop
    vertex 742.8748168945312 -2345.588134765625 31549.984375
    vertex 1083.732543945312 12668.5458984375 31549.984375
    vertex 823.9342041015625 -2345.512451171875 31549.984375
  endloop
endfacet
facet normal -2.712577731878163e-11 -1.198714196480599e-12 -1
  outer loop
    vertex 823.9342041015625 -2345.512451171875 31549.984375
    vertex 1083.732543945312 12668.5458984375 31549.984375
    vertex 1708.150512695312 -2308.758544921875 31549.984375
  endloop
endfacet
facet normal -2.712577731878163e-11 -1.198714196480599e-12 -1
  outer loop
    vertex 1708.150512695312 -2308.758544921875 31549.984375
    vertex 1083.732543945312 12668.5458984375 31549.984375
    vertex 6427.1943359375 12668.5458984375 31549.984375
  endloop
endfacet
facet normal -2.712577731878163e-11 -1.198714196480599e-12 -1
  outer loop
    vertex 1708.150512695312 -2308.758544921875 31549.984375
    vertex 6427.1943359375 12668.5458984375 31549.984375
    vertex 2627.87255859375 -2208.725341796875 31549.984375
  endloop
endfacet
facet normal -2.712577731878163e-11 -1.198714196480599e-12 -1
  outer loop
    vertex 2627.87255859375 -2208.725341796875 31549.984375
    vertex 6427.1943359375 12668.5458984375 31549.984375
    vertex 3539.113525390625 -2047.509033203125 31549.984375
  endloop
endfacet
facet normal -2.712577731878163e-11 -1.198714196480599e-12 -1
  outer loop
    vertex 3539.113525390625 -2047.509033203125 31549.984375
    vertex 6427.1943359375 12668.5458984375 31549.984375
    vertex 3609.056640625 -2030.256958007812 31549.984375
  endloop
endfacet
facet normal -2.712577731878163e-11 -1.198714196480599e-12 -1
  outer loop
    vertex 3609.056640625 -2030.256958007812 31549.984375
    vertex 6427.1943359375 12668.5458984375 31549.984375
    vertex 4437.92431640625 -1825.808471679688 31549.984375
  endloop
endfacet
facet normal -2.712577731878163e-11 -1.198714196480599e-12 -1
  outer loop
    vertex 4437.92431640625 -1825.808471679688 31549.984375
    vertex 6427.1943359375 12668.5458984375 31549.984375
    vertex 5320.40869140625 -1544.584594726562 31549.984375
  endloop
endfacet
facet normal -2.712577731878163e-11 -1.198714196480599e-12 -1
  outer loop
    vertex 5320.40869140625 -1544.584594726562 31549.984375
    vertex 6427.1943359375 12668.5458984375 31549.984375
    vertex 5584.125 -1440.751098632812 31549.984375
  endloop
endfacet
facet normal -2.712577731878163e-11 -1.198714196480599e-12 -1
  outer loop
    vertex 5584.125 -1440.751098632812 31549.984375
    vertex 6427.1943359375 12668.5458984375 31549.984375
    vertex 6182.7421875 -1205.056274414062 31549.984375
  endloop
endfacet
facet normal -2.712577731878163e-11 -1.198714196480599e-12 -1
  outer loop
    vertex 6182.7421875 -1205.056274414062 31549.984375
    vertex 6427.1943359375 12668.5458984375 31549.984375
    vertex 6427.1943359375 11933.673828125 31549.984375
  endloop
endfacet
facet normal -2.712577731878163e-11 -1.198714196480599e-12 -1
  outer loop
    vertex 6182.7421875 -1205.056274414062 31549.984375
    vertex 6427.1943359375 11933.673828125 31549.984375
    vertex 7021.1865234375 -808.6952514648438 31549.984375
  endloop
endfacet
facet normal -2.712577731878163e-11 -1.198714196480599e-12 -1
  outer loop
    vertex 7021.1865234375 -808.6952514648438 31549.984375
    vertex 6427.1943359375 11933.673828125 31549.984375
    vertex 8712.9189453125 11933.673828125 31549.984375
  endloop
endfacet
facet normal -2.712577731878163e-11 -1.198714196480599e-12 -1
  outer loop
    vertex 7021.1865234375 -808.6952514648438 31549.984375
    vertex 8712.9189453125 11933.673828125 31549.984375
    vertex 7832.10791015625 -357.2193603515625 31549.984375
  endloop
endfacet
facet normal -2.712577731878163e-11 -1.198714196480599e-12 -1
  outer loop
    vertex 7832.10791015625 -357.2193603515625 31549.984375
    vertex 8712.9189453125 11933.673828125 31549.984375
    vertex 8611.9912109375 147.4145202636719 31549.984375
  endloop
endfacet
facet normal -2.712577731878163e-11 -1.198714196480599e-12 -1
  outer loop
    vertex 8611.9912109375 147.4145202636719 31549.984375
    vertex 8712.9189453125 11933.673828125 31549.984375
    vertex 8702.6513671875 206.0773010253906 31549.984375
  endloop
endfacet
facet normal -2.712577731878163e-11 -1.198714196480599e-12 -1
  outer loop
    vertex 8702.6513671875 206.0773010253906 31549.984375
    vertex 8712.9189453125 11933.673828125 31549.984375
    vertex 8712.9189453125 2810.203125 31549.984375
  endloop
endfacet
facet normal -2.712577731878163e-11 -1.198714196480599e-12 -1
  outer loop
    vertex 8702.6513671875 206.0773010253906 31549.984375
    vertex 8712.9189453125 2810.203125 31549.984375
    vertex 8712.9189453125 206.0773010253906 31549.984375
  endloop
endfacet
facet normal -2.712577731878163e-11 -1.198714196480599e-12 -1
  outer loop
    vertex 8712.9189453125 11933.673828125 31549.984375
    vertex 8712.9189453125 6834.7353515625 31549.984375
    vertex 8712.9189453125 2810.203125 31549.984375
  endloop
endfacet
facet normal -2.712577731878163e-11 -1.198714196480599e-12 -1
  outer loop
    vertex 8712.9189453125 6834.7353515625 31549.984375
    vertex 8712.9189453125 11933.673828125 31549.984375
    vertex 8712.9189453125 9675.546875 31549.984375
  endloop
endfacet
facet normal -2.712577731878163e-11 -1.198714196480599e-12 -1
  outer loop
    vertex 8712.9189453125 5414.3291015625 31549.984375
    vertex 8712.9189453125 2810.203125 31549.984375
    vertex 8712.9189453125 6834.7353515625 31549.984375
  endloop
endfacet
facet normal 0.2330268323421478 -0.9724702835083008 -5.188573529157914e-12
  outer loop
    vertex 4437.92431640625 -1825.808471679688 31549.984375
    vertex 3609.056640625 -2030.256958007812 31949.97265625
    vertex 3609.056640625 -2030.256958007812 31549.984375
  endloop
endfacet
facet normal 0.2330268323421478 -0.9724702835083008 -5.188573529157914e-12
  outer loop
    vertex 3609.056640625 -2030.256958007812 31949.97265625
    vertex 4437.92431640625 -1825.808471679688 31549.984375
    vertex 4437.92431640625 -1825.808471679688 31949.97265625
  endloop
endfacet
facet normal 0.2330268323421478 -0.9724702835083008 -5.188573529157914e-12
  outer loop
    vertex 3609.056640625 -2030.256958007812 31949.97265625
    vertex 3539.113525390625 -2047.509033203125 31549.984375
    vertex 3609.056640625 -2030.256958007812 31549.984375
  endloop
endfacet
facet normal 0.2330268323421478 -0.9724702835083008 -5.188573529157914e-12
  outer loop
    vertex 3539.113525390625 -2047.509033203125 31549.984375
    vertex 3609.056640625 -2030.256958007812 31949.97265625
    vertex 3539.113525390625 -2047.509033203125 31949.97265625
  endloop
endfacet
facet normal 0.1693889200687408 -0.98554927110672 -3.447114772445192e-12
  outer loop
    vertex 3539.113525390625 -2047.509033203125 31949.97265625
    vertex 2627.87255859375 -2208.725341796875 31549.984375
    vertex 3539.113525390625 -2047.509033203125 31549.984375
  endloop
endfacet
facet normal 0.1693889200687408 -0.98554927110672 -3.447114772445192e-12
  outer loop
    vertex 2627.87255859375 -2208.725341796875 31549.984375
    vertex 3539.113525390625 -2047.509033203125 31949.97265625
    vertex 2627.87255859375 -2208.725341796875 31949.97265625
  endloop
endfacet
facet normal 0.1050770729780197 -0.994464099407196 -1.692224593959069e-12
  outer loop
    vertex 2627.87255859375 -2208.725341796875 31949.97265625
    vertex 1708.150512695312 -2308.758544921875 31549.984375
    vertex 2627.87255859375 -2208.725341796875 31549.984375
  endloop
endfacet
facet normal 0.1050770729780197 -0.994464099407196 -1.692224593959069e-12
  outer loop
    vertex 1708.150512695312 -2308.758544921875 31549.984375
    vertex 2627.87255859375 -2208.725341796875 31949.97265625
    vertex 1708.150512695312 -2308.758544921875 31949.97265625
  endloop
endfacet
facet normal 0.04034808278083801 -0.9991856813430786 6.909790529465928e-14
  outer loop
    vertex 1708.150512695312 -2308.758544921875 31549.984375
    vertex 823.9342041015625 -2345.512451171875 31949.97265625
    vertex 823.9342041015625 -2345.512451171875 31549.984375
  endloop
endfacet
facet normal 0.04034808278083801 -0.9991856813430786 6.909790529465928e-14
  outer loop
    vertex 823.9342041015625 -2345.512451171875 31949.97265625
    vertex 1708.150512695312 -2308.758544921875 31549.984375
    vertex 1708.150512695312 -2308.758544921875 31949.97265625
  endloop
endfacet
facet normal 0.0009059278527274728 -0.9999995827674866 1.139944909300805e-12
  outer loop
    vertex 823.9342041015625 -2345.512451171875 31949.97265625
    vertex 742.8748168945312 -2345.588134765625 31549.984375
    vertex 823.9342041015625 -2345.512451171875 31549.984375
  endloop
endfacet
facet normal 0.0009059278527274728 -0.9999995827674866 1.139944909300805e-12
  outer loop
    vertex 742.8748168945312 -2345.588134765625 31549.984375
    vertex 823.9342041015625 -2345.512451171875 31949.97265625
    vertex 742.8748168945312 -2345.588134765625 31949.97265625
  endloop
endfacet
facet normal -0.0254928320646286 -0.9996749758720398 1.855653868412799e-12
  outer loop
    vertex 742.8748168945312 -2345.588134765625 31949.97265625
    vertex 661.842529296875 -2343.4609375 31549.984375
    vertex 742.8748168945312 -2345.588134765625 31549.984375
  endloop
endfacet
facet normal -0.0254928320646286 -0.9996749758720398 1.855653868412799e-12
  outer loop
    vertex 661.842529296875 -2343.4609375 31549.984375
    vertex 742.8748168945312 -2345.588134765625 31949.97265625
    vertex 661.842529296875 -2343.4609375 31949.97265625
  endloop
endfacet
facet normal -0.05187486484646797 -0.9986535906791687 2.570097563589502e-12
  outer loop
    vertex 661.842529296875 -2343.4609375 31949.97265625
    vertex 580.8954467773438 -2339.1328125 31549.984375
    vertex 661.842529296875 -2343.4609375 31549.984375
  endloop
endfacet
facet normal -0.05187486484646797 -0.9986535906791687 2.570097563589502e-12
  outer loop
    vertex 580.8954467773438 -2339.1328125 31549.984375
    vertex 661.842529296875 -2343.4609375 31949.97265625
    vertex 580.8954467773438 -2339.1328125 31949.97265625
  endloop
endfacet
facet normal -0.0782228484749794 -0.9969359040260315 3.282806752130663e-12
  outer loop
    vertex 580.8954467773438 -2339.1328125 31949.97265625
    vertex 500.0917053222656 -2332.6064453125 31549.984375
    vertex 580.8954467773438 -2339.1328125 31549.984375
  endloop
endfacet
facet normal -0.0782228484749794 -0.9969359040260315 3.282806752130663e-12
  outer loop
    vertex 500.0917053222656 -2332.6064453125 31549.984375
    vertex 580.8954467773438 -2339.1328125 31949.97265625
    vertex 500.0917053222656 -2332.6064453125 31949.97265625
  endloop
endfacet
facet normal -0.1045194789767265 -0.9945228099822998 3.993313058697767e-12
  outer loop
    vertex 500.0917053222656 -2332.6064453125 31949.97265625
    vertex 419.4891967773438 -2323.88671875 31549.984375
    vertex 500.0917053222656 -2332.6064453125 31549.984375
  endloop
endfacet
facet normal -0.1045194789767265 -0.9945228099822998 3.993313058697767e-12
  outer loop
    vertex 419.4891967773438 -2323.88671875 31549.984375
    vertex 500.0917053222656 -2332.6064453125 31949.97265625
    vertex 419.4891967773438 -2323.88671875 31949.97265625
  endloop
endfacet
facet normal -0.1307474374771118 -0.9914156794548035 4.701148758473606e-12
  outer loop
    vertex 419.4891967773438 -2323.88671875 31949.97265625
    vertex 339.1458129882812 -2312.97998046875 31549.984375
    vertex 419.4891967773438 -2323.88671875 31549.984375
  endloop
endfacet
facet normal -0.1307474374771118 -0.9914156794548035 4.701148758473606e-12
  outer loop
    vertex 339.1458129882812 -2312.97998046875 31549.984375
    vertex 419.4891967773438 -2323.88671875 31949.97265625
    vertex 339.1458129882812 -2312.97998046875 31949.97265625
  endloop
endfacet
facet normal -0.1568894386291504 -0.9876161813735962 5.405846343481402e-12
  outer loop
    vertex 339.1458129882812 -2312.97998046875 31949.97265625
    vertex 259.1191711425781 -2299.89404296875 31549.984375
    vertex 339.1458129882812 -2312.97998046875 31549.984375
  endloop
endfacet
facet normal -0.1568894386291504 -0.9876161813735962 5.405846343481402e-12
  outer loop
    vertex 259.1191711425781 -2299.89404296875 31549.984375
    vertex 339.1458129882812 -2312.97998046875 31949.97265625
    vertex 259.1191711425781 -2299.89404296875 31949.97265625
  endloop
endfacet
facet normal -0.1829281896352768 -0.9831262826919556 6.106939173106118e-12
  outer loop
    vertex 259.1191711425781 -2299.89404296875 31949.97265625
    vertex 179.4666595458984 -2284.637939453125 31549.984375
    vertex 259.1191711425781 -2299.89404296875 31549.984375
  endloop
endfacet
facet normal -0.1829281896352768 -0.9831262826919556 6.106939173106118e-12
  outer loop
    vertex 179.4666595458984 -2284.637939453125 31549.984375
    vertex 259.1191711425781 -2299.89404296875 31949.97265625
    vertex 179.4666595458984 -2284.637939453125 31949.97265625
  endloop
endfacet
facet normal -0.2088464349508286 -0.9779484272003174 6.803961907775324e-12
  outer loop
    vertex 179.4666595458984 -2284.637939453125 31949.97265625
    vertex 100.2454605102539 -2267.22314453125 31549.984375
    vertex 179.4666595458984 -2284.637939453125 31549.984375
  endloop
endfacet
facet normal -0.2088464349508286 -0.9779484272003174 6.803961907775324e-12
  outer loop
    vertex 100.2454605102539 -2267.22314453125 31549.984375
    vertex 179.4666595458984 -2284.637939453125 31949.97265625
    vertex 100.2454605102539 -2267.22314453125 31949.97265625
  endloop
endfacet
facet normal -0.2346269190311432 -0.9720854759216309 7.496450508959196e-12
  outer loop
    vertex 100.2454605102539 -2267.22314453125 31949.97265625
    vertex 21.51240348815918 -2247.66162109375 31549.984375
    vertex 100.2454605102539 -2267.22314453125 31549.984375
  endloop
endfacet
facet normal -0.2346269190311432 -0.9720854759216309 7.496450508959196e-12
  outer loop
    vertex 21.51240348815918 -2247.66162109375 31549.984375
    vertex 100.2454605102539 -2267.22314453125 31949.97265625
    vertex 21.51240348815918 -2247.66162109375 31949.97265625
  endloop
endfacet
facet normal -0.2602524161338806 -0.9655405879020691 8.18394050444704e-12
  outer loop
    vertex 21.51240348815918 -2247.66162109375 31949.97265625
    vertex -56.67602157592773 -2225.9677734375 31549.984375
    vertex 21.51240348815918 -2247.66162109375 31549.984375
  endloop
endfacet
facet normal -0.2602524161338806 -0.9655405879020691 8.18394050444704e-12
  outer loop
    vertex -56.67602157592773 -2225.9677734375 31549.984375
    vertex 21.51240348815918 -2247.66162109375 31949.97265625
    vertex -56.67602157592773 -2225.9677734375 31949.97265625
  endloop
endfacet
facet normal -0.2857057750225067 -0.9583173990249634 8.865970457794248e-12
  outer loop
    vertex -56.67602157592773 -2225.9677734375 31949.97265625
    vertex -134.2637176513672 -2202.1572265625 31549.984375
    vertex -56.67602157592773 -2225.9677734375 31549.984375
  endloop
endfacet
facet normal -0.2857057750225067 -0.9583173990249634 8.865970457794248e-12
  outer loop
    vertex -134.2637176513672 -2202.1572265625 31549.984375
    vertex -56.67602157592773 -2225.9677734375 31949.97265625
    vertex -134.2637176513672 -2202.1572265625 31949.97265625
  endloop
endfacet
facet normal -0.2864140868186951 -0.9581059217453003 8.884937924280578e-12
  outer loop
    vertex -134.2637176513672 -2202.1572265625 31949.97265625
    vertex -196.5272521972656 -2182.997802734375 31549.984375
    vertex -134.2637176513672 -2202.1572265625 31549.984375
  endloop
endfacet
facet normal -0.2864140868186951 -0.9581059217453003 8.884937924280578e-12
  outer loop
    vertex -196.5272521972656 -2182.997802734375 31549.984375
    vertex -134.2637176513672 -2202.1572265625 31949.97265625
    vertex -196.5272521972656 -2182.997802734375 31949.97265625
  endloop
endfacet
facet normal -0.3477656245231628 -0.937581479549408 1.052524473826866e-11
  outer loop
    vertex -196.5272521972656 -2182.997802734375 31949.97265625
    vertex -383.3363037109375 -2111.67236328125 31549.984375
    vertex -196.5272521972656 -2182.997802734375 31549.984375
  endloop
endfacet
facet normal -0.3477656245231628 -0.937581479549408 1.052524473826866e-11
  outer loop
    vertex -383.3363037109375 -2111.67236328125 31549.984375
    vertex -196.5272521972656 -2182.997802734375 31949.97265625
    vertex -383.3363037109375 -2111.67236328125 31949.97265625
  endloop
endfacet
facet normal -0.407734602689743 -0.9131004810333252 1.21234411398774e-11
  outer loop
    vertex -383.3363037109375 -2111.67236328125 31949.97265625
    vertex -565.1471557617188 -2028.102783203125 31549.984375
    vertex -383.3363037109375 -2111.67236328125 31549.984375
  endloop
endfacet
facet normal -0.407734602689743 -0.9131004810333252 1.21234411398774e-11
  outer loop
    vertex -565.1471557617188 -2028.102783203125 31549.984375
    vertex -383.3363037109375 -2111.67236328125 31949.97265625
    vertex -565.1471557617188 -2028.102783203125 31949.97265625
  endloop
endfacet
facet normal -0.4660736620426178 -0.8847458958625793 1.367291436321638e-11
  outer loop
    vertex -565.1471557617188 -2028.102783203125 31949.97265625
    vertex -741.18115234375 -1932.647216796875 31549.984375
    vertex -565.1471557617188 -2028.102783203125 31549.984375
  endloop
endfacet
facet normal -0.4660736620426178 -0.8847458958625793 1.367291436321638e-11
  outer loop
    vertex -741.18115234375 -1932.647216796875 31549.984375
    vertex -565.1471557617188 -2028.102783203125 31949.97265625
    vertex -741.18115234375 -1932.647216796875 31949.97265625
  endloop
endfacet
facet normal -0.5225381255149841 -0.8526158928871155 1.516714184801593e-11
  outer loop
    vertex -741.18115234375 -1932.647216796875 31949.97265625
    vertex -910.6843872070312 -1825.714233398438 31549.984375
    vertex -741.18115234375 -1932.647216796875 31549.984375
  endloop
endfacet
facet normal -0.5225381255149841 -0.8526158928871155 1.516714184801593e-11
  outer loop
    vertex -910.6843872070312 -1825.714233398438 31549.984375
    vertex -741.18115234375 -1932.647216796875 31949.97265625
    vertex -910.6843872070312 -1825.714233398438 31949.97265625
  endloop
endfacet
facet normal -0.576886773109436 -0.8168241381645203 1.659970945422362e-11
  outer loop
    vertex -910.6843872070312 -1825.714233398438 31949.97265625
    vertex -1001.703796386719 -1759.543701171875 31549.984375
    vertex -910.6843872070312 -1825.714233398438 31549.984375
  endloop
endfacet
facet normal -0.576886773109436 -0.8168241381645203 1.659970945422362e-11
  outer loop
    vertex -1001.703796386719 -1759.543701171875 31549.984375
    vertex -910.6843872070312 -1825.714233398438 31949.97265625
    vertex -1001.703796386719 -1759.543701171875 31949.97265625
  endloop
endfacet
facet normal -0.576886773109436 -0.8168241381645203 1.659970945422362e-11
  outer loop
    vertex -1001.703796386719 -1759.543701171875 31549.984375
    vertex -1072.931030273438 -1707.761962890625 31949.97265625
    vertex -1072.931030273438 -1707.761962890625 31549.984375
  endloop
endfacet
facet normal -0.576886773109436 -0.8168241381645203 1.659970945422362e-11
  outer loop
    vertex -1072.931030273438 -1707.761962890625 31949.97265625
    vertex -1001.703796386719 -1759.543701171875 31549.984375
    vertex -1001.703796386719 -1759.543701171875 31949.97265625
  endloop
endfacet
facet normal -0.6288826465606689 -0.7775002121925354 1.796434528911206e-11
  outer loop
    vertex -1072.931030273438 -1707.761962890625 31949.97265625
    vertex -1227.22607421875 -1579.29541015625 31549.984375
    vertex -1072.931030273438 -1707.761962890625 31549.984375
  endloop
endfacet
facet normal -0.6288826465606689 -0.7775002121925354 1.796434528911206e-11
  outer loop
    vertex -1227.22607421875 -1579.29541015625 31549.984375
    vertex -1072.931030273438 -1707.761962890625 31949.97265625
    vertex -1227.22607421875 -1579.29541015625 31949.97265625
  endloop
endfacet
facet normal -0.6782945394515991 -0.7347900867462158 1.925494486076929e-11
  outer loop
    vertex -1227.22607421875 -1579.29541015625 31949.97265625
    vertex -1372.90869140625 -1440.864868164062 31549.984375
    vertex -1227.22607421875 -1579.29541015625 31549.984375
  endloop
endfacet
facet normal -0.6782945394515991 -0.7347900867462158 1.925494486076929e-11
  outer loop
    vertex -1372.90869140625 -1440.864868164062 31549.984375
    vertex -1227.22607421875 -1579.29541015625 31949.97265625
    vertex -1372.90869140625 -1440.864868164062 31949.97265625
  endloop
endfacet
facet normal -0.7248979806900024 -0.6888562440872192 2.04656083746535e-11
  outer loop
    vertex -1372.90869140625 -1440.864868164062 31949.97265625
    vertex -1509.355224609375 -1293.063110351562 31549.984375
    vertex -1372.90869140625 -1440.864868164062 31549.984375
  endloop
endfacet
facet normal -0.7248979806900024 -0.6888562440872192 2.04656083746535e-11
  outer loop
    vertex -1509.355224609375 -1293.063110351562 31549.984375
    vertex -1372.90869140625 -1440.864868164062 31949.97265625
    vertex -1509.355224609375 -1293.063110351562 31949.97265625
  endloop
endfacet
facet normal -0.7684767842292786 -0.6398776769638062 2.159067889750954e-11
  outer loop
    vertex -1509.355224609375 -1293.063110351562 31949.97265625
    vertex -1635.981079101562 -1136.523193359375 31549.984375
    vertex -1509.355224609375 -1293.063110351562 31549.984375
  endloop
endfacet
facet normal -0.7684767842292786 -0.6398776769638062 2.159067889750954e-11
  outer loop
    vertex -1635.981079101562 -1136.523193359375 31549.984375
    vertex -1509.355224609375 -1293.063110351562 31949.97265625
    vertex -1635.981079101562 -1136.523193359375 31949.97265625
  endloop
endfacet
facet normal -0.8088244199752808 -0.5880501866340637 2.262478746017926e-11
  outer loop
    vertex -1635.981079101562 -1136.523193359375 31949.97265625
    vertex -1688.512084960938 -1062.148681640625 31549.984375
    vertex -1635.981079101562 -1136.523193359375 31549.984375
  endloop
endfacet
facet normal -0.8088244199752808 -0.5880501866340637 2.262478746017926e-11
  outer loop
    vertex -1688.512084960938 -1062.148681640625 31549.984375
    vertex -1635.981079101562 -1136.523193359375 31949.97265625
    vertex -1688.512084960938 -1062.148681640625 31949.97265625
  endloop
endfacet
facet normal -0.8088244199752808 -0.5880501866340637 2.262478746017926e-11
  outer loop
    vertex -1688.512084960938 -1062.148681640625 31949.97265625
    vertex -1752.244018554688 -971.91552734375 31549.984375
    vertex -1688.512084960938 -1062.148681640625 31549.984375
  endloop
endfacet
facet normal -0.8088244199752808 -0.5880501866340637 2.262478746017926e-11
  outer loop
    vertex -1752.244018554688 -971.91552734375 31549.984375
    vertex -1688.512084960938 -1062.148681640625 31949.97265625
    vertex -1752.244018554688 -971.91552734375 31949.97265625
  endloop
endfacet
facet normal -0.8457459211349487 -0.533585786819458 2.356288775207105e-11
  outer loop
    vertex -1752.244018554688 -971.91552734375 31949.97265625
    vertex -1857.646118164062 -799.945068359375 31549.984375
    vertex -1752.244018554688 -971.91552734375 31549.984375
  endloop
endfacet
facet normal -0.8457459211349487 -0.533585786819458 2.356288775207105e-11
  outer loop
    vertex -1857.646118164062 -799.945068359375 31549.984375
    vertex -1752.244018554688 -971.91552734375 31949.97265625
    vertex -1857.646118164062 -799.945068359375 31949.97265625
  endloop
endfacet
facet normal -0.8790593147277832 -0.4767123460769653 2.440030816286409e-11
  outer loop
    vertex -1857.646118164062 -799.945068359375 31949.97265625
    vertex -1951.735961914062 -621.3482666015625 31549.984375
    vertex -1857.646118164062 -799.945068359375 31549.984375
  endloop
endfacet
facet normal -0.8790593147277832 -0.4767123460769653 2.440030816286409e-11
  outer loop
    vertex -1951.735961914062 -621.3482666015625 31549.984375
    vertex -1857.646118164062 -799.945068359375 31949.97265625
    vertex -1951.735961914062 -621.3482666015625 31949.97265625
  endloop
endfacet
facet normal -0.908597469329834 -0.4176728427410126 2.51328020894892e-11
  outer loop
    vertex -1951.735961914062 -621.3482666015625 31949.97265625
    vertex -2034.110595703125 -436.8900756835938 31549.984375
    vertex -1951.735961914062 -621.3482666015625 31549.984375
  endloop
endfacet
facet normal -0.908597469329834 -0.4176728427410126 2.51328020894892e-11
  outer loop
    vertex -2034.110595703125 -436.8900756835938 31549.984375
    vertex -1951.735961914062 -621.3482666015625 31949.97265625
    vertex -2034.110595703125 -436.8900756835938 31949.97265625
  endloop
endfacet
facet normal -0.9342096447944641 -0.3567244410514832 2.575657569170442e-11
  outer loop
    vertex -2034.110595703125 -436.8900756835938 31949.97265625
    vertex -2104.41748046875 -247.3604125976562 31549.984375
    vertex -2034.110595703125 -436.8900756835938 31549.984375
  endloop
endfacet
facet normal -0.9342096447944641 -0.3567244410514832 2.575657569170442e-11
  outer loop
    vertex -2104.41748046875 -247.3604125976562 31549.984375
    vertex -2034.110595703125 -436.8900756835938 31949.97265625
    vertex -2104.41748046875 -247.3604125976562 31949.97265625
  endloop
endfacet
facet normal -0.9557632207870483 -0.294137179851532 2.626834860741667e-11
  outer loop
    vertex -2104.41748046875 -247.3604125976562 31949.97265625
    vertex -2123.976806640625 -181.9384918212891 31549.984375
    vertex -2104.41748046875 -247.3604125976562 31549.984375
  endloop
endfacet
facet normal -0.9557632207870483 -0.294137179851532 2.626834860741667e-11
  outer loop
    vertex -2123.976806640625 -181.9384918212891 31549.984375
    vertex -2104.41748046875 -247.3604125976562 31949.97265625
    vertex -2123.976806640625 -181.9384918212891 31949.97265625
  endloop
endfacet
facet normal -0.9557632207870483 -0.294137179851532 2.626834860741667e-11
  outer loop
    vertex -2123.976806640625 -181.9384918212891 31949.97265625
    vertex -2162.35498046875 -53.57099914550781 31549.984375
    vertex -2123.976806640625 -181.9384918212891 31549.984375
  endloop
endfacet
facet normal -0.9557632207870483 -0.294137179851532 2.626834860741667e-11
  outer loop
    vertex -2162.35498046875 -53.57099914550781 31549.984375
    vertex -2123.976806640625 -181.9384918212891 31949.97265625
    vertex -2162.35498046875 -53.57099914550781 31949.97265625
  endloop
endfacet
facet normal -0.9731451272964478 -0.2301925271749496 2.666538170825739e-11
  outer loop
    vertex -2162.35498046875 -53.57099914550781 31949.97265625
    vertex -2207.67529296875 143.6482238769531 31549.984375
    vertex -2162.35498046875 -53.57099914550781 31549.984375
  endloop
endfacet
facet normal -0.9731451272964478 -0.2301925271749496 2.666538170825739e-11
  outer loop
    vertex -2207.67529296875 143.6482238769531 31549.984375
    vertex -2162.35498046875 -53.57099914550781 31949.97265625
    vertex -2207.67529296875 143.6482238769531 31949.97265625
  endloop
endfacet
facet normal -0.9862631559371948 -0.1651816666126251 2.694551179405202e-11
  outer loop
    vertex -2207.67529296875 143.6482238769531 31949.97265625
    vertex -2240.1845703125 343.4526062011719 31549.984375
    vertex -2207.67529296875 143.6482238769531 31549.984375
  endloop
endfacet
facet normal -0.9862631559371948 -0.1651816666126251 2.694551179405202e-11
  outer loop
    vertex -2240.1845703125 343.4526062011719 31549.984375
    vertex -2207.67529296875 143.6482238769531 31949.97265625
    vertex -2240.1845703125 343.4526062011719 31949.97265625
  endloop
endfacet
facet normal -0.9950472116470337 -0.09940356016159058 2.710718628728959e-11
  outer loop
    vertex -2240.1845703125 343.4526062011719 31949.97265625
    vertex -2259.7431640625 544.9865112304688 31549.984375
    vertex -2240.1845703125 343.4526062011719 31549.984375
  endloop
endfacet
facet normal -0.9950472116470337 -0.09940356016159058 2.710718628728959e-11
  outer loop
    vertex -2259.7431640625 544.9865112304688 31549.984375
    vertex -2240.1845703125 343.4526062011719 31949.97265625
    vertex -2259.7431640625 544.9865112304688 31949.97265625
  endloop
endfacet
facet normal -0.9994499683380127 -0.03316286951303482 2.714947537618695e-11
  outer loop
    vertex -2259.7431640625 544.9865112304688 31949.97265625
    vertex -2264.970703125 707.1574096679688 31549.984375
    vertex -2259.7431640625 544.9865112304688 31549.984375
  endloop
endfacet
facet normal -0.9994499683380127 -0.03316286951303482 2.714947537618695e-11
  outer loop
    vertex -2264.970703125 707.1574096679688 31549.984375
    vertex -2259.7431640625 544.9865112304688 31949.97265625
    vertex -2264.970703125 707.1574096679688 31949.97265625
  endloop
endfacet
facet normal -0.01937429420650005 0.9998123049736023 -6.387579809703781e-13
  outer loop
    vertex -2264.970703125 707.1574096679688 31949.97265625
    vertex -2264.697509765625 707.162841796875 31549.984375
    vertex -2264.970703125 707.1574096679688 31549.984375
  endloop
endfacet
facet normal -0.01937429420650005 0.9998123049736023 -6.387579809703781e-13
  outer loop
    vertex -2264.697509765625 707.162841796875 31549.984375
    vertex -2264.970703125 707.1574096679688 31949.97265625
    vertex -2264.697509765625 707.162841796875 31949.97265625
  endloop
endfacet
facet normal -0.9998010993003845 -0.01994297467172146 2.714360680666772e-11
  outer loop
    vertex -2264.697509765625 707.162841796875 31949.97265625
    vertex -2265.51318359375 749.2595825195312 31549.984375
    vertex -2264.697509765625 707.162841796875 31549.984375
  endloop
endfacet
facet normal -0.9998010993003845 -0.01994297467172146 2.714360680666772e-11
  outer loop
    vertex -2265.51318359375 749.2595825195312 31549.984375
    vertex -2264.697509765625 707.162841796875 31949.97265625
    vertex -2265.51318359375 749.2595825195312 31949.97265625
  endloop
endfacet
facet normal 0.01937429420650005 -0.9998123049736023 6.387579809703781e-13
  outer loop
    vertex -2265.51318359375 749.2595825195312 31949.97265625
    vertex -2266.198974609375 749.2459106445312 31549.984375
    vertex -2265.51318359375 749.2595825195312 31549.984375
  endloop
endfacet
facet normal 0.01937429420650005 -0.9998123049736023 6.387579809703781e-13
  outer loop
    vertex -2266.198974609375 749.2459106445312 31549.984375
    vertex -2265.51318359375 749.2595825195312 31949.97265625
    vertex -2266.198974609375 749.2459106445312 31949.97265625
  endloop
endfacet
facet normal -0.9992834329605103 0.03784952312707901 2.706226388815569e-11
  outer loop
    vertex -2266.198974609375 749.2459106445312 31949.97265625
    vertex -2264.69091796875 790.2335205078125 31549.984375
    vertex -2266.198974609375 749.2459106445312 31549.984375
  endloop
endfacet
facet normal -0.9992834329605103 0.03784952312707901 2.706226388815569e-11
  outer loop
    vertex -2264.69091796875 790.2335205078125 31549.984375
    vertex -2266.198974609375 749.2459106445312 31949.97265625
    vertex -2264.69091796875 790.2335205078125 31949.97265625
  endloop
endfacet
facet normal -0.9992834329605103 0.03784952312707901 2.706226388815569e-11
  outer loop
    vertex -2264.69091796875 790.2335205078125 31949.97265625
    vertex -2195.8408203125 2661.3515625 31549.984375
    vertex -2264.69091796875 790.2335205078125 31549.984375
  endloop
endfacet
facet normal -0.9992834329605103 0.03784952312707901 2.706226388815569e-11
  outer loop
    vertex -2195.8408203125 2661.3515625 31549.984375
    vertex -2264.69091796875 790.2335205078125 31949.97265625
    vertex -2195.8408203125 2661.3515625 31949.97265625
  endloop
endfacet
facet normal -0.9992834329605103 0.03784952312707901 2.706226388815569e-11
  outer loop
    vertex -2195.8408203125 2661.3515625 31949.97265625
    vertex -2191.938232421875 2767.4091796875 31549.984375
    vertex -2195.8408203125 2661.3515625 31549.984375
  endloop
endfacet
facet normal -0.9992834329605103 0.03784952312707901 2.706226388815569e-11
  outer loop
    vertex -2191.938232421875 2767.4091796875 31549.984375
    vertex -2195.8408203125 2661.3515625 31949.97265625
    vertex -2191.938232421875 2767.4091796875 31949.97265625
  endloop
endfacet
facet normal -0.9944790005683899 0.1049357205629349 2.685381604583537e-11
  outer loop
    vertex -2191.938232421875 2767.4091796875 31949.97265625
    vertex -1988.239624023438 4754.552734375 31549.984375
    vertex -2191.938232421875 2767.4091796875 31549.984375
  endloop
endfacet
facet normal -0.9944790005683899 0.1049357205629349 2.685381604583537e-11
  outer loop
    vertex -1988.239624023438 4754.552734375 31549.984375
    vertex -2191.938232421875 2767.4091796875 31949.97265625
    vertex -1988.239624023438 4754.552734375 31949.97265625
  endloop
endfacet
facet normal -0.9944790005683899 0.1049357205629349 2.685381604583537e-11
  outer loop
    vertex -1988.239624023438 4754.552734375 31949.97265625
    vertex -1985.836669921875 4777.99462890625 31549.984375
    vertex -1988.239624023438 4754.552734375 31549.984375
  endloop
endfacet
facet normal -0.9944790005683899 0.1049357205629349 2.685381604583537e-11
  outer loop
    vertex -1985.836669921875 4777.99462890625 31549.984375
    vertex -1988.239624023438 4754.552734375 31949.97265625
    vertex -1985.836669921875 4777.99462890625 31949.97265625
  endloop
endfacet
facet normal -0.9851804971694946 0.1715207099914551 2.652404858249913e-11
  outer loop
    vertex -1985.836669921875 4777.99462890625 31949.97265625
    vertex -1648.868774414062 6770.3037109375 31549.984375
    vertex -1985.836669921875 4777.99462890625 31549.984375
  endloop
endfacet
facet normal -0.9851804971694946 0.1715207099914551 2.652404858249913e-11
  outer loop
    vertex -1648.868774414062 6770.3037109375 31549.984375
    vertex -1985.836669921875 4777.99462890625 31949.97265625
    vertex -1648.868774414062 6770.3037109375 31949.97265625
  endloop
endfacet
facet normal -0.9714393019676208 0.2372881472110748 2.607472050775161e-11
  outer loop
    vertex -1648.868774414062 6770.3037109375 31949.97265625
    vertex -1309.69189453125 8199.6416015625 31549.984375
    vertex -1648.868774414062 6770.3037109375 31549.984375
  endloop
endfacet
facet normal -0.9714393019676208 0.2372881472110748 2.607472050775161e-11
  outer loop
    vertex -1309.69189453125 8199.6416015625 31549.984375
    vertex -1648.868774414062 6770.3037109375 31949.97265625
    vertex -1309.69189453125 8199.6416015625 31949.97265625
  endloop
endfacet
facet normal -0.9714393019676208 0.2372881472110748 2.607472050775161e-11
  outer loop
    vertex -1309.69189453125 8199.6416015625 31949.97265625
    vertex -1182.515747070312 8735.5791015625 31549.984375
    vertex -1309.69189453125 8199.6416015625 31549.984375
  endloop
endfacet
facet normal -0.9714393019676208 0.2372881472110748 2.607472050775161e-11
  outer loop
    vertex -1182.515747070312 8735.5791015625 31549.984375
    vertex -1309.69189453125 8199.6416015625 31949.97265625
    vertex -1182.515747070312 8735.5791015625 31949.97265625
  endloop
endfacet
facet normal -0.9533307552337646 0.3019278347492218 2.550823788305401e-11
  outer loop
    vertex -1182.515747070312 8735.5791015625 31949.97265625
    vertex -726.547607421875 10217.564453125 31549.984375
    vertex -1182.515747070312 8735.5791015625 31549.984375
  endloop
endfacet
facet normal -0.9533307552337646 0.3019278347492218 2.550823788305401e-11
  outer loop
    vertex -726.547607421875 10217.564453125 31549.984375
    vertex -1182.515747070312 8735.5791015625 31949.97265625
    vertex -726.547607421875 10217.564453125 31949.97265625
  endloop
endfacet
facet normal -0.9533307552337646 0.3019278347492218 2.550823788305401e-11
  outer loop
    vertex -726.547607421875 10217.564453125 31949.97265625
    vertex -588.8276977539062 10665.1806640625 31549.984375
    vertex -726.547607421875 10217.564453125 31549.984375
  endloop
endfacet
facet normal -0.9533307552337646 0.3019278347492218 2.550823788305401e-11
  outer loop
    vertex -588.8276977539062 10665.1806640625 31549.984375
    vertex -726.547607421875 10217.564453125 31949.97265625
    vertex -588.8276977539062 10665.1806640625 31949.97265625
  endloop
endfacet
facet normal -0.9309533834457397 0.3651380836963654 2.482762433142494e-11
  outer loop
    vertex -588.8276977539062 10665.1806640625 31949.97265625
    vertex 129.5854797363281 12550.626953125 31549.984375
    vertex -588.8276977539062 10665.1806640625 31549.984375
  endloop
endfacet
facet normal -0.9309533834457397 0.3651380836963654 2.482762433142494e-11
  outer loop
    vertex 129.5854797363281 12550.626953125 31549.984375
    vertex -588.8276977539062 10665.1806640625 31949.97265625
    vertex 129.5854797363281 12550.626953125 31949.97265625
  endloop
endfacet
facet normal -0.9309533834457397 0.3651380836963654 2.482762433142494e-11
  outer loop
    vertex 129.5854797363281 12550.626953125 31949.97265625
    vertex 174.5162963867188 12668.5458984375 31549.984375
    vertex 129.5854797363281 12550.626953125 31549.984375
  endloop
endfacet
facet normal -0.9309533834457397 0.3651380836963654 2.482762433142494e-11
  outer loop
    vertex 174.5162963867188 12668.5458984375 31549.984375
    vertex 129.5854797363281 12550.626953125 31949.97265625
    vertex 174.5162963867188 12668.5458984375 31949.97265625
  endloop
endfacet
facet normal -7.738273563595577e-12 1 -1.164519327322144e-12
  outer loop
    vertex 174.5162963867188 12668.5458984375 31949.97265625
    vertex 233.7326049804688 12668.5458984375 31549.984375
    vertex 174.5162963867188 12668.5458984375 31549.984375
  endloop
endfacet
facet normal -7.738273563595577e-12 1 -1.164519327322144e-12
  outer loop
    vertex 233.7326049804688 12668.5458984375 31549.984375
    vertex 174.5162963867188 12668.5458984375 31949.97265625
    vertex 233.7326049804688 12668.5458984375 31949.97265625
  endloop
endfacet
facet normal 0 1 -1.164519327322144e-12
  outer loop
    vertex 233.7326049804688 12668.5458984375 31949.97265625
    vertex 1083.732543945312 12668.5458984375 31549.984375
    vertex 233.7326049804688 12668.5458984375 31549.984375
  endloop
endfacet
facet normal 0 1 -1.164519327322144e-12
  outer loop
    vertex 1083.732543945312 12668.5458984375 31549.984375
    vertex 233.7326049804688 12668.5458984375 31949.97265625
    vertex 1083.732543945312 12668.5458984375 31949.97265625
  endloop
endfacet
facet normal 0 1 -1.164519327322144e-12
  outer loop
    vertex 1083.732543945312 12668.5458984375 31949.97265625
    vertex 6427.1943359375 12668.5458984375 31549.984375
    vertex 1083.732543945312 12668.5458984375 31549.984375
  endloop
endfacet
facet normal 0 1 -1.164519327322144e-12
  outer loop
    vertex 6427.1943359375 12668.5458984375 31549.984375
    vertex 1083.732543945312 12668.5458984375 31949.97265625
    vertex 6427.1943359375 12668.5458984375 31949.97265625
  endloop
endfacet
facet normal 7.186556037763747e-13 1 -1.164519327322144e-12
  outer loop
    vertex 6427.1943359375 12668.5458984375 31549.984375
    vertex 6483.732421875 12668.5458984375 31949.984375
    vertex 6483.732421875 12668.5458984375 31549.984375
  endloop
endfacet
facet normal 7.186556037763747e-13 1 -1.164519327322144e-12
  outer loop
    vertex 6483.732421875 12668.5458984375 31949.984375
    vertex 6427.1943359375 12668.5458984375 31549.984375
    vertex 6427.1943359375 12668.5458984375 31949.97265625
  endloop
endfacet
facet normal -8.603088944361681e-13 1 -1.164519327322144e-12
  outer loop
    vertex 6427.1943359375 11933.673828125 31549.984375
    vertex 8712.9189453125 11933.673828125 31949.97265625
    vertex 8712.9189453125 11933.673828125 31549.984375
  endloop
endfacet
facet normal -8.603088944361681e-13 1 -1.164519327322144e-12
  outer loop
    vertex 8712.9189453125 11933.673828125 31949.97265625
    vertex 6427.1943359375 11933.673828125 31549.984375
    vertex 6427.1943359375 11933.673828125 31949.97265625
  endloop
endfacet
facet normal 1 -1.009823599523382e-13 -2.712577731878163e-11
  outer loop
    vertex 8712.9189453125 11933.673828125 31549.984375
    vertex 8712.9189453125 9675.546875 31949.97265625
    vertex 8712.9189453125 9675.546875 31549.984375
  endloop
endfacet
facet normal 1 -1.009823599523382e-13 -2.712577731878163e-11
  outer loop
    vertex 8712.9189453125 9675.546875 31949.97265625
    vertex 8712.9189453125 11933.673828125 31549.984375
    vertex 8712.9189453125 11933.673828125 31949.97265625
  endloop
endfacet
facet normal 1 -2.920318284069245e-12 -2.712577731878163e-11
  outer loop
    vertex 8712.9189453125 9675.546875 31549.984375
    vertex 8712.9189453125 6834.7353515625 31949.97265625
    vertex 8712.9189453125 6834.7353515625 31549.984375
  endloop
endfacet
facet normal 1 -2.920318284069245e-12 -2.712577731878163e-11
  outer loop
    vertex 8712.9189453125 6834.7353515625 31949.97265625
    vertex 8712.9189453125 9675.546875 31549.984375
    vertex 8712.9189453125 9675.546875 31949.97265625
  endloop
endfacet
facet normal 1 1.556437869902618e-23 -2.712577731878163e-11
  outer loop
    vertex 8712.9189453125 6834.7353515625 31549.984375
    vertex 8712.9189453125 5414.3291015625 31949.97265625
    vertex 8712.9189453125 5414.3291015625 31549.984375
  endloop
endfacet
facet normal 1 1.556437869902618e-23 -2.712577731878163e-11
  outer loop
    vertex 8712.9189453125 5414.3291015625 31949.97265625
    vertex 8712.9189453125 6834.7353515625 31549.984375
    vertex 8712.9189453125 6834.7353515625 31949.97265625
  endloop
endfacet
facet normal 1 -8.45802703049181e-13 -2.712577731878163e-11
  outer loop
    vertex 8712.9189453125 5414.3291015625 31549.984375
    vertex 8712.9189453125 2810.203125 31949.97265625
    vertex 8712.9189453125 2810.203125 31549.984375
  endloop
endfacet
facet normal 1 -8.45802703049181e-13 -2.712577731878163e-11
  outer loop
    vertex 8712.9189453125 2810.203125 31949.97265625
    vertex 8712.9189453125 5414.3291015625 31549.984375
    vertex 8712.9189453125 5414.3291015625 31949.97265625
  endloop
endfacet
facet normal 1 1.368008787847041e-12 -2.712577731878163e-11
  outer loop
    vertex 8712.9189453125 2810.203125 31549.984375
    vertex 8712.9189453125 206.0773010253906 31949.97265625
    vertex 8712.9189453125 206.0773010253906 31549.984375
  endloop
endfacet
facet normal 1 1.368008787847041e-12 -2.712577731878163e-11
  outer loop
    vertex 8712.9189453125 206.0773010253906 31949.97265625
    vertex 8712.9189453125 2810.203125 31549.984375
    vertex 8712.9189453125 2810.203125 31949.97265625
  endloop
endfacet
facet normal -8.038130379274433e-23 -1 1.164519327322144e-12
  outer loop
    vertex 8712.9189453125 206.0773010253906 31549.984375
    vertex 8702.6513671875 206.0773010253906 31949.97265625
    vertex 8702.6513671875 206.0773010253906 31549.984375
  endloop
endfacet
facet normal -8.038130379274433e-23 -1 1.164519327322144e-12
  outer loop
    vertex 8702.6513671875 206.0773010253906 31949.97265625
    vertex 8712.9189453125 206.0773010253906 31549.984375
    vertex 8712.9189453125 206.0773010253906 31949.97265625
  endloop
endfacet
facet normal 0.5321916937828064 -0.8466238975524902 -1.345020449183831e-11
  outer loop
    vertex 8702.6513671875 206.0773010253906 31549.984375
    vertex 8611.9912109375 147.4145202636719 31949.97265625
    vertex 8611.9912109375 147.4145202636719 31549.984375
  endloop
endfacet
facet normal 0.5321916937828064 -0.8466238975524902 -1.345020449183831e-11
  outer loop
    vertex 8611.9912109375 147.4145202636719 31949.97265625
    vertex 8702.6513671875 206.0773010253906 31549.984375
    vertex 8702.6513671875 206.0773010253906 31949.97265625
  endloop
endfacet
facet normal 0.5321916937828064 -0.8466238975524902 -1.345020449183831e-11
  outer loop
    vertex 8611.9912109375 147.4145202636719 31949.97265625
    vertex 7832.10791015625 -357.2193603515625 31549.984375
    vertex 8611.9912109375 147.4145202636719 31549.984375
  endloop
endfacet
facet normal 0.5321916937828064 -0.8466238975524902 -1.345020449183831e-11
  outer loop
    vertex 7832.10791015625 -357.2193603515625 31549.984375
    vertex 8611.9912109375 147.4145202636719 31949.97265625
    vertex 7832.10791015625 -357.2193603515625 31949.97265625
  endloop
endfacet
facet normal 0.475736141204834 -0.8795880675315857 -1.188041505451043e-11
  outer loop
    vertex 7832.10791015625 -357.2193603515625 31949.97265625
    vertex 7021.1865234375 -808.6952514648438 31549.984375
    vertex 7832.10791015625 -357.2193603515625 31549.984375
  endloop
endfacet
facet normal 0.475736141204834 -0.8795880675315857 -1.188041505451043e-11
  outer loop
    vertex 7021.1865234375 -808.6952514648438 31549.984375
    vertex 7832.10791015625 -357.2193603515625 31949.97265625
    vertex 7021.1865234375 -808.6952514648438 31949.97265625
  endloop
endfacet
facet normal 0.4173418879508972 -0.908749520778656 -1.026246709140421e-11
  outer loop
    vertex 7021.1865234375 -808.6952514648438 31949.97265625
    vertex 6182.7421875 -1205.056274414062 31549.984375
    vertex 7021.1865234375 -808.6952514648438 31549.984375
  endloop
endfacet
facet normal 0.4173418879508972 -0.908749520778656 -1.026246709140421e-11
  outer loop
    vertex 6182.7421875 -1205.056274414062 31549.984375
    vertex 7021.1865234375 -808.6952514648438 31949.97265625
    vertex 6182.7421875 -1205.056274414062 31949.97265625
  endloop
endfacet
facet normal 0.3572576344013214 -0.9340058565139771 -8.603223168590635e-12
  outer loop
    vertex 6182.7421875 -1205.056274414062 31949.97265625
    vertex 5584.125 -1440.751098632812 31549.984375
    vertex 6182.7421875 -1205.056274414062 31549.984375
  endloop
endfacet
facet normal 0.3572576344013214 -0.9340058565139771 -8.603223168590635e-12
  outer loop
    vertex 5584.125 -1440.751098632812 31549.984375
    vertex 6182.7421875 -1205.056274414062 31949.97265625
    vertex 5584.125 -1440.751098632812 31949.97265625
  endloop
endfacet
facet normal 0.3572576344013214 -0.9340058565139771 -8.603223168590635e-12
  outer loop
    vertex 5584.125 -1440.751098632812 31549.984375
    vertex 5320.40869140625 -1544.584594726562 31949.97265625
    vertex 5320.40869140625 -1544.584594726562 31549.984375
  endloop
endfacet
facet normal 0.3572576344013214 -0.9340058565139771 -8.603223168590635e-12
  outer loop
    vertex 5320.40869140625 -1544.584594726562 31949.97265625
    vertex 5584.125 -1440.751098632812 31549.984375
    vertex 5584.125 -1440.751098632812 31949.97265625
  endloop
endfacet
facet normal 0.2957347631454468 -0.9552701115608215 -6.909604832738836e-12
  outer loop
    vertex 5320.40869140625 -1544.584594726562 31949.97265625
    vertex 4437.92431640625 -1825.808471679688 31549.984375
    vertex 5320.40869140625 -1544.584594726562 31549.984375
  endloop
endfacet
facet normal 0.2957347631454468 -0.9552701115608215 -6.909604832738836e-12
  outer loop
    vertex 4437.92431640625 -1825.808471679688 31549.984375
    vertex 5320.40869140625 -1544.584594726562 31949.97265625
    vertex 4437.92431640625 -1825.808471679688 31949.97265625
  endloop
endfacet
facet normal 2.712577731878163e-11 1.198714196480599e-12 1
  outer loop
    vertex -2265.51318359375 749.2595825195312 31949.97265625
    vertex -2264.69091796875 790.2335205078125 31949.97265625
    vertex -2266.198974609375 749.2459106445312 31949.97265625
  endloop
endfacet
facet normal 2.712577731878163e-11 1.198714196480599e-12 1
  outer loop
    vertex -2264.69091796875 790.2335205078125 31949.97265625
    vertex -2265.51318359375 749.2595825195312 31949.97265625
    vertex -2264.697509765625 707.162841796875 31949.97265625
  endloop
endfacet
facet normal 2.712577731878163e-11 1.198714196480599e-12 1
  outer loop
    vertex -2259.7431640625 544.9865112304688 31949.97265625
    vertex -2264.697509765625 707.162841796875 31949.97265625
    vertex -2264.970703125 707.1574096679688 31949.97265625
  endloop
endfacet
facet normal 2.712577731878163e-11 1.198714196480599e-12 1
  outer loop
    vertex -2264.697509765625 707.162841796875 31949.97265625
    vertex -2259.7431640625 544.9865112304688 31949.97265625
    vertex -2264.69091796875 790.2335205078125 31949.97265625
  endloop
endfacet
facet normal 2.712577731878163e-11 1.198714196480599e-12 1
  outer loop
    vertex -2264.69091796875 790.2335205078125 31949.97265625
    vertex -2259.7431640625 544.9865112304688 31949.97265625
    vertex -2195.8408203125 2661.3515625 31949.97265625
  endloop
endfacet
facet normal 2.712577731878163e-11 1.198714196480599e-12 1
  outer loop
    vertex -2195.8408203125 2661.3515625 31949.97265625
    vertex -2259.7431640625 544.9865112304688 31949.97265625
    vertex -2240.1845703125 343.4526062011719 31949.97265625
  endloop
endfacet
facet normal 2.712577731878163e-11 1.198714196480599e-12 1
  outer loop
    vertex -2195.8408203125 2661.3515625 31949.97265625
    vertex -2240.1845703125 343.4526062011719 31949.97265625
    vertex -2207.67529296875 143.6482238769531 31949.97265625
  endloop
endfacet
facet normal 2.712577731878163e-11 1.198714196480599e-12 1
  outer loop
    vertex -2195.8408203125 2661.3515625 31949.97265625
    vertex -2207.67529296875 143.6482238769531 31949.97265625
    vertex -2162.35498046875 -53.57099914550781 31949.97265625
  endloop
endfacet
facet normal 2.712577731878163e-11 1.198714196480599e-12 1
  outer loop
    vertex -2195.8408203125 2661.3515625 31949.97265625
    vertex -2162.35498046875 -53.57099914550781 31949.97265625
    vertex -2191.938232421875 2767.4091796875 31949.97265625
  endloop
endfacet
facet normal 2.712577731878163e-11 1.198714196480599e-12 1
  outer loop
    vertex -2191.938232421875 2767.4091796875 31949.97265625
    vertex -2162.35498046875 -53.57099914550781 31949.97265625
    vertex -1988.239624023438 4754.552734375 31949.97265625
  endloop
endfacet
facet normal 2.712577731878163e-11 1.198714196480599e-12 1
  outer loop
    vertex -1988.239624023438 4754.552734375 31949.97265625
    vertex -2162.35498046875 -53.57099914550781 31949.97265625
    vertex -2123.976806640625 -181.9384918212891 31949.97265625
  endloop
endfacet
facet normal 2.712577731878163e-11 1.198714196480599e-12 1
  outer loop
    vertex -1988.239624023438 4754.552734375 31949.97265625
    vertex -2123.976806640625 -181.9384918212891 31949.97265625
    vertex -2104.41748046875 -247.3604125976562 31949.97265625
  endloop
endfacet
facet normal 2.712577731878163e-11 1.198714196480599e-12 1
  outer loop
    vertex -1988.239624023438 4754.552734375 31949.97265625
    vertex -2104.41748046875 -247.3604125976562 31949.97265625
    vertex -2034.110595703125 -436.8900756835938 31949.97265625
  endloop
endfacet
facet normal 2.712577731878163e-11 1.198714196480599e-12 1
  outer loop
    vertex -1988.239624023438 4754.552734375 31949.97265625
    vertex -2034.110595703125 -436.8900756835938 31949.97265625
    vertex -1951.735961914062 -621.3482666015625 31949.97265625
  endloop
endfacet
facet normal 2.712577731878163e-11 1.198714196480599e-12 1
  outer loop
    vertex -1988.239624023438 4754.552734375 31949.97265625
    vertex -1951.735961914062 -621.3482666015625 31949.97265625
    vertex -1985.836669921875 4777.99462890625 31949.97265625
  endloop
endfacet
facet normal 2.712577731878163e-11 1.198714196480599e-12 1
  outer loop
    vertex -1985.836669921875 4777.99462890625 31949.97265625
    vertex -1951.735961914062 -621.3482666015625 31949.97265625
    vertex -1648.868774414062 6770.3037109375 31949.97265625
  endloop
endfacet
facet normal 2.712577731878163e-11 1.198714196480599e-12 1
  outer loop
    vertex -1648.868774414062 6770.3037109375 31949.97265625
    vertex -1951.735961914062 -621.3482666015625 31949.97265625
    vertex -1857.646118164062 -799.945068359375 31949.97265625
  endloop
endfacet
facet normal 2.712577731878163e-11 1.198714196480599e-12 1
  outer loop
    vertex -1648.868774414062 6770.3037109375 31949.97265625
    vertex -1857.646118164062 -799.945068359375 31949.97265625
    vertex -1752.244018554688 -971.91552734375 31949.97265625
  endloop
endfacet
facet normal 2.712577731878163e-11 1.198714196480599e-12 1
  outer loop
    vertex -1648.868774414062 6770.3037109375 31949.97265625
    vertex -1752.244018554688 -971.91552734375 31949.97265625
    vertex -1688.512084960938 -1062.148681640625 31949.97265625
  endloop
endfacet
facet normal 2.712577731878163e-11 1.198714196480599e-12 1
  outer loop
    vertex -1648.868774414062 6770.3037109375 31949.97265625
    vertex -1688.512084960938 -1062.148681640625 31949.97265625
    vertex -1635.981079101562 -1136.523193359375 31949.97265625
  endloop
endfacet
facet normal 2.712577731878163e-11 1.198714196480599e-12 1
  outer loop
    vertex -1648.868774414062 6770.3037109375 31949.97265625
    vertex -1635.981079101562 -1136.523193359375 31949.97265625
    vertex -1309.69189453125 8199.6416015625 31949.97265625
  endloop
endfacet
facet normal 2.712577731878163e-11 1.198714196480599e-12 1
  outer loop
    vertex -1309.69189453125 8199.6416015625 31949.97265625
    vertex -1635.981079101562 -1136.523193359375 31949.97265625
    vertex -1509.355224609375 -1293.063110351562 31949.97265625
  endloop
endfacet
facet normal 2.712577731878163e-11 1.198714196480599e-12 1
  outer loop
    vertex -1309.69189453125 8199.6416015625 31949.97265625
    vertex -1509.355224609375 -1293.063110351562 31949.97265625
    vertex -1372.90869140625 -1440.864868164062 31949.97265625
  endloop
endfacet
facet normal 2.712577731878163e-11 1.198714196480599e-12 1
  outer loop
    vertex -1309.69189453125 8199.6416015625 31949.97265625
    vertex -1372.90869140625 -1440.864868164062 31949.97265625
    vertex -1227.22607421875 -1579.29541015625 31949.97265625
  endloop
endfacet
facet normal 2.712577731878163e-11 1.198714196480599e-12 1
  outer loop
    vertex -1309.69189453125 8199.6416015625 31949.97265625
    vertex -1227.22607421875 -1579.29541015625 31949.97265625
    vertex -1182.515747070312 8735.5791015625 31949.97265625
  endloop
endfacet
facet normal 2.712577731878163e-11 1.198714196480599e-12 1
  outer loop
    vertex -1182.515747070312 8735.5791015625 31949.97265625
    vertex -1227.22607421875 -1579.29541015625 31949.97265625
    vertex -1072.931030273438 -1707.761962890625 31949.97265625
  endloop
endfacet
facet normal 2.712577731878163e-11 1.198714196480599e-12 1
  outer loop
    vertex -1182.515747070312 8735.5791015625 31949.97265625
    vertex -1072.931030273438 -1707.761962890625 31949.97265625
    vertex -726.547607421875 10217.564453125 31949.97265625
  endloop
endfacet
facet normal 2.712577731878163e-11 1.198714196480599e-12 1
  outer loop
    vertex -726.547607421875 10217.564453125 31949.97265625
    vertex -1072.931030273438 -1707.761962890625 31949.97265625
    vertex -1001.703796386719 -1759.543701171875 31949.97265625
  endloop
endfacet
facet normal 2.712577731878163e-11 1.198714196480599e-12 1
  outer loop
    vertex -726.547607421875 10217.564453125 31949.97265625
    vertex -1001.703796386719 -1759.543701171875 31949.97265625
    vertex -910.6843872070312 -1825.714233398438 31949.97265625
  endloop
endfacet
facet normal 2.712577731878163e-11 1.198714196480599e-12 1
  outer loop
    vertex -726.547607421875 10217.564453125 31949.97265625
    vertex -910.6843872070312 -1825.714233398438 31949.97265625
    vertex -741.18115234375 -1932.647216796875 31949.97265625
  endloop
endfacet
facet normal 2.712577731878163e-11 1.198714196480599e-12 1
  outer loop
    vertex -726.547607421875 10217.564453125 31949.97265625
    vertex -741.18115234375 -1932.647216796875 31949.97265625
    vertex -565.1471557617188 -2028.102783203125 31949.97265625
  endloop
endfacet
facet normal 2.712577731878163e-11 1.198714196480599e-12 1
  outer loop
    vertex -726.547607421875 10217.564453125 31949.97265625
    vertex -565.1471557617188 -2028.102783203125 31949.97265625
    vertex -588.8276977539062 10665.1806640625 31949.97265625
  endloop
endfacet
facet normal 2.712577731878163e-11 1.198714196480599e-12 1
  outer loop
    vertex -588.8276977539062 10665.1806640625 31949.97265625
    vertex -565.1471557617188 -2028.102783203125 31949.97265625
    vertex 129.5854797363281 12550.626953125 31949.97265625
  endloop
endfacet
facet normal 2.712577731878163e-11 1.198714196480599e-12 1
  outer loop
    vertex 129.5854797363281 12550.626953125 31949.97265625
    vertex -565.1471557617188 -2028.102783203125 31949.97265625
    vertex -383.3363037109375 -2111.67236328125 31949.97265625
  endloop
endfacet
facet normal 2.712577731878163e-11 1.198714196480599e-12 1
  outer loop
    vertex 129.5854797363281 12550.626953125 31949.97265625
    vertex -383.3363037109375 -2111.67236328125 31949.97265625
    vertex -196.5272521972656 -2182.997802734375 31949.97265625
  endloop
endfacet
facet normal 2.712577731878163e-11 1.198714196480599e-12 1
  outer loop
    vertex 129.5854797363281 12550.626953125 31949.97265625
    vertex -196.5272521972656 -2182.997802734375 31949.97265625
    vertex -134.2637176513672 -2202.1572265625 31949.97265625
  endloop
endfacet
facet normal 2.712577731878163e-11 1.198714196480599e-12 1
  outer loop
    vertex 129.5854797363281 12550.626953125 31949.97265625
    vertex -134.2637176513672 -2202.1572265625 31949.97265625
    vertex -56.67602157592773 -2225.9677734375 31949.97265625
  endloop
endfacet
facet normal 2.712577731878163e-11 1.198714196480599e-12 1
  outer loop
    vertex 129.5854797363281 12550.626953125 31949.97265625
    vertex -56.67602157592773 -2225.9677734375 31949.97265625
    vertex 21.51240348815918 -2247.66162109375 31949.97265625
  endloop
endfacet
facet normal 2.712577731878163e-11 1.198714196480599e-12 1
  outer loop
    vertex 129.5854797363281 12550.626953125 31949.97265625
    vertex 21.51240348815918 -2247.66162109375 31949.97265625
    vertex 100.2454605102539 -2267.22314453125 31949.97265625
  endloop
endfacet
facet normal 2.712577731878163e-11 1.198714196480599e-12 1
  outer loop
    vertex 129.5854797363281 12550.626953125 31949.97265625
    vertex 100.2454605102539 -2267.22314453125 31949.97265625
    vertex 179.4666595458984 -2284.637939453125 31949.97265625
  endloop
endfacet
facet normal 2.712577731878163e-11 1.198714196480599e-12 1
  outer loop
    vertex 129.5854797363281 12550.626953125 31949.97265625
    vertex 179.4666595458984 -2284.637939453125 31949.97265625
    vertex 174.5162963867188 12668.5458984375 31949.97265625
  endloop
endfacet
facet normal 2.712577731878163e-11 1.198714196480599e-12 1
  outer loop
    vertex 174.5162963867188 12668.5458984375 31949.97265625
    vertex 179.4666595458984 -2284.637939453125 31949.97265625
    vertex 233.7326049804688 12668.5458984375 31949.97265625
  endloop
endfacet
facet normal 2.712577731878163e-11 1.198714196480599e-12 1
  outer loop
    vertex 233.7326049804688 12668.5458984375 31949.97265625
    vertex 179.4666595458984 -2284.637939453125 31949.97265625
    vertex 259.1191711425781 -2299.89404296875 31949.97265625
  endloop
endfacet
facet normal 2.712577731878163e-11 1.198714196480599e-12 1
  outer loop
    vertex 233.7326049804688 12668.5458984375 31949.97265625
    vertex 259.1191711425781 -2299.89404296875 31949.97265625
    vertex 1083.732543945312 12668.5458984375 31949.97265625
  endloop
endfacet
facet normal 2.712577731878163e-11 1.198714196480599e-12 1
  outer loop
    vertex 1083.732543945312 12668.5458984375 31949.97265625
    vertex 259.1191711425781 -2299.89404296875 31949.97265625
    vertex 339.1458129882812 -2312.97998046875 31949.97265625
  endloop
endfacet
facet normal 2.712577731878163e-11 1.198714196480599e-12 1
  outer loop
    vertex 1083.732543945312 12668.5458984375 31949.97265625
    vertex 339.1458129882812 -2312.97998046875 31949.97265625
    vertex 419.4891967773438 -2323.88671875 31949.97265625
  endloop
endfacet
facet normal 2.712577731878163e-11 1.198714196480599e-12 1
  outer loop
    vertex 1083.732543945312 12668.5458984375 31949.97265625
    vertex 419.4891967773438 -2323.88671875 31949.97265625
    vertex 500.0917053222656 -2332.6064453125 31949.97265625
  endloop
endfacet
facet normal 2.712577731878163e-11 1.198714196480599e-12 1
  outer loop
    vertex 1083.732543945312 12668.5458984375 31949.97265625
    vertex 500.0917053222656 -2332.6064453125 31949.97265625
    vertex 580.8954467773438 -2339.1328125 31949.97265625
  endloop
endfacet
facet normal 2.712577731878163e-11 1.198714196480599e-12 1
  outer loop
    vertex 1083.732543945312 12668.5458984375 31949.97265625
    vertex 580.8954467773438 -2339.1328125 31949.97265625
    vertex 661.842529296875 -2343.4609375 31949.97265625
  endloop
endfacet
facet normal 2.712577731878163e-11 1.198714196480599e-12 1
  outer loop
    vertex 1083.732543945312 12668.5458984375 31949.97265625
    vertex 661.842529296875 -2343.4609375 31949.97265625
    vertex 742.8748168945312 -2345.588134765625 31949.97265625
  endloop
endfacet
facet normal 2.712577731878163e-11 1.198714196480599e-12 1
  outer loop
    vertex 1083.732543945312 12668.5458984375 31949.97265625
    vertex 742.8748168945312 -2345.588134765625 31949.97265625
    vertex 823.9342041015625 -2345.512451171875 31949.97265625
  endloop
endfacet
facet normal 2.712577731878163e-11 1.198714196480599e-12 1
  outer loop
    vertex 1083.732543945312 12668.5458984375 31949.97265625
    vertex 823.9342041015625 -2345.512451171875 31949.97265625
    vertex 1708.150512695312 -2308.758544921875 31949.97265625
  endloop
endfacet
facet normal 2.712577731878163e-11 1.198714196480599e-12 1
  outer loop
    vertex 1083.732543945312 12668.5458984375 31949.97265625
    vertex 1708.150512695312 -2308.758544921875 31949.97265625
    vertex 6427.1943359375 12668.5458984375 31949.97265625
  endloop
endfacet
facet normal 2.712577731878163e-11 1.198714196480599e-12 1
  outer loop
    vertex 6427.1943359375 12668.5458984375 31949.97265625
    vertex 1708.150512695312 -2308.758544921875 31949.97265625
    vertex 2627.87255859375 -2208.725341796875 31949.97265625
  endloop
endfacet
facet normal 2.712577731878163e-11 1.198714196480599e-12 1
  outer loop
    vertex 6427.1943359375 12668.5458984375 31949.97265625
    vertex 2627.87255859375 -2208.725341796875 31949.97265625
    vertex 3539.113525390625 -2047.509033203125 31949.97265625
  endloop
endfacet
facet normal 2.712577731878163e-11 1.198714196480599e-12 1
  outer loop
    vertex 6427.1943359375 12668.5458984375 31949.97265625
    vertex 3539.113525390625 -2047.509033203125 31949.97265625
    vertex 3609.056640625 -2030.256958007812 31949.97265625
  endloop
endfacet
facet normal 2.712577731878163e-11 1.198714196480599e-12 1
  outer loop
    vertex 6427.1943359375 12668.5458984375 31949.97265625
    vertex 3609.056640625 -2030.256958007812 31949.97265625
    vertex 4437.92431640625 -1825.808471679688 31949.97265625
  endloop
endfacet
facet normal 2.712577731878163e-11 1.198714196480599e-12 1
  outer loop
    vertex 6427.1943359375 12668.5458984375 31949.97265625
    vertex 4437.92431640625 -1825.808471679688 31949.97265625
    vertex 5320.40869140625 -1544.584594726562 31949.97265625
  endloop
endfacet
facet normal 2.712577731878163e-11 1.198714196480599e-12 1
  outer loop
    vertex 6427.1943359375 12668.5458984375 31949.97265625
    vertex 5320.40869140625 -1544.584594726562 31949.97265625
    vertex 5584.125 -1440.751098632812 31949.97265625
  endloop
endfacet
facet normal 2.712577731878163e-11 1.198714196480599e-12 1
  outer loop
    vertex 6427.1943359375 12668.5458984375 31949.97265625
    vertex 5584.125 -1440.751098632812 31949.97265625
    vertex 6182.7421875 -1205.056274414062 31949.97265625
  endloop
endfacet
facet normal 2.712577731878163e-11 1.198714196480599e-12 1
  outer loop
    vertex 6427.1943359375 12668.5458984375 31949.97265625
    vertex 6182.7421875 -1205.056274414062 31949.97265625
    vertex 6427.1943359375 11933.673828125 31949.97265625
  endloop
endfacet
facet normal 2.712577731878163e-11 1.198714196480599e-12 1
  outer loop
    vertex 6427.1943359375 11933.673828125 31949.97265625
    vertex 6182.7421875 -1205.056274414062 31949.97265625
    vertex 7021.1865234375 -808.6952514648438 31949.97265625
  endloop
endfacet
facet normal 2.712577731878163e-11 1.198714196480599e-12 1
  outer loop
    vertex 6427.1943359375 11933.673828125 31949.97265625
    vertex 7021.1865234375 -808.6952514648438 31949.97265625
    vertex 8712.9189453125 11933.673828125 31949.97265625
  endloop
endfacet
facet normal 2.712577731878163e-11 1.198714196480599e-12 1
  outer loop
    vertex 8712.9189453125 11933.673828125 31949.97265625
    vertex 7021.1865234375 -808.6952514648438 31949.97265625
    vertex 7832.10791015625 -357.2193603515625 31949.97265625
  endloop
endfacet
facet normal 2.712577731878163e-11 1.198714196480599e-12 1
  outer loop
    vertex 8712.9189453125 11933.673828125 31949.97265625
    vertex 7832.10791015625 -357.2193603515625 31949.97265625
    vertex 8611.9912109375 147.4145202636719 31949.97265625
  endloop
endfacet
facet normal 2.712577731878163e-11 1.198714196480599e-12 1
  outer loop
    vertex 8712.9189453125 11933.673828125 31949.97265625
    vertex 8611.9912109375 147.4145202636719 31949.97265625
    vertex 8702.6513671875 206.0773010253906 31949.97265625
  endloop
endfacet
facet normal 2.712577731878163e-11 1.198714196480599e-12 1
  outer loop
    vertex 8712.9189453125 11933.673828125 31949.97265625
    vertex 8702.6513671875 206.0773010253906 31949.97265625
    vertex 8712.9189453125 2810.203125 31949.97265625
  endloop
endfacet
facet normal 2.712577731878163e-11 1.198714196480599e-12 1
  outer loop
    vertex 8712.9189453125 2810.203125 31949.97265625
    vertex 8702.6513671875 206.0773010253906 31949.97265625
    vertex 8712.9189453125 206.0773010253906 31949.97265625
  endloop
endfacet
facet normal 2.712577731878163e-11 1.198714196480599e-12 1
  outer loop
    vertex 8712.9189453125 11933.673828125 31949.97265625
    vertex 8712.9189453125 6834.7353515625 31949.97265625
    vertex 8712.9189453125 9675.546875 31949.97265625
  endloop
endfacet
facet normal 2.712577731878163e-11 1.198714196480599e-12 1
  outer loop
    vertex 8712.9189453125 6834.7353515625 31949.97265625
    vertex 8712.9189453125 11933.673828125 31949.97265625
    vertex 8712.9189453125 2810.203125 31949.97265625
  endloop
endfacet
facet normal 2.712577731878163e-11 1.198714196480599e-12 1
  outer loop
    vertex 8712.9189453125 6834.7353515625 31949.97265625
    vertex 8712.9189453125 2810.203125 31949.97265625
    vertex 8712.9189453125 5414.3291015625 31949.97265625
  endloop
endfacet
facet normal 1 3.662168970310596e-15 -2.712577731878163e-11
  outer loop
    vertex 6427.1943359375 12668.5458984375 31549.984375
    vertex 6427.1943359375 11933.673828125 31949.97265625
    vertex 6427.1943359375 11933.673828125 31549.984375
  endloop
endfacet
facet normal 1 3.662168970310596e-15 -2.712577731878163e-11
  outer loop
    vertex 6427.1943359375 11933.673828125 31949.97265625
    vertex 6427.1943359375 12668.5458984375 31549.984375
    vertex 6427.1943359375 12668.5458984375 31949.97265625
  endloop
endfacet
endsolid com.sketchup.SketchUp.2019
