solid com.sketchup.SketchUp.2019
facet normal 9.883452776193735e-07 -9.953679409591132e-07 -1
  outer loop
    vertex 18467.919921875 7533.67333984375 31549.986328125
    vertex 12517.9208984375 843.599853515625 31549.986328125
    vertex 12517.9208984375 7533.67333984375 31549.974609375
  endloop
endfacet
facet normal 9.883452776193735e-07 -9.953679409591132e-07 -1
  outer loop
    vertex 12517.9208984375 843.599853515625 31549.986328125
    vertex 18467.919921875 7533.67333984375 31549.986328125
    vertex 18467.919921875 843.599853515625 31549.986328125
  endloop
endfacet
facet normal -9.883452776193735e-07 9.953679409591132e-07 1
  outer loop
    vertex 18467.919921875 843.6002197265625 31949.986328125
    vertex 12517.9208984375 7533.673828125 31949.974609375
    vertex 12517.9208984375 843.6002197265625 31949.986328125
  endloop
endfacet
facet normal -9.883452776193735e-07 9.953679409591132e-07 1
  outer loop
    vertex 12517.9208984375 7533.673828125 31949.974609375
    vertex 18467.919921875 843.6002197265625 31949.986328125
    vertex 18467.919921875 7533.673828125 31949.986328125
  endloop
endfacet
facet normal -1 -1.967534425315054e-12 -9.883452776193735e-07
  outer loop
    vertex 12517.9208984375 843.6002197265625 31949.986328125
    vertex 12517.9208984375 7533.67333984375 31549.974609375
    vertex 12517.9208984375 843.599853515625 31549.986328125
  endloop
endfacet
facet normal -1 -1.967534425315054e-12 -9.883452776193735e-07
  outer loop
    vertex 12517.9208984375 7533.67333984375 31549.974609375
    vertex 12517.9208984375 843.6002197265625 31949.986328125
    vertex 12517.9208984375 7533.673828125 31949.974609375
  endloop
endfacet
facet normal 1.967534425315054e-12 1 -9.953679409591132e-07
  outer loop
    vertex 12517.9208984375 7533.673828125 31949.974609375
    vertex 18467.919921875 7533.67333984375 31549.986328125
    vertex 12517.9208984375 7533.67333984375 31549.974609375
  endloop
endfacet
facet normal 1.967534425315054e-12 1 -9.953679409591132e-07
  outer loop
    vertex 18467.919921875 7533.67333984375 31549.986328125
    vertex 12517.9208984375 7533.673828125 31949.974609375
    vertex 18467.919921875 7533.673828125 31949.986328125
  endloop
endfacet
facet normal 1 0 9.883452776193735e-07
  outer loop
    vertex 18467.919921875 7533.67333984375 31549.986328125
    vertex 18467.919921875 843.6002197265625 31949.986328125
    vertex 18467.919921875 843.599853515625 31549.986328125
  endloop
endfacet
facet normal 1 0 9.883452776193735e-07
  outer loop
    vertex 18467.919921875 843.6002197265625 31949.986328125
    vertex 18467.919921875 7533.67333984375 31549.986328125
    vertex 18467.919921875 7533.673828125 31949.986328125
  endloop
endfacet
facet normal 0 -1 9.953679409591132e-07
  outer loop
    vertex 18467.919921875 843.6002197265625 31949.986328125
    vertex 12517.9208984375 843.599853515625 31549.986328125
    vertex 18467.919921875 843.599853515625 31549.986328125
  endloop
endfacet
facet normal 0 -1 9.953679409591132e-07
  outer loop
    vertex 12517.9208984375 843.599853515625 31549.986328125
    vertex 18467.919921875 843.6002197265625 31949.986328125
    vertex 12517.9208984375 843.6002197265625 31949.986328125
  endloop
endfacet
endsolid com.sketchup.SketchUp.2019
