solid com.sketchup.SketchUp.2019
facet normal 2.958653328407014e-17 2.255973158774445e-17 -1
  outer loop
    vertex 30967.921875 17593.837890625 31549.97265625
    vertex 24867.921875 9533.673828125 31549.97265625
    vertex 24867.921875 17593.837890625 31549.97265625
  endloop
endfacet
facet normal 2.958653328407014e-17 2.255973158774445e-17 -1
  outer loop
    vertex 24867.921875 9533.673828125 31549.97265625
    vertex 30967.921875 17593.837890625 31549.97265625
    vertex 30967.921875 9533.673828125 31549.97265625
  endloop
endfacet
facet normal -2.958653328407014e-17 -2.255973158774445e-17 1
  outer loop
    vertex 30967.921875 9533.673828125 31949.97265625
    vertex 24867.921875 17593.837890625 31949.97265625
    vertex 24867.921875 9533.673828125 31949.97265625
  endloop
endfacet
facet normal -2.958653328407014e-17 -2.255973158774445e-17 1
  outer loop
    vertex 24867.921875 17593.837890625 31949.97265625
    vertex 30967.921875 9533.673828125 31949.97265625
    vertex 30967.921875 17593.837890625 31949.97265625
  endloop
endfacet
facet normal 1 0 2.958653328407014e-17
  outer loop
    vertex 30967.921875 17593.837890625 31549.97265625
    vertex 30967.921875 9533.673828125 31949.97265625
    vertex 30967.921875 9533.673828125 31549.97265625
  endloop
endfacet
facet normal 1 0 2.958653328407014e-17
  outer loop
    vertex 30967.921875 9533.673828125 31949.97265625
    vertex 30967.921875 17593.837890625 31549.97265625
    vertex 30967.921875 17593.837890625 31949.97265625
  endloop
endfacet
facet normal 1.334928486334238e-33 -1 -2.255973158774445e-17
  outer loop
    vertex 30967.921875 9533.673828125 31549.97265625
    vertex 24867.921875 9533.673828125 31949.97265625
    vertex 24867.921875 9533.673828125 31549.97265625
  endloop
endfacet
facet normal 1.334928486334238e-33 -1 -2.255973158774445e-17
  outer loop
    vertex 24867.921875 9533.673828125 31949.97265625
    vertex 30967.921875 9533.673828125 31549.97265625
    vertex 30967.921875 9533.673828125 31949.97265625
  endloop
endfacet
facet normal -1 1.334928486334238e-33 -2.958653328407014e-17
  outer loop
    vertex 24867.921875 17593.837890625 31949.97265625
    vertex 24867.921875 9533.673828125 31549.97265625
    vertex 24867.921875 9533.673828125 31949.97265625
  endloop
endfacet
facet normal -1 1.334928486334238e-33 -2.958653328407014e-17
  outer loop
    vertex 24867.921875 9533.673828125 31549.97265625
    vertex 24867.921875 17593.837890625 31949.97265625
    vertex 24867.921875 17593.837890625 31549.97265625
  endloop
endfacet
facet normal 0 1 2.255973158774445e-17
  outer loop
    vertex 24867.921875 17593.837890625 31949.97265625
    vertex 30967.921875 17593.837890625 31549.97265625
    vertex 24867.921875 17593.837890625 31549.97265625
  endloop
endfacet
facet normal 0 1 2.255973158774445e-17
  outer loop
    vertex 30967.921875 17593.837890625 31549.97265625
    vertex 24867.921875 17593.837890625 31949.97265625
    vertex 30967.921875 17593.837890625 31949.97265625
  endloop
endfacet
endsolid com.sketchup.SketchUp.2019
