solid com.sketchup.SketchUp.2019
facet normal 9.883452776193735e-07 -9.953679409591132e-07 -1
  outer loop
    vertex 18467.919921875 7593.84130859375 35049.98828125
    vertex 12517.9208984375 903.7677612304688 35049.98828125
    vertex 12517.9208984375 7593.84130859375 35049.97265625
  endloop
endfacet
facet normal 9.883452776193735e-07 -9.953679409591132e-07 -1
  outer loop
    vertex 12517.9208984375 903.7677612304688 35049.98828125
    vertex 18467.919921875 7593.84130859375 35049.98828125
    vertex 18467.919921875 903.7677612304688 35049.98828125
  endloop
endfacet
facet normal -9.883452776193735e-07 9.953679409591132e-07 1
  outer loop
    vertex 18467.919921875 903.7681274414062 35449.98828125
    vertex 12517.9208984375 7593.841796875 35449.97265625
    vertex 12517.9208984375 903.7681274414062 35449.98828125
  endloop
endfacet
facet normal -9.883452776193735e-07 9.953679409591132e-07 1
  outer loop
    vertex 12517.9208984375 7593.841796875 35449.97265625
    vertex 18467.919921875 903.7681274414062 35449.98828125
    vertex 18467.919921875 7593.841796875 35449.98828125
  endloop
endfacet
facet normal -1 -1.967534425315054e-12 -9.883452776193735e-07
  outer loop
    vertex 12517.9208984375 903.7681274414062 35449.98828125
    vertex 12517.9208984375 7593.84130859375 35049.97265625
    vertex 12517.9208984375 903.7677612304688 35049.98828125
  endloop
endfacet
facet normal -1 -1.967534425315054e-12 -9.883452776193735e-07
  outer loop
    vertex 12517.9208984375 7593.84130859375 35049.97265625
    vertex 12517.9208984375 903.7681274414062 35449.98828125
    vertex 12517.9208984375 7593.841796875 35449.97265625
  endloop
endfacet
facet normal 1.967534425315054e-12 1 -9.953679409591132e-07
  outer loop
    vertex 12517.9208984375 7593.841796875 35449.97265625
    vertex 18467.919921875 7593.84130859375 35049.98828125
    vertex 12517.9208984375 7593.84130859375 35049.97265625
  endloop
endfacet
facet normal 1.967534425315054e-12 1 -9.953679409591132e-07
  outer loop
    vertex 18467.919921875 7593.84130859375 35049.98828125
    vertex 12517.9208984375 7593.841796875 35449.97265625
    vertex 18467.919921875 7593.841796875 35449.98828125
  endloop
endfacet
facet normal 1 0 9.883452776193735e-07
  outer loop
    vertex 18467.919921875 7593.84130859375 35049.98828125
    vertex 18467.919921875 903.7681274414062 35449.98828125
    vertex 18467.919921875 903.7677612304688 35049.98828125
  endloop
endfacet
facet normal 1 0 9.883452776193735e-07
  outer loop
    vertex 18467.919921875 903.7681274414062 35449.98828125
    vertex 18467.919921875 7593.84130859375 35049.98828125
    vertex 18467.919921875 7593.841796875 35449.98828125
  endloop
endfacet
facet normal 0 -1 9.953679409591132e-07
  outer loop
    vertex 18467.919921875 903.7681274414062 35449.98828125
    vertex 12517.9208984375 903.7677612304688 35049.98828125
    vertex 18467.919921875 903.7677612304688 35049.98828125
  endloop
endfacet
facet normal 0 -1 9.953679409591132e-07
  outer loop
    vertex 12517.9208984375 903.7677612304688 35049.98828125
    vertex 18467.919921875 903.7681274414062 35449.98828125
    vertex 12517.9208984375 903.7681274414062 35449.98828125
  endloop
endfacet
endsolid com.sketchup.SketchUp.2019
