solid com.sketchup.SketchUp.2019
facet normal 0 0 -1
  outer loop
    vertex 20200.123046875 14056.01171875 10550
    vertex 19999.107421875 11656.01171875 10550
    vertex 19999.107421875 14056.01171875 10550
  endloop
endfacet
facet normal 0 0 -1
  outer loop
    vertex 19999.107421875 11656.01171875 10550
    vertex 20200.123046875 14056.01171875 10550
    vertex 25000 11656.01171875 10550
  endloop
endfacet
facet normal 0 0 -1
  outer loop
    vertex 25000 11656.01171875 10550
    vertex 20200.123046875 14056.01171875 10550
    vertex 25000 14056.01171875 10550
  endloop
endfacet
facet normal -1 0 0
  outer loop
    vertex 19999.107421875 14056.01171875 10950
    vertex 19999.107421875 11656.01171875 10550
    vertex 19999.107421875 11656.01171875 10950
  endloop
endfacet
facet normal -1 0 0
  outer loop
    vertex 19999.107421875 11656.01171875 10550
    vertex 19999.107421875 14056.01171875 10950
    vertex 19999.107421875 14056.01171875 10550
  endloop
endfacet
facet normal 0 -1 0
  outer loop
    vertex 25000 11656.01171875 10950
    vertex 19999.107421875 11656.01171875 10550
    vertex 25000 11656.01171875 10550
  endloop
endfacet
facet normal 0 -1 0
  outer loop
    vertex 19999.107421875 11656.01171875 10550
    vertex 25000 11656.01171875 10950
    vertex 19999.107421875 11656.01171875 10950
  endloop
endfacet
facet normal 1 0 0
  outer loop
    vertex 25000 14056.01171875 10550
    vertex 25000 11656.01171875 10950
    vertex 25000 11656.01171875 10550
  endloop
endfacet
facet normal 1 0 0
  outer loop
    vertex 25000 11656.01171875 10950
    vertex 25000 14056.01171875 10550
    vertex 25000 14056.01171875 10950
  endloop
endfacet
facet normal 0 1 0
  outer loop
    vertex 19999.107421875 14056.01171875 10950
    vertex 20200.123046875 14056.01171875 10550
    vertex 19999.107421875 14056.01171875 10550
  endloop
endfacet
facet normal 0 1 0
  outer loop
    vertex 20200.123046875 14056.01171875 10550
    vertex 19999.107421875 14056.01171875 10950
    vertex 20200.123046875 14056.01171875 10950
  endloop
endfacet
facet normal 0 0 1
  outer loop
    vertex 25000 11656.01171875 10950
    vertex 19999.107421875 14056.01171875 10950
    vertex 19999.107421875 11656.01171875 10950
  endloop
endfacet
facet normal 0 0 1
  outer loop
    vertex 19999.107421875 14056.01171875 10950
    vertex 25000 11656.01171875 10950
    vertex 20200.123046875 14056.01171875 10950
  endloop
endfacet
facet normal 0 0 1
  outer loop
    vertex 20200.123046875 14056.01171875 10950
    vertex 25000 11656.01171875 10950
    vertex 25000 14056.01171875 10950
  endloop
endfacet
facet normal 4.451901493935859e-14 1 -1.160275128460949e-42
  outer loop
    vertex 20200.123046875 14056.01171875 10950
    vertex 25000 14056.01171875 10550
    vertex 20200.123046875 14056.01171875 10550
  endloop
endfacet
facet normal 4.451901493935859e-14 1 -1.160275128460949e-42
  outer loop
    vertex 25000 14056.01171875 10550
    vertex 20200.123046875 14056.01171875 10950
    vertex 25000 14056.01171875 10950
  endloop
endfacet
endsolid com.sketchup.SketchUp.2019
