solid com.sketchup.SketchUp.2019
facet normal 2.887129800166412e-16 -6.015928688096316e-16 -1
  outer loop
    vertex 25000 14154.26171875 14050
    vertex 19999.107421875 11656.01171875 14050
    vertex 19999.107421875 14154.26171875 14050
  endloop
endfacet
facet normal 2.887129800166412e-16 -6.015928688096316e-16 -1
  outer loop
    vertex 19999.107421875 11656.01171875 14050
    vertex 25000 14154.26171875 14050
    vertex 25000 11656.01171875 14050
  endloop
endfacet
facet normal -2.887129800166412e-16 6.015928688096316e-16 1
  outer loop
    vertex 25000 11656.01171875 14450
    vertex 19999.107421875 14154.26171875 14450
    vertex 19999.107421875 11656.01171875 14450
  endloop
endfacet
facet normal -2.887129800166412e-16 6.015928688096316e-16 1
  outer loop
    vertex 19999.107421875 14154.26171875 14450
    vertex 25000 11656.01171875 14450
    vertex 25000 14154.26171875 14450
  endloop
endfacet
facet normal 0 -1 6.015928688096316e-16
  outer loop
    vertex 25000 11656.01171875 14450
    vertex 19999.107421875 11656.01171875 14050
    vertex 25000 11656.01171875 14050
  endloop
endfacet
facet normal 0 -1 6.015928688096316e-16
  outer loop
    vertex 19999.107421875 11656.01171875 14050
    vertex 25000 11656.01171875 14450
    vertex 19999.107421875 11656.01171875 14450
  endloop
endfacet
facet normal -1 -3.473753432174287e-31 -2.887129800166412e-16
  outer loop
    vertex 19999.107421875 14154.26171875 14450
    vertex 19999.107421875 11656.01171875 14050
    vertex 19999.107421875 11656.01171875 14450
  endloop
endfacet
facet normal -1 -3.473753432174287e-31 -2.887129800166412e-16
  outer loop
    vertex 19999.107421875 11656.01171875 14050
    vertex 19999.107421875 14154.26171875 14450
    vertex 19999.107421875 14154.26171875 14050
  endloop
endfacet
facet normal 3.473753432174287e-31 1 -6.015928688096316e-16
  outer loop
    vertex 19999.107421875 14154.26171875 14450
    vertex 25000 14154.26171875 14050
    vertex 19999.107421875 14154.26171875 14050
  endloop
endfacet
facet normal 3.473753432174287e-31 1 -6.015928688096316e-16
  outer loop
    vertex 25000 14154.26171875 14050
    vertex 19999.107421875 14154.26171875 14450
    vertex 25000 14154.26171875 14450
  endloop
endfacet
facet normal 1 0 2.887129800166412e-16
  outer loop
    vertex 25000 14154.26171875 14050
    vertex 25000 11656.01171875 14450
    vertex 25000 11656.01171875 14050
  endloop
endfacet
facet normal 1 0 2.887129800166412e-16
  outer loop
    vertex 25000 11656.01171875 14450
    vertex 25000 14154.26171875 14050
    vertex 25000 14154.26171875 14450
  endloop
endfacet
endsolid com.sketchup.SketchUp.2019
