solid com.sketchup.SketchUp.2019
facet normal 7.330255312790711e-15 -2.220260549034864e-14 -1
  outer loop
    vertex 25017.921875 14213.3603515625 42049.97265625
    vertex 20018.044921875 11656.01171875 42049.97265625
    vertex 20018.044921875 14213.3603515625 42049.97265625
  endloop
endfacet
facet normal 7.330255312790711e-15 -2.220260549034864e-14 -1
  outer loop
    vertex 20018.044921875 11656.01171875 42049.97265625
    vertex 25017.921875 14213.3603515625 42049.97265625
    vertex 25017.921875 11656.01171875 42049.97265625
  endloop
endfacet
facet normal 1.412317642900758e-15 6.878069738514318e-15 1
  outer loop
    vertex 20018.044921875 11656.01171875 42449.97265625
    vertex 25017.921875 14213.3603515625 42449.97265625
    vertex 20018.044921875 14213.3603515625 42449.97265625
  endloop
endfacet
facet normal 1.412317642900758e-15 6.878069738514318e-15 1
  outer loop
    vertex 25017.921875 14213.3603515625 42449.97265625
    vertex 20018.044921875 11656.01171875 42449.97265625
    vertex 25017.921875 11656.01171875 42449.97265625
  endloop
endfacet
facet normal 0 1 -8.33635765940758e-15
  outer loop
    vertex 20018.044921875 14213.3603515625 42049.97265625
    vertex 25017.921875 14213.3603515625 42449.97265625
    vertex 25017.921875 14213.3603515625 42049.97265625
  endloop
endfacet
facet normal 0 1 -8.33635765940758e-15
  outer loop
    vertex 25017.921875 14213.3603515625 42449.97265625
    vertex 20018.044921875 14213.3603515625 42049.97265625
    vertex 20018.044921875 14213.3603515625 42449.97265625
  endloop
endfacet
facet normal 2.978735636441319e-29 -1 8.33635765940758e-15
  outer loop
    vertex 25017.921875 11656.01171875 42449.97265625
    vertex 20018.044921875 11656.01171875 42049.97265625
    vertex 25017.921875 11656.01171875 42049.97265625
  endloop
endfacet
facet normal 2.978735636441319e-29 -1 8.33635765940758e-15
  outer loop
    vertex 20018.044921875 11656.01171875 42049.97265625
    vertex 25017.921875 11656.01171875 42449.97265625
    vertex 20018.044921875 11656.01171875 42449.97265625
  endloop
endfacet
facet normal 1 -7.370067461011545e-30 -1.786593020809582e-15
  outer loop
    vertex 25017.921875 14213.3603515625 42049.97265625
    vertex 25017.921875 11656.01171875 42449.97265625
    vertex 25017.921875 11656.01171875 42049.97265625
  endloop
endfacet
facet normal 1 -7.370067461011545e-30 -1.786593020809582e-15
  outer loop
    vertex 25017.921875 11656.01171875 42449.97265625
    vertex 25017.921875 14213.3603515625 42049.97265625
    vertex 25017.921875 14213.3603515625 42449.97265625
  endloop
endfacet
facet normal -1 -6.157741146411294e-14 1.732587462171739e-13
  outer loop
    vertex 20018.044921875 11656.01171875 42449.97265625
    vertex 20018.044921875 14213.3603515625 42049.97265625
    vertex 20018.044921875 11656.01171875 42049.97265625
  endloop
endfacet
facet normal -1 -6.157741146411294e-14 1.732587462171739e-13
  outer loop
    vertex 20018.044921875 14213.3603515625 42049.97265625
    vertex 20018.044921875 11656.01171875 42449.97265625
    vertex 20018.044921875 14213.3603515625 42449.97265625
  endloop
endfacet
endsolid com.sketchup.SketchUp.2019
