solid com.sketchup.SketchUp.2019
facet normal -2.405760764483556e-14 2.405619377744e-13 -1
  outer loop
    vertex 21567.212890625 14091.0849609375 7050
    vertex 19900.544921875 12791.0849609375 7050
    vertex 19900.544921875 14091.0849609375 7050
  endloop
endfacet
facet normal -2.405760764483556e-14 2.405619377744e-13 -1
  outer loop
    vertex 19900.544921875 11991.0849609375 7050
    vertex 24483.75390625 11691.0849609375 7050
    vertex 19900.544921875 11691.0849609375 7050
  endloop
endfacet
facet normal -2.405760764483556e-14 2.405619377744e-13 -1
  outer loop
    vertex 24483.75390625 11691.0849609375 7050
    vertex 19900.544921875 11991.0849609375 7050
    vertex 19900.544921875 12791.0849609375 7050
  endloop
endfacet
facet normal -2.405760764483556e-14 2.405619377744e-13 -1
  outer loop
    vertex 24483.75390625 11691.0849609375 7050
    vertex 19900.544921875 12791.0849609375 7050
    vertex 21567.212890625 14091.0849609375 7050
  endloop
endfacet
facet normal -2.405760764483556e-14 2.405619377744e-13 -1
  outer loop
    vertex 24483.75390625 11691.0849609375 7050
    vertex 21567.212890625 14091.0849609375 7050
    vertex 21671.37890625 14091.0849609375 7050
  endloop
endfacet
facet normal -2.405760764483556e-14 2.405619377744e-13 -1
  outer loop
    vertex 24483.75390625 11691.0849609375 7050
    vertex 21671.37890625 14091.0849609375 7050
    vertex 23129.71484375 14091.0849609375 7050
  endloop
endfacet
facet normal -2.405760764483556e-14 2.405619377744e-13 -1
  outer loop
    vertex 24483.75390625 11691.0849609375 7050
    vertex 23129.71484375 14091.0849609375 7050
    vertex 23233.880859375 14091.0849609375 7050
  endloop
endfacet
facet normal -2.405760764483556e-14 2.405619377744e-13 -1
  outer loop
    vertex 24483.75390625 11691.0849609375 7050
    vertex 23233.880859375 14091.0849609375 7050
    vertex 24900.421875 14091.0849609375 7050
  endloop
endfacet
facet normal -2.405760764483556e-14 2.405619377744e-13 -1
  outer loop
    vertex 24483.75390625 11691.0849609375 7050
    vertex 24900.421875 14091.0849609375 7050
    vertex 24900.421875 13328.0849609375 7050
  endloop
endfacet
facet normal -2.405760764483556e-14 2.405619377744e-13 -1
  outer loop
    vertex 24900.421875 11691.0849609375 7050
    vertex 24483.75390625 11691.0849609375 7050
    vertex 24900.421875 13328.0849609375 7050
  endloop
endfacet
facet normal 1.620735202946186e-14 -2.132577426282312e-13 1
  outer loop
    vertex 24900.421875 11691.0849609375 7450
    vertex 24900.421875 13328.0849609375 7450
    vertex 24483.75390625 11691.0849609375 7450
  endloop
endfacet
facet normal 1.620735202946186e-14 -2.132577426282312e-13 1
  outer loop
    vertex 24483.75390625 11691.0849609375 7450
    vertex 19900.544921875 11991.0849609375 7450
    vertex 19900.544921875 11691.0849609375 7450
  endloop
endfacet
facet normal 1.620735202946186e-14 -2.132577426282312e-13 1
  outer loop
    vertex 19900.544921875 11991.0849609375 7450
    vertex 24483.75390625 11691.0849609375 7450
    vertex 19900.544921875 12791.0849609375 7450
  endloop
endfacet
facet normal 1.620735202946186e-14 -2.132577426282312e-13 1
  outer loop
    vertex 19900.544921875 12791.0849609375 7450
    vertex 24483.75390625 11691.0849609375 7450
    vertex 21567.212890625 14091.0849609375 7450
  endloop
endfacet
facet normal 1.620735202946186e-14 -2.132577426282312e-13 1
  outer loop
    vertex 21567.212890625 14091.0849609375 7450
    vertex 24483.75390625 11691.0849609375 7450
    vertex 21671.37890625 14091.0849609375 7450
  endloop
endfacet
facet normal 1.620735202946186e-14 -2.132577426282312e-13 1
  outer loop
    vertex 21671.37890625 14091.0849609375 7450
    vertex 24483.75390625 11691.0849609375 7450
    vertex 23129.71484375 14091.0849609375 7450
  endloop
endfacet
facet normal 1.620735202946186e-14 -2.132577426282312e-13 1
  outer loop
    vertex 23129.71484375 14091.0849609375 7450
    vertex 24483.75390625 11691.0849609375 7450
    vertex 23233.880859375 14091.0849609375 7450
  endloop
endfacet
facet normal 1.620735202946186e-14 -2.132577426282312e-13 1
  outer loop
    vertex 23233.880859375 14091.0849609375 7450
    vertex 24483.75390625 11691.0849609375 7450
    vertex 24900.421875 14091.0849609375 7450
  endloop
endfacet
facet normal 1.620735202946186e-14 -2.132577426282312e-13 1
  outer loop
    vertex 24900.421875 14091.0849609375 7450
    vertex 24483.75390625 11691.0849609375 7450
    vertex 24900.421875 13328.0849609375 7450
  endloop
endfacet
facet normal 1.620735202946186e-14 -2.132577426282312e-13 1
  outer loop
    vertex 21567.212890625 14091.0849609375 7450
    vertex 19900.544921875 14091.0849609375 7450
    vertex 19900.544921875 12791.0849609375 7450
  endloop
endfacet
facet normal -1 1.219740237631828e-12 6.930342682788223e-15
  outer loop
    vertex 19900.544921875 11991.0849609375 7450
    vertex 19900.544921875 11691.0849609375 7050
    vertex 19900.544921875 11691.0849609375 7450
  endloop
endfacet
facet normal -1 1.219740237631828e-12 6.930342682788223e-15
  outer loop
    vertex 19900.544921875 11691.0849609375 7050
    vertex 19900.544921875 11991.0849609375 7450
    vertex 19900.544921875 11991.0849609375 7050
  endloop
endfacet
facet normal 7.964500369980754e-14 -1 -1.76868299194867e-13
  outer loop
    vertex 24483.75390625 11691.0849609375 7450
    vertex 19900.544921875 11691.0849609375 7050
    vertex 24483.75390625 11691.0849609375 7050
  endloop
endfacet
facet normal 7.964500369980754e-14 -1 -1.76868299194867e-13
  outer loop
    vertex 19900.544921875 11691.0849609375 7050
    vertex 24483.75390625 11691.0849609375 7450
    vertex 19900.544921875 11691.0849609375 7450
  endloop
endfacet
facet normal 3.759959347587579e-15 -1 -1.76868299194867e-13
  outer loop
    vertex 24900.421875 11691.0849609375 7450
    vertex 24483.75390625 11691.0849609375 7050
    vertex 24900.421875 11691.0849609375 7050
  endloop
endfacet
facet normal 3.759959347587579e-15 -1 -1.76868299194867e-13
  outer loop
    vertex 24483.75390625 11691.0849609375 7050
    vertex 24900.421875 11691.0849609375 7450
    vertex 24483.75390625 11691.0849609375 7450
  endloop
endfacet
facet normal 1 6.415746026892238e-14 -8.991082787416105e-15
  outer loop
    vertex 24900.421875 11691.0849609375 7050
    vertex 24900.421875 13328.0849609375 7450
    vertex 24900.421875 11691.0849609375 7450
  endloop
endfacet
facet normal 1 6.415746026892238e-14 -8.991082787416105e-15
  outer loop
    vertex 24900.421875 13328.0849609375 7450
    vertex 24900.421875 11691.0849609375 7050
    vertex 24900.421875 13328.0849609375 7050
  endloop
endfacet
facet normal 1 4.400217576373475e-14 -8.991082787416105e-15
  outer loop
    vertex 24900.421875 13328.0849609375 7050
    vertex 24900.421875 14091.0849609375 7450
    vertex 24900.421875 13328.0849609375 7450
  endloop
endfacet
facet normal 1 4.400217576373475e-14 -8.991082787416105e-15
  outer loop
    vertex 24900.421875 14091.0849609375 7450
    vertex 24900.421875 13328.0849609375 7050
    vertex 24900.421875 14091.0849609375 7050
  endloop
endfacet
facet normal 7.012863597125052e-13 1 1.732587462171739e-13
  outer loop
    vertex 23233.880859375 14091.0849609375 7050
    vertex 24900.421875 14091.0849609375 7450
    vertex 24900.421875 14091.0849609375 7050
  endloop
endfacet
facet normal 7.012863597125052e-13 1 1.732587462171739e-13
  outer loop
    vertex 24900.421875 14091.0849609375 7450
    vertex 23233.880859375 14091.0849609375 7050
    vertex 23233.880859375 14091.0849609375 7450
  endloop
endfacet
facet normal -4.63226982813647e-12 1 1.732587462171739e-13
  outer loop
    vertex 23129.71484375 14091.0849609375 7050
    vertex 23233.880859375 14091.0849609375 7450
    vertex 23233.880859375 14091.0849609375 7050
  endloop
endfacet
facet normal -4.63226982813647e-12 1 1.732587462171739e-13
  outer loop
    vertex 23233.880859375 14091.0849609375 7450
    vertex 23129.71484375 14091.0849609375 7050
    vertex 23129.71484375 14091.0849609375 7450
  endloop
endfacet
facet normal 1.11724499552053e-13 1 1.371631757826619e-13
  outer loop
    vertex 21671.37890625 14091.0849609375 7450
    vertex 23129.71484375 14091.0849609375 7050
    vertex 21671.37890625 14091.0849609375 7050
  endloop
endfacet
facet normal 1.11724499552053e-13 1 1.371631757826619e-13
  outer loop
    vertex 23129.71484375 14091.0849609375 7050
    vertex 21671.37890625 14091.0849609375 7450
    vertex 23129.71484375 14091.0849609375 7450
  endloop
endfacet
facet normal 1.052788607160127e-12 1 1.371631757826619e-13
  outer loop
    vertex 21567.212890625 14091.0849609375 7450
    vertex 21671.37890625 14091.0849609375 7050
    vertex 21567.212890625 14091.0849609375 7050
  endloop
endfacet
facet normal 1.052788607160127e-12 1 1.371631757826619e-13
  outer loop
    vertex 21671.37890625 14091.0849609375 7050
    vertex 21567.212890625 14091.0849609375 7450
    vertex 21671.37890625 14091.0849609375 7450
  endloop
endfacet
facet normal 7.331920579565013e-14 1 1.732587462171739e-13
  outer loop
    vertex 19900.544921875 14091.0849609375 7450
    vertex 21567.212890625 14091.0849609375 7050
    vertex 19900.544921875 14091.0849609375 7050
  endloop
endfacet
facet normal 7.331920579565013e-14 1 1.732587462171739e-13
  outer loop
    vertex 21567.212890625 14091.0849609375 7050
    vertex 19900.544921875 14091.0849609375 7450
    vertex 21567.212890625 14091.0849609375 7450
  endloop
endfacet
facet normal -1 -3.131138198112643e-13 6.930342682788223e-15
  outer loop
    vertex 19900.544921875 14091.0849609375 7450
    vertex 19900.544921875 12791.0849609375 7050
    vertex 19900.544921875 12791.0849609375 7450
  endloop
endfacet
facet normal -1 -3.131138198112643e-13 6.930342682788223e-15
  outer loop
    vertex 19900.544921875 12791.0849609375 7050
    vertex 19900.544921875 14091.0849609375 7450
    vertex 19900.544921875 14091.0849609375 7050
  endloop
endfacet
facet normal -1 4.296812471799027e-13 6.930342682788223e-15
  outer loop
    vertex 19900.544921875 12791.0849609375 7450
    vertex 19900.544921875 11991.0849609375 7050
    vertex 19900.544921875 11991.0849609375 7450
  endloop
endfacet
facet normal -1 4.296812471799027e-13 6.930342682788223e-15
  outer loop
    vertex 19900.544921875 11991.0849609375 7050
    vertex 19900.544921875 12791.0849609375 7450
    vertex 19900.544921875 12791.0849609375 7050
  endloop
endfacet
endsolid com.sketchup.SketchUp.2019
