solid com.sketchup.SketchUp.2019
facet normal 2.887129800166412e-16 -6.262206693884056e-16 -1
  outer loop
    vertex 25000 14154.26171875 21049.986328125
    vertex 19999.107421875 11656.01171875 21049.986328125
    vertex 19999.107421875 14154.26171875 21049.986328125
  endloop
endfacet
facet normal 2.887129800166412e-16 -6.262206693884056e-16 -1
  outer loop
    vertex 19999.107421875 11656.01171875 21049.986328125
    vertex 25000 14154.26171875 21049.986328125
    vertex 25000 11656.01171875 21049.986328125
  endloop
endfacet
facet normal -2.887129800166412e-16 6.262206693884056e-16 1
  outer loop
    vertex 25000 11656.01171875 21449.986328125
    vertex 19999.107421875 14154.26171875 21449.986328125
    vertex 19999.107421875 11656.01171875 21449.986328125
  endloop
endfacet
facet normal -2.887129800166412e-16 6.262206693884056e-16 1
  outer loop
    vertex 19999.107421875 14154.26171875 21449.986328125
    vertex 25000 11656.01171875 21449.986328125
    vertex 25000 14154.26171875 21449.986328125
  endloop
endfacet
facet normal 0 -1 5.779335974664837e-16
  outer loop
    vertex 25000 11656.01171875 21449.986328125
    vertex 19999.107421875 11656.01171875 21049.986328125
    vertex 25000 11656.01171875 21049.986328125
  endloop
endfacet
facet normal 0 -1 5.779335974664837e-16
  outer loop
    vertex 19999.107421875 11656.01171875 21049.986328125
    vertex 25000 11656.01171875 21449.986328125
    vertex 19999.107421875 11656.01171875 21449.986328125
  endloop
endfacet
facet normal -1 -3.615960742055974e-31 -2.887129800166412e-16
  outer loop
    vertex 19999.107421875 14154.26171875 21449.986328125
    vertex 19999.107421875 11656.01171875 21049.986328125
    vertex 19999.107421875 11656.01171875 21449.986328125
  endloop
endfacet
facet normal -1 -3.615960742055974e-31 -2.887129800166412e-16
  outer loop
    vertex 19999.107421875 11656.01171875 21049.986328125
    vertex 19999.107421875 14154.26171875 21449.986328125
    vertex 19999.107421875 14154.26171875 21049.986328125
  endloop
endfacet
facet normal 3.337138889314942e-31 1 -5.779335974664837e-16
  outer loop
    vertex 19999.107421875 14154.26171875 21449.986328125
    vertex 25000 14154.26171875 21049.986328125
    vertex 19999.107421875 14154.26171875 21049.986328125
  endloop
endfacet
facet normal 3.337138889314942e-31 1 -5.779335974664837e-16
  outer loop
    vertex 25000 14154.26171875 21049.986328125
    vertex 19999.107421875 14154.26171875 21449.986328125
    vertex 25000 14154.26171875 21449.986328125
  endloop
endfacet
facet normal 1 0 2.887129800166412e-16
  outer loop
    vertex 25000 14154.26171875 21049.986328125
    vertex 25000 11656.01171875 21449.986328125
    vertex 25000 11656.01171875 21049.986328125
  endloop
endfacet
facet normal 1 0 2.887129800166412e-16
  outer loop
    vertex 25000 11656.01171875 21449.986328125
    vertex 25000 14154.26171875 21049.986328125
    vertex 25000 14154.26171875 21449.986328125
  endloop
endfacet
endsolid com.sketchup.SketchUp.2019
