solid com.sketchup.SketchUp.2019
facet normal 2.887129800166412e-16 -6.410344815424953e-16 -1
  outer loop
    vertex 25017.921875 14213.3603515625 24549.97265625
    vertex 20017.02734375 11656.01171875 24549.97265625
    vertex 20017.02734375 14213.3603515625 24549.97265625
  endloop
endfacet
facet normal 2.887129800166412e-16 -6.410344815424953e-16 -1
  outer loop
    vertex 20017.02734375 11656.01171875 24549.97265625
    vertex 25017.921875 14213.3603515625 24549.97265625
    vertex 25017.921875 11656.01171875 24549.97265625
  endloop
endfacet
facet normal -2.887129800166412e-16 6.410344815424953e-16 1
  outer loop
    vertex 25017.921875 11656.01171875 24949.97265625
    vertex 20017.02734375 14213.3603515625 24949.97265625
    vertex 20017.02734375 11656.01171875 24949.97265625
  endloop
endfacet
facet normal -2.887129800166412e-16 6.410344815424953e-16 1
  outer loop
    vertex 20017.02734375 14213.3603515625 24949.97265625
    vertex 25017.921875 11656.01171875 24949.97265625
    vertex 25017.921875 14213.3603515625 24949.97265625
  endloop
endfacet
facet normal 0 -1 5.645779525310923e-16
  outer loop
    vertex 25017.921875 11656.01171875 24949.97265625
    vertex 20017.02734375 11656.01171875 24549.97265625
    vertex 25017.921875 11656.01171875 24549.97265625
  endloop
endfacet
facet normal 0 -1 5.645779525310923e-16
  outer loop
    vertex 20017.02734375 11656.01171875 24549.97265625
    vertex 25017.921875 11656.01171875 24949.97265625
    vertex 20017.02734375 11656.01171875 24949.97265625
  endloop
endfacet
facet normal -1 -3.701499820273221e-31 -2.887129800166412e-16
  outer loop
    vertex 20017.02734375 14213.3603515625 24949.97265625
    vertex 20017.02734375 11656.01171875 24549.97265625
    vertex 20017.02734375 11656.01171875 24949.97265625
  endloop
endfacet
facet normal -1 -3.701499820273221e-31 -2.887129800166412e-16
  outer loop
    vertex 20017.02734375 11656.01171875 24549.97265625
    vertex 20017.02734375 14213.3603515625 24949.97265625
    vertex 20017.02734375 14213.3603515625 24549.97265625
  endloop
endfacet
facet normal 3.260019877132635e-31 1 -5.645779525310923e-16
  outer loop
    vertex 20017.02734375 14213.3603515625 24949.97265625
    vertex 25017.921875 14213.3603515625 24549.97265625
    vertex 20017.02734375 14213.3603515625 24549.97265625
  endloop
endfacet
facet normal 3.260019877132635e-31 1 -5.645779525310923e-16
  outer loop
    vertex 25017.921875 14213.3603515625 24549.97265625
    vertex 20017.02734375 14213.3603515625 24949.97265625
    vertex 25017.921875 14213.3603515625 24949.97265625
  endloop
endfacet
facet normal 1 0 2.887129800166412e-16
  outer loop
    vertex 25017.921875 14213.3603515625 24549.97265625
    vertex 25017.921875 11656.01171875 24949.97265625
    vertex 25017.921875 11656.01171875 24549.97265625
  endloop
endfacet
facet normal 1 0 2.887129800166412e-16
  outer loop
    vertex 25017.921875 11656.01171875 24949.97265625
    vertex 25017.921875 14213.3603515625 24549.97265625
    vertex 25017.921875 14213.3603515625 24949.97265625
  endloop
endfacet
endsolid com.sketchup.SketchUp.2019
