solid com.sketchup.SketchUp.2019
facet normal -1.786593020809582e-15 -8.33635765940758e-15 -1
  outer loop
    vertex 19667.921875 14514.1767578125 42049.97265625
    vertex 20018.044921875 14314.1767578125 42049.97265625
    vertex 19667.921875 14314.1767578125 42049.97265625
  endloop
endfacet
facet normal -1.786593020809582e-15 -8.33635765940758e-15 -1
  outer loop
    vertex 20018.044921875 14314.1767578125 42049.97265625
    vertex 19667.921875 14514.1767578125 42049.97265625
    vertex 24967.921875 14514.1767578125 42049.97265625
  endloop
endfacet
facet normal -1.786593020809582e-15 -8.33635765940758e-15 -1
  outer loop
    vertex 20018.044921875 14314.1767578125 42049.97265625
    vertex 24967.921875 14514.1767578125 42049.97265625
    vertex 20018.044921875 12214.1767578125 42049.97265625
  endloop
endfacet
facet normal -1.786593020809582e-15 -8.33635765940758e-15 -1
  outer loop
    vertex 20018.044921875 12214.1767578125 42049.97265625
    vertex 24967.921875 14514.1767578125 42049.97265625
    vertex 24967.921875 12214.1767578125 42049.97265625
  endloop
endfacet
facet normal 1.786593020809582e-15 8.33635765940758e-15 1
  outer loop
    vertex 20018.044921875 14314.1767578125 42449.97265625
    vertex 19667.921875 14514.1767578125 42449.97265625
    vertex 19667.921875 14314.1767578125 42449.97265625
  endloop
endfacet
facet normal 1.786593020809582e-15 8.33635765940758e-15 1
  outer loop
    vertex 19667.921875 14514.1767578125 42449.97265625
    vertex 20018.044921875 14314.1767578125 42449.97265625
    vertex 24967.921875 14514.1767578125 42449.97265625
  endloop
endfacet
facet normal 1.786593020809582e-15 8.33635765940758e-15 1
  outer loop
    vertex 24967.921875 14514.1767578125 42449.97265625
    vertex 20018.044921875 14314.1767578125 42449.97265625
    vertex 20018.044921875 12214.1767578125 42449.97265625
  endloop
endfacet
facet normal 1.786593020809582e-15 8.33635765940758e-15 1
  outer loop
    vertex 24967.921875 14514.1767578125 42449.97265625
    vertex 20018.044921875 12214.1767578125 42449.97265625
    vertex 24967.921875 12214.1767578125 42449.97265625
  endloop
endfacet
facet normal 0 1 -8.33635765940758e-15
  outer loop
    vertex 19667.921875 14514.1767578125 42049.97265625
    vertex 24967.921875 14514.1767578125 42449.97265625
    vertex 24967.921875 14514.1767578125 42049.97265625
  endloop
endfacet
facet normal 0 1 -8.33635765940758e-15
  outer loop
    vertex 24967.921875 14514.1767578125 42449.97265625
    vertex 19667.921875 14514.1767578125 42049.97265625
    vertex 19667.921875 14514.1767578125 42449.97265625
  endloop
endfacet
facet normal 2.978735636441319e-29 -1 8.33635765940758e-15
  outer loop
    vertex 24967.921875 12214.1767578125 42449.97265625
    vertex 20018.044921875 12214.1767578125 42049.97265625
    vertex 24967.921875 12214.1767578125 42049.97265625
  endloop
endfacet
facet normal 2.978735636441319e-29 -1 8.33635765940758e-15
  outer loop
    vertex 20018.044921875 12214.1767578125 42049.97265625
    vertex 24967.921875 12214.1767578125 42449.97265625
    vertex 20018.044921875 12214.1767578125 42449.97265625
  endloop
endfacet
facet normal 1 -7.370067461011545e-30 -1.786593020809582e-15
  outer loop
    vertex 24967.921875 14514.1767578125 42049.97265625
    vertex 24967.921875 12214.1767578125 42449.97265625
    vertex 24967.921875 12214.1767578125 42049.97265625
  endloop
endfacet
facet normal 1 -7.370067461011545e-30 -1.786593020809582e-15
  outer loop
    vertex 24967.921875 12214.1767578125 42449.97265625
    vertex 24967.921875 14514.1767578125 42049.97265625
    vertex 24967.921875 14514.1767578125 42449.97265625
  endloop
endfacet
facet normal -1 -1.485074948215023e-13 2.598881125494973e-13
  outer loop
    vertex 20018.044921875 12214.1767578125 42449.97265625
    vertex 20018.044921875 14314.1767578125 42049.97265625
    vertex 20018.044921875 12214.1767578125 42049.97265625
  endloop
endfacet
facet normal -1 -1.485074948215023e-13 2.598881125494973e-13
  outer loop
    vertex 20018.044921875 14314.1767578125 42049.97265625
    vertex 20018.044921875 12214.1767578125 42449.97265625
    vertex 20018.044921875 14314.1767578125 42449.97265625
  endloop
endfacet
facet normal -1 1.559328621086875e-12 2.598881125494973e-13
  outer loop
    vertex 19667.921875 14514.1767578125 42449.97265625
    vertex 19667.921875 14314.1767578125 42049.97265625
    vertex 19667.921875 14314.1767578125 42449.97265625
  endloop
endfacet
facet normal -1 1.559328621086875e-12 2.598881125494973e-13
  outer loop
    vertex 19667.921875 14314.1767578125 42049.97265625
    vertex 19667.921875 14514.1767578125 42449.97265625
    vertex 19667.921875 14514.1767578125 42049.97265625
  endloop
endfacet
facet normal -1.559328621086875e-12 -1 8.105019729529727e-25
  outer loop
    vertex 20018.044921875 14314.1767578125 42449.97265625
    vertex 19667.921875 14314.1767578125 42049.97265625
    vertex 20018.044921875 14314.1767578125 42049.97265625
  endloop
endfacet
facet normal -1.559328621086875e-12 -1 8.105019729529727e-25
  outer loop
    vertex 19667.921875 14314.1767578125 42049.97265625
    vertex 20018.044921875 14314.1767578125 42449.97265625
    vertex 19667.921875 14314.1767578125 42449.97265625
  endloop
endfacet
endsolid com.sketchup.SketchUp.2019
