solid com.sketchup.SketchUp.2019
facet normal 2.887129800166412e-16 -6.015928688096316e-16 -1
  outer loop
    vertex 24982.078125 14213.4541015625 17550
    vertex 19981.185546875 11813.4541015625 17550
    vertex 19981.185546875 14213.4541015625 17550
  endloop
endfacet
facet normal 2.887129800166412e-16 -6.015928688096316e-16 -1
  outer loop
    vertex 19981.185546875 11813.4541015625 17550
    vertex 24982.078125 14213.4541015625 17550
    vertex 24982.078125 11813.4541015625 17550
  endloop
endfacet
facet normal -2.887129800166412e-16 6.015928688096316e-16 1
  outer loop
    vertex 24982.078125 11813.4541015625 17950
    vertex 19981.185546875 14213.4541015625 17950
    vertex 19981.185546875 11813.4541015625 17950
  endloop
endfacet
facet normal -2.887129800166412e-16 6.015928688096316e-16 1
  outer loop
    vertex 19981.185546875 14213.4541015625 17950
    vertex 24982.078125 11813.4541015625 17950
    vertex 24982.078125 14213.4541015625 17950
  endloop
endfacet
facet normal 0 -1 6.015928688096316e-16
  outer loop
    vertex 24982.078125 11813.4541015625 17950
    vertex 19981.185546875 11813.4541015625 17550
    vertex 24982.078125 11813.4541015625 17550
  endloop
endfacet
facet normal 0 -1 6.015928688096316e-16
  outer loop
    vertex 19981.185546875 11813.4541015625 17550
    vertex 24982.078125 11813.4541015625 17950
    vertex 19981.185546875 11813.4541015625 17950
  endloop
endfacet
facet normal -1 -3.473753432174287e-31 -2.887129800166412e-16
  outer loop
    vertex 19981.185546875 14213.4541015625 17950
    vertex 19981.185546875 11813.4541015625 17550
    vertex 19981.185546875 11813.4541015625 17950
  endloop
endfacet
facet normal -1 -3.473753432174287e-31 -2.887129800166412e-16
  outer loop
    vertex 19981.185546875 11813.4541015625 17550
    vertex 19981.185546875 14213.4541015625 17950
    vertex 19981.185546875 14213.4541015625 17550
  endloop
endfacet
facet normal 3.473753432174287e-31 1 -6.015928688096316e-16
  outer loop
    vertex 19981.185546875 14213.4541015625 17950
    vertex 24982.078125 14213.4541015625 17550
    vertex 19981.185546875 14213.4541015625 17550
  endloop
endfacet
facet normal 3.473753432174287e-31 1 -6.015928688096316e-16
  outer loop
    vertex 24982.078125 14213.4541015625 17550
    vertex 19981.185546875 14213.4541015625 17950
    vertex 24982.078125 14213.4541015625 17950
  endloop
endfacet
facet normal 1 0 2.887129800166412e-16
  outer loop
    vertex 24982.078125 14213.4541015625 17550
    vertex 24982.078125 11813.4541015625 17950
    vertex 24982.078125 11813.4541015625 17550
  endloop
endfacet
facet normal 1 0 2.887129800166412e-16
  outer loop
    vertex 24982.078125 11813.4541015625 17950
    vertex 24982.078125 14213.4541015625 17550
    vertex 24982.078125 14213.4541015625 17950
  endloop
endfacet
endsolid com.sketchup.SketchUp.2019
