solid com.sketchup.SketchUp.2019
facet normal 8.533936564684118e-15 -2.149753865318595e-14 -1
  outer loop
    vertex 20018.044921875 14213.3603515625 38549.97265625
    vertex 25017.921875 11656.01171875 38549.97265625
    vertex 20018.044921875 11656.01171875 38549.97265625
  endloop
endfacet
facet normal 8.533936564684118e-15 -2.149753865318595e-14 -1
  outer loop
    vertex 25017.921875 11656.01171875 38549.97265625
    vertex 20018.044921875 14213.3603515625 38549.97265625
    vertex 25017.921875 14213.3603515625 38549.97265625
  endloop
endfacet
facet normal 5.843484426738365e-16 1.056506566802541e-14 1
  outer loop
    vertex 25017.921875 11656.01171875 38949.97265625
    vertex 20018.044921875 14213.3603515625 38949.97265625
    vertex 20018.044921875 11656.01171875 38949.97265625
  endloop
endfacet
facet normal 5.843484426738365e-16 1.056506566802541e-14 1
  outer loop
    vertex 20018.044921875 14213.3603515625 38949.97265625
    vertex 25017.921875 11656.01171875 38949.97265625
    vertex 25017.921875 14213.3603515625 38949.97265625
  endloop
endfacet
facet normal 0 1 -8.33635765940758e-15
  outer loop
    vertex 20018.044921875 14213.3603515625 38949.97265625
    vertex 25017.921875 14213.3603515625 38549.97265625
    vertex 20018.044921875 14213.3603515625 38549.97265625
  endloop
endfacet
facet normal 0 1 -8.33635765940758e-15
  outer loop
    vertex 25017.921875 14213.3603515625 38549.97265625
    vertex 20018.044921875 14213.3603515625 38949.97265625
    vertex 25017.921875 14213.3603515625 38949.97265625
  endloop
endfacet
facet normal 2.978735636441319e-29 -1 8.33635765940758e-15
  outer loop
    vertex 25017.921875 11656.01171875 38949.97265625
    vertex 20018.044921875 11656.01171875 38549.97265625
    vertex 25017.921875 11656.01171875 38549.97265625
  endloop
endfacet
facet normal 2.978735636441319e-29 -1 8.33635765940758e-15
  outer loop
    vertex 20018.044921875 11656.01171875 38549.97265625
    vertex 25017.921875 11656.01171875 38949.97265625
    vertex 20018.044921875 11656.01171875 38949.97265625
  endloop
endfacet
facet normal 1 -7.370067461011545e-30 -1.786593020809582e-15
  outer loop
    vertex 25017.921875 14213.3603515625 38549.97265625
    vertex 25017.921875 11656.01171875 38949.97265625
    vertex 25017.921875 11656.01171875 38549.97265625
  endloop
endfacet
facet normal 1 -7.370067461011545e-30 -1.786593020809582e-15
  outer loop
    vertex 25017.921875 11656.01171875 38949.97265625
    vertex 25017.921875 14213.3603515625 38549.97265625
    vertex 25017.921875 14213.3603515625 38949.97265625
  endloop
endfacet
facet normal -1 2.817381473518149e-13 1.732587462171739e-13
  outer loop
    vertex 20018.044921875 11656.01171875 38949.97265625
    vertex 20018.044921875 14213.3603515625 38549.97265625
    vertex 20018.044921875 11656.01171875 38549.97265625
  endloop
endfacet
facet normal -1 2.817381473518149e-13 1.732587462171739e-13
  outer loop
    vertex 20018.044921875 14213.3603515625 38549.97265625
    vertex 20018.044921875 11656.01171875 38949.97265625
    vertex 20018.044921875 14213.3603515625 38949.97265625
  endloop
endfacet
endsolid com.sketchup.SketchUp.2019
