solid com.sketchup.SketchUp.2019
facet normal 7.256950540436482e-15 -2.468687350354846e-14 -1
  outer loop
    vertex 25017.921875 14213.3603515625 28049.97265625
    vertex 20018.044921875 11656.01171875 28049.97265625
    vertex 20018.044921875 14213.3603515625 28049.97265625
  endloop
endfacet
facet normal 7.256950540436482e-15 -2.468687350354846e-14 -1
  outer loop
    vertex 20018.044921875 11656.01171875 28049.97265625
    vertex 25017.921875 14213.3603515625 28049.97265625
    vertex 25017.921875 11656.01171875 28049.97265625
  endloop
endfacet
facet normal 1.398194109659121e-15 7.64766227504942e-15 1
  outer loop
    vertex 20018.044921875 11656.01171875 28449.97265625
    vertex 25017.921875 14213.3603515625 28449.97265625
    vertex 20018.044921875 14213.3603515625 28449.97265625
  endloop
endfacet
facet normal 1.398194109659121e-15 7.64766227504942e-15 1
  outer loop
    vertex 25017.921875 14213.3603515625 28449.97265625
    vertex 20018.044921875 11656.01171875 28449.97265625
    vertex 25017.921875 11656.01171875 28449.97265625
  endloop
endfacet
facet normal 0 1 -7.497461310644604e-15
  outer loop
    vertex 20018.044921875 14213.3603515625 28049.97265625
    vertex 25017.921875 14213.3603515625 28449.97265625
    vertex 25017.921875 14213.3603515625 28049.97265625
  endloop
endfacet
facet normal 0 1 -7.497461310644604e-15
  outer loop
    vertex 25017.921875 14213.3603515625 28449.97265625
    vertex 20018.044921875 14213.3603515625 28049.97265625
    vertex 20018.044921875 14213.3603515625 28449.97265625
  endloop
endfacet
facet normal 2.678982094337567e-29 -1 7.497461310644604e-15
  outer loop
    vertex 25017.921875 11656.01171875 28449.97265625
    vertex 20018.044921875 11656.01171875 28049.97265625
    vertex 25017.921875 11656.01171875 28049.97265625
  endloop
endfacet
facet normal 2.678982094337567e-29 -1 7.497461310644604e-15
  outer loop
    vertex 20018.044921875 11656.01171875 28049.97265625
    vertex 25017.921875 11656.01171875 28449.97265625
    vertex 20018.044921875 11656.01171875 28449.97265625
  endloop
endfacet
facet normal 1 -8.19471079042978e-30 -1.786593020809582e-15
  outer loop
    vertex 25017.921875 14213.3603515625 28049.97265625
    vertex 25017.921875 11656.01171875 28449.97265625
    vertex 25017.921875 11656.01171875 28049.97265625
  endloop
endfacet
facet normal 1 -8.19471079042978e-30 -1.786593020809582e-15
  outer loop
    vertex 25017.921875 11656.01171875 28449.97265625
    vertex 25017.921875 14213.3603515625 28049.97265625
    vertex 25017.921875 14213.3603515625 28449.97265625
  endloop
endfacet
facet normal -1 -8.165317651621234e-14 1.732587462171739e-13
  outer loop
    vertex 20018.044921875 11656.01171875 28449.97265625
    vertex 20018.044921875 14213.3603515625 28049.97265625
    vertex 20018.044921875 11656.01171875 28049.97265625
  endloop
endfacet
facet normal -1 -8.165317651621234e-14 1.732587462171739e-13
  outer loop
    vertex 20018.044921875 14213.3603515625 28049.97265625
    vertex 20018.044921875 11656.01171875 28449.97265625
    vertex 20018.044921875 14213.3603515625 28449.97265625
  endloop
endfacet
endsolid com.sketchup.SketchUp.2019
