solid com.sketchup.SketchUp.2019
facet normal 2.887129800166412e-16 -6.015928688096316e-16 -1
  outer loop
    vertex 25000 14213.4072265625 21049.986328125
    vertex 19999.107421875 11813.4072265625 21049.986328125
    vertex 19999.107421875 14213.4072265625 21049.986328125
  endloop
endfacet
facet normal 2.887129800166412e-16 -6.015928688096316e-16 -1
  outer loop
    vertex 19999.107421875 11813.4072265625 21049.986328125
    vertex 25000 14213.4072265625 21049.986328125
    vertex 25000 11813.4072265625 21049.986328125
  endloop
endfacet
facet normal -2.887129800166412e-16 6.015928688096316e-16 1
  outer loop
    vertex 25000 11813.4072265625 21449.986328125
    vertex 19999.107421875 14213.4072265625 21449.986328125
    vertex 19999.107421875 11813.4072265625 21449.986328125
  endloop
endfacet
facet normal -2.887129800166412e-16 6.015928688096316e-16 1
  outer loop
    vertex 19999.107421875 14213.4072265625 21449.986328125
    vertex 25000 11813.4072265625 21449.986328125
    vertex 25000 14213.4072265625 21449.986328125
  endloop
endfacet
facet normal 0 -1 6.015928688096316e-16
  outer loop
    vertex 25000 11813.4072265625 21449.986328125
    vertex 19999.107421875 11813.4072265625 21049.986328125
    vertex 25000 11813.4072265625 21049.986328125
  endloop
endfacet
facet normal 0 -1 6.015928688096316e-16
  outer loop
    vertex 19999.107421875 11813.4072265625 21049.986328125
    vertex 25000 11813.4072265625 21449.986328125
    vertex 19999.107421875 11813.4072265625 21449.986328125
  endloop
endfacet
facet normal -1 -3.473753432174287e-31 -2.887129800166412e-16
  outer loop
    vertex 19999.107421875 14213.4072265625 21449.986328125
    vertex 19999.107421875 11813.4072265625 21049.986328125
    vertex 19999.107421875 11813.4072265625 21449.986328125
  endloop
endfacet
facet normal -1 -3.473753432174287e-31 -2.887129800166412e-16
  outer loop
    vertex 19999.107421875 11813.4072265625 21049.986328125
    vertex 19999.107421875 14213.4072265625 21449.986328125
    vertex 19999.107421875 14213.4072265625 21049.986328125
  endloop
endfacet
facet normal 3.473753432174287e-31 1 -6.015928688096316e-16
  outer loop
    vertex 19999.107421875 14213.4072265625 21449.986328125
    vertex 25000 14213.4072265625 21049.986328125
    vertex 19999.107421875 14213.4072265625 21049.986328125
  endloop
endfacet
facet normal 3.473753432174287e-31 1 -6.015928688096316e-16
  outer loop
    vertex 25000 14213.4072265625 21049.986328125
    vertex 19999.107421875 14213.4072265625 21449.986328125
    vertex 25000 14213.4072265625 21449.986328125
  endloop
endfacet
facet normal 1 0 2.887129800166412e-16
  outer loop
    vertex 25000 14213.4072265625 21049.986328125
    vertex 25000 11813.4072265625 21449.986328125
    vertex 25000 11813.4072265625 21049.986328125
  endloop
endfacet
facet normal 1 0 2.887129800166412e-16
  outer loop
    vertex 25000 11813.4072265625 21449.986328125
    vertex 25000 14213.4072265625 21049.986328125
    vertex 25000 14213.4072265625 21449.986328125
  endloop
endfacet
endsolid com.sketchup.SketchUp.2019
