solid com.sketchup.SketchUp.2019
facet normal -1.743696307745309e-15 -1 9.384848584023664e-14
  outer loop
    vertex 37518.671875 903.5424194335938 31949.97265625
    vertex 12667.9208984375 903.5424194335938 32499.97265625
    vertex 12667.9208984375 903.5424194335938 31949.97265625
  endloop
endfacet
facet normal -1.743696307745309e-15 -1 9.384848584023664e-14
  outer loop
    vertex 12667.9208984375 903.5424194335938 32499.97265625
    vertex 37518.671875 903.5424194335938 31949.97265625
    vertex 37518.671875 903.5424194335938 32499.97265625
  endloop
endfacet
facet normal -1.292975736243498e-13 -1 -2.887645770286232e-14
  outer loop
    vertex 8628.9208984375 11894.5908203125 31949.97265625
    vertex 6417.92138671875 11894.5908203125 32499.97265625
    vertex 6417.92138671875 11894.5908203125 31949.97265625
  endloop
endfacet
facet normal -1.292975736243498e-13 -1 -2.887645770286232e-14
  outer loop
    vertex 6417.92138671875 11894.5908203125 32499.97265625
    vertex 8628.9208984375 11894.5908203125 31949.97265625
    vertex 8628.9208984375 11894.5908203125 32499.97265625
  endloop
endfacet
facet normal -1 -4.389221394652219e-14 -4.908997470673415e-13
  outer loop
    vertex 6417.92138671875 11894.5908203125 32499.97265625
    vertex 6417.92138671875 16894.591796875 31949.97265625
    vertex 6417.92138671875 11894.5908203125 31949.97265625
  endloop
endfacet
facet normal -1 -4.389221394652219e-14 -4.908997470673415e-13
  outer loop
    vertex 6417.92138671875 16894.591796875 31949.97265625
    vertex 6417.92138671875 11894.5908203125 32499.97265625
    vertex 6417.92138671875 16894.591796875 32499.97265625
  endloop
endfacet
facet normal -1 2.857475141393725e-26 -1.155058308114493e-13
  outer loop
    vertex 12667.9208984375 903.5424194335938 32499.97265625
    vertex 12667.9208984375 4346.98486328125 31949.97265625
    vertex 12667.9208984375 903.5424194335938 31949.97265625
  endloop
endfacet
facet normal -1 2.857475141393725e-26 -1.155058308114493e-13
  outer loop
    vertex 12667.9208984375 4346.98486328125 31949.97265625
    vertex 12667.9208984375 903.5424194335938 32499.97265625
    vertex 12667.9208984375 4346.98486328125 32499.97265625
  endloop
endfacet
facet normal -2.691199348060173e-14 -1.737106118671061e-11 1
  outer loop
    vertex 25017.919921875 17549.466796875 32349.97265625
    vertex 20518.044921875 17593.841796875 32349.97265625
    vertex 20518.044921875 17549.466796875 32349.97265625
  endloop
endfacet
facet normal -2.691199348060173e-14 -1.737106118671061e-11 1
  outer loop
    vertex 20518.044921875 17593.841796875 32349.97265625
    vertex 25017.919921875 17549.466796875 32349.97265625
    vertex 25017.919921875 17593.841796875 32349.97265625
  endloop
endfacet
facet normal -1 1.545667212927634e-13 -6.064056049838451e-13
  outer loop
    vertex 8628.9208984375 4346.98486328125 32499.97265625
    vertex 8628.9208984375 11894.5908203125 31949.97265625
    vertex 8628.9208984375 4346.98486328125 31949.97265625
  endloop
endfacet
facet normal -1 1.545667212927634e-13 -6.064056049838451e-13
  outer loop
    vertex 8628.9208984375 11894.5908203125 31949.97265625
    vertex 8628.9208984375 4346.98486328125 32499.97265625
    vertex 8628.9208984375 11894.5908203125 32499.97265625
  endloop
endfacet
facet normal 8.722277051011543e-14 -1 5.775291540572464e-14
  outer loop
    vertex 12667.9208984375 4346.98486328125 32499.97265625
    vertex 8628.9208984375 4346.98486328125 31949.97265625
    vertex 12667.9208984375 4346.98486328125 31949.97265625
  endloop
endfacet
facet normal 8.722277051011543e-14 -1 5.775291540572464e-14
  outer loop
    vertex 8628.9208984375 4346.98486328125 31949.97265625
    vertex 12667.9208984375 4346.98486328125 32499.97265625
    vertex 8628.9208984375 4346.98486328125 32499.97265625
  endloop
endfacet
facet normal 1 -2.179365163066716e-15 2.887645770286232e-14
  outer loop
    vertex 36508.6484375 17593.841796875 31949.97265625
    vertex 36508.6484375 12293.865234375 32499.97265625
    vertex 36508.6484375 12293.865234375 31949.97265625
  endloop
endfacet
facet normal 1 -2.179365163066716e-15 2.887645770286232e-14
  outer loop
    vertex 36508.6484375 12293.865234375 32499.97265625
    vertex 36508.6484375 17593.841796875 31949.97265625
    vertex 36508.6484375 17593.841796875 32499.97265625
  endloop
endfacet
facet normal 5.775291286462579e-15 1 -5.680601370828942e-31
  outer loop
    vertex 36508.6484375 12293.865234375 32499.97265625
    vertex 37518.671875 12293.865234375 31949.97265625
    vertex 36508.6484375 12293.865234375 31949.97265625
  endloop
endfacet
facet normal 5.775291286462579e-15 1 -5.680601370828942e-31
  outer loop
    vertex 37518.671875 12293.865234375 31949.97265625
    vertex 36508.6484375 12293.865234375 32499.97265625
    vertex 37518.671875 12293.865234375 32499.97265625
  endloop
endfacet
facet normal 1 9.12575430270552e-17 1.796339655478009e-28
  outer loop
    vertex 20518.044921875 14294.5908203125 31949.97265625
    vertex 20518.044921875 17549.466796875 32499.97265625
    vertex 20518.044921875 14294.5908203125 32499.97265625
  endloop
endfacet
facet normal 1 9.12575430270552e-17 1.796339655478009e-28
  outer loop
    vertex 20518.044921875 17549.466796875 32499.97265625
    vertex 20518.044921875 14294.5908203125 31949.97265625
    vertex 20518.044921875 17494.591796875 31949.97265625
  endloop
endfacet
facet normal 1 9.12575430270552e-17 1.796339655478009e-28
  outer loop
    vertex 20518.044921875 17549.466796875 32499.97265625
    vertex 20518.044921875 17494.591796875 31949.97265625
    vertex 20518.044921875 17549.466796875 32349.97265625
  endloop
endfacet
facet normal 1 9.12575430270552e-17 1.796339655478009e-28
  outer loop
    vertex 20518.044921875 17549.466796875 32349.97265625
    vertex 20518.044921875 17494.591796875 31949.97265625
    vertex 20518.044921875 17549.466796875 31949.97265625
  endloop
endfacet
facet normal 7.70060014018692e-15 1 -1.299440562747486e-13
  outer loop
    vertex 20518.044921875 17593.841796875 32349.97265625
    vertex 25017.919921875 17593.841796875 31949.97265625
    vertex 20518.044921875 17593.841796875 31949.97265625
  endloop
endfacet
facet normal 7.70060014018692e-15 1 -1.299440562747486e-13
  outer loop
    vertex 25017.919921875 17593.841796875 31949.97265625
    vertex 20518.044921875 17593.841796875 32349.97265625
    vertex 25017.919921875 17593.841796875 32349.97265625
  endloop
endfacet
facet normal 1 0 0
  outer loop
    vertex 37518.671875 12293.865234375 31949.97265625
    vertex 37518.671875 903.5424194335938 32499.97265625
    vertex 37518.671875 903.5424194335938 31949.97265625
  endloop
endfacet
facet normal 1 0 0
  outer loop
    vertex 37518.671875 903.5424194335938 32499.97265625
    vertex 37518.671875 12293.865234375 31949.97265625
    vertex 37518.671875 12293.865234375 32499.97265625
  endloop
endfacet
facet normal -1.95857272360765e-27 -1.052422919319874e-13 -1
  outer loop
    vertex 25017.919921875 17549.466796875 31949.97265625
    vertex 20518.044921875 17494.591796875 31949.97265625
    vertex 20518.044921875 17549.466796875 31949.97265625
  endloop
endfacet
facet normal -1.95857272360765e-27 -1.052422919319874e-13 -1
  outer loop
    vertex 20518.044921875 17494.591796875 31949.97265625
    vertex 25017.919921875 17549.466796875 31949.97265625
    vertex 25017.919921875 17494.591796875 31949.97265625
  endloop
endfacet
facet normal 3.208583303511951e-16 1 2.057447501214657e-13
  outer loop
    vertex 20518.044921875 14294.5908203125 32499.97265625
    vertex 25017.919921875 14294.5908203125 31949.97265625
    vertex 20518.044921875 14294.5908203125 31949.97265625
  endloop
endfacet
facet normal 3.208583303511951e-16 1 2.057447501214657e-13
  outer loop
    vertex 25017.919921875 14294.5908203125 31949.97265625
    vertex 20518.044921875 14294.5908203125 32499.97265625
    vertex 25017.919921875 14294.5908203125 32499.97265625
  endloop
endfacet
facet normal -1 1.916355021890599e-25 1.501575773443786e-12
  outer loop
    vertex 25017.919921875 17549.466796875 32499.97265625
    vertex 25017.919921875 14294.5908203125 31949.97265625
    vertex 25017.919921875 14294.5908203125 32499.97265625
  endloop
endfacet
facet normal -1 1.916355021890599e-25 1.501575773443786e-12
  outer loop
    vertex 25017.919921875 14294.5908203125 31949.97265625
    vertex 25017.919921875 17549.466796875 32499.97265625
    vertex 25017.919921875 17494.591796875 31949.97265625
  endloop
endfacet
facet normal -1 1.916355021890599e-25 1.501575773443786e-12
  outer loop
    vertex 25017.919921875 17494.591796875 31949.97265625
    vertex 25017.919921875 17549.466796875 32499.97265625
    vertex 25017.919921875 17549.466796875 31949.97265625
  endloop
endfacet
facet normal -1 1.916355021890599e-25 1.501575773443786e-12
  outer loop
    vertex 25017.919921875 17549.466796875 31949.97265625
    vertex 25017.919921875 17549.466796875 32499.97265625
    vertex 25017.919921875 17549.466796875 32349.97265625
  endloop
endfacet
facet normal -8.984033779229055e-15 -1 1.8047785217256e-13
  outer loop
    vertex 25017.919921875 17549.466796875 32349.97265625
    vertex 20518.044921875 17549.466796875 31949.97265625
    vertex 25017.919921875 17549.466796875 31949.97265625
  endloop
endfacet
facet normal -8.984033779229055e-15 -1 1.8047785217256e-13
  outer loop
    vertex 20518.044921875 17549.466796875 31949.97265625
    vertex 25017.919921875 17549.466796875 32349.97265625
    vertex 20518.044921875 17549.466796875 32349.97265625
  endloop
endfacet
facet normal 1.254724389031193e-14 -1.71439170368673e-13 -1
  outer loop
    vertex 25017.919921875 17593.841796875 31949.97265625
    vertex 25017.919921875 17494.591796875 31949.97265625
    vertex 25017.919921875 17549.466796875 31949.97265625
  endloop
endfacet
facet normal 1.254724389031193e-14 -1.71439170368673e-13 -1
  outer loop
    vertex 25017.919921875 17494.591796875 31949.97265625
    vertex 25017.919921875 17593.841796875 31949.97265625
    vertex 25017.919921875 14294.5908203125 31949.97265625
  endloop
endfacet
facet normal 1.254724389031193e-14 -1.71439170368673e-13 -1
  outer loop
    vertex 36508.6484375 17593.841796875 31949.97265625
    vertex 36508.6484375 12293.865234375 31949.97265625
    vertex 25017.919921875 17593.841796875 31949.97265625
  endloop
endfacet
facet normal 1.254724389031193e-14 -1.71439170368673e-13 -1
  outer loop
    vertex 6417.92138671875 17494.591796875 31949.97265625
    vertex 6417.92138671875 11894.5908203125 31949.97265625
    vertex 6417.92138671875 16894.591796875 31949.97265625
  endloop
endfacet
facet normal 1.254724389031193e-14 -1.71439170368673e-13 -1
  outer loop
    vertex 6417.92138671875 11894.5908203125 31949.97265625
    vertex 6417.92138671875 17494.591796875 31949.97265625
    vertex 20518.044921875 17494.591796875 31949.97265625
  endloop
endfacet
facet normal 1.254724389031193e-14 -1.71439170368673e-13 -1
  outer loop
    vertex 6417.92138671875 11894.5908203125 31949.97265625
    vertex 20518.044921875 17494.591796875 31949.97265625
    vertex 8628.9208984375 11894.5908203125 31949.97265625
  endloop
endfacet
facet normal 1.254724389031193e-14 -1.71439170368673e-13 -1
  outer loop
    vertex 8628.9208984375 11894.5908203125 31949.97265625
    vertex 20518.044921875 17494.591796875 31949.97265625
    vertex 12667.9208984375 4346.98486328125 31949.97265625
  endloop
endfacet
facet normal 1.254724389031193e-14 -1.71439170368673e-13 -1
  outer loop
    vertex 12667.9208984375 4346.98486328125 31949.97265625
    vertex 20518.044921875 17494.591796875 31949.97265625
    vertex 12667.9208984375 903.5424194335938 31949.97265625
  endloop
endfacet
facet normal 1.254724389031193e-14 -1.71439170368673e-13 -1
  outer loop
    vertex 12667.9208984375 903.5424194335938 31949.97265625
    vertex 20518.044921875 17494.591796875 31949.97265625
    vertex 20518.044921875 14294.5908203125 31949.97265625
  endloop
endfacet
facet normal 1.254724389031193e-14 -1.71439170368673e-13 -1
  outer loop
    vertex 12667.9208984375 903.5424194335938 31949.97265625
    vertex 20518.044921875 14294.5908203125 31949.97265625
    vertex 37518.671875 903.5424194335938 31949.97265625
  endloop
endfacet
facet normal 1.254724389031193e-14 -1.71439170368673e-13 -1
  outer loop
    vertex 37518.671875 903.5424194335938 31949.97265625
    vertex 20518.044921875 14294.5908203125 31949.97265625
    vertex 25017.919921875 14294.5908203125 31949.97265625
  endloop
endfacet
facet normal 1.254724389031193e-14 -1.71439170368673e-13 -1
  outer loop
    vertex 37518.671875 903.5424194335938 31949.97265625
    vertex 25017.919921875 14294.5908203125 31949.97265625
    vertex 25017.919921875 17593.841796875 31949.97265625
  endloop
endfacet
facet normal 1.254724389031193e-14 -1.71439170368673e-13 -1
  outer loop
    vertex 37518.671875 903.5424194335938 31949.97265625
    vertex 25017.919921875 17593.841796875 31949.97265625
    vertex 36508.6484375 12293.865234375 31949.97265625
  endloop
endfacet
facet normal 1.254724389031193e-14 -1.71439170368673e-13 -1
  outer loop
    vertex 37518.671875 903.5424194335938 31949.97265625
    vertex 36508.6484375 12293.865234375 31949.97265625
    vertex 37518.671875 12293.865234375 31949.97265625
  endloop
endfacet
facet normal 1.254724389031193e-14 -1.71439170368673e-13 -1
  outer loop
    vertex 12667.9208984375 4346.98486328125 31949.97265625
    vertex 8628.9208984375 4346.98486328125 31949.97265625
    vertex 8628.9208984375 11894.5908203125 31949.97265625
  endloop
endfacet
facet normal -1 -6.507538865413443e-12 7.219114086902401e-13
  outer loop
    vertex 25017.919921875 17549.466796875 32349.97265625
    vertex 25017.919921875 17593.841796875 31949.97265625
    vertex 25017.919921875 17549.466796875 31949.97265625
  endloop
endfacet
facet normal -1 -6.507538865413443e-12 7.219114086902401e-13
  outer loop
    vertex 25017.919921875 17593.841796875 31949.97265625
    vertex 25017.919921875 17549.466796875 32349.97265625
    vertex 25017.919921875 17593.841796875 32349.97265625
  endloop
endfacet
facet normal 1.28343332140478e-15 1.659631919125604e-26 -1
  outer loop
    vertex 25017.919921875 17593.841796875 31949.97265625
    vertex 20518.044921875 17549.466796875 31949.97265625
    vertex 20518.044921875 17593.841796875 31949.97265625
  endloop
endfacet
facet normal 1.28343332140478e-15 1.659631919125604e-26 -1
  outer loop
    vertex 20518.044921875 17549.466796875 31949.97265625
    vertex 25017.919921875 17593.841796875 31949.97265625
    vertex 25017.919921875 17549.466796875 31949.97265625
  endloop
endfacet
facet normal 1 7.52498577499003e-27 5.775291540572464e-14
  outer loop
    vertex 20518.044921875 17593.841796875 31949.97265625
    vertex 20518.044921875 17549.466796875 32349.97265625
    vertex 20518.044921875 17549.466796875 31949.97265625
  endloop
endfacet
facet normal 1 7.52498577499003e-27 5.775291540572464e-14
  outer loop
    vertex 20518.044921875 17549.466796875 32349.97265625
    vertex 20518.044921875 17593.841796875 31949.97265625
    vertex 20518.044921875 17593.841796875 32349.97265625
  endloop
endfacet
facet normal -8.978014551347629e-17 -1.016416497408995e-13 -1
  outer loop
    vertex 6417.92138671875 17593.841796875 31949.97265625
    vertex 20518.044921875 17494.591796875 31949.97265625
    vertex 6417.92138671875 17494.591796875 31949.97265625
  endloop
endfacet
facet normal -8.978014551347629e-17 -1.016416497408995e-13 -1
  outer loop
    vertex 20518.044921875 17494.591796875 31949.97265625
    vertex 6417.92138671875 17593.841796875 31949.97265625
    vertex 20518.044921875 17593.841796875 31949.97265625
  endloop
endfacet
facet normal -8.978014551347629e-17 -1.016416497408995e-13 -1
  outer loop
    vertex 20518.044921875 17494.591796875 31949.97265625
    vertex 20518.044921875 17593.841796875 31949.97265625
    vertex 20518.044921875 17549.466796875 31949.97265625
  endloop
endfacet
facet normal 3.262683011306174e-28 1 -2.16573422607072e-13
  outer loop
    vertex 25017.919921875 17593.841796875 32349.97265625
    vertex 36508.6484375 17593.841796875 31949.97265625
    vertex 25017.919921875 17593.841796875 31949.97265625
  endloop
endfacet
facet normal 3.262683011306174e-28 1 -2.16573422607072e-13
  outer loop
    vertex 36508.6484375 17593.841796875 31949.97265625
    vertex 25017.919921875 17593.841796875 32349.97265625
    vertex 36508.6484375 17593.841796875 32499.97265625
  endloop
endfacet
facet normal 3.262683011306174e-28 1 -2.16573422607072e-13
  outer loop
    vertex 36508.6484375 17593.841796875 32499.97265625
    vertex 25017.919921875 17593.841796875 32349.97265625
    vertex 25017.919921875 17593.841796875 32499.97265625
  endloop
endfacet
facet normal -1 -1.353568038903186e-11 -1.052488094270001e-15
  outer loop
    vertex 25017.919921875 17549.466796875 32499.97265625
    vertex 25017.919921875 17593.841796875 32349.97265625
    vertex 25017.919921875 17549.466796875 32349.97265625
  endloop
endfacet
facet normal -1 -1.353568038903186e-11 -1.052488094270001e-15
  outer loop
    vertex 25017.919921875 17593.841796875 32349.97265625
    vertex 25017.919921875 17549.466796875 32499.97265625
    vertex 25017.919921875 17593.841796875 32499.97265625
  endloop
endfacet
facet normal 1 1.369821404434689e-28 1.052488094270001e-15
  outer loop
    vertex 20518.044921875 17593.841796875 32349.97265625
    vertex 20518.044921875 17549.466796875 32499.97265625
    vertex 20518.044921875 17549.466796875 32349.97265625
  endloop
endfacet
facet normal 1 1.369821404434689e-28 1.052488094270001e-15
  outer loop
    vertex 20518.044921875 17549.466796875 32499.97265625
    vertex 20518.044921875 17593.841796875 32349.97265625
    vertex 20518.044921875 17593.841796875 32499.97265625
  endloop
endfacet
facet normal -1.052488094270001e-15 2.142049965138046e-13 1
  outer loop
    vertex 12667.9208984375 4346.98486328125 32499.97265625
    vertex 8628.9208984375 11894.5908203125 32499.97265625
    vertex 8628.9208984375 4346.98486328125 32499.97265625
  endloop
endfacet
facet normal -1.052488094270001e-15 2.142049965138046e-13 1
  outer loop
    vertex 37518.671875 903.5424194335938 32499.97265625
    vertex 12667.9208984375 4346.98486328125 32499.97265625
    vertex 12667.9208984375 903.5424194335938 32499.97265625
  endloop
endfacet
facet normal -1.052488094270001e-15 2.142049965138046e-13 1
  outer loop
    vertex 12667.9208984375 4346.98486328125 32499.97265625
    vertex 37518.671875 903.5424194335938 32499.97265625
    vertex 20518.044921875 14294.5908203125 32499.97265625
  endloop
endfacet
facet normal -1.052488094270001e-15 2.142049965138046e-13 1
  outer loop
    vertex 12667.9208984375 4346.98486328125 32499.97265625
    vertex 20518.044921875 14294.5908203125 32499.97265625
    vertex 20518.044921875 17549.466796875 32499.97265625
  endloop
endfacet
facet normal -1.052488094270001e-15 2.142049965138046e-13 1
  outer loop
    vertex 20518.044921875 14294.5908203125 32499.97265625
    vertex 37518.671875 903.5424194335938 32499.97265625
    vertex 25017.919921875 14294.5908203125 32499.97265625
  endloop
endfacet
facet normal -1.052488094270001e-15 2.142049965138046e-13 1
  outer loop
    vertex 25017.919921875 14294.5908203125 32499.97265625
    vertex 37518.671875 903.5424194335938 32499.97265625
    vertex 25017.919921875 17549.466796875 32499.97265625
  endloop
endfacet
facet normal -1.052488094270001e-15 2.142049965138046e-13 1
  outer loop
    vertex 25017.919921875 17549.466796875 32499.97265625
    vertex 37518.671875 903.5424194335938 32499.97265625
    vertex 36508.6484375 12293.865234375 32499.97265625
  endloop
endfacet
facet normal -1.052488094270001e-15 2.142049965138046e-13 1
  outer loop
    vertex 36508.6484375 12293.865234375 32499.97265625
    vertex 37518.671875 903.5424194335938 32499.97265625
    vertex 37518.671875 12293.865234375 32499.97265625
  endloop
endfacet
facet normal -1.052488094270001e-15 2.142049965138046e-13 1
  outer loop
    vertex 25017.919921875 17549.466796875 32499.97265625
    vertex 36508.6484375 17593.841796875 32499.97265625
    vertex 25017.919921875 17593.841796875 32499.97265625
  endloop
endfacet
facet normal -1.052488094270001e-15 2.142049965138046e-13 1
  outer loop
    vertex 36508.6484375 17593.841796875 32499.97265625
    vertex 25017.919921875 17549.466796875 32499.97265625
    vertex 36508.6484375 12293.865234375 32499.97265625
  endloop
endfacet
facet normal -1.052488094270001e-15 2.142049965138046e-13 1
  outer loop
    vertex 6417.92138671875 11894.5908203125 32499.97265625
    vertex 6417.92138671875 17593.841796875 32499.97265625
    vertex 6417.92138671875 16894.591796875 32499.97265625
  endloop
endfacet
facet normal -1.052488094270001e-15 2.142049965138046e-13 1
  outer loop
    vertex 6417.92138671875 17593.841796875 32499.97265625
    vertex 6417.92138671875 11894.5908203125 32499.97265625
    vertex 8628.9208984375 11894.5908203125 32499.97265625
  endloop
endfacet
facet normal -1.052488094270001e-15 2.142049965138046e-13 1
  outer loop
    vertex 6417.92138671875 17593.841796875 32499.97265625
    vertex 8628.9208984375 11894.5908203125 32499.97265625
    vertex 20518.044921875 17593.841796875 32499.97265625
  endloop
endfacet
facet normal -1.052488094270001e-15 2.142049965138046e-13 1
  outer loop
    vertex 20518.044921875 17593.841796875 32499.97265625
    vertex 8628.9208984375 11894.5908203125 32499.97265625
    vertex 12667.9208984375 4346.98486328125 32499.97265625
  endloop
endfacet
facet normal -1.052488094270001e-15 2.142049965138046e-13 1
  outer loop
    vertex 20518.044921875 17593.841796875 32499.97265625
    vertex 12667.9208984375 4346.98486328125 32499.97265625
    vertex 20518.044921875 17549.466796875 32499.97265625
  endloop
endfacet
facet normal -3.234851012816169e-15 1 -1.085726357452112e-13
  outer loop
    vertex 6417.92138671875 17593.841796875 31949.97265625
    vertex 20518.044921875 17593.841796875 32349.97265625
    vertex 20518.044921875 17593.841796875 31949.97265625
  endloop
endfacet
facet normal -3.234851012816169e-15 1 -1.085726357452112e-13
  outer loop
    vertex 20518.044921875 17593.841796875 32349.97265625
    vertex 6417.92138671875 17593.841796875 31949.97265625
    vertex 6417.92138671875 17593.841796875 32499.97265625
  endloop
endfacet
facet normal -3.234851012816169e-15 1 -1.085726357452112e-13
  outer loop
    vertex 20518.044921875 17593.841796875 32349.97265625
    vertex 6417.92138671875 17593.841796875 32499.97265625
    vertex 20518.044921875 17593.841796875 32499.97265625
  endloop
endfacet
facet normal -1 2.464305072936296e-13 -8.33401002289097e-14
  outer loop
    vertex 6417.92138671875 16894.591796875 32499.97265625
    vertex 6417.92138671875 17494.591796875 31949.97265625
    vertex 6417.92138671875 16894.591796875 31949.97265625
  endloop
endfacet
facet normal -1 2.464305072936296e-13 -8.33401002289097e-14
  outer loop
    vertex 6417.92138671875 17494.591796875 31949.97265625
    vertex 6417.92138671875 16894.591796875 32499.97265625
    vertex 6417.92138671875 17593.841796875 32499.97265625
  endloop
endfacet
facet normal -1 2.464305072936296e-13 -8.33401002289097e-14
  outer loop
    vertex 6417.92138671875 17494.591796875 31949.97265625
    vertex 6417.92138671875 17593.841796875 32499.97265625
    vertex 6417.92138671875 17593.841796875 31949.97265625
  endloop
endfacet
endsolid com.sketchup.SketchUp.2019
