solid com.sketchup.SketchUp.2019
facet normal 4.840776766968708e-28 -1 -1.443822885143116e-14
  outer loop
    vertex 37568.10546875 856.1970825195312 42449.97265625
    vertex 12243.9462890625 856.1970825195312 43149.97265625
    vertex 12243.9462890625 856.1970825195312 42449.97265625
  endloop
endfacet
facet normal 4.840776766968708e-28 -1 -1.443822885143116e-14
  outer loop
    vertex 12243.9462890625 856.1970825195312 43149.97265625
    vertex 37568.10546875 856.1970825195312 42449.97265625
    vertex 37568.10546875 856.1970825195312 43149.97265625
  endloop
endfacet
facet normal -1.292975736243498e-13 -1 -2.887645770286232e-14
  outer loop
    vertex 8638.1943359375 11847.24609375 42449.97265625
    vertex 6427.1943359375 11847.24609375 43149.97265625
    vertex 6427.1943359375 11847.24609375 42449.97265625
  endloop
endfacet
facet normal -1.292975736243498e-13 -1 -2.887645770286232e-14
  outer loop
    vertex 6427.1943359375 11847.24609375 43149.97265625
    vertex 8638.1943359375 11847.24609375 42449.97265625
    vertex 8638.1943359375 11847.24609375 43149.97265625
  endloop
endfacet
facet normal -1 -4.389221394652219e-14 -4.908997470673415e-13
  outer loop
    vertex 6427.1943359375 11847.24609375 43149.97265625
    vertex 6427.1943359375 16847.24609375 42449.97265625
    vertex 6427.1943359375 11847.24609375 42449.97265625
  endloop
endfacet
facet normal -1 -4.389221394652219e-14 -4.908997470673415e-13
  outer loop
    vertex 6427.1943359375 16847.24609375 42449.97265625
    vertex 6427.1943359375 11847.24609375 43149.97265625
    vertex 6427.1943359375 16847.24609375 43149.97265625
  endloop
endfacet
facet normal -1 2.857475141393725e-26 -1.155058308114493e-13
  outer loop
    vertex 12243.9462890625 856.1970825195312 43149.97265625
    vertex 12243.9462890625 4299.63916015625 42449.97265625
    vertex 12243.9462890625 856.1970825195312 42449.97265625
  endloop
endfacet
facet normal -1 2.857475141393725e-26 -1.155058308114493e-13
  outer loop
    vertex 12243.9462890625 4299.63916015625 42449.97265625
    vertex 12243.9462890625 856.1970825195312 43149.97265625
    vertex 12243.9462890625 4299.63916015625 43149.97265625
  endloop
endfacet
facet normal -3.171114536392361e-15 1 -1.356648625903956e-13
  outer loop
    vertex 6427.1943359375 17546.49609375 42649.97265625
    vertex 20527.31640625 17546.49609375 43049.97265625
    vertex 20527.31640625 17546.49609375 42649.97265625
  endloop
endfacet
facet normal -3.171114536392361e-15 1 -1.356648625903956e-13
  outer loop
    vertex 20527.31640625 17546.49609375 43049.97265625
    vertex 6427.1943359375 17546.49609375 42649.97265625
    vertex 6427.1943359375 17546.49609375 43149.97265625
  endloop
endfacet
facet normal -3.171114536392361e-15 1 -1.356648625903956e-13
  outer loop
    vertex 20527.31640625 17546.49609375 43049.97265625
    vertex 6427.1943359375 17546.49609375 43149.97265625
    vertex 20527.31640625 17546.49609375 43149.97265625
  endloop
endfacet
facet normal -2.691199348060173e-14 -1.737106118671061e-11 1
  outer loop
    vertex 25027.193359375 17502.123046875 43049.97265625
    vertex 20527.31640625 17546.49609375 43049.97265625
    vertex 20527.31640625 17502.123046875 43049.97265625
  endloop
endfacet
facet normal -2.691199348060173e-14 -1.737106118671061e-11 1
  outer loop
    vertex 20527.31640625 17546.49609375 43049.97265625
    vertex 25027.193359375 17502.123046875 43049.97265625
    vertex 25027.193359375 17546.49609375 43049.97265625
  endloop
endfacet
facet normal -1 1.545667212927634e-13 -6.064056049838451e-13
  outer loop
    vertex 8638.1943359375 4299.63916015625 43149.97265625
    vertex 8638.1943359375 11847.24609375 42449.97265625
    vertex 8638.1943359375 4299.63916015625 42449.97265625
  endloop
endfacet
facet normal -1 1.545667212927634e-13 -6.064056049838451e-13
  outer loop
    vertex 8638.1943359375 11847.24609375 42449.97265625
    vertex 8638.1943359375 4299.63916015625 43149.97265625
    vertex 8638.1943359375 11847.24609375 43149.97265625
  endloop
endfacet
facet normal 8.722277051011543e-14 -1 5.775291540572464e-14
  outer loop
    vertex 12243.9462890625 4299.63916015625 43149.97265625
    vertex 8638.1943359375 4299.63916015625 42449.97265625
    vertex 12243.9462890625 4299.63916015625 42449.97265625
  endloop
endfacet
facet normal 8.722277051011543e-14 -1 5.775291540572464e-14
  outer loop
    vertex 8638.1943359375 4299.63916015625 42449.97265625
    vertex 12243.9462890625 4299.63916015625 43149.97265625
    vertex 8638.1943359375 4299.63916015625 43149.97265625
  endloop
endfacet
facet normal 1 -1.071701024975215e-15 -2.11570076914672e-14
  outer loop
    vertex 36517.921875 17774.345703125 42449.97265625
    vertex 36517.921875 12416.5947265625 42649.97265625
    vertex 36517.921875 12416.5947265625 42449.97265625
  endloop
endfacet
facet normal 1 -1.071701024975215e-15 -2.11570076914672e-14
  outer loop
    vertex 36517.921875 12416.5947265625 42649.97265625
    vertex 36517.921875 17774.345703125 42449.97265625
    vertex 36517.921875 12416.5947265625 43149.97265625
  endloop
endfacet
facet normal 1 -1.071701024975215e-15 -2.11570076914672e-14
  outer loop
    vertex 36517.921875 12416.5947265625 43149.97265625
    vertex 36517.921875 17774.345703125 42449.97265625
    vertex 36517.921875 17774.345703125 43149.97265625
  endloop
endfacet
facet normal 1.07082269416056e-14 1 -7.09045655847805e-14
  outer loop
    vertex 36517.921875 12416.5947265625 42449.97265625
    vertex 37568.10546875 12416.5947265625 43149.97265625
    vertex 37568.10546875 12416.5947265625 42449.97265625
  endloop
endfacet
facet normal 1.07082269416056e-14 1 -7.09045655847805e-14
  outer loop
    vertex 37568.10546875 12416.5947265625 43149.97265625
    vertex 36517.921875 12416.5947265625 42449.97265625
    vertex 36517.921875 12416.5947265625 42649.97265625
  endloop
endfacet
facet normal 1.07082269416056e-14 1 -7.09045655847805e-14
  outer loop
    vertex 37568.10546875 12416.5947265625 43149.97265625
    vertex 36517.921875 12416.5947265625 42649.97265625
    vertex 36517.921875 12416.5947265625 43149.97265625
  endloop
endfacet
facet normal -1 2.441253579496538e-13 -1.257984280031996e-14
  outer loop
    vertex 6427.1943359375 17546.49609375 43149.97265625
    vertex 6427.1943359375 17546.49609375 42649.97265625
    vertex 6427.1943359375 16847.24609375 43149.97265625
  endloop
endfacet
facet normal -1 2.441253579496538e-13 -1.257984280031996e-14
  outer loop
    vertex 6427.1943359375 16847.24609375 43149.97265625
    vertex 6427.1943359375 17716.59375 42449.97265625
    vertex 6427.1943359375 16847.24609375 42449.97265625
  endloop
endfacet
facet normal -1 2.441253579496538e-13 -1.257984280031996e-14
  outer loop
    vertex 6427.1943359375 17716.59375 42449.97265625
    vertex 6427.1943359375 16847.24609375 43149.97265625
    vertex 6427.1943359375 17546.49609375 42649.97265625
  endloop
endfacet
facet normal -1 2.441253579496538e-13 -1.257984280031996e-14
  outer loop
    vertex 6427.1943359375 17716.59375 42449.97265625
    vertex 6427.1943359375 17546.49609375 42649.97265625
    vertex 6427.1943359375 17716.59375 42649.97265625
  endloop
endfacet
facet normal 1 1.778558489788401e-15 1.070321674172259e-14
  outer loop
    vertex 20527.31640625 17716.59375 42449.97265625
    vertex 20527.31640625 17502.123046875 42649.97265625
    vertex 20527.31640625 14247.24609375 42449.97265625
  endloop
endfacet
facet normal 1 1.778558489788401e-15 1.070321674172259e-14
  outer loop
    vertex 20527.31640625 17502.123046875 42649.97265625
    vertex 20527.31640625 17716.59375 42449.97265625
    vertex 20527.31640625 17546.49609375 42649.97265625
  endloop
endfacet
facet normal 1 1.778558489788401e-15 1.070321674172259e-14
  outer loop
    vertex 20527.31640625 17546.49609375 42649.97265625
    vertex 20527.31640625 17716.59375 42449.97265625
    vertex 20527.31640625 17716.59375 42649.97265625
  endloop
endfacet
facet normal 1 1.778558489788401e-15 1.070321674172259e-14
  outer loop
    vertex 20527.31640625 14247.24609375 42449.97265625
    vertex 20527.31640625 17502.123046875 43149.97265625
    vertex 20527.31640625 14247.24609375 43149.97265625
  endloop
endfacet
facet normal 1 1.778558489788401e-15 1.070321674172259e-14
  outer loop
    vertex 20527.31640625 17502.123046875 43149.97265625
    vertex 20527.31640625 14247.24609375 42449.97265625
    vertex 20527.31640625 17502.123046875 43049.97265625
  endloop
endfacet
facet normal 1 1.778558489788401e-15 1.070321674172259e-14
  outer loop
    vertex 20527.31640625 17502.123046875 43049.97265625
    vertex 20527.31640625 14247.24609375 42449.97265625
    vertex 20527.31640625 17502.123046875 42649.97265625
  endloop
endfacet
facet normal 7.70060014018692e-15 1 -1.299440562747486e-13
  outer loop
    vertex 20527.31640625 17546.49609375 43049.97265625
    vertex 25027.193359375 17546.49609375 42649.97265625
    vertex 20527.31640625 17546.49609375 42649.97265625
  endloop
endfacet
facet normal 7.70060014018692e-15 1 -1.299440562747486e-13
  outer loop
    vertex 25027.193359375 17546.49609375 42649.97265625
    vertex 20527.31640625 17546.49609375 43049.97265625
    vertex 25027.193359375 17546.49609375 43049.97265625
  endloop
endfacet
facet normal 1 9.872176367326201e-20 9.883453913062112e-07
  outer loop
    vertex 37568.10546875 12416.5947265625 42449.97265625
    vertex 37568.10546875 856.1970825195312 43149.97265625
    vertex 37568.10546875 856.1970825195312 42449.97265625
  endloop
endfacet
facet normal 1 9.872176367326201e-20 9.883453913062112e-07
  outer loop
    vertex 37568.10546875 856.1970825195312 43149.97265625
    vertex 37568.10546875 12416.5947265625 42449.97265625
    vertex 37568.10546875 12416.5947265625 43149.97265625
  endloop
endfacet
facet normal -1.95857272360765e-27 -1.052422919319874e-13 -1
  outer loop
    vertex 25027.193359375 17502.123046875 42649.97265625
    vertex 20527.31640625 17447.24609375 42649.97265625
    vertex 20527.31640625 17502.123046875 42649.97265625
  endloop
endfacet
facet normal -1.95857272360765e-27 -1.052422919319874e-13 -1
  outer loop
    vertex 20527.31640625 17447.24609375 42649.97265625
    vertex 25027.193359375 17502.123046875 42649.97265625
    vertex 25027.193359375 17447.24609375 42649.97265625
  endloop
endfacet
facet normal 3.208583303511951e-16 1 2.057447501214657e-13
  outer loop
    vertex 20527.31640625 14247.24609375 43149.97265625
    vertex 25027.193359375 14247.24609375 42449.97265625
    vertex 20527.31640625 14247.24609375 42449.97265625
  endloop
endfacet
facet normal 3.208583303511951e-16 1 2.057447501214657e-13
  outer loop
    vertex 25027.193359375 14247.24609375 42449.97265625
    vertex 20527.31640625 14247.24609375 43149.97265625
    vertex 25027.193359375 14247.24609375 43149.97265625
  endloop
endfacet
facet normal -1 2.168480747342851e-14 1.441350294326127e-12
  outer loop
    vertex 25027.193359375 17502.123046875 43149.97265625
    vertex 25027.193359375 14247.24609375 42449.97265625
    vertex 25027.193359375 14247.24609375 43149.97265625
  endloop
endfacet
facet normal -1 2.168480747342851e-14 1.441350294326127e-12
  outer loop
    vertex 25027.193359375 14247.24609375 42449.97265625
    vertex 25027.193359375 17502.123046875 43149.97265625
    vertex 25027.193359375 17447.24609375 42649.97265625
  endloop
endfacet
facet normal -1 2.168480747342851e-14 1.441350294326127e-12
  outer loop
    vertex 25027.193359375 14247.24609375 42449.97265625
    vertex 25027.193359375 17447.24609375 42649.97265625
    vertex 25027.193359375 17447.24609375 42449.97265625
  endloop
endfacet
facet normal -1 2.168480747342851e-14 1.441350294326127e-12
  outer loop
    vertex 25027.193359375 17447.24609375 42649.97265625
    vertex 25027.193359375 17502.123046875 43149.97265625
    vertex 25027.193359375 17502.123046875 42649.97265625
  endloop
endfacet
facet normal -1 2.168480747342851e-14 1.441350294326127e-12
  outer loop
    vertex 25027.193359375 17502.123046875 42649.97265625
    vertex 25027.193359375 17502.123046875 43149.97265625
    vertex 25027.193359375 17502.123046875 43049.97265625
  endloop
endfacet
facet normal -1.155090021028038e-14 -1 2.021351971437726e-13
  outer loop
    vertex 25027.193359375 17502.123046875 43049.97265625
    vertex 20527.31640625 17502.123046875 42649.97265625
    vertex 25027.193359375 17502.123046875 42649.97265625
  endloop
endfacet
facet normal -1.155090021028038e-14 -1 2.021351971437726e-13
  outer loop
    vertex 20527.31640625 17502.123046875 42649.97265625
    vertex 25027.193359375 17502.123046875 43049.97265625
    vertex 20527.31640625 17502.123046875 43049.97265625
  endloop
endfacet
facet normal -1 -4.164824735086725e-12 7.863281423561852e-13
  outer loop
    vertex 25027.193359375 17502.123046875 43049.97265625
    vertex 25027.193359375 17546.49609375 42649.97265625
    vertex 25027.193359375 17502.123046875 42649.97265625
  endloop
endfacet
facet normal -1 -4.164824735086725e-12 7.863281423561852e-13
  outer loop
    vertex 25027.193359375 17546.49609375 42649.97265625
    vertex 25027.193359375 17502.123046875 43049.97265625
    vertex 25027.193359375 17546.49609375 43049.97265625
  endloop
endfacet
facet normal 1.28343332140478e-15 -1.301507729714602e-13 -1
  outer loop
    vertex 25027.193359375 17546.49609375 42649.97265625
    vertex 20527.31640625 17502.123046875 42649.97265625
    vertex 20527.31640625 17546.49609375 42649.97265625
  endloop
endfacet
facet normal 1.28343332140478e-15 -1.301507729714602e-13 -1
  outer loop
    vertex 20527.31640625 17502.123046875 42649.97265625
    vertex 25027.193359375 17546.49609375 42649.97265625
    vertex 25027.193359375 17502.123046875 42649.97265625
  endloop
endfacet
facet normal 1 7.508178569551352e-27 5.775291540572464e-14
  outer loop
    vertex 20527.31640625 17546.49609375 42649.97265625
    vertex 20527.31640625 17502.123046875 43049.97265625
    vertex 20527.31640625 17502.123046875 42649.97265625
  endloop
endfacet
facet normal 1 7.508178569551352e-27 5.775291540572464e-14
  outer loop
    vertex 20527.31640625 17502.123046875 43049.97265625
    vertex 20527.31640625 17546.49609375 42649.97265625
    vertex 20527.31640625 17546.49609375 43049.97265625
  endloop
endfacet
facet normal -1.052488094270001e-15 2.142049965138046e-13 1
  outer loop
    vertex 12243.9462890625 4299.63916015625 43149.97265625
    vertex 8638.1943359375 11847.24609375 43149.97265625
    vertex 8638.1943359375 4299.63916015625 43149.97265625
  endloop
endfacet
facet normal -1.052488094270001e-15 2.142049965138046e-13 1
  outer loop
    vertex 37568.10546875 856.1970825195312 43149.97265625
    vertex 12243.9462890625 4299.63916015625 43149.97265625
    vertex 12243.9462890625 856.1970825195312 43149.97265625
  endloop
endfacet
facet normal -1.052488094270001e-15 2.142049965138046e-13 1
  outer loop
    vertex 12243.9462890625 4299.63916015625 43149.97265625
    vertex 37568.10546875 856.1970825195312 43149.97265625
    vertex 20527.31640625 14247.24609375 43149.97265625
  endloop
endfacet
facet normal -1.052488094270001e-15 2.142049965138046e-13 1
  outer loop
    vertex 12243.9462890625 4299.63916015625 43149.97265625
    vertex 20527.31640625 14247.24609375 43149.97265625
    vertex 20527.31640625 17502.123046875 43149.97265625
  endloop
endfacet
facet normal -1.052488094270001e-15 2.142049965138046e-13 1
  outer loop
    vertex 20527.31640625 14247.24609375 43149.97265625
    vertex 37568.10546875 856.1970825195312 43149.97265625
    vertex 25027.193359375 14247.24609375 43149.97265625
  endloop
endfacet
facet normal -1.052488094270001e-15 2.142049965138046e-13 1
  outer loop
    vertex 25027.193359375 14247.24609375 43149.97265625
    vertex 37568.10546875 856.1970825195312 43149.97265625
    vertex 25027.193359375 17502.123046875 43149.97265625
  endloop
endfacet
facet normal -1.052488094270001e-15 2.142049965138046e-13 1
  outer loop
    vertex 25027.193359375 17502.123046875 43149.97265625
    vertex 37568.10546875 856.1970825195312 43149.97265625
    vertex 36517.921875 12416.5947265625 43149.97265625
  endloop
endfacet
facet normal -1.052488094270001e-15 2.142049965138046e-13 1
  outer loop
    vertex 36517.921875 12416.5947265625 43149.97265625
    vertex 37568.10546875 856.1970825195312 43149.97265625
    vertex 37568.10546875 12416.5947265625 43149.97265625
  endloop
endfacet
facet normal -1.052488094270001e-15 2.142049965138046e-13 1
  outer loop
    vertex 25027.193359375 17502.123046875 43149.97265625
    vertex 36517.921875 17774.345703125 43149.97265625
    vertex 25027.193359375 17774.345703125 43149.97265625
  endloop
endfacet
facet normal -1.052488094270001e-15 2.142049965138046e-13 1
  outer loop
    vertex 36517.921875 17774.345703125 43149.97265625
    vertex 25027.193359375 17502.123046875 43149.97265625
    vertex 36517.921875 12416.5947265625 43149.97265625
  endloop
endfacet
facet normal -1.052488094270001e-15 2.142049965138046e-13 1
  outer loop
    vertex 6427.1943359375 11847.24609375 43149.97265625
    vertex 6427.1943359375 17546.49609375 43149.97265625
    vertex 6427.1943359375 16847.24609375 43149.97265625
  endloop
endfacet
facet normal -1.052488094270001e-15 2.142049965138046e-13 1
  outer loop
    vertex 6427.1943359375 17546.49609375 43149.97265625
    vertex 6427.1943359375 11847.24609375 43149.97265625
    vertex 8638.1943359375 11847.24609375 43149.97265625
  endloop
endfacet
facet normal -1.052488094270001e-15 2.142049965138046e-13 1
  outer loop
    vertex 6427.1943359375 17546.49609375 43149.97265625
    vertex 8638.1943359375 11847.24609375 43149.97265625
    vertex 20527.31640625 17546.49609375 43149.97265625
  endloop
endfacet
facet normal -1.052488094270001e-15 2.142049965138046e-13 1
  outer loop
    vertex 20527.31640625 17546.49609375 43149.97265625
    vertex 8638.1943359375 11847.24609375 43149.97265625
    vertex 12243.9462890625 4299.63916015625 43149.97265625
  endloop
endfacet
facet normal -1.052488094270001e-15 2.142049965138046e-13 1
  outer loop
    vertex 20527.31640625 17546.49609375 43149.97265625
    vertex 12243.9462890625 4299.63916015625 43149.97265625
    vertex 20527.31640625 17502.123046875 43149.97265625
  endloop
endfacet
facet normal -1 -1.353568038903186e-11 -1.052488094270001e-15
  outer loop
    vertex 25027.193359375 17502.123046875 43149.97265625
    vertex 25027.193359375 17546.49609375 43049.97265625
    vertex 25027.193359375 17502.123046875 43049.97265625
  endloop
endfacet
facet normal -1 -1.353568038903186e-11 -1.052488094270001e-15
  outer loop
    vertex 25027.193359375 17546.49609375 43049.97265625
    vertex 25027.193359375 17502.123046875 43149.97265625
    vertex 25027.193359375 17774.345703125 43149.97265625
  endloop
endfacet
facet normal -1 -1.353568038903186e-11 -1.052488094270001e-15
  outer loop
    vertex 25027.193359375 17546.49609375 43049.97265625
    vertex 25027.193359375 17774.345703125 43149.97265625
    vertex 25027.193359375 17774.345703125 43049.97265625
  endloop
endfacet
facet normal 1 1.369821404434689e-28 1.052488094270001e-15
  outer loop
    vertex 20527.31640625 17546.49609375 43049.97265625
    vertex 20527.31640625 17502.123046875 43149.97265625
    vertex 20527.31640625 17502.123046875 43049.97265625
  endloop
endfacet
facet normal 1 1.369821404434689e-28 1.052488094270001e-15
  outer loop
    vertex 20527.31640625 17502.123046875 43149.97265625
    vertex 20527.31640625 17546.49609375 43049.97265625
    vertex 20527.31640625 17546.49609375 43149.97265625
  endloop
endfacet
facet normal -1.216505330714837e-14 -1.148595378964307e-13 -1
  outer loop
    vertex 25027.193359375 17774.345703125 42449.97265625
    vertex 25027.193359375 17447.24609375 42449.97265625
    vertex 25027.193359375 17502.123046875 42449.97265625
  endloop
endfacet
facet normal -1.216505330714837e-14 -1.148595378964307e-13 -1
  outer loop
    vertex 25027.193359375 17447.24609375 42449.97265625
    vertex 25027.193359375 17774.345703125 42449.97265625
    vertex 25027.193359375 14247.24609375 42449.97265625
  endloop
endfacet
facet normal -1.216505330714837e-14 -1.148595378964307e-13 -1
  outer loop
    vertex 36517.921875 17774.345703125 42449.97265625
    vertex 36517.921875 12416.5947265625 42449.97265625
    vertex 25027.193359375 17774.345703125 42449.97265625
  endloop
endfacet
facet normal -1.216505330714837e-14 -1.148595378964307e-13 -1
  outer loop
    vertex 6427.1943359375 17716.59375 42449.97265625
    vertex 6427.1943359375 11847.24609375 42449.97265625
    vertex 6427.1943359375 16847.24609375 42449.97265625
  endloop
endfacet
facet normal -1.216505330714837e-14 -1.148595378964307e-13 -1
  outer loop
    vertex 6427.1943359375 11847.24609375 42449.97265625
    vertex 6427.1943359375 17716.59375 42449.97265625
    vertex 20527.31640625 17716.59375 42449.97265625
  endloop
endfacet
facet normal -1.216505330714837e-14 -1.148595378964307e-13 -1
  outer loop
    vertex 6427.1943359375 11847.24609375 42449.97265625
    vertex 20527.31640625 17716.59375 42449.97265625
    vertex 8638.1943359375 11847.24609375 42449.97265625
  endloop
endfacet
facet normal -1.216505330714837e-14 -1.148595378964307e-13 -1
  outer loop
    vertex 8638.1943359375 11847.24609375 42449.97265625
    vertex 20527.31640625 17716.59375 42449.97265625
    vertex 12243.9462890625 4299.63916015625 42449.97265625
  endloop
endfacet
facet normal -1.216505330714837e-14 -1.148595378964307e-13 -1
  outer loop
    vertex 12243.9462890625 4299.63916015625 42449.97265625
    vertex 20527.31640625 17716.59375 42449.97265625
    vertex 12243.9462890625 856.1970825195312 42449.97265625
  endloop
endfacet
facet normal -1.216505330714837e-14 -1.148595378964307e-13 -1
  outer loop
    vertex 12243.9462890625 856.1970825195312 42449.97265625
    vertex 20527.31640625 17716.59375 42449.97265625
    vertex 20527.31640625 14247.24609375 42449.97265625
  endloop
endfacet
facet normal -1.216505330714837e-14 -1.148595378964307e-13 -1
  outer loop
    vertex 12243.9462890625 856.1970825195312 42449.97265625
    vertex 20527.31640625 14247.24609375 42449.97265625
    vertex 37568.10546875 856.1970825195312 42449.97265625
  endloop
endfacet
facet normal -1.216505330714837e-14 -1.148595378964307e-13 -1
  outer loop
    vertex 37568.10546875 856.1970825195312 42449.97265625
    vertex 20527.31640625 14247.24609375 42449.97265625
    vertex 25027.193359375 14247.24609375 42449.97265625
  endloop
endfacet
facet normal -1.216505330714837e-14 -1.148595378964307e-13 -1
  outer loop
    vertex 37568.10546875 856.1970825195312 42449.97265625
    vertex 25027.193359375 14247.24609375 42449.97265625
    vertex 25027.193359375 17774.345703125 42449.97265625
  endloop
endfacet
facet normal -1.216505330714837e-14 -1.148595378964307e-13 -1
  outer loop
    vertex 37568.10546875 856.1970825195312 42449.97265625
    vertex 25027.193359375 17774.345703125 42449.97265625
    vertex 36517.921875 12416.5947265625 42449.97265625
  endloop
endfacet
facet normal -1.216505330714837e-14 -1.148595378964307e-13 -1
  outer loop
    vertex 37568.10546875 856.1970825195312 42449.97265625
    vertex 36517.921875 12416.5947265625 42449.97265625
    vertex 37568.10546875 12416.5947265625 42449.97265625
  endloop
endfacet
facet normal -1.216505330714837e-14 -1.148595378964307e-13 -1
  outer loop
    vertex 12243.9462890625 4299.63916015625 42449.97265625
    vertex 8638.1943359375 4299.63916015625 42449.97265625
    vertex 8638.1943359375 11847.24609375 42449.97265625
  endloop
endfacet
facet normal -1 -1.217488015849662e-26 -1.155058308114493e-13
  outer loop
    vertex 25027.193359375 17447.24609375 42649.97265625
    vertex 25027.193359375 17502.123046875 42449.97265625
    vertex 25027.193359375 17447.24609375 42449.97265625
  endloop
endfacet
facet normal -1 -1.217488015849662e-26 -1.155058308114493e-13
  outer loop
    vertex 25027.193359375 17502.123046875 42449.97265625
    vertex 25027.193359375 17447.24609375 42649.97265625
    vertex 25027.193359375 17502.123046875 42649.97265625
  endloop
endfacet
facet normal -1 5.206030918858406e-13 -1.155058308114493e-13
  outer loop
    vertex 25027.193359375 17502.123046875 42649.97265625
    vertex 25027.193359375 17774.345703125 42449.97265625
    vertex 25027.193359375 17502.123046875 42449.97265625
  endloop
endfacet
facet normal -1 5.206030918858406e-13 -1.155058308114493e-13
  outer loop
    vertex 25027.193359375 17774.345703125 42449.97265625
    vertex 25027.193359375 17502.123046875 42649.97265625
    vertex 25027.193359375 17546.49609375 42649.97265625
  endloop
endfacet
facet normal -1 5.206030918858406e-13 -1.155058308114493e-13
  outer loop
    vertex 25027.193359375 17774.345703125 42449.97265625
    vertex 25027.193359375 17546.49609375 42649.97265625
    vertex 25027.193359375 17774.345703125 42649.97265625
  endloop
endfacet
facet normal 3.262683011306174e-28 1 -2.16573422607072e-13
  outer loop
    vertex 25027.193359375 17774.345703125 42649.97265625
    vertex 36517.921875 17774.345703125 42449.97265625
    vertex 25027.193359375 17774.345703125 42449.97265625
  endloop
endfacet
facet normal 3.262683011306174e-28 1 -2.16573422607072e-13
  outer loop
    vertex 36517.921875 17774.345703125 42449.97265625
    vertex 25027.193359375 17774.345703125 42649.97265625
    vertex 36517.921875 17774.345703125 43149.97265625
  endloop
endfacet
facet normal 3.262683011306174e-28 1 -2.16573422607072e-13
  outer loop
    vertex 36517.921875 17774.345703125 43149.97265625
    vertex 25027.193359375 17774.345703125 42649.97265625
    vertex 25027.193359375 17774.345703125 43049.97265625
  endloop
endfacet
facet normal 3.262683011306174e-28 1 -2.16573422607072e-13
  outer loop
    vertex 36517.921875 17774.345703125 43149.97265625
    vertex 25027.193359375 17774.345703125 43049.97265625
    vertex 25027.193359375 17774.345703125 43149.97265625
  endloop
endfacet
facet normal -1 -1.218147839448609e-26 -5.775291540572464e-14
  outer loop
    vertex 25027.193359375 17546.49609375 43049.97265625
    vertex 25027.193359375 17774.345703125 42649.97265625
    vertex 25027.193359375 17546.49609375 42649.97265625
  endloop
endfacet
facet normal -1 -1.218147839448609e-26 -5.775291540572464e-14
  outer loop
    vertex 25027.193359375 17774.345703125 42649.97265625
    vertex 25027.193359375 17546.49609375 43049.97265625
    vertex 25027.193359375 17774.345703125 43049.97265625
  endloop
endfacet
facet normal -6.143873438295552e-15 1 -1.588205072013474e-13
  outer loop
    vertex 6427.1943359375 17716.59375 42649.97265625
    vertex 20527.31640625 17716.59375 42449.97265625
    vertex 6427.1943359375 17716.59375 42449.97265625
  endloop
endfacet
facet normal -6.143873438295552e-15 1 -1.588205072013474e-13
  outer loop
    vertex 20527.31640625 17716.59375 42449.97265625
    vertex 6427.1943359375 17716.59375 42649.97265625
    vertex 20527.31640625 17716.59375 42649.97265625
  endloop
endfacet
facet normal 4.095915431418651e-16 1.588205072013474e-13 1
  outer loop
    vertex 20527.31640625 17546.49609375 42649.97265625
    vertex 6427.1943359375 17716.59375 42649.97265625
    vertex 6427.1943359375 17546.49609375 42649.97265625
  endloop
endfacet
facet normal 4.095915431418651e-16 1.588205072013474e-13 1
  outer loop
    vertex 6427.1943359375 17716.59375 42649.97265625
    vertex 20527.31640625 17546.49609375 42649.97265625
    vertex 20527.31640625 17716.59375 42649.97265625
  endloop
endfacet
endsolid com.sketchup.SketchUp.2019
