solid com.sketchup.SketchUp.2019
facet normal -2.329448699905923e-12 2.429432286040704e-14 -1
  outer loop
    vertex 36500 17355.26171875 7050
    vertex 24668.421875 14091.072265625 7050
    vertex 24668.421875 17355.26171875 7050
  endloop
endfacet
facet normal -2.329448699905923e-12 2.429432286040704e-14 -1
  outer loop
    vertex 18868.421875 17291.083984375 7050
    vertex 6199.67138671875 12287.0830078125 7050
    vertex 6199.67138671875 17291.083984375 7050
  endloop
endfacet
facet normal -2.329448699905923e-12 2.429432286040704e-14 -1
  outer loop
    vertex 6199.67138671875 12287.0830078125 7050
    vertex 18868.421875 17291.083984375 7050
    vertex 8514.427734375 1749.998413085938 7050
  endloop
endfacet
facet normal -2.329448699905923e-12 2.429432286040704e-14 -1
  outer loop
    vertex 6199.67138671875 12287.0830078125 7050
    vertex 8514.427734375 1749.998413085938 7050
    vertex 8514.427734375 -20.03995513916016 7050
  endloop
endfacet
facet normal -2.329448699905923e-12 2.429432286040704e-14 -1
  outer loop
    vertex 8514.427734375 1749.998413085938 7050
    vertex 18868.421875 17291.083984375 7050
    vertex 18868.421875 14091.072265625 7050
  endloop
endfacet
facet normal -2.329448699905923e-12 2.429432286040704e-14 -1
  outer loop
    vertex 8514.427734375 1749.998413085938 7050
    vertex 18868.421875 14091.072265625 7050
    vertex 36500 1749.998413085938 7050
  endloop
endfacet
facet normal -2.329448699905923e-12 2.429432286040704e-14 -1
  outer loop
    vertex 36500 1749.998413085938 7050
    vertex 18868.421875 14091.072265625 7050
    vertex 24668.421875 14091.072265625 7050
  endloop
endfacet
facet normal -2.329448699905923e-12 2.429432286040704e-14 -1
  outer loop
    vertex 36500 1749.998413085938 7050
    vertex 24668.421875 14091.072265625 7050
    vertex 36500 17355.26171875 7050
  endloop
endfacet
facet normal -2.329448699905923e-12 2.429432286040704e-14 -1
  outer loop
    vertex -92.69142150878906 12287.0830078125 7050
    vertex 8514.427734375 -20.03995513916016 7050
    vertex -92.69142150878906 -20.03995513916016 7050
  endloop
endfacet
facet normal -2.329448699905923e-12 2.429432286040704e-14 -1
  outer loop
    vertex 8514.427734375 -20.03995513916016 7050
    vertex -92.69142150878906 12287.0830078125 7050
    vertex 6199.67138671875 12287.0830078125 7050
  endloop
endfacet
facet normal 2.360805127776811e-12 -1.724211966507971e-14 1
  outer loop
    vertex 8514.427734375 -20.03995513916016 7450
    vertex -92.69142150878906 12287.0830078125 7450
    vertex -92.69142150878906 -20.03995513916016 7450
  endloop
endfacet
facet normal 2.360805127776811e-12 -1.724211966507971e-14 1
  outer loop
    vertex -92.69142150878906 12287.0830078125 7450
    vertex 8514.427734375 -20.03995513916016 7450
    vertex 6199.67138671875 12287.0830078125 7450
  endloop
endfacet
facet normal 2.360805127776811e-12 -1.724211966507971e-14 1
  outer loop
    vertex 36500 1749.998413085938 7450
    vertex 18868.421875 14091.072265625 7450
    vertex 8514.427734375 1749.998413085938 7450
  endloop
endfacet
facet normal 2.360805127776811e-12 -1.724211966507971e-14 1
  outer loop
    vertex 18868.421875 14091.072265625 7450
    vertex 36500 1749.998413085938 7450
    vertex 24668.421875 14091.072265625 7450
  endloop
endfacet
facet normal 2.360805127776811e-12 -1.724211966507971e-14 1
  outer loop
    vertex 24668.421875 14091.072265625 7450
    vertex 36500 1749.998413085938 7450
    vertex 24668.421875 17355.26171875 7450
  endloop
endfacet
facet normal 2.360805127776811e-12 -1.724211966507971e-14 1
  outer loop
    vertex 24668.421875 17355.26171875 7450
    vertex 36500 1749.998413085938 7450
    vertex 36500 17355.26171875 7450
  endloop
endfacet
facet normal 2.360805127776811e-12 -1.724211966507971e-14 1
  outer loop
    vertex 6199.67138671875 12287.0830078125 7450
    vertex 18868.421875 17291.083984375 7450
    vertex 6199.67138671875 17291.083984375 7450
  endloop
endfacet
facet normal 2.360805127776811e-12 -1.724211966507971e-14 1
  outer loop
    vertex 18868.421875 17291.083984375 7450
    vertex 6199.67138671875 12287.0830078125 7450
    vertex 8514.427734375 1749.998413085938 7450
  endloop
endfacet
facet normal 2.360805127776811e-12 -1.724211966507971e-14 1
  outer loop
    vertex 8514.427734375 1749.998413085938 7450
    vertex 6199.67138671875 12287.0830078125 7450
    vertex 8514.427734375 -20.03995513916016 7450
  endloop
endfacet
facet normal 2.360805127776811e-12 -1.724211966507971e-14 1
  outer loop
    vertex 18868.421875 17291.083984375 7450
    vertex 8514.427734375 1749.998413085938 7450
    vertex 18868.421875 14091.072265625 7450
  endloop
endfacet
facet normal 5.588192669020442e-13 -1 1.235787053200862e-13
  outer loop
    vertex 36500 1749.998413085938 7050
    vertex 8514.427734375 1749.998413085938 7450
    vertex 8514.427734375 1749.998413085938 7050
  endloop
endfacet
facet normal 5.588192669020442e-13 -1 1.235787053200862e-13
  outer loop
    vertex 8514.427734375 1749.998413085938 7450
    vertex 36500 1749.998413085938 7050
    vertex 36500 1749.998413085938 7450
  endloop
endfacet
facet normal 1 0 0
  outer loop
    vertex 36500 17355.26171875 7050
    vertex 36500 1749.998413085938 7450
    vertex 36500 1749.998413085938 7050
  endloop
endfacet
facet normal 1 0 0
  outer loop
    vertex 36500 1749.998413085938 7450
    vertex 36500 17355.26171875 7050
    vertex 36500 17355.26171875 7450
  endloop
endfacet
facet normal -1 0 0
  outer loop
    vertex -92.69142150878906 12287.0830078125 7450
    vertex -92.69142150878906 -20.03995513916016 7050
    vertex -92.69142150878906 -20.03995513916016 7450
  endloop
endfacet
facet normal -1 0 0
  outer loop
    vertex -92.69142150878906 -20.03995513916016 7050
    vertex -92.69142150878906 12287.0830078125 7450
    vertex -92.69142150878906 12287.0830078125 7050
  endloop
endfacet
facet normal -1.816969860159168e-12 -1 1.235787053200862e-13
  outer loop
    vertex 8514.427734375 -20.03995513916016 7450
    vertex -92.69142150878906 -20.03995513916016 7050
    vertex 8514.427734375 -20.03995513916016 7050
  endloop
endfacet
facet normal -1.816969860159168e-12 -1 1.235787053200862e-13
  outer loop
    vertex -92.69142150878906 -20.03995513916016 7050
    vertex 8514.427734375 -20.03995513916016 7450
    vertex -92.69142150878906 -20.03995513916016 7450
  endloop
endfacet
facet normal 1 -1.171196674789645e-17 -3.308643834966694e-16
  outer loop
    vertex 8514.427734375 1749.998413085938 7050
    vertex 8514.427734375 -20.03995513916016 7450
    vertex 8514.427734375 -20.03995513916016 7050
  endloop
endfacet
facet normal 1 -1.171196674789645e-17 -3.308643834966694e-16
  outer loop
    vertex 8514.427734375 -20.03995513916016 7450
    vertex 8514.427734375 1749.998413085938 7050
    vertex 8514.427734375 1749.998413085938 7450
  endloop
endfacet
facet normal 5.960076616268184e-12 1 6.1294751734362e-30
  outer loop
    vertex 24668.421875 17355.26171875 7050
    vertex 36500 17355.26171875 7450
    vertex 36500 17355.26171875 7050
  endloop
endfacet
facet normal 5.960076616268184e-12 1 6.1294751734362e-30
  outer loop
    vertex 36500 17355.26171875 7450
    vertex 24668.421875 17355.26171875 7050
    vertex 24668.421875 17355.26171875 7450
  endloop
endfacet
facet normal -2.082924110968776e-11 1 -8.98754303672953e-15
  outer loop
    vertex -92.69142150878906 12287.0830078125 7450
    vertex 6199.67138671875 12287.0830078125 7050
    vertex -92.69142150878906 12287.0830078125 7050
  endloop
endfacet
facet normal -2.082924110968776e-11 1 -8.98754303672953e-15
  outer loop
    vertex 6199.67138671875 12287.0830078125 7050
    vertex -92.69142150878906 12287.0830078125 7450
    vertex 6199.67138671875 12287.0830078125 7450
  endloop
endfacet
facet normal -1 -1.342627557179157e-16 -5.134102274346769e-16
  outer loop
    vertex 6199.67138671875 12287.0830078125 7450
    vertex 6199.67138671875 17291.083984375 7050
    vertex 6199.67138671875 12287.0830078125 7050
  endloop
endfacet
facet normal -1 -1.342627557179157e-16 -5.134102274346769e-16
  outer loop
    vertex 6199.67138671875 17291.083984375 7050
    vertex 6199.67138671875 12287.0830078125 7450
    vertex 6199.67138671875 17291.083984375 7450
  endloop
endfacet
facet normal 1 0 0
  outer loop
    vertex 18868.421875 17291.083984375 7050
    vertex 18868.421875 14091.072265625 7450
    vertex 18868.421875 14091.072265625 7050
  endloop
endfacet
facet normal 1 0 0
  outer loop
    vertex 18868.421875 14091.072265625 7450
    vertex 18868.421875 17291.083984375 7050
    vertex 18868.421875 17291.083984375 7450
  endloop
endfacet
facet normal 0 1 -1.190835234918643e-14
  outer loop
    vertex 18868.421875 14091.072265625 7450
    vertex 24668.421875 14091.072265625 7050
    vertex 18868.421875 14091.072265625 7050
  endloop
endfacet
facet normal 0 1 -1.190835234918643e-14
  outer loop
    vertex 24668.421875 14091.072265625 7050
    vertex 18868.421875 14091.072265625 7450
    vertex 24668.421875 14091.072265625 7450
  endloop
endfacet
facet normal -1 0 0
  outer loop
    vertex 24668.421875 14091.072265625 7450
    vertex 24668.421875 17355.26171875 7050
    vertex 24668.421875 14091.072265625 7050
  endloop
endfacet
facet normal -1 0 0
  outer loop
    vertex 24668.421875 17355.26171875 7050
    vertex 24668.421875 14091.072265625 7450
    vertex 24668.421875 17355.26171875 7450
  endloop
endfacet
facet normal 4.009408256788749e-12 1 -8.98754303672953e-15
  outer loop
    vertex 6199.67138671875 17291.083984375 7050
    vertex 18868.421875 17291.083984375 7450
    vertex 18868.421875 17291.083984375 7050
  endloop
endfacet
facet normal 4.009408256788749e-12 1 -8.98754303672953e-15
  outer loop
    vertex 18868.421875 17291.083984375 7450
    vertex 6199.67138671875 17291.083984375 7050
    vertex 6199.67138671875 17291.083984375 7450
  endloop
endfacet
endsolid com.sketchup.SketchUp.2019
