solid com.sketchup.SketchUp.2019
facet normal 4.840776766968708e-28 -1 -1.443822885143116e-14
  outer loop
    vertex 37542.4453125 1026.271240234375 46599.95703125
    vertex 12243.9462890625 1026.271240234375 47099.95703125
    vertex 12243.9462890625 1026.271240234375 46599.95703125
  endloop
endfacet
facet normal 4.840776766968708e-28 -1 -1.443822885143116e-14
  outer loop
    vertex 12243.9462890625 1026.271240234375 47099.95703125
    vertex 37542.4453125 1026.271240234375 46599.95703125
    vertex 37542.4453125 1026.271240234375 47099.95703125
  endloop
endfacet
facet normal -1.292975736243498e-13 -1 -2.887645770286232e-14
  outer loop
    vertex 8612.5341796875 12017.3203125 46599.95703125
    vertex 6401.5341796875 12017.3203125 47099.95703125
    vertex 6401.5341796875 12017.3203125 46599.95703125
  endloop
endfacet
facet normal -1.292975736243498e-13 -1 -2.887645770286232e-14
  outer loop
    vertex 6401.5341796875 12017.3203125 47099.95703125
    vertex 8612.5341796875 12017.3203125 46599.95703125
    vertex 8612.5341796875 12017.3203125 47099.95703125
  endloop
endfacet
facet normal -1 -4.389221394652219e-14 -4.908997470673415e-13
  outer loop
    vertex 6401.5341796875 12017.3203125 47099.95703125
    vertex 6401.5341796875 17017.3203125 46599.95703125
    vertex 6401.5341796875 12017.3203125 46599.95703125
  endloop
endfacet
facet normal -1 -4.389221394652219e-14 -4.908997470673415e-13
  outer loop
    vertex 6401.5341796875 17017.3203125 46599.95703125
    vertex 6401.5341796875 12017.3203125 47099.95703125
    vertex 6401.5341796875 17017.3203125 47099.95703125
  endloop
endfacet
facet normal -1 2.857475141393725e-26 -1.155058308114493e-13
  outer loop
    vertex 12243.9462890625 1026.271240234375 47099.95703125
    vertex 12243.9462890625 4469.71337890625 46599.95703125
    vertex 12243.9462890625 1026.271240234375 46599.95703125
  endloop
endfacet
facet normal -1 2.857475141393725e-26 -1.155058308114493e-13
  outer loop
    vertex 12243.9462890625 4469.71337890625 46599.95703125
    vertex 12243.9462890625 1026.271240234375 47099.95703125
    vertex 12243.9462890625 4469.71337890625 47099.95703125
  endloop
endfacet
facet normal -3.234851012816169e-15 1 -1.085726357452112e-13
  outer loop
    vertex 6401.5341796875 17716.5703125 47099.95703125
    vertex 20501.658203125 17716.5703125 46599.95703125
    vertex 6401.5341796875 17716.5703125 46599.95703125
  endloop
endfacet
facet normal -3.234851012816169e-15 1 -1.085726357452112e-13
  outer loop
    vertex 20501.658203125 17716.5703125 46599.95703125
    vertex 6401.5341796875 17716.5703125 47099.95703125
    vertex 20501.658203125 17716.5703125 46999.95703125
  endloop
endfacet
facet normal -3.234851012816169e-15 1 -1.085726357452112e-13
  outer loop
    vertex 20501.658203125 17716.5703125 46999.95703125
    vertex 6401.5341796875 17716.5703125 47099.95703125
    vertex 20501.658203125 17716.5703125 47099.95703125
  endloop
endfacet
facet normal -3.569531009748467e-14 -1.625545878458645e-11 1
  outer loop
    vertex 24643.197265625 17672.197265625 46999.95703125
    vertex 20501.658203125 17716.5703125 46999.95703125
    vertex 20501.658203125 17672.197265625 46999.95703125
  endloop
endfacet
facet normal -3.569531009748467e-14 -1.625545878458645e-11 1
  outer loop
    vertex 20501.658203125 17716.5703125 46999.95703125
    vertex 24643.197265625 17672.197265625 46999.95703125
    vertex 25001.533203125 17716.5703125 46999.95703125
  endloop
endfacet
facet normal -3.569531009748467e-14 -1.625545878458645e-11 1
  outer loop
    vertex 25001.533203125 17716.5703125 46999.95703125
    vertex 24643.197265625 17672.197265625 46999.95703125
    vertex 25001.533203125 17672.197265625 46999.95703125
  endloop
endfacet
facet normal -1 1.545667212927634e-13 -6.064056049838451e-13
  outer loop
    vertex 8612.5341796875 4469.71337890625 47099.95703125
    vertex 8612.5341796875 12017.3203125 46599.95703125
    vertex 8612.5341796875 4469.71337890625 46599.95703125
  endloop
endfacet
facet normal -1 1.545667212927634e-13 -6.064056049838451e-13
  outer loop
    vertex 8612.5341796875 12017.3203125 46599.95703125
    vertex 8612.5341796875 4469.71337890625 47099.95703125
    vertex 8612.5341796875 12017.3203125 47099.95703125
  endloop
endfacet
facet normal 8.722277051011543e-14 -1 5.775291540572464e-14
  outer loop
    vertex 12243.9462890625 4469.71337890625 47099.95703125
    vertex 8612.5341796875 4469.71337890625 46599.95703125
    vertex 12243.9462890625 4469.71337890625 46599.95703125
  endloop
endfacet
facet normal 8.722277051011543e-14 -1 5.775291540572464e-14
  outer loop
    vertex 8612.5341796875 4469.71337890625 46599.95703125
    vertex 12243.9462890625 4469.71337890625 47099.95703125
    vertex 8612.5341796875 4469.71337890625 47099.95703125
  endloop
endfacet
facet normal 1 -2.179365163066716e-15 2.887645770286232e-14
  outer loop
    vertex 36492.26171875 17716.5703125 46599.95703125
    vertex 36492.26171875 12416.5947265625 47099.95703125
    vertex 36492.26171875 12416.5947265625 46599.95703125
  endloop
endfacet
facet normal 1 -2.179365163066716e-15 2.887645770286232e-14
  outer loop
    vertex 36492.26171875 12416.5947265625 47099.95703125
    vertex 36492.26171875 17716.5703125 46599.95703125
    vertex 36492.26171875 17716.5703125 47099.95703125
  endloop
endfacet
facet normal 5.499309741038762e-15 1 2.717608804334382e-21
  outer loop
    vertex 36492.26171875 12416.5947265625 46599.95703125
    vertex 37542.4453125 12416.5947265625 47099.95703125
    vertex 37542.4453125 12416.5947265625 46599.95703125
  endloop
endfacet
facet normal 5.499309741038762e-15 1 2.717608804334382e-21
  outer loop
    vertex 37542.4453125 12416.5947265625 47099.95703125
    vertex 36492.26171875 12416.5947265625 46599.95703125
    vertex 36492.26171875 12416.5947265625 47099.95703125
  endloop
endfacet
facet normal -1 2.464305072936296e-13 -8.33401002289097e-14
  outer loop
    vertex 6401.5341796875 17017.3203125 47099.95703125
    vertex 6401.5341796875 17617.3203125 46599.95703125
    vertex 6401.5341796875 17017.3203125 46599.95703125
  endloop
endfacet
facet normal -1 2.464305072936296e-13 -8.33401002289097e-14
  outer loop
    vertex 6401.5341796875 17617.3203125 46599.95703125
    vertex 6401.5341796875 17017.3203125 47099.95703125
    vertex 6401.5341796875 17716.5703125 47099.95703125
  endloop
endfacet
facet normal -1 2.464305072936296e-13 -8.33401002289097e-14
  outer loop
    vertex 6401.5341796875 17617.3203125 46599.95703125
    vertex 6401.5341796875 17716.5703125 47099.95703125
    vertex 6401.5341796875 17716.5703125 46599.95703125
  endloop
endfacet
facet normal 7.70060014018692e-15 1 -1.299440562747486e-13
  outer loop
    vertex 20501.658203125 17716.5703125 46999.95703125
    vertex 25001.533203125 17716.5703125 46599.95703125
    vertex 20501.658203125 17716.5703125 46599.95703125
  endloop
endfacet
facet normal 7.70060014018692e-15 1 -1.299440562747486e-13
  outer loop
    vertex 25001.533203125 17716.5703125 46599.95703125
    vertex 20501.658203125 17716.5703125 46999.95703125
    vertex 25001.533203125 17716.5703125 46999.95703125
  endloop
endfacet
facet normal 1 9.872176367326201e-20 9.883453913062112e-07
  outer loop
    vertex 37542.4453125 12416.5947265625 46599.95703125
    vertex 37542.4453125 1026.271240234375 47099.95703125
    vertex 37542.4453125 1026.271240234375 46599.95703125
  endloop
endfacet
facet normal 1 9.872176367326201e-20 9.883453913062112e-07
  outer loop
    vertex 37542.4453125 1026.271240234375 47099.95703125
    vertex 37542.4453125 12416.5947265625 46599.95703125
    vertex 37542.4453125 12416.5947265625 47099.95703125
  endloop
endfacet
facet normal 1.296865853638376e-13 -2.104845838639749e-13 -1
  outer loop
    vertex 24643.197265625 17672.197265625 46599.95703125
    vertex 20501.658203125 17617.3203125 46599.95703125
    vertex 20501.658203125 17672.197265625 46599.95703125
  endloop
endfacet
facet normal 1.296865853638376e-13 -2.104845838639749e-13 -1
  outer loop
    vertex 20501.658203125 17617.3203125 46599.95703125
    vertex 24643.197265625 17672.197265625 46599.95703125
    vertex 24643.197265625 17617.3203125 46599.95703125
  endloop
endfacet
facet normal 3.208583303511951e-16 1 2.057447501214657e-13
  outer loop
    vertex 20501.658203125 14417.3203125 47099.95703125
    vertex 24643.197265625 14417.3203125 46599.95703125
    vertex 20501.658203125 14417.3203125 46599.95703125
  endloop
endfacet
facet normal 3.208583303511951e-16 1 2.057447501214657e-13
  outer loop
    vertex 24643.197265625 14417.3203125 46599.95703125
    vertex 20501.658203125 14417.3203125 47099.95703125
    vertex 24643.197265625 14417.3203125 47099.95703125
  endloop
endfacet
facet normal -9.761355914924327e-15 -1 1.876969716804733e-13
  outer loop
    vertex 24643.197265625 17672.197265625 46599.95703125
    vertex 20501.658203125 17672.197265625 46999.95703125
    vertex 20501.658203125 17672.197265625 46599.95703125
  endloop
endfacet
facet normal -9.761355914924327e-15 -1 1.876969716804733e-13
  outer loop
    vertex 20501.658203125 17672.197265625 46999.95703125
    vertex 24643.197265625 17672.197265625 46599.95703125
    vertex 24643.197265625 17672.197265625 46999.95703125
  endloop
endfacet
facet normal -9.44810026114011e-15 -1.033317176398971e-13 -1
  outer loop
    vertex 25001.533203125 17672.197265625 46599.95703125
    vertex 24643.197265625 17617.3203125 46599.95703125
    vertex 24643.197265625 17672.197265625 46599.95703125
  endloop
endfacet
facet normal -9.44810026114011e-15 -1.033317176398971e-13 -1
  outer loop
    vertex 24643.197265625 17617.3203125 46599.95703125
    vertex 25001.533203125 17672.197265625 46599.95703125
    vertex 24643.197265625 14417.3203125 46599.95703125
  endloop
endfacet
facet normal -9.44810026114011e-15 -1.033317176398971e-13 -1
  outer loop
    vertex 36492.26171875 17716.5703125 46599.95703125
    vertex 36492.26171875 12416.5947265625 46599.95703125
    vertex 25001.533203125 17716.5703125 46599.95703125
  endloop
endfacet
facet normal -9.44810026114011e-15 -1.033317176398971e-13 -1
  outer loop
    vertex 6401.5341796875 17617.3203125 46599.95703125
    vertex 6401.5341796875 12017.3203125 46599.95703125
    vertex 6401.5341796875 17017.3203125 46599.95703125
  endloop
endfacet
facet normal -9.44810026114011e-15 -1.033317176398971e-13 -1
  outer loop
    vertex 6401.5341796875 12017.3203125 46599.95703125
    vertex 6401.5341796875 17617.3203125 46599.95703125
    vertex 20501.658203125 17617.3203125 46599.95703125
  endloop
endfacet
facet normal -9.44810026114011e-15 -1.033317176398971e-13 -1
  outer loop
    vertex 6401.5341796875 12017.3203125 46599.95703125
    vertex 20501.658203125 17617.3203125 46599.95703125
    vertex 8612.5341796875 12017.3203125 46599.95703125
  endloop
endfacet
facet normal -9.44810026114011e-15 -1.033317176398971e-13 -1
  outer loop
    vertex 8612.5341796875 12017.3203125 46599.95703125
    vertex 20501.658203125 17617.3203125 46599.95703125
    vertex 12243.9462890625 4469.71337890625 46599.95703125
  endloop
endfacet
facet normal -9.44810026114011e-15 -1.033317176398971e-13 -1
  outer loop
    vertex 12243.9462890625 4469.71337890625 46599.95703125
    vertex 20501.658203125 17617.3203125 46599.95703125
    vertex 12243.9462890625 1026.271240234375 46599.95703125
  endloop
endfacet
facet normal -9.44810026114011e-15 -1.033317176398971e-13 -1
  outer loop
    vertex 12243.9462890625 1026.271240234375 46599.95703125
    vertex 20501.658203125 17617.3203125 46599.95703125
    vertex 20501.658203125 14417.3203125 46599.95703125
  endloop
endfacet
facet normal -9.44810026114011e-15 -1.033317176398971e-13 -1
  outer loop
    vertex 12243.9462890625 1026.271240234375 46599.95703125
    vertex 20501.658203125 14417.3203125 46599.95703125
    vertex 37542.4453125 1026.271240234375 46599.95703125
  endloop
endfacet
facet normal -9.44810026114011e-15 -1.033317176398971e-13 -1
  outer loop
    vertex 37542.4453125 1026.271240234375 46599.95703125
    vertex 20501.658203125 14417.3203125 46599.95703125
    vertex 24643.197265625 14417.3203125 46599.95703125
  endloop
endfacet
facet normal -9.44810026114011e-15 -1.033317176398971e-13 -1
  outer loop
    vertex 37542.4453125 1026.271240234375 46599.95703125
    vertex 24643.197265625 14417.3203125 46599.95703125
    vertex 25001.533203125 17672.197265625 46599.95703125
  endloop
endfacet
facet normal -9.44810026114011e-15 -1.033317176398971e-13 -1
  outer loop
    vertex 37542.4453125 1026.271240234375 46599.95703125
    vertex 25001.533203125 17672.197265625 46599.95703125
    vertex 25001.533203125 17716.5703125 46599.95703125
  endloop
endfacet
facet normal -9.44810026114011e-15 -1.033317176398971e-13 -1
  outer loop
    vertex 37542.4453125 1026.271240234375 46599.95703125
    vertex 25001.533203125 17716.5703125 46599.95703125
    vertex 36492.26171875 12416.5947265625 46599.95703125
  endloop
endfacet
facet normal -9.44810026114011e-15 -1.033317176398971e-13 -1
  outer loop
    vertex 37542.4453125 1026.271240234375 46599.95703125
    vertex 36492.26171875 12416.5947265625 46599.95703125
    vertex 37542.4453125 12416.5947265625 46599.95703125
  endloop
endfacet
facet normal -9.44810026114011e-15 -1.033317176398971e-13 -1
  outer loop
    vertex 12243.9462890625 4469.71337890625 46599.95703125
    vertex 8612.5341796875 4469.71337890625 46599.95703125
    vertex 8612.5341796875 12017.3203125 46599.95703125
  endloop
endfacet
facet normal -1 -6.507538865413443e-12 7.219114086902401e-13
  outer loop
    vertex 25001.533203125 17672.197265625 46999.95703125
    vertex 25001.533203125 17716.5703125 46599.95703125
    vertex 25001.533203125 17672.197265625 46599.95703125
  endloop
endfacet
facet normal -1 -6.507538865413443e-12 7.219114086902401e-13
  outer loop
    vertex 25001.533203125 17716.5703125 46599.95703125
    vertex 25001.533203125 17672.197265625 46999.95703125
    vertex 25001.533203125 17716.5703125 46999.95703125
  endloop
endfacet
facet normal 3.10727260436662e-14 -3.462992913261242e-12 -1
  outer loop
    vertex 25001.533203125 17716.5703125 46599.95703125
    vertex 20501.658203125 17672.197265625 46599.95703125
    vertex 20501.658203125 17716.5703125 46599.95703125
  endloop
endfacet
facet normal 3.10727260436662e-14 -3.462992913261242e-12 -1
  outer loop
    vertex 20501.658203125 17672.197265625 46599.95703125
    vertex 25001.533203125 17716.5703125 46599.95703125
    vertex 24643.197265625 17672.197265625 46599.95703125
  endloop
endfacet
facet normal 3.10727260436662e-14 -3.462992913261242e-12 -1
  outer loop
    vertex 24643.197265625 17672.197265625 46599.95703125
    vertex 25001.533203125 17716.5703125 46599.95703125
    vertex 25001.533203125 17672.197265625 46599.95703125
  endloop
endfacet
facet normal 1 7.508178569551352e-27 5.775291540572464e-14
  outer loop
    vertex 20501.658203125 17716.5703125 46599.95703125
    vertex 20501.658203125 17672.197265625 46999.95703125
    vertex 20501.658203125 17672.197265625 46599.95703125
  endloop
endfacet
facet normal 1 7.508178569551352e-27 5.775291540572464e-14
  outer loop
    vertex 20501.658203125 17672.197265625 46999.95703125
    vertex 20501.658203125 17716.5703125 46599.95703125
    vertex 20501.658203125 17716.5703125 46999.95703125
  endloop
endfacet
facet normal -1.218559200323472e-16 -1.182105222085131e-13 -1
  outer loop
    vertex 6401.5341796875 17716.5703125 46599.95703125
    vertex 20501.658203125 17617.3203125 46599.95703125
    vertex 6401.5341796875 17617.3203125 46599.95703125
  endloop
endfacet
facet normal -1.218559200323472e-16 -1.182105222085131e-13 -1
  outer loop
    vertex 20501.658203125 17617.3203125 46599.95703125
    vertex 6401.5341796875 17716.5703125 46599.95703125
    vertex 20501.658203125 17716.5703125 46599.95703125
  endloop
endfacet
facet normal -1.218559200323472e-16 -1.182105222085131e-13 -1
  outer loop
    vertex 20501.658203125 17617.3203125 46599.95703125
    vertex 20501.658203125 17716.5703125 46599.95703125
    vertex 20501.658203125 17672.197265625 46599.95703125
  endloop
endfacet
facet normal 3.262683011306174e-28 1 -2.16573422607072e-13
  outer loop
    vertex 25001.533203125 17716.5703125 46999.95703125
    vertex 36492.26171875 17716.5703125 46599.95703125
    vertex 25001.533203125 17716.5703125 46599.95703125
  endloop
endfacet
facet normal 3.262683011306174e-28 1 -2.16573422607072e-13
  outer loop
    vertex 36492.26171875 17716.5703125 46599.95703125
    vertex 25001.533203125 17716.5703125 46999.95703125
    vertex 36492.26171875 17716.5703125 47099.95703125
  endloop
endfacet
facet normal 3.262683011306174e-28 1 -2.16573422607072e-13
  outer loop
    vertex 36492.26171875 17716.5703125 47099.95703125
    vertex 25001.533203125 17716.5703125 46999.95703125
    vertex 25001.533203125 17716.5703125 47099.95703125
  endloop
endfacet
facet normal -1.776663677085393e-15 2.097575992022691e-13 1
  outer loop
    vertex 12243.9462890625 4469.71337890625 47099.95703125
    vertex 8612.5341796875 12017.3203125 47099.95703125
    vertex 8612.5341796875 4469.71337890625 47099.95703125
  endloop
endfacet
facet normal -1.776663677085393e-15 2.097575992022691e-13 1
  outer loop
    vertex 37542.4453125 1026.271240234375 47099.95703125
    vertex 12243.9462890625 4469.71337890625 47099.95703125
    vertex 12243.9462890625 1026.271240234375 47099.95703125
  endloop
endfacet
facet normal -1.776663677085393e-15 2.097575992022691e-13 1
  outer loop
    vertex 12243.9462890625 4469.71337890625 47099.95703125
    vertex 37542.4453125 1026.271240234375 47099.95703125
    vertex 20501.658203125 14417.3203125 47099.95703125
  endloop
endfacet
facet normal -1.776663677085393e-15 2.097575992022691e-13 1
  outer loop
    vertex 12243.9462890625 4469.71337890625 47099.95703125
    vertex 20501.658203125 14417.3203125 47099.95703125
    vertex 20501.658203125 17672.197265625 47099.95703125
  endloop
endfacet
facet normal -1.776663677085393e-15 2.097575992022691e-13 1
  outer loop
    vertex 20501.658203125 14417.3203125 47099.95703125
    vertex 37542.4453125 1026.271240234375 47099.95703125
    vertex 24643.197265625 14417.3203125 47099.95703125
  endloop
endfacet
facet normal -1.776663677085393e-15 2.097575992022691e-13 1
  outer loop
    vertex 24643.197265625 14417.3203125 47099.95703125
    vertex 37542.4453125 1026.271240234375 47099.95703125
    vertex 24643.197265625 17672.197265625 47099.95703125
  endloop
endfacet
facet normal -1.776663677085393e-15 2.097575992022691e-13 1
  outer loop
    vertex 24643.197265625 17672.197265625 47099.95703125
    vertex 37542.4453125 1026.271240234375 47099.95703125
    vertex 25001.533203125 17672.197265625 47099.95703125
  endloop
endfacet
facet normal -1.776663677085393e-15 2.097575992022691e-13 1
  outer loop
    vertex 25001.533203125 17672.197265625 47099.95703125
    vertex 37542.4453125 1026.271240234375 47099.95703125
    vertex 36492.26171875 12416.5947265625 47099.95703125
  endloop
endfacet
facet normal -1.776663677085393e-15 2.097575992022691e-13 1
  outer loop
    vertex 36492.26171875 12416.5947265625 47099.95703125
    vertex 37542.4453125 1026.271240234375 47099.95703125
    vertex 37542.4453125 12416.5947265625 47099.95703125
  endloop
endfacet
facet normal -1.776663677085393e-15 2.097575992022691e-13 1
  outer loop
    vertex 25001.533203125 17672.197265625 47099.95703125
    vertex 36492.26171875 17716.5703125 47099.95703125
    vertex 25001.533203125 17716.5703125 47099.95703125
  endloop
endfacet
facet normal -1.776663677085393e-15 2.097575992022691e-13 1
  outer loop
    vertex 36492.26171875 17716.5703125 47099.95703125
    vertex 25001.533203125 17672.197265625 47099.95703125
    vertex 36492.26171875 12416.5947265625 47099.95703125
  endloop
endfacet
facet normal -1.776663677085393e-15 2.097575992022691e-13 1
  outer loop
    vertex 6401.5341796875 12017.3203125 47099.95703125
    vertex 6401.5341796875 17716.5703125 47099.95703125
    vertex 6401.5341796875 17017.3203125 47099.95703125
  endloop
endfacet
facet normal -1.776663677085393e-15 2.097575992022691e-13 1
  outer loop
    vertex 6401.5341796875 17716.5703125 47099.95703125
    vertex 6401.5341796875 12017.3203125 47099.95703125
    vertex 8612.5341796875 12017.3203125 47099.95703125
  endloop
endfacet
facet normal -1.776663677085393e-15 2.097575992022691e-13 1
  outer loop
    vertex 6401.5341796875 17716.5703125 47099.95703125
    vertex 8612.5341796875 12017.3203125 47099.95703125
    vertex 20501.658203125 17716.5703125 47099.95703125
  endloop
endfacet
facet normal -1.776663677085393e-15 2.097575992022691e-13 1
  outer loop
    vertex 20501.658203125 17716.5703125 47099.95703125
    vertex 8612.5341796875 12017.3203125 47099.95703125
    vertex 12243.9462890625 4469.71337890625 47099.95703125
  endloop
endfacet
facet normal -1.776663677085393e-15 2.097575992022691e-13 1
  outer loop
    vertex 20501.658203125 17716.5703125 47099.95703125
    vertex 12243.9462890625 4469.71337890625 47099.95703125
    vertex 20501.658203125 17672.197265625 47099.95703125
  endloop
endfacet
facet normal -1 -1.353568038903186e-11 -1.052488094270001e-15
  outer loop
    vertex 25001.533203125 17672.197265625 47099.95703125
    vertex 25001.533203125 17716.5703125 46999.95703125
    vertex 25001.533203125 17672.197265625 46999.95703125
  endloop
endfacet
facet normal -1 -1.353568038903186e-11 -1.052488094270001e-15
  outer loop
    vertex 25001.533203125 17716.5703125 46999.95703125
    vertex 25001.533203125 17672.197265625 47099.95703125
    vertex 25001.533203125 17716.5703125 47099.95703125
  endloop
endfacet
facet normal 1 0 0
  outer loop
    vertex 20501.658203125 17716.5703125 46999.95703125
    vertex 20501.658203125 17672.197265625 47099.95703125
    vertex 20501.658203125 17672.197265625 46999.95703125
  endloop
endfacet
facet normal 1 0 0
  outer loop
    vertex 20501.658203125 17672.197265625 47099.95703125
    vertex 20501.658203125 17716.5703125 46999.95703125
    vertex 20501.658203125 17716.5703125 47099.95703125
  endloop
endfacet
facet normal -1 9.811333399911172e-15 1.264140159738802e-12
  outer loop
    vertex 24643.197265625 17672.197265625 47099.95703125
    vertex 24643.197265625 14417.3203125 46599.95703125
    vertex 24643.197265625 14417.3203125 47099.95703125
  endloop
endfacet
facet normal -1 9.811333399911172e-15 1.264140159738802e-12
  outer loop
    vertex 24643.197265625 14417.3203125 46599.95703125
    vertex 24643.197265625 17672.197265625 47099.95703125
    vertex 24643.197265625 17617.3203125 46599.95703125
  endloop
endfacet
facet normal -1 9.811333399911172e-15 1.264140159738802e-12
  outer loop
    vertex 24643.197265625 17617.3203125 46599.95703125
    vertex 24643.197265625 17672.197265625 47099.95703125
    vertex 24643.197265625 17672.197265625 46599.95703125
  endloop
endfacet
facet normal -1 9.811333399911172e-15 1.264140159738802e-12
  outer loop
    vertex 24643.197265625 17672.197265625 46599.95703125
    vertex 24643.197265625 17672.197265625 47099.95703125
    vertex 24643.197265625 17672.197265625 46999.95703125
  endloop
endfacet
facet normal -3.46256196242856e-25 1 -2.310116616228985e-13
  outer loop
    vertex 24643.197265625 17672.197265625 46999.95703125
    vertex 25001.533203125 17672.197265625 47099.95703125
    vertex 25001.533203125 17672.197265625 46999.95703125
  endloop
endfacet
facet normal -3.46256196242856e-25 1 -2.310116616228985e-13
  outer loop
    vertex 25001.533203125 17672.197265625 47099.95703125
    vertex 24643.197265625 17672.197265625 46999.95703125
    vertex 24643.197265625 17672.197265625 47099.95703125
  endloop
endfacet
facet normal 4.32819727613601e-25 -1 2.88764563476096e-13
  outer loop
    vertex 25001.533203125 17672.197265625 46999.95703125
    vertex 24643.197265625 17672.197265625 46599.95703125
    vertex 25001.533203125 17672.197265625 46599.95703125
  endloop
endfacet
facet normal 4.32819727613601e-25 -1 2.88764563476096e-13
  outer loop
    vertex 24643.197265625 17672.197265625 46599.95703125
    vertex 25001.533203125 17672.197265625 46999.95703125
    vertex 24643.197265625 17672.197265625 46999.95703125
  endloop
endfacet
facet normal 1 3.821021529238668e-15 3.112843370654123e-14
  outer loop
    vertex 20501.658203125 14417.3203125 46599.95703125
    vertex 20501.658203125 17672.197265625 47099.95703125
    vertex 20501.658203125 14417.3203125 47099.95703125
  endloop
endfacet
facet normal 1 3.821021529238668e-15 3.112843370654123e-14
  outer loop
    vertex 20501.658203125 17672.197265625 47099.95703125
    vertex 20501.658203125 14417.3203125 46599.95703125
    vertex 20501.658203125 17617.3203125 46599.95703125
  endloop
endfacet
facet normal 1 3.821021529238668e-15 3.112843370654123e-14
  outer loop
    vertex 20501.658203125 17672.197265625 47099.95703125
    vertex 20501.658203125 17617.3203125 46599.95703125
    vertex 20501.658203125 17672.197265625 46999.95703125
  endloop
endfacet
facet normal 1 3.821021529238668e-15 3.112843370654123e-14
  outer loop
    vertex 20501.658203125 17672.197265625 46999.95703125
    vertex 20501.658203125 17617.3203125 46599.95703125
    vertex 20501.658203125 17672.197265625 46599.95703125
  endloop
endfacet
endsolid com.sketchup.SketchUp.2019
