solid com.sketchup.SketchUp.2019
facet normal -2.329448699905923e-12 2.429432286040704e-14 -1
  outer loop
    vertex 37933.8515625 17304.173828125 3950
    vertex 24602.271484375 14039.9853515625 3950
    vertex 24602.271484375 17304.173828125 3950
  endloop
endfacet
facet normal -2.329448699905923e-12 2.429432286040704e-14 -1
  outer loop
    vertex 24602.271484375 14039.9853515625 3950
    vertex 37933.8515625 17304.173828125 3950
    vertex 36433.8515625 11691.0849609375 3950
  endloop
endfacet
facet normal -2.329448699905923e-12 2.429432286040704e-14 -1
  outer loop
    vertex 36433.8515625 11691.0849609375 3950
    vertex 37933.8515625 17304.173828125 3950
    vertex 37933.8515625 11691.0849609375 3950
  endloop
endfacet
facet normal -2.329448699905923e-12 2.429432286040704e-14 -1
  outer loop
    vertex 18802.271484375 17239.998046875 3950
    vertex 6133.521484375 12235.99609375 3950
    vertex 6133.521484375 17239.998046875 3950
  endloop
endfacet
facet normal -2.329448699905923e-12 2.429432286040704e-14 -1
  outer loop
    vertex 6133.521484375 12235.99609375 3950
    vertex 18802.271484375 17239.998046875 3950
    vertex 8448.2783203125 1698.911499023438 3950
  endloop
endfacet
facet normal -2.329448699905923e-12 2.429432286040704e-14 -1
  outer loop
    vertex 6133.521484375 12235.99609375 3950
    vertex 8448.2783203125 1698.911499023438 3950
    vertex 8448.2783203125 -71.12683868408203 3950
  endloop
endfacet
facet normal -2.329448699905923e-12 2.429432286040704e-14 -1
  outer loop
    vertex 8448.2783203125 1698.911499023438 3950
    vertex 18802.271484375 17239.998046875 3950
    vertex 18802.271484375 14039.9853515625 3950
  endloop
endfacet
facet normal -2.329448699905923e-12 2.429432286040704e-14 -1
  outer loop
    vertex 8448.2783203125 1698.911499023438 3950
    vertex 18802.271484375 14039.9853515625 3950
    vertex 36433.8515625 1698.911499023438 3950
  endloop
endfacet
facet normal -2.329448699905923e-12 2.429432286040704e-14 -1
  outer loop
    vertex 36433.8515625 1698.911499023438 3950
    vertex 18802.271484375 14039.9853515625 3950
    vertex 24602.271484375 14039.9853515625 3950
  endloop
endfacet
facet normal -2.329448699905923e-12 2.429432286040704e-14 -1
  outer loop
    vertex 36433.8515625 1698.911499023438 3950
    vertex 24602.271484375 14039.9853515625 3950
    vertex 36433.8515625 11691.0849609375 3950
  endloop
endfacet
facet normal -2.329448699905923e-12 2.429432286040704e-14 -1
  outer loop
    vertex -158.8411407470703 12235.99609375 3950
    vertex 8448.2783203125 -71.12683868408203 3950
    vertex -158.8411407470703 -71.12683868408203 3950
  endloop
endfacet
facet normal -2.329448699905923e-12 2.429432286040704e-14 -1
  outer loop
    vertex 8448.2783203125 -71.12683868408203 3950
    vertex -158.8411407470703 12235.99609375 3950
    vertex 6133.521484375 12235.99609375 3950
  endloop
endfacet
facet normal 2.360805127776811e-12 -1.724211966507971e-14 1
  outer loop
    vertex 8448.2783203125 -71.12683868408203 4500
    vertex -158.8411407470703 12235.99609375 4500
    vertex -158.8411407470703 -71.12683868408203 4500
  endloop
endfacet
facet normal 2.360805127776811e-12 -1.724211966507971e-14 1
  outer loop
    vertex -158.8411407470703 12235.99609375 4500
    vertex 8448.2783203125 -71.12683868408203 4500
    vertex 6133.521484375 12235.99609375 4500
  endloop
endfacet
facet normal 2.360805127776811e-12 -1.724211966507971e-14 1
  outer loop
    vertex 36433.8515625 1698.911499023438 4500
    vertex 18802.271484375 14039.9853515625 4500
    vertex 8448.2783203125 1698.911499023438 4500
  endloop
endfacet
facet normal 2.360805127776811e-12 -1.724211966507971e-14 1
  outer loop
    vertex 18802.271484375 14039.9853515625 4500
    vertex 36433.8515625 1698.911499023438 4500
    vertex 24602.271484375 14039.9853515625 4500
  endloop
endfacet
facet normal 2.360805127776811e-12 -1.724211966507971e-14 1
  outer loop
    vertex 24602.271484375 14039.9853515625 4500
    vertex 36433.8515625 1698.911499023438 4500
    vertex 24602.271484375 17304.173828125 4500
  endloop
endfacet
facet normal 2.360805127776811e-12 -1.724211966507971e-14 1
  outer loop
    vertex 24602.271484375 17304.173828125 4500
    vertex 36433.8515625 1698.911499023438 4500
    vertex 36433.8515625 11691.0849609375 4500
  endloop
endfacet
facet normal 2.360805127776811e-12 -1.724211966507971e-14 1
  outer loop
    vertex 24602.271484375 17304.173828125 4500
    vertex 36433.8515625 11691.0849609375 4500
    vertex 37933.8515625 17304.173828125 4500
  endloop
endfacet
facet normal 2.360805127776811e-12 -1.724211966507971e-14 1
  outer loop
    vertex 37933.8515625 17304.173828125 4500
    vertex 36433.8515625 11691.0849609375 4500
    vertex 37933.8515625 11691.0849609375 4500
  endloop
endfacet
facet normal 2.360805127776811e-12 -1.724211966507971e-14 1
  outer loop
    vertex 6133.521484375 12235.99609375 4500
    vertex 18802.271484375 17239.998046875 4500
    vertex 6133.521484375 17239.998046875 4500
  endloop
endfacet
facet normal 2.360805127776811e-12 -1.724211966507971e-14 1
  outer loop
    vertex 18802.271484375 17239.998046875 4500
    vertex 6133.521484375 12235.99609375 4500
    vertex 8448.2783203125 1698.911499023438 4500
  endloop
endfacet
facet normal 2.360805127776811e-12 -1.724211966507971e-14 1
  outer loop
    vertex 8448.2783203125 1698.911499023438 4500
    vertex 6133.521484375 12235.99609375 4500
    vertex 8448.2783203125 -71.12683868408203 4500
  endloop
endfacet
facet normal 2.360805127776811e-12 -1.724211966507971e-14 1
  outer loop
    vertex 18802.271484375 17239.998046875 4500
    vertex 8448.2783203125 1698.911499023438 4500
    vertex 18802.271484375 14039.9853515625 4500
  endloop
endfacet
facet normal 5.588192669020442e-13 -1 1.235787053200862e-13
  outer loop
    vertex 36433.8515625 1698.911499023438 3950
    vertex 8448.2783203125 1698.911499023438 4500
    vertex 8448.2783203125 1698.911499023438 3950
  endloop
endfacet
facet normal 5.588192669020442e-13 -1 1.235787053200862e-13
  outer loop
    vertex 8448.2783203125 1698.911499023438 4500
    vertex 36433.8515625 1698.911499023438 3950
    vertex 36433.8515625 1698.911499023438 4500
  endloop
endfacet
facet normal -1 0 0
  outer loop
    vertex -158.8411407470703 12235.99609375 4500
    vertex -158.8411407470703 -71.12683868408203 3950
    vertex -158.8411407470703 -71.12683868408203 4500
  endloop
endfacet
facet normal -1 0 0
  outer loop
    vertex -158.8411407470703 -71.12683868408203 3950
    vertex -158.8411407470703 12235.99609375 4500
    vertex -158.8411407470703 12235.99609375 3950
  endloop
endfacet
facet normal -1.816969860159168e-12 -1 1.235787053200862e-13
  outer loop
    vertex 8448.2783203125 -71.12683868408203 4500
    vertex -158.8411407470703 -71.12683868408203 3950
    vertex 8448.2783203125 -71.12683868408203 3950
  endloop
endfacet
facet normal -1.816969860159168e-12 -1 1.235787053200862e-13
  outer loop
    vertex -158.8411407470703 -71.12683868408203 3950
    vertex 8448.2783203125 -71.12683868408203 4500
    vertex -158.8411407470703 -71.12683868408203 4500
  endloop
endfacet
facet normal 1 -1.171196674789645e-17 -3.308643834966694e-16
  outer loop
    vertex 8448.2783203125 1698.911499023438 3950
    vertex 8448.2783203125 -71.12683868408203 4500
    vertex 8448.2783203125 -71.12683868408203 3950
  endloop
endfacet
facet normal 1 -1.171196674789645e-17 -3.308643834966694e-16
  outer loop
    vertex 8448.2783203125 -71.12683868408203 4500
    vertex 8448.2783203125 1698.911499023438 3950
    vertex 8448.2783203125 1698.911499023438 4500
  endloop
endfacet
facet normal 5.960076616268184e-12 1 6.1294751734362e-30
  outer loop
    vertex 24602.271484375 17304.173828125 3950
    vertex 37933.8515625 17304.173828125 4500
    vertex 37933.8515625 17304.173828125 3950
  endloop
endfacet
facet normal 5.960076616268184e-12 1 6.1294751734362e-30
  outer loop
    vertex 37933.8515625 17304.173828125 4500
    vertex 24602.271484375 17304.173828125 3950
    vertex 24602.271484375 17304.173828125 4500
  endloop
endfacet
facet normal -2.082924110968776e-11 1 -8.98754303672953e-15
  outer loop
    vertex -158.8411407470703 12235.99609375 4500
    vertex 6133.521484375 12235.99609375 3950
    vertex -158.8411407470703 12235.99609375 3950
  endloop
endfacet
facet normal -2.082924110968776e-11 1 -8.98754303672953e-15
  outer loop
    vertex 6133.521484375 12235.99609375 3950
    vertex -158.8411407470703 12235.99609375 4500
    vertex 6133.521484375 12235.99609375 4500
  endloop
endfacet
facet normal -1 -1.342627557179157e-16 -5.134102274346769e-16
  outer loop
    vertex 6133.521484375 17239.998046875 4500
    vertex 6133.521484375 12235.99609375 3950
    vertex 6133.521484375 12235.99609375 4500
  endloop
endfacet
facet normal -1 -1.342627557179157e-16 -5.134102274346769e-16
  outer loop
    vertex 6133.521484375 12235.99609375 3950
    vertex 6133.521484375 17239.998046875 4500
    vertex 6133.521484375 17239.998046875 3950
  endloop
endfacet
facet normal 1 0 0
  outer loop
    vertex 18802.271484375 17239.998046875 3950
    vertex 18802.271484375 14039.9853515625 4500
    vertex 18802.271484375 14039.9853515625 3950
  endloop
endfacet
facet normal 1 0 0
  outer loop
    vertex 18802.271484375 14039.9853515625 4500
    vertex 18802.271484375 17239.998046875 3950
    vertex 18802.271484375 17239.998046875 4500
  endloop
endfacet
facet normal 0 1 -1.190835234918643e-14
  outer loop
    vertex 18802.271484375 14039.9853515625 4500
    vertex 24602.271484375 14039.9853515625 3950
    vertex 18802.271484375 14039.9853515625 3950
  endloop
endfacet
facet normal 0 1 -1.190835234918643e-14
  outer loop
    vertex 24602.271484375 14039.9853515625 3950
    vertex 18802.271484375 14039.9853515625 4500
    vertex 24602.271484375 14039.9853515625 4500
  endloop
endfacet
facet normal -1 0 0
  outer loop
    vertex 24602.271484375 17304.173828125 4500
    vertex 24602.271484375 14039.9853515625 3950
    vertex 24602.271484375 14039.9853515625 4500
  endloop
endfacet
facet normal -1 0 0
  outer loop
    vertex 24602.271484375 14039.9853515625 3950
    vertex 24602.271484375 17304.173828125 4500
    vertex 24602.271484375 17304.173828125 3950
  endloop
endfacet
facet normal 4.009408256788749e-12 1 -8.98754303672953e-15
  outer loop
    vertex 6133.521484375 17239.998046875 3950
    vertex 18802.271484375 17239.998046875 4500
    vertex 18802.271484375 17239.998046875 3950
  endloop
endfacet
facet normal 4.009408256788749e-12 1 -8.98754303672953e-15
  outer loop
    vertex 18802.271484375 17239.998046875 4500
    vertex 6133.521484375 17239.998046875 3950
    vertex 6133.521484375 17239.998046875 4500
  endloop
endfacet
facet normal 1 0 0
  outer loop
    vertex 36433.8515625 1698.911499023438 3950
    vertex 36433.8515625 11691.0849609375 4500
    vertex 36433.8515625 1698.911499023438 4500
  endloop
endfacet
facet normal 1 0 0
  outer loop
    vertex 36433.8515625 11691.0849609375 4500
    vertex 36433.8515625 1698.911499023438 3950
    vertex 36433.8515625 11691.0849609375 3950
  endloop
endfacet
facet normal 1 0 0
  outer loop
    vertex 37933.8515625 17304.173828125 3950
    vertex 37933.8515625 11691.0849609375 4500
    vertex 37933.8515625 11691.0849609375 3950
  endloop
endfacet
facet normal 1 0 0
  outer loop
    vertex 37933.8515625 11691.0849609375 4500
    vertex 37933.8515625 17304.173828125 3950
    vertex 37933.8515625 17304.173828125 4500
  endloop
endfacet
facet normal 0 -1 0
  outer loop
    vertex 37933.8515625 11691.0849609375 4500
    vertex 36433.8515625 11691.0849609375 3950
    vertex 37933.8515625 11691.0849609375 3950
  endloop
endfacet
facet normal 0 -1 0
  outer loop
    vertex 36433.8515625 11691.0849609375 3950
    vertex 37933.8515625 11691.0849609375 4500
    vertex 36433.8515625 11691.0849609375 4500
  endloop
endfacet
endsolid com.sketchup.SketchUp.2019
