solid com.sketchup.SketchUp.2019
facet normal 4.008160123247784e-12 3.156900942372608e-14 -1
  outer loop
    vertex 18767.86328125 17246.171875 7450
    vertex 6099.11376953125 12337.7841796875 7450
    vertex 6099.11376953125 17246.171875 7450
  endloop
endfacet
facet normal 4.008160123247784e-12 3.156900942372608e-14 -1
  outer loop
    vertex 6099.11376953125 12337.7841796875 7450
    vertex 18767.86328125 17246.171875 7450
    vertex 7099.4423828125 12337.7841796875 7450
  endloop
endfacet
facet normal 4.008160123247784e-12 3.156900942372608e-14 -1
  outer loop
    vertex 7099.4423828125 12337.7841796875 7450
    vertex 18767.86328125 17246.171875 7450
    vertex 8528.6279296875 11811.0986328125 7450
  endloop
endfacet
facet normal 4.008160123247784e-12 3.156900942372608e-14 -1
  outer loop
    vertex 37999.32421875 17310.349609375 7450
    vertex 24567.86328125 14046.1591796875 7450
    vertex 24567.86328125 17310.349609375 7450
  endloop
endfacet
facet normal 4.008160123247784e-12 3.156900942372608e-14 -1
  outer loop
    vertex 24567.86328125 14046.1591796875 7450
    vertex 37999.32421875 17310.349609375 7450
    vertex 36399.44140625 11656.01171875 7450
  endloop
endfacet
facet normal 4.008160123247784e-12 3.156900942372608e-14 -1
  outer loop
    vertex 36399.44140625 11656.01171875 7450
    vertex 37999.32421875 17310.349609375 7450
    vertex 37999.32421875 11656.01171875 7450
  endloop
endfacet
facet normal 4.008160123247784e-12 3.156900942372608e-14 -1
  outer loop
    vertex 8528.6279296875 11811.0986328125 7450
    vertex 36399.44140625 1705.085571289062 7450
    vertex 8528.6279296875 1705.085571289062 7450
  endloop
endfacet
facet normal 4.008160123247784e-12 3.156900942372608e-14 -1
  outer loop
    vertex 36399.44140625 1705.085571289062 7450
    vertex 8528.6279296875 11811.0986328125 7450
    vertex 18767.86328125 14046.1591796875 7450
  endloop
endfacet
facet normal 4.008160123247784e-12 3.156900942372608e-14 -1
  outer loop
    vertex 18767.86328125 14046.1591796875 7450
    vertex 8528.6279296875 11811.0986328125 7450
    vertex 18767.86328125 17246.171875 7450
  endloop
endfacet
facet normal 4.008160123247784e-12 3.156900942372608e-14 -1
  outer loop
    vertex 36399.44140625 1705.085571289062 7450
    vertex 18767.86328125 14046.1591796875 7450
    vertex 24567.86328125 14046.1591796875 7450
  endloop
endfacet
facet normal 4.008160123247784e-12 3.156900942372608e-14 -1
  outer loop
    vertex 36399.44140625 1705.085571289062 7450
    vertex 24567.86328125 14046.1591796875 7450
    vertex 36399.44140625 11656.01171875 7450
  endloop
endfacet
facet normal 4.008160123247784e-12 3.156900942372608e-14 -1
  outer loop
    vertex 8528.6279296875 11811.0986328125 7450
    vertex 7099.4423828125 11811.0986328125 7450
    vertex 7099.4423828125 12337.7841796875 7450
  endloop
endfacet
facet normal -2.586920478178656e-12 -2.266351677453118e-14 1
  outer loop
    vertex 8528.6279296875 11811.0986328125 8000
    vertex 7099.4423828125 12337.7841796875 8000
    vertex 7099.4423828125 11811.0986328125 8000
  endloop
endfacet
facet normal -2.586920478178656e-12 -2.266351677453118e-14 1
  outer loop
    vertex 36399.44140625 1705.085571289062 8000
    vertex 8528.6279296875 11811.0986328125 8000
    vertex 8528.6279296875 1705.085571289062 8000
  endloop
endfacet
facet normal -2.586920478178656e-12 -2.266351677453118e-14 1
  outer loop
    vertex 8528.6279296875 11811.0986328125 8000
    vertex 36399.44140625 1705.085571289062 8000
    vertex 18767.86328125 14046.1591796875 8000
  endloop
endfacet
facet normal -2.586920478178656e-12 -2.266351677453118e-14 1
  outer loop
    vertex 18767.86328125 14046.1591796875 8000
    vertex 36399.44140625 1705.085571289062 8000
    vertex 24567.86328125 14046.1591796875 8000
  endloop
endfacet
facet normal -2.586920478178656e-12 -2.266351677453118e-14 1
  outer loop
    vertex 24567.86328125 14046.1591796875 8000
    vertex 36399.44140625 1705.085571289062 8000
    vertex 24567.86328125 17310.349609375 8000
  endloop
endfacet
facet normal -2.586920478178656e-12 -2.266351677453118e-14 1
  outer loop
    vertex 24567.86328125 17310.349609375 8000
    vertex 36399.44140625 1705.085571289062 8000
    vertex 36399.44140625 11656.01171875 8000
  endloop
endfacet
facet normal -2.586920478178656e-12 -2.266351677453118e-14 1
  outer loop
    vertex 24567.86328125 17310.349609375 8000
    vertex 36399.44140625 11656.01171875 8000
    vertex 37999.32421875 17310.349609375 8000
  endloop
endfacet
facet normal -2.586920478178656e-12 -2.266351677453118e-14 1
  outer loop
    vertex 37999.32421875 17310.349609375 8000
    vertex 36399.44140625 11656.01171875 8000
    vertex 37999.32421875 11656.01171875 8000
  endloop
endfacet
facet normal -2.586920478178656e-12 -2.266351677453118e-14 1
  outer loop
    vertex 6099.11376953125 12337.7841796875 8000
    vertex 18767.86328125 17246.171875 8000
    vertex 6099.11376953125 17246.171875 8000
  endloop
endfacet
facet normal -2.586920478178656e-12 -2.266351677453118e-14 1
  outer loop
    vertex 18767.86328125 17246.171875 8000
    vertex 6099.11376953125 12337.7841796875 8000
    vertex 7099.4423828125 12337.7841796875 8000
  endloop
endfacet
facet normal -2.586920478178656e-12 -2.266351677453118e-14 1
  outer loop
    vertex 18767.86328125 17246.171875 8000
    vertex 7099.4423828125 12337.7841796875 8000
    vertex 8528.6279296875 11811.0986328125 8000
  endloop
endfacet
facet normal -2.586920478178656e-12 -2.266351677453118e-14 1
  outer loop
    vertex 18767.86328125 17246.171875 8000
    vertex 8528.6279296875 11811.0986328125 8000
    vertex 18767.86328125 14046.1591796875 8000
  endloop
endfacet
facet normal 5.588192669020442e-13 -1 1.235787053200862e-13
  outer loop
    vertex 36399.44140625 1705.085571289062 7450
    vertex 8528.6279296875 1705.085571289062 8000
    vertex 8528.6279296875 1705.085571289062 7450
  endloop
endfacet
facet normal 5.588192669020442e-13 -1 1.235787053200862e-13
  outer loop
    vertex 8528.6279296875 1705.085571289062 8000
    vertex 36399.44140625 1705.085571289062 7450
    vertex 36399.44140625 1705.085571289062 8000
  endloop
endfacet
facet normal -1 1.171196674789645e-17 3.308643834966694e-16
  outer loop
    vertex 8528.6279296875 1705.085571289062 8000
    vertex 8528.6279296875 11811.0986328125 7450
    vertex 8528.6279296875 1705.085571289062 7450
  endloop
endfacet
facet normal -1 1.171196674789645e-17 3.308643834966694e-16
  outer loop
    vertex 8528.6279296875 11811.0986328125 7450
    vertex 8528.6279296875 1705.085571289062 8000
    vertex 8528.6279296875 11811.0986328125 8000
  endloop
endfacet
facet normal 5.960076616268184e-12 1 6.1294751734362e-30
  outer loop
    vertex 24567.86328125 17310.349609375 7450
    vertex 37999.32421875 17310.349609375 8000
    vertex 37999.32421875 17310.349609375 7450
  endloop
endfacet
facet normal 5.960076616268184e-12 1 6.1294751734362e-30
  outer loop
    vertex 37999.32421875 17310.349609375 8000
    vertex 24567.86328125 17310.349609375 7450
    vertex 24567.86328125 17310.349609375 8000
  endloop
endfacet
facet normal -1 -1.342627557179157e-16 -5.134102274346769e-16
  outer loop
    vertex 6099.11376953125 17246.171875 8000
    vertex 6099.11376953125 12337.7841796875 7450
    vertex 6099.11376953125 12337.7841796875 8000
  endloop
endfacet
facet normal -1 -1.342627557179157e-16 -5.134102274346769e-16
  outer loop
    vertex 6099.11376953125 12337.7841796875 7450
    vertex 6099.11376953125 17246.171875 8000
    vertex 6099.11376953125 17246.171875 7450
  endloop
endfacet
facet normal 1 0 0
  outer loop
    vertex 18767.86328125 17246.171875 7450
    vertex 18767.86328125 14046.1591796875 8000
    vertex 18767.86328125 14046.1591796875 7450
  endloop
endfacet
facet normal 1 0 0
  outer loop
    vertex 18767.86328125 14046.1591796875 8000
    vertex 18767.86328125 17246.171875 7450
    vertex 18767.86328125 17246.171875 8000
  endloop
endfacet
facet normal 0 1 -1.190835234918643e-14
  outer loop
    vertex 18767.86328125 14046.1591796875 8000
    vertex 24567.86328125 14046.1591796875 7450
    vertex 18767.86328125 14046.1591796875 7450
  endloop
endfacet
facet normal 0 1 -1.190835234918643e-14
  outer loop
    vertex 24567.86328125 14046.1591796875 7450
    vertex 18767.86328125 14046.1591796875 8000
    vertex 24567.86328125 14046.1591796875 8000
  endloop
endfacet
facet normal -1 0 0
  outer loop
    vertex 24567.86328125 17310.349609375 8000
    vertex 24567.86328125 14046.1591796875 7450
    vertex 24567.86328125 14046.1591796875 8000
  endloop
endfacet
facet normal -1 0 0
  outer loop
    vertex 24567.86328125 14046.1591796875 7450
    vertex 24567.86328125 17310.349609375 8000
    vertex 24567.86328125 17310.349609375 7450
  endloop
endfacet
facet normal 4.009408256788749e-12 1 -8.98754303672953e-15
  outer loop
    vertex 6099.11376953125 17246.171875 7450
    vertex 18767.86328125 17246.171875 8000
    vertex 18767.86328125 17246.171875 7450
  endloop
endfacet
facet normal 4.009408256788749e-12 1 -8.98754303672953e-15
  outer loop
    vertex 18767.86328125 17246.171875 8000
    vertex 6099.11376953125 17246.171875 7450
    vertex 6099.11376953125 17246.171875 8000
  endloop
endfacet
facet normal -3.410997612834921e-12 -1 3.595017214691812e-14
  outer loop
    vertex 7099.4423828125 12337.7841796875 8000
    vertex 6099.11376953125 12337.7841796875 7450
    vertex 7099.4423828125 12337.7841796875 7450
  endloop
endfacet
facet normal -3.410997612834921e-12 -1 3.595017214691812e-14
  outer loop
    vertex 6099.11376953125 12337.7841796875 7450
    vertex 7099.4423828125 12337.7841796875 8000
    vertex 6099.11376953125 12337.7841796875 8000
  endloop
endfacet
facet normal -8.754004465760801e-12 -1 1.438006885876725e-13
  outer loop
    vertex 8528.6279296875 11811.0986328125 8000
    vertex 7099.4423828125 11811.0986328125 7450
    vertex 8528.6279296875 11811.0986328125 7450
  endloop
endfacet
facet normal -8.754004465760801e-12 -1 1.438006885876725e-13
  outer loop
    vertex 7099.4423828125 11811.0986328125 7450
    vertex 8528.6279296875 11811.0986328125 8000
    vertex 7099.4423828125 11811.0986328125 8000
  endloop
endfacet
facet normal -1 5.642724383349295e-17 -3.042853643487712e-30
  outer loop
    vertex 7099.4423828125 11811.0986328125 8000
    vertex 7099.4423828125 12337.7841796875 7450
    vertex 7099.4423828125 11811.0986328125 7450
  endloop
endfacet
facet normal -1 5.642724383349295e-17 -3.042853643487712e-30
  outer loop
    vertex 7099.4423828125 12337.7841796875 7450
    vertex 7099.4423828125 11811.0986328125 8000
    vertex 7099.4423828125 12337.7841796875 8000
  endloop
endfacet
facet normal 1 0 0
  outer loop
    vertex 36399.44140625 1705.085571289062 7450
    vertex 36399.44140625 11656.01171875 8000
    vertex 36399.44140625 1705.085571289062 8000
  endloop
endfacet
facet normal 1 0 0
  outer loop
    vertex 36399.44140625 11656.01171875 8000
    vertex 36399.44140625 1705.085571289062 7450
    vertex 36399.44140625 11656.01171875 7450
  endloop
endfacet
facet normal 1 0 0
  outer loop
    vertex 37999.32421875 17310.349609375 7450
    vertex 37999.32421875 11656.01171875 8000
    vertex 37999.32421875 11656.01171875 7450
  endloop
endfacet
facet normal 1 0 0
  outer loop
    vertex 37999.32421875 11656.01171875 8000
    vertex 37999.32421875 17310.349609375 7450
    vertex 37999.32421875 17310.349609375 8000
  endloop
endfacet
facet normal 0 -1 0
  outer loop
    vertex 37999.32421875 11656.01171875 8000
    vertex 36399.44140625 11656.01171875 7450
    vertex 37999.32421875 11656.01171875 7450
  endloop
endfacet
facet normal 0 -1 0
  outer loop
    vertex 36399.44140625 11656.01171875 7450
    vertex 37999.32421875 11656.01171875 8000
    vertex 36399.44140625 11656.01171875 8000
  endloop
endfacet
endsolid com.sketchup.SketchUp.2019
