solid com.sketchup.SketchUp.2019
facet normal -1.743696307745309e-15 -1 9.384848584023664e-14
  outer loop
    vertex 37500 724.1080932617188 17949.986328125
    vertex 12659.2724609375 724.1080932617188 18499.986328125
    vertex 12659.2724609375 724.1080932617188 17949.986328125
  endloop
endfacet
facet normal -1.743696307745309e-15 -1 9.384848584023664e-14
  outer loop
    vertex 12659.2724609375 724.1080932617188 18499.986328125
    vertex 37500 724.1080932617188 17949.986328125
    vertex 37500 724.1080932617188 18499.986328125
  endloop
endfacet
facet normal -1.292975736243498e-13 -1 -2.887645770286232e-14
  outer loop
    vertex 8620.2724609375 11715.1572265625 17949.986328125
    vertex 6409.27294921875 11715.1572265625 18499.986328125
    vertex 6409.27294921875 11715.1572265625 17949.986328125
  endloop
endfacet
facet normal -1.292975736243498e-13 -1 -2.887645770286232e-14
  outer loop
    vertex 6409.27294921875 11715.1572265625 18499.986328125
    vertex 8620.2724609375 11715.1572265625 17949.986328125
    vertex 8620.2724609375 11715.1572265625 18499.986328125
  endloop
endfacet
facet normal -1 -4.389221394652219e-14 -4.908997470673415e-13
  outer loop
    vertex 6409.27294921875 11715.1572265625 18499.986328125
    vertex 6409.27294921875 16715.15625 17949.986328125
    vertex 6409.27294921875 11715.1572265625 17949.986328125
  endloop
endfacet
facet normal -1 -4.389221394652219e-14 -4.908997470673415e-13
  outer loop
    vertex 6409.27294921875 16715.15625 17949.986328125
    vertex 6409.27294921875 11715.1572265625 18499.986328125
    vertex 6409.27294921875 16715.15625 18499.986328125
  endloop
endfacet
facet normal -1 2.857475141393725e-26 -1.155058308114493e-13
  outer loop
    vertex 12659.2724609375 724.1080932617188 18499.986328125
    vertex 12659.2724609375 4167.55029296875 17949.986328125
    vertex 12659.2724609375 724.1080932617188 17949.986328125
  endloop
endfacet
facet normal -1 2.857475141393725e-26 -1.155058308114493e-13
  outer loop
    vertex 12659.2724609375 4167.55029296875 17949.986328125
    vertex 12659.2724609375 724.1080932617188 18499.986328125
    vertex 12659.2724609375 4167.55029296875 18499.986328125
  endloop
endfacet
facet normal -3.234851012816169e-15 1 -1.085726357452112e-13
  outer loop
    vertex 6409.27294921875 17414.40625 17949.986328125
    vertex 20509.396484375 17414.40625 18349.986328125
    vertex 20509.396484375 17414.40625 17949.986328125
  endloop
endfacet
facet normal -3.234851012816169e-15 1 -1.085726357452112e-13
  outer loop
    vertex 20509.396484375 17414.40625 18349.986328125
    vertex 6409.27294921875 17414.40625 17949.986328125
    vertex 6409.27294921875 17414.40625 18499.986328125
  endloop
endfacet
facet normal -3.234851012816169e-15 1 -1.085726357452112e-13
  outer loop
    vertex 20509.396484375 17414.40625 18349.986328125
    vertex 6409.27294921875 17414.40625 18499.986328125
    vertex 20509.396484375 17414.40625 18499.986328125
  endloop
endfacet
facet normal -2.691199348060173e-14 -1.737106118671061e-11 1
  outer loop
    vertex 25009.271484375 17370.033203125 18349.986328125
    vertex 20509.396484375 17414.40625 18349.986328125
    vertex 20509.396484375 17370.033203125 18349.986328125
  endloop
endfacet
facet normal -2.691199348060173e-14 -1.737106118671061e-11 1
  outer loop
    vertex 20509.396484375 17414.40625 18349.986328125
    vertex 25009.271484375 17370.033203125 18349.986328125
    vertex 25009.271484375 17414.40625 18349.986328125
  endloop
endfacet
facet normal -1 1.545667212927634e-13 -6.064056049838451e-13
  outer loop
    vertex 8620.2724609375 4167.55029296875 18499.986328125
    vertex 8620.2724609375 11715.1572265625 17949.986328125
    vertex 8620.2724609375 4167.55029296875 17949.986328125
  endloop
endfacet
facet normal -1 1.545667212927634e-13 -6.064056049838451e-13
  outer loop
    vertex 8620.2724609375 11715.1572265625 17949.986328125
    vertex 8620.2724609375 4167.55029296875 18499.986328125
    vertex 8620.2724609375 11715.1572265625 18499.986328125
  endloop
endfacet
facet normal 8.722277051011543e-14 -1 5.775291540572464e-14
  outer loop
    vertex 12659.2724609375 4167.55029296875 18499.986328125
    vertex 8620.2724609375 4167.55029296875 17949.986328125
    vertex 12659.2724609375 4167.55029296875 17949.986328125
  endloop
endfacet
facet normal 8.722277051011543e-14 -1 5.775291540572464e-14
  outer loop
    vertex 8620.2724609375 4167.55029296875 17949.986328125
    vertex 12659.2724609375 4167.55029296875 18499.986328125
    vertex 8620.2724609375 4167.55029296875 18499.986328125
  endloop
endfacet
facet normal 1 -2.179365163066716e-15 2.887645770286232e-14
  outer loop
    vertex 36500 17414.40625 17949.986328125
    vertex 36500 12114.431640625 18499.986328125
    vertex 36500 12114.431640625 17949.986328125
  endloop
endfacet
facet normal 1 -2.179365163066716e-15 2.887645770286232e-14
  outer loop
    vertex 36500 12114.431640625 18499.986328125
    vertex 36500 17414.40625 17949.986328125
    vertex 36500 17414.40625 18499.986328125
  endloop
endfacet
facet normal 5.775291286462579e-15 1 -5.680601370828942e-31
  outer loop
    vertex 36500 12114.431640625 18499.986328125
    vertex 37500 12114.431640625 17949.986328125
    vertex 36500 12114.431640625 17949.986328125
  endloop
endfacet
facet normal 5.775291286462579e-15 1 -5.680601370828942e-31
  outer loop
    vertex 37500 12114.431640625 17949.986328125
    vertex 36500 12114.431640625 18499.986328125
    vertex 37500 12114.431640625 18499.986328125
  endloop
endfacet
facet normal -1 2.464305072936296e-13 -8.33401002289097e-14
  outer loop
    vertex 6409.27294921875 16715.15625 18499.986328125
    vertex 6409.27294921875 17315.15625 17949.986328125
    vertex 6409.27294921875 16715.15625 17949.986328125
  endloop
endfacet
facet normal -1 2.464305072936296e-13 -8.33401002289097e-14
  outer loop
    vertex 6409.27294921875 17315.15625 17949.986328125
    vertex 6409.27294921875 16715.15625 18499.986328125
    vertex 6409.27294921875 17414.40625 18499.986328125
  endloop
endfacet
facet normal -1 2.464305072936296e-13 -8.33401002289097e-14
  outer loop
    vertex 6409.27294921875 17315.15625 17949.986328125
    vertex 6409.27294921875 17414.40625 18499.986328125
    vertex 6409.27294921875 17414.40625 17949.986328125
  endloop
endfacet
facet normal 3.262683011306174e-28 1 -2.16573422607072e-13
  outer loop
    vertex 25009.271484375 17414.40625 18349.986328125
    vertex 36500 17414.40625 17949.986328125
    vertex 25009.271484375 17414.40625 17949.986328125
  endloop
endfacet
facet normal 3.262683011306174e-28 1 -2.16573422607072e-13
  outer loop
    vertex 36500 17414.40625 17949.986328125
    vertex 25009.271484375 17414.40625 18349.986328125
    vertex 36500 17414.40625 18499.986328125
  endloop
endfacet
facet normal 3.262683011306174e-28 1 -2.16573422607072e-13
  outer loop
    vertex 36500 17414.40625 18499.986328125
    vertex 25009.271484375 17414.40625 18349.986328125
    vertex 25009.271484375 17414.40625 18499.986328125
  endloop
endfacet
facet normal 1 9.12575430270552e-17 1.796339655478009e-28
  outer loop
    vertex 20509.396484375 14115.1572265625 17949.986328125
    vertex 20509.396484375 17370.033203125 18499.986328125
    vertex 20509.396484375 14115.1572265625 18499.986328125
  endloop
endfacet
facet normal 1 9.12575430270552e-17 1.796339655478009e-28
  outer loop
    vertex 20509.396484375 17370.033203125 18499.986328125
    vertex 20509.396484375 14115.1572265625 17949.986328125
    vertex 20509.396484375 17315.15625 17949.986328125
  endloop
endfacet
facet normal 1 9.12575430270552e-17 1.796339655478009e-28
  outer loop
    vertex 20509.396484375 17370.033203125 18499.986328125
    vertex 20509.396484375 17315.15625 17949.986328125
    vertex 20509.396484375 17370.033203125 18349.986328125
  endloop
endfacet
facet normal 1 9.12575430270552e-17 1.796339655478009e-28
  outer loop
    vertex 20509.396484375 17370.033203125 18349.986328125
    vertex 20509.396484375 17315.15625 17949.986328125
    vertex 20509.396484375 17370.033203125 17949.986328125
  endloop
endfacet
facet normal 7.70060014018692e-15 1 -1.299440562747486e-13
  outer loop
    vertex 20509.396484375 17414.40625 18349.986328125
    vertex 25009.271484375 17414.40625 17949.986328125
    vertex 20509.396484375 17414.40625 17949.986328125
  endloop
endfacet
facet normal 7.70060014018692e-15 1 -1.299440562747486e-13
  outer loop
    vertex 25009.271484375 17414.40625 17949.986328125
    vertex 20509.396484375 17414.40625 18349.986328125
    vertex 25009.271484375 17414.40625 18349.986328125
  endloop
endfacet
facet normal 1 0 0
  outer loop
    vertex 37500 12114.431640625 17949.986328125
    vertex 37500 724.1080932617188 18499.986328125
    vertex 37500 724.1080932617188 17949.986328125
  endloop
endfacet
facet normal 1 0 0
  outer loop
    vertex 37500 724.1080932617188 18499.986328125
    vertex 37500 12114.431640625 17949.986328125
    vertex 37500 12114.431640625 18499.986328125
  endloop
endfacet
facet normal -1.95857272360765e-27 -1.052422919319874e-13 -1
  outer loop
    vertex 25009.271484375 17370.033203125 17949.986328125
    vertex 20509.396484375 17315.15625 17949.986328125
    vertex 20509.396484375 17370.033203125 17949.986328125
  endloop
endfacet
facet normal -1.95857272360765e-27 -1.052422919319874e-13 -1
  outer loop
    vertex 20509.396484375 17315.15625 17949.986328125
    vertex 25009.271484375 17370.033203125 17949.986328125
    vertex 25009.271484375 17315.15625 17949.986328125
  endloop
endfacet
facet normal 3.208583303511951e-16 1 2.057447501214657e-13
  outer loop
    vertex 20509.396484375 14115.1572265625 18499.986328125
    vertex 25009.271484375 14115.1572265625 17949.986328125
    vertex 20509.396484375 14115.1572265625 17949.986328125
  endloop
endfacet
facet normal 3.208583303511951e-16 1 2.057447501214657e-13
  outer loop
    vertex 25009.271484375 14115.1572265625 17949.986328125
    vertex 20509.396484375 14115.1572265625 18499.986328125
    vertex 25009.271484375 14115.1572265625 18499.986328125
  endloop
endfacet
facet normal -1 1.916355021890599e-25 1.501575773443786e-12
  outer loop
    vertex 25009.271484375 17370.033203125 18499.986328125
    vertex 25009.271484375 14115.1572265625 17949.986328125
    vertex 25009.271484375 14115.1572265625 18499.986328125
  endloop
endfacet
facet normal -1 1.916355021890599e-25 1.501575773443786e-12
  outer loop
    vertex 25009.271484375 14115.1572265625 17949.986328125
    vertex 25009.271484375 17370.033203125 18499.986328125
    vertex 25009.271484375 17315.15625 17949.986328125
  endloop
endfacet
facet normal -1 1.916355021890599e-25 1.501575773443786e-12
  outer loop
    vertex 25009.271484375 17315.15625 17949.986328125
    vertex 25009.271484375 17370.033203125 18499.986328125
    vertex 25009.271484375 17370.033203125 17949.986328125
  endloop
endfacet
facet normal -1 1.916355021890599e-25 1.501575773443786e-12
  outer loop
    vertex 25009.271484375 17370.033203125 17949.986328125
    vertex 25009.271484375 17370.033203125 18499.986328125
    vertex 25009.271484375 17370.033203125 18349.986328125
  endloop
endfacet
facet normal -8.984033779229055e-15 -1 1.8047785217256e-13
  outer loop
    vertex 25009.271484375 17370.033203125 18349.986328125
    vertex 20509.396484375 17370.033203125 17949.986328125
    vertex 25009.271484375 17370.033203125 17949.986328125
  endloop
endfacet
facet normal -8.984033779229055e-15 -1 1.8047785217256e-13
  outer loop
    vertex 20509.396484375 17370.033203125 17949.986328125
    vertex 25009.271484375 17370.033203125 18349.986328125
    vertex 20509.396484375 17370.033203125 18349.986328125
  endloop
endfacet
facet normal 1.254724389031193e-14 -1.71439170368673e-13 -1
  outer loop
    vertex 25009.271484375 17414.40625 17949.986328125
    vertex 25009.271484375 17315.15625 17949.986328125
    vertex 25009.271484375 17370.033203125 17949.986328125
  endloop
endfacet
facet normal 1.254724389031193e-14 -1.71439170368673e-13 -1
  outer loop
    vertex 25009.271484375 17315.15625 17949.986328125
    vertex 25009.271484375 17414.40625 17949.986328125
    vertex 25009.271484375 14115.1572265625 17949.986328125
  endloop
endfacet
facet normal 1.254724389031193e-14 -1.71439170368673e-13 -1
  outer loop
    vertex 36500 17414.40625 17949.986328125
    vertex 36500 12114.431640625 17949.986328125
    vertex 25009.271484375 17414.40625 17949.986328125
  endloop
endfacet
facet normal 1.254724389031193e-14 -1.71439170368673e-13 -1
  outer loop
    vertex 6409.27294921875 17315.15625 17949.986328125
    vertex 6409.27294921875 11715.1572265625 17949.986328125
    vertex 6409.27294921875 16715.15625 17949.986328125
  endloop
endfacet
facet normal 1.254724389031193e-14 -1.71439170368673e-13 -1
  outer loop
    vertex 6409.27294921875 11715.1572265625 17949.986328125
    vertex 6409.27294921875 17315.15625 17949.986328125
    vertex 20509.396484375 17315.15625 17949.986328125
  endloop
endfacet
facet normal 1.254724389031193e-14 -1.71439170368673e-13 -1
  outer loop
    vertex 6409.27294921875 11715.1572265625 17949.986328125
    vertex 20509.396484375 17315.15625 17949.986328125
    vertex 8620.2724609375 11715.1572265625 17949.986328125
  endloop
endfacet
facet normal 1.254724389031193e-14 -1.71439170368673e-13 -1
  outer loop
    vertex 8620.2724609375 11715.1572265625 17949.986328125
    vertex 20509.396484375 17315.15625 17949.986328125
    vertex 12659.2724609375 4167.55029296875 17949.986328125
  endloop
endfacet
facet normal 1.254724389031193e-14 -1.71439170368673e-13 -1
  outer loop
    vertex 12659.2724609375 4167.55029296875 17949.986328125
    vertex 20509.396484375 17315.15625 17949.986328125
    vertex 12659.2724609375 724.1080932617188 17949.986328125
  endloop
endfacet
facet normal 1.254724389031193e-14 -1.71439170368673e-13 -1
  outer loop
    vertex 12659.2724609375 724.1080932617188 17949.986328125
    vertex 20509.396484375 17315.15625 17949.986328125
    vertex 20509.396484375 14115.1572265625 17949.986328125
  endloop
endfacet
facet normal 1.254724389031193e-14 -1.71439170368673e-13 -1
  outer loop
    vertex 12659.2724609375 724.1080932617188 17949.986328125
    vertex 20509.396484375 14115.1572265625 17949.986328125
    vertex 37500 724.1080932617188 17949.986328125
  endloop
endfacet
facet normal 1.254724389031193e-14 -1.71439170368673e-13 -1
  outer loop
    vertex 37500 724.1080932617188 17949.986328125
    vertex 20509.396484375 14115.1572265625 17949.986328125
    vertex 25009.271484375 14115.1572265625 17949.986328125
  endloop
endfacet
facet normal 1.254724389031193e-14 -1.71439170368673e-13 -1
  outer loop
    vertex 37500 724.1080932617188 17949.986328125
    vertex 25009.271484375 14115.1572265625 17949.986328125
    vertex 25009.271484375 17414.40625 17949.986328125
  endloop
endfacet
facet normal 1.254724389031193e-14 -1.71439170368673e-13 -1
  outer loop
    vertex 37500 724.1080932617188 17949.986328125
    vertex 25009.271484375 17414.40625 17949.986328125
    vertex 36500 12114.431640625 17949.986328125
  endloop
endfacet
facet normal 1.254724389031193e-14 -1.71439170368673e-13 -1
  outer loop
    vertex 37500 724.1080932617188 17949.986328125
    vertex 36500 12114.431640625 17949.986328125
    vertex 37500 12114.431640625 17949.986328125
  endloop
endfacet
facet normal 1.254724389031193e-14 -1.71439170368673e-13 -1
  outer loop
    vertex 12659.2724609375 4167.55029296875 17949.986328125
    vertex 8620.2724609375 4167.55029296875 17949.986328125
    vertex 8620.2724609375 11715.1572265625 17949.986328125
  endloop
endfacet
facet normal -1 -6.507538865413443e-12 7.219114086902401e-13
  outer loop
    vertex 25009.271484375 17370.033203125 18349.986328125
    vertex 25009.271484375 17414.40625 17949.986328125
    vertex 25009.271484375 17370.033203125 17949.986328125
  endloop
endfacet
facet normal -1 -6.507538865413443e-12 7.219114086902401e-13
  outer loop
    vertex 25009.271484375 17414.40625 17949.986328125
    vertex 25009.271484375 17370.033203125 18349.986328125
    vertex 25009.271484375 17414.40625 18349.986328125
  endloop
endfacet
facet normal 1.28343332140478e-15 1.659631919125604e-26 -1
  outer loop
    vertex 25009.271484375 17414.40625 17949.986328125
    vertex 20509.396484375 17370.033203125 17949.986328125
    vertex 20509.396484375 17414.40625 17949.986328125
  endloop
endfacet
facet normal 1.28343332140478e-15 1.659631919125604e-26 -1
  outer loop
    vertex 20509.396484375 17370.033203125 17949.986328125
    vertex 25009.271484375 17414.40625 17949.986328125
    vertex 25009.271484375 17370.033203125 17949.986328125
  endloop
endfacet
facet normal 1 7.52498577499003e-27 5.775291540572464e-14
  outer loop
    vertex 20509.396484375 17414.40625 17949.986328125
    vertex 20509.396484375 17370.033203125 18349.986328125
    vertex 20509.396484375 17370.033203125 17949.986328125
  endloop
endfacet
facet normal 1 7.52498577499003e-27 5.775291540572464e-14
  outer loop
    vertex 20509.396484375 17370.033203125 18349.986328125
    vertex 20509.396484375 17414.40625 17949.986328125
    vertex 20509.396484375 17414.40625 18349.986328125
  endloop
endfacet
facet normal -8.978014551347629e-17 -1.016416497408995e-13 -1
  outer loop
    vertex 6409.27294921875 17414.40625 17949.986328125
    vertex 20509.396484375 17315.15625 17949.986328125
    vertex 6409.27294921875 17315.15625 17949.986328125
  endloop
endfacet
facet normal -8.978014551347629e-17 -1.016416497408995e-13 -1
  outer loop
    vertex 20509.396484375 17315.15625 17949.986328125
    vertex 6409.27294921875 17414.40625 17949.986328125
    vertex 20509.396484375 17414.40625 17949.986328125
  endloop
endfacet
facet normal -8.978014551347629e-17 -1.016416497408995e-13 -1
  outer loop
    vertex 20509.396484375 17315.15625 17949.986328125
    vertex 20509.396484375 17414.40625 17949.986328125
    vertex 20509.396484375 17370.033203125 17949.986328125
  endloop
endfacet
facet normal -1.052488094270001e-15 2.142049965138046e-13 1
  outer loop
    vertex 12659.2724609375 4167.55029296875 18499.986328125
    vertex 8620.2724609375 11715.1572265625 18499.986328125
    vertex 8620.2724609375 4167.55029296875 18499.986328125
  endloop
endfacet
facet normal -1.052488094270001e-15 2.142049965138046e-13 1
  outer loop
    vertex 37500 724.1080932617188 18499.986328125
    vertex 12659.2724609375 4167.55029296875 18499.986328125
    vertex 12659.2724609375 724.1080932617188 18499.986328125
  endloop
endfacet
facet normal -1.052488094270001e-15 2.142049965138046e-13 1
  outer loop
    vertex 12659.2724609375 4167.55029296875 18499.986328125
    vertex 37500 724.1080932617188 18499.986328125
    vertex 20509.396484375 14115.1572265625 18499.986328125
  endloop
endfacet
facet normal -1.052488094270001e-15 2.142049965138046e-13 1
  outer loop
    vertex 12659.2724609375 4167.55029296875 18499.986328125
    vertex 20509.396484375 14115.1572265625 18499.986328125
    vertex 20509.396484375 17370.033203125 18499.986328125
  endloop
endfacet
facet normal -1.052488094270001e-15 2.142049965138046e-13 1
  outer loop
    vertex 20509.396484375 14115.1572265625 18499.986328125
    vertex 37500 724.1080932617188 18499.986328125
    vertex 25009.271484375 14115.1572265625 18499.986328125
  endloop
endfacet
facet normal -1.052488094270001e-15 2.142049965138046e-13 1
  outer loop
    vertex 25009.271484375 14115.1572265625 18499.986328125
    vertex 37500 724.1080932617188 18499.986328125
    vertex 25009.271484375 17370.033203125 18499.986328125
  endloop
endfacet
facet normal -1.052488094270001e-15 2.142049965138046e-13 1
  outer loop
    vertex 25009.271484375 17370.033203125 18499.986328125
    vertex 37500 724.1080932617188 18499.986328125
    vertex 36500 12114.431640625 18499.986328125
  endloop
endfacet
facet normal -1.052488094270001e-15 2.142049965138046e-13 1
  outer loop
    vertex 36500 12114.431640625 18499.986328125
    vertex 37500 724.1080932617188 18499.986328125
    vertex 37500 12114.431640625 18499.986328125
  endloop
endfacet
facet normal -1.052488094270001e-15 2.142049965138046e-13 1
  outer loop
    vertex 25009.271484375 17370.033203125 18499.986328125
    vertex 36500 17414.40625 18499.986328125
    vertex 25009.271484375 17414.40625 18499.986328125
  endloop
endfacet
facet normal -1.052488094270001e-15 2.142049965138046e-13 1
  outer loop
    vertex 36500 17414.40625 18499.986328125
    vertex 25009.271484375 17370.033203125 18499.986328125
    vertex 36500 12114.431640625 18499.986328125
  endloop
endfacet
facet normal -1.052488094270001e-15 2.142049965138046e-13 1
  outer loop
    vertex 6409.27294921875 11715.1572265625 18499.986328125
    vertex 6409.27294921875 17414.40625 18499.986328125
    vertex 6409.27294921875 16715.15625 18499.986328125
  endloop
endfacet
facet normal -1.052488094270001e-15 2.142049965138046e-13 1
  outer loop
    vertex 6409.27294921875 17414.40625 18499.986328125
    vertex 6409.27294921875 11715.1572265625 18499.986328125
    vertex 8620.2724609375 11715.1572265625 18499.986328125
  endloop
endfacet
facet normal -1.052488094270001e-15 2.142049965138046e-13 1
  outer loop
    vertex 6409.27294921875 17414.40625 18499.986328125
    vertex 8620.2724609375 11715.1572265625 18499.986328125
    vertex 20509.396484375 17414.40625 18499.986328125
  endloop
endfacet
facet normal -1.052488094270001e-15 2.142049965138046e-13 1
  outer loop
    vertex 20509.396484375 17414.40625 18499.986328125
    vertex 8620.2724609375 11715.1572265625 18499.986328125
    vertex 12659.2724609375 4167.55029296875 18499.986328125
  endloop
endfacet
facet normal -1.052488094270001e-15 2.142049965138046e-13 1
  outer loop
    vertex 20509.396484375 17414.40625 18499.986328125
    vertex 12659.2724609375 4167.55029296875 18499.986328125
    vertex 20509.396484375 17370.033203125 18499.986328125
  endloop
endfacet
facet normal -1 -1.353568038903186e-11 -1.052488094270001e-15
  outer loop
    vertex 25009.271484375 17370.033203125 18499.986328125
    vertex 25009.271484375 17414.40625 18349.986328125
    vertex 25009.271484375 17370.033203125 18349.986328125
  endloop
endfacet
facet normal -1 -1.353568038903186e-11 -1.052488094270001e-15
  outer loop
    vertex 25009.271484375 17414.40625 18349.986328125
    vertex 25009.271484375 17370.033203125 18499.986328125
    vertex 25009.271484375 17414.40625 18499.986328125
  endloop
endfacet
facet normal 1 1.369821404434689e-28 1.052488094270001e-15
  outer loop
    vertex 20509.396484375 17414.40625 18349.986328125
    vertex 20509.396484375 17370.033203125 18499.986328125
    vertex 20509.396484375 17370.033203125 18349.986328125
  endloop
endfacet
facet normal 1 1.369821404434689e-28 1.052488094270001e-15
  outer loop
    vertex 20509.396484375 17370.033203125 18499.986328125
    vertex 20509.396484375 17414.40625 18349.986328125
    vertex 20509.396484375 17414.40625 18499.986328125
  endloop
endfacet
endsolid com.sketchup.SketchUp.2019
