solid com.sketchup.SketchUp.2019
facet normal -1.052488094270001e-15 2.142049965138046e-13 1
  outer loop
    vertex 12627.7587890625 4347.2099609375 35449.984375
    vertex 8588.7587890625 11894.81640625 35449.984375
    vertex 8588.7587890625 4347.2099609375 35449.984375
  endloop
endfacet
facet normal -1.052488094270001e-15 2.142049965138046e-13 1
  outer loop
    vertex 6377.75927734375 11894.81640625 35449.984375
    vertex 6377.75927734375 17594.06640625 35449.984375
    vertex 6377.75927734375 16894.81640625 35449.984375
  endloop
endfacet
facet normal -1.052488094270001e-15 2.142049965138046e-13 1
  outer loop
    vertex 6377.75927734375 17594.06640625 35449.984375
    vertex 6377.75927734375 11894.81640625 35449.984375
    vertex 8588.7587890625 11894.81640625 35449.984375
  endloop
endfacet
facet normal -1.052488094270001e-15 2.142049965138046e-13 1
  outer loop
    vertex 6377.75927734375 17594.06640625 35449.984375
    vertex 8588.7587890625 11894.81640625 35449.984375
    vertex 18677.759765625 17594.06640625 35449.984375
  endloop
endfacet
facet normal -1.052488094270001e-15 2.142049965138046e-13 1
  outer loop
    vertex 18677.759765625 17594.06640625 35449.984375
    vertex 8588.7587890625 11894.81640625 35449.984375
    vertex 12627.7587890625 4347.2099609375 35449.984375
  endloop
endfacet
facet normal -1.052488094270001e-15 2.142049965138046e-13 1
  outer loop
    vertex 37518.671875 903.7677612304688 35449.984375
    vertex 12627.7587890625 4347.2099609375 35449.984375
    vertex 12627.7587890625 903.7677612304688 35449.984375
  endloop
endfacet
facet normal -1.052488094270001e-15 2.142049965138046e-13 1
  outer loop
    vertex 12627.7587890625 4347.2099609375 35449.984375
    vertex 37518.671875 903.7677612304688 35449.984375
    vertex 20477.8828125 14294.81640625 35449.984375
  endloop
endfacet
facet normal -1.052488094270001e-15 2.142049965138046e-13 1
  outer loop
    vertex 12627.7587890625 4347.2099609375 35449.984375
    vertex 20477.8828125 14294.81640625 35449.984375
    vertex 18677.759765625 17594.06640625 35449.984375
  endloop
endfacet
facet normal -1.052488094270001e-15 2.142049965138046e-13 1
  outer loop
    vertex 18677.759765625 17594.06640625 35449.984375
    vertex 20477.8828125 14294.81640625 35449.984375
    vertex 20477.8828125 17549.693359375 35449.984375
  endloop
endfacet
facet normal -1.052488094270001e-15 2.142049965138046e-13 1
  outer loop
    vertex 20477.8828125 14294.81640625 35449.984375
    vertex 37518.671875 903.7677612304688 35449.984375
    vertex 24977.7578125 14294.81640625 35449.984375
  endloop
endfacet
facet normal -1.052488094270001e-15 2.142049965138046e-13 1
  outer loop
    vertex 24977.7578125 14294.81640625 35449.984375
    vertex 37518.671875 903.7677612304688 35449.984375
    vertex 24977.7578125 17549.693359375 35449.984375
  endloop
endfacet
facet normal -1.052488094270001e-15 2.142049965138046e-13 1
  outer loop
    vertex 24977.7578125 17549.693359375 35449.984375
    vertex 37518.671875 903.7677612304688 35449.984375
    vertex 36468.484375 12294.0908203125 35449.984375
  endloop
endfacet
facet normal -1.052488094270001e-15 2.142049965138046e-13 1
  outer loop
    vertex 36468.484375 12294.0908203125 35449.984375
    vertex 37518.671875 903.7677612304688 35449.984375
    vertex 37518.671875 12294.0908203125 35449.984375
  endloop
endfacet
facet normal -1.052488094270001e-15 2.142049965138046e-13 1
  outer loop
    vertex 24977.7578125 17549.693359375 35449.984375
    vertex 36468.484375 17594.06640625 35449.984375
    vertex 24977.7578125 17594.06640625 35449.984375
  endloop
endfacet
facet normal -1.052488094270001e-15 2.142049965138046e-13 1
  outer loop
    vertex 36468.484375 17594.06640625 35449.984375
    vertex 24977.7578125 17549.693359375 35449.984375
    vertex 36468.484375 12294.0908203125 35449.984375
  endloop
endfacet
facet normal -1.052488094270001e-15 2.142049965138046e-13 1
  outer loop
    vertex 20477.8828125 17494.81640625 35449.984375
    vertex 20477.8828125 17549.693359375 35449.984375
    vertex 20477.8828125 14294.81640625 35449.984375
  endloop
endfacet
facet normal -1.052488094270001e-15 2.142049965138046e-13 1
  outer loop
    vertex 20477.8828125 17594.06640625 35449.984375
    vertex 18677.759765625 17594.06640625 35449.984375
    vertex 20477.8828125 17549.693359375 35449.984375
  endloop
endfacet
facet normal 4.840776766968708e-28 -1 -1.443822885143116e-14
  outer loop
    vertex 37518.671875 903.7677612304688 35449.984375
    vertex 12627.7587890625 903.7677612304688 35049.984375
    vertex 37518.671875 903.7677612304688 35049.984375
  endloop
endfacet
facet normal 4.840776766968708e-28 -1 -1.443822885143116e-14
  outer loop
    vertex 12627.7587890625 903.7677612304688 35049.984375
    vertex 37518.671875 903.7677612304688 35449.984375
    vertex 12627.7587890625 903.7677612304688 35449.984375
  endloop
endfacet
facet normal -1.292975736243498e-13 -1 -2.887645770286232e-14
  outer loop
    vertex 8588.7587890625 11894.81640625 35049.984375
    vertex 6377.75927734375 11894.81640625 35449.984375
    vertex 6377.75927734375 11894.81640625 35049.984375
  endloop
endfacet
facet normal -1.292975736243498e-13 -1 -2.887645770286232e-14
  outer loop
    vertex 6377.75927734375 11894.81640625 35449.984375
    vertex 8588.7587890625 11894.81640625 35049.984375
    vertex 8588.7587890625 11894.81640625 35449.984375
  endloop
endfacet
facet normal -1 -4.389221394652219e-14 -4.908997470673415e-13
  outer loop
    vertex 6377.75927734375 16894.81640625 35449.984375
    vertex 6377.75927734375 11894.81640625 35049.984375
    vertex 6377.75927734375 11894.81640625 35449.984375
  endloop
endfacet
facet normal -1 -4.389221394652219e-14 -4.908997470673415e-13
  outer loop
    vertex 6377.75927734375 11894.81640625 35049.984375
    vertex 6377.75927734375 16894.81640625 35449.984375
    vertex 6377.75927734375 16894.81640625 35049.984375
  endloop
endfacet
facet normal -1 2.857475141393725e-26 -1.155058308114493e-13
  outer loop
    vertex 12627.7587890625 4347.2099609375 35449.984375
    vertex 12627.7587890625 903.7677612304688 35049.984375
    vertex 12627.7587890625 903.7677612304688 35449.984375
  endloop
endfacet
facet normal -1 2.857475141393725e-26 -1.155058308114493e-13
  outer loop
    vertex 12627.7587890625 903.7677612304688 35049.984375
    vertex 12627.7587890625 4347.2099609375 35449.984375
    vertex 12627.7587890625 4347.2099609375 35049.984375
  endloop
endfacet
facet normal -3.234851012816169e-15 1 -1.085726357452112e-13
  outer loop
    vertex 6377.75927734375 17594.06640625 35049.984375
    vertex 20477.8828125 17594.06640625 35449.984375
    vertex 20477.8828125 17594.06640625 35049.984375
  endloop
endfacet
facet normal -3.234851012816169e-15 1 -1.085726357452112e-13
  outer loop
    vertex 20477.8828125 17594.06640625 35449.984375
    vertex 6377.75927734375 17594.06640625 35049.984375
    vertex 18677.759765625 17594.06640625 35449.984375
  endloop
endfacet
facet normal -3.234851012816169e-15 1 -1.085726357452112e-13
  outer loop
    vertex 18677.759765625 17594.06640625 35449.984375
    vertex 6377.75927734375 17594.06640625 35049.984375
    vertex 6377.75927734375 17594.06640625 35449.984375
  endloop
endfacet
facet normal -2.691199348060173e-14 -1.737106118671061e-11 1
  outer loop
    vertex 24977.7578125 17549.693359375 35449.984375
    vertex 20477.8828125 17594.06640625 35449.984375
    vertex 20477.8828125 17549.693359375 35449.984375
  endloop
endfacet
facet normal -2.691199348060173e-14 -1.737106118671061e-11 1
  outer loop
    vertex 20477.8828125 17594.06640625 35449.984375
    vertex 24977.7578125 17549.693359375 35449.984375
    vertex 24977.7578125 17594.06640625 35449.984375
  endloop
endfacet
facet normal -1 1.545667212927634e-13 -6.064056049838451e-13
  outer loop
    vertex 8588.7587890625 4347.2099609375 35449.984375
    vertex 8588.7587890625 11894.81640625 35049.984375
    vertex 8588.7587890625 4347.2099609375 35049.984375
  endloop
endfacet
facet normal -1 1.545667212927634e-13 -6.064056049838451e-13
  outer loop
    vertex 8588.7587890625 11894.81640625 35049.984375
    vertex 8588.7587890625 4347.2099609375 35449.984375
    vertex 8588.7587890625 11894.81640625 35449.984375
  endloop
endfacet
facet normal 8.722277051011543e-14 -1 5.775291540572464e-14
  outer loop
    vertex 12627.7587890625 4347.2099609375 35449.984375
    vertex 8588.7587890625 4347.2099609375 35049.984375
    vertex 12627.7587890625 4347.2099609375 35049.984375
  endloop
endfacet
facet normal 8.722277051011543e-14 -1 5.775291540572464e-14
  outer loop
    vertex 8588.7587890625 4347.2099609375 35049.984375
    vertex 12627.7587890625 4347.2099609375 35449.984375
    vertex 8588.7587890625 4347.2099609375 35449.984375
  endloop
endfacet
facet normal 1 -2.179365163066716e-15 2.887645770286232e-14
  outer loop
    vertex 36468.484375 17594.06640625 35049.984375
    vertex 36468.484375 12294.0908203125 35449.984375
    vertex 36468.484375 12294.0908203125 35049.984375
  endloop
endfacet
facet normal 1 -2.179365163066716e-15 2.887645770286232e-14
  outer loop
    vertex 36468.484375 12294.0908203125 35449.984375
    vertex 36468.484375 17594.06640625 35049.984375
    vertex 36468.484375 17594.06640625 35449.984375
  endloop
endfacet
facet normal 5.499309741038762e-15 1 2.717608804334382e-21
  outer loop
    vertex 36468.484375 12294.0908203125 35049.984375
    vertex 37518.671875 12294.0908203125 35449.984375
    vertex 37518.671875 12294.0908203125 35049.984375
  endloop
endfacet
facet normal 5.499309741038762e-15 1 2.717608804334382e-21
  outer loop
    vertex 37518.671875 12294.0908203125 35449.984375
    vertex 36468.484375 12294.0908203125 35049.984375
    vertex 36468.484375 12294.0908203125 35449.984375
  endloop
endfacet
facet normal -1 2.464305072936296e-13 -8.33401002289097e-14
  outer loop
    vertex 6377.75927734375 16894.81640625 35449.984375
    vertex 6377.75927734375 17494.81640625 35049.984375
    vertex 6377.75927734375 16894.81640625 35049.984375
  endloop
endfacet
facet normal -1 2.464305072936296e-13 -8.33401002289097e-14
  outer loop
    vertex 6377.75927734375 17494.81640625 35049.984375
    vertex 6377.75927734375 16894.81640625 35449.984375
    vertex 6377.75927734375 17594.06640625 35449.984375
  endloop
endfacet
facet normal -1 2.464305072936296e-13 -8.33401002289097e-14
  outer loop
    vertex 6377.75927734375 17494.81640625 35049.984375
    vertex 6377.75927734375 17594.06640625 35449.984375
    vertex 6377.75927734375 17594.06640625 35049.984375
  endloop
endfacet
facet normal 1 9.12575430270552e-17 1.796339655478009e-28
  outer loop
    vertex 20477.8828125 14294.81640625 35049.984375
    vertex 20477.8828125 17494.81640625 35449.984375
    vertex 20477.8828125 14294.81640625 35449.984375
  endloop
endfacet
facet normal 1 9.12575430270552e-17 1.796339655478009e-28
  outer loop
    vertex 20477.8828125 17494.81640625 35449.984375
    vertex 20477.8828125 14294.81640625 35049.984375
    vertex 20477.8828125 17494.81640625 35049.984375
  endloop
endfacet
facet normal 1 9.12575430270552e-17 1.796339655478009e-28
  outer loop
    vertex 20477.8828125 17494.81640625 35449.984375
    vertex 20477.8828125 17494.81640625 35049.984375
    vertex 20477.8828125 17549.693359375 35049.984375
  endloop
endfacet
facet normal 1 9.12575430270552e-17 1.796339655478009e-28
  outer loop
    vertex 20477.8828125 17494.81640625 35449.984375
    vertex 20477.8828125 17549.693359375 35049.984375
    vertex 20477.8828125 17549.693359375 35449.984375
  endloop
endfacet
facet normal 7.70060014018692e-15 1 -1.299440562747486e-13
  outer loop
    vertex 20477.8828125 17594.06640625 35449.984375
    vertex 24977.7578125 17594.06640625 35049.984375
    vertex 20477.8828125 17594.06640625 35049.984375
  endloop
endfacet
facet normal 7.70060014018692e-15 1 -1.299440562747486e-13
  outer loop
    vertex 24977.7578125 17594.06640625 35049.984375
    vertex 20477.8828125 17594.06640625 35449.984375
    vertex 24977.7578125 17594.06640625 35449.984375
  endloop
endfacet
facet normal 1 9.872176367326201e-20 9.883453913062112e-07
  outer loop
    vertex 37518.671875 903.7677612304688 35049.984375
    vertex 37518.671875 12294.0908203125 35449.984375
    vertex 37518.671875 903.7677612304688 35449.984375
  endloop
endfacet
facet normal 1 9.872176367326201e-20 9.883453913062112e-07
  outer loop
    vertex 37518.671875 12294.0908203125 35449.984375
    vertex 37518.671875 903.7677612304688 35049.984375
    vertex 37518.671875 12294.0908203125 35049.984375
  endloop
endfacet
facet normal -1.95857272360765e-27 -1.052422919319874e-13 -1
  outer loop
    vertex 24977.7578125 17549.693359375 35049.984375
    vertex 20477.8828125 17494.81640625 35049.984375
    vertex 20477.8828125 17549.693359375 35049.984375
  endloop
endfacet
facet normal -1.95857272360765e-27 -1.052422919319874e-13 -1
  outer loop
    vertex 20477.8828125 17494.81640625 35049.984375
    vertex 24977.7578125 17549.693359375 35049.984375
    vertex 24977.7578125 17494.81640625 35049.984375
  endloop
endfacet
facet normal 3.208583303511951e-16 1 2.057447501214657e-13
  outer loop
    vertex 20477.8828125 14294.81640625 35449.984375
    vertex 24977.7578125 14294.81640625 35049.984375
    vertex 20477.8828125 14294.81640625 35049.984375
  endloop
endfacet
facet normal 3.208583303511951e-16 1 2.057447501214657e-13
  outer loop
    vertex 24977.7578125 14294.81640625 35049.984375
    vertex 20477.8828125 14294.81640625 35449.984375
    vertex 24977.7578125 14294.81640625 35449.984375
  endloop
endfacet
facet normal -1 1.916355021890599e-25 1.501575773443786e-12
  outer loop
    vertex 24977.7578125 17549.693359375 35449.984375
    vertex 24977.7578125 14294.81640625 35049.984375
    vertex 24977.7578125 14294.81640625 35449.984375
  endloop
endfacet
facet normal -1 1.916355021890599e-25 1.501575773443786e-12
  outer loop
    vertex 24977.7578125 14294.81640625 35049.984375
    vertex 24977.7578125 17549.693359375 35449.984375
    vertex 24977.7578125 17494.81640625 35049.984375
  endloop
endfacet
facet normal -1 1.916355021890599e-25 1.501575773443786e-12
  outer loop
    vertex 24977.7578125 17494.81640625 35049.984375
    vertex 24977.7578125 17549.693359375 35449.984375
    vertex 24977.7578125 17549.693359375 35049.984375
  endloop
endfacet
facet normal -8.984033779229055e-15 -1 1.8047785217256e-13
  outer loop
    vertex 24977.7578125 17549.693359375 35449.984375
    vertex 20477.8828125 17549.693359375 35049.984375
    vertex 24977.7578125 17549.693359375 35049.984375
  endloop
endfacet
facet normal -8.984033779229055e-15 -1 1.8047785217256e-13
  outer loop
    vertex 20477.8828125 17549.693359375 35049.984375
    vertex 24977.7578125 17549.693359375 35449.984375
    vertex 20477.8828125 17549.693359375 35449.984375
  endloop
endfacet
facet normal -1.216505330714837e-14 -1.148595378964307e-13 -1
  outer loop
    vertex 24977.7578125 17594.06640625 35049.984375
    vertex 24977.7578125 17494.81640625 35049.984375
    vertex 24977.7578125 17549.693359375 35049.984375
  endloop
endfacet
facet normal -1.216505330714837e-14 -1.148595378964307e-13 -1
  outer loop
    vertex 24977.7578125 17494.81640625 35049.984375
    vertex 24977.7578125 17594.06640625 35049.984375
    vertex 24977.7578125 14294.81640625 35049.984375
  endloop
endfacet
facet normal -1.216505330714837e-14 -1.148595378964307e-13 -1
  outer loop
    vertex 36468.484375 17594.06640625 35049.984375
    vertex 36468.484375 12294.0908203125 35049.984375
    vertex 24977.7578125 17594.06640625 35049.984375
  endloop
endfacet
facet normal -1.216505330714837e-14 -1.148595378964307e-13 -1
  outer loop
    vertex 6377.75927734375 17494.81640625 35049.984375
    vertex 6377.75927734375 11894.81640625 35049.984375
    vertex 6377.75927734375 16894.81640625 35049.984375
  endloop
endfacet
facet normal -1.216505330714837e-14 -1.148595378964307e-13 -1
  outer loop
    vertex 6377.75927734375 11894.81640625 35049.984375
    vertex 6377.75927734375 17494.81640625 35049.984375
    vertex 20477.8828125 17494.81640625 35049.984375
  endloop
endfacet
facet normal -1.216505330714837e-14 -1.148595378964307e-13 -1
  outer loop
    vertex 6377.75927734375 11894.81640625 35049.984375
    vertex 20477.8828125 17494.81640625 35049.984375
    vertex 8588.7587890625 11894.81640625 35049.984375
  endloop
endfacet
facet normal -1.216505330714837e-14 -1.148595378964307e-13 -1
  outer loop
    vertex 8588.7587890625 11894.81640625 35049.984375
    vertex 20477.8828125 17494.81640625 35049.984375
    vertex 12627.7587890625 4347.2099609375 35049.984375
  endloop
endfacet
facet normal -1.216505330714837e-14 -1.148595378964307e-13 -1
  outer loop
    vertex 12627.7587890625 4347.2099609375 35049.984375
    vertex 20477.8828125 17494.81640625 35049.984375
    vertex 12627.7587890625 903.7677612304688 35049.984375
  endloop
endfacet
facet normal -1.216505330714837e-14 -1.148595378964307e-13 -1
  outer loop
    vertex 12627.7587890625 903.7677612304688 35049.984375
    vertex 20477.8828125 17494.81640625 35049.984375
    vertex 20477.8828125 14294.81640625 35049.984375
  endloop
endfacet
facet normal -1.216505330714837e-14 -1.148595378964307e-13 -1
  outer loop
    vertex 12627.7587890625 903.7677612304688 35049.984375
    vertex 20477.8828125 14294.81640625 35049.984375
    vertex 37518.671875 903.7677612304688 35049.984375
  endloop
endfacet
facet normal -1.216505330714837e-14 -1.148595378964307e-13 -1
  outer loop
    vertex 37518.671875 903.7677612304688 35049.984375
    vertex 20477.8828125 14294.81640625 35049.984375
    vertex 24977.7578125 14294.81640625 35049.984375
  endloop
endfacet
facet normal -1.216505330714837e-14 -1.148595378964307e-13 -1
  outer loop
    vertex 37518.671875 903.7677612304688 35049.984375
    vertex 24977.7578125 14294.81640625 35049.984375
    vertex 24977.7578125 17594.06640625 35049.984375
  endloop
endfacet
facet normal -1.216505330714837e-14 -1.148595378964307e-13 -1
  outer loop
    vertex 37518.671875 903.7677612304688 35049.984375
    vertex 24977.7578125 17594.06640625 35049.984375
    vertex 36468.484375 12294.0908203125 35049.984375
  endloop
endfacet
facet normal -1.216505330714837e-14 -1.148595378964307e-13 -1
  outer loop
    vertex 37518.671875 903.7677612304688 35049.984375
    vertex 36468.484375 12294.0908203125 35049.984375
    vertex 37518.671875 12294.0908203125 35049.984375
  endloop
endfacet
facet normal -1.216505330714837e-14 -1.148595378964307e-13 -1
  outer loop
    vertex 12627.7587890625 4347.2099609375 35049.984375
    vertex 8588.7587890625 4347.2099609375 35049.984375
    vertex 8588.7587890625 11894.81640625 35049.984375
  endloop
endfacet
facet normal -1 -6.507538865413443e-12 7.219114086902401e-13
  outer loop
    vertex 24977.7578125 17549.693359375 35449.984375
    vertex 24977.7578125 17594.06640625 35049.984375
    vertex 24977.7578125 17549.693359375 35049.984375
  endloop
endfacet
facet normal -1 -6.507538865413443e-12 7.219114086902401e-13
  outer loop
    vertex 24977.7578125 17594.06640625 35049.984375
    vertex 24977.7578125 17549.693359375 35449.984375
    vertex 24977.7578125 17594.06640625 35449.984375
  endloop
endfacet
facet normal 1.28343332140478e-15 1.659631919125604e-26 -1
  outer loop
    vertex 24977.7578125 17594.06640625 35049.984375
    vertex 20477.8828125 17549.693359375 35049.984375
    vertex 20477.8828125 17594.06640625 35049.984375
  endloop
endfacet
facet normal 1.28343332140478e-15 1.659631919125604e-26 -1
  outer loop
    vertex 20477.8828125 17549.693359375 35049.984375
    vertex 24977.7578125 17594.06640625 35049.984375
    vertex 24977.7578125 17549.693359375 35049.984375
  endloop
endfacet
facet normal 1 7.52498577499003e-27 5.775291540572464e-14
  outer loop
    vertex 20477.8828125 17594.06640625 35049.984375
    vertex 20477.8828125 17549.693359375 35449.984375
    vertex 20477.8828125 17549.693359375 35049.984375
  endloop
endfacet
facet normal 1 7.52498577499003e-27 5.775291540572464e-14
  outer loop
    vertex 20477.8828125 17549.693359375 35449.984375
    vertex 20477.8828125 17594.06640625 35049.984375
    vertex 20477.8828125 17594.06640625 35449.984375
  endloop
endfacet
facet normal -8.978014551347629e-17 -1.016416497408995e-13 -1
  outer loop
    vertex 6377.75927734375 17594.06640625 35049.984375
    vertex 20477.8828125 17494.81640625 35049.984375
    vertex 6377.75927734375 17494.81640625 35049.984375
  endloop
endfacet
facet normal -8.978014551347629e-17 -1.016416497408995e-13 -1
  outer loop
    vertex 20477.8828125 17494.81640625 35049.984375
    vertex 6377.75927734375 17594.06640625 35049.984375
    vertex 20477.8828125 17594.06640625 35049.984375
  endloop
endfacet
facet normal -8.978014551347629e-17 -1.016416497408995e-13 -1
  outer loop
    vertex 20477.8828125 17494.81640625 35049.984375
    vertex 20477.8828125 17594.06640625 35049.984375
    vertex 20477.8828125 17549.693359375 35049.984375
  endloop
endfacet
facet normal 3.262683011306174e-28 1 -2.16573422607072e-13
  outer loop
    vertex 24977.7578125 17594.06640625 35449.984375
    vertex 36468.484375 17594.06640625 35049.984375
    vertex 24977.7578125 17594.06640625 35049.984375
  endloop
endfacet
facet normal 3.262683011306174e-28 1 -2.16573422607072e-13
  outer loop
    vertex 36468.484375 17594.06640625 35049.984375
    vertex 24977.7578125 17594.06640625 35449.984375
    vertex 36468.484375 17594.06640625 35449.984375
  endloop
endfacet
endsolid com.sketchup.SketchUp.2019
