solid com.sketchup.SketchUp.2019
facet normal 4.008160123247784e-12 3.156900942372608e-14 -1
  outer loop
    vertex 18868.421875 17291.083984375 10550
    vertex 6199.67138671875 12382.6962890625 10550
    vertex 6199.67138671875 17291.083984375 10550
  endloop
endfacet
facet normal 4.008160123247784e-12 3.156900942372608e-14 -1
  outer loop
    vertex 6199.67138671875 12382.6962890625 10550
    vertex 18868.421875 17291.083984375 10550
    vertex 7200 12382.6962890625 10550
  endloop
endfacet
facet normal 4.008160123247784e-12 3.156900942372608e-14 -1
  outer loop
    vertex 7200 12382.6962890625 10550
    vertex 18868.421875 17291.083984375 10550
    vertex 8629.1865234375 11856.01171875 10550
  endloop
endfacet
facet normal 4.008160123247784e-12 3.156900942372608e-14 -1
  outer loop
    vertex 36500 17355.26171875 10550
    vertex 24668.421875 14091.072265625 10550
    vertex 24668.421875 17355.26171875 10550
  endloop
endfacet
facet normal 4.008160123247784e-12 3.156900942372608e-14 -1
  outer loop
    vertex 24668.421875 14091.072265625 10550
    vertex 36500 17355.26171875 10550
    vertex 36500 11656.01171875 10550
  endloop
endfacet
facet normal 4.008160123247784e-12 3.156900942372608e-14 -1
  outer loop
    vertex 8629.1865234375 11856.01171875 10550
    vertex 36500 1749.998413085938 10550
    vertex 8629.1865234375 1749.998413085938 10550
  endloop
endfacet
facet normal 4.008160123247784e-12 3.156900942372608e-14 -1
  outer loop
    vertex 36500 1749.998413085938 10550
    vertex 8629.1865234375 11856.01171875 10550
    vertex 18868.421875 14091.072265625 10550
  endloop
endfacet
facet normal 4.008160123247784e-12 3.156900942372608e-14 -1
  outer loop
    vertex 18868.421875 14091.072265625 10550
    vertex 8629.1865234375 11856.01171875 10550
    vertex 18868.421875 17291.083984375 10550
  endloop
endfacet
facet normal 4.008160123247784e-12 3.156900942372608e-14 -1
  outer loop
    vertex 36500 1749.998413085938 10550
    vertex 18868.421875 14091.072265625 10550
    vertex 24668.421875 14091.072265625 10550
  endloop
endfacet
facet normal 4.008160123247784e-12 3.156900942372608e-14 -1
  outer loop
    vertex 36500 1749.998413085938 10550
    vertex 24668.421875 14091.072265625 10550
    vertex 36500 11656.01171875 10550
  endloop
endfacet
facet normal 4.008160123247784e-12 3.156900942372608e-14 -1
  outer loop
    vertex 8629.1865234375 11856.01171875 10550
    vertex 7200 11856.01171875 10550
    vertex 7200 12382.6962890625 10550
  endloop
endfacet
facet normal -2.586920478178656e-12 -2.266351677453118e-14 1
  outer loop
    vertex 8629.1865234375 11856.01171875 10950
    vertex 7200 12382.6962890625 10950
    vertex 7200 11856.01171875 10950
  endloop
endfacet
facet normal -2.586920478178656e-12 -2.266351677453118e-14 1
  outer loop
    vertex 36500 1749.998413085938 10950
    vertex 8629.1865234375 11856.01171875 10950
    vertex 8629.1865234375 1749.998413085938 10950
  endloop
endfacet
facet normal -2.586920478178656e-12 -2.266351677453118e-14 1
  outer loop
    vertex 8629.1865234375 11856.01171875 10950
    vertex 36500 1749.998413085938 10950
    vertex 18868.421875 14091.072265625 10950
  endloop
endfacet
facet normal -2.586920478178656e-12 -2.266351677453118e-14 1
  outer loop
    vertex 18868.421875 14091.072265625 10950
    vertex 36500 1749.998413085938 10950
    vertex 24668.421875 14091.072265625 10950
  endloop
endfacet
facet normal -2.586920478178656e-12 -2.266351677453118e-14 1
  outer loop
    vertex 24668.421875 14091.072265625 10950
    vertex 36500 1749.998413085938 10950
    vertex 24668.421875 17355.26171875 10950
  endloop
endfacet
facet normal -2.586920478178656e-12 -2.266351677453118e-14 1
  outer loop
    vertex 24668.421875 17355.26171875 10950
    vertex 36500 1749.998413085938 10950
    vertex 36500 11656.01171875 10950
  endloop
endfacet
facet normal -2.586920478178656e-12 -2.266351677453118e-14 1
  outer loop
    vertex 36500 17355.26171875 10950
    vertex 24668.421875 17355.26171875 10950
    vertex 36500 11656.01171875 10950
  endloop
endfacet
facet normal -2.586920478178656e-12 -2.266351677453118e-14 1
  outer loop
    vertex 6199.67138671875 12382.6962890625 10950
    vertex 18868.421875 17291.083984375 10950
    vertex 6199.67138671875 17291.083984375 10950
  endloop
endfacet
facet normal -2.586920478178656e-12 -2.266351677453118e-14 1
  outer loop
    vertex 18868.421875 17291.083984375 10950
    vertex 6199.67138671875 12382.6962890625 10950
    vertex 7200 12382.6962890625 10950
  endloop
endfacet
facet normal -2.586920478178656e-12 -2.266351677453118e-14 1
  outer loop
    vertex 18868.421875 17291.083984375 10950
    vertex 7200 12382.6962890625 10950
    vertex 8629.1865234375 11856.01171875 10950
  endloop
endfacet
facet normal -2.586920478178656e-12 -2.266351677453118e-14 1
  outer loop
    vertex 18868.421875 17291.083984375 10950
    vertex 8629.1865234375 11856.01171875 10950
    vertex 18868.421875 14091.072265625 10950
  endloop
endfacet
facet normal 5.588192669020442e-13 -1 1.235787053200862e-13
  outer loop
    vertex 36500 1749.998413085938 10550
    vertex 8629.1865234375 1749.998413085938 10950
    vertex 8629.1865234375 1749.998413085938 10550
  endloop
endfacet
facet normal 5.588192669020442e-13 -1 1.235787053200862e-13
  outer loop
    vertex 8629.1865234375 1749.998413085938 10950
    vertex 36500 1749.998413085938 10550
    vertex 36500 1749.998413085938 10950
  endloop
endfacet
facet normal 1 3.256407246935072e-17 -9.318927626763478e-33
  outer loop
    vertex 36500 11656.01171875 10550
    vertex 36500 1749.998413085938 10950
    vertex 36500 1749.998413085938 10550
  endloop
endfacet
facet normal 1 3.256407246935072e-17 -9.318927626763478e-33
  outer loop
    vertex 36500 1749.998413085938 10950
    vertex 36500 11656.01171875 10550
    vertex 36500 11656.01171875 10950
  endloop
endfacet
facet normal -1 1.171196674789645e-17 3.308643834966694e-16
  outer loop
    vertex 8629.1865234375 1749.998413085938 10950
    vertex 8629.1865234375 11856.01171875 10550
    vertex 8629.1865234375 1749.998413085938 10550
  endloop
endfacet
facet normal -1 1.171196674789645e-17 3.308643834966694e-16
  outer loop
    vertex 8629.1865234375 11856.01171875 10550
    vertex 8629.1865234375 1749.998413085938 10950
    vertex 8629.1865234375 11856.01171875 10950
  endloop
endfacet
facet normal 5.960076616268184e-12 1 6.1294751734362e-30
  outer loop
    vertex 24668.421875 17355.26171875 10550
    vertex 36500 17355.26171875 10950
    vertex 36500 17355.26171875 10550
  endloop
endfacet
facet normal 5.960076616268184e-12 1 6.1294751734362e-30
  outer loop
    vertex 36500 17355.26171875 10950
    vertex 24668.421875 17355.26171875 10550
    vertex 24668.421875 17355.26171875 10950
  endloop
endfacet
facet normal -1 -1.342627557179157e-16 -5.134102274346769e-16
  outer loop
    vertex 6199.67138671875 12382.6962890625 10950
    vertex 6199.67138671875 17291.083984375 10550
    vertex 6199.67138671875 12382.6962890625 10550
  endloop
endfacet
facet normal -1 -1.342627557179157e-16 -5.134102274346769e-16
  outer loop
    vertex 6199.67138671875 17291.083984375 10550
    vertex 6199.67138671875 12382.6962890625 10950
    vertex 6199.67138671875 17291.083984375 10950
  endloop
endfacet
facet normal 1 0 0
  outer loop
    vertex 18868.421875 17291.083984375 10550
    vertex 18868.421875 14091.072265625 10950
    vertex 18868.421875 14091.072265625 10550
  endloop
endfacet
facet normal 1 0 0
  outer loop
    vertex 18868.421875 14091.072265625 10950
    vertex 18868.421875 17291.083984375 10550
    vertex 18868.421875 17291.083984375 10950
  endloop
endfacet
facet normal 0 1 -1.190835234918643e-14
  outer loop
    vertex 18868.421875 14091.072265625 10950
    vertex 24668.421875 14091.072265625 10550
    vertex 18868.421875 14091.072265625 10550
  endloop
endfacet
facet normal 0 1 -1.190835234918643e-14
  outer loop
    vertex 24668.421875 14091.072265625 10550
    vertex 18868.421875 14091.072265625 10950
    vertex 24668.421875 14091.072265625 10950
  endloop
endfacet
facet normal -1 0 0
  outer loop
    vertex 24668.421875 14091.072265625 10950
    vertex 24668.421875 17355.26171875 10550
    vertex 24668.421875 14091.072265625 10550
  endloop
endfacet
facet normal -1 0 0
  outer loop
    vertex 24668.421875 17355.26171875 10550
    vertex 24668.421875 14091.072265625 10950
    vertex 24668.421875 17355.26171875 10950
  endloop
endfacet
facet normal 4.009408256788749e-12 1 -8.98754303672953e-15
  outer loop
    vertex 6199.67138671875 17291.083984375 10550
    vertex 18868.421875 17291.083984375 10950
    vertex 18868.421875 17291.083984375 10550
  endloop
endfacet
facet normal 4.009408256788749e-12 1 -8.98754303672953e-15
  outer loop
    vertex 18868.421875 17291.083984375 10950
    vertex 6199.67138671875 17291.083984375 10550
    vertex 6199.67138671875 17291.083984375 10950
  endloop
endfacet
facet normal -3.410997612834921e-12 -1 3.595017214691812e-14
  outer loop
    vertex 7200 12382.6962890625 10950
    vertex 6199.67138671875 12382.6962890625 10550
    vertex 7200 12382.6962890625 10550
  endloop
endfacet
facet normal -3.410997612834921e-12 -1 3.595017214691812e-14
  outer loop
    vertex 6199.67138671875 12382.6962890625 10550
    vertex 7200 12382.6962890625 10950
    vertex 6199.67138671875 12382.6962890625 10950
  endloop
endfacet
facet normal -8.754004465760801e-12 -1 1.438006885876725e-13
  outer loop
    vertex 8629.1865234375 11856.01171875 10950
    vertex 7200 11856.01171875 10550
    vertex 8629.1865234375 11856.01171875 10550
  endloop
endfacet
facet normal -8.754004465760801e-12 -1 1.438006885876725e-13
  outer loop
    vertex 7200 11856.01171875 10550
    vertex 8629.1865234375 11856.01171875 10950
    vertex 7200 11856.01171875 10950
  endloop
endfacet
facet normal -1 5.642724383349295e-17 -3.042853643487712e-30
  outer loop
    vertex 7200 11856.01171875 10950
    vertex 7200 12382.6962890625 10550
    vertex 7200 11856.01171875 10550
  endloop
endfacet
facet normal -1 5.642724383349295e-17 -3.042853643487712e-30
  outer loop
    vertex 7200 12382.6962890625 10550
    vertex 7200 11856.01171875 10950
    vertex 7200 12382.6962890625 10950
  endloop
endfacet
facet normal 1 -5.660045545376156e-17 -1.44661275561884e-33
  outer loop
    vertex 36500 17355.26171875 10550
    vertex 36500 11656.01171875 10950
    vertex 36500 11656.01171875 10550
  endloop
endfacet
facet normal 1 -5.660045545376156e-17 -1.44661275561884e-33
  outer loop
    vertex 36500 11656.01171875 10950
    vertex 36500 17355.26171875 10550
    vertex 36500 17355.26171875 10950
  endloop
endfacet
endsolid com.sketchup.SketchUp.2019
