solid com.sketchup.SketchUp.2019
facet normal 0 0 -1
  outer loop
    vertex 59.07561111450195 29.54363059997559 0
    vertex 2.874387979507446 25.74363136291504 0
    vertex 2.874387979507446 29.54363059997559 0
  endloop
endfacet
facet normal 0 0 -1
  outer loop
    vertex 2.874387979507446 25.74363136291504 0
    vertex 59.07561111450195 29.54363059997559 0
    vertex 59.07561111450195 25.74363136291504 0
  endloop
endfacet
facet normal -5.109478100127801e-17 1 7.376193765629532e-20
  outer loop
    vertex 7.283063041541027e-14 29.54363059997559 5.775291286462579e-15
    vertex 59.07561111450195 29.54363059997559 0
    vertex 2.874387979507446 29.54363059997559 0
  endloop
endfacet
facet normal -5.109478100127801e-17 1 7.376193765629532e-20
  outer loop
    vertex 59.07561111450195 29.54363059997559 0
    vertex 7.283063041541027e-14 29.54363059997559 5.775291286462579e-15
    vertex 61.95000076293945 29.54363059997559 0
  endloop
endfacet
facet normal -5.109478100127801e-17 1 7.376193765629532e-20
  outer loop
    vertex 61.95000076293945 29.54363059997559 0
    vertex 7.283063041541027e-14 29.54363059997559 5.775291286462579e-15
    vertex 61.95000076293945 29.54363059997559 36.27999877929688
  endloop
endfacet
facet normal -5.109478100127801e-17 1 7.376193765629532e-20
  outer loop
    vertex 61.95000076293945 29.54363059997559 36.27999877929688
    vertex 7.283063041541027e-14 29.54363059997559 5.775291286462579e-15
    vertex 0 29.54363059997559 36.27999877929688
  endloop
endfacet
facet normal 0 -1 0
  outer loop
    vertex 59.07561111450195 25.74363136291504 36.27999877929688
    vertex 2.874387979507446 25.74363136291504 0
    vertex 59.07561111450195 25.74363136291504 0
  endloop
endfacet
facet normal 0 -1 0
  outer loop
    vertex 2.874387979507446 25.74363136291504 0
    vertex 59.07561111450195 25.74363136291504 36.27999877929688
    vertex 2.874387979507446 25.74363136291504 36.27999877929688
  endloop
endfacet
facet normal 0 1 0
  outer loop
    vertex 2.874387979507446 2.874387979507446 36.27999877929688
    vertex 59.07561111450195 2.874387979507446 0
    vertex 2.874387979507446 2.874387979507446 0
  endloop
endfacet
facet normal 0 1 0
  outer loop
    vertex 59.07561111450195 2.874387979507446 0
    vertex 2.874387979507446 2.874387979507446 36.27999877929688
    vertex 59.07561111450195 2.874387979507446 36.27999877929688
  endloop
endfacet
facet normal 0 -1 0
  outer loop
    vertex 61.95000076293945 0 36.27999877929688
    vertex 0 0 0
    vertex 61.95000076293945 0 0
  endloop
endfacet
facet normal 0 -1 0
  outer loop
    vertex 0 0 0
    vertex 61.95000076293945 0 36.27999877929688
    vertex 0 0 36.27999877929688
  endloop
endfacet
facet normal -1 0 0
  outer loop
    vertex 59.07561111450195 25.74363136291504 36.27999877929688
    vertex 59.07561111450195 2.874387979507446 0
    vertex 59.07561111450195 2.874387979507446 36.27999877929688
  endloop
endfacet
facet normal -1 0 0
  outer loop
    vertex 59.07561111450195 2.874387979507446 0
    vertex 59.07561111450195 25.74363136291504 36.27999877929688
    vertex 59.07561111450195 25.74363136291504 0
  endloop
endfacet
facet normal 1 0 0
  outer loop
    vertex 2.874387979507446 25.74363136291504 0
    vertex 2.874387979507446 2.874387979507446 36.27999877929688
    vertex 2.874387979507446 2.874387979507446 0
  endloop
endfacet
facet normal 1 0 0
  outer loop
    vertex 2.874387979507446 2.874387979507446 36.27999877929688
    vertex 2.874387979507446 25.74363136291504 0
    vertex 2.874387979507446 25.74363136291504 36.27999877929688
  endloop
endfacet
facet normal -2.0860140126744e-17 3.946590868181557e-17 -1
  outer loop
    vertex 61.95000076293945 29.54363059997559 0
    vertex 59.07561111450195 25.74363136291504 0
    vertex 59.07561111450195 29.54363059997559 0
  endloop
endfacet
facet normal -2.0860140126744e-17 3.946590868181557e-17 -1
  outer loop
    vertex 59.07561111450195 25.74363136291504 0
    vertex 61.95000076293945 29.54363059997559 0
    vertex 59.07561111450195 2.874387979507446 0
  endloop
endfacet
facet normal -2.0860140126744e-17 3.946590868181557e-17 -1
  outer loop
    vertex 0 0 0
    vertex 2.874387979507446 2.874387979507446 0
    vertex 61.95000076293945 0 0
  endloop
endfacet
facet normal -2.0860140126744e-17 3.946590868181557e-17 -1
  outer loop
    vertex 2.874387979507446 2.874387979507446 0
    vertex 0 0 0
    vertex 7.283063041541027e-14 29.54363059997559 5.775291286462579e-15
  endloop
endfacet
facet normal -2.0860140126744e-17 3.946590868181557e-17 -1
  outer loop
    vertex 2.874387979507446 2.874387979507446 0
    vertex 7.283063041541027e-14 29.54363059997559 5.775291286462579e-15
    vertex 2.874387979507446 29.54363059997559 0
  endloop
endfacet
facet normal -2.0860140126744e-17 3.946590868181557e-17 -1
  outer loop
    vertex 2.874387979507446 2.874387979507446 0
    vertex 2.874387979507446 29.54363059997559 0
    vertex 2.874387979507446 25.74363136291504 0
  endloop
endfacet
facet normal -2.0860140126744e-17 3.946590868181557e-17 -1
  outer loop
    vertex 61.95000076293945 0 0
    vertex 2.874387979507446 2.874387979507446 0
    vertex 59.07561111450195 2.874387979507446 0
  endloop
endfacet
facet normal -2.0860140126744e-17 3.946590868181557e-17 -1
  outer loop
    vertex 61.95000076293945 0 0
    vertex 59.07561111450195 2.874387979507446 0
    vertex 61.95000076293945 29.54363059997559 0
  endloop
endfacet
facet normal 1.938104854727058e-17 -5.094793592847066e-16 1
  outer loop
    vertex 0 0 36.27999877929688
    vertex 2.874387979507446 2.874387979507446 36.27999877929688
    vertex 0 29.54363059997559 36.27999877929688
  endloop
endfacet
facet normal 1.938104854727058e-17 -5.094793592847066e-16 1
  outer loop
    vertex 2.874387979507446 2.874387979507446 36.27999877929688
    vertex 0 0 36.27999877929688
    vertex 61.95000076293945 0 36.27999877929688
  endloop
endfacet
facet normal 1.938104854727058e-17 -5.094793592847066e-16 1
  outer loop
    vertex 2.874387979507446 2.874387979507446 36.27999877929688
    vertex 61.95000076293945 0 36.27999877929688
    vertex 59.07561111450195 2.874387979507446 36.27999877929688
  endloop
endfacet
facet normal 1.938104854727058e-17 -5.094793592847066e-16 1
  outer loop
    vertex 59.07561111450195 2.874387979507446 36.27999877929688
    vertex 61.95000076293945 0 36.27999877929688
    vertex 59.07561111450195 25.74363136291504 36.27999877929688
  endloop
endfacet
facet normal 1.938104854727058e-17 -5.094793592847066e-16 1
  outer loop
    vertex 0 29.54363059997559 36.27999877929688
    vertex 2.874387979507446 25.74363136291504 36.27999877929688
    vertex 61.95000076293945 29.54363059997559 36.27999877929688
  endloop
endfacet
facet normal 1.938104854727058e-17 -5.094793592847066e-16 1
  outer loop
    vertex 2.874387979507446 25.74363136291504 36.27999877929688
    vertex 0 29.54363059997559 36.27999877929688
    vertex 2.874387979507446 2.874387979507446 36.27999877929688
  endloop
endfacet
facet normal 1.938104854727058e-17 -5.094793592847066e-16 1
  outer loop
    vertex 61.95000076293945 29.54363059997559 36.27999877929688
    vertex 2.874387979507446 25.74363136291504 36.27999877929688
    vertex 59.07561111450195 25.74363136291504 36.27999877929688
  endloop
endfacet
facet normal 1.938104854727058e-17 -5.094793592847066e-16 1
  outer loop
    vertex 61.95000076293945 29.54363059997559 36.27999877929688
    vertex 59.07561111450195 25.74363136291504 36.27999877929688
    vertex 61.95000076293945 0 36.27999877929688
  endloop
endfacet
facet normal 1 0 0
  outer loop
    vertex 61.95000076293945 29.54363059997559 0
    vertex 61.95000076293945 0 36.27999877929688
    vertex 61.95000076293945 0 0
  endloop
endfacet
facet normal 1 0 0
  outer loop
    vertex 61.95000076293945 0 36.27999877929688
    vertex 61.95000076293945 29.54363059997559 0
    vertex 61.95000076293945 29.54363059997559 36.27999877929688
  endloop
endfacet
facet normal -1 1.415780737105607e-15 -1.004612415662649e-15
  outer loop
    vertex 0 29.54363059997559 36.27999877929688
    vertex 0 0 0
    vertex 0 0 36.27999877929688
  endloop
endfacet
facet normal -1 1.415780737105607e-15 -1.004612415662649e-15
  outer loop
    vertex 0 0 0
    vertex 0 29.54363059997559 36.27999877929688
    vertex 7.283063041541027e-14 29.54363059997559 5.775291286462579e-15
  endloop
endfacet
endsolid com.sketchup.SketchUp.2019
