solid com.sketchup.SketchUp.2019
facet normal 0 1 0
  outer loop
    vertex 34.89438629150391 95.41000366210938 36.27999877929688
    vertex 61.95000076293945 95.41000366210938 2.88764564323129e-15
    vertex 34.89438629150391 95.41000366210938 2.88764564323129e-15
  endloop
endfacet
facet normal 0 1 0
  outer loop
    vertex 61.95000076293945 95.41000366210938 2.88764564323129e-15
    vertex 34.89438629150391 95.41000366210938 36.27999877929688
    vertex 61.95000076293945 95.41000366210938 36.27999877929688
  endloop
endfacet
facet normal 0 -1 0
  outer loop
    vertex 59.07561111450195 92.53561401367188 5.775291286462579e-15
    vertex 34.89438629150391 92.53561401367188 36.27999877929688
    vertex 34.89438629150391 92.53561401367188 2.88764564323129e-15
  endloop
endfacet
facet normal 0 -1 0
  outer loop
    vertex 34.89438629150391 92.53561401367188 36.27999877929688
    vertex 59.07561111450195 92.53561401367188 5.775291286462579e-15
    vertex 59.07561111450195 92.53561401367188 36.27999877929688
  endloop
endfacet
facet normal 2.539263824292013e-17 -3.034996606466391e-16 -1
  outer loop
    vertex 61.95000076293945 95.41000366210938 2.88764564323129e-15
    vertex 34.89438629150391 92.53561401367188 2.88764564323129e-15
    vertex 34.89438629150391 95.41000366210938 2.88764564323129e-15
  endloop
endfacet
facet normal 2.539263824292013e-17 -3.034996606466391e-16 -1
  outer loop
    vertex 34.89438629150391 92.53561401367188 2.88764564323129e-15
    vertex 61.95000076293945 95.41000366210938 2.88764564323129e-15
    vertex 59.07561111450195 92.53561401367188 5.775291286462579e-15
  endloop
endfacet
facet normal 2.539263824292013e-17 -3.034996606466391e-16 -1
  outer loop
    vertex 59.07561111450195 92.53561401367188 5.775291286462579e-15
    vertex 61.95000076293945 95.41000366210938 2.88764564323129e-15
    vertex 61.95000076293945 92.53561401367188 2.88764564323129e-15
  endloop
endfacet
facet normal -6.403777530756874e-17 1.696286841366081e-16 1
  outer loop
    vertex 0 25.74363136291504 36.27999877929688
    vertex 2.874387979507446 29.54363059997559 36.27999877929688
    vertex 0 72.13561248779297 36.27999877929688
  endloop
endfacet
facet normal -6.403777530756874e-17 1.696286841366081e-16 1
  outer loop
    vertex 2.874387979507446 29.54363059997559 36.27999877929688
    vertex 0 25.74363136291504 36.27999877929688
    vertex 61.95000076293945 25.74363136291504 36.27999877929688
  endloop
endfacet
facet normal -6.403777530756874e-17 1.696286841366081e-16 1
  outer loop
    vertex 2.874387979507446 29.54363059997559 36.27999877929688
    vertex 61.95000076293945 25.74363136291504 36.27999877929688
    vertex 59.07561111450195 29.54363059997559 36.27999877929688
  endloop
endfacet
facet normal -6.403777530756874e-17 1.696286841366081e-16 1
  outer loop
    vertex 59.07561111450195 29.54363059997559 36.27999877929688
    vertex 61.95000076293945 25.74363136291504 36.27999877929688
    vertex 59.07561111450195 92.53561401367188 36.27999877929688
  endloop
endfacet
facet normal -6.403777530756874e-17 1.696286841366081e-16 1
  outer loop
    vertex 0 72.13561248779297 36.27999877929688
    vertex 2.874387979507446 70.38402557373047 36.27999877929688
    vertex 33.09376525878906 72.13561248779297 36.27999877929688
  endloop
endfacet
facet normal -6.403777530756874e-17 1.696286841366081e-16 1
  outer loop
    vertex 2.874387979507446 70.38402557373047 36.27999877929688
    vertex 0 72.13561248779297 36.27999877929688
    vertex 2.874387979507446 29.54363059997559 36.27999877929688
  endloop
endfacet
facet normal -6.403777530756874e-17 1.696286841366081e-16 1
  outer loop
    vertex 33.09376525878906 72.13561248779297 36.27999877929688
    vertex 2.874387979507446 70.38402557373047 36.27999877929688
    vertex 34.89438629150391 70.38402557373047 36.27999877929688
  endloop
endfacet
facet normal -6.403777530756874e-17 1.696286841366081e-16 1
  outer loop
    vertex 33.09376525878906 72.13561248779297 36.27999877929688
    vertex 34.89438629150391 70.38402557373047 36.27999877929688
    vertex 33.09376525878906 95.41000366210938 36.27999877929688
  endloop
endfacet
facet normal -6.403777530756874e-17 1.696286841366081e-16 1
  outer loop
    vertex 33.09376525878906 95.41000366210938 36.27999877929688
    vertex 34.89438629150391 70.38402557373047 36.27999877929688
    vertex 34.89438629150391 95.41000366210938 36.27999877929688
  endloop
endfacet
facet normal -6.403777530756874e-17 1.696286841366081e-16 1
  outer loop
    vertex 34.89438629150391 95.41000366210938 36.27999877929688
    vertex 34.89438629150391 70.38402557373047 36.27999877929688
    vertex 34.89438629150391 92.53561401367188 36.27999877929688
  endloop
endfacet
facet normal -6.403777530756874e-17 1.696286841366081e-16 1
  outer loop
    vertex 34.89438629150391 95.41000366210938 36.27999877929688
    vertex 34.89438629150391 92.53561401367188 36.27999877929688
    vertex 59.07561111450195 92.53561401367188 36.27999877929688
  endloop
endfacet
facet normal -6.403777530756874e-17 1.696286841366081e-16 1
  outer loop
    vertex 34.89438629150391 95.41000366210938 36.27999877929688
    vertex 59.07561111450195 92.53561401367188 36.27999877929688
    vertex 61.95000076293945 95.41000366210938 36.27999877929688
  endloop
endfacet
facet normal -6.403777530756874e-17 1.696286841366081e-16 1
  outer loop
    vertex 61.95000076293945 95.41000366210938 36.27999877929688
    vertex 59.07561111450195 92.53561401367188 36.27999877929688
    vertex 61.95000076293945 25.74363136291504 36.27999877929688
  endloop
endfacet
facet normal -5.023062078313243e-16 -2.062866686721083e-16 -1
  outer loop
    vertex 61.95000076293945 92.53561401367188 2.88764564323129e-15
    vertex 59.07561111450195 29.54363059997559 1.732587428290421e-14
    vertex 59.07561111450195 92.53561401367188 5.775291286462579e-15
  endloop
endfacet
facet normal -5.023062078313243e-16 -2.062866686721083e-16 -1
  outer loop
    vertex 59.07561111450195 29.54363059997559 1.732587428290421e-14
    vertex 61.95000076293945 92.53561401367188 2.88764564323129e-15
    vertex 61.95000076293945 29.54363059997559 1.732587428290421e-14
  endloop
endfacet
facet normal -1 0 0
  outer loop
    vertex 59.07561111450195 92.53561401367188 36.27999877929688
    vertex 59.07561111450195 29.54363059997559 1.732587428290421e-14
    vertex 59.07561111450195 29.54363059997559 36.27999877929688
  endloop
endfacet
facet normal -1 0 0
  outer loop
    vertex 59.07561111450195 29.54363059997559 1.732587428290421e-14
    vertex 59.07561111450195 92.53561401367188 36.27999877929688
    vertex 59.07561111450195 92.53561401367188 5.775291286462579e-15
  endloop
endfacet
facet normal -1.004612415662649e-15 -7.070561866835459e-17 -1
  outer loop
    vertex 2.874387979507446 70.38402557373047 -1.732587428290421e-14
    vertex -3.552713678800501e-14 29.54363059997559 -1.155058257292516e-14
    vertex -3.552713678800501e-14 70.38402557373047 -1.732587428290421e-14
  endloop
endfacet
facet normal -1.004612415662649e-15 -7.070561866835459e-17 -1
  outer loop
    vertex -3.552713678800501e-14 29.54363059997559 -1.155058257292516e-14
    vertex 2.874387979507446 70.38402557373047 -1.732587428290421e-14
    vertex 2.874387979507446 29.54363059997559 -1.732587428290421e-14
  endloop
endfacet
facet normal 1 -3.749463751368693e-32 -1.014814821633208e-15
  outer loop
    vertex 2.874387979507446 70.38402557373047 -1.732587428290421e-14
    vertex 2.874387979507446 29.54363059997559 36.27999877929688
    vertex 2.874387979507446 29.54363059997559 -1.732587428290421e-14
  endloop
endfacet
facet normal 1 -3.749463751368693e-32 -1.014814821633208e-15
  outer loop
    vertex 2.874387979507446 29.54363059997559 36.27999877929688
    vertex 2.874387979507446 70.38402557373047 -1.732587428290421e-14
    vertex 2.874387979507446 70.38402557373047 36.27999877929688
  endloop
endfacet
facet normal -1 -1.077494564898312e-17 4.795307624290771e-16
  outer loop
    vertex 0 25.74363136291504 36.27999877929688
    vertex -3.552713678800501e-14 29.54363059997559 -1.155058257292516e-14
    vertex 0 25.74363136291504 -5.775291286462579e-15
  endloop
endfacet
facet normal -1 -1.077494564898312e-17 4.795307624290771e-16
  outer loop
    vertex -3.552713678800501e-14 29.54363059997559 -1.155058257292516e-14
    vertex 0 25.74363136291504 36.27999877929688
    vertex 0 72.13561248779297 36.27999877929688
  endloop
endfacet
facet normal -1 -1.077494564898312e-17 4.795307624290771e-16
  outer loop
    vertex -3.552713678800501e-14 29.54363059997559 -1.155058257292516e-14
    vertex 0 72.13561248779297 36.27999877929688
    vertex -3.552713678800501e-14 70.38402557373047 -1.732587428290421e-14
  endloop
endfacet
facet normal -1 -1.077494564898312e-17 4.795307624290771e-16
  outer loop
    vertex -3.552713678800501e-14 70.38402557373047 -1.732587428290421e-14
    vertex 0 72.13561248779297 36.27999877929688
    vertex 0 72.13561248779297 -5.775291286462579e-15
  endloop
endfacet
facet normal 2.270257145202582e-16 2.533490897709781e-16 -1
  outer loop
    vertex 34.89438629150391 95.41000366210938 2.88764564323129e-15
    vertex 33.09376525878906 72.13561248779297 -5.775291286462579e-15
    vertex 33.09376525878906 95.41000366210938 -5.775291286462579e-15
  endloop
endfacet
facet normal 2.270257145202582e-16 2.533490897709781e-16 -1
  outer loop
    vertex 0 72.13561248779297 -5.775291286462579e-15
    vertex 2.874387979507446 70.38402557373047 -1.732587428290421e-14
    vertex -3.552713678800501e-14 70.38402557373047 -1.732587428290421e-14
  endloop
endfacet
facet normal 2.270257145202582e-16 2.533490897709781e-16 -1
  outer loop
    vertex 2.874387979507446 70.38402557373047 -1.732587428290421e-14
    vertex 0 72.13561248779297 -5.775291286462579e-15
    vertex 33.09376525878906 72.13561248779297 -5.775291286462579e-15
  endloop
endfacet
facet normal 2.270257145202582e-16 2.533490897709781e-16 -1
  outer loop
    vertex 2.874387979507446 70.38402557373047 -1.732587428290421e-14
    vertex 33.09376525878906 72.13561248779297 -5.775291286462579e-15
    vertex 34.89438629150391 70.38402557373047 -5.775291286462579e-15
  endloop
endfacet
facet normal 2.270257145202582e-16 2.533490897709781e-16 -1
  outer loop
    vertex 34.89438629150391 70.38402557373047 -5.775291286462579e-15
    vertex 33.09376525878906 72.13561248779297 -5.775291286462579e-15
    vertex 34.89438629150391 95.41000366210938 2.88764564323129e-15
  endloop
endfacet
facet normal 2.270257145202582e-16 2.533490897709781e-16 -1
  outer loop
    vertex 34.89438629150391 70.38402557373047 -5.775291286462579e-15
    vertex 34.89438629150391 95.41000366210938 2.88764564323129e-15
    vertex 34.89438629150391 92.53561401367188 2.88764564323129e-15
  endloop
endfacet
facet normal -0 -1 -0
  outer loop
    vertex 34.89438629150391 70.38402557373047 -5.775291286462579e-15
    vertex 2.874387979507446 70.38402557373047 36.27999877929688
    vertex 2.874387979507446 70.38402557373047 -1.732587428290421e-14
  endloop
endfacet
facet normal -0 -1 -0
  outer loop
    vertex 2.874387979507446 70.38402557373047 36.27999877929688
    vertex 34.89438629150391 70.38402557373047 -5.775291286462579e-15
    vertex 34.89438629150391 70.38402557373047 36.27999877929688
  endloop
endfacet
facet normal 1 0 0
  outer loop
    vertex 34.89438629150391 92.53561401367188 2.88764564323129e-15
    vertex 34.89438629150391 70.38402557373047 36.27999877929688
    vertex 34.89438629150391 70.38402557373047 -5.775291286462579e-15
  endloop
endfacet
facet normal 1 0 0
  outer loop
    vertex 34.89438629150391 70.38402557373047 36.27999877929688
    vertex 34.89438629150391 92.53561401367188 2.88764564323129e-15
    vertex 34.89438629150391 92.53561401367188 36.27999877929688
  endloop
endfacet
facet normal 0 1 0
  outer loop
    vertex 33.09376525878906 95.41000366210938 36.27999877929688
    vertex 34.89438629150391 95.41000366210938 2.88764564323129e-15
    vertex 33.09376525878906 95.41000366210938 -5.775291286462579e-15
  endloop
endfacet
facet normal 0 1 0
  outer loop
    vertex 34.89438629150391 95.41000366210938 2.88764564323129e-15
    vertex 33.09376525878906 95.41000366210938 36.27999877929688
    vertex 34.89438629150391 95.41000366210938 36.27999877929688
  endloop
endfacet
facet normal -1 0 9.058344873046737e-18
  outer loop
    vertex 33.09376525878906 95.41000366210938 36.27999877929688
    vertex 33.09376525878906 72.13561248779297 -5.775291286462579e-15
    vertex 33.09376525878906 72.13561248779297 36.27999877929688
  endloop
endfacet
facet normal -1 0 9.058344873046737e-18
  outer loop
    vertex 33.09376525878906 72.13561248779297 -5.775291286462579e-15
    vertex 33.09376525878906 95.41000366210938 36.27999877929688
    vertex 33.09376525878906 95.41000366210938 -5.775291286462579e-15
  endloop
endfacet
facet normal 0 1 -1.501578980734041e-16
  outer loop
    vertex 0 72.13561248779297 36.27999877929688
    vertex 33.09376525878906 72.13561248779297 -5.775291286462579e-15
    vertex 0 72.13561248779297 -5.775291286462579e-15
  endloop
endfacet
facet normal 0 1 -1.501578980734041e-16
  outer loop
    vertex 33.09376525878906 72.13561248779297 -5.775291286462579e-15
    vertex 0 72.13561248779297 36.27999877929688
    vertex 33.09376525878906 72.13561248779297 36.27999877929688
  endloop
endfacet
facet normal 3.448684056834043e-16 1.89976699871636e-15 -1
  outer loop
    vertex 2.874387979507446 29.54363059997559 -1.732587428290421e-14
    vertex 0 25.74363136291504 -5.775291286462579e-15
    vertex -3.552713678800501e-14 29.54363059997559 -1.155058257292516e-14
  endloop
endfacet
facet normal 3.448684056834043e-16 1.89976699871636e-15 -1
  outer loop
    vertex 0 25.74363136291504 -5.775291286462579e-15
    vertex 2.874387979507446 29.54363059997559 -1.732587428290421e-14
    vertex 61.95000076293945 25.74363136291504 -5.775291286462579e-15
  endloop
endfacet
facet normal 3.448684056834043e-16 1.89976699871636e-15 -1
  outer loop
    vertex 61.95000076293945 25.74363136291504 -5.775291286462579e-15
    vertex 2.874387979507446 29.54363059997559 -1.732587428290421e-14
    vertex 59.07561111450195 29.54363059997559 1.732587428290421e-14
  endloop
endfacet
facet normal 3.448684056834043e-16 1.89976699871636e-15 -1
  outer loop
    vertex 61.95000076293945 25.74363136291504 -5.775291286462579e-15
    vertex 59.07561111450195 29.54363059997559 1.732587428290421e-14
    vertex 61.95000076293945 29.54363059997559 1.732587428290421e-14
  endloop
endfacet
facet normal 0 -1 3.799533838614043e-16
  outer loop
    vertex 61.95000076293945 25.74363136291504 36.27999877929688
    vertex 0 25.74363136291504 -5.775291286462579e-15
    vertex 61.95000076293945 25.74363136291504 -5.775291286462579e-15
  endloop
endfacet
facet normal 0 -1 3.799533838614043e-16
  outer loop
    vertex 0 25.74363136291504 -5.775291286462579e-15
    vertex 61.95000076293945 25.74363136291504 36.27999877929688
    vertex 0 25.74363136291504 36.27999877929688
  endloop
endfacet
facet normal 1 0 0
  outer loop
    vertex 61.95000076293945 29.54363059997559 1.732587428290421e-14
    vertex 61.95000076293945 25.74363136291504 36.27999877929688
    vertex 61.95000076293945 25.74363136291504 -5.775291286462579e-15
  endloop
endfacet
facet normal 1 0 0
  outer loop
    vertex 61.95000076293945 25.74363136291504 36.27999877929688
    vertex 61.95000076293945 29.54363059997559 1.732587428290421e-14
    vertex 61.95000076293945 95.41000366210938 36.27999877929688
  endloop
endfacet
facet normal 1 0 0
  outer loop
    vertex 61.95000076293945 95.41000366210938 36.27999877929688
    vertex 61.95000076293945 29.54363059997559 1.732587428290421e-14
    vertex 61.95000076293945 92.53561401367188 2.88764564323129e-15
  endloop
endfacet
facet normal 1 0 0
  outer loop
    vertex 61.95000076293945 95.41000366210938 36.27999877929688
    vertex 61.95000076293945 92.53561401367188 2.88764564323129e-15
    vertex 61.95000076293945 95.41000366210938 2.88764564323129e-15
  endloop
endfacet
facet normal -1.02760951899928e-16 1 4.617355915962155e-32
  outer loop
    vertex 2.874387979507446 29.54363059997559 36.27999877929688
    vertex 59.07561111450195 29.54363059997559 1.732587428290421e-14
    vertex 2.874387979507446 29.54363059997559 -1.732587428290421e-14
  endloop
endfacet
facet normal -1.02760951899928e-16 1 4.617355915962155e-32
  outer loop
    vertex 59.07561111450195 29.54363059997559 1.732587428290421e-14
    vertex 2.874387979507446 29.54363059997559 36.27999877929688
    vertex 59.07561111450195 29.54363059997559 36.27999877929688
  endloop
endfacet
endsolid com.sketchup.SketchUp.2019
