solid com.sketchup.SketchUp.2019
facet normal 8.215081176085604e-13 9.928860034494336e-13 -1
  outer loop
    vertex 13000 17413.408203125 21049.986328125
    vertex 6409.27294921875 11813.4072265625 21049.986328125
    vertex 6409.27294921875 17413.408203125 21049.986328125
  endloop
endfacet
facet normal 8.215081176085604e-13 9.928860034494336e-13 -1
  outer loop
    vertex 6409.27294921875 11813.4072265625 21049.986328125
    vertex 13000 17413.408203125 21049.986328125
    vertex 13000 11813.4072265625 21049.986328125
  endloop
endfacet
facet normal -8.215081176085604e-13 -9.928860034494336e-13 1
  outer loop
    vertex 13000 11813.4072265625 21449.986328125
    vertex 6409.27294921875 17413.408203125 21449.986328125
    vertex 6409.27294921875 11813.4072265625 21449.986328125
  endloop
endfacet
facet normal -8.215081176085604e-13 -9.928860034494336e-13 1
  outer loop
    vertex 6409.27294921875 17413.408203125 21449.986328125
    vertex 13000 11813.4072265625 21449.986328125
    vertex 13000 17413.408203125 21449.986328125
  endloop
endfacet
facet normal -1 2.139237933158997e-26 -8.215081176085604e-13
  outer loop
    vertex 6409.27294921875 17413.408203125 21449.986328125
    vertex 6409.27294921875 11813.4072265625 21049.986328125
    vertex 6409.27294921875 11813.4072265625 21449.986328125
  endloop
endfacet
facet normal -1 2.139237933158997e-26 -8.215081176085604e-13
  outer loop
    vertex 6409.27294921875 11813.4072265625 21049.986328125
    vertex 6409.27294921875 17413.408203125 21449.986328125
    vertex 6409.27294921875 17413.408203125 21049.986328125
  endloop
endfacet
facet normal -1.631327768572573e-24 1 9.928860034494336e-13
  outer loop
    vertex 6409.27294921875 17413.408203125 21449.986328125
    vertex 13000 17413.408203125 21049.986328125
    vertex 6409.27294921875 17413.408203125 21049.986328125
  endloop
endfacet
facet normal -1.631327768572573e-24 1 9.928860034494336e-13
  outer loop
    vertex 13000 17413.408203125 21049.986328125
    vertex 6409.27294921875 17413.408203125 21449.986328125
    vertex 13000 17413.408203125 21449.986328125
  endloop
endfacet
facet normal 1 -1.609935438544789e-24 8.215081176085604e-13
  outer loop
    vertex 13000 11813.4072265625 21049.986328125
    vertex 13000 17413.408203125 21449.986328125
    vertex 13000 11813.4072265625 21449.986328125
  endloop
endfacet
facet normal 1 -1.609935438544789e-24 8.215081176085604e-13
  outer loop
    vertex 13000 17413.408203125 21449.986328125
    vertex 13000 11813.4072265625 21049.986328125
    vertex 13000 17413.408203125 21049.986328125
  endloop
endfacet
facet normal -0 -1 -9.928860034494336e-13
  outer loop
    vertex 13000 11813.4072265625 21449.986328125
    vertex 6409.27294921875 11813.4072265625 21049.986328125
    vertex 13000 11813.4072265625 21049.986328125
  endloop
endfacet
facet normal -0 -1 -9.928860034494336e-13
  outer loop
    vertex 6409.27294921875 11813.4072265625 21049.986328125
    vertex 13000 11813.4072265625 21449.986328125
    vertex 6409.27294921875 11813.4072265625 21449.986328125
  endloop
endfacet
endsolid com.sketchup.SketchUp.2019
