solid com.sketchup.SketchUp.2019
facet normal 8.215081176085604e-13 9.928860034494336e-13 -1
  outer loop
    vertex 13017.9208984375 17413.361328125 24549.97265625
    vertex 6427.1943359375 11813.3603515625 24549.97265625
    vertex 6427.1943359375 17413.361328125 24549.97265625
  endloop
endfacet
facet normal 8.215081176085604e-13 9.928860034494336e-13 -1
  outer loop
    vertex 6427.1943359375 11813.3603515625 24549.97265625
    vertex 13017.9208984375 17413.361328125 24549.97265625
    vertex 13017.9208984375 11813.3603515625 24549.97265625
  endloop
endfacet
facet normal -8.215081176085604e-13 -9.928860034494336e-13 1
  outer loop
    vertex 13017.9208984375 11813.3603515625 24949.97265625
    vertex 6427.1943359375 17413.361328125 24949.97265625
    vertex 6427.1943359375 11813.3603515625 24949.97265625
  endloop
endfacet
facet normal -8.215081176085604e-13 -9.928860034494336e-13 1
  outer loop
    vertex 6427.1943359375 17413.361328125 24949.97265625
    vertex 13017.9208984375 11813.3603515625 24949.97265625
    vertex 13017.9208984375 17413.361328125 24949.97265625
  endloop
endfacet
facet normal -1 2.139237933158997e-26 -8.215081176085604e-13
  outer loop
    vertex 6427.1943359375 17413.361328125 24949.97265625
    vertex 6427.1943359375 11813.3603515625 24549.97265625
    vertex 6427.1943359375 11813.3603515625 24949.97265625
  endloop
endfacet
facet normal -1 2.139237933158997e-26 -8.215081176085604e-13
  outer loop
    vertex 6427.1943359375 11813.3603515625 24549.97265625
    vertex 6427.1943359375 17413.361328125 24949.97265625
    vertex 6427.1943359375 17413.361328125 24549.97265625
  endloop
endfacet
facet normal -1.631327768572573e-24 1 9.928860034494336e-13
  outer loop
    vertex 6427.1943359375 17413.361328125 24949.97265625
    vertex 13017.9208984375 17413.361328125 24549.97265625
    vertex 6427.1943359375 17413.361328125 24549.97265625
  endloop
endfacet
facet normal -1.631327768572573e-24 1 9.928860034494336e-13
  outer loop
    vertex 13017.9208984375 17413.361328125 24549.97265625
    vertex 6427.1943359375 17413.361328125 24949.97265625
    vertex 13017.9208984375 17413.361328125 24949.97265625
  endloop
endfacet
facet normal 1 -1.609935438544789e-24 8.215081176085604e-13
  outer loop
    vertex 13017.9208984375 11813.3603515625 24549.97265625
    vertex 13017.9208984375 17413.361328125 24949.97265625
    vertex 13017.9208984375 11813.3603515625 24949.97265625
  endloop
endfacet
facet normal 1 -1.609935438544789e-24 8.215081176085604e-13
  outer loop
    vertex 13017.9208984375 17413.361328125 24949.97265625
    vertex 13017.9208984375 11813.3603515625 24549.97265625
    vertex 13017.9208984375 17413.361328125 24549.97265625
  endloop
endfacet
facet normal -0 -1 -9.928860034494336e-13
  outer loop
    vertex 13017.9208984375 11813.3603515625 24949.97265625
    vertex 6427.1943359375 11813.3603515625 24549.97265625
    vertex 13017.9208984375 11813.3603515625 24549.97265625
  endloop
endfacet
facet normal -0 -1 -9.928860034494336e-13
  outer loop
    vertex 6427.1943359375 11813.3603515625 24549.97265625
    vertex 13017.9208984375 11813.3603515625 24949.97265625
    vertex 6427.1943359375 11813.3603515625 24949.97265625
  endloop
endfacet
endsolid com.sketchup.SketchUp.2019
