solid com.sketchup.SketchUp.2019
facet normal 8.215081176085604e-13 9.928860034494336e-13 -1
  outer loop
    vertex 15290.71484375 19880.7265625 3100.013427734375
    vertex 8699.98828125 14280.7255859375 3100.013427734375
    vertex 8699.98828125 19880.7265625 3100.013427734375
  endloop
endfacet
facet normal 8.215081176085604e-13 9.928860034494336e-13 -1
  outer loop
    vertex 8699.98828125 14280.7255859375 3100.013427734375
    vertex 15290.71484375 19880.7265625 3100.013427734375
    vertex 15290.71484375 14280.7255859375 3100.013427734375
  endloop
endfacet
facet normal -8.215081176085604e-13 -9.928860034494336e-13 1
  outer loop
    vertex 15290.71484375 14280.7255859375 3500.013427734375
    vertex 8699.98828125 19880.7265625 3500.013427734375
    vertex 8699.98828125 14280.7255859375 3500.013427734375
  endloop
endfacet
facet normal -8.215081176085604e-13 -9.928860034494336e-13 1
  outer loop
    vertex 8699.98828125 19880.7265625 3500.013427734375
    vertex 15290.71484375 14280.7255859375 3500.013427734375
    vertex 15290.71484375 19880.7265625 3500.013427734375
  endloop
endfacet
facet normal -1 2.139237933158997e-26 -8.215081176085604e-13
  outer loop
    vertex 8699.98828125 19880.7265625 3500.013427734375
    vertex 8699.98828125 14280.7255859375 3100.013427734375
    vertex 8699.98828125 14280.7255859375 3500.013427734375
  endloop
endfacet
facet normal -1 2.139237933158997e-26 -8.215081176085604e-13
  outer loop
    vertex 8699.98828125 14280.7255859375 3100.013427734375
    vertex 8699.98828125 19880.7265625 3500.013427734375
    vertex 8699.98828125 19880.7265625 3100.013427734375
  endloop
endfacet
facet normal -1.631327768572573e-24 1 9.928860034494336e-13
  outer loop
    vertex 8699.98828125 19880.7265625 3500.013427734375
    vertex 15290.71484375 19880.7265625 3100.013427734375
    vertex 8699.98828125 19880.7265625 3100.013427734375
  endloop
endfacet
facet normal -1.631327768572573e-24 1 9.928860034494336e-13
  outer loop
    vertex 15290.71484375 19880.7265625 3100.013427734375
    vertex 8699.98828125 19880.7265625 3500.013427734375
    vertex 15290.71484375 19880.7265625 3500.013427734375
  endloop
endfacet
facet normal 1 -1.609935438544789e-24 8.215081176085604e-13
  outer loop
    vertex 15290.71484375 14280.7255859375 3100.013427734375
    vertex 15290.71484375 19880.7265625 3500.013427734375
    vertex 15290.71484375 14280.7255859375 3500.013427734375
  endloop
endfacet
facet normal 1 -1.609935438544789e-24 8.215081176085604e-13
  outer loop
    vertex 15290.71484375 19880.7265625 3500.013427734375
    vertex 15290.71484375 14280.7255859375 3100.013427734375
    vertex 15290.71484375 19880.7265625 3100.013427734375
  endloop
endfacet
facet normal -0 -1 -9.928860034494336e-13
  outer loop
    vertex 15290.71484375 14280.7255859375 3500.013427734375
    vertex 8699.98828125 14280.7255859375 3100.013427734375
    vertex 15290.71484375 14280.7255859375 3100.013427734375
  endloop
endfacet
facet normal -0 -1 -9.928860034494336e-13
  outer loop
    vertex 8699.98828125 14280.7255859375 3100.013427734375
    vertex 15290.71484375 14280.7255859375 3500.013427734375
    vertex 8699.98828125 14280.7255859375 3500.013427734375
  endloop
endfacet
endsolid com.sketchup.SketchUp.2019
