solid com.sketchup.SketchUp.2019
facet normal 1.265532546378817e-13 -1.49152053013045e-13 -1
  outer loop
    vertex 13000 17355.26171875 10550
    vertex 6100 11656.01171875 10550
    vertex 6100 17355.26171875 10550
  endloop
endfacet
facet normal 1.265532546378817e-13 -1.49152053013045e-13 -1
  outer loop
    vertex 6100 11656.01171875 10550
    vertex 13000 17355.26171875 10550
    vertex 13000 11656.01171875 10550
  endloop
endfacet
facet normal -1.265532546378817e-13 1.49152053013045e-13 1
  outer loop
    vertex 13000 11656.01171875 10950
    vertex 6100 17355.26171875 10950
    vertex 6100 11656.01171875 10950
  endloop
endfacet
facet normal -1.265532546378817e-13 1.49152053013045e-13 1
  outer loop
    vertex 6100 17355.26171875 10950
    vertex 13000 11656.01171875 10950
    vertex 13000 17355.26171875 10950
  endloop
endfacet
facet normal 0 -1 1.49152053013045e-13
  outer loop
    vertex 13000 11656.01171875 10550
    vertex 6100 11656.01171875 10950
    vertex 6100 11656.01171875 10550
  endloop
endfacet
facet normal 0 -1 1.49152053013045e-13
  outer loop
    vertex 6100 11656.01171875 10950
    vertex 13000 11656.01171875 10550
    vertex 13000 11656.01171875 10950
  endloop
endfacet
facet normal 1 0 1.265532546378817e-13
  outer loop
    vertex 13000 17355.26171875 10550
    vertex 13000 11656.01171875 10950
    vertex 13000 11656.01171875 10550
  endloop
endfacet
facet normal 1 0 1.265532546378817e-13
  outer loop
    vertex 13000 11656.01171875 10950
    vertex 13000 17355.26171875 10550
    vertex 13000 17355.26171875 10950
  endloop
endfacet
facet normal 3.775135770170742e-26 1 -1.49152053013045e-13
  outer loop
    vertex 6100 17355.26171875 10950
    vertex 13000 17355.26171875 10550
    vertex 6100 17355.26171875 10550
  endloop
endfacet
facet normal 3.775135770170742e-26 1 -1.49152053013045e-13
  outer loop
    vertex 13000 17355.26171875 10550
    vertex 6100 17355.26171875 10950
    vertex 13000 17355.26171875 10950
  endloop
endfacet
facet normal -1 -3.775135770170742e-26 -1.265532546378817e-13
  outer loop
    vertex 6100 11656.01171875 10950
    vertex 6100 17355.26171875 10550
    vertex 6100 11656.01171875 10550
  endloop
endfacet
facet normal -1 -3.775135770170742e-26 -1.265532546378817e-13
  outer loop
    vertex 6100 17355.26171875 10550
    vertex 6100 11656.01171875 10950
    vertex 6100 17355.26171875 10950
  endloop
endfacet
endsolid com.sketchup.SketchUp.2019
