solid com.sketchup.SketchUp.2019
facet normal 1.549042469815853e-13 -1.050979592118412e-14 -1
  outer loop
    vertex 12920.3916015625 17291.083984375 7050
    vertex 6199.67138671875 11691.2294921875 7050
    vertex 6199.67138671875 17291.083984375 7050
  endloop
endfacet
facet normal 1.549042469815853e-13 -1.050979592118412e-14 -1
  outer loop
    vertex 6199.67138671875 11691.2294921875 7050
    vertex 12920.3916015625 17291.083984375 7050
    vertex 7161.111328125 11691.2294921875 7050
  endloop
endfacet
facet normal 1.549042469815853e-13 -1.050979592118412e-14 -1
  outer loop
    vertex 7161.111328125 11691.2294921875 7050
    vertex 12920.3916015625 17291.083984375 7050
    vertex 12920.3916015625 11691.2294921875 7050
  endloop
endfacet
facet normal 1.549042469815853e-13 -1.050979592118412e-14 -1
  outer loop
    vertex 12920.3916015625 11691.2294921875 7050
    vertex 12920.3916015625 17291.083984375 7050
    vertex 12920.3916015625 17090.01171875 7050
  endloop
endfacet
facet normal -1.549042469815853e-13 1.050979592118412e-14 1
  outer loop
    vertex 7161.111328125 11691.2294921875 7450
    vertex 6199.67138671875 17291.083984375 7450
    vertex 6199.67138671875 11691.2294921875 7450
  endloop
endfacet
facet normal -1.549042469815853e-13 1.050979592118412e-14 1
  outer loop
    vertex 6199.67138671875 17291.083984375 7450
    vertex 7161.111328125 11691.2294921875 7450
    vertex 12920.3916015625 17291.083984375 7450
  endloop
endfacet
facet normal -1.549042469815853e-13 1.050979592118412e-14 1
  outer loop
    vertex 12920.3916015625 17291.083984375 7450
    vertex 7161.111328125 11691.2294921875 7450
    vertex 12920.3916015625 11691.2294921875 7450
  endloop
endfacet
facet normal -1.549042469815853e-13 1.050979592118412e-14 1
  outer loop
    vertex 12920.3916015625 17291.083984375 7450
    vertex 12920.3916015625 11691.2294921875 7450
    vertex 12920.3916015625 17090.01171875 7450
  endloop
endfacet
facet normal -8.597742309768286e-12 -1 1.075211934189937e-14
  outer loop
    vertex 7161.111328125 11691.2294921875 7050
    vertex 6199.67138671875 11691.2294921875 7450
    vertex 6199.67138671875 11691.2294921875 7050
  endloop
endfacet
facet normal -8.597742309768286e-12 -1 1.075211934189937e-14
  outer loop
    vertex 6199.67138671875 11691.2294921875 7450
    vertex 7161.111328125 11691.2294921875 7050
    vertex 7161.111328125 11691.2294921875 7450
  endloop
endfacet
facet normal 1.290897401994007e-12 -1 1.075211934189937e-14
  outer loop
    vertex 12920.3916015625 11691.2294921875 7050
    vertex 7161.111328125 11691.2294921875 7450
    vertex 7161.111328125 11691.2294921875 7050
  endloop
endfacet
facet normal 1.290897401994007e-12 -1 1.075211934189937e-14
  outer loop
    vertex 7161.111328125 11691.2294921875 7450
    vertex 12920.3916015625 11691.2294921875 7050
    vertex 12920.3916015625 11691.2294921875 7450
  endloop
endfacet
facet normal 1 -4.318673511253396e-13 1.680818705789358e-13
  outer loop
    vertex 12920.3916015625 17090.01171875 7050
    vertex 12920.3916015625 11691.2294921875 7450
    vertex 12920.3916015625 11691.2294921875 7050
  endloop
endfacet
facet normal 1 -4.318673511253396e-13 1.680818705789358e-13
  outer loop
    vertex 12920.3916015625 11691.2294921875 7450
    vertex 12920.3916015625 17090.01171875 7050
    vertex 12920.3916015625 17090.01171875 7450
  endloop
endfacet
facet normal 1 0 1.680818705789358e-13
  outer loop
    vertex 12920.3916015625 17291.083984375 7050
    vertex 12920.3916015625 17090.01171875 7450
    vertex 12920.3916015625 17090.01171875 7050
  endloop
endfacet
facet normal 1 0 1.680818705789358e-13
  outer loop
    vertex 12920.3916015625 17090.01171875 7450
    vertex 12920.3916015625 17291.083984375 7050
    vertex 12920.3916015625 17291.083984375 7450
  endloop
endfacet
facet normal -1.441425112602701e-08 1 -1.075212188299821e-14
  outer loop
    vertex 6199.67138671875 17291.083984375 7450
    vertex 12920.3916015625 17291.083984375 7050
    vertex 6199.67138671875 17291.083984375 7050
  endloop
endfacet
facet normal -1.441425112602701e-08 1 -1.075212188299821e-14
  outer loop
    vertex 12920.3916015625 17291.083984375 7050
    vertex 6199.67138671875 17291.083984375 7450
    vertex 12920.3916015625 17291.083984375 7450
  endloop
endfacet
facet normal -1 -0 -1.680818705789358e-13
  outer loop
    vertex 6199.67138671875 11691.2294921875 7450
    vertex 6199.67138671875 17291.083984375 7050
    vertex 6199.67138671875 11691.2294921875 7050
  endloop
endfacet
facet normal -1 -0 -1.680818705789358e-13
  outer loop
    vertex 6199.67138671875 17291.083984375 7050
    vertex 6199.67138671875 11691.2294921875 7450
    vertex 6199.67138671875 17291.083984375 7450
  endloop
endfacet
endsolid com.sketchup.SketchUp.2019
