solid com.sketchup.SketchUp.2019
facet normal 8.215081176085604e-13 9.928860034494336e-13 -1
  outer loop
    vertex 12982.0791015625 17413.455078125 17550
    vertex 6391.3515625 11813.4541015625 17550
    vertex 6391.3515625 17413.455078125 17550
  endloop
endfacet
facet normal 8.215081176085604e-13 9.928860034494336e-13 -1
  outer loop
    vertex 6391.3515625 11813.4541015625 17550
    vertex 12982.0791015625 17413.455078125 17550
    vertex 12982.0791015625 11813.4541015625 17550
  endloop
endfacet
facet normal -8.215081176085604e-13 -9.928860034494336e-13 1
  outer loop
    vertex 12982.0791015625 11813.4541015625 17950
    vertex 6391.3515625 17413.455078125 17950
    vertex 6391.3515625 11813.4541015625 17950
  endloop
endfacet
facet normal -8.215081176085604e-13 -9.928860034494336e-13 1
  outer loop
    vertex 6391.3515625 17413.455078125 17950
    vertex 12982.0791015625 11813.4541015625 17950
    vertex 12982.0791015625 17413.455078125 17950
  endloop
endfacet
facet normal -1 2.139237933158997e-26 -8.215081176085604e-13
  outer loop
    vertex 6391.3515625 17413.455078125 17950
    vertex 6391.3515625 11813.4541015625 17550
    vertex 6391.3515625 11813.4541015625 17950
  endloop
endfacet
facet normal -1 2.139237933158997e-26 -8.215081176085604e-13
  outer loop
    vertex 6391.3515625 11813.4541015625 17550
    vertex 6391.3515625 17413.455078125 17950
    vertex 6391.3515625 17413.455078125 17550
  endloop
endfacet
facet normal -1.631327768572573e-24 1 9.928860034494336e-13
  outer loop
    vertex 6391.3515625 17413.455078125 17950
    vertex 12982.0791015625 17413.455078125 17550
    vertex 6391.3515625 17413.455078125 17550
  endloop
endfacet
facet normal -1.631327768572573e-24 1 9.928860034494336e-13
  outer loop
    vertex 12982.0791015625 17413.455078125 17550
    vertex 6391.3515625 17413.455078125 17950
    vertex 12982.0791015625 17413.455078125 17950
  endloop
endfacet
facet normal 1 -1.609935438544789e-24 8.215081176085604e-13
  outer loop
    vertex 12982.0791015625 11813.4541015625 17550
    vertex 12982.0791015625 17413.455078125 17950
    vertex 12982.0791015625 11813.4541015625 17950
  endloop
endfacet
facet normal 1 -1.609935438544789e-24 8.215081176085604e-13
  outer loop
    vertex 12982.0791015625 17413.455078125 17950
    vertex 12982.0791015625 11813.4541015625 17550
    vertex 12982.0791015625 17413.455078125 17550
  endloop
endfacet
facet normal -0 -1 -9.928860034494336e-13
  outer loop
    vertex 12982.0791015625 11813.4541015625 17950
    vertex 6391.3515625 11813.4541015625 17550
    vertex 12982.0791015625 11813.4541015625 17550
  endloop
endfacet
facet normal -0 -1 -9.928860034494336e-13
  outer loop
    vertex 6391.3515625 11813.4541015625 17550
    vertex 12982.0791015625 11813.4541015625 17950
    vertex 6391.3515625 11813.4541015625 17950
  endloop
endfacet
endsolid com.sketchup.SketchUp.2019
