solid com.sketchup.SketchUp.2019
facet normal 8.215081176085604e-13 9.928860034494336e-13 -1
  outer loop
    vertex 12943.1962890625 17716.59375 45699.97265625
    vertex 6352.4697265625 12116.5947265625 45699.97265625
    vertex 6352.4697265625 17716.59375 45699.97265625
  endloop
endfacet
facet normal 8.215081176085604e-13 9.928860034494336e-13 -1
  outer loop
    vertex 6352.4697265625 12116.5947265625 45699.97265625
    vertex 12943.1962890625 17716.59375 45699.97265625
    vertex 12943.1962890625 12116.5947265625 45699.97265625
  endloop
endfacet
facet normal -8.215081176085604e-13 -9.928860034494336e-13 1
  outer loop
    vertex 12943.1962890625 12116.5947265625 46999.95703125
    vertex 6352.4697265625 17716.59375 46999.95703125
    vertex 6352.4697265625 12116.5947265625 46999.95703125
  endloop
endfacet
facet normal -8.215081176085604e-13 -9.928860034494336e-13 1
  outer loop
    vertex 6352.4697265625 17716.59375 46999.95703125
    vertex 12943.1962890625 12116.5947265625 46999.95703125
    vertex 12943.1962890625 17716.59375 46999.95703125
  endloop
endfacet
facet normal -1 2.139237933158997e-26 -8.215081176085604e-13
  outer loop
    vertex 6352.4697265625 17716.59375 46999.95703125
    vertex 6352.4697265625 12116.5947265625 45699.97265625
    vertex 6352.4697265625 12116.5947265625 46999.95703125
  endloop
endfacet
facet normal -1 2.139237933158997e-26 -8.215081176085604e-13
  outer loop
    vertex 6352.4697265625 12116.5947265625 45699.97265625
    vertex 6352.4697265625 17716.59375 46999.95703125
    vertex 6352.4697265625 17716.59375 45699.97265625
  endloop
endfacet
facet normal -1.631327768572573e-24 1 9.928860034494336e-13
  outer loop
    vertex 6352.4697265625 17716.59375 46999.95703125
    vertex 12943.1962890625 17716.59375 45699.97265625
    vertex 6352.4697265625 17716.59375 45699.97265625
  endloop
endfacet
facet normal -1.631327768572573e-24 1 9.928860034494336e-13
  outer loop
    vertex 12943.1962890625 17716.59375 45699.97265625
    vertex 6352.4697265625 17716.59375 46999.95703125
    vertex 12943.1962890625 17716.59375 46999.95703125
  endloop
endfacet
facet normal 1 -1.609935438544789e-24 8.215081176085604e-13
  outer loop
    vertex 12943.1962890625 12116.5947265625 45699.97265625
    vertex 12943.1962890625 17716.59375 46999.95703125
    vertex 12943.1962890625 12116.5947265625 46999.95703125
  endloop
endfacet
facet normal 1 -1.609935438544789e-24 8.215081176085604e-13
  outer loop
    vertex 12943.1962890625 17716.59375 46999.95703125
    vertex 12943.1962890625 12116.5947265625 45699.97265625
    vertex 12943.1962890625 17716.59375 45699.97265625
  endloop
endfacet
facet normal -0 -1 -9.928860034494336e-13
  outer loop
    vertex 12943.1962890625 12116.5947265625 46999.95703125
    vertex 6352.4697265625 12116.5947265625 45699.97265625
    vertex 12943.1962890625 12116.5947265625 45699.97265625
  endloop
endfacet
facet normal -0 -1 -9.928860034494336e-13
  outer loop
    vertex 6352.4697265625 12116.5947265625 45699.97265625
    vertex 12943.1962890625 12116.5947265625 46999.95703125
    vertex 6352.4697265625 12116.5947265625 46999.95703125
  endloop
endfacet
endsolid com.sketchup.SketchUp.2019
