solid com.sketchup.SketchUp.2019
facet normal 1.549042469815853e-13 -1.050979592118412e-14 -1
  outer loop
    vertex 13079.232421875 19852.173828125 4620
    vertex 6358.5126953125 14252.318359375 4620
    vertex 6358.5126953125 19852.173828125 4620
  endloop
endfacet
facet normal 1.549042469815853e-13 -1.050979592118412e-14 -1
  outer loop
    vertex 6358.5126953125 14252.318359375 4620
    vertex 13079.232421875 19852.173828125 4620
    vertex 7319.95263671875 14252.318359375 4620
  endloop
endfacet
facet normal 1.549042469815853e-13 -1.050979592118412e-14 -1
  outer loop
    vertex 7319.95263671875 14252.318359375 4620
    vertex 13079.232421875 19852.173828125 4620
    vertex 13079.232421875 14252.318359375 4620
  endloop
endfacet
facet normal 1.549042469815853e-13 -1.050979592118412e-14 -1
  outer loop
    vertex 13079.232421875 14252.318359375 4620
    vertex 13079.232421875 19852.173828125 4620
    vertex 13079.232421875 19651.099609375 4620
  endloop
endfacet
facet normal -1.549042469815853e-13 1.050979592118412e-14 1
  outer loop
    vertex 7319.95263671875 14252.318359375 5020
    vertex 6358.5126953125 19852.173828125 5020
    vertex 6358.5126953125 14252.318359375 5020
  endloop
endfacet
facet normal -1.549042469815853e-13 1.050979592118412e-14 1
  outer loop
    vertex 6358.5126953125 19852.173828125 5020
    vertex 7319.95263671875 14252.318359375 5020
    vertex 13079.232421875 19852.173828125 5020
  endloop
endfacet
facet normal -1.549042469815853e-13 1.050979592118412e-14 1
  outer loop
    vertex 13079.232421875 19852.173828125 5020
    vertex 7319.95263671875 14252.318359375 5020
    vertex 13079.232421875 14252.318359375 5020
  endloop
endfacet
facet normal -1.549042469815853e-13 1.050979592118412e-14 1
  outer loop
    vertex 13079.232421875 19852.173828125 5020
    vertex 13079.232421875 14252.318359375 5020
    vertex 13079.232421875 19651.099609375 5020
  endloop
endfacet
facet normal -8.597742309768286e-12 -1 1.075211934189937e-14
  outer loop
    vertex 7319.95263671875 14252.318359375 4620
    vertex 6358.5126953125 14252.318359375 5020
    vertex 6358.5126953125 14252.318359375 4620
  endloop
endfacet
facet normal -8.597742309768286e-12 -1 1.075211934189937e-14
  outer loop
    vertex 6358.5126953125 14252.318359375 5020
    vertex 7319.95263671875 14252.318359375 4620
    vertex 7319.95263671875 14252.318359375 5020
  endloop
endfacet
facet normal 1.290897401994007e-12 -1 1.075211934189937e-14
  outer loop
    vertex 13079.232421875 14252.318359375 4620
    vertex 7319.95263671875 14252.318359375 5020
    vertex 7319.95263671875 14252.318359375 4620
  endloop
endfacet
facet normal 1.290897401994007e-12 -1 1.075211934189937e-14
  outer loop
    vertex 7319.95263671875 14252.318359375 5020
    vertex 13079.232421875 14252.318359375 4620
    vertex 13079.232421875 14252.318359375 5020
  endloop
endfacet
facet normal 1 -4.318673511253396e-13 1.680818705789358e-13
  outer loop
    vertex 13079.232421875 19651.099609375 4620
    vertex 13079.232421875 14252.318359375 5020
    vertex 13079.232421875 14252.318359375 4620
  endloop
endfacet
facet normal 1 -4.318673511253396e-13 1.680818705789358e-13
  outer loop
    vertex 13079.232421875 14252.318359375 5020
    vertex 13079.232421875 19651.099609375 4620
    vertex 13079.232421875 19651.099609375 5020
  endloop
endfacet
facet normal 1 0 1.680818705789358e-13
  outer loop
    vertex 13079.232421875 19852.173828125 4620
    vertex 13079.232421875 19651.099609375 5020
    vertex 13079.232421875 19651.099609375 4620
  endloop
endfacet
facet normal 1 0 1.680818705789358e-13
  outer loop
    vertex 13079.232421875 19651.099609375 5020
    vertex 13079.232421875 19852.173828125 4620
    vertex 13079.232421875 19852.173828125 5020
  endloop
endfacet
facet normal -1.441425112602701e-08 1 -1.075212188299821e-14
  outer loop
    vertex 6358.5126953125 19852.173828125 5020
    vertex 13079.232421875 19852.173828125 4620
    vertex 6358.5126953125 19852.173828125 4620
  endloop
endfacet
facet normal -1.441425112602701e-08 1 -1.075212188299821e-14
  outer loop
    vertex 13079.232421875 19852.173828125 4620
    vertex 6358.5126953125 19852.173828125 5020
    vertex 13079.232421875 19852.173828125 5020
  endloop
endfacet
facet normal -1 -0 -1.680818705789358e-13
  outer loop
    vertex 6358.5126953125 14252.318359375 5020
    vertex 6358.5126953125 19852.173828125 4620
    vertex 6358.5126953125 14252.318359375 4620
  endloop
endfacet
facet normal -1 -0 -1.680818705789358e-13
  outer loop
    vertex 6358.5126953125 19852.173828125 4620
    vertex 6358.5126953125 14252.318359375 5020
    vertex 6358.5126953125 19852.173828125 5020
  endloop
endfacet
endsolid com.sketchup.SketchUp.2019
