solid com.sketchup.SketchUp.2019
facet normal 1.265532546378817e-13 -1.49152053013045e-13 -1
  outer loop
    vertex 15455.3427734375 20004.25 3100
    vertex 8555.3427734375 14305 3100
    vertex 8555.3427734375 20004.25 3100
  endloop
endfacet
facet normal 1.265532546378817e-13 -1.49152053013045e-13 -1
  outer loop
    vertex 8555.3427734375 14305 3100
    vertex 15455.3427734375 20004.25 3100
    vertex 15455.3427734375 14305 3100
  endloop
endfacet
facet normal -1.265532546378817e-13 1.49152053013045e-13 1
  outer loop
    vertex 15455.3427734375 14305 3500
    vertex 8555.3427734375 20004.25 3500
    vertex 8555.3427734375 14305 3500
  endloop
endfacet
facet normal -1.265532546378817e-13 1.49152053013045e-13 1
  outer loop
    vertex 8555.3427734375 20004.25 3500
    vertex 15455.3427734375 14305 3500
    vertex 15455.3427734375 20004.25 3500
  endloop
endfacet
facet normal 0 -1 1.49152053013045e-13
  outer loop
    vertex 15455.3427734375 14305 3100
    vertex 8555.3427734375 14305 3500
    vertex 8555.3427734375 14305 3100
  endloop
endfacet
facet normal 0 -1 1.49152053013045e-13
  outer loop
    vertex 8555.3427734375 14305 3500
    vertex 15455.3427734375 14305 3100
    vertex 15455.3427734375 14305 3500
  endloop
endfacet
facet normal 1 0 1.265532546378817e-13
  outer loop
    vertex 15455.3427734375 20004.25 3100
    vertex 15455.3427734375 14305 3500
    vertex 15455.3427734375 14305 3100
  endloop
endfacet
facet normal 1 0 1.265532546378817e-13
  outer loop
    vertex 15455.3427734375 14305 3500
    vertex 15455.3427734375 20004.25 3100
    vertex 15455.3427734375 20004.25 3500
  endloop
endfacet
facet normal 3.775135770170742e-26 1 -1.49152053013045e-13
  outer loop
    vertex 8555.3427734375 20004.25 3500
    vertex 15455.3427734375 20004.25 3100
    vertex 8555.3427734375 20004.25 3100
  endloop
endfacet
facet normal 3.775135770170742e-26 1 -1.49152053013045e-13
  outer loop
    vertex 15455.3427734375 20004.25 3100
    vertex 8555.3427734375 20004.25 3500
    vertex 15455.3427734375 20004.25 3500
  endloop
endfacet
facet normal -1 -3.775135770170742e-26 -1.265532546378817e-13
  outer loop
    vertex 8555.3427734375 14305 3500
    vertex 8555.3427734375 20004.25 3100
    vertex 8555.3427734375 14305 3100
  endloop
endfacet
facet normal -1 -3.775135770170742e-26 -1.265532546378817e-13
  outer loop
    vertex 8555.3427734375 20004.25 3100
    vertex 8555.3427734375 14305 3500
    vertex 8555.3427734375 20004.25 3500
  endloop
endfacet
endsolid com.sketchup.SketchUp.2019
