solid com.sketchup.SketchUp.2019
facet normal 8.215081176085604e-13 9.928860034494336e-13 -1
  outer loop
    vertex 13000 17354.26171875 14050
    vertex 6409.27294921875 11754.26171875 14050
    vertex 6409.27294921875 17354.26171875 14050
  endloop
endfacet
facet normal 8.215081176085604e-13 9.928860034494336e-13 -1
  outer loop
    vertex 6409.27294921875 11754.26171875 14050
    vertex 13000 17354.26171875 14050
    vertex 13000 11754.26171875 14050
  endloop
endfacet
facet normal -8.215081176085604e-13 -9.928860034494336e-13 1
  outer loop
    vertex 13000 11754.26171875 14450
    vertex 6409.27294921875 17354.26171875 14450
    vertex 6409.27294921875 11754.26171875 14450
  endloop
endfacet
facet normal -8.215081176085604e-13 -9.928860034494336e-13 1
  outer loop
    vertex 6409.27294921875 17354.26171875 14450
    vertex 13000 11754.26171875 14450
    vertex 13000 17354.26171875 14450
  endloop
endfacet
facet normal -1 2.139237933158997e-26 -8.215081176085604e-13
  outer loop
    vertex 6409.27294921875 17354.26171875 14450
    vertex 6409.27294921875 11754.26171875 14050
    vertex 6409.27294921875 11754.26171875 14450
  endloop
endfacet
facet normal -1 2.139237933158997e-26 -8.215081176085604e-13
  outer loop
    vertex 6409.27294921875 11754.26171875 14050
    vertex 6409.27294921875 17354.26171875 14450
    vertex 6409.27294921875 17354.26171875 14050
  endloop
endfacet
facet normal -1.631327768572573e-24 1 9.928860034494336e-13
  outer loop
    vertex 6409.27294921875 17354.26171875 14450
    vertex 13000 17354.26171875 14050
    vertex 6409.27294921875 17354.26171875 14050
  endloop
endfacet
facet normal -1.631327768572573e-24 1 9.928860034494336e-13
  outer loop
    vertex 13000 17354.26171875 14050
    vertex 6409.27294921875 17354.26171875 14450
    vertex 13000 17354.26171875 14450
  endloop
endfacet
facet normal 1 -1.609935438544789e-24 8.215081176085604e-13
  outer loop
    vertex 13000 11754.26171875 14050
    vertex 13000 17354.26171875 14450
    vertex 13000 11754.26171875 14450
  endloop
endfacet
facet normal 1 -1.609935438544789e-24 8.215081176085604e-13
  outer loop
    vertex 13000 17354.26171875 14450
    vertex 13000 11754.26171875 14050
    vertex 13000 17354.26171875 14050
  endloop
endfacet
facet normal -0 -1 -9.928860034494336e-13
  outer loop
    vertex 13000 11754.26171875 14450
    vertex 6409.27294921875 11754.26171875 14050
    vertex 13000 11754.26171875 14050
  endloop
endfacet
facet normal -0 -1 -9.928860034494336e-13
  outer loop
    vertex 6409.27294921875 11754.26171875 14050
    vertex 13000 11754.26171875 14450
    vertex 6409.27294921875 11754.26171875 14450
  endloop
endfacet
endsolid com.sketchup.SketchUp.2019
