solid com.sketchup.SketchUp.2019
facet normal 8.215081176085604e-13 9.928860034494336e-13 -1
  outer loop
    vertex 15358.8447265625 19962.384765625 3100
    vertex 8768.1171875 14362.3837890625 3100
    vertex 8768.1171875 19962.384765625 3100
  endloop
endfacet
facet normal 8.215081176085604e-13 9.928860034494336e-13 -1
  outer loop
    vertex 8768.1171875 14362.3837890625 3100
    vertex 15358.8447265625 19962.384765625 3100
    vertex 15358.8447265625 14362.3837890625 3100
  endloop
endfacet
facet normal -8.215081176085604e-13 -9.928860034494336e-13 1
  outer loop
    vertex 15358.8447265625 14362.3837890625 3500
    vertex 8768.1171875 19962.384765625 3500
    vertex 8768.1171875 14362.3837890625 3500
  endloop
endfacet
facet normal -8.215081176085604e-13 -9.928860034494336e-13 1
  outer loop
    vertex 8768.1171875 19962.384765625 3500
    vertex 15358.8447265625 14362.3837890625 3500
    vertex 15358.8447265625 19962.384765625 3500
  endloop
endfacet
facet normal -1 2.139237933158997e-26 -8.215081176085604e-13
  outer loop
    vertex 8768.1171875 19962.384765625 3500
    vertex 8768.1171875 14362.3837890625 3100
    vertex 8768.1171875 14362.3837890625 3500
  endloop
endfacet
facet normal -1 2.139237933158997e-26 -8.215081176085604e-13
  outer loop
    vertex 8768.1171875 14362.3837890625 3100
    vertex 8768.1171875 19962.384765625 3500
    vertex 8768.1171875 19962.384765625 3100
  endloop
endfacet
facet normal -1.631327768572573e-24 1 9.928860034494336e-13
  outer loop
    vertex 8768.1171875 19962.384765625 3500
    vertex 15358.8447265625 19962.384765625 3100
    vertex 8768.1171875 19962.384765625 3100
  endloop
endfacet
facet normal -1.631327768572573e-24 1 9.928860034494336e-13
  outer loop
    vertex 15358.8447265625 19962.384765625 3100
    vertex 8768.1171875 19962.384765625 3500
    vertex 15358.8447265625 19962.384765625 3500
  endloop
endfacet
facet normal 1 -1.609935438544789e-24 8.215081176085604e-13
  outer loop
    vertex 15358.8447265625 14362.3837890625 3100
    vertex 15358.8447265625 19962.384765625 3500
    vertex 15358.8447265625 14362.3837890625 3500
  endloop
endfacet
facet normal 1 -1.609935438544789e-24 8.215081176085604e-13
  outer loop
    vertex 15358.8447265625 19962.384765625 3500
    vertex 15358.8447265625 14362.3837890625 3100
    vertex 15358.8447265625 19962.384765625 3100
  endloop
endfacet
facet normal -0 -1 -9.928860034494336e-13
  outer loop
    vertex 15358.8447265625 14362.3837890625 3500
    vertex 8768.1171875 14362.3837890625 3100
    vertex 15358.8447265625 14362.3837890625 3100
  endloop
endfacet
facet normal -0 -1 -9.928860034494336e-13
  outer loop
    vertex 8768.1171875 14362.3837890625 3100
    vertex 15358.8447265625 14362.3837890625 3500
    vertex 8768.1171875 14362.3837890625 3500
  endloop
endfacet
endsolid com.sketchup.SketchUp.2019
