solid com.sketchup.SketchUp.2019
facet normal 0 0 -1
  outer loop
    vertex 34.89438629150391 92.53561401367188 0
    vertex 33.09376525878906 72.13561248779297 0
    vertex 33.09376525878906 92.53561401367188 0
  endloop
endfacet
facet normal 0 0 -1
  outer loop
    vertex 33.09376525878906 72.13561248779297 0
    vertex 2.874387979507446 70.38402557373047 0
    vertex 2.874387979507446 72.13561248779297 0
  endloop
endfacet
facet normal 0 0 -1
  outer loop
    vertex 2.874387979507446 70.38402557373047 0
    vertex 33.09376525878906 72.13561248779297 0
    vertex 34.89438629150391 70.38402557373047 0
  endloop
endfacet
facet normal 0 0 -1
  outer loop
    vertex 34.89438629150391 70.38402557373047 0
    vertex 33.09376525878906 72.13561248779297 0
    vertex 34.89438629150391 92.53561401367188 0
  endloop
endfacet
facet normal 0 1 0
  outer loop
    vertex 2.874387979507446 72.13561248779297 36.27999877929688
    vertex 33.09376525878906 72.13561248779297 0
    vertex 2.874387979507446 72.13561248779297 0
  endloop
endfacet
facet normal 0 1 0
  outer loop
    vertex 33.09376525878906 72.13561248779297 0
    vertex 2.874387979507446 72.13561248779297 36.27999877929688
    vertex 33.09376525878906 72.13561248779297 36.27999877929688
  endloop
endfacet
facet normal -1 0 0
  outer loop
    vertex 33.09376525878906 92.53561401367188 36.27999877929688
    vertex 33.09376525878906 72.13561248779297 0
    vertex 33.09376525878906 72.13561248779297 36.27999877929688
  endloop
endfacet
facet normal -1 0 0
  outer loop
    vertex 33.09376525878906 72.13561248779297 0
    vertex 33.09376525878906 92.53561401367188 36.27999877929688
    vertex 33.09376525878906 92.53561401367188 0
  endloop
endfacet
facet normal 1 0 0
  outer loop
    vertex 34.89438629150391 92.53561401367188 0
    vertex 34.89438629150391 70.38402557373047 36.27999877929688
    vertex 34.89438629150391 70.38402557373047 0
  endloop
endfacet
facet normal 1 0 0
  outer loop
    vertex 34.89438629150391 70.38402557373047 36.27999877929688
    vertex 34.89438629150391 92.53561401367188 0
    vertex 34.89438629150391 95.41000366210938 36.27999877929688
  endloop
endfacet
facet normal 1 0 0
  outer loop
    vertex 34.89438629150391 95.41000366210938 36.27999877929688
    vertex 34.89438629150391 92.53561401367188 0
    vertex 34.89438629150391 95.41000366210938 -5.775291286462579e-15
  endloop
endfacet
facet normal 0 -1 0
  outer loop
    vertex 34.89438629150391 70.38402557373047 36.27999877929688
    vertex 2.874387979507446 70.38402557373047 0
    vertex 34.89438629150391 70.38402557373047 0
  endloop
endfacet
facet normal 0 -1 0
  outer loop
    vertex 2.874387979507446 70.38402557373047 0
    vertex 34.89438629150391 70.38402557373047 36.27999877929688
    vertex 2.874387979507446 70.38402557373047 36.27999877929688
  endloop
endfacet
facet normal 0 0 1
  outer loop
    vertex 34.89438629150391 70.38402557373047 36.27999877929688
    vertex 2.874387979507446 72.13561248779297 36.27999877929688
    vertex 2.874387979507446 70.38402557373047 36.27999877929688
  endloop
endfacet
facet normal 0 0 1
  outer loop
    vertex 2.874387979507446 72.13561248779297 36.27999877929688
    vertex 34.89438629150391 70.38402557373047 36.27999877929688
    vertex 33.09376525878906 72.13561248779297 36.27999877929688
  endloop
endfacet
facet normal 0 0 1
  outer loop
    vertex 33.09376525878906 72.13561248779297 36.27999877929688
    vertex 34.89438629150391 70.38402557373047 36.27999877929688
    vertex 33.09376525878906 92.53561401367188 36.27999877929688
  endloop
endfacet
facet normal 0 0 1
  outer loop
    vertex 2.874387979507446 70.38402557373047 36.27999877929688
    vertex 0 95.41000366210938 36.27999877929688
    vertex 0 70.38402557373047 36.27999877929688
  endloop
endfacet
facet normal 0 0 1
  outer loop
    vertex 0 95.41000366210938 36.27999877929688
    vertex 2.874387979507446 70.38402557373047 36.27999877929688
    vertex 2.874387979507446 92.53561401367188 36.27999877929688
  endloop
endfacet
facet normal 0 0 1
  outer loop
    vertex 0 95.41000366210938 36.27999877929688
    vertex 2.874387979507446 92.53561401367188 36.27999877929688
    vertex 34.89438629150391 95.41000366210938 36.27999877929688
  endloop
endfacet
facet normal 0 0 1
  outer loop
    vertex 2.874387979507446 92.53561401367188 36.27999877929688
    vertex 2.874387979507446 70.38402557373047 36.27999877929688
    vertex 2.874387979507446 72.13561248779297 36.27999877929688
  endloop
endfacet
facet normal 0 0 1
  outer loop
    vertex 34.89438629150391 95.41000366210938 36.27999877929688
    vertex 2.874387979507446 92.53561401367188 36.27999877929688
    vertex 33.09376525878906 92.53561401367188 36.27999877929688
  endloop
endfacet
facet normal 0 0 1
  outer loop
    vertex 34.89438629150391 95.41000366210938 36.27999877929688
    vertex 33.09376525878906 92.53561401367188 36.27999877929688
    vertex 34.89438629150391 70.38402557373047 36.27999877929688
  endloop
endfacet
facet normal 0 -1 0
  outer loop
    vertex 2.874387979507446 70.38402557373047 36.27999877929688
    vertex 7.283063041541027e-14 70.38402557373047 5.775291286462579e-15
    vertex 2.874387979507446 70.38402557373047 0
  endloop
endfacet
facet normal 0 -1 0
  outer loop
    vertex 7.283063041541027e-14 70.38402557373047 5.775291286462579e-15
    vertex 2.874387979507446 70.38402557373047 36.27999877929688
    vertex 0 70.38402557373047 36.27999877929688
  endloop
endfacet
facet normal 0 -1 0
  outer loop
    vertex 33.09376525878906 92.53561401367188 36.27999877929688
    vertex 2.874387979507446 92.53561401367188 0
    vertex 33.09376525878906 92.53561401367188 0
  endloop
endfacet
facet normal 0 -1 0
  outer loop
    vertex 2.874387979507446 92.53561401367188 0
    vertex 33.09376525878906 92.53561401367188 36.27999877929688
    vertex 2.874387979507446 92.53561401367188 36.27999877929688
  endloop
endfacet
facet normal 0 1 0
  outer loop
    vertex 0 95.41000366210938 0
    vertex 34.89438629150391 95.41000366210938 36.27999877929688
    vertex 34.89438629150391 95.41000366210938 -5.775291286462579e-15
  endloop
endfacet
facet normal 0 1 0
  outer loop
    vertex 34.89438629150391 95.41000366210938 36.27999877929688
    vertex 0 95.41000366210938 0
    vertex 0 95.41000366210938 36.27999877929688
  endloop
endfacet
facet normal 1 0 0
  outer loop
    vertex 2.874387979507446 92.53561401367188 0
    vertex 2.874387979507446 72.13561248779297 36.27999877929688
    vertex 2.874387979507446 72.13561248779297 0
  endloop
endfacet
facet normal 1 0 0
  outer loop
    vertex 2.874387979507446 72.13561248779297 36.27999877929688
    vertex 2.874387979507446 92.53561401367188 0
    vertex 2.874387979507446 92.53561401367188 36.27999877929688
  endloop
endfacet
facet normal -1 -1.456380508575163e-15 -1.004612415662649e-15
  outer loop
    vertex 0 95.41000366210938 36.27999877929688
    vertex 7.283063041541027e-14 70.38402557373047 5.775291286462579e-15
    vertex 0 70.38402557373047 36.27999877929688
  endloop
endfacet
facet normal -1 -1.456380508575163e-15 -1.004612415662649e-15
  outer loop
    vertex 7.283063041541027e-14 70.38402557373047 5.775291286462579e-15
    vertex 0 95.41000366210938 36.27999877929688
    vertex 0 95.41000366210938 0
  endloop
endfacet
facet normal -6.196204827842817e-17 -9.695693656155377e-17 -1
  outer loop
    vertex 0 95.41000366210938 0
    vertex 2.874387979507446 92.53561401367188 0
    vertex 7.283063041541027e-14 70.38402557373047 5.775291286462579e-15
  endloop
endfacet
facet normal -6.196204827842817e-17 -9.695693656155377e-17 -1
  outer loop
    vertex 2.874387979507446 92.53561401367188 0
    vertex 0 95.41000366210938 0
    vertex 34.89438629150391 95.41000366210938 -5.775291286462579e-15
  endloop
endfacet
facet normal -6.196204827842817e-17 -9.695693656155377e-17 -1
  outer loop
    vertex 2.874387979507446 92.53561401367188 0
    vertex 34.89438629150391 95.41000366210938 -5.775291286462579e-15
    vertex 33.09376525878906 92.53561401367188 0
  endloop
endfacet
facet normal -6.196204827842817e-17 -9.695693656155377e-17 -1
  outer loop
    vertex 33.09376525878906 92.53561401367188 0
    vertex 34.89438629150391 95.41000366210938 -5.775291286462579e-15
    vertex 34.89438629150391 92.53561401367188 0
  endloop
endfacet
facet normal -6.196204827842817e-17 -9.695693656155377e-17 -1
  outer loop
    vertex 2.874387979507446 92.53561401367188 0
    vertex 2.874387979507446 70.38402557373047 0
    vertex 7.283063041541027e-14 70.38402557373047 5.775291286462579e-15
  endloop
endfacet
facet normal -6.196204827842817e-17 -9.695693656155377e-17 -1
  outer loop
    vertex 2.874387979507446 70.38402557373047 0
    vertex 2.874387979507446 92.53561401367188 0
    vertex 2.874387979507446 72.13561248779297 0
  endloop
endfacet
endsolid com.sketchup.SketchUp.2019
